<svg width="61" height="61" viewBox="0 0 61 61" fill="none" xmlns="http://www.w3.org/2000/svg">
<path d="M29.8906 15.6312C29.9464 15.5169 30.0331 15.4206 30.141 15.3532C30.2488 15.2857 30.3734 15.25 30.5006 15.25C30.6278 15.25 30.7524 15.2857 30.8603 15.3532C30.9682 15.4206 31.0549 15.5169 31.1106 15.6312L33.5278 20.5303C33.5761 20.6294 33.648 20.7152 33.737 20.7803C33.826 20.8454 33.9295 20.8879 34.0386 20.9039L39.4524 21.6893C40.0052 21.7694 40.2301 22.4518 39.826 22.8445L35.9144 26.6608C35.8355 26.7379 35.7765 26.833 35.7426 26.9379C35.7088 27.0429 35.701 27.1545 35.7199 27.2632L36.6426 32.6541C36.6633 32.7785 36.6489 32.9063 36.601 33.0231C36.5531 33.1398 36.4736 33.2409 36.3714 33.315C36.2692 33.389 36.1484 33.4331 36.0226 33.4423C35.8967 33.4515 35.7708 33.4254 35.6589 33.367L30.8171 30.8202C30.72 30.7695 30.6121 30.743 30.5025 30.743C30.393 30.743 30.2851 30.7695 30.188 30.8202L25.3461 33.367C25.2344 33.4244 25.1089 33.4496 24.9837 33.4399C24.8585 33.4302 24.7384 33.386 24.6368 33.3121C24.5353 33.2382 24.4562 33.1375 24.4084 33.0214C24.3607 32.9052 24.3461 32.778 24.3663 32.6541L25.2889 27.2632C25.3084 27.1549 25.3012 27.0434 25.268 26.9385C25.2348 26.8335 25.1766 26.7382 25.0983 26.6608L21.1714 22.8445C21.0815 22.7562 21.0179 22.6446 20.9879 22.5221C20.9578 22.3997 20.9624 22.2714 21.0012 22.1514C21.04 22.0315 21.1114 21.9247 21.2075 21.8431C21.3035 21.7615 21.4204 21.7082 21.5451 21.6893L26.9588 20.9039C27.0679 20.8879 27.1715 20.8454 27.2605 20.7803C27.3495 20.7152 27.4213 20.6294 27.4697 20.5303L29.8906 15.6312Z" fill="white"/>
<path d="M7.625 7.625C7.625 5.60272 8.42835 3.66328 9.85831 2.23331C11.2883 0.803346 13.2277 0 15.25 0L45.75 0C47.7723 0 49.7117 0.803346 51.1417 2.23331C52.5717 3.66328 53.375 5.60272 53.375 7.625V59.0938C53.3748 59.4386 53.2811 59.7769 53.1039 60.0726C52.9266 60.3684 52.6725 60.6106 52.3685 60.7733C52.0645 60.9361 51.7221 61.0133 51.3777 60.9968C51.0332 60.9804 50.6997 60.8708 50.4127 60.6798L30.5 49.9476L10.5873 60.6798C10.3003 60.8708 9.96675 60.9804 9.62234 60.9968C9.27792 61.0133 8.93548 60.9361 8.6315 60.7733C8.32751 60.6106 8.07337 60.3684 7.89612 60.0726C7.71888 59.7769 7.62518 59.4386 7.625 59.0938V7.625ZM15.25 3.8125C14.2389 3.8125 13.2691 4.21417 12.5542 4.92916C11.8392 5.64414 11.4375 6.61386 11.4375 7.625V55.5329L29.4439 46.0702C29.7568 45.8621 30.1242 45.751 30.5 45.751C30.8758 45.751 31.2432 45.8621 31.5561 46.0702L49.5625 55.5329V7.625C49.5625 6.61386 49.1608 5.64414 48.4458 4.92916C47.7309 4.21417 46.7611 3.8125 45.75 3.8125H15.25Z" fill="white"/>
</svg>
