<svg width="20" height="20" viewBox="0 0 20 20" fill="none" xmlns="http://www.w3.org/2000/svg">
<path d="M14.9629 17.3106L17.2004 9.39398C17.2354 9.27004 17.2413 9.13966 17.2174 9.01309C17.1936 8.88652 17.1407 8.76719 17.063 8.66448C16.9853 8.56177 16.8848 8.47847 16.7695 8.42113C16.6542 8.36379 16.5271 8.33396 16.3983 8.33398H11.6146C11.546 8.33399 11.4783 8.31852 11.4166 8.28873C11.3548 8.25894 11.3005 8.2156 11.2579 8.16193C11.2152 8.10827 11.1851 8.04567 11.17 7.97878C11.1549 7.9119 11.155 7.84247 11.1704 7.77565L11.3788 6.87398C11.5696 6.0469 11.6308 5.19482 11.5604 4.34898L11.5221 3.8894C11.481 3.39636 11.2665 2.93383 10.9167 2.58398C10.5967 2.26391 10.1626 2.08405 9.71 2.08398H9.61C9.33625 2.08398 9.08417 2.23232 8.95167 2.47148L7.84375 4.46523C7.34708 5.35941 6.60669 6.09416 5.70875 6.58398L2.93417 8.09648C2.80262 8.16826 2.69287 8.27419 2.61646 8.40309C2.54006 8.532 2.49982 8.67913 2.5 8.82898V17.084C2.5 17.305 2.5878 17.517 2.74408 17.6732C2.90036 17.8295 3.11232 17.9173 3.33333 17.9173H14.1613C14.3427 17.9173 14.5192 17.858 14.6639 17.7485C14.8086 17.639 14.9136 17.4853 14.9629 17.3106Z" fill="#06C755" stroke="#06C755" stroke-width="4" stroke-linecap="round" stroke-linejoin="round"/>
</svg>
