<svg width="250" height="250" viewBox="0 0 250 250" fill="none" xmlns="http://www.w3.org/2000/svg">
<rect width="250" height="250" fill="#E5E5E5"/>
<g clip-path="url(#clip0_0_1)">
<rect width="375" height="29733" transform="translate(-63 -2139)" fill="#FCFCFC"/>
<g filter="url(#filter0_d_0_1)">
<rect x="-48" y="-146" width="345" height="449" rx="30" fill="#FEFEFE"/>
</g>
<path d="M125 0C56 0 0 56 0 125C0 194 56 250 125 250C194 250 250 194 250 125C250 56 194 0 125 0ZM125 225C69.75 225 25 180.25 25 125C25 101.875 32.875 80.625 46.125 63.75L186.25 203.875C168.789 217.603 147.211 225.045 125 225ZM203.875 186.25L63.75 46.125C81.2108 32.3971 102.789 24.9549 125 25C180.25 25 225 69.75 225 125C225 148.125 217.125 169.375 203.875 186.25Z" fill="#3FA654"/>
<path d="M65.3633 186.289L61.1189 183.837C60.9779 183.79 60.8554 183.699 60.7686 183.578C60.6818 183.457 60.6352 183.311 60.6352 183.162C60.6352 183.013 60.6818 182.868 60.7686 182.747C60.8554 182.626 60.9779 182.535 61.1189 182.487L104.859 157.242C105.221 157.059 105.622 156.963 106.028 156.963C106.434 156.963 106.835 157.059 107.197 157.242L111.442 159.694C111.583 159.742 111.705 159.833 111.792 159.954C111.879 160.075 111.925 160.22 111.925 160.369C111.925 160.518 111.879 160.663 111.792 160.784C111.705 160.905 111.583 160.996 111.442 161.044L67.7015 186.289C67.3392 186.473 66.9387 186.568 66.5324 186.568C66.1262 186.568 65.7257 186.473 65.3633 186.289Z" fill="#E0E0E0"/>
<path d="M151.244 188.276C128.626 188.276 110.29 177.692 110.29 164.635C110.29 151.578 128.626 140.994 151.244 140.994C173.862 140.994 192.197 151.578 192.197 164.635C192.197 177.692 173.862 188.276 151.244 188.276Z" fill="#E0E0E0"/>
<path d="M112.862 214.358C100.607 214.358 90.6731 208.624 90.6731 201.549C90.6731 194.475 100.607 188.741 112.862 188.741C125.116 188.741 135.05 194.475 135.05 201.549C135.05 208.624 125.116 214.358 112.862 214.358Z" fill="#E0E0E0"/>
<path d="M134.785 219.434L138.662 217.199L144.003 214.115C145.148 213.533 146.415 213.23 147.699 213.23C148.984 213.23 150.25 213.533 151.396 214.115C153.431 215.292 153.421 217.204 151.396 218.381L146.044 221.459L142.172 223.7C141.027 224.282 139.761 224.586 138.476 224.586C137.192 224.586 135.925 224.282 134.78 223.7C132.728 222.518 132.739 220.606 134.785 219.434Z" fill="#E0E0E0"/>
<path d="M86.6065 205.032L82.7239 202.797L77.3833 199.708C76.2372 199.129 74.9711 198.827 73.687 198.827C72.4029 198.827 71.1368 199.129 69.9907 199.708C67.9549 200.891 67.9657 202.802 69.9907 203.979L75.3421 207.057L79.2301 209.32C80.3753 209.902 81.6418 210.205 82.9264 210.205C84.211 210.205 85.4775 209.902 86.6227 209.32C88.6585 208.116 88.6531 206.204 86.6065 205.032Z" fill="#E0E0E0"/>
<path d="M62.5798 180.16V99.6189C62.6514 98.321 63.0274 97.058 63.6775 95.9323C64.3276 94.8066 65.2335 93.8497 66.322 93.1389L104.484 71.0799C106.552 69.8865 108.231 70.8531 108.231 73.2399V153.824C108.16 155.123 107.783 156.386 107.132 157.512C106.481 158.638 105.574 159.594 104.484 160.304L66.322 182.32C64.2538 183.535 62.5798 182.568 62.5798 180.16Z" fill="#E0E0E0"/>
<path d="M64.3181 181.197V100.634C64.388 99.3356 64.7633 98.072 65.4135 96.946C66.0638 95.82 66.9706 94.8634 68.0603 94.154L106.222 72.1166C108.29 70.9232 109.97 71.8898 109.97 74.2766V154.839C109.898 156.138 109.521 157.401 108.87 158.527C108.219 159.653 107.312 160.609 106.222 161.319L68.0981 183.357C66.0083 184.55 64.3181 183.583 64.3181 181.197Z" fill="#F5F5F5"/>
<path d="M68.099 94.1542L102.513 74.2822C92.291 80.8864 71.7332 92.7772 69.1628 94.8022C66.5924 96.8272 65.264 98.1502 65.264 104.684C65.264 111.218 64.319 176.758 64.319 176.758V100.618C64.3955 99.3191 64.7778 98.0566 65.4347 96.9333C66.0916 95.8101 67.0044 94.8579 68.099 94.1542Z" fill="#FAFAFA"/>
<path d="M88.4781 86.2323C88.343 86.3235 88.2314 86.4455 88.1526 86.5881C88.0737 86.7308 88.0298 86.8901 88.0245 87.0531V167.356C88.0245 167.664 88.2243 167.794 88.4781 167.653C88.6115 167.561 88.7216 167.439 88.7994 167.296C88.8772 167.154 88.9207 166.995 88.9263 166.833V86.5293C88.9263 86.1999 88.7265 86.0919 88.4781 86.2323Z" fill="#E0E0E0"/>
<g style="mix-blend-mode:hard-light" opacity="0.7">
<path d="M92.3997 153.235C92.3993 152.98 92.421 152.726 92.4645 152.474C92.4645 152.415 92.5023 152.226 92.5131 152.188C92.992 150.052 94.2991 148.193 96.1473 147.02L102.703 143.24L102.762 143.213C103.469 142.76 104.285 142.506 105.124 142.478C105.963 142.449 106.794 142.646 107.53 143.05C108.267 143.453 108.881 144.047 109.308 144.769C109.736 145.492 109.961 146.316 109.96 147.155C109.959 147.41 109.936 147.665 109.89 147.916C109.877 148.013 109.859 148.108 109.836 148.203C109.362 150.336 108.061 152.195 106.218 153.37L99.6573 157.151L99.6033 157.177C98.8963 157.632 98.08 157.887 97.2402 157.916C96.4005 157.946 95.5683 157.748 94.8312 157.345C94.0941 156.942 93.4792 156.347 93.0514 155.624C92.6235 154.901 92.3984 154.076 92.3997 153.235Z" fill="#FAFAFA"/>
</g>
<path d="M106.477 145.125C106.477 147.366 104.797 150.147 102.729 151.34L96.1734 155.12C94.1052 156.313 92.4258 155.466 92.4258 153.225C92.4258 150.984 94.1052 148.203 96.1734 147.009L102.729 143.229C104.819 142.041 106.477 142.9 106.477 145.125Z" fill="#E0E0E0"/>
<path d="M105.499 142.479C106.706 142.528 107.846 143.041 108.683 143.912C109.519 144.782 109.986 145.942 109.987 147.15C109.985 147.405 109.962 147.66 109.917 147.911C109.904 148.007 109.886 148.103 109.863 148.197C109.445 150.028 108.431 151.667 106.979 152.858C108.788 150.352 109.809 148.754 109.371 146.27C109.19 145.318 108.722 144.444 108.03 143.767C107.338 143.089 106.455 142.639 105.499 142.479Z" fill="white"/>
<path d="M102.383 154.159C102.661 153.96 102.881 153.69 103.022 153.378C103.162 153.066 103.217 152.723 103.182 152.382C103.131 151.433 102.856 150.508 102.38 149.684C101.905 148.86 101.241 148.161 100.444 147.641C100.167 147.44 99.842 147.315 99.5012 147.281C99.1605 147.247 98.8168 147.304 98.5056 147.447L94.9848 149.488C94.0939 150.004 93.4447 150.853 93.1799 151.848C92.9151 152.843 93.0563 153.903 93.5726 154.794C94.0889 155.684 94.938 156.334 95.933 156.598C96.9279 156.863 97.9873 156.722 98.8782 156.206L102.383 154.159Z" fill="#F5F5F5"/>
<path d="M107.237 151.351C108.106 150.825 108.735 149.979 108.988 148.995C109.241 148.011 109.098 146.967 108.589 146.087C108.081 145.207 107.249 144.562 106.27 144.289C105.291 144.016 104.244 144.138 103.354 144.628L98.4944 147.447C98.8057 147.304 99.1494 147.247 99.4901 147.281C99.8308 147.315 100.156 147.439 100.433 147.641C101.23 148.16 101.893 148.86 102.369 149.684C102.845 150.508 103.12 151.432 103.171 152.382C103.206 152.722 103.151 153.066 103.011 153.378C102.87 153.69 102.65 153.96 102.372 154.159L107.237 151.351Z" fill="#3FA654"/>
<path opacity="0.4" d="M106.364 145.659C106.56 146 106.614 146.404 106.512 146.783C106.411 147.163 106.164 147.487 105.824 147.684L99.9598 151.086C99.4655 150.27 99.1885 149.34 99.1552 148.386C99.1552 148.289 99.1552 148.203 99.1552 148.116L104.328 145.114C104.498 145.015 104.685 144.95 104.879 144.924C105.073 144.897 105.271 144.91 105.46 144.961C105.65 145.011 105.827 145.099 105.982 145.219C106.138 145.339 106.267 145.489 106.364 145.659Z" fill="white"/>
<path d="M102.383 154.159C102.661 153.96 102.881 153.69 103.022 153.378C103.162 153.066 103.217 152.723 103.182 152.382C103.131 151.433 102.856 150.508 102.38 149.684C101.905 148.86 101.241 148.161 100.444 147.641C100.167 147.44 99.842 147.315 99.5012 147.281C99.1605 147.247 98.8168 147.304 98.5056 147.447L94.9848 149.488C94.0939 150.004 93.4447 150.853 93.1799 151.848C92.9151 152.843 93.0563 153.903 93.5726 154.794C94.0889 155.684 94.938 156.334 95.933 156.598C96.9279 156.863 97.9873 156.722 98.8782 156.206L102.383 154.159Z" fill="#F5F5F5"/>
<path opacity="0.1" d="M100.445 147.641C101.242 148.16 101.905 148.86 102.381 149.684C102.857 150.508 103.131 151.432 103.183 152.382C103.218 152.723 103.163 153.066 103.022 153.378C102.882 153.69 102.662 153.96 102.383 154.159L102.659 153.997L102.869 153.878C103.148 153.679 103.37 153.41 103.51 153.098C103.65 152.786 103.705 152.442 103.669 152.101C103.617 151.151 103.343 150.227 102.867 149.403C102.391 148.579 101.728 147.88 100.931 147.36C100.654 147.159 100.329 147.034 99.9879 147C99.6472 146.966 99.3035 147.023 98.9923 147.166L98.5063 147.447C98.8176 147.304 99.1612 147.247 99.5019 147.281C99.8427 147.315 100.168 147.439 100.445 147.641Z" fill="#333333"/>
<path d="M93.0732 152.436C92.9929 153.149 93.1123 153.871 93.4182 154.52C93.724 155.169 94.2042 155.72 94.8052 156.112C95.4061 156.504 96.1042 156.722 96.8215 156.74C97.5388 156.758 98.2471 156.577 98.8674 156.216L102.383 154.17C102.661 153.97 102.881 153.701 103.022 153.389C103.162 153.077 103.217 152.733 103.182 152.393C103.178 151.993 103.122 151.596 103.015 151.21L97.134 154.612C95.2008 155.714 93.0948 153.7 93.0732 152.436Z" fill="#E0E0E0"/>
<path d="M94.4129 152.582C94.5102 152.751 94.6398 152.898 94.7943 153.017C94.9489 153.135 95.1252 153.222 95.3133 153.272C95.5015 153.323 95.6976 153.335 95.8906 153.309C96.0836 153.283 96.2696 153.22 96.4379 153.122L102.378 149.682C101.916 148.847 101.249 148.142 100.439 147.636C100.362 147.59 100.283 147.549 100.202 147.511L94.9475 150.552C94.6075 150.75 94.3601 151.075 94.2599 151.456C94.1596 151.837 94.2147 152.242 94.4129 152.582Z" fill="white"/>
<path opacity="0.1" d="M108.383 145.643C108.34 145.584 108.291 145.53 108.243 145.47L108.14 145.351C108.102 145.308 108.059 145.27 108.016 145.227L107.886 145.098L107.811 145.038C107.607 144.863 107.384 144.711 107.147 144.585L106.882 144.455C107.962 145.114 108.659 147.938 106.725 149.056C106.067 149.439 105.078 150.028 103.032 151.216C103.139 151.601 103.195 151.999 103.199 152.398C103.235 152.739 103.179 153.082 103.039 153.394C102.899 153.706 102.678 153.976 102.4 154.175L107.26 151.367C108.15 150.851 108.8 150.003 109.066 149.009C109.332 148.015 109.193 146.956 108.68 146.064C108.615 145.962 108.551 145.859 108.48 145.762L108.383 145.643Z" fill="#333333"/>
<g style="mix-blend-mode:hard-light" opacity="0.7">
<path d="M67.8498 167.297C67.8504 167.042 67.8702 166.788 67.9092 166.536C67.9092 166.476 67.9524 166.287 67.9632 166.249C68.4397 164.114 69.745 162.255 71.592 161.082L78.153 157.302L78.2124 157.275C78.9194 156.822 79.7351 156.568 80.574 156.539C81.413 156.51 82.2442 156.708 82.9804 157.111C83.7167 157.514 84.3309 158.108 84.7584 158.831C85.186 159.553 85.4113 160.377 85.4106 161.217C85.4092 161.472 85.3857 161.727 85.3404 161.978C85.3404 162.032 85.3026 162.178 85.2864 162.264C84.8131 164.398 83.5118 166.257 81.6684 167.432L75.1074 171.212H75.0534C74.3464 171.666 73.5301 171.921 72.6904 171.951C71.8506 171.98 71.0184 171.783 70.2813 171.38C69.5442 170.976 68.9294 170.382 68.5015 169.659C68.0736 168.935 67.8485 168.11 67.8498 167.27V167.297Z" fill="#FAFAFA"/>
</g>
<path d="M81.8955 159.186C81.8955 161.427 80.2215 164.214 78.1533 165.407L71.5923 169.187C69.5295 170.381 67.8501 169.533 67.8501 167.292C67.8501 165.051 69.5295 162.27 71.5923 161.076L78.1533 157.296C80.2215 156.103 81.8955 156.94 81.8955 159.186Z" fill="#E0E0E0"/>
<path d="M80.9232 156.54C82.1291 156.59 83.269 157.104 84.1051 157.975C84.9412 158.845 85.4089 160.004 85.4106 161.211C85.4092 161.467 85.3857 161.721 85.3404 161.973C85.3404 162.027 85.3026 162.172 85.2864 162.259C84.8688 164.089 83.8544 165.729 82.4028 166.919C84.2064 164.414 85.2325 162.815 84.7951 160.336C84.6138 159.384 84.1458 158.51 83.4538 157.832C82.7617 157.153 81.8787 156.703 80.9232 156.54Z" fill="white"/>
<path d="M77.8195 168.221C78.0972 168.022 78.3175 167.754 78.4578 167.443C78.5982 167.132 78.6537 166.789 78.6187 166.449C78.5674 165.499 78.2927 164.574 77.8171 163.749C77.3414 162.924 76.6781 162.223 75.8809 161.703C75.6042 161.501 75.2787 161.377 74.938 161.343C74.5973 161.308 74.2536 161.366 73.9423 161.508L70.4215 163.55C69.9804 163.804 69.5939 164.144 69.2839 164.548C68.974 164.952 68.7467 165.414 68.6151 165.906C68.4834 166.398 68.45 166.911 68.5168 167.417C68.5835 167.922 68.7491 168.409 69.004 168.85C69.2589 169.291 69.5983 169.677 70.0026 169.987C70.4069 170.297 70.8683 170.524 71.3605 170.656C71.8526 170.788 72.3659 170.821 72.871 170.754C73.376 170.688 73.863 170.522 74.3041 170.267L77.8195 168.221Z" fill="#F5F5F5"/>
<path d="M82.678 165.413C83.5689 164.898 84.2186 164.05 84.4845 163.056C84.7503 162.062 84.6104 161.003 84.0955 160.112C83.5807 159.222 82.733 158.572 81.7391 158.306C80.7451 158.04 79.6862 158.18 78.7954 158.695L73.9354 161.508C74.2467 161.366 74.5904 161.308 74.9311 161.343C75.2718 161.377 75.5973 161.501 75.874 161.703C76.6712 162.223 77.3345 162.924 77.8102 163.749C78.2859 164.574 78.5605 165.499 78.6118 166.449C78.6468 166.789 78.5913 167.132 78.4509 167.443C78.3106 167.754 78.0903 168.022 77.8126 168.221L82.678 165.413Z" fill="#455A64"/>
<path opacity="0.4" d="M81.7885 159.721C81.8863 159.889 81.9499 160.075 81.9757 160.268C82.0015 160.461 81.989 160.657 81.9388 160.845C81.8886 161.034 81.8018 161.21 81.6834 161.364C81.5649 161.519 81.4171 161.649 81.2485 161.746L75.3841 165.153C74.8913 164.336 74.6144 163.407 74.5795 162.453C74.5795 162.361 74.5795 162.27 74.5795 162.183L79.7527 159.181C79.9215 159.081 80.1084 159.016 80.3025 158.99C80.4966 158.963 80.6941 158.975 80.8835 159.025C81.0729 159.076 81.2504 159.163 81.4058 159.282C81.5611 159.402 81.6912 159.551 81.7885 159.721Z" fill="white"/>
<path d="M77.8195 168.221C78.0972 168.022 78.3175 167.754 78.4578 167.443C78.5982 167.132 78.6537 166.789 78.6187 166.449C78.5674 165.499 78.2927 164.574 77.8171 163.749C77.3414 162.924 76.6781 162.223 75.8809 161.703C75.6042 161.501 75.2787 161.377 74.938 161.343C74.5973 161.308 74.2536 161.366 73.9423 161.508L70.4215 163.55C69.9804 163.804 69.5939 164.144 69.2839 164.548C68.974 164.952 68.7467 165.414 68.6151 165.906C68.4834 166.398 68.45 166.911 68.5168 167.417C68.5835 167.922 68.7491 168.409 69.004 168.85C69.2589 169.291 69.5983 169.677 70.0026 169.987C70.4069 170.297 70.8683 170.524 71.3605 170.656C71.8526 170.788 72.3659 170.821 72.871 170.754C73.376 170.688 73.863 170.522 74.3041 170.267L77.8195 168.221Z" fill="#F5F5F5"/>
<path opacity="0.1" d="M75.869 161.703C76.6661 162.223 77.3294 162.924 77.8051 163.749C78.2808 164.574 78.5554 165.499 78.6067 166.449C78.6417 166.789 78.5862 167.132 78.4458 167.443C78.3055 167.754 78.0853 168.022 77.8075 168.221L78.0829 168.064L78.2935 167.94C78.5721 167.742 78.7929 167.474 78.9334 167.163C79.0739 166.851 79.1289 166.508 79.0927 166.169C79.0414 165.218 78.7668 164.293 78.2911 163.468C77.8154 162.643 77.1521 161.942 76.3549 161.422C76.0782 161.22 75.7527 161.096 75.412 161.062C75.0713 161.028 74.7276 161.085 74.4164 161.228L73.9303 161.508C74.2416 161.366 74.5853 161.308 74.926 161.343C75.2667 161.377 75.5922 161.501 75.869 161.703Z" fill="#333333"/>
<path d="M68.4991 166.498C68.4189 167.211 68.5383 167.932 68.8441 168.581C69.15 169.23 69.6302 169.782 70.2311 170.174C70.8321 170.566 71.5302 170.783 72.2475 170.802C72.9648 170.82 73.6731 170.639 74.2933 170.278L77.8195 168.22C78.0972 168.022 78.3175 167.754 78.4578 167.443C78.5982 167.131 78.6537 166.789 78.6187 166.449C78.615 166.048 78.5587 165.648 78.4513 165.261C76.3939 166.444 73.8829 167.902 72.5707 168.663C70.6267 169.781 68.5207 167.767 68.4991 166.498Z" fill="#E0E0E0"/>
<path d="M69.8373 166.66C69.9345 166.829 70.0641 166.976 70.2187 167.095C70.3732 167.213 70.5495 167.3 70.7377 167.35C70.9258 167.4 71.122 167.413 71.3149 167.387C71.5079 167.361 71.6939 167.298 71.8622 167.2L77.8022 163.76C77.3402 162.925 76.673 162.22 75.8636 161.714C75.7826 161.665 75.7016 161.627 75.626 161.589L70.3718 164.63C70.0329 164.829 69.7865 165.154 69.6863 165.535C69.5862 165.915 69.6404 166.319 69.8373 166.66Z" fill="white"/>
<path opacity="0.1" d="M83.8072 159.71C83.7634 159.65 83.7165 159.592 83.6668 159.537C83.6355 159.495 83.6013 159.455 83.5642 159.418L83.44 159.289C83.3976 159.245 83.3525 159.203 83.305 159.165C83.2795 159.139 83.2504 159.117 83.2186 159.1C83.0145 158.923 82.7918 158.769 82.5544 158.641C82.4734 158.598 82.387 158.554 82.2952 158.517C83.3752 159.17 84.0718 162 82.1386 163.112C81.4798 163.495 80.4862 164.084 78.445 165.272C78.5524 165.659 78.6087 166.058 78.6124 166.46C78.6474 166.799 78.5919 167.142 78.4515 167.453C78.3111 167.764 78.0909 168.033 77.8132 168.231L82.6732 165.423C83.5637 164.907 84.2129 164.059 84.4781 163.065C84.7434 162.07 84.6031 161.011 84.088 160.12C84.0283 160.016 83.9634 159.915 83.8936 159.818L83.8072 159.71Z" fill="#333333"/>
<g style="mix-blend-mode:hard-light" opacity="0.7">
<path d="M92.3997 132.964C92.3994 132.707 92.421 132.451 92.4645 132.197C92.4645 132.143 92.5023 131.949 92.5131 131.917C92.7493 130.858 93.1919 129.856 93.8154 128.968C94.439 128.081 95.2314 127.325 96.1473 126.743L102.703 122.963H102.762C103.469 122.511 104.285 122.257 105.124 122.228C105.963 122.199 106.794 122.397 107.53 122.8C108.267 123.203 108.881 123.797 109.308 124.519C109.736 125.242 109.961 126.066 109.96 126.905C109.959 127.161 109.936 127.415 109.89 127.667C109.878 127.763 109.86 127.859 109.836 127.953C109.362 130.088 108.061 131.948 106.218 133.126L99.6573 136.906H99.6033C98.8963 137.36 98.08 137.615 97.2402 137.645C96.4005 137.674 95.5683 137.477 94.8312 137.074C94.0941 136.67 93.4792 136.076 93.0514 135.353C92.6235 134.63 92.3984 133.804 92.3997 132.964Z" fill="#FAFAFA"/>
</g>
<path d="M106.477 124.853C106.477 127.089 104.797 129.875 102.729 131.068L96.1734 134.848C94.1052 136.042 92.4258 135.194 92.4258 132.958C92.4258 130.723 94.1052 127.937 96.1734 126.738L102.729 122.958C104.819 121.764 106.477 122.612 106.477 124.853Z" fill="#E0E0E0"/>
<path d="M105.499 122.202C106.705 122.252 107.845 122.766 108.681 123.636C109.517 124.506 109.985 125.666 109.987 126.873C109.985 127.128 109.962 127.383 109.917 127.634C109.905 127.73 109.886 127.826 109.863 127.92C109.445 129.751 108.431 131.39 106.979 132.58C108.788 130.075 109.809 128.476 109.371 125.998C109.19 125.046 108.722 124.172 108.03 123.493C107.338 122.815 106.455 122.364 105.499 122.202Z" fill="white"/>
<path d="M102.384 133.882C102.666 133.685 102.891 133.416 103.035 133.102C103.178 132.789 103.235 132.443 103.199 132.1C103.148 131.149 102.873 130.224 102.397 129.399C101.922 128.575 101.258 127.874 100.461 127.353C100.184 127.152 99.8585 127.028 99.5177 126.995C99.1768 126.962 98.8333 127.02 98.5227 127.164L95.0019 129.2C94.5597 129.455 94.172 129.794 93.861 130.198C93.5499 130.603 93.3215 131.064 93.1889 131.557C93.0563 132.05 93.022 132.564 93.088 133.07C93.154 133.576 93.319 134.063 93.5736 134.506C93.8281 134.948 94.1673 135.335 94.5717 135.647C94.9761 135.958 95.4378 136.186 95.9305 136.319C96.4232 136.451 96.9371 136.486 97.443 136.42C97.9489 136.354 98.4369 136.189 98.8791 135.934L102.384 133.882Z" fill="#F5F5F5"/>
<path d="M107.239 131.074C107.68 130.819 108.067 130.48 108.377 130.075C108.687 129.671 108.914 129.21 109.046 128.717C109.177 128.225 109.211 127.712 109.144 127.207C109.077 126.702 108.912 126.215 108.657 125.774C108.402 125.333 108.062 124.946 107.658 124.636C107.254 124.326 106.792 124.099 106.3 123.967C105.808 123.836 105.295 123.802 104.79 123.869C104.285 123.936 103.798 124.101 103.356 124.356L98.4965 127.175C98.8072 127.031 99.1507 126.973 99.4915 127.006C99.8323 127.039 100.158 127.163 100.435 127.364C101.236 127.881 101.904 128.579 102.384 129.401C102.864 130.224 103.144 131.149 103.2 132.1C103.235 132.44 103.18 132.782 103.04 133.094C102.899 133.405 102.679 133.673 102.401 133.871L107.239 131.074Z" fill="#455A64"/>
<path opacity="0.4" d="M106.363 125.382C106.559 125.723 106.613 126.128 106.511 126.509C106.41 126.889 106.163 127.214 105.823 127.413L99.9585 130.815C99.4648 129.998 99.1878 129.069 99.1539 128.115C99.1539 128.023 99.1539 127.937 99.1539 127.85L104.327 124.848C104.496 124.748 104.682 124.683 104.876 124.656C105.07 124.629 105.267 124.64 105.457 124.69C105.646 124.74 105.824 124.826 105.979 124.945C106.135 125.064 106.265 125.213 106.363 125.382Z" fill="white"/>
<path d="M102.384 133.882C102.666 133.685 102.891 133.416 103.035 133.102C103.178 132.789 103.235 132.443 103.199 132.1C103.148 131.149 102.873 130.224 102.397 129.399C101.922 128.575 101.258 127.874 100.461 127.353C100.184 127.152 99.8585 127.028 99.5177 126.995C99.1768 126.962 98.8333 127.02 98.5227 127.164L95.0019 129.2C94.5597 129.455 94.172 129.794 93.861 130.198C93.5499 130.603 93.3215 131.064 93.1889 131.557C93.0563 132.05 93.022 132.564 93.088 133.07C93.154 133.576 93.319 134.063 93.5736 134.506C93.8281 134.948 94.1673 135.335 94.5717 135.647C94.9761 135.958 95.4378 136.186 95.9305 136.319C96.4232 136.451 96.9371 136.486 97.443 136.42C97.9489 136.354 98.4369 136.189 98.8791 135.934L102.384 133.882Z" fill="#F5F5F5"/>
<path opacity="0.1" d="M100.445 127.364C101.244 127.882 101.909 128.58 102.388 129.403C102.866 130.226 103.144 131.15 103.199 132.1C103.234 132.44 103.179 132.782 103.039 133.094C102.898 133.405 102.678 133.673 102.4 133.871L102.659 133.72L102.869 133.596C103.148 133.399 103.37 133.13 103.51 132.819C103.651 132.508 103.705 132.164 103.669 131.825C103.617 130.874 103.343 129.949 102.867 129.124C102.391 128.299 101.728 127.598 100.931 127.078C100.654 126.877 100.328 126.753 99.9872 126.72C99.6464 126.687 99.3029 126.745 98.9922 126.889L98.5062 127.17C98.8174 127.027 99.1611 126.969 99.502 127.003C99.8428 127.037 100.168 127.162 100.445 127.364Z" fill="#333333"/>
<path d="M93.075 132.159C92.9947 132.872 93.1141 133.594 93.42 134.243C93.7258 134.892 94.206 135.443 94.807 135.835C95.4079 136.227 96.106 136.445 96.8233 136.463C97.5406 136.481 98.2489 136.3 98.8692 135.939L102.385 133.887C102.668 133.69 102.894 133.42 103.037 133.105C103.181 132.791 103.237 132.444 103.2 132.1C103.196 131.698 103.14 131.299 103.033 130.912L97.152 134.314C95.2026 135.442 93.0966 133.434 93.075 132.159Z" fill="#E0E0E0"/>
<path d="M94.4129 132.311C94.6104 132.65 94.9344 132.898 95.3139 132.999C95.6934 133.1 96.0976 133.047 96.4379 132.851L102.378 129.411C101.918 128.572 101.25 127.866 100.439 127.359L100.202 127.235L94.9475 130.275C94.6071 130.474 94.3596 130.801 94.2594 131.182C94.1592 131.564 94.2144 131.97 94.4129 132.311Z" fill="white"/>
<path opacity="0.1" d="M108.383 125.372C108.339 125.312 108.292 125.254 108.242 125.199C108.211 125.157 108.177 125.117 108.14 125.08C108.101 125.036 108.059 124.994 108.015 124.956L107.886 124.826L107.81 124.767C107.606 124.59 107.383 124.436 107.146 124.308L106.881 124.184C107.961 124.837 108.658 127.667 106.725 128.784C106.066 129.162 105.078 129.751 103.031 130.944C103.135 131.321 103.192 131.709 103.199 132.1C103.234 132.44 103.179 132.782 103.038 133.094C102.898 133.405 102.677 133.673 102.399 133.871L107.259 131.063C108.149 130.548 108.799 129.701 109.065 128.708C109.331 127.715 109.193 126.657 108.68 125.766C108.615 125.658 108.55 125.561 108.48 125.463C108.45 125.43 108.418 125.399 108.383 125.372Z" fill="#333333"/>
<g style="mix-blend-mode:hard-light" opacity="0.7">
<path d="M67.8498 147.025C67.8504 146.769 67.8702 146.512 67.9092 146.259C67.9092 146.205 67.9524 146.016 67.9632 145.978C68.1986 144.92 68.6403 143.919 69.263 143.033C69.8856 142.146 70.6771 141.391 71.592 140.81L78.153 137.03L78.2124 137.003C78.9201 136.552 79.736 136.299 80.5747 136.272C81.4134 136.244 82.2442 136.443 82.98 136.846C83.7158 137.25 84.3296 137.843 84.7572 138.565C85.1849 139.288 85.4105 140.111 85.4106 140.95C85.4092 141.204 85.3857 141.457 85.3404 141.706C85.3404 141.766 85.3026 141.912 85.2864 141.993C84.8133 144.128 83.5121 145.989 81.6684 147.166L75.1074 150.946L75.0534 150.973C74.3464 151.427 73.5301 151.682 72.6904 151.712C71.8506 151.741 71.0184 151.544 70.2813 151.14C69.5442 150.737 68.9294 150.143 68.5015 149.419C68.0736 148.696 67.8485 147.871 67.8498 147.031V147.025Z" fill="#FAFAFA"/>
</g>
<path d="M81.8955 138.915C81.8955 141.156 80.2215 143.937 78.1533 145.13L71.5923 148.91C69.5295 150.104 67.8501 149.256 67.8501 147.02C67.8501 144.785 69.5295 141.998 71.5923 140.805L78.1533 137.025C80.2215 135.826 81.8955 136.674 81.8955 138.915Z" fill="#E0E0E0"/>
<path d="M80.9232 136.269C82.1295 136.318 83.2702 136.831 84.1066 137.702C84.943 138.572 85.4102 139.733 85.4106 140.94C85.4092 141.193 85.3857 141.446 85.3404 141.696C85.3404 141.755 85.3026 141.901 85.2864 141.982C84.8703 143.813 83.8556 145.453 82.4028 146.642C84.2064 144.137 85.2325 142.544 84.7951 140.06C84.6143 139.108 84.1463 138.234 83.4541 137.557C82.7618 136.879 81.8786 136.429 80.9232 136.269Z" fill="white"/>
<path d="M77.8188 147.949C78.0969 147.75 78.3174 147.48 78.4578 147.168C78.5981 146.856 78.6534 146.513 78.618 146.172C78.5662 145.222 78.2914 144.297 77.8158 143.472C77.3401 142.648 76.6771 141.947 75.8802 141.426C75.6032 141.225 75.2774 141.101 74.9366 141.068C74.5958 141.034 74.2523 141.093 73.9416 141.237L70.4208 143.273C69.9683 143.522 69.5701 143.859 69.2495 144.264C68.9289 144.669 68.6923 145.134 68.5536 145.631C68.4149 146.129 68.3769 146.649 68.4417 147.161C68.5066 147.674 68.6731 148.168 68.9314 148.615C69.1897 149.063 69.5347 149.454 69.9461 149.766C70.3575 150.079 70.8271 150.306 71.3274 150.434C71.8277 150.563 72.3486 150.59 72.8596 150.515C73.3706 150.44 73.8614 150.263 74.3034 149.996L77.8188 147.949Z" fill="#F5F5F5"/>
<path d="M82.678 145.136C83.5689 144.621 84.2186 143.773 84.4845 142.779C84.7503 141.785 84.6104 140.726 84.0955 139.835C83.5807 138.945 82.733 138.295 81.7391 138.029C80.7451 137.763 79.6862 137.903 78.7954 138.418L73.9354 141.237C74.2461 141.093 74.5896 141.034 74.9304 141.067C75.2713 141.101 75.597 141.224 75.874 141.426C76.6709 141.946 77.334 142.648 77.8096 143.472C78.2853 144.297 78.5601 145.222 78.6118 146.172C78.6473 146.513 78.592 146.856 78.4516 147.168C78.3112 147.48 78.0908 147.75 77.8126 147.949L82.678 145.136Z" fill="#455A64"/>
<path opacity="0.4" d="M81.7872 139.444C81.9835 139.785 82.0369 140.19 81.9358 140.571C81.8346 140.951 81.5871 141.276 81.2472 141.474L75.3828 144.876C74.8891 144.06 74.6121 143.13 74.5782 142.176C74.5782 142.085 74.5782 141.998 74.5782 141.912L79.7514 138.909C79.92 138.81 80.1066 138.746 80.3003 138.719C80.4941 138.692 80.6912 138.704 80.8803 138.754C81.0695 138.803 81.247 138.89 81.4026 139.008C81.5582 139.127 81.6889 139.275 81.7872 139.444Z" fill="white"/>
<path d="M77.8188 147.949C78.0969 147.75 78.3174 147.48 78.4578 147.168C78.5981 146.856 78.6534 146.513 78.618 146.172C78.5662 145.222 78.2914 144.297 77.8158 143.472C77.3401 142.648 76.6771 141.947 75.8802 141.426C75.6032 141.225 75.2774 141.101 74.9366 141.068C74.5958 141.034 74.2523 141.093 73.9416 141.237L70.4208 143.273C69.9683 143.522 69.5701 143.859 69.2495 144.264C68.9289 144.669 68.6923 145.134 68.5536 145.631C68.4149 146.129 68.3769 146.649 68.4417 147.161C68.5066 147.674 68.6731 148.168 68.9314 148.615C69.1897 149.063 69.5347 149.454 69.9461 149.766C70.3575 150.079 70.8271 150.306 71.3274 150.434C71.8277 150.563 72.3486 150.59 72.8596 150.515C73.3706 150.44 73.8614 150.263 74.3034 149.996L77.8188 147.949Z" fill="#F5F5F5"/>
<path opacity="0.1" d="M75.8698 141.426C76.6667 141.947 77.3297 142.648 77.8054 143.472C78.281 144.297 78.5558 145.222 78.6076 146.172C78.643 146.513 78.5877 146.856 78.4473 147.168C78.307 147.48 78.0865 147.75 77.8084 147.949L78.0838 147.787L78.2944 147.663C78.5738 147.466 78.7953 147.198 78.9358 146.886C79.0764 146.575 79.1309 146.231 79.0936 145.892C79.0418 144.941 78.767 144.016 78.2914 143.192C77.8157 142.367 77.1527 141.666 76.3558 141.145C76.0788 140.944 75.753 140.82 75.4122 140.787C75.0714 140.754 74.7279 140.812 74.4172 140.956L73.9312 141.237C74.2418 141.093 74.5854 141.034 74.9262 141.068C75.267 141.101 75.5928 141.225 75.8698 141.426Z" fill="#333333"/>
<path d="M68.4984 146.226C68.4074 147.042 68.5796 147.865 68.9898 148.575C69.5048 149.467 70.3528 150.117 71.3472 150.383C72.3416 150.65 73.401 150.51 74.2926 149.996L77.8188 147.949C78.0969 147.75 78.3174 147.48 78.4578 147.168C78.5981 146.856 78.6534 146.513 78.618 146.172C78.6139 145.771 78.5577 145.371 78.4506 144.984L72.57 148.386C70.626 149.504 68.52 147.495 68.4984 146.226Z" fill="#E0E0E0"/>
<path d="M69.8372 146.372C69.9345 146.541 70.0641 146.689 70.2186 146.807C70.3732 146.925 70.5495 147.012 70.7377 147.062C70.9258 147.113 71.122 147.125 71.3149 147.099C71.5079 147.074 71.6939 147.01 71.8622 146.912L77.8022 143.472C77.3403 142.635 76.6733 141.929 75.8636 141.42L75.626 141.302L70.3718 144.342C70.2029 144.439 70.055 144.57 69.9366 144.725C69.8182 144.88 69.7317 145.057 69.682 145.246C69.6323 145.434 69.6204 145.631 69.6471 145.824C69.6737 146.018 69.7384 146.204 69.8372 146.372Z" fill="white"/>
<path opacity="0.1" d="M83.8065 139.433C83.7627 139.373 83.7158 139.315 83.6661 139.26C83.6337 139.223 83.6013 139.179 83.5635 139.142L83.4393 139.017L83.3043 138.888L83.2341 138.828C83.0298 138.653 82.8071 138.501 82.5699 138.375C82.4868 138.325 82.4002 138.282 82.3107 138.245C83.3907 138.899 84.0873 141.728 82.1541 142.846C81.4953 143.229 80.5017 143.818 78.4605 145.006C78.5675 145.393 78.6238 145.792 78.6279 146.194C78.6633 146.534 78.608 146.878 78.4677 147.19C78.3273 147.502 78.1068 147.771 77.8287 147.971L82.6887 145.157C83.1299 144.903 83.5167 144.564 83.8267 144.16C84.1367 143.755 84.3639 143.294 84.4953 142.802C84.6268 142.31 84.6598 141.797 84.5926 141.292C84.5253 140.787 84.3591 140.3 84.1035 139.86C84.0438 139.756 83.9789 139.655 83.9091 139.557L83.8065 139.433Z" fill="#333333"/>
<g style="mix-blend-mode:hard-light" opacity="0.7">
<path d="M92.3997 112.687C92.3993 112.432 92.421 112.177 92.4645 111.925C92.4645 111.866 92.5023 111.677 92.5131 111.639C92.992 109.503 94.2991 107.645 96.1473 106.471L102.703 102.691L102.762 102.664C103.469 102.212 104.285 101.958 105.124 101.929C105.963 101.9 106.794 102.098 107.53 102.501C108.267 102.904 108.881 103.498 109.308 104.221C109.736 104.943 109.961 105.767 109.96 106.606C109.959 106.862 109.936 107.117 109.89 107.368C109.877 107.464 109.859 107.56 109.836 107.654C109.362 109.788 108.061 111.646 106.218 112.822L99.6573 116.602H99.6033C98.8963 117.056 98.08 117.311 97.2402 117.341C96.4005 117.37 95.5683 117.173 94.8312 116.77C94.0941 116.366 93.4792 115.772 93.0514 115.048C92.6235 114.325 92.3984 113.5 92.3997 112.66V112.687Z" fill="#FAFAFA"/>
</g>
<path d="M106.477 104.56C106.477 106.801 104.797 109.582 102.729 110.775L96.1734 114.555C94.1052 115.749 92.4258 114.901 92.4258 112.66C92.4258 110.419 94.1052 107.638 96.1734 106.444L102.729 102.664C104.819 101.493 106.477 102.34 106.477 104.56Z" fill="#E0E0E0"/>
<path d="M105.499 101.93C106.706 101.979 107.846 102.492 108.683 103.363C109.519 104.234 109.986 105.394 109.987 106.601C109.985 106.857 109.962 107.111 109.917 107.363C109.904 107.459 109.886 107.554 109.863 107.649C109.445 109.479 108.431 111.118 106.979 112.309C108.788 109.803 109.809 108.205 109.371 105.721C109.19 104.769 108.722 103.896 108.03 103.218C107.338 102.54 106.455 102.091 105.499 101.93Z" fill="white"/>
<path d="M102.383 113.61C102.661 113.411 102.881 113.142 103.022 112.83C103.162 112.518 103.217 112.174 103.182 111.834C103.131 110.884 102.856 109.96 102.38 109.136C101.905 108.312 101.241 107.612 100.444 107.093C100.167 106.891 99.8419 106.767 99.5012 106.733C99.1605 106.698 98.8168 106.756 98.5056 106.898L94.9847 108.939C94.5437 109.195 94.1572 109.535 93.8476 109.94C93.5379 110.345 93.311 110.807 93.1799 111.3C93.0487 111.792 93.0159 112.306 93.0833 112.811C93.1507 113.317 93.317 113.804 93.5726 114.245C93.8283 114.686 94.1683 115.072 94.5733 115.382C94.9783 115.692 95.4403 115.919 95.9329 116.05C96.4256 116.181 96.9393 116.214 97.4446 116.146C97.95 116.079 98.4371 115.913 98.8782 115.657L102.383 113.61Z" fill="#F5F5F5"/>
<path d="M107.237 110.802C108.106 110.276 108.735 109.431 108.988 108.446C109.241 107.462 109.098 106.418 108.589 105.539C108.081 104.659 107.249 104.013 106.27 103.74C105.291 103.467 104.244 103.589 103.354 104.079L98.4944 106.898C98.8057 106.755 99.1494 106.698 99.4901 106.732C99.8308 106.766 100.156 106.891 100.433 107.092C101.23 107.612 101.893 108.312 102.369 109.135C102.845 109.959 103.12 110.884 103.171 111.834C103.206 112.174 103.151 112.518 103.011 112.83C102.87 113.142 102.65 113.411 102.372 113.61L107.237 110.802Z" fill="#455A64"/>
<path opacity="0.4" d="M106.364 105.1C106.56 105.44 106.614 105.844 106.512 106.224C106.411 106.603 106.164 106.927 105.824 107.125L99.9598 110.527C99.4655 109.71 99.1885 108.781 99.1552 107.827C99.1552 107.73 99.1552 107.643 99.1552 107.557L104.339 104.56C104.508 104.462 104.694 104.398 104.887 104.373C105.079 104.347 105.276 104.359 105.464 104.41C105.652 104.46 105.828 104.547 105.983 104.665C106.137 104.783 106.267 104.931 106.364 105.1Z" fill="white"/>
<path d="M102.383 113.61C102.661 113.411 102.881 113.142 103.022 112.83C103.162 112.518 103.217 112.174 103.182 111.834C103.131 110.884 102.856 109.96 102.38 109.136C101.905 108.312 101.241 107.612 100.444 107.093C100.167 106.891 99.8419 106.767 99.5012 106.733C99.1605 106.698 98.8168 106.756 98.5056 106.898L94.9847 108.939C94.5437 109.195 94.1572 109.535 93.8476 109.94C93.5379 110.345 93.311 110.807 93.1799 111.3C93.0487 111.792 93.0159 112.306 93.0833 112.811C93.1507 113.317 93.317 113.804 93.5726 114.245C93.8283 114.686 94.1683 115.072 94.5733 115.382C94.9783 115.692 95.4403 115.919 95.9329 116.05C96.4256 116.181 96.9393 116.214 97.4446 116.146C97.95 116.079 98.4371 115.913 98.8782 115.657L102.383 113.61Z" fill="#F5F5F5"/>
<path opacity="0.1" d="M100.445 107.092C101.242 107.612 101.905 108.312 102.381 109.136C102.857 109.959 103.131 110.884 103.183 111.834C103.218 112.174 103.163 112.518 103.022 112.83C102.882 113.142 102.662 113.411 102.383 113.61L102.659 113.448L102.869 113.329C103.148 113.131 103.37 112.862 103.51 112.55C103.65 112.237 103.705 111.893 103.669 111.553C103.617 110.603 103.343 109.679 102.867 108.855C102.391 108.031 101.728 107.331 100.931 106.812C100.654 106.61 100.329 106.486 99.9879 106.452C99.6472 106.417 99.3035 106.475 98.9923 106.617L98.5063 106.898C98.8176 106.755 99.1612 106.698 99.5019 106.732C99.8427 106.766 100.168 106.891 100.445 107.092Z" fill="#333333"/>
<path d="M93.0732 111.888C92.9929 112.601 93.1123 113.322 93.4182 113.971C93.724 114.62 94.2042 115.172 94.8052 115.564C95.4061 115.956 96.1042 116.173 96.8215 116.191C97.5388 116.21 98.2471 116.028 98.8674 115.668L102.383 113.621C102.661 113.422 102.881 113.152 103.022 112.84C103.162 112.528 103.217 112.185 103.182 111.844C103.178 111.445 103.122 111.047 103.015 110.662L97.134 114.064C95.2008 115.165 93.0948 113.157 93.0732 111.888Z" fill="#E0E0E0"/>
<path d="M94.4129 112.033C94.5102 112.202 94.6398 112.35 94.7943 112.468C94.9489 112.587 95.1252 112.674 95.3133 112.724C95.5015 112.774 95.6976 112.787 95.8906 112.761C96.0836 112.735 96.2696 112.671 96.4379 112.573L102.378 109.134C101.916 108.298 101.249 107.594 100.439 107.087C100.362 107.041 100.283 107 100.202 106.963L94.9475 110.003C94.6075 110.202 94.3601 110.527 94.2599 110.908C94.1596 111.288 94.2147 111.693 94.4129 112.033Z" fill="white"/>
<path opacity="0.1" d="M108.383 105.1L108.243 104.927L108.14 104.808L108.016 104.684L107.886 104.554L107.811 104.495C107.605 104.322 107.383 104.17 107.147 104.041L106.882 103.912C107.962 104.571 108.659 107.395 106.725 108.513C106.067 108.896 105.078 109.485 103.032 110.673C103.139 111.058 103.195 111.455 103.199 111.855C103.235 112.196 103.179 112.539 103.039 112.851C102.899 113.163 102.678 113.433 102.4 113.632L107.26 110.824C108.15 110.308 108.8 109.46 109.066 108.466C109.332 107.472 109.193 106.413 108.68 105.521C108.615 105.418 108.551 105.316 108.48 105.219L108.383 105.1Z" fill="#333333"/>
<g style="mix-blend-mode:hard-light" opacity="0.7">
<path d="M67.8498 126.748C67.8504 126.494 67.8702 126.239 67.9092 125.987C67.9092 125.928 67.9524 125.739 67.9632 125.701C68.4397 123.565 69.745 121.706 71.592 120.533L78.153 116.753H78.2124C78.9194 116.3 79.7351 116.046 80.574 116.018C81.413 115.989 82.2442 116.186 82.9804 116.59C83.7167 116.993 84.3309 117.587 84.7584 118.309C85.186 119.032 85.4113 119.856 85.4106 120.695C85.4092 120.95 85.3857 121.205 85.3404 121.457C85.3404 121.511 85.3026 121.656 85.2864 121.743C84.8131 123.877 83.5118 125.736 81.6684 126.91L75.1074 130.691H75.0534C74.3464 131.145 73.5301 131.4 72.6904 131.429C71.8506 131.459 71.0184 131.261 70.2813 130.858C69.5442 130.455 68.9294 129.86 68.5015 129.137C68.0736 128.414 67.8485 127.589 67.8498 126.748Z" fill="#FAFAFA"/>
</g>
<path d="M81.8955 118.643C81.8955 120.879 80.2215 123.665 78.1533 124.859L71.5923 128.639C69.5295 129.832 67.8501 128.984 67.8501 126.743C67.8501 124.502 69.5295 121.721 71.5923 120.528L78.1533 116.748C80.2215 115.554 81.8955 116.402 81.8955 118.643Z" fill="#E0E0E0"/>
<path d="M80.9232 115.992C82.1291 116.042 83.269 116.556 84.1051 117.426C84.9412 118.296 85.4089 119.456 85.4106 120.663C85.4092 120.918 85.3857 121.173 85.3404 121.424C85.3404 121.478 85.3026 121.624 85.2864 121.71C84.8688 123.541 83.8544 125.18 82.4028 126.371C84.2064 123.865 85.2325 122.267 84.7951 119.788C84.6138 118.836 84.1458 117.962 83.4538 117.283C82.7617 116.605 81.8787 116.154 80.9232 115.992Z" fill="white"/>
<path d="M77.8195 127.672C78.0972 127.474 78.3175 127.205 78.4578 126.894C78.5982 126.583 78.6537 126.24 78.6187 125.901C78.5674 124.95 78.2927 124.025 77.8171 123.2C77.3414 122.376 76.6781 121.675 75.8809 121.154C75.6042 120.953 75.2787 120.828 74.938 120.794C74.5973 120.76 74.2536 120.817 73.9423 120.96L70.4215 123.001C69.5307 123.516 68.8809 124.363 68.6151 125.357C68.3493 126.351 68.4892 127.41 69.004 128.301C69.5189 129.192 70.3665 129.842 71.3605 130.108C72.3545 130.373 73.4133 130.233 74.3041 129.719L77.8195 127.672Z" fill="#F5F5F5"/>
<path d="M82.678 124.864C83.5689 124.349 84.2186 123.501 84.4845 122.508C84.7503 121.514 84.6104 120.455 84.0955 119.564C83.5807 118.673 82.733 118.023 81.7391 117.757C80.7451 117.492 79.6862 117.632 78.7954 118.146L73.9354 120.96C74.2467 120.817 74.5904 120.76 74.9311 120.794C75.2718 120.828 75.5973 120.953 75.874 121.154C76.6712 121.675 77.3345 122.376 77.8102 123.2C78.2859 124.025 78.5605 124.95 78.6118 125.901C78.6474 126.24 78.5927 126.582 78.4533 126.893C78.3139 127.204 78.0948 127.473 77.818 127.672L82.678 124.864Z" fill="#455A64"/>
<path opacity="0.4" d="M81.7872 119.172C81.9835 119.513 82.0369 119.918 81.9358 120.299C81.8346 120.679 81.5871 121.004 81.2472 121.203L75.3828 124.605C74.8899 123.787 74.6131 122.858 74.5782 121.905C74.5782 121.813 74.5782 121.721 74.5782 121.635L79.7514 118.632C79.9201 118.533 80.107 118.468 80.3011 118.441C80.4953 118.414 80.6928 118.426 80.8821 118.477C81.0715 118.527 81.2491 118.614 81.4044 118.734C81.5598 118.853 81.6899 119.002 81.7872 119.172Z" fill="white"/>
<path d="M77.8195 127.672C78.0972 127.474 78.3175 127.205 78.4578 126.894C78.5982 126.583 78.6537 126.24 78.6187 125.901C78.5674 124.95 78.2927 124.025 77.8171 123.2C77.3414 122.376 76.6781 121.675 75.8809 121.154C75.6042 120.953 75.2787 120.828 74.938 120.794C74.5973 120.76 74.2536 120.817 73.9423 120.96L70.4215 123.001C69.5307 123.516 68.8809 124.363 68.6151 125.357C68.3493 126.351 68.4892 127.41 69.004 128.301C69.5189 129.192 70.3665 129.842 71.3605 130.108C72.3545 130.373 73.4133 130.233 74.3041 129.719L77.8195 127.672Z" fill="#F5F5F5"/>
<path opacity="0.1" d="M75.8693 121.154C76.6665 121.675 77.3298 122.376 77.8055 123.2C78.2812 124.025 78.5558 124.95 78.6071 125.901C78.6433 126.239 78.5895 126.581 78.451 126.892C78.3126 127.203 78.0945 127.472 77.8187 127.672L78.0942 127.515L78.3047 127.391C78.5833 127.194 78.8042 126.925 78.9446 126.614C79.0851 126.303 79.1401 125.96 79.104 125.62C79.0526 124.669 78.778 123.744 78.3023 122.92C77.8266 122.095 77.1633 121.394 76.3661 120.873C76.0894 120.672 75.7639 120.547 75.4232 120.513C75.0825 120.479 74.7388 120.536 74.4275 120.679L73.9415 120.96C74.2514 120.819 74.593 120.763 74.9316 120.797C75.2702 120.831 75.5938 120.955 75.8693 121.154Z" fill="#333333"/>
<path d="M68.4991 125.949C68.4189 126.662 68.5383 127.384 68.8441 128.033C69.15 128.682 69.6302 129.233 70.2311 129.625C70.8321 130.017 71.5302 130.235 72.2475 130.253C72.9648 130.271 73.6731 130.09 74.2933 129.729L77.8195 127.672C78.0972 127.473 78.3175 127.205 78.4578 126.894C78.5982 126.583 78.6537 126.24 78.6187 125.901C78.615 125.499 78.5587 125.1 78.4513 124.713C76.3939 125.895 73.8829 127.359 72.5707 128.115C70.6267 129.232 68.5207 127.24 68.4991 125.949Z" fill="#E0E0E0"/>
<path d="M69.8373 126.101C69.9345 126.269 70.0641 126.417 70.2187 126.536C70.3732 126.654 70.5495 126.741 70.7377 126.791C70.9258 126.841 71.122 126.854 71.3149 126.828C71.5079 126.802 71.6939 126.738 71.8622 126.641L77.8022 123.201C77.3402 122.365 76.673 121.661 75.8636 121.154C75.7826 121.106 75.7016 121.068 75.626 121.03L70.3718 124.07C70.0329 124.27 69.7865 124.595 69.6863 124.975C69.5862 125.356 69.6404 125.76 69.8373 126.101Z" fill="white"/>
<path opacity="0.1" d="M83.8085 119.14C83.7647 119.08 83.7179 119.022 83.6681 118.967C83.6368 118.925 83.6026 118.885 83.5655 118.848L83.4413 118.719C83.3989 118.675 83.3539 118.633 83.3063 118.595C83.2855 118.572 83.2619 118.552 83.2361 118.535C83.032 118.359 82.8093 118.205 82.5719 118.076C82.4909 118.033 82.4045 117.99 82.3127 117.952C83.3927 118.605 84.0893 121.435 82.1561 122.547C81.4973 122.931 80.5037 123.519 78.4625 124.707C78.5699 125.094 78.6262 125.494 78.6299 125.895C78.6647 126.237 78.608 126.581 78.4657 126.893C78.3233 127.206 78.1004 127.474 77.8199 127.672L82.6799 124.864C83.57 124.349 84.2191 123.502 84.4844 122.508C84.7497 121.515 84.6096 120.457 84.0947 119.567C84.0363 119.46 83.9714 119.357 83.9003 119.259L83.8085 119.14Z" fill="#333333"/>
<g style="mix-blend-mode:hard-light" opacity="0.7">
<path d="M92.399 92.4152C92.3987 92.1582 92.4203 91.9017 92.4638 91.6484C92.4638 91.5944 92.5016 91.4 92.5124 91.3676C92.7532 90.3072 93.201 89.3048 93.8302 88.418C94.4595 87.5311 95.2577 86.7773 96.179 86.1998L102.735 82.4198H102.794C103.501 81.969 104.317 81.7165 105.155 81.6886C105.993 81.6608 106.824 81.8586 107.559 82.2615C108.295 82.6643 108.909 83.2574 109.337 83.9787C109.765 84.7 109.991 85.5231 109.992 86.3618C109.991 86.6172 109.967 86.8719 109.922 87.1232C109.91 87.2196 109.892 87.3152 109.868 87.4094C109.394 89.5445 108.093 91.4047 106.25 92.5826L99.689 96.3626L99.635 96.3896C98.928 96.8437 98.1117 97.0989 97.272 97.1284C96.4322 97.1579 95.6 96.9606 94.8629 96.5572C94.1258 96.1539 93.511 95.5593 93.0831 94.8361C92.6552 94.113 92.4301 93.2879 92.4314 92.4476L92.399 92.4152Z" fill="#FAFAFA"/>
</g>
<path d="M106.477 84.3047C106.477 86.5457 104.797 89.3267 102.729 90.5201L96.1788 94.3001C94.1106 95.4935 92.4312 94.6457 92.4312 92.4101C92.4312 90.1745 94.1106 87.3881 96.1788 86.1947L102.734 82.4147C104.819 81.2159 106.477 82.0637 106.477 84.3047Z" fill="#E0E0E0"/>
<path d="M105.499 81.6531C106.705 81.7032 107.845 82.217 108.681 83.0873C109.517 83.9576 109.985 85.1172 109.987 86.3241C109.985 86.5794 109.962 86.8342 109.917 87.0855C109.905 87.1819 109.886 87.2775 109.863 87.3717C109.447 89.2026 108.432 90.8425 106.979 92.0319C108.788 89.5263 109.809 87.9279 109.371 85.4493C109.19 84.4972 108.722 83.6233 108.03 82.9447C107.338 82.2662 106.455 81.8155 105.499 81.6531Z" fill="white"/>
<path d="M102.383 93.3333C102.661 93.1353 102.882 92.867 103.022 92.5558C103.163 92.2446 103.218 91.9016 103.182 91.5621C103.131 90.6115 102.856 89.6863 102.381 88.8616C101.905 88.0369 101.242 87.336 100.445 86.8155C100.168 86.6142 99.8418 86.4905 99.501 86.4573C99.1602 86.4241 98.8167 86.4825 98.506 86.6265L94.9852 88.6623C94.536 88.9137 94.1413 89.252 93.824 89.6573C93.5067 90.0627 93.2732 90.5271 93.137 91.0236C93.0009 91.52 92.9648 92.0386 93.031 92.5491C93.0971 93.0596 93.2641 93.5519 93.5222 93.9973C93.7804 94.4427 94.1245 94.8323 94.5346 95.1434C94.9447 95.4546 95.4126 95.6811 95.911 95.8097C96.4095 95.9384 96.9285 95.9666 97.438 95.8928C97.9474 95.8191 98.4371 95.6447 98.8786 95.3799L102.383 93.3333Z" fill="#F5F5F5"/>
<path d="M107.239 90.52C107.68 90.2651 108.067 89.9258 108.377 89.5214C108.687 89.1171 108.914 88.6557 109.046 88.1635C109.177 87.6714 109.211 87.1581 109.144 86.653C109.077 86.148 108.912 85.661 108.657 85.2199C108.402 84.7788 108.062 84.3923 107.658 84.0823C107.254 83.7724 106.792 83.5451 106.3 83.4135C105.808 83.2818 105.295 83.2484 104.79 83.3152C104.285 83.3819 103.798 83.5475 103.356 83.8024L98.4965 86.6212C98.8072 86.4772 99.1507 86.4188 99.4915 86.452C99.8323 86.4852 100.158 86.6089 100.435 86.8102C101.232 87.3307 101.896 88.0316 102.371 88.8563C102.847 89.681 103.122 90.6062 103.173 91.5568C103.208 91.8964 103.153 92.2393 103.013 92.5505C102.872 92.8617 102.652 93.13 102.374 93.328L107.239 90.52Z" fill="#455A64"/>
<path opacity="0.4" d="M106.363 84.8338C106.559 85.1749 106.613 85.5799 106.511 85.9603C106.41 86.3407 106.163 86.6656 105.823 86.8642L99.9585 90.2662C99.4648 89.4493 99.1878 88.52 99.1539 87.5662C99.1539 87.4744 99.1539 87.388 99.1539 87.3016L104.327 84.2992C104.496 84.1994 104.682 84.1341 104.876 84.107C105.07 84.0799 105.267 84.0916 105.457 84.1413C105.646 84.191 105.824 84.2778 105.979 84.3967C106.135 84.5156 106.265 84.6641 106.363 84.8338Z" fill="white"/>
<path d="M102.383 93.3333C102.661 93.1353 102.882 92.867 103.022 92.5558C103.163 92.2446 103.218 91.9016 103.182 91.5621C103.131 90.6115 102.856 89.6863 102.381 88.8616C101.905 88.0369 101.242 87.336 100.445 86.8155C100.168 86.6142 99.8418 86.4905 99.501 86.4573C99.1602 86.4241 98.8167 86.4825 98.506 86.6265L94.9852 88.6623C94.536 88.9137 94.1413 89.252 93.824 89.6573C93.5067 90.0627 93.2732 90.5271 93.137 91.0236C93.0009 91.52 92.9648 92.0386 93.031 92.5491C93.0971 93.0596 93.2641 93.5519 93.5222 93.9973C93.7804 94.4427 94.1245 94.8323 94.5346 95.1434C94.9447 95.4546 95.4126 95.6811 95.911 95.8097C96.4095 95.9384 96.9285 95.9666 97.438 95.8928C97.9474 95.8191 98.4371 95.6447 98.8786 95.3799L102.383 93.3333Z" fill="#F5F5F5"/>
<path opacity="0.1" d="M100.445 86.8153C101.242 87.3358 101.905 88.0367 102.381 88.8614C102.857 89.6861 103.131 90.6113 103.183 91.5619C103.218 91.9015 103.163 92.2444 103.022 92.5556C102.882 92.8668 102.662 93.1351 102.383 93.3331L102.659 93.1765L102.869 93.0523C103.148 92.8551 103.37 92.5869 103.51 92.2755C103.651 91.9641 103.705 91.6208 103.669 91.2811C103.617 90.3305 103.343 89.4053 102.867 88.5806C102.391 87.7559 101.728 87.055 100.931 86.5345C100.654 86.3332 100.328 86.2095 99.9872 86.1763C99.6464 86.1431 99.3029 86.2015 98.9922 86.3455L98.5062 86.6263C98.8169 86.4823 99.1604 86.4239 99.5012 86.4571C99.842 86.4903 100.168 86.614 100.445 86.8153Z" fill="#333333"/>
<path d="M93.0736 91.5998C92.9826 92.4152 93.1547 93.2383 93.565 93.9488C93.8196 94.392 94.1591 94.7806 94.5641 95.0924C94.9691 95.4043 95.4315 95.6332 95.9251 95.7661C96.4186 95.899 96.9335 95.9333 97.4403 95.867C97.9471 95.8007 98.4358 95.6352 98.8786 95.3798L102.394 93.3278C102.672 93.1298 102.893 92.8615 103.033 92.5503C103.173 92.2391 103.229 91.8962 103.193 91.5566C103.189 91.1551 103.133 90.7557 103.026 90.3687L97.1452 93.7706C95.2012 94.8938 93.0952 92.885 93.0736 91.5998Z" fill="#E0E0E0"/>
<path d="M94.4129 91.762C94.6104 92.1016 94.9344 92.349 95.3139 92.4502C95.6934 92.5514 96.0976 92.4981 96.4379 92.302L102.378 88.8622C101.918 88.0239 101.25 87.3175 100.439 86.8102L100.202 86.686L94.9475 89.7262C94.6071 89.9257 94.3596 90.252 94.2594 90.6336C94.1592 91.0153 94.2144 91.4211 94.4129 91.762Z" fill="white"/>
<path opacity="0.1" d="M108.383 84.823C108.339 84.7631 108.292 84.7054 108.242 84.6502C108.211 84.6082 108.177 84.5685 108.14 84.5314L108.015 84.4072L107.886 84.2776L107.81 84.2182C107.606 84.0417 107.383 83.8878 107.146 83.7592C107.061 83.7106 106.972 83.6674 106.881 83.6296C107.961 84.283 108.658 87.1126 106.725 88.2304C106.066 88.6084 105.078 89.2024 103.031 90.3904C103.138 90.7775 103.194 91.1769 103.199 91.5784C103.234 91.918 103.179 92.2609 103.038 92.5721C102.898 92.8833 102.677 93.1516 102.399 93.3496L107.259 90.5416C108.149 90.0266 108.799 89.1797 109.065 88.1866C109.331 87.1935 109.193 86.1353 108.68 85.2442C108.615 85.1362 108.55 85.039 108.48 84.9418C108.452 84.8989 108.419 84.859 108.383 84.823Z" fill="#333333"/>
<g style="mix-blend-mode:hard-light" opacity="0.7">
<path d="M67.8498 106.477C67.8504 106.22 67.8702 105.964 67.9092 105.71C67.9092 105.656 67.9524 105.467 67.9632 105.429C68.1986 104.372 68.6403 103.371 69.263 102.484C69.8856 101.597 70.6771 100.842 71.592 100.261L78.153 96.4815L78.2124 96.4545C78.9201 96.0034 79.736 95.7509 80.5747 95.7232C81.4134 95.6956 82.2442 95.8939 82.98 96.2974C83.7158 96.701 84.3296 97.2948 84.7572 98.0169C85.1849 98.7389 85.4105 99.5627 85.4106 100.402C85.4092 100.655 85.3857 100.908 85.3404 101.158C85.3404 101.217 85.3026 101.363 85.2864 101.444C84.8133 103.58 83.5121 105.44 81.6684 106.617L75.1074 110.397H75.0534C74.3464 110.851 73.5301 111.107 72.6904 111.136C71.8506 111.166 71.0184 110.968 70.2813 110.565C69.5442 110.161 68.9294 109.567 68.5015 108.844C68.0736 108.121 67.8485 107.296 67.8498 106.455V106.477Z" fill="#FAFAFA"/>
</g>
<path d="M81.8955 98.3661C81.8955 100.607 80.2215 103.388 78.1533 104.581L71.5923 108.361C69.5295 109.555 67.8501 108.707 67.8501 106.466C67.8501 104.225 69.5295 101.444 71.5923 100.251L78.1533 96.4707C80.2215 95.2773 81.8955 96.1251 81.8955 98.3661Z" fill="#E0E0E0"/>
<path d="M80.9232 95.7202C82.1295 95.769 83.2702 96.2824 84.1066 97.153C84.943 98.0236 85.4102 99.1839 85.4106 100.391C85.4092 100.645 85.3857 100.898 85.3404 101.147C85.3404 101.207 85.3026 101.352 85.2864 101.433C84.8703 103.264 83.8556 104.904 82.4028 106.094C84.2064 103.588 85.2325 101.995 84.7951 99.511C84.6143 98.5593 84.1463 97.6857 83.4541 97.008C82.7618 96.3303 81.8786 95.8808 80.9232 95.7202Z" fill="white"/>
<path d="M77.8188 107.4C78.0969 107.201 78.3174 106.932 78.4578 106.62C78.5981 106.308 78.6534 105.964 78.618 105.624C78.5662 104.673 78.2914 103.748 77.8158 102.923C77.3401 102.099 76.6771 101.398 75.8802 100.877C75.6025 100.677 75.2768 100.555 74.9363 100.521C74.5959 100.488 74.2527 100.546 73.9416 100.688L70.4208 102.729C69.9797 102.984 69.5931 103.323 69.2832 103.728C68.9732 104.132 68.746 104.594 68.6143 105.086C68.4827 105.578 68.4493 106.091 68.5161 106.596C68.5828 107.101 68.7483 107.588 69.0033 108.029C69.2582 108.47 69.5975 108.857 70.0019 109.167C70.4062 109.477 70.8676 109.704 71.3598 109.836C71.8519 109.967 72.3652 110.001 72.8703 109.934C73.3753 109.867 73.8623 109.702 74.3034 109.447L77.8188 107.4Z" fill="#F5F5F5"/>
<path d="M82.678 104.587C83.5689 104.072 84.2186 103.224 84.4845 102.23C84.7503 101.236 84.6104 100.178 84.0955 99.2868C83.5807 98.396 82.733 97.7462 81.7391 97.4804C80.7451 97.2145 79.6862 97.3544 78.7954 97.8693L73.9354 100.688C74.2465 100.546 74.5897 100.488 74.9302 100.521C75.2707 100.555 75.5963 100.677 75.874 100.877C76.6709 101.398 77.334 102.099 77.8096 102.924C78.2853 103.748 78.5601 104.673 78.6118 105.624C78.6473 105.964 78.592 106.308 78.4516 106.62C78.3112 106.932 78.0908 107.201 77.8126 107.4L82.678 104.587Z" fill="#455A64"/>
<path opacity="0.4" d="M81.7872 98.8952C81.9835 99.2364 82.0369 99.6414 81.9358 100.022C81.8346 100.402 81.5871 100.727 81.2472 100.926L75.3828 104.328C74.8891 103.511 74.6121 102.581 74.5782 101.628C74.5782 101.536 74.5782 101.449 74.5782 101.363L79.7514 98.3606C79.92 98.2616 80.1066 98.1969 80.3003 98.1702C80.4941 98.1435 80.6912 98.1553 80.8803 98.2049C81.0695 98.2546 81.247 98.3412 81.4026 98.4596C81.5582 98.5781 81.6889 98.7261 81.7872 98.8952Z" fill="white"/>
<path d="M77.8188 107.4C78.0969 107.201 78.3174 106.932 78.4578 106.62C78.5981 106.308 78.6534 105.964 78.618 105.624C78.5662 104.673 78.2914 103.748 77.8158 102.923C77.3401 102.099 76.6771 101.398 75.8802 100.877C75.6025 100.677 75.2768 100.555 74.9363 100.521C74.5959 100.488 74.2527 100.546 73.9416 100.688L70.4208 102.729C69.9797 102.984 69.5931 103.323 69.2832 103.728C68.9732 104.132 68.746 104.594 68.6143 105.086C68.4827 105.578 68.4493 106.091 68.5161 106.596C68.5828 107.101 68.7483 107.588 69.0033 108.029C69.2582 108.47 69.5975 108.857 70.0019 109.167C70.4062 109.477 70.8676 109.704 71.3598 109.836C71.8519 109.967 72.3652 110.001 72.8703 109.934C73.3753 109.867 73.8623 109.702 74.3034 109.447L77.8188 107.4Z" fill="#F5F5F5"/>
<path opacity="0.1" d="M75.8692 100.877C76.6661 101.398 77.3292 102.099 77.8048 102.924C78.2804 103.748 78.5552 104.673 78.607 105.624C78.6424 105.964 78.5871 106.308 78.4468 106.62C78.3064 106.932 78.086 107.201 77.8078 107.4L78.0832 107.239L78.2938 107.12C78.5728 106.921 78.7938 106.652 78.9343 106.34C79.0748 106.028 79.1295 105.684 79.093 105.343C79.0412 104.393 78.7664 103.468 78.2908 102.643C77.8152 101.818 77.1521 101.117 76.3552 100.597C76.0782 100.395 75.7524 100.272 75.4116 100.238C75.0708 100.205 74.7273 100.264 74.4166 100.408L73.9306 100.688C74.2417 100.546 74.5849 100.488 74.9254 100.522C75.2659 100.555 75.5915 100.678 75.8692 100.877Z" fill="#333333"/>
<path d="M68.4984 105.678C68.4074 106.493 68.5796 107.316 68.9898 108.027C69.5048 108.918 70.3528 109.568 71.3472 109.835C72.3416 110.101 73.401 109.962 74.2926 109.447L77.8188 107.4C78.0969 107.201 78.3174 106.932 78.4578 106.62C78.5981 106.308 78.6534 105.964 78.618 105.624C78.6139 105.222 78.5577 104.823 78.4506 104.436L72.57 107.838C70.626 108.956 68.52 106.947 68.4984 105.678Z" fill="#E0E0E0"/>
<path d="M69.8381 105.823C69.9354 105.992 70.065 106.14 70.2195 106.258C70.374 106.377 70.5504 106.464 70.7385 106.514C70.9266 106.564 71.1228 106.576 71.3158 106.551C71.5088 106.525 71.6948 106.461 71.8631 106.363L77.8193 102.94C77.3574 102.103 76.6903 101.397 75.8807 100.888L75.6431 100.769L70.3889 103.809C70.0505 104.005 69.8028 104.326 69.6997 104.703C69.5966 105.08 69.6463 105.483 69.8381 105.823Z" fill="white"/>
<path opacity="0.1" d="M83.8065 98.8845C83.7627 98.8246 83.7158 98.7669 83.6661 98.7117C83.6337 98.6739 83.6013 98.6307 83.5635 98.5929L83.4393 98.4687L83.3043 98.3391L83.2341 98.2797C83.0298 98.1049 82.8071 97.9528 82.5699 97.8261C82.4868 97.7765 82.4002 97.7332 82.3107 97.6965C83.3907 98.3553 84.0873 101.18 82.1541 102.297C81.4953 102.681 80.5017 103.269 78.4605 104.457C78.5675 104.844 78.6238 105.244 78.6279 105.645C78.6633 105.986 78.608 106.329 78.4677 106.641C78.3273 106.953 78.1068 107.223 77.8287 107.422L82.6887 104.609C83.1299 104.354 83.5167 104.015 83.8267 103.611C84.1367 103.207 84.3639 102.746 84.4953 102.253C84.6268 101.761 84.6598 101.248 84.5926 100.743C84.5253 100.238 84.3591 99.7517 84.1035 99.3111C84.0438 99.2072 83.9789 99.1062 83.9091 99.0087L83.8065 98.8845Z" fill="#333333"/>
<path d="M125.854 76.1019C127.416 75.2065 129.04 74.4251 130.714 73.7637C132.261 73.1666 133.594 72.1184 134.538 70.755C135.483 69.3916 135.996 67.7759 136.011 66.1173V56.7861H166.478V66.1173C166.489 67.7796 167.001 69.4 167.947 70.7669C168.893 72.1339 170.229 73.1839 171.781 73.7799C173.455 74.4413 175.079 75.2227 176.641 76.1181C183.661 80.1681 187.155 85.4763 187.155 90.7791V161.141C187.155 166.444 183.65 171.752 176.641 175.802C162.601 183.902 139.883 183.902 125.881 175.802C118.861 171.752 115.362 166.449 115.362 161.141V90.7629C115.335 85.4547 118.861 80.1519 125.854 76.1019Z" fill="#3FA654"/>
<path opacity="0.7" d="M125.854 76.1019C127.416 75.2065 129.04 74.4251 130.714 73.7637C132.261 73.1666 133.594 72.1184 134.538 70.755C135.483 69.3916 135.996 67.7759 136.011 66.1173V56.7861H166.478V66.1173C166.489 67.7796 167.001 69.4 167.947 70.7669C168.893 72.1339 170.229 73.1839 171.781 73.7799C173.455 74.4413 175.079 75.2227 176.641 76.1181C183.661 80.1681 187.155 85.4763 187.155 90.7791V161.141C187.155 166.444 183.65 171.752 176.641 175.802C162.601 183.902 139.883 183.902 125.881 175.802C118.861 171.752 115.362 166.449 115.362 161.141V90.7629C115.335 85.4547 118.861 80.1519 125.854 76.1019Z" fill="white"/>
<path d="M151.223 181.861C131.405 181.861 115.34 172.676 115.34 161.346C115.34 150.016 131.405 140.832 151.223 140.832C171.041 140.832 187.106 150.016 187.106 161.346C187.106 172.676 171.041 181.861 151.223 181.861Z" fill="#3FA654"/>
<path opacity="0.5" d="M151.223 181.861C131.405 181.861 115.34 172.676 115.34 161.346C115.34 150.016 131.405 140.832 151.223 140.832C171.041 140.832 187.106 150.016 187.106 161.346C187.106 172.676 171.041 181.861 151.223 181.861Z" fill="white"/>
<path opacity="0.4" d="M133.101 66.5979C139.705 62.7855 149.036 61.4895 157.503 62.7261V56.7861H166.478V66.1119C166.487 67.7753 166.999 69.3972 167.945 70.7653C168.891 72.1335 170.228 73.1842 171.781 73.7799C173.453 74.4466 175.077 75.2278 176.641 76.1181C176.7 76.1181 176.749 76.1883 176.814 76.2153C183.715 80.2545 187.155 85.5141 187.155 90.7953V161.12C187.155 166.433 183.65 171.731 176.641 175.781C166.554 181.607 151.963 183.216 139.349 180.668C168.541 182.671 175.561 170.294 175.561 161.341V92.9283C175.561 89.7693 175.086 87.1611 172.861 84.9633C171.78 85.9524 170.59 86.8148 169.313 87.5337C159.296 93.3117 143.069 93.3117 133.063 87.5337C123.057 81.7557 123.084 72.3867 133.101 66.5979Z" fill="white"/>
<path opacity="0.4" d="M125.853 76.1019C127.415 75.2065 129.039 74.4251 130.713 73.7637C132.261 73.1666 133.593 72.1184 134.537 70.755C135.482 69.3916 135.995 67.7759 136.011 66.1173V56.7861H139.337V69.2763C139.337 72.1545 136.858 74.8923 133.991 76.4583C131.124 78.0243 122.008 81.9825 119.8 86.3133C117.694 90.4335 118.38 98.6253 118.38 108.345V158.025C118.38 164.333 121.009 173.458 132.722 178.945C130.341 178.132 128.04 177.102 125.848 175.867C118.828 171.817 115.334 166.725 115.334 161.141V90.7629C115.334 85.4547 118.86 80.1519 125.853 76.1019Z" fill="white"/>
<path d="M125.584 69.8811V72.5379C125.584 76.3179 128.073 80.1303 133.101 83.0409C143.107 88.8135 159.328 88.8135 169.362 83.0409C171.57 81.8353 173.488 80.1619 174.983 78.1377C176.171 76.5283 176.824 74.5868 176.851 72.5865V69.8271C176.86 69.2485 176.792 68.6712 176.652 68.1099C176.031 64.9023 173.59 61.7919 169.362 59.3511C169.241 59.2751 169.114 59.2083 168.984 59.1513C158.934 53.5785 142.983 53.6541 133.101 59.3511C128.872 61.7919 126.405 64.9023 125.784 68.0883C125.642 68.6752 125.575 69.2775 125.584 69.8811Z" fill="#F0F0F0"/>
<path d="M149.101 84.6124V75.1786C149.101 71.4472 148.156 76.4962 154.701 76.4962C160.377 76.4962 165.426 63.4066 168.957 59.1514C169.088 59.2083 169.214 59.2751 169.335 59.3512C173.563 61.792 176.004 64.9024 176.625 68.11C176.766 68.6713 176.833 69.2485 176.825 69.8272V72.5866C176.798 74.5868 176.145 76.5283 174.957 78.1378C173.462 80.162 171.544 81.8353 169.335 83.041C159.302 88.8136 143.08 88.8136 133.074 83.041C140.17 85.8274 149.101 88.171 149.101 84.6124Z" fill="#E0E0E0"/>
<path d="M151.222 84.6231C137.065 84.6231 125.588 77.9963 125.588 69.8217C125.588 61.6471 137.065 55.0203 151.222 55.0203C165.379 55.0203 176.855 61.6471 176.855 69.8217C176.855 77.9963 165.379 84.6231 151.222 84.6231Z" fill="#455A64"/>
<path d="M125.583 60.9928V66.2956C125.575 66.8992 125.642 67.5014 125.783 68.0884C126.404 71.2744 128.872 74.3848 133.1 76.8202C137.582 79.4122 143.301 80.827 149.127 81.0808C156.369 81.4264 163.81 80.0008 169.361 76.7986C171.56 75.5977 173.477 73.9407 174.983 71.9386C175.806 70.7974 176.371 69.4911 176.64 68.11C176.781 67.5414 176.848 66.957 176.84 66.3712V60.9442C176.84 57.1642 174.351 53.3842 169.35 50.4682C168.902 50.2198 168.454 49.9714 167.979 49.7446C157.902 44.6956 142.647 44.944 133.089 50.4682C128.073 53.3788 125.562 57.1858 125.583 60.9928Z" fill="#F0F0F0"/>
<path d="M151.222 75.616C137.065 75.616 125.588 68.9892 125.588 60.8146C125.588 52.64 137.065 46.0132 151.222 46.0132C165.379 46.0132 176.855 52.64 176.855 60.8146C176.855 68.9892 165.379 75.616 151.222 75.616Z" fill="#FAFAFA"/>
<path d="M174.983 71.9223C173.477 73.9244 171.56 75.5815 169.362 76.7823C163.81 79.9899 156.369 81.4101 149.128 81.0645C149.058 79.2015 148.015 77.7759 154.728 76.4799C160.3 75.3999 168.541 73.0887 172.386 66.9975C175.917 61.3977 173.887 54.0375 167.99 49.7175C168.465 49.9443 168.913 50.1927 169.362 50.4411C174.362 53.3301 176.851 57.1101 176.851 60.9171V66.3441C176.86 66.9299 176.793 67.5143 176.652 68.0829C176.381 69.4687 175.811 70.7789 174.983 71.9223Z" fill="#E0E0E0"/>
<path d="M125.729 116.186C139.818 124.243 162.66 124.243 176.749 116.186C183.796 112.163 187.316 106.882 187.316 101.606V136.447C187.316 141.723 183.796 147.004 176.749 151.027C162.66 159.084 139.818 159.084 125.729 151.027C118.682 147.004 115.162 141.723 115.162 136.447V101.606C115.162 106.882 118.682 112.163 125.729 116.186Z" fill="#57AB68"/>
<path d="M125.729 112.849C139.818 120.9 162.66 120.9 176.749 112.849C183.796 108.82 187.316 103.545 187.316 98.2688V133.11C187.316 138.391 183.796 143.667 176.749 147.69C162.66 155.741 139.818 155.741 125.729 147.69C118.682 143.661 115.162 138.385 115.162 133.11V98.2634C115.162 103.545 118.682 108.82 125.729 112.849Z" fill="#FAFAFA"/>
<path d="M162.94 133.391C162.971 131.211 163.438 129.059 164.312 127.062V127.019C165.311 124.74 166.758 122.828 168.367 121.899C170.716 120.549 172.687 122.769 173.47 125.874C173.546 126.187 173.913 126.203 173.962 125.874C174.675 121.824 176.727 117.077 179.146 115.695C180.766 114.771 182.202 115.02 183.196 116.159C184.044 117.153 184.562 118.789 184.557 120.922C184.557 127.532 180.566 133.466 177.229 139.714L173.627 145.746L170.203 143.748C166.92 141.367 162.93 140 162.94 133.391Z" fill="#37474F"/>
<path d="M178.676 131.231L177.137 127.197C177.099 127.069 177.021 126.956 176.914 126.876C176.807 126.796 176.677 126.753 176.543 126.754C176.408 126.755 176.278 126.802 176.174 126.888C176.069 126.973 175.998 127.092 175.971 127.224L173.589 136.485L171.694 131.301C171.65 131.183 171.57 131.081 171.465 131.01C171.361 130.94 171.237 130.903 171.111 130.907C170.986 130.915 170.867 130.961 170.771 131.039C170.674 131.118 170.604 131.224 170.571 131.344L169.161 136.355L164.263 139.18L164.377 139.352C164.545 139.587 164.725 139.812 164.917 140.027L165.019 140.146L169.993 137.273C170.128 137.196 170.227 137.068 170.268 136.917L171.24 133.466L173.211 138.866C173.256 138.988 173.339 139.093 173.448 139.164C173.557 139.235 173.686 139.269 173.816 139.261C173.945 139.251 174.066 139.2 174.164 139.115C174.261 139.03 174.328 138.917 174.356 138.791L176.64 129.881L177.72 132.305C177.744 132.394 177.789 132.475 177.849 132.544C177.91 132.612 177.986 132.665 178.071 132.7C178.158 132.736 178.251 132.752 178.345 132.746C178.439 132.741 178.53 132.714 178.611 132.667L182.526 130.405L182.553 130.351C182.742 129.924 182.926 129.503 183.093 129.076L183.298 128.569L178.676 131.231Z" fill="#FAFAFA"/>
<path d="M150.97 131.166C152.347 131.166 153.734 131.123 155.144 131.036C155.286 131.026 155.419 130.961 155.513 130.854C155.607 130.746 155.655 130.606 155.646 130.464C155.636 130.321 155.571 130.189 155.463 130.095C155.356 130 155.216 129.953 155.074 129.962C145.586 130.539 136.714 129.114 129.391 125.831C129.326 125.801 129.256 125.785 129.185 125.783C129.114 125.781 129.043 125.793 128.977 125.819C128.91 125.844 128.85 125.882 128.798 125.931C128.746 125.98 128.705 126.038 128.676 126.103C128.647 126.168 128.631 126.238 128.629 126.309C128.626 126.38 128.638 126.451 128.664 126.517C128.689 126.584 128.727 126.645 128.776 126.696C128.825 126.748 128.883 126.79 128.948 126.819C135.331 129.686 142.88 131.166 150.97 131.166Z" fill="#E0E0E0"/>
<path d="M150.97 137.03C152.347 137.03 153.734 136.987 155.144 136.901C155.286 136.891 155.419 136.825 155.513 136.718C155.607 136.611 155.655 136.471 155.646 136.328C155.636 136.186 155.571 136.053 155.463 135.959C155.356 135.865 155.216 135.817 155.074 135.826C145.586 136.404 136.714 134.978 129.391 131.695C129.26 131.636 129.111 131.632 128.977 131.683C128.843 131.734 128.734 131.837 128.676 131.968C128.617 132.099 128.613 132.248 128.664 132.382C128.715 132.516 128.817 132.625 128.948 132.683C135.331 135.551 142.88 137.03 150.97 137.03Z" fill="#E0E0E0"/>
<path d="M150.969 142.9C152.346 142.9 153.733 142.857 155.143 142.77C155.286 142.761 155.42 142.695 155.514 142.587C155.609 142.48 155.657 142.339 155.648 142.195C155.638 142.052 155.573 141.918 155.465 141.824C155.357 141.729 155.216 141.681 155.073 141.69C145.585 142.274 136.713 140.848 129.39 137.565C129.26 137.506 129.112 137.502 128.978 137.553C128.845 137.603 128.736 137.705 128.677 137.835C128.648 137.9 128.631 137.97 128.629 138.041C128.626 138.112 128.638 138.183 128.663 138.25C128.688 138.317 128.726 138.378 128.775 138.43C128.824 138.482 128.882 138.524 128.947 138.553C135.33 141.41 142.879 142.9 150.969 142.9Z" fill="#E0E0E0"/>
<path d="M144.476 220.325C145.016 220.012 145.356 219.337 145.356 218.376C145.3 217.33 144.997 216.312 144.474 215.405C143.95 214.498 143.22 213.727 142.343 213.154C142.039 212.933 141.682 212.797 141.308 212.76C140.934 212.723 140.557 212.786 140.216 212.943L136.338 215.19C135.359 215.756 134.644 216.689 134.352 217.782C134.06 218.875 134.214 220.039 134.781 221.019C135.347 221.999 136.279 222.713 137.373 223.005C138.466 223.297 139.63 223.143 140.61 222.577L144.476 220.325Z" fill="#F5F5F5"/>
<path d="M149.817 217.236C150.342 216.978 150.808 216.614 151.186 216.168C151.564 215.722 151.847 215.203 152.016 214.643C152.186 214.083 152.238 213.494 152.171 212.913C152.103 212.332 151.917 211.771 151.624 211.265C151.331 210.759 150.937 210.319 150.467 209.971C149.997 209.623 149.46 209.376 148.89 209.244C148.32 209.112 147.729 209.099 147.154 209.205C146.579 209.311 146.032 209.534 145.546 209.86L140.216 212.96C140.558 212.803 140.935 212.739 141.309 212.776C141.683 212.814 142.04 212.949 142.344 213.17C143.221 213.743 143.951 214.514 144.474 215.421C144.998 216.328 145.3 217.346 145.357 218.392C145.357 219.353 145.022 220.012 144.477 220.341L149.817 217.236Z" fill="#455A64"/>
<path opacity="0.4" d="M148.857 210.978C148.966 211.163 149.037 211.368 149.066 211.58C149.095 211.793 149.082 212.01 149.026 212.217C148.971 212.425 148.875 212.619 148.744 212.789C148.613 212.959 148.449 213.102 148.263 213.208L141.81 216.95C141.266 216.05 140.962 215.026 140.924 213.975C140.924 213.872 140.924 213.775 140.924 213.683L146.627 210.4C146.811 210.29 147.015 210.218 147.227 210.188C147.439 210.157 147.655 210.169 147.862 210.223C148.07 210.277 148.264 210.371 148.435 210.501C148.606 210.63 148.749 210.792 148.857 210.978Z" fill="white"/>
<path d="M144.476 220.325C145.016 220.012 145.356 219.337 145.356 218.376C145.3 217.33 144.997 216.312 144.474 215.405C143.95 214.498 143.22 213.727 142.343 213.154C142.039 212.933 141.682 212.797 141.308 212.76C140.934 212.723 140.557 212.786 140.216 212.943L136.338 215.19C135.359 215.756 134.644 216.689 134.352 217.782C134.06 218.875 134.214 220.039 134.781 221.019C135.347 221.999 136.279 222.713 137.373 223.005C138.466 223.297 139.63 223.143 140.61 222.577L144.476 220.325Z" fill="#F5F5F5"/>
<path opacity="0.1" d="M142.343 213.154C143.22 213.727 143.95 214.498 144.473 215.405C144.997 216.312 145.299 217.33 145.356 218.376C145.356 219.337 145.021 219.996 144.476 220.325L144.778 220.152L145.01 220.017C145.55 219.704 145.891 219.029 145.891 218.068C145.835 217.022 145.533 216.003 145.009 215.096C144.486 214.189 143.755 213.418 142.877 212.846C142.573 212.625 142.216 212.489 141.842 212.452C141.468 212.415 141.091 212.479 140.75 212.635L140.21 212.943C140.552 212.785 140.93 212.722 141.305 212.759C141.68 212.796 142.038 212.932 142.343 213.154Z" fill="#333333"/>
<path d="M134.238 218.43C134.136 219.327 134.325 220.234 134.778 221.016C135.058 221.502 135.431 221.928 135.876 222.269C136.321 222.61 136.829 222.861 137.37 223.006C137.912 223.151 138.477 223.187 139.033 223.114C139.589 223.04 140.125 222.858 140.61 222.577L144.476 220.325C145.016 220.012 145.356 219.337 145.356 218.376C145.352 217.934 145.291 217.495 145.173 217.069L138.693 220.811C136.576 222.042 134.259 219.828 134.238 218.43Z" fill="#EBEBEB"/>
<path d="M135.708 218.597C135.814 218.784 135.957 218.947 136.127 219.078C136.297 219.209 136.491 219.305 136.699 219.361C136.906 219.416 137.123 219.429 137.335 219.4C137.548 219.371 137.753 219.3 137.938 219.191L144.478 215.411C143.973 214.487 143.238 213.71 142.345 213.154L142.085 213.019L136.307 216.361C136.12 216.467 135.955 216.609 135.823 216.78C135.69 216.95 135.594 217.145 135.538 217.353C135.482 217.561 135.468 217.779 135.498 217.992C135.527 218.206 135.598 218.411 135.708 218.597Z" fill="white"/>
<path opacity="0.1" d="M151.075 210.94C151.027 210.875 150.978 210.81 150.924 210.751L150.811 210.621L150.676 210.481C150.628 210.431 150.578 210.384 150.525 210.34L150.449 210.276C150.224 210.084 149.979 209.916 149.72 209.773L149.434 209.633C150.627 210.351 151.383 213.462 149.261 214.693C148.532 215.114 147.441 215.773 145.195 217.058C145.313 217.484 145.374 217.923 145.378 218.365C145.378 219.326 145.044 219.985 144.498 220.314L149.839 217.225C150.819 216.659 151.533 215.726 151.826 214.632C152.119 213.539 151.965 212.374 151.399 211.393C151.335 211.28 151.259 211.172 151.183 211.064L151.075 210.94Z" fill="#333333"/>
<path d="M76.4645 205.88C76.1569 205.662 75.9128 205.366 75.7571 205.023C75.6015 204.679 75.54 204.301 75.5789 203.925C75.6362 202.88 75.9388 201.864 76.4623 200.957C76.9858 200.051 77.7154 199.281 78.5921 198.709C79.4237 198.228 80.1797 198.169 80.7251 198.498L84.5968 200.739C85.5772 201.305 86.2926 202.237 86.5858 203.33C86.879 204.424 86.7259 205.588 86.1601 206.569C85.5944 207.549 84.6625 208.264 83.5693 208.558C82.4761 208.851 81.3112 208.698 80.3309 208.132L76.4645 205.88Z" fill="#F5F5F5"/>
<path d="M71.1239 202.792C70.1436 202.226 69.4281 201.294 69.135 200.201C68.8418 199.107 68.9949 197.943 69.5606 196.962C70.1263 195.982 71.0583 195.266 72.1515 194.973C73.2447 194.68 74.4096 194.833 75.3899 195.399L80.7251 198.52C80.1851 198.202 79.4237 198.25 78.5921 198.731C77.7155 199.303 76.9859 200.073 76.4624 200.979C75.9389 201.885 75.6362 202.902 75.5789 203.947C75.54 204.322 75.6016 204.701 75.7572 205.044C75.9128 205.388 76.1569 205.684 76.4645 205.902L71.1239 202.792Z" fill="#4A5E68"/>
<path opacity="0.4" d="M72.0801 196.527C71.9713 196.713 71.9005 196.918 71.8717 197.131C71.843 197.344 71.8569 197.56 71.9127 197.768C71.9685 197.976 72.065 198.17 72.1966 198.34C72.3283 198.51 72.4925 198.652 72.6795 198.758L79.1271 202.5C79.6712 201.6 79.976 200.575 80.0127 199.524C80.0127 199.427 80.0127 199.33 80.0127 199.233L74.3211 195.928C74.1353 195.817 73.9293 195.745 73.7151 195.716C73.501 195.686 73.2831 195.699 73.0743 195.755C72.8654 195.811 72.6699 195.908 72.4991 196.041C72.3284 196.173 72.1859 196.339 72.0801 196.527Z" fill="white"/>
<path d="M76.4645 205.88C76.1569 205.662 75.9128 205.366 75.7571 205.023C75.6015 204.679 75.54 204.301 75.5789 203.925C75.6362 202.88 75.9388 201.864 76.4623 200.957C76.9858 200.051 77.7154 199.281 78.5921 198.709C79.4237 198.228 80.1797 198.169 80.7251 198.498L84.5968 200.739C85.5772 201.305 86.2926 202.237 86.5858 203.33C86.879 204.424 86.7259 205.588 86.1601 206.569C85.5944 207.549 84.6625 208.264 83.5693 208.558C82.4761 208.851 81.3112 208.698 80.3309 208.132L76.4645 205.88Z" fill="#F5F5F5"/>
<path opacity="0.1" d="M78.5925 198.709C77.7159 199.281 76.9863 200.051 76.4628 200.957C75.9393 201.864 75.6366 202.88 75.5793 203.925C75.5405 204.301 75.602 204.679 75.7576 205.023C75.9132 205.366 76.1573 205.662 76.4649 205.88L76.1571 205.702L75.9303 205.567C75.6223 205.351 75.3778 205.056 75.2221 204.713C75.0664 204.37 75.0051 203.992 75.0447 203.618C75.1016 202.573 75.4041 201.556 75.9276 200.649C76.4512 199.743 77.181 198.973 78.0579 198.401C78.3625 198.18 78.7205 198.043 79.0952 198.005C79.47 197.967 79.8481 198.029 80.191 198.185L80.731 198.498C80.1802 198.18 79.4403 198.228 78.5925 198.709Z" fill="#333333"/>
<path d="M86.702 203.985C86.7873 204.768 86.6537 205.559 86.3163 206.271C85.9789 206.983 85.4507 207.587 84.7905 208.017C84.1304 208.446 83.364 208.685 82.5766 208.705C81.7892 208.725 81.0115 208.527 80.33 208.132L76.4636 205.88C76.156 205.662 75.9119 205.366 75.7563 205.023C75.6007 204.679 75.5392 204.301 75.578 203.925C75.5841 203.485 75.6476 203.048 75.767 202.624L82.247 206.366C84.3638 207.592 86.675 205.383 86.702 203.985Z" fill="#EBEBEB"/>
<path d="M85.2278 204.147C85.1219 204.334 84.9799 204.498 84.8101 204.63C84.6402 204.761 84.4458 204.858 84.2382 204.914C84.0307 204.969 83.8141 204.983 83.6011 204.955C83.3881 204.926 83.1829 204.855 82.9976 204.746L76.4582 200.966C76.9661 200.046 77.7002 199.271 78.5912 198.714C78.6765 198.664 78.7649 198.619 78.8558 198.579L84.6338 201.922C84.8197 202.028 84.9826 202.17 85.1133 202.34C85.2439 202.51 85.3396 202.704 85.3949 202.91C85.4501 203.117 85.4638 203.333 85.4351 203.545C85.4064 203.758 85.3359 203.962 85.2278 204.147Z" fill="white"/>
<path opacity="0.1" d="M69.8598 196.517L70.011 196.322L70.1298 196.193L70.2648 196.058L70.4106 195.917L70.4862 195.853C70.7121 195.659 70.9584 195.491 71.2206 195.35L71.5068 195.21C70.308 195.934 69.552 199.044 71.6796 200.27C72.4086 200.691 73.494 201.35 75.7458 202.64C75.6264 203.064 75.5628 203.502 75.5568 203.942C75.5179 204.317 75.5794 204.695 75.7351 205.039C75.8907 205.382 76.1348 205.678 76.4424 205.897L71.1018 202.808C70.6161 202.528 70.1904 202.154 69.8491 201.71C69.5077 201.265 69.2574 200.757 69.1125 200.215C68.9675 199.674 68.9308 199.109 69.0044 198.553C69.0779 197.997 69.2604 197.461 69.5412 196.976C69.606 196.862 69.6762 196.749 69.7518 196.641L69.8598 196.517Z" fill="#333333"/>
<path d="M94.8777 155.79C94.8777 153.214 96.5787 150.633 99.9861 148.667C106.796 144.736 117.839 144.736 124.648 148.667C128.055 150.633 129.756 153.214 129.756 155.79V200.561C129.756 203.137 128.055 205.713 124.648 207.678C117.839 211.615 106.796 211.615 99.9861 207.678C96.5787 205.713 94.8777 203.137 94.8777 200.561V155.79Z" fill="#3FA654"/>
<path opacity="0.4" d="M101.58 147.863V208.488C101.026 208.254 100.486 207.991 99.9601 207.7C98.9465 207.127 98.0147 206.421 97.1899 205.599V150.773C98.0157 149.951 98.9473 149.243 99.9601 148.667C100.5 148.376 101.04 148.111 101.58 147.863Z" fill="white"/>
<path opacity="0.4" d="M106.153 209.973C105.305 209.787 104.467 209.558 103.642 209.288V147.063C104.467 146.79 105.305 146.562 106.153 146.378V209.973Z" fill="white"/>
<path opacity="0.1" d="M95.1801 153.932C96.2617 152.478 97.6452 151.275 99.2355 150.406C105.959 146.523 116.564 146.259 123.827 149.601V148.24C124.103 148.381 124.367 148.516 124.648 148.667C128.055 150.633 129.756 153.214 129.756 155.79V162.604V190.798V200.561C129.756 203.137 128.055 205.713 124.648 207.678C117.839 211.615 106.796 211.615 99.9861 207.678C98.831 207.032 97.7819 206.213 96.8757 205.248C100.116 208.278 108.216 209.946 114.194 208.764C120.171 207.581 123.827 203.758 123.827 201.036V192.169C120.463 193.989 116.062 194.869 111.764 194.869V176.758C116.084 176.758 120.463 176.094 123.827 174.285V166.314C116.564 169.657 105.959 169.392 99.2355 165.51C97.4662 164.559 95.9669 163.175 94.8777 161.487V155.79C94.8797 155.158 94.9818 154.531 95.1801 153.932Z" fill="#333333"/>
<path opacity="0.1" d="M126.813 201.809V150.19C128.774 151.88 129.756 153.835 129.756 155.79V200.561C129.756 203.137 128.055 205.713 124.648 207.678C122.584 208.826 120.349 209.632 118.028 210.065C124.578 208.289 126.813 203.812 126.813 201.809Z" fill="#333333"/>
<path d="M93.8207 147.825C93.8207 145.092 95.6243 142.355 99.2207 140.265C106.446 136.096 118.158 136.096 125.384 140.265C128.996 142.349 130.784 145.087 130.784 147.825V156.022C130.784 158.754 128.98 161.492 125.384 163.582C118.158 167.751 106.446 167.751 99.2207 163.582C95.6081 161.498 93.8207 158.76 93.8207 156.022V147.825Z" fill="#E0E0E0"/>
<g opacity="0.2">
<path opacity="0.2" d="M93.377 147.063H94.2627V159.818H93.377V147.063Z" fill="#333333"/>
<path opacity="0.2" d="M95.4182 150.509H96.3037V163.334H95.4182V150.509Z" fill="#333333"/>
<path opacity="0.2" d="M98.5065 152.879H99.3921V165.769H98.5065V152.879Z" fill="#333333"/>
<path opacity="0.2" d="M102.028 154.353H102.914V167.313H102.028V154.353Z" fill="#333333"/>
<path opacity="0.2" d="M105.9 155.336H106.786V168.366H105.9V155.336Z" fill="#333333"/>
<path opacity="0.2" d="M109.998 155.828H110.884V168.928H109.998V155.828Z" fill="#333333"/>
<path opacity="0.2" d="M114.161 155.811H115.047V168.977H114.161V155.811Z" fill="#333333"/>
<path opacity="0.2" d="M118.222 155.271H119.107V168.507H118.222V155.271Z" fill="#333333"/>
<path opacity="0.2" d="M122.028 154.175H122.914V167.481H122.028V154.175Z" fill="#333333"/>
<path opacity="0.2" d="M125.481 152.48H126.366V165.856H125.481V152.48Z" fill="#333333"/>
<path opacity="0.2" d="M128.218 150.12H129.104V163.56H128.218V150.12Z" fill="#333333"/>
<path opacity="0.2" d="M130.372 146.307H131.258V159.818H130.372V146.307Z" fill="#333333"/>
</g>
<path opacity="0.1" d="M107.892 166.379C117.045 166.433 121.878 163.458 123.342 161.033C124.46 159.186 124.649 155.784 124.649 152.393C124.649 152.393 125.68 144.704 125.48 144.682C125.28 144.66 127.678 144.142 129.455 143.786C130.318 144.951 130.794 146.358 130.815 147.809V156.022C130.815 158.754 129.012 161.492 125.415 163.582C120.653 166.314 113.967 167.243 107.892 166.379Z" fill="#333333"/>
<path d="M112.321 158.506C102.103 158.506 93.8205 153.724 93.8205 147.825C93.8205 141.926 102.103 137.144 112.321 137.144C122.538 137.144 130.821 141.926 130.821 147.825C130.821 153.724 122.538 158.506 112.321 158.506Z" fill="#EBEBEB"/>
<path d="M98.2428 154.742C92.0436 150.546 92.3676 144.239 99.2364 140.27C102.757 138.24 107.336 137.203 111.964 137.154C114.331 137.522 116.615 138.301 118.714 139.455C124.957 143.024 124.957 150.152 118.714 153.722C113.141 156.908 104.48 157.242 98.2428 154.742Z" fill="#F5F5F5"/>
<path opacity="0.1" d="M123.644 206.885C117.391 210.027 107.245 210.027 100.992 206.885C94.7383 203.742 94.7329 198.644 100.992 195.501C107.25 192.359 117.391 192.359 123.644 195.501C129.898 198.644 129.903 203.742 123.644 206.885Z" fill="#333333"/>
<path d="M129.756 167.556C129.756 170.132 128.055 172.708 124.648 174.674C121.241 176.639 116.78 177.622 112.32 177.622V195.372C116.78 195.372 121.246 194.389 124.648 192.423C128.05 190.458 129.756 187.882 129.756 185.306V167.556Z" fill="white"/>
<path d="M129.4 151.923C129.4 151.923 123.384 157.982 111.763 157.664C100.143 157.345 95.4879 151 94.8777 149.024C94.5648 147.865 94.544 146.647 94.8173 145.478C95.0906 144.31 95.6494 143.227 96.4437 142.328C95.6572 143.016 95.0189 143.858 94.5678 144.801C94.1166 145.744 93.862 146.769 93.8193 147.814V156.022C93.8193 156.713 93.4629 159.1 97.2159 162.189C97.2159 162.189 95.0127 159.689 95.0127 157.286V151.616C95.0127 151.616 99.1275 158.495 111.753 158.495C124.378 158.495 128.763 152.955 129.4 151.923Z" fill="white"/>
</g>
<defs>
<filter id="filter0_d_0_1" x="-48" y="-146" width="353" height="457" filterUnits="userSpaceOnUse" color-interpolation-filters="sRGB">
<feFlood flood-opacity="0" result="BackgroundImageFix"/>
<feColorMatrix in="SourceAlpha" type="matrix" values="0 0 0 0 0 0 0 0 0 0 0 0 0 0 0 0 0 0 127 0" result="hardAlpha"/>
<feOffset dx="4" dy="4"/>
<feGaussianBlur stdDeviation="2"/>
<feComposite in2="hardAlpha" operator="out"/>
<feColorMatrix type="matrix" values="0 0 0 0 0.2 0 0 0 0 0.2 0 0 0 0 0.2 0 0 0 0.08 0"/>
<feBlend mode="normal" in2="BackgroundImageFix" result="effect1_dropShadow_0_1"/>
<feBlend mode="normal" in="SourceGraphic" in2="effect1_dropShadow_0_1" result="shape"/>
</filter>
<clipPath id="clip0_0_1">
<rect width="375" height="29733" fill="white" transform="translate(-63 -2139)"/>
</clipPath>
</defs>
</svg>
