<svg width="302" height="302" viewBox="0 0 302 302" fill="none" xmlns="http://www.w3.org/2000/svg">
<path d="M302 230.97H0V231.121H302V230.97Z" fill="#EBEBEB"/>
<path d="M271.74 240.688H251.735V240.839H271.74V240.688Z" fill="#EBEBEB"/>
<path d="M200.057 242.331H194.808V242.482H200.057V242.331Z" fill="#EBEBEB"/>
<path d="M251.131 235.083H239.541V235.234H251.131V235.083Z" fill="#EBEBEB"/>
<path d="M57.7726 236.098H31.6858V236.249H57.7726V236.098Z" fill="#EBEBEB"/>
<path d="M66.9774 236.098H63.1541V236.249H66.9774V236.098Z" fill="#EBEBEB"/>
<path d="M135.99 238.647H79.4077V238.798H135.99V238.647Z" fill="#EBEBEB"/>
<path d="M143.148 204.031H26.5217C25.608 204.03 24.7323 203.666 24.0869 203.019C23.4414 202.373 23.0789 201.496 23.0789 200.583V36.6389C23.0868 35.7305 23.4529 34.8619 24.0975 34.2218C24.7421 33.5817 25.6132 33.2218 26.5217 33.2202H143.148C144.063 33.2202 144.94 33.5836 145.587 34.2304C146.233 34.8771 146.597 35.7544 146.597 36.6691V200.583C146.597 201.497 146.233 202.375 145.587 203.021C144.94 203.668 144.063 204.031 143.148 204.031ZM26.5217 33.341C25.6481 33.3426 24.8108 33.6908 24.1936 34.3091C23.5765 34.9274 23.2299 35.7653 23.2299 36.6389V200.583C23.2299 201.456 23.5765 202.294 24.1936 202.912C24.8108 203.531 25.6481 203.879 26.5217 203.88H143.148C144.022 203.879 144.86 203.531 145.478 202.913C146.096 202.295 146.444 201.457 146.446 200.583V36.6389C146.444 35.7647 146.096 34.9268 145.478 34.3087C144.86 33.6906 144.022 33.3426 143.148 33.341H26.5217Z" fill="#EBEBEB"/>
<path d="M273.799 204.031H157.167C156.253 204.03 155.376 203.666 154.73 203.02C154.083 202.373 153.72 201.497 153.718 200.583V36.6389C153.728 35.7299 154.095 34.8613 154.741 34.2214C155.386 33.5815 156.258 33.2218 157.167 33.2202H273.799C274.707 33.2234 275.576 33.584 276.22 34.2239C276.863 34.8638 277.228 35.7315 277.236 36.6389V200.583C277.236 201.495 276.874 202.371 276.23 203.017C275.586 203.663 274.712 204.028 273.799 204.031ZM157.167 33.341C156.293 33.3426 155.455 33.6906 154.837 34.3087C154.219 34.9268 153.871 35.7647 153.869 36.6389V200.583C153.871 201.457 154.219 202.295 154.837 202.913C155.455 203.531 156.293 203.879 157.167 203.88H273.799C274.673 203.879 275.511 203.531 276.129 202.913C276.747 202.295 277.095 201.457 277.097 200.583V36.6389C277.095 35.7647 276.747 34.9268 276.129 34.3087C275.511 33.6906 274.673 33.3426 273.799 33.341H157.167Z" fill="#EBEBEB"/>
<path d="M202.582 114.664C216.442 114.664 227.678 103.428 227.678 89.5674C227.678 75.7071 216.442 64.4712 202.582 64.4712C188.721 64.4712 177.485 75.7071 177.485 89.5674C177.485 103.428 188.721 114.664 202.582 114.664Z" fill="#F5F5F5"/>
<path d="M247.368 84.6204C247.368 83.5359 246.937 82.4958 246.171 81.729C245.404 80.9621 244.364 80.5313 243.279 80.5313C242.882 80.5301 242.487 80.5892 242.107 80.7065C242.165 80.2902 242.195 79.8705 242.198 79.4502C242.2 78.1762 241.921 76.9174 241.38 75.764C240.839 74.6106 240.049 73.5911 239.068 72.7784C238.087 71.9658 236.938 71.3801 235.704 71.0633C234.47 70.7465 233.181 70.7064 231.93 70.9459C231.076 69.5443 229.79 68.4581 228.265 67.8511C226.741 67.2441 225.06 67.1492 223.477 67.5807C221.893 68.0121 220.493 68.9466 219.487 70.2432C218.481 71.5398 217.924 73.1283 217.899 74.7692H217.772C215.958 74.8226 214.237 75.5807 212.972 76.8825C211.708 78.1844 211.001 79.9277 211.001 81.7424C211.001 83.557 211.708 85.3003 212.972 86.6022C214.237 87.9041 215.958 88.6621 217.772 88.7155H243.412C244.474 88.681 245.481 88.2342 246.22 87.4697C246.958 86.7053 247.37 85.6833 247.368 84.6204Z" fill="#EBEBEB"/>
<path d="M182.776 107.113C182.776 106.03 182.346 104.991 181.581 104.224C180.815 103.458 179.777 103.026 178.693 103.024C178.284 103.021 177.877 103.08 177.485 103.2C177.671 101.969 177.588 100.713 177.242 99.5174C176.897 98.3218 176.297 97.2153 175.483 96.2737C174.669 95.332 173.661 94.5776 172.529 94.0623C171.396 93.5469 170.165 93.2827 168.921 93.2879C168.386 93.2891 167.852 93.3397 167.326 93.4389C166.469 92.0509 165.186 90.9773 163.669 90.3781C162.152 89.779 160.482 89.6865 158.907 90.1145C157.333 90.5425 155.94 91.4681 154.935 92.753C153.93 94.0379 153.368 95.6133 153.331 97.2441H153.205C151.391 97.2975 149.669 98.0556 148.405 99.3575C147.141 100.659 146.434 102.403 146.434 104.217C146.434 106.032 147.141 107.775 148.405 109.077C149.669 110.379 151.391 111.137 153.205 111.19H178.784C179.85 111.167 180.865 110.727 181.611 109.965C182.357 109.203 182.775 108.18 182.776 107.113Z" fill="#EBEBEB"/>
<path d="M70.064 114.851C70.064 113.767 69.634 112.728 68.8685 111.962C68.103 111.195 67.0644 110.763 65.981 110.762C65.5723 110.76 65.1654 110.816 64.773 110.931C64.8359 110.517 64.8682 110.099 64.8696 109.681C64.8663 108.408 64.5833 107.152 64.0405 106.001C63.4978 104.85 62.7086 103.833 61.7288 103.021C60.7491 102.209 59.6028 101.622 58.3712 101.302C57.1395 100.982 55.8526 100.937 54.6016 101.17C53.7492 99.7668 52.4631 98.6789 50.9377 98.071C49.4123 97.4631 47.7305 97.3682 46.1464 97.8007C44.5623 98.2333 43.162 99.1697 42.1572 100.468C41.1524 101.767 40.5976 103.358 40.5767 105H40.4499C38.636 105.053 36.9143 105.811 35.6502 107.113C34.3861 108.415 33.679 110.158 33.679 111.973C33.679 113.788 34.3861 115.531 35.6502 116.833C36.9143 118.135 38.636 118.893 40.4499 118.946H66.0535C67.1263 118.929 68.1491 118.489 68.8999 117.722C69.6506 116.956 70.0689 115.924 70.064 114.851Z" fill="#EBEBEB"/>
<path d="M245.007 134.354C245.007 133.699 244.746 133.071 244.283 132.607C243.82 132.144 243.191 131.884 242.536 131.884C242.295 131.884 242.055 131.918 241.823 131.986C241.932 131.243 241.879 130.485 241.669 129.764C241.458 129.044 241.095 128.376 240.604 127.808C240.113 127.24 239.506 126.784 238.823 126.471C238.14 126.158 237.398 125.996 236.647 125.995C236.325 125.994 236.003 126.024 235.687 126.085C235.167 125.248 234.391 124.601 233.473 124.241C232.556 123.88 231.546 123.826 230.596 124.086C229.645 124.346 228.804 124.907 228.197 125.684C227.591 126.461 227.252 127.413 227.231 128.399H227.104C225.983 128.399 224.907 128.844 224.114 129.637C223.321 130.43 222.876 131.505 222.876 132.627C222.876 133.748 223.321 134.823 224.114 135.616C224.907 136.409 225.983 136.855 227.104 136.855H242.578C242.902 136.85 243.222 136.781 243.519 136.653C243.816 136.525 244.085 136.34 244.31 136.107C244.536 135.875 244.713 135.601 244.833 135.3C244.952 134.999 245.011 134.678 245.007 134.354Z" fill="#EBEBEB"/>
<path d="M95.6919 54.91C95.6949 54.5244 95.6069 54.1434 95.435 53.7982C95.2631 53.4529 95.0122 53.1531 94.7027 52.923C94.3932 52.6929 94.0337 52.5391 93.6536 52.474C93.2734 52.4089 92.8833 52.4344 92.5149 52.5484C92.6231 51.8052 92.5703 51.0475 92.3599 50.3265C92.1496 49.6056 91.7866 48.9383 91.2956 48.37C90.8046 47.8017 90.1972 47.3456 89.5144 47.0327C88.8317 46.7199 88.0896 46.5575 87.3386 46.5567C87.0143 46.5561 86.6907 46.5864 86.3722 46.6473C85.8524 45.8099 85.0759 45.1628 84.1584 44.8026C83.2409 44.4424 82.2316 44.3883 81.2809 44.6484C80.3302 44.9085 79.489 45.4688 78.8826 46.2459C78.2763 47.023 77.9373 47.9752 77.9162 48.9606H77.8437C76.7224 48.9606 75.647 49.4061 74.8541 50.199C74.0612 50.9919 73.6157 52.0673 73.6157 53.1886C73.6157 54.31 74.0612 55.3854 74.8541 56.1783C75.647 56.9712 76.7224 57.4166 77.8437 57.4166H93.3182C93.9628 57.3915 94.572 57.1152 95.0155 56.6468C95.4591 56.1784 95.7019 55.5551 95.6919 54.91Z" fill="#EBEBEB"/>
<path d="M54.2756 147.171L70.6319 221.469L73.6036 220.073L56.4259 146.754L54.2756 147.171Z" fill="#EBEBEB"/>
<path d="M242.071 221.113C242.071 221.113 231.936 151.302 254.719 79.1244L251.149 76.3701C251.149 76.3701 224.476 130.972 228.36 223.094L242.071 221.113Z" fill="#E6E6E6"/>
<path d="M260.928 60.1466C269.275 54.6743 281.627 63.378 283.325 76.98C282.098 76.2726 280.815 75.6666 279.489 75.168C278.843 71.7434 278.221 68.7173 278.221 68.7173L278.668 74.86C277.931 74.5942 277.127 74.3345 276.252 74.099L275.648 70.7951L275.376 73.8815C274.194 73.6055 272.995 73.4037 271.788 73.2775L270.23 63.6135L269.445 73.0842C268.208 73.0499 266.971 73.1044 265.742 73.2473L264.788 66.6879V73.3802C263.73 73.5511 262.685 73.7912 261.659 74.099L260.518 64.3142C260.518 64.3142 260.548 69.8166 260.487 74.4855C257.534 75.5559 254.802 77.1611 252.43 79.2209L252.339 78.0129C252.339 78.0129 253.3 65.1356 260.928 60.1466Z" fill="#E0E0E0"/>
<path d="M249.386 55.7737C242.742 48.3143 228.56 53.4846 223.371 66.1686C224.739 65.8014 226.135 65.5488 227.545 65.4136C229.061 62.2788 230.456 59.5185 230.456 59.5185L228.421 65.329C229.2 65.2686 230.039 65.2324 230.939 65.2324L232.359 62.2124L231.815 65.2626C233.029 65.2956 234.239 65.4045 235.439 65.5887L239.468 56.6858L237.765 66.0478C238.969 66.3338 240.15 66.7093 241.298 67.1712L243.938 61.0889L242.204 67.5276C243.183 67.9651 244.13 68.4717 245.037 69.0436L248.703 59.893C248.703 59.893 247.229 65.1961 246.07 69.714C248.64 71.5224 250.856 73.789 252.605 76.4003L253.01 75.2588C253.01 75.2588 255.432 62.5868 249.386 55.7737Z" fill="#E0E0E0"/>
<path d="M243.001 73.4646C249.645 66.9836 254.634 72.625 254.634 72.625C252.14 73.2713 249.911 74.8719 247.99 76.9074L247.09 75.7356L247.235 77.7348C246.776 78.2664 246.329 78.822 245.9 79.3958L244.378 75.9349L245.031 80.622C244.427 81.5159 243.823 82.434 243.321 83.352L242.651 79.9213L242.705 84.4694C242.15 85.4962 241.654 86.5049 241.213 87.4532L240.489 81.1535L240.392 89.3014C239.329 91.8141 238.773 93.5778 238.773 93.5778C238.773 93.5778 236.357 79.9515 243.001 73.4646Z" fill="#E0E0E0"/>
<path d="M260.928 88.7884L259.557 89.5797C259.358 88.5227 259.122 87.4173 258.863 86.2939L259.793 84.5846L258.621 85.3094C258.53 84.9349 258.428 84.5665 258.331 84.192L259.539 80.8458L257.727 82.1807C256.761 79.1607 255.528 76.5091 253.988 75.2407C253.988 75.2407 269.221 80.109 260.632 96.5317C260.632 96.5317 260.354 93.9345 259.744 90.5219L260.928 88.7884Z" fill="#E0E0E0"/>
<path d="M245.948 75.3491L243.532 70.7587L244.535 75.5424C244.293 75.5786 244.046 75.6269 243.798 75.6752L240.639 71.7432L241.418 76.2672C240.339 76.594 239.28 76.9853 238.247 77.4389C237.122 77.9434 236.023 78.5059 234.956 79.1241L233.415 75.1075L234.134 79.6012C233.089 80.2052 232.069 80.8878 231.114 81.5763L230.353 78.0369L230.426 82.0656C229.218 82.9353 228.094 83.8172 227.055 84.6809L227.152 78.2664L226.216 85.3876C225.153 86.2936 224.192 87.1633 223.377 87.9364L223.262 83.485L222.133 89.1384C220.961 90.3041 220.291 91.0471 220.291 91.0471C220.895 75.4699 226.935 69.303 236.925 67.6118C246.915 65.9206 254.115 76.3155 254.115 76.3155C254.115 76.3155 251.01 74.8417 245.948 75.3491Z" fill="#E0E0E0"/>
<path d="M275.086 94.3873L274.174 99.0562C273.733 97.9025 273.135 96.4227 272.362 94.7738L273.184 87.9788L271.686 93.3363C270.515 90.9001 269.158 88.5577 267.627 86.3299L269.052 81.6187L266.745 85.1159C266.28 84.5119 265.803 83.9079 265.307 83.3522L266.117 80.3865L264.866 82.869C264.528 82.4945 264.178 82.1381 263.822 81.7939L264.806 77.8377L263.242 81.2623C262.268 80.3719 261.196 79.5958 260.047 78.949L261.635 74.117L259.147 78.5021C257.582 77.7681 255.867 77.4103 254.139 77.4571C254.139 77.4571 257.159 72.6251 262.71 70.9641C268.261 69.3031 280.226 79.3537 275.032 101.527C275.032 101.527 274.875 101.025 274.561 100.161L275.086 94.3873Z" fill="#E0E0E0"/>
<path d="M265.929 51.3039L266.877 54.1185C266.527 54.1384 266.18 54.1889 265.838 54.2695L264.697 50.6033L265.458 54.3601C264.734 54.5766 264.043 54.8916 263.404 55.2964L261.834 50.3496L262.74 55.7433C262.486 55.9305 262.233 56.1359 261.973 56.3473L260.197 51.7025L261.532 56.7761C260.22 58.09 259.099 59.5825 258.204 61.2095L257.739 54.3601L256.954 63.6557C255.652 66.5625 254.601 69.5753 253.813 72.6614C253.813 72.6614 252.846 47.8973 258.808 45.1189C264.769 42.3405 268.315 54.2333 268.315 54.2333C268.05 54.1552 267.776 54.1106 267.499 54.1004L265.929 51.3039Z" fill="#E0E0E0"/>
<path d="M257.413 78.8526L256.881 83.5457L255.069 79.0218L252.653 82.5612L251.699 79.2634L248.908 81.6069C248.908 81.6069 249.252 75.6212 251.034 72.8851C252.816 70.149 258.167 72.0697 257.413 78.8526Z" fill="#E0E0E0"/>
<path d="M183.012 154.316V121.591C183.012 121.591 176.368 128.652 171.977 127.686C167.586 126.719 161.872 130.059 161.872 130.059C161.872 130.059 167.628 129.22 169.766 131.557C171.905 133.895 181.448 134.142 181.448 134.142V155.512L183.012 154.316Z" fill="#EBEBEB"/>
<path d="M212.306 144.284H210.796V146.343H205.819V144.284H200.927V146.343H195.95V144.284H191.063V146.343H186.08V144.284H181.194V146.343H176.217V144.284H171.325V146.343H166.348V144.284H161.455V146.343H156.478V144.284H154.805L149.955 183.061L217.319 182.783L212.306 144.284Z" fill="#E0E0E0"/>
<path d="M223.021 172.43H220.949V175.257H214.112V172.43H207.395V175.257H200.552V172.43H193.836V175.257H186.998V172.43H180.282V175.257H173.438V172.43H166.722V175.257H159.879V172.43H153.162V175.257H146.325V172.43H144.024L137.355 225.709L229.918 225.322L223.021 172.43Z" fill="#EBEBEB"/>
<path d="M257.213 219.434C255.782 217.821 254.435 216.172 252.937 214.602C252.859 214.523 252.789 214.438 252.725 214.348C252.232 214.029 251.718 213.744 251.185 213.496C251.089 213.466 250.775 213.339 250.454 213.218C249.85 213.001 249.246 212.765 248.642 212.524C244.892 211.014 241.521 209.262 238.688 206.285C237.136 204.654 235.898 202.751 234.291 201.169C234.249 201.223 233.935 201.054 233.784 200.933L232.576 200.776C231.93 200.776 231.277 200.776 230.631 200.818C229.707 200.861 228.783 200.933 227.859 201.018C224.235 206.285 219.705 213.478 217.699 214.426C214.589 215.9 185.923 223.486 183.809 223.021C181.695 222.556 170.63 223.468 167.851 223.366C165.073 223.263 160.042 222.031 152.751 218.679C145.461 215.326 141.487 215.308 132.711 212.512C123.935 209.715 118.052 208.652 112.918 212.953C107.784 217.253 93.6802 208.175 89.283 206.882C84.8859 205.59 76.4782 198.143 70.7402 201.616C65.0022 205.089 60.2306 206.744 53.0612 212.953C45.8917 219.162 31.6675 231.163 31.6675 231.163H273.871L271.087 226.301C268.433 226.139 265.839 225.449 263.456 224.269C261.073 223.09 258.951 221.446 257.213 219.434Z" fill="#F5F5F5"/>
<path d="M26.0806 160.06C26.0806 160.06 33.1292 147.377 52.2277 136.432C52.2277 136.432 67.7747 135.109 85.3269 142.762C85.3269 142.762 88.8845 148.669 84.8377 151C80.7909 153.332 77.4387 148.645 77.4387 148.645C77.4387 148.645 76.6897 155.784 71.3987 155.99C66.1076 156.195 64.5735 151 64.5735 151C64.5735 151 64.054 157.554 57.7543 159.209C52.3062 160.664 48.9238 155.99 48.9238 155.99C48.9238 155.99 47.8366 161.377 42.9382 162.929C39.0001 164.174 36.2942 160.785 36.2942 160.785C36.2942 160.785 35.1647 166.632 30.985 166.632C27.3912 166.632 26.0806 160.06 26.0806 160.06Z" fill="#E0E0E0"/>
<path d="M151 258.246C215.678 258.246 268.11 255.185 268.11 251.409C268.11 247.633 215.678 244.572 151 244.572C86.3224 244.572 33.8906 247.633 33.8906 251.409C33.8906 255.185 86.3224 258.246 151 258.246Z" fill="#F5F5F5"/>
<path d="M231.936 221.614C231.936 221.614 234.563 217.766 236.955 216.691C239.347 215.616 239.734 211.527 241.032 211.303C242.331 211.08 243.762 214.849 246.033 215.948C248.304 217.048 251.741 221.59 251.741 221.59L231.936 221.614Z" fill="#3FA654"/>
<path opacity="0.8" d="M231.936 221.614C231.936 221.614 234.563 217.766 236.955 216.691C239.347 215.616 239.734 211.527 241.032 211.303C242.331 211.08 243.762 214.849 246.033 215.948C248.304 217.048 251.741 221.59 251.741 221.59L231.936 221.614Z" fill="white"/>
<path d="M251.035 249.313H231.924L229.508 221.589H253.451L251.035 249.313Z" fill="#3FA654"/>
<path d="M254.604 220.152H228.348V223.069H254.604V220.152Z" fill="#3FA654"/>
<path opacity="0.2" d="M254.604 220.152H228.348V223.069H254.604V220.152Z" fill="white"/>
<path d="M240.35 222.206C242.089 224.936 249.537 236.201 254.151 237.022L254.719 235.657C254.719 235.657 250.588 236.152 241.431 221.517C241.344 221.375 241.207 221.272 241.046 221.228C240.885 221.184 240.714 221.204 240.567 221.282C240.49 221.326 240.422 221.385 240.369 221.457C240.315 221.528 240.277 221.61 240.256 221.696C240.236 221.783 240.234 221.873 240.25 221.961C240.266 222.049 240.3 222.132 240.35 222.206Z" fill="#263238"/>
<path d="M213.158 213.46C213.354 213.398 213.56 213.376 213.765 213.395C213.97 213.414 214.169 213.474 214.351 213.572C214.532 213.669 214.692 213.802 214.821 213.962C214.95 214.122 215.046 214.307 215.102 214.505L218.364 225.914L222.592 224.217C222.592 224.217 225.147 233.73 220.321 235.234C215.628 236.702 212.004 227.92 212.004 227.92L216.316 226.712L212.197 215.441C212.128 215.248 212.098 215.043 212.109 214.838C212.12 214.633 212.171 214.433 212.261 214.248C212.35 214.064 212.476 213.899 212.63 213.764C212.784 213.628 212.963 213.525 213.158 213.46Z" fill="#3FA654"/>
<path opacity="0.4" d="M220.339 235.234C215.628 236.701 212.004 227.919 212.004 227.919L216.316 226.711C216.316 226.711 217.059 227.98 217.893 227.666C218.726 227.352 218.388 225.896 218.388 225.896L222.616 224.199C222.616 224.199 225.165 233.748 220.339 235.234Z" fill="white"/>
<path d="M256.501 251.657C254.127 250.479 251.699 249.368 250.92 249.313C249.253 249.204 248.292 248.462 247.102 247.042C245.913 245.623 245.429 243.98 243.279 241.697C241.129 239.414 243.515 238.496 238.973 237.91C234.431 237.324 236.188 237.692 233.398 235.681C230.607 233.67 231.175 233.676 227.907 232.238C224.64 230.801 226.548 230.257 222.725 229.937C220.086 229.713 215.912 231.103 213.744 232.649C212.783 233.331 212.294 234.461 211.328 235.065C210.259 235.747 208.598 234.461 208.773 236.762C208.889 237.349 208.915 237.949 208.851 238.544C208.543 239.836 203.222 239.83 201.869 240.235C201.547 240.293 201.258 240.469 201.06 240.73C200.752 241.28 201.217 242.252 200.619 242.452C200.431 242.518 200.22 242.452 200.015 242.482C199.296 242.621 199.483 243.913 198.807 244.209C198.13 244.505 197.351 243.901 196.602 244.209C196.028 244.427 195.835 245.2 195.334 245.508C194.458 246.039 193.552 246.432 192.688 247C191.19 247.978 189.892 249.18 188.285 250.02L183.985 251.192L182.698 251.645L256.501 251.657Z" fill="#3FA654"/>
<path opacity="0.8" d="M256.501 251.657C254.127 250.479 251.699 249.368 250.92 249.313C249.253 249.204 248.292 248.462 247.102 247.042C245.913 245.623 245.429 243.98 243.279 241.697C241.129 239.414 243.515 238.496 238.973 237.91C234.431 237.324 236.188 237.692 233.398 235.681C230.607 233.67 231.175 233.676 227.907 232.238C224.64 230.801 226.548 230.257 222.725 229.937C220.086 229.713 215.912 231.103 213.744 232.649C212.783 233.331 212.294 234.461 211.328 235.065C210.259 235.747 208.598 234.461 208.773 236.762C208.889 237.349 208.915 237.949 208.851 238.544C208.543 239.836 203.222 239.83 201.869 240.235C201.547 240.293 201.258 240.469 201.06 240.73C200.752 241.28 201.217 242.252 200.619 242.452C200.431 242.518 200.22 242.452 200.015 242.482C199.296 242.621 199.483 243.913 198.807 244.209C198.13 244.505 197.351 243.901 196.602 244.209C196.028 244.427 195.835 245.2 195.334 245.508C194.458 246.039 193.552 246.432 192.688 247C191.19 247.978 189.892 249.18 188.285 250.02L183.985 251.192L182.698 251.645L256.501 251.657Z" fill="white"/>
<path d="M205.813 240.664C205.816 240.708 205.816 240.752 205.813 240.797C205.795 242.842 205.201 244.842 204.098 246.565C204.007 246.704 203.917 246.843 203.814 246.982C203.18 247.882 202.414 248.682 201.543 249.355C201.349 249.513 201.148 249.66 200.939 249.796C200.891 249.833 200.841 249.865 200.788 249.893L200.589 250.02C200.485 250.09 200.379 250.154 200.268 250.213C200.099 250.31 199.924 250.406 199.749 250.491C197.646 251.55 195.258 251.903 192.939 251.498C190.619 251.093 188.492 249.952 186.872 248.244C186.133 247.481 185.512 246.611 185.03 245.665C184.234 244.116 183.819 242.399 183.822 240.658V240.621C183.822 240.313 183.822 240.017 183.864 239.703C183.982 238.287 184.378 236.908 185.03 235.645C185.19 235.327 185.367 235.019 185.561 234.72C186.194 233.739 186.977 232.863 187.88 232.123C188.167 231.888 188.468 231.671 188.78 231.471C188.889 231.393 189.002 231.32 189.119 231.253C189.983 230.722 190.918 230.315 191.897 230.045L192.151 229.979C193.024 229.762 193.921 229.653 194.82 229.653C195.102 229.653 195.38 229.665 195.654 229.689H195.865C197.087 229.805 198.279 230.128 199.393 230.643L199.532 230.71C201.185 231.492 202.616 232.676 203.695 234.153C204.775 235.63 205.467 237.353 205.71 239.166C205.781 239.662 205.816 240.163 205.813 240.664Z" fill="#3FA654"/>
<path opacity="0.6" d="M205.813 240.664C205.815 242.707 205.246 244.711 204.17 246.448C203.095 248.186 201.555 249.588 199.725 250.497C199.474 250.294 199.268 250.041 199.121 249.754C201.15 243.835 199.121 240.664 199.121 240.664V240.604L199.266 239.655V239.48C199.58 237.722 200.371 234.431 202.086 232.438C203.256 233.466 204.193 234.731 204.835 236.15C205.478 237.568 205.811 239.107 205.813 240.664Z" fill="white"/>
<path opacity="0.6" d="M186.388 238.761C186.388 238.761 184.462 240.688 185.029 245.671C183.881 243.429 183.538 240.86 184.057 238.395C184.576 235.93 185.925 233.718 187.88 232.129C186.814 234.173 186.3 236.458 186.388 238.761Z" fill="white"/>
<path opacity="0.2" d="M202.117 232.438C199.701 235.24 199.097 240.664 199.097 240.664C192.453 242.289 186.37 238.762 186.37 238.762C186.282 236.455 186.796 234.165 187.862 232.118C189.886 230.471 192.429 229.598 195.037 229.655C197.645 229.711 200.148 230.693 202.099 232.426L202.117 232.438Z" fill="white"/>
<path opacity="0.2" d="M199.719 250.497C197.619 251.548 195.236 251.896 192.923 251.491C190.61 251.085 188.489 249.947 186.872 248.244C188.931 249.452 193.141 251.186 199.115 249.748C199.261 250.037 199.467 250.293 199.719 250.497Z" fill="white"/>
<g opacity="0.2">
<path opacity="0.2" d="M199.538 230.728C199.25 231.131 198.986 231.551 198.747 231.984C198.3 232.817 197.914 233.681 197.593 234.569C197.255 235.457 196.989 236.381 196.747 237.281C196.506 238.181 196.3 239.13 196.143 240.066C196.207 239.113 196.34 238.166 196.542 237.233C196.746 236.296 197.009 235.372 197.327 234.467C197.656 233.569 198.06 232.7 198.535 231.87C198.798 231.451 199.085 231.048 199.393 230.662L199.538 230.728Z" fill="#333333"/>
<path opacity="0.2" d="M195.865 229.713C195.714 229.985 195.575 230.263 195.442 230.541C194.999 231.478 194.633 232.449 194.349 233.446C194.029 234.437 193.787 235.451 193.558 236.466C193.328 237.481 193.135 238.507 192.954 239.534C193.015 238.489 193.14 237.448 193.328 236.418C193.509 235.385 193.751 234.365 194.053 233.361C194.354 232.351 194.749 231.37 195.231 230.432C195.364 230.184 195.503 229.937 195.648 229.701L195.865 229.713Z" fill="#333333"/>
<path opacity="0.2" d="M192.15 229.991L191.963 230.48C191.63 231.377 191.358 232.295 191.148 233.229C190.912 234.159 190.731 235.101 190.544 236.049C190.357 236.998 190.224 237.946 190.085 238.9C190.106 237.934 190.185 236.97 190.32 236.013C190.452 235.048 190.634 234.09 190.864 233.144C191.085 232.198 191.382 231.27 191.752 230.372C191.8 230.263 191.848 230.148 191.903 230.04L192.15 229.991Z" fill="#333333"/>
<path opacity="0.2" d="M189.119 231.259C188.913 231.936 188.72 232.612 188.581 233.301C188.442 233.989 188.279 234.847 188.158 235.626C188.037 236.405 187.953 237.191 187.88 237.982C187.839 237.188 187.855 236.393 187.929 235.602C188.005 234.809 188.124 234.021 188.285 233.24C188.42 232.644 188.585 232.056 188.78 231.477C188.889 231.399 189.002 231.326 189.119 231.259Z" fill="#333333"/>
<path opacity="0.2" d="M202.207 244.33C202.239 245.468 202.09 246.603 201.766 247.694C201.605 248.238 201.403 248.769 201.162 249.283C201.084 249.458 200.993 249.633 200.903 249.802C200.855 249.839 200.805 249.871 200.752 249.899C201.082 249.17 201.343 248.412 201.531 247.634C201.814 246.558 201.936 245.447 201.893 244.336C201.876 243.225 201.705 242.121 201.386 241.056C201.073 239.98 200.626 238.947 200.057 237.982C200.732 238.899 201.254 239.919 201.603 241.002C201.971 242.075 202.175 243.197 202.207 244.33Z" fill="#333333"/>
<path opacity="0.2" d="M204.375 244.016L204.345 244.928L204.218 245.834C204.191 246.08 204.149 246.324 204.092 246.565C204.001 246.704 203.91 246.843 203.808 246.981C203.898 246.594 203.958 246.2 203.989 245.804L204.08 244.91V244.016C204.101 243.716 204.101 243.415 204.08 243.116C204.049 242.82 204.049 242.512 203.995 242.228C203.857 241.039 203.558 239.875 203.107 238.767C202.671 237.647 202.073 236.597 201.331 235.65C202.167 236.532 202.84 237.554 203.318 238.67C203.812 239.789 204.142 240.973 204.297 242.186C204.345 242.488 204.339 242.79 204.363 243.098C204.389 243.403 204.393 243.71 204.375 244.016Z" fill="#333333"/>
<path opacity="0.2" d="M205.813 240.664C205.816 240.708 205.816 240.752 205.813 240.797L205.777 240.591C205.52 239.34 205.114 238.123 204.569 236.967C204.034 235.797 203.33 234.713 202.479 233.748C203.419 234.646 204.195 235.701 204.774 236.865C205.158 237.619 205.477 238.405 205.728 239.214C205.791 239.695 205.819 240.179 205.813 240.664Z" fill="#333333"/>
<path opacity="0.2" d="M185.851 237.021C185.366 237.573 184.95 238.181 184.613 238.833C184.299 239.414 184.034 240.02 183.822 240.645C183.822 240.337 183.822 240.041 183.864 239.727C184.025 239.378 184.209 239.039 184.413 238.713C184.79 238.069 185.277 237.497 185.851 237.021Z" fill="#333333"/>
<path opacity="0.2" d="M186.37 234.098C185.911 234.618 185.464 235.131 185.03 235.65C185.19 235.333 185.367 235.025 185.561 234.726C185.819 234.502 186.089 234.292 186.37 234.098Z" fill="#333333"/>
<path opacity="0.2" d="M186.37 241.093C187.373 241.479 188.387 241.818 189.39 242.12C190.415 242.423 191.455 242.671 192.507 242.862C194.6 243.314 196.768 243.287 198.849 242.784C197.836 243.164 196.765 243.368 195.684 243.388C194.601 243.409 193.519 243.324 192.452 243.134C191.392 242.934 190.346 242.659 189.324 242.313C188.31 241.981 187.322 241.574 186.37 241.093Z" fill="#333333"/>
<path opacity="0.2" d="M186.37 243.72C187.379 244.121 188.412 244.46 189.463 244.735C190.51 245.011 191.576 245.213 192.652 245.339C193.724 245.486 194.808 245.536 195.889 245.49L196.699 245.454L197.508 245.357C198.051 245.321 198.571 245.164 199.115 245.085C198.073 245.429 196.994 245.644 195.901 245.725C194.806 245.803 193.705 245.775 192.615 245.641C191.528 245.497 190.453 245.267 189.402 244.952C188.354 244.64 187.339 244.228 186.37 243.72Z" fill="#333333"/>
<path opacity="0.2" d="M186.636 245.991C187.586 246.434 188.57 246.801 189.577 247.091C190.581 247.378 191.608 247.58 192.646 247.695C193.165 247.779 193.685 247.791 194.204 247.827C194.724 247.864 195.249 247.827 195.774 247.797C196.82 247.738 197.859 247.589 198.879 247.35C197.882 247.701 196.845 247.93 195.793 248.033C194.734 248.138 193.666 248.126 192.61 247.997C191.556 247.866 190.518 247.632 189.511 247.296C188.506 246.973 187.541 246.535 186.636 245.991Z" fill="#333333"/>
<path opacity="0.2" d="M187.089 247.7C187.986 248.115 188.912 248.46 189.861 248.733C190.805 249.015 191.771 249.217 192.749 249.337C193.724 249.482 194.712 249.52 195.696 249.452L196.433 249.397L197.158 249.277C197.653 249.228 198.118 249.059 198.607 248.963C197.681 249.337 196.707 249.581 195.714 249.687C194.711 249.807 193.697 249.807 192.694 249.687C191.702 249.561 190.725 249.336 189.777 249.017C188.833 248.684 187.931 248.242 187.089 247.7Z" fill="#333333"/>
</g>
<path d="M68.7292 223.383C68.7292 223.383 70.8795 220.152 74.7028 219.916C78.5261 219.681 81.7515 224.555 81.7515 224.555H80.5435C80.5435 224.555 77.457 221.227 75.2464 221.227C73.0358 221.227 70.8855 223.975 70.8855 223.975L68.7292 223.383Z" fill="#263238"/>
<path d="M36.2883 248.884C37.6111 246.68 52.4272 248.111 55.7734 246.794L57.5854 249.905C57.5854 249.905 55.0304 251.318 50.7904 250.817C46.5503 250.316 40.1418 250.183 38.4688 251.657L36.2883 248.884Z" fill="#263238"/>
<path opacity="0.3" d="M36.2883 248.884C37.6111 246.68 52.4272 248.111 55.7734 246.794L57.5854 249.905C57.5854 249.905 55.0304 251.318 50.7904 250.817C46.5503 250.316 40.1418 250.183 38.4688 251.657L36.2883 248.884Z" fill="#333333"/>
<path d="M98.6939 242.162C98.5731 242.687 98.4402 243.201 98.2892 243.702C97.0812 247.815 95.2209 251.143 93.8679 251.657H55.4596C54.9314 251.657 54.4103 251.536 53.936 251.304C53.4617 251.071 53.047 250.733 52.7234 250.316L52.6932 250.274C52.5514 250.087 52.4318 249.884 52.3369 249.67C49.6853 244.131 47.0096 233.054 50.7725 228.004C51.1661 227.478 51.6202 226.999 52.1255 226.579L52.2342 226.494C53.0312 225.844 53.9131 225.306 54.8556 224.894H54.8858C57.5313 223.686 60.7808 223.148 63.9458 222.913C64.8699 222.84 65.7578 222.798 66.6879 222.78C69.0435 222.713 71.2421 222.78 72.9937 222.822C79.1666 222.979 84.0227 224.815 87.3326 224.495C88.5482 224.368 89.7768 224.466 90.9566 224.785C91.2964 224.88 91.6311 224.993 91.9593 225.123C93.4656 225.76 94.8666 226.621 96.1148 227.678C99.8959 230.68 99.9502 236.835 98.6939 242.162Z" fill="#263238"/>
<path opacity="0.1" d="M98.6939 242.162C98.5731 242.687 98.4402 243.201 98.2892 243.702C97.0812 247.815 95.2209 251.143 93.8679 251.657H55.4596C54.9314 251.657 54.4103 251.536 53.936 251.304C53.4617 251.071 53.047 250.733 52.7234 250.316L52.6932 250.274C52.5514 250.087 52.4318 249.884 52.3369 249.67C49.6853 244.131 47.0096 233.054 50.7725 228.004C51.1661 227.478 51.6202 226.999 52.1255 226.579L52.2342 226.494C53.0312 225.844 53.9131 225.306 54.8556 224.894H54.8858C57.5313 223.686 60.7808 223.148 63.9458 222.913C64.8699 222.84 65.7578 222.798 66.6879 222.78C69.0435 222.713 71.2421 222.78 72.9937 222.822C79.1666 222.979 84.0227 224.815 87.3326 224.495C88.5482 224.368 89.7768 224.466 90.9566 224.785C91.2964 224.88 91.6311 224.993 91.9593 225.123C93.4656 225.76 94.8666 226.621 96.1148 227.678C99.8959 230.68 99.9502 236.835 98.6939 242.162Z" fill="white"/>
<path opacity="0.2" d="M92.8109 241.781C90.0627 241.781 84.5663 243.092 76.4425 241.304C72.6549 240.404 68.7125 240.375 64.9122 241.219C64.8216 240.011 64.7249 238.664 64.6162 237.203C63.8974 227.388 58.2984 223.268 54.8858 224.899H54.8556C53.9296 225.342 53.0513 225.879 52.2342 226.5L52.1255 226.584C51.6202 227.005 51.1661 227.483 50.7725 228.01C47.0096 233.059 49.6853 244.137 52.3369 249.675C52.4318 249.89 52.5514 250.093 52.6932 250.279L52.7234 250.322C53.0499 250.692 53.4514 250.988 53.9013 251.191C54.3512 251.394 54.8391 251.499 55.3327 251.499H62.2123C65.0209 251.499 65.3531 248.926 65.039 243.4C65.5162 243.128 66.102 242.796 66.7544 242.349C68.4637 241.237 75.1137 241.787 77.9827 242.862C80.8517 243.937 88.3776 244.415 92.0197 243.823C94.0919 243.515 96.1951 243.477 98.2771 243.708C98.4281 243.207 98.561 242.693 98.6818 242.168C97.4376 242.029 94.8283 241.781 92.8109 241.781Z" fill="#333333"/>
<path opacity="0.2" d="M67.8411 227.92C69.5142 234.014 70.6618 236.164 71.1027 236.762C71.5436 237.36 83.7082 238.804 85.9913 238.798C88.6265 238.775 91.2542 238.516 93.8433 238.025C95.3956 237.632 95.8969 229.816 91.983 225.129C91.6548 224.999 91.3202 224.886 90.9804 224.791C93.1125 229.575 93.1608 235.433 92.9071 236.267C92.5447 237.427 88.963 237.257 87.2899 237.221C85.6168 237.185 75.2099 236.539 74.1469 236.116C73.1204 235.69 72.2467 234.963 71.6403 234.032C70.8007 232.957 70.6859 229.254 69.1699 226.059C68.5264 224.845 67.6877 223.746 66.6875 222.804C65.7875 222.804 64.8755 222.864 63.9453 222.937C64.9005 223.457 65.7389 224.168 66.4089 225.025C67.0789 225.882 67.5664 226.867 67.8411 227.92Z" fill="#333333"/>
<path d="M55.7734 233.531L52.4272 234.352C52.4272 234.352 50.0535 241.165 51.4729 244.016C52.8923 246.867 41.8089 250.835 36.2883 248.848L38.4506 251.621C38.4506 251.621 51.5937 250.793 54.1003 245.792C56.6069 240.791 53.0252 240.018 52.7896 238.61C52.554 237.203 55.7734 233.531 55.7734 233.531Z" fill="#263238"/>
<path opacity="0.1" d="M55.7734 233.531L52.4272 234.352C52.4272 234.352 50.0535 241.165 51.4729 244.016C52.8923 246.867 41.8089 250.835 36.2883 248.848L38.4506 251.621C38.4506 251.621 51.5937 250.793 54.1003 245.792C56.6069 240.791 53.0252 240.018 52.7896 238.61C52.554 237.203 55.7734 233.531 55.7734 233.531Z" fill="white"/>
<path d="M85.3268 93.0161C85.3268 93.0161 72.4012 85.7681 69.7255 83.9078C67.0498 82.0475 52.735 67.9924 51.9377 67.5998C51.9377 67.5998 52.4692 65.9931 51.2673 65.0569C50.0653 64.1207 45.3783 61.0464 44.7139 61.0464C44.0495 61.0464 42.2979 67.5998 42.5697 69.2064C42.8415 70.8131 49.3949 71.2117 49.3949 71.2117C49.3949 71.2117 63.0392 87.0969 65.1774 89.3317C67.3155 91.5665 81.8961 101.055 81.8961 101.055L85.3268 93.0161Z" fill="#EBB376"/>
<path d="M90.63 94.3509C90.63 94.3509 93.4627 100.071 86.5832 109.155L71.4167 98.0051L77.4568 87.0425L90.63 94.3509Z" fill="#3FA654"/>
<path opacity="0.6" d="M86.5832 109.155L79.4198 103.888L78.4836 103.199L74.4428 100.264L71.4229 98.0353L73.6516 94.0066L74.8958 91.6872L77.4628 87.0425L79.9392 88.4196L82.0774 89.6276L90.618 94.375C90.8984 95.0381 91.0717 95.7414 91.1314 96.4588C91.4152 98.8688 91.0045 103.314 86.5832 109.155Z" fill="white"/>
<path opacity="0.2" d="M86.5831 109.155L79.4197 103.888C81.878 98.8022 88.2381 97.0084 91.1433 96.4346C91.4151 98.8687 91.0044 103.314 86.5831 109.155Z" fill="#333333"/>
<g opacity="0.2">
<path opacity="0.2" d="M82.0896 89.6033L79.9514 90.8475V88.4194L82.0896 89.6033Z" fill="white"/>
<path opacity="0.2" d="M77.4386 92.436L74.7569 96.1989L73.6455 93.9762L74.9079 91.687L77.4386 92.436Z" fill="white"/>
<path opacity="0.2" d="M79.4198 98.0957L78.4836 103.2L74.4429 100.234L79.4198 98.0957Z" fill="white"/>
<path opacity="0.2" d="M81.2742 95.1841L82.766 99.0074L85.8645 94.7915L81.2742 95.1841Z" fill="white"/>
</g>
<path d="M118.819 91.645C118.819 91.645 131.744 84.397 134.42 82.5367C137.096 80.6764 151.41 66.6213 152.214 66.2287C152.214 66.2287 151.676 64.6221 152.878 63.6859C154.08 62.7497 158.767 59.6753 159.432 59.6753C160.096 59.6753 161.848 66.2287 161.576 67.8353C161.304 69.442 154.751 69.8406 154.751 69.8406C154.751 69.8406 141.106 85.7319 138.968 87.9606C136.83 90.1894 122.249 99.6601 122.249 99.6601L118.819 91.645Z" fill="#EBB376"/>
<path d="M103.374 168.184C103.374 168.184 103.096 172.744 102.68 178.845C102.402 182.638 102.076 187.017 101.683 191.251C101.176 196.941 100.602 202.364 100.028 205.747C99.5025 208.845 92.5263 247.326 92.5263 247.326H87.8513C89.3251 211.443 91.6082 197.526 91.6928 195.437C91.6928 194.754 91.7471 193.806 91.7773 192.676C91.8679 188.581 91.9464 182.112 91.9948 177.407C92.031 174.013 92.0491 171.542 92.0491 171.542L103.374 168.184Z" fill="#EBB376"/>
<path d="M121.404 197.218C121.24 200.353 119.374 247.157 119.374 247.157H114.234C111.607 209.878 112.603 196.934 112.132 194.349C111.329 189.952 110.574 184.172 110.054 179.853C109.638 176.405 109.378 173.922 109.378 173.922L119.857 169.392C119.857 169.392 120.492 174.828 120.969 181.339C121.204 184.601 121.41 188.146 121.47 191.444C121.518 193.51 121.506 195.479 121.404 197.218Z" fill="#EBB376"/>
<path opacity="0.2" d="M91.9709 177.395L102.68 178.845C102.402 182.638 102.076 187.017 101.683 191.251L91.7534 192.676C91.844 188.569 91.9225 182.1 91.9709 177.395Z" fill="#333333"/>
<path opacity="0.2" d="M121.476 191.468L112.138 194.343C111.335 189.946 110.58 184.166 110.061 179.847L120.975 181.333C121.21 184.601 121.404 188.146 121.476 191.468Z" fill="#333333"/>
<path d="M93.6195 245.876H87.4406C87.3394 245.878 87.2416 245.913 87.1627 245.977C87.0839 246.04 87.0286 246.128 87.0057 246.227L86.0091 250.745C85.9678 250.939 86.0051 251.141 86.1126 251.307C86.2202 251.474 86.3893 251.591 86.5829 251.633C86.6391 251.639 86.6958 251.639 86.752 251.633C88.7452 251.602 90.2009 251.476 92.7014 251.476C94.2477 251.476 98.9045 251.639 101.031 251.639C103.157 251.639 103.447 249.537 102.571 249.337C98.6569 248.486 95.7093 247.308 94.4591 246.184C94.2289 245.978 93.9284 245.868 93.6195 245.876Z" fill="#3FA654"/>
<path d="M119.761 245.719H113.594C113.493 245.718 113.395 245.752 113.316 245.814C113.237 245.877 113.181 245.965 113.159 246.063L112.157 250.587C112.137 250.685 112.138 250.786 112.158 250.884C112.178 250.982 112.217 251.075 112.273 251.157C112.33 251.24 112.402 251.311 112.485 251.365C112.569 251.42 112.662 251.457 112.761 251.475H112.924C114.923 251.445 116.373 251.324 118.879 251.324C120.419 251.324 125.076 251.481 127.208 251.481C129.341 251.481 129.624 249.379 128.743 249.186C124.829 248.334 121.887 247.151 120.637 246.027C120.518 245.921 120.38 245.839 120.23 245.786C120.079 245.733 119.92 245.71 119.761 245.719Z" fill="#3FA654"/>
<path d="M103.797 188.611C103.846 188.2 103.894 187.771 103.942 187.288C104.546 181.103 105.205 173.68 105.754 166.529C107.838 172.134 108.738 180.016 109.825 188.611H122.509C121.458 166.366 118.704 148.27 117.242 140.551H90.3402C90.3039 143.317 89.9959 170.147 89.3013 188.611H103.797Z" fill="#263238"/>
<path opacity="0.2" d="M103.797 188.611C103.846 188.2 103.894 187.771 103.942 187.288C104.546 181.103 105.205 173.68 105.754 166.529C107.838 172.134 108.738 180.016 109.825 188.611H122.509C121.458 166.366 118.704 148.27 117.242 140.551H90.3402C90.3039 143.317 89.9959 170.147 89.3013 188.611H103.797Z" fill="white"/>
<path d="M107.512 85.46C107.453 85.7035 107.381 85.9434 107.295 86.1787C106.813 87.5218 105.938 88.6882 104.782 89.5249C104.491 89.7381 104.184 89.9279 103.864 90.0926C102.639 90.7478 101.233 90.9844 99.8615 90.7663C98.4897 90.5482 97.2268 89.8874 96.2655 88.8846C93.7227 86.3176 93.7891 83.352 93.4992 78.3328C93.4226 77.2542 93.5983 76.1726 94.0126 75.1739C94.3591 74.3401 94.8664 73.5828 95.5056 72.9451C96.1449 72.3075 96.9034 71.8021 97.7381 71.4577C98.5727 71.1133 99.467 70.9367 100.37 70.938C101.273 70.9393 102.167 71.1185 103 71.4653C107.905 73.4706 108.581 80.936 107.512 85.46Z" fill="#EBB376"/>
<path opacity="0.2" d="M104.764 89.5249C104.473 89.738 104.166 89.9279 103.845 90.0926C103.004 90.541 102.074 90.7955 101.122 90.8373C100.169 90.8791 99.2201 90.7072 98.343 90.3342C98.5702 89.7309 98.8726 89.1586 99.243 88.6309C101.131 88.3942 103.047 88.7045 104.764 89.5249Z" fill="#333333"/>
<path d="M94.6587 96.0361C97.1351 98.283 103.193 97.4556 103.193 97.4556C103.193 97.4556 106.974 96.4167 106.177 95.2389C103.954 94.8704 102.873 93.8315 102.426 92.4967C102.185 91.6721 102.109 90.8079 102.203 89.9539C102.238 89.4776 102.301 89.0037 102.39 88.5345L94.9003 82.9897C95.8788 86.65 97.0807 93.3846 94.6587 96.0361Z" fill="#EBB376"/>
<path d="M104.764 80.8936L105.845 81.2983L105.307 79.0877C105.307 79.0877 106.89 76.6717 105.307 74.5758C105.307 74.5758 109.68 73.247 107.21 70.9518C106.292 70.0941 105.15 70.9518 102.13 69.6411C100.493 68.9224 95.3713 68.868 95.1176 70.9518C95.1176 70.9518 91.4272 70.9518 91.0286 77.2334C90.912 79.0738 91.2017 80.9173 91.877 82.6333C92.5523 84.3493 93.5968 85.8958 94.9364 87.1632C94.9364 87.1632 99.3939 88.2141 101.58 86.4263C103.767 84.6384 104.764 80.8936 104.764 80.8936Z" fill="#263238"/>
<path d="M101.913 81.2499C102.007 81.7222 102.205 82.1674 102.494 82.553C102.782 82.9386 103.153 83.2549 103.58 83.4787C104.6 83.9136 105.277 82.476 105.126 80.966C104.987 79.6252 104.292 77.7407 103.199 77.9944C102.106 78.248 101.556 79.897 101.913 81.2499Z" fill="#EBB376"/>
<path opacity="0.2" d="M105.778 166.499C105.205 173.65 104.57 181.092 103.966 187.277C103.048 178.343 101.925 171.977 101.925 171.977C101.925 171.977 100.874 171.114 97.9807 166.499C95.0875 161.884 97.9807 153.259 97.9807 153.259C97.8478 161.268 105.778 166.499 105.778 166.499Z" fill="#333333"/>
<path d="M123.445 187.566L122.889 189.662H109.384V187.723L123.445 187.566Z" fill="#3FA654"/>
<path d="M104.449 187.856L104.045 189.795H88.7515L87.8274 187.856H104.449Z" fill="#3FA654"/>
<path d="M106.334 94.5804C106.334 94.5804 104.135 91.1074 98.5967 90.8597C93.0581 90.6121 92.6353 94.4233 92.6353 94.4233L106.334 94.5804Z" fill="#3FA654"/>
<path opacity="0.5" d="M106.334 94.5804C106.334 94.5804 104.135 91.1074 98.5967 90.8597C93.0581 90.6121 92.6353 94.4233 92.6353 94.4233L106.334 94.5804Z" fill="white"/>
<path d="M86.4443 92.4121C88.115 111.216 87.9127 130.14 85.8403 148.904L118.293 146.923C117.931 113.806 113.491 92.9436 113.491 92.9436C113.491 92.9436 105.126 94.7013 98.319 94.4476C94.2921 94.2606 90.3036 93.5769 86.4443 92.4121Z" fill="#3FA654"/>
<path d="M113.516 92.9678C113.516 92.9678 117.852 103.103 118.317 113.359C118.782 123.615 100.705 137.712 100.705 137.712C100.705 137.712 86.7704 128.121 76.0192 128.99C65.268 129.86 61.9219 133.683 61.9219 133.683C61.9219 133.683 70.2812 115.799 84.8376 109.566C84.8376 109.566 81.8176 99.2676 86.4443 92.4605C86.4443 92.4122 96.5069 95.71 113.516 92.9678Z" fill="#3FA654"/>
<path opacity="0.6" d="M118.317 113.359C118.332 113.649 118.332 113.939 118.317 114.229C118.292 114.677 118.238 115.123 118.154 115.563C117.957 116.601 117.647 117.614 117.23 118.583C115.939 121.422 114.256 124.065 112.229 126.435C111.202 127.692 110.115 128.9 109.04 130.023C106.436 132.769 103.651 135.338 100.705 137.712C97.0451 135.29 93.1544 133.236 89.0897 131.582C87.8515 131.086 86.565 130.621 85.2543 130.229C82.2776 129.265 79.1495 128.856 76.0252 129.021C73.043 129.219 70.0981 129.795 67.2611 130.736C66.7719 130.905 66.3189 131.086 65.9021 131.261L65.5276 131.424C64.6199 131.818 63.7538 132.302 62.9425 132.868C62.8519 132.928 62.7674 132.995 62.6888 133.055C62.6103 133.116 62.405 133.273 62.2962 133.369L62.1513 133.496C62.1143 133.525 62.0799 133.558 62.0486 133.593L61.9761 133.665L61.9338 133.708C61.9338 133.677 62.0063 133.551 62.115 133.333L62.2842 133.001C62.4533 132.663 62.6888 132.21 62.9969 131.66L63.1298 131.418L63.3653 131.002C63.4438 130.857 63.5284 130.706 63.619 130.555C63.9693 129.951 64.38 129.25 64.827 128.507C67.3098 124.49 70.2487 120.772 73.585 117.43C74.7745 116.247 76.0331 115.136 77.354 114.102C79.637 112.285 82.1465 110.772 84.8194 109.602C84.1265 106.95 83.8113 104.213 83.8832 101.472C83.9008 100.609 83.9714 99.7476 84.0946 98.893C84.3716 96.5814 85.1754 94.3642 86.4442 92.4121C87.9284 92.8436 89.4425 93.1646 90.9742 93.3725C92.9757 93.6778 94.9918 93.8794 97.0142 93.9765C101.082 94.1586 105.158 94.0152 109.203 93.5476C110.58 93.3986 112.011 93.1973 113.497 92.9436L113.636 93.2819C114.597 95.6931 115.426 98.1551 116.119 100.657C116.384 101.617 116.65 102.644 116.904 103.719C117.158 104.794 117.351 105.754 117.544 106.824C117.944 108.983 118.202 111.166 118.317 113.359Z" fill="white"/>
<g opacity="0.2">
<path opacity="0.2" d="M114.156 121.591L112.247 126.472C111.22 127.728 110.133 128.936 109.058 130.059L105.174 122.811L114.156 121.591Z" fill="white"/>
<path opacity="0.2" d="M81.2743 116.929L73.6035 117.37C74.793 116.187 76.0516 115.075 77.3725 114.042L81.2743 116.929Z" fill="white"/>
<path opacity="0.2" d="M90.1227 97.6064L89.3012 105.579L83.8652 101.466C83.8829 100.603 83.9535 99.7415 84.0766 98.8869L90.1227 97.6064Z" fill="white"/>
<path opacity="0.2" d="M92.6352 118.614L90.1226 110.955L97.7632 109.542L92.6352 118.614Z" fill="white"/>
<path opacity="0.2" d="M105.778 111.317V117.049L111.263 115.08L105.778 111.317Z" fill="white"/>
<path opacity="0.2" d="M91.6687 127.921L89.0896 131.545C87.8514 131.05 86.5649 130.585 85.2542 130.192L83.3093 125.759L91.6687 127.921Z" fill="white"/>
<path opacity="0.2" d="M72.0752 122.425L76.0193 124.098L72.0752 126.786V122.425Z" fill="white"/>
<path opacity="0.2" d="M67.2552 130.681C63.3292 132.052 61.9219 133.659 61.9219 133.659C62.7984 131.872 63.7723 130.133 64.8392 128.453L67.2552 130.681Z" fill="white"/>
<path opacity="0.2" d="M99.4848 123.265L96.0903 126.786L101.224 127.686L99.4848 123.265Z" fill="white"/>
<path opacity="0.2" d="M99.4849 101.158L103.477 106.534L106.334 100.445L99.4849 101.158Z" fill="white"/>
<path opacity="0.2" d="M117.563 106.847L112.459 103.489L116.137 100.681C116.657 102.541 117.176 104.637 117.563 106.847Z" fill="white"/>
<path opacity="0.2" d="M118.311 114.229C118.201 115.739 117.833 117.221 117.224 118.608L115.086 113.347L118.311 114.229Z" fill="white"/>
<path opacity="0.2" d="M113.655 93.306L110.423 96.6401L109.215 93.5718C110.592 93.4228 112.024 93.2215 113.51 92.9678L113.655 93.306Z" fill="white"/>
<path opacity="0.2" d="M97.0322 93.9824L94.6585 99.0076L90.9741 93.3965C92.982 93.6963 95.0041 93.8919 97.0322 93.9824Z" fill="white"/>
</g>
<path opacity="0.2" d="M118.317 113.359C118.332 113.649 118.332 113.939 118.317 114.229C118.292 114.677 118.238 115.123 118.154 115.563C113.926 108.859 114.929 102.795 114.929 102.795L116.928 103.743C117.157 104.74 117.375 105.779 117.568 106.848C117.958 109 118.209 111.175 118.317 113.359Z" fill="#333333"/>
<path d="M101.188 66.277C108.357 63.8066 110.157 73.3558 103.036 79.8126C95.915 86.2694 87.7369 87.0606 86.8067 83.7869C85.8765 80.5132 90.2435 70.064 101.188 66.277Z" fill="#3FA654"/>
<path d="M94.0061 65.7939C97.6845 65.7939 102.909 69.5387 102.909 69.5387C102.909 69.5387 103.658 73.5251 99.9917 77.0283C96.3255 80.5315 93.0155 81.0872 90.974 79.7282C88.9325 78.3692 88.3647 73.0842 88.3647 73.0842C88.5509 72.4591 88.8853 71.8882 89.3397 71.4202C89.794 70.9522 90.3547 70.601 90.974 70.3964C90.974 70.3964 91.578 65.8362 94.0061 65.7939Z" fill="#3FA654"/>
<path opacity="0.2" d="M99.9917 77.0283C96.3255 80.5315 93.0276 81.0872 90.974 79.7342C90.6161 79.483 90.3122 79.1626 90.0801 78.792C88.7513 76.7927 88.3647 73.1023 88.3647 73.1023C91.8679 77.3303 95.9268 72.9634 96.4885 70.0159C96.6549 69.3158 96.6569 68.5867 96.4945 67.8856C96.3321 67.1846 96.0096 66.5307 95.5523 65.9751C97.9683 66.4945 100.614 68.0408 101.979 68.9166C102.583 69.285 102.909 69.5206 102.909 69.5206C102.909 69.5206 103.658 73.5251 99.9917 77.0283Z" fill="#333333"/>
<path opacity="0.6" d="M99.992 77.0282C96.3257 80.5314 93.0278 81.0871 90.9742 79.7341C90.6163 79.4829 90.3124 79.1625 90.0803 78.7919C93.7526 79.8852 98.1256 78.0671 100.475 74.7995C101.721 73.108 102.26 70.9984 101.979 68.9165C102.583 69.2849 102.909 69.5205 102.909 69.5205C102.909 69.5205 103.658 73.525 99.992 77.0282Z" fill="white"/>
<path d="M113.516 92.9675C113.516 92.9675 110.683 98.6934 117.563 107.772L132.729 96.6398L126.689 85.6772L113.516 92.9675Z" fill="#3FA654"/>
<path opacity="0.6" d="M132.729 96.6399L128.773 99.5451L122.92 103.852L117.562 107.79C117.212 107.331 116.892 106.878 116.59 106.437C115.976 105.538 115.42 104.602 114.923 103.634C113.698 101.386 113.021 98.8794 112.948 96.3198C112.907 95.172 113.113 94.0288 113.552 92.9676L116.922 91.0952L122.726 87.8759L125.275 86.4565L126.713 85.6592L132.729 96.6399Z" fill="white"/>
<g opacity="0.2">
<path opacity="0.2" d="M128.772 99.5272L122.92 103.834L120.341 98.0957L128.772 99.5272Z" fill="white"/>
<path opacity="0.2" d="M128.229 90.298L122.829 92.4361L122.69 87.8759L125.239 86.4565L128.229 90.298Z" fill="white"/>
<path opacity="0.2" d="M118.819 94.7917L112.948 96.3198C112.907 95.1721 113.113 94.0289 113.552 92.9676L116.922 91.0952L118.819 94.7917Z" fill="white"/>
<path opacity="0.2" d="M117.562 102.118L116.572 106.419C115.958 105.52 115.401 104.584 114.905 103.616L117.562 102.118Z" fill="white"/>
</g>
<path d="M154.89 196.064L145.564 195.327L148.644 156.001L158 156.732L154.89 196.064ZM147.479 193.648L153.223 194.095L156.019 158.381L150.281 157.934L147.479 193.648Z" fill="#263238"/>
<path d="M148.445 246.758L149.653 246.855C149.989 246.85 150.323 246.915 150.632 247.047C150.942 247.178 151.221 247.373 151.451 247.618C151.681 247.864 151.857 248.154 151.968 248.472C152.079 248.789 152.123 249.126 152.096 249.462C152.07 249.797 151.973 250.123 151.813 250.419C151.654 250.715 151.434 250.974 151.168 251.18C150.902 251.386 150.596 251.534 150.27 251.615C149.943 251.696 149.604 251.708 149.272 251.651L148.064 251.554C147.728 251.56 147.394 251.495 147.084 251.364C146.774 251.233 146.495 251.039 146.264 250.794C146.034 250.548 145.857 250.258 145.745 249.94C145.633 249.623 145.589 249.286 145.615 248.95C145.641 248.615 145.737 248.288 145.897 247.992C146.057 247.696 146.277 247.436 146.542 247.23C146.808 247.023 147.114 246.875 147.441 246.794C147.767 246.712 148.107 246.7 148.439 246.758H148.445Z" fill="#263238"/>
<path opacity="0.1" d="M145.818 248.921C145.778 249.405 145.884 249.889 146.12 250.313C146.356 250.737 146.713 251.081 147.145 251.302C147.578 251.523 148.066 251.611 148.548 251.554C149.03 251.498 149.484 251.299 149.853 250.984C150.223 250.669 150.49 250.252 150.622 249.785C150.754 249.317 150.744 248.822 150.594 248.36C150.444 247.899 150.16 247.492 149.778 247.192C149.397 246.892 148.935 246.711 148.451 246.674C148.13 246.644 147.806 246.679 147.498 246.777C147.191 246.874 146.906 247.032 146.66 247.242C146.415 247.451 146.214 247.708 146.069 247.996C145.924 248.284 145.839 248.599 145.818 248.921Z" fill="white"/>
<path d="M141.849 246.245L143.057 246.335C143.394 246.33 143.728 246.395 144.038 246.526C144.348 246.656 144.627 246.851 144.858 247.096C145.088 247.341 145.265 247.632 145.377 247.949C145.488 248.266 145.533 248.604 145.506 248.939C145.48 249.275 145.384 249.601 145.225 249.897C145.065 250.194 144.845 250.453 144.579 250.66C144.313 250.866 144.007 251.014 143.681 251.096C143.354 251.177 143.014 251.189 142.683 251.131L141.475 251.041C141.138 251.046 140.804 250.982 140.494 250.851C140.184 250.72 139.905 250.525 139.674 250.28C139.444 250.035 139.267 249.745 139.155 249.427C139.044 249.11 138.999 248.772 139.026 248.437C139.052 248.101 139.148 247.775 139.307 247.479C139.467 247.183 139.687 246.923 139.953 246.717C140.219 246.51 140.525 246.362 140.851 246.28C141.178 246.199 141.518 246.187 141.849 246.245Z" fill="#263238"/>
<path opacity="0.2" d="M139.222 248.407C139.184 248.891 139.29 249.375 139.527 249.798C139.764 250.221 140.122 250.565 140.554 250.785C140.987 251.005 141.474 251.092 141.956 251.034C142.438 250.977 142.892 250.778 143.26 250.463C143.629 250.147 143.896 249.73 144.027 249.263C144.158 248.795 144.148 248.3 143.998 247.839C143.847 247.378 143.563 246.971 143.182 246.671C142.801 246.372 142.339 246.192 141.855 246.154C141.208 246.106 140.567 246.316 140.074 246.738C139.58 247.16 139.274 247.76 139.222 248.407Z" fill="white"/>
<path d="M140.75 246.969L150.096 247.702C150.99 247.772 151.772 247.103 151.842 246.209L156.293 189.408C156.363 188.513 155.694 187.731 154.8 187.661L145.454 186.929C144.56 186.859 143.778 187.527 143.708 188.421L139.257 245.223C139.187 246.117 139.855 246.899 140.75 246.969Z" fill="#263238"/>
<path opacity="0.2" d="M145.416 247.327L150.1 247.694C150.995 247.764 151.777 247.096 151.847 246.201L156.298 189.4C156.368 188.506 155.699 187.724 154.805 187.654L150.12 187.286C149.225 187.216 148.443 187.885 148.373 188.779L143.923 245.581C143.853 246.475 144.521 247.257 145.416 247.327Z" fill="white"/>
<path d="M149.08 157.318L156.963 157.949C157.63 158.002 158.214 157.505 158.267 156.837L158.327 156.094C158.38 155.427 157.883 154.843 157.215 154.79L149.333 154.159C148.666 154.106 148.082 154.603 148.029 155.271L147.969 156.014C147.916 156.681 148.413 157.265 149.08 157.318Z" fill="#263238"/>
<path opacity="0.2" d="M149.08 157.318L156.963 157.949C157.63 158.002 158.214 157.505 158.267 156.837L158.327 156.094C158.38 155.427 157.883 154.843 157.215 154.79L149.333 154.159C148.666 154.106 148.082 154.603 148.029 155.271L147.969 156.014C147.916 156.681 148.413 157.265 149.08 157.318Z" fill="white"/>
<path opacity="0.2" d="M149.262 158.103L149.918 158.154C150.583 158.206 151.164 157.709 151.216 157.044L151.274 156.303C151.326 155.638 150.829 155.057 150.164 155.005L149.508 154.953C148.843 154.901 148.261 155.398 148.209 156.063L148.151 156.804C148.099 157.469 148.596 158.051 149.262 158.103Z" fill="#333333"/>
<path d="M173.674 193.666L169.651 245.006C169.58 245.913 169.152 246.754 168.462 247.345C167.771 247.937 166.873 248.229 165.967 248.159L147.243 246.692C146.608 246.638 146.02 246.335 145.607 245.85C145.194 245.365 144.99 244.736 145.038 244.1L149.188 190.725C149.24 190.09 149.541 189.502 150.025 189.088C150.51 188.674 151.138 188.468 151.773 188.514L170.497 189.982C170.948 190.014 171.388 190.135 171.792 190.338C172.196 190.541 172.556 190.821 172.851 191.164C173.147 191.506 173.371 191.903 173.512 192.333C173.654 192.763 173.709 193.216 173.674 193.666Z" fill="#3FA654"/>
<path opacity="0.2" d="M173.674 193.666L169.651 245.006C169.58 245.913 169.152 246.754 168.462 247.345C167.771 247.937 166.873 248.229 165.967 248.159L147.243 246.692C146.608 246.638 146.02 246.335 145.607 245.85C145.194 245.365 144.99 244.736 145.038 244.1L149.188 190.725C149.24 190.09 149.541 189.502 150.025 189.088C150.51 188.674 151.138 188.468 151.773 188.514L170.497 189.982C170.948 190.014 171.388 190.135 171.792 190.338C172.196 190.541 172.556 190.821 172.851 191.164C173.147 191.506 173.371 191.903 173.512 192.333C173.654 192.763 173.709 193.216 173.674 193.666Z" fill="white"/>
<path opacity="0.2" d="M160.797 189.221V189.293L160.126 189.239C159.49 189.192 158.861 189.399 158.377 189.815C157.893 190.23 157.592 190.82 157.541 191.456L153.362 244.813C153.324 245.349 153.465 245.882 153.764 246.328C154.062 246.774 154.501 247.108 155.011 247.277L147.225 246.673C146.59 246.621 146.002 246.32 145.588 245.836C145.174 245.352 144.968 244.724 145.014 244.088L149.188 190.731C149.239 190.095 149.539 189.505 150.024 189.09C150.508 188.674 151.137 188.468 151.773 188.514L160.797 189.221Z" fill="#333333"/>
<path opacity="0.2" d="M160.638 191.091L160.361 191.069C159.999 191.041 159.682 191.312 159.654 191.674L155.555 243.984C155.527 244.346 155.798 244.663 156.16 244.691L156.437 244.713C156.8 244.741 157.116 244.471 157.145 244.108L161.243 191.799C161.272 191.436 161.001 191.12 160.638 191.091Z" fill="#333333"/>
<path opacity="0.2" d="M164.389 191.642L164.112 191.621C163.749 191.592 163.432 191.863 163.404 192.226L159.305 244.535C159.277 244.897 159.548 245.214 159.91 245.243L160.187 245.264C160.55 245.293 160.867 245.022 160.895 244.659L164.994 192.35C165.022 191.988 164.751 191.671 164.389 191.642Z" fill="#333333"/>
<path opacity="0.2" d="M168.141 191.868L167.864 191.846C167.501 191.817 167.184 192.088 167.156 192.451L163.058 244.76C163.029 245.122 163.3 245.439 163.663 245.468L163.94 245.489C164.302 245.518 164.619 245.247 164.647 244.885L168.746 192.575C168.774 192.213 168.503 191.896 168.141 191.868Z" fill="#333333"/>
<path opacity="0.2" d="M171.881 192.087L171.604 192.066C171.242 192.037 170.925 192.308 170.897 192.671L166.798 244.98C166.77 245.342 167.041 245.659 167.403 245.687L167.68 245.709C168.043 245.738 168.359 245.467 168.388 245.104L172.486 192.795C172.515 192.433 172.244 192.116 171.881 192.087Z" fill="#333333"/>
</svg>
