<svg width="250" height="250" viewBox="0 0 250 250" fill="none" xmlns="http://www.w3.org/2000/svg">
<path d="M125 0C56 0 0 56 0 125C0 194 56 250 125 250C194 250 250 194 250 125C250 56 194 0 125 0ZM125 225C69.75 225 25 180.25 25 125C25 101.875 32.875 80.625 46.125 63.75L186.25 203.875C168.789 217.603 147.211 225.045 125 225ZM203.875 186.25L63.75 46.125C81.2108 32.3971 102.789 24.9549 125 25C180.25 25 225 69.75 225 125C225 148.125 217.125 169.375 203.875 186.25Z" fill="#3FA654"/>
<path d="M212 123.096C212 114.919 200.735 106.68 187.528 102.65C176.677 99.2848 165.332 97.6939 153.951 97.9413C138.997 97.9413 137.054 103.18 137.054 107.358V114.782C137.054 118.949 142.904 121.813 148.102 124.199C153.455 126.925 157.988 130.967 161.255 135.928C164.076 140.297 171.228 146.076 183.578 146.076C195.928 146.076 212 139.936 212 130.519V123.096Z" fill="#E6E6E6"/>
<path opacity="0.1" d="M153.897 97.9409C138.943 97.9409 137 103.18 137 107.358V114.782C137 118.949 142.849 121.813 148.048 124.199C153.42 126.917 157.973 130.961 161.255 135.928V98.0894C158.824 97.9834 156.382 97.9409 153.897 97.9409Z" fill="#333333"/>
<path d="M183.578 138.176C172.15 138.176 164.782 133.064 161.7 128.271C159.052 124.167 153.875 118.885 148.265 116.319C142.838 113.827 137.51 111.08 137.51 107.358C137.51 103.635 139.214 98.439 153.897 98.439C165.053 98.439 174.516 99.2237 187.322 103.126C201.3 107.368 211.436 115.789 211.436 123.096C211.436 132.439 195.211 138.176 183.578 138.176Z" fill="#B475BE"/>
<path opacity="0.3" d="M183.578 138.176C172.15 138.176 164.782 133.064 161.7 128.271C159.052 124.167 153.875 118.885 148.265 116.319C142.838 113.827 137.51 111.08 137.51 107.358C137.51 103.635 139.214 98.439 153.897 98.439C165.053 98.439 174.516 99.2237 187.322 103.126C201.3 107.368 211.436 115.789 211.436 123.096C211.436 132.439 195.211 138.176 183.578 138.176Z" fill="white"/>
<path d="M153.897 98.9487C165.01 98.9487 174.451 99.7229 187.17 103.604C200.931 107.846 210.926 116.001 210.926 123.096C210.926 131.314 196.221 137.677 183.578 137.677C172.357 137.677 165.129 132.682 162.134 128.006C159.453 123.838 154.19 118.461 148.482 115.863C143.186 113.435 138.02 110.784 138.02 107.38C138.02 105.078 138.02 98.9699 153.897 98.9699V98.9487ZM153.897 97.9625C138.943 97.9625 137 103.201 137 107.38C137 111.558 142.849 114.41 148.048 116.786C153.416 119.506 157.968 123.544 161.255 128.504C164.076 132.873 171.228 138.653 183.578 138.653C195.928 138.653 212 132.513 212 123.096C212 114.919 200.735 106.68 187.528 102.65C176.677 99.2848 165.332 97.6939 153.951 97.9413L153.897 97.9625Z" fill="#FAFAFA"/>
<path d="M197.002 106.987C194.359 105.801 191.614 104.846 188.798 104.135C189.849 104.578 190.708 105.367 191.226 106.364C191.743 107.362 191.887 108.506 191.631 109.596C191.195 112.176 190.493 114.705 189.536 117.147C188.668 119.162 188.255 119.459 187.051 119.448C186.419 119.39 185.783 119.39 185.152 119.448C183.958 119.466 182.78 119.181 181.733 118.621C179.199 116.975 176.519 115.555 173.724 114.379C168.982 112.364 163.632 110.137 161.407 108.207C159.182 106.277 158.477 104.601 158.477 102.905C158.477 101.208 160.061 99.0232 161.733 99.0232C161.733 99.0232 160.788 98.4505 156.089 98.3763C153.57 98.2808 151.05 98.5306 148.601 99.1186C150.891 98.9277 154.136 101.134 155.189 103.361C156.241 105.588 156.838 108.249 162.145 110.572C167.452 112.894 178.358 117.719 179.736 118.96C181.115 120.201 180.735 121.198 180.615 121.346C180.214 121.734 179.974 122.253 179.942 122.804C179.91 123.354 180.088 123.897 180.442 124.326C180.851 124.712 181.1 125.231 181.142 125.784C181.184 126.338 181.016 126.887 180.67 127.327C179.78 128.473 177.685 131.654 174.679 132.556C171.673 133.457 168.005 133.616 166.193 132.365C166.193 132.365 167.115 134.051 171.619 135.822C174.243 136.867 177.044 137.424 179.878 137.466C176.253 136.649 175.873 134.91 176.687 133.775C177.501 132.64 180.301 130.201 181.104 128.78C181.907 127.359 183.426 126.224 184.468 126.331C186.571 126.702 188.74 126.389 190.643 125.44C192.889 124.178 193.063 122.195 191.207 120.795C190.252 120.074 190.046 119.247 190.513 117.613C190.979 115.98 193.562 111.823 196.482 110.816C199.401 109.808 204.132 111.993 205.587 113.414C203.148 110.781 200.239 108.603 197.002 106.987Z" fill="#F5F5F5"/>
<path opacity="0.1" d="M189.264 121.251C190.947 122.195 190.947 123.732 189.264 124.676C188.324 125.141 187.285 125.384 186.231 125.384C185.177 125.384 184.138 125.141 183.198 124.676C181.516 123.732 181.516 122.195 183.198 121.251C184.137 120.78 185.176 120.534 186.231 120.534C187.286 120.534 188.326 120.78 189.264 121.251Z" fill="#333333"/>
<path d="M115.508 111.297C115.508 111.297 118.831 144.95 116.888 160.59C114.834 176.866 110.622 218.106 110.622 218.106L106.363 218.517C106.363 218.517 100.256 178.579 102.913 162.714C104.658 152.336 94.6726 104.647 94.6726 104.647L115.508 111.297Z" fill="#EBB376"/>
<path d="M100.351 113.063C100.351 113.063 98.2814 145.514 95.4262 161C92.4599 177.113 85.9088 218.097 85.9088 218.097L81.6418 218.267C81.6418 218.267 77.8032 178.066 81.3563 162.371C83.6881 152.102 83.1646 108.421 83.1646 108.421L100.351 113.063Z" fill="#EBB376"/>
<path d="M100.312 46.2621C100.134 47.0752 100.237 47.9229 100.605 48.6725C101.126 49.2882 101.793 49.7699 102.548 50.0754C101.946 51.2147 100.169 51.7573 100.169 51.7573H95.8862C95.8862 51.7573 93.951 52.1758 93.2214 51.7573C92.6107 51.424 91.9683 51.1062 91.3972 50.7264C91.1038 50.5327 90.5327 51.021 90.2551 50.7807C91.2976 50.0788 92.1014 49.0882 92.5631 47.9362C93.3166 45.6111 92.5076 37.4885 92.5076 37.4885L101.549 41.1235C101.549 41.1235 101.478 41.3173 101.375 41.6506C100.883 43.1543 100.527 44.6975 100.312 46.2621Z" fill="#EBB376"/>
<path opacity="0.2" d="M93.9114 42.4575C93.9114 42.4575 95.8545 46.395 100.312 46.2632C100.523 44.7042 100.873 43.1662 101.359 41.6669L100.804 41.4731L93.9114 42.4575Z" fill="#333333"/>
<path d="M78.4216 52.6805C78.4216 52.6805 78.9054 54.9436 79.5955 58.5863C80.2299 61.919 81.0469 66.391 81.8241 71.3434C81.9589 72.227 82.1176 73.126 82.2682 74.0406C83.4262 80.7679 84.9093 88.0997 85.2186 94.4628L114.865 92.9825C115.079 86.6814 115.936 77.1097 114.984 66.515C114.567 60.9824 113.649 55.497 112.24 50.1229C112.24 50.1229 111.161 50.0687 109.313 50.0454C108.037 50.0454 106.411 50.0454 104.515 50.0454C100.328 50.0919 94.8788 50.3012 89.3032 50.898C87.7169 51.0685 86.1783 51.2622 84.6317 51.5025C82.53 51.8125 80.4282 52.2078 78.4216 52.6805Z" fill="#EBB376"/>
<path d="M115.436 79.0702C115.436 80.4963 115.381 81.8681 115.333 83.1934C115.27 84.9993 115.19 86.7044 115.111 88.2854C115.024 89.9983 114.944 91.5638 114.897 92.9744L85.2185 94.4625C85.0089 90.979 84.6038 87.5093 84.005 84.0692C83.8147 82.8369 83.6006 81.5968 83.3864 80.3723C83.1723 79.1477 82.9106 77.7062 82.6806 76.3963C82.3792 74.6758 82.0857 72.9784 81.824 71.3353C81.9905 71.1338 82.1492 70.9323 82.3078 70.7231C83.2938 69.3322 84.0263 67.7851 84.473 66.1503C84.8175 64.9347 85.0563 63.6928 85.1868 62.4379C85.4577 59.7926 85.4337 57.1263 85.1154 54.486C85.0123 53.5792 84.8933 52.7964 84.7982 52.2074C84.7426 51.9206 84.703 51.6804 84.6633 51.4866C86.2099 51.2464 87.7803 51.0526 89.3348 50.8821L89.5093 51.2154C90.0727 52.2816 90.7337 53.2959 91.4841 54.2457C91.9154 54.7953 92.3873 55.3134 92.8959 55.7958C93.4388 56.3051 94.0372 56.7547 94.6804 57.1366C95.6089 57.7058 96.6649 58.0462 97.7577 58.1287C98.3341 58.1657 98.913 58.1266 99.4787 58.0124C100.283 57.8656 101.05 57.5683 101.739 57.1366C102.878 56.4063 103.72 55.3095 104.118 54.0365C104.384 53.2075 104.533 52.3471 104.563 51.4789C104.588 51.0064 104.588 50.533 104.563 50.0605C106.458 50.0605 108.084 50.0605 109.361 50.0605C109.765 51.7036 110.44 54.4628 111.042 56.9274C111.407 58.4 111.748 59.764 111.978 60.7096C111.978 60.8077 112.002 60.9008 112.05 60.9886C112.327 61.9211 112.721 62.8166 113.223 63.6547C113.755 64.6003 114.405 65.6001 115.032 66.5301C115.103 67.3051 115.159 68.0802 115.206 68.8552C115.301 70.2115 115.365 71.5446 115.404 72.8544C115.46 74.978 115.468 77.0706 115.436 79.0702Z" fill="#263238"/>
<path opacity="0.2" d="M79.5962 58.5869C80.2307 61.9193 81.0476 66.3909 81.8248 71.3429C81.9597 72.2264 82.1183 73.1254 82.269 74.0398C85.37 69.1033 84.3786 62.3378 81.8248 59.8889C81.2268 59.253 80.4525 58.8007 79.5962 58.5869Z" fill="#333333"/>
<path d="M79.8489 135.471C80.3882 115.103 84.4648 92.207 84.4965 89.2617H115.428C116.768 96.6171 118.997 123.566 118.212 136.022L79.8489 135.471Z" fill="#3FA654"/>
<path d="M104.143 226.987L104.936 223.305L105.079 216.67H110.757C110.783 216.426 110.875 216.192 111.026 215.995C111.177 215.798 111.38 215.644 111.613 215.551C111.846 215.458 112.1 215.429 112.349 215.466C112.598 215.503 112.832 215.606 113.026 215.764L113.819 221.895C115.254 223.15 118.633 224.476 123.122 225.437C124.121 225.654 123.804 228.01 121.361 228.01C118.918 228.01 113.573 227.832 111.804 227.832C108.925 227.832 107.26 227.971 104.967 228.002C104.904 228.01 104.84 228.01 104.777 228.002C104.667 227.977 104.563 227.93 104.471 227.865C104.38 227.8 104.302 227.718 104.243 227.624C104.184 227.529 104.145 227.425 104.128 227.315C104.11 227.206 104.116 227.094 104.143 226.987Z" fill="#263238"/>
<path d="M78.2865 226.987L79.1192 223.306L80.3724 216.671H86.059C86.0852 216.428 86.1784 216.196 86.3286 216C86.4788 215.804 86.6804 215.651 86.9122 215.558C87.1439 215.465 87.3971 215.435 87.6448 215.472C87.8926 215.508 88.1256 215.609 88.3193 215.764L87.9862 221.895C89.4218 223.151 92.8004 224.476 97.2895 225.437C98.2888 225.654 97.9715 228.011 95.5288 228.011C93.086 228.011 87.7404 227.832 85.9638 227.832C83.0927 227.832 81.4272 227.972 79.1351 228.003C79.0719 228.01 79.008 228.01 78.9447 228.003C78.8324 227.98 78.7259 227.935 78.6316 227.871C78.5373 227.808 78.4571 227.726 78.3957 227.631C78.3343 227.537 78.293 227.431 78.2742 227.32C78.2555 227.21 78.2596 227.096 78.2865 226.987Z" fill="#263238"/>
<path d="M62.9715 100.135H60.6794C58.1017 100.135 56 102.724 56 105.918C56 109.111 58.1017 111.7 60.6794 111.7H62.9715C65.557 111.7 67.6508 109.111 67.6508 105.918C67.6508 102.724 65.557 100.135 62.9715 100.135Z" fill="#263238"/>
<path opacity="0.1" d="M62.9715 100.135H60.6794C58.1017 100.135 56 102.724 56 105.918C56 109.111 58.1017 111.7 60.6794 111.7H62.9715C65.557 111.7 67.6508 109.111 67.6508 105.918C67.6508 102.724 65.557 100.135 62.9715 100.135Z" fill="#DEECE1"/>
<path opacity="0.2" d="M67.6508 105.949C67.6508 109.142 65.5569 111.731 62.9714 111.731C60.3858 111.731 58.292 109.142 58.292 105.949C58.292 102.756 60.3858 100.167 62.9714 100.167C65.5569 100.167 67.6508 102.756 67.6508 105.949Z" fill="#DEECE1"/>
<path d="M72.3147 103.702H63.8045C62.7973 103.702 61.9883 104.709 61.9883 105.949C61.9883 107.189 62.7814 108.196 63.8045 108.196H72.3147C72.8221 108.065 73.2709 107.773 73.591 107.367C73.9112 106.96 74.0848 106.462 74.0848 105.949C74.0848 105.436 73.9112 104.937 73.591 104.531C73.2709 104.125 72.8221 103.833 72.3147 103.702Z" fill="#263238"/>
<path d="M82.7038 51.952C82.7038 51.952 77.5724 49.7122 74.4078 51.952C71.2433 54.1919 69.7919 61.6014 69.7919 61.6014C69.7919 61.6014 66.0722 74.0021 65.0333 76.0482C63.9943 78.0943 65.0729 98.8035 65.0729 98.8035L68.9909 98.9973C68.9909 98.9973 73.2737 85.9145 71.1164 78.9314C70.6881 77.5363 76.9855 76.4667 80.8321 65.2518C80.8321 65.2518 83.3462 60.8186 83.6318 57.7261C83.7748 55.7576 83.4575 53.783 82.7038 51.952Z" fill="#EBB376"/>
<path d="M65.0579 98.803C65.0579 98.803 61.933 105.337 61.9885 106.81C62.044 108.282 69.1265 109.43 69.1265 109.43C69.1265 109.43 70.9824 103.058 70.4669 102.244C69.9514 101.431 69.0631 96.9351 69.0631 96.9351L65.0579 98.803Z" fill="#EBB376"/>
<path d="M75.2098 100.135H72.9177C70.3321 100.135 68.2383 102.724 68.2383 105.918C68.2383 109.111 70.3321 111.7 72.9177 111.7H75.2098C77.7954 111.7 79.8892 109.111 79.8892 105.918C79.8892 102.724 77.7557 100.135 75.2098 100.135Z" fill="#263238"/>
<path opacity="0.1" d="M75.2098 100.135H72.9177C70.3321 100.135 68.2383 102.724 68.2383 105.918C68.2383 109.111 70.3321 111.7 72.9177 111.7H75.2098C77.7954 111.7 79.8892 109.111 79.8892 105.918C79.8892 102.724 77.7557 100.135 75.2098 100.135Z" fill="#DEECE1"/>
<path opacity="0.2" d="M75.1694 111.731C77.7537 111.731 79.8488 109.142 79.8488 105.949C79.8488 102.756 77.7537 100.167 75.1694 100.167C72.585 100.167 70.49 102.756 70.49 105.949C70.49 109.142 72.585 111.731 75.1694 111.731Z" fill="#DEECE1"/>
<path d="M144.146 48.2781L146.43 48.2393C149.016 48.1851 151.062 45.5577 150.998 42.3724C150.935 39.187 148.786 36.6294 146.2 36.6759L143.916 36.7224C141.33 36.7689 139.284 39.3963 139.348 42.5894C139.411 45.7825 141.56 48.3323 144.146 48.2781Z" fill="#263238"/>
<path opacity="0.1" d="M144.146 48.2781L146.43 48.2393C149.016 48.1851 151.062 45.5577 150.998 42.3724C150.935 39.187 148.786 36.6294 146.2 36.6759L143.916 36.7224C141.33 36.7689 139.284 39.3963 139.348 42.5894C139.411 45.7825 141.56 48.3323 144.146 48.2781Z" fill="#DEECE1"/>
<path opacity="0.2" d="M139.348 42.5894C139.284 39.3959 141.33 36.7683 143.916 36.7218C146.502 36.6753 148.675 39.2177 148.675 42.4111C148.675 45.6046 146.7 48.2322 144.114 48.2787C141.529 48.3252 139.451 45.7828 139.348 42.5894Z" fill="#DEECE1"/>
<path d="M134.732 44.9223L143.242 44.7596C144.242 44.7596 145.043 43.7211 145.011 42.4811C144.979 41.2411 144.154 40.2491 143.147 40.2724L134.637 40.4351C133.638 40.4351 132.845 41.4736 132.868 42.7136C132.892 43.9536 133.725 44.9456 134.732 44.9223Z" fill="#263238"/>
<path d="M142.086 49.6885C142.086 49.6885 145.083 43.0929 144.996 41.6203C144.909 40.1478 137.787 39.1479 137.787 39.1479C137.787 39.1479 136.058 45.5498 136.589 46.3558C137.121 47.1618 138.096 51.6338 138.096 51.6338L142.086 49.6885Z" fill="#EBB376"/>
<path d="M131.948 48.5104H134.24C136.818 48.4562 138.864 45.8288 138.8 42.6434C138.737 39.458 136.588 36.9004 134.002 36.9469L131.718 36.9934C129.132 37.0399 127.094 39.6673 127.157 42.8604C127.221 46.0536 129.362 48.5647 131.948 48.5104Z" fill="#263238"/>
<path opacity="0.1" d="M131.948 48.5104H134.24C136.818 48.4562 138.864 45.8288 138.8 42.6434C138.737 39.458 136.588 36.9004 134.002 36.9469L131.718 36.9934C129.132 37.0399 127.094 39.6673 127.157 42.8604C127.221 46.0536 129.362 48.5647 131.948 48.5104Z" fill="#DEECE1"/>
<path opacity="0.2" d="M127.157 42.8219C127.094 39.6289 129.132 37.0017 131.718 36.9552C134.303 36.9087 136.477 39.4507 136.516 42.6437C136.556 45.8366 134.533 48.4639 131.948 48.5104C129.362 48.5569 127.221 46.0149 127.157 42.8219Z" fill="#DEECE1"/>
<path d="M112.272 50.123C112.272 50.123 116.952 46.5734 119.989 48.046C123.027 49.5185 123.955 53.6494 123.955 53.6494C125.279 54.73 126.753 55.6224 128.333 56.2999C130.593 57.1835 131.347 59.834 131.347 59.834L132.854 62.4846C133.012 59.2063 138.278 48.1932 138.278 48.1932L142.355 48.9682C142.355 48.9682 138.429 68.1345 135.415 70.3356C132.401 72.5366 121.242 65.8405 115.492 60.8648L113.7 61.4926L112.272 50.123Z" fill="#EBB376"/>
<path opacity="0.2" d="M99.1055 135.741L101.096 119.884L107.211 111.762L103.158 121.295C103.158 121.295 105.49 130.471 105.49 135.772L99.1055 135.741Z" fill="#333333"/>
<path d="M106.632 25.7325C106.632 25.7325 109.321 33.4134 105.197 36.0408C101.073 38.6683 101.755 25.0117 101.755 25.0117L106.632 25.7325Z" fill="#263238"/>
<path d="M93.3237 41.311C94.1007 42.5584 95.274 43.5231 96.6646 44.0577C98.0551 44.5923 99.5865 44.6675 101.025 44.2718C102.893 43.7903 104.504 42.6319 105.53 41.032C105.673 40.815 105.799 40.5825 105.926 40.3422C108.115 35.9475 109.099 28.1347 104.435 24.9569C103.64 24.4104 102.741 24.0228 101.792 23.8162C100.843 23.6097 99.8609 23.5882 98.9031 23.7531C97.9453 23.918 97.0302 24.266 96.2102 24.7771C95.3902 25.2883 94.6816 25.9525 94.1248 26.7318C93.4567 27.6525 93.0217 28.7151 92.8558 29.8321C92.0072 35.0716 91.2537 38.1332 93.3237 41.311Z" fill="#EBB376"/>
<path d="M100.589 33.0335C100.517 33.1928 100.512 33.3735 100.576 33.5362C100.64 33.6988 100.767 33.8301 100.93 33.9013C101.216 33.9632 101.509 33.6688 101.612 33.2504C101.715 32.832 101.549 32.4756 101.271 32.3827C100.993 32.2897 100.652 32.6151 100.589 33.0335Z" fill="#263238"/>
<path d="M105.411 34.0872C105.284 34.4981 105.466 34.9011 105.744 34.9554C106.021 35.0097 106.33 34.7229 106.426 34.3043C106.521 33.8857 106.37 33.5291 106.093 33.4361C105.815 33.3431 105.498 33.6919 105.411 34.0872Z" fill="#263238"/>
<path d="M103.816 33.9629C104.037 35.3582 104.453 36.7172 105.054 38.0014C104.711 38.1425 104.341 38.2087 103.97 38.1953C103.599 38.1819 103.235 38.0893 102.904 37.9238L103.816 33.9629Z" fill="#D58745"/>
<path d="M100.001 31.1577C100.042 31.1808 100.089 31.193 100.136 31.193C100.184 31.193 100.23 31.1808 100.271 31.1577C100.536 30.9752 100.842 30.8563 101.163 30.8104C101.484 30.7646 101.811 30.7933 102.119 30.894C102.149 30.9081 102.182 30.916 102.215 30.9174C102.248 30.9187 102.282 30.9134 102.313 30.9018C102.344 30.8902 102.372 30.8725 102.396 30.8499C102.42 30.8272 102.439 30.8 102.452 30.7699C102.479 30.709 102.481 30.6402 102.458 30.578C102.434 30.5158 102.386 30.465 102.325 30.4364C101.941 30.2986 101.528 30.2534 101.122 30.3047C100.717 30.356 100.329 30.5023 99.9934 30.7311C99.9643 30.7485 99.939 30.7714 99.9192 30.7986C99.8993 30.8257 99.8853 30.8565 99.8779 30.8891C99.8705 30.9217 99.8699 30.9554 99.8761 30.9882C99.8823 31.0211 99.8952 31.0523 99.9141 31.0801C99.9366 31.1123 99.9665 31.1389 100.001 31.1577Z" fill="#263238"/>
<path d="M107.672 32.3193C107.697 32.3225 107.722 32.3208 107.747 32.3141C107.772 32.3075 107.794 32.2961 107.814 32.2806C107.862 32.2329 107.888 32.169 107.888 32.1025C107.888 32.036 107.862 31.9721 107.814 31.9243C107.53 31.6348 107.178 31.4172 106.788 31.2904C106.399 31.1635 105.983 31.1312 105.578 31.1963C105.545 31.2027 105.514 31.2155 105.486 31.2338C105.458 31.2522 105.434 31.2757 105.416 31.3031C105.397 31.3304 105.385 31.3611 105.378 31.3933C105.372 31.4255 105.373 31.4586 105.38 31.4906C105.395 31.5561 105.436 31.6131 105.494 31.6493C105.551 31.6856 105.622 31.6981 105.689 31.6842C106.01 31.642 106.337 31.6748 106.644 31.7798C106.95 31.8848 107.226 32.0591 107.45 32.2884C107.482 32.3088 107.519 32.3221 107.557 32.3275C107.595 32.3328 107.634 32.3301 107.672 32.3193Z" fill="#263238"/>
<path d="M107.164 37.1412C107.164 37.1955 107.108 37.2575 107.077 37.3117C106.552 38.2913 105.826 39.1542 104.943 39.8461C103.96 37.9705 101.461 38.3658 101.461 38.3658C101.118 37.6462 100.521 37.0713 99.7799 36.746C98.6934 36.3972 95.5447 35.9012 95.5447 35.9012C95.0371 35.4206 95.0292 34.2736 95.1164 33.3978C95.1437 33.0232 95.194 32.6505 95.2671 32.2817L94.5454 32.646C94.5454 32.646 94.4899 32.8088 94.4026 33.0878C94.3233 33.3745 94.1964 33.7776 94.0615 34.2891C93.8553 35.0176 93.6333 35.9244 93.4429 36.8932C93.2624 37.7559 93.1327 38.6279 93.0543 39.5051C93.0543 39.9159 92.9988 40.3344 92.9988 40.7141C93.002 41.1792 93.0445 41.6432 93.1257 42.1015C93.2072 42.6239 93.4288 43.116 93.7681 43.5275C94.5732 44.3473 95.5424 44.9963 96.6154 45.4341C96.8057 45.5194 96.9961 45.5891 97.1864 45.6589C99.3358 46.3952 101.826 46.3797 103.706 44.8063C106.799 42.272 107.164 37.1412 107.164 37.1412ZM98.3444 37.3427C98.8902 37.3663 99.4257 37.4956 99.92 37.7231C100.414 37.9506 100.857 38.2718 101.223 38.6681C101.223 38.6681 104.277 39.0323 103.872 41.4504C103.468 43.8685 100.93 43.9693 100.153 43.1013C99.4944 42.365 100.208 41.6519 100.446 41.4504L100.51 41.3962L99.5499 40.8227C99.528 40.8594 99.5013 40.8933 99.4706 40.9234C99.2931 41.1941 99.0474 41.4156 98.7571 41.5667C98.4668 41.7179 98.1417 41.7936 97.8128 41.7866C97.4839 41.7796 97.1624 41.6901 96.8791 41.5267C96.5958 41.3634 96.3603 41.1316 96.195 40.8536L96.1316 40.7606C96.0474 40.6082 95.9809 40.447 95.9333 40.2801C95.8567 39.9285 95.8612 39.5645 95.9466 39.2148C96.0321 38.8651 96.1963 38.5383 96.4272 38.2585C96.6582 37.9786 96.9501 37.7525 97.2818 37.5968C97.6134 37.4411 97.9764 37.3596 98.3444 37.3582V37.3427Z" fill="#263238"/>
<path d="M102.968 39.6833C102.54 40.3768 102.164 41.0995 101.842 41.8459L101.422 41.7451C99.5025 41.2723 98.7728 40.4352 98.5428 39.6523C98.4444 39.2629 98.4444 38.8558 98.5428 38.4664C98.5872 38.2457 98.6619 38.0319 98.7649 37.8308C99.8195 38.6364 101.04 39.2101 102.342 39.5128C102.707 39.6368 102.968 39.6833 102.968 39.6833Z" fill="#263238"/>
<path d="M102.309 39.5198L101.96 40.1474C100.152 39.7058 98.9385 39.1479 98.5103 38.4738C98.5546 38.2532 98.6293 38.0394 98.7323 37.8384C99.7869 38.6437 101.007 39.2172 102.309 39.5198Z" fill="#DEECE1"/>
<path d="M101.381 41.7522C99.4621 41.2795 98.7324 40.4424 98.5024 39.6597C99.2289 39.8468 99.9143 40.162 100.525 40.5897C100.929 40.8795 101.228 41.2863 101.381 41.7522Z" fill="#DE5753"/>
<path d="M99.13 21.6941C93.483 21.4616 89.5333 25.019 90.7309 33.4127C91.413 38.156 92.9278 40.3881 92.9278 40.3881C91.8888 38.063 92.4519 33.6917 93.2133 33.6142C93.9747 33.5367 93.8637 34.3893 93.8637 34.3893C95.5927 33.4515 97.512 30.5761 96.822 28.592C95.2358 23.9417 101.057 23.5542 102.477 25.2903C102.477 25.2903 105.427 27.1271 106.633 25.7011C107.838 24.275 104.357 19.1597 99.13 21.6941Z" fill="#263238"/>
<path d="M89.6039 33.5828C89.7627 34.2228 90.0489 34.8259 90.4463 35.3578C90.8437 35.8897 91.3444 36.3399 91.9198 36.6826C93.4584 37.5893 94.7116 36.3494 94.6878 34.6832C94.6878 33.1953 93.8312 30.886 92.0784 30.6767C91.6957 30.6287 91.3068 30.6758 90.9477 30.8137C90.5887 30.9516 90.271 31.1758 90.0242 31.4657C89.7775 31.7555 89.6096 32.1014 89.5361 32.4715C89.4626 32.8416 89.4859 33.2239 89.6039 33.5828Z" fill="#EBB376"/>
<path d="M101.564 97.0981C101.533 97.0965 101.504 97.0888 101.476 97.0754C101.449 97.0621 101.425 97.0434 101.405 97.0206C101.374 96.9794 101.36 96.9278 101.368 96.8769C101.375 96.826 101.403 96.7801 101.445 96.7493C102.46 95.9743 102.873 93.5563 103.031 92.324C102.405 93.1533 101.191 94.5405 100.049 94.7653C99.8611 94.8095 99.6658 94.8143 99.4758 94.7796C99.2858 94.7449 99.1054 94.6713 98.9466 94.5638C98.2328 94.0833 98.1535 93.6183 98.2724 93.3083C98.5341 92.355 100.454 91.6265 103.277 91.4172H103.451C104.245 91.4172 107.417 91.4947 108.258 92.7192C108.392 92.9125 108.471 93.1373 108.486 93.3703C108.501 93.6033 108.453 93.8361 108.345 94.0445C108.28 94.2534 108.156 94.4404 107.988 94.5842C107.82 94.728 107.614 94.8229 107.393 94.8583C106.291 95.0055 104.784 93.5795 103.88 92.5953C104.387 93.8818 105.292 95.9975 106.029 96.7726C106.065 96.8088 106.086 96.8575 106.086 96.9082C106.086 96.9589 106.065 97.0076 106.029 97.0438C106.011 97.0626 105.988 97.0775 105.964 97.0877C105.939 97.0979 105.913 97.1031 105.886 97.1031C105.86 97.1031 105.833 97.0979 105.809 97.0877C105.784 97.0775 105.762 97.0626 105.744 97.0438C104.903 96.1603 103.912 93.7578 103.42 92.4945C103.253 93.8043 102.809 96.2455 101.699 97.0671C101.659 97.0917 101.611 97.1026 101.564 97.0981ZM103.705 91.8047C104.554 92.8123 106.307 94.618 107.33 94.4785C107.481 94.4486 107.621 94.3786 107.735 94.2761C107.848 94.1735 107.93 94.0425 107.972 93.8973C108.052 93.7473 108.09 93.5793 108.082 93.4105C108.073 93.2416 108.019 93.0779 107.925 92.9363C107.306 92.0527 104.958 91.828 103.705 91.8047ZM102.912 91.8047C100.216 92.0682 98.8435 92.7658 98.669 93.3548C98.5817 93.6958 98.899 93.998 99.1924 94.1918C99.3068 94.2689 99.4368 94.3212 99.5736 94.3453C99.7104 94.3694 99.8508 94.3646 99.9856 94.3313C101.096 94.1685 102.373 92.5487 102.888 91.8357L102.912 91.8047Z" fill="#DEECE1"/>
<g opacity="0.1">
<path opacity="0.1" d="M90.1039 84.7828C88.8587 84.9301 87.7959 84.2636 85.8766 84.0078C85.2529 83.9405 84.6225 83.9614 84.0049 84.0698C83.8145 82.8376 83.6004 81.5976 83.3862 80.3731C85.0121 79.8073 87.4232 79.0556 88.2322 79.2571C89.4853 79.5593 90.4211 81.8611 91.9915 81.8611C93.5619 81.8611 96.3933 81.2488 96.9405 82.6361C97.4878 84.0233 91.3412 84.6356 90.1039 84.7828Z" fill="#DEECE1"/>
<path opacity="0.1" d="M115.332 83.2018C115.268 85.0077 115.189 86.7128 115.11 88.2939C114.214 88.3791 113.222 88.4489 112.27 88.4566C109.447 88.4566 109.725 87.5421 107.512 86.9065C105.299 86.271 102.682 87.5188 97.6454 86.9065C92.6092 86.2942 100.635 85.527 104.617 84.7829C108.598 84.0389 108.479 83.8374 111.517 83.3801C112.781 83.2149 114.057 83.1553 115.332 83.2018Z" fill="#DEECE1"/>
<path opacity="0.1" d="M115.435 79.071C112.643 79.1718 108.654 79.4972 107.163 79.2182C104.855 78.792 104.371 77.9086 101.714 77.6684C99.0572 77.4281 92.7043 78.0326 95.8768 75.7388C98.8589 73.5768 104.323 74.8321 105.394 74.9639C106.465 75.0956 104.823 77.7459 106.655 77.6529C108.487 77.5599 113.04 78.0559 113.793 77.6529C114.547 77.2499 115.673 76.506 113.793 74.9639C111.914 73.4218 113.452 72.8251 115.38 72.8096C115.459 74.9794 115.467 77.0717 115.435 79.071Z" fill="#DEECE1"/>
<path opacity="0.1" d="M92.9908 73.2817C89.4852 73.2817 89.6439 75.6066 87.7562 74.9789C86.8838 74.6922 84.7107 75.5446 82.6803 76.4049C82.3789 74.6844 82.0855 72.9872 81.8237 71.3443C81.9903 71.1428 82.1489 70.9413 82.3075 70.7321C84.0048 70.3058 86.1224 70.0269 87.4469 70.7321C89.9532 72.0573 90.2625 71.1351 91.9915 71.6C93.7205 72.065 96.4964 73.2817 92.9908 73.2817Z" fill="#DEECE1"/>
<path opacity="0.1" d="M115.19 68.8249C114.651 69.135 114.088 69.4682 113.604 69.786C112.018 70.7936 112.018 69.6 110.67 69.7085C109.88 69.8086 109.08 69.8086 108.29 69.7085C106.958 69.6 107.854 68.8869 108.29 68.5846C108.726 68.2824 110.265 67.7631 109.527 67.4608C107.994 66.7702 106.291 66.5202 104.618 66.74C102.112 67.05 98.4397 67.05 99.1218 66.3137C99.8039 65.5773 101.057 65.6161 102.564 65.2053C104.091 64.8468 105.645 64.6083 107.212 64.4922C108.552 64.3295 111.391 63.8567 113.223 63.6396C113.755 64.5852 114.405 65.5851 115.032 66.5152C115.087 67.2903 115.143 68.0576 115.19 68.8249Z" fill="#DEECE1"/>
<path opacity="0.1" d="M94.6716 62.6557C94.8699 63.4696 90.4761 63.8804 88.4933 64.9036C86.5105 65.9267 86.6056 66.7096 85.0432 66.3143L84.4722 66.1593C84.8167 64.9435 85.0555 63.7015 85.186 62.4464C87.1846 62.1363 87.8509 62.7487 90.2381 62.6557C92.9902 62.5549 94.4734 61.8418 94.6716 62.6557Z" fill="#DEECE1"/>
<path opacity="0.1" d="M96.9884 68.438C96.9001 68.3635 96.8297 68.2708 96.7822 68.1666L96.6632 67.9961V67.9496C96.3945 67.9412 96.128 67.8995 95.8701 67.8255C95.7481 67.7894 95.6449 67.7091 95.5815 67.601C95.5181 67.4929 95.4993 67.3652 95.5291 67.244C95.2213 67.2086 94.9164 67.1516 94.617 67.0735C93.6573 66.7633 93.6415 66.8486 91.6032 67.0735C91.1697 67.138 90.7703 67.3411 90.4675 67.6512C90.1647 67.9612 89.9756 68.3606 89.9297 68.7869C89.9297 69.3761 93.1735 68.9109 95.0215 68.8954C95.7251 68.8692 96.4182 68.7195 97.0677 68.4535L96.9884 68.438Z" fill="#DEECE1"/>
<path opacity="0.1" d="M111.961 60.6948C110.959 61.0252 109.929 61.269 108.883 61.4234C105.711 61.8806 102.927 62.0434 103.974 61.4234C105.021 60.8033 104.593 60.5088 103.974 60.2995C103.355 60.0903 101.666 60.5088 100.706 60.2995C99.5456 59.8484 98.5296 59.1018 97.7639 58.1372C98.3403 58.1742 98.9192 58.1351 99.485 58.0209C100.289 57.8741 101.057 57.5767 101.745 57.1451C103.898 57.5073 106.095 57.5387 108.257 57.2381C109.343 57.0909 110.271 56.9824 111.017 56.9126C111.39 58.3852 111.731 59.7493 111.961 60.6948Z" fill="#DEECE1"/>
<path opacity="0.1" d="M91.4835 54.2523C90.8546 54.4518 90.1916 54.5282 89.5325 54.477C86.7169 54.2678 86.0269 54.6088 85.1148 54.477C85.0117 53.5704 84.8928 52.7878 84.7976 52.1989C86.019 51.8657 87.9701 51.4705 89.5087 51.207C90.0713 52.2784 90.7323 53.2977 91.4835 54.2523Z" fill="#DEECE1"/>
<path opacity="0.1" d="M107.164 51.6351C106.943 52.2716 106.54 52.8333 106.004 53.2545C105.467 53.6757 104.819 53.939 104.135 54.0135C104.4 53.1848 104.55 52.3248 104.579 51.4569C106.141 50.9998 107.482 50.3878 107.164 51.6351Z" fill="#DEECE1"/>
<path opacity="0.1" d="M93.4499 58.579C93.5689 59.199 92.9185 59.075 92.0223 59.168C91.1261 59.261 89.5715 58.6643 88.2867 58.579C87.0018 58.4937 87.4936 57.2382 88.2867 57.029C89.0798 56.8197 90.666 56.254 92.9264 55.8044C93.4694 56.3137 94.0678 56.7633 94.7109 57.1452C93.7751 57.6722 93.2992 57.9512 93.4499 58.579Z" fill="#DEECE1"/>
</g>
<path opacity="0.6" d="M104.143 226.987L104.936 223.305L105.079 216.67H110.757C110.783 216.426 110.875 216.192 111.026 215.995C111.177 215.798 111.38 215.644 111.613 215.551C111.846 215.458 112.1 215.429 112.349 215.466C112.598 215.503 112.832 215.606 113.026 215.764L113.819 221.895C115.254 223.15 118.633 224.476 123.122 225.437C124.121 225.654 123.804 228.01 121.361 228.01C118.918 228.01 113.573 227.832 111.804 227.832C108.925 227.832 107.26 227.971 104.967 228.002C104.904 228.01 104.84 228.01 104.777 228.002C104.667 227.977 104.563 227.93 104.471 227.865C104.38 227.8 104.302 227.718 104.243 227.624C104.184 227.529 104.145 227.425 104.128 227.315C104.11 227.206 104.116 227.094 104.143 226.987Z" fill="#DEECE1"/>
<path opacity="0.6" d="M78.2865 226.987L79.1192 223.306L80.3724 216.671H86.059C86.0852 216.428 86.1784 216.196 86.3286 216C86.4788 215.804 86.6804 215.651 86.9122 215.558C87.1439 215.465 87.3971 215.435 87.6448 215.472C87.8926 215.508 88.1256 215.609 88.3193 215.764L87.9862 221.895C89.4218 223.151 92.8004 224.476 97.2895 225.437C98.2888 225.654 97.9715 228.011 95.5288 228.011C93.086 228.011 87.7404 227.832 85.9638 227.832C83.0927 227.832 81.4272 227.972 79.1351 228.003C79.0719 228.01 79.008 228.01 78.9447 228.003C78.8324 227.98 78.7259 227.935 78.6316 227.871C78.5373 227.808 78.4571 227.726 78.3957 227.631C78.3343 227.537 78.293 227.431 78.2742 227.32C78.2555 227.21 78.2596 227.096 78.2865 226.987Z" fill="#DEECE1"/>
</svg>
