<svg width="245" height="238" viewBox="0 0 245 238" fill="none" xmlns="http://www.w3.org/2000/svg">
<path d="M203.247 159.487L209.793 159.35L213.018 159.296C214.091 159.272 215.154 159.296 216.222 159.267L216.007 159.487L215.977 154L216.222 154.245L209.72 154.216C207.559 154.216 205.398 154.157 203.232 154.132L203.37 154C203.37 154.897 203.325 155.8 203.301 156.717L203.247 159.487ZM203.247 159.487L203.178 156.771C203.178 155.859 203.125 154.932 203.115 154V153.868H203.247C205.413 153.843 207.574 153.789 209.735 153.784L216.222 153.755H216.467V154V159.487V159.708H216.247C215.154 159.708 214.056 159.708 212.969 159.679L209.705 159.625L203.247 159.487Z" fill="#EBEBEB"/>
<path d="M210.484 166.406L217.031 166.269L220.255 166.215C221.328 166.19 222.391 166.215 223.46 166.186L223.244 166.406L223.219 160.919L223.46 161.164L216.972 161.135C214.811 161.135 212.65 161.076 210.484 161.051L210.622 160.919C210.622 161.816 210.577 162.719 210.558 163.636L210.484 166.406ZM210.484 166.406L210.416 163.69C210.416 162.778 210.362 161.851 210.352 160.919V160.787H210.484C212.65 160.762 214.811 160.708 216.972 160.703L223.46 160.674H223.709V160.919L223.68 166.406V166.627H223.44C222.347 166.627 221.255 166.627 220.162 166.598L216.898 166.544L210.484 166.406Z" fill="#EBEBEB"/>
<path d="M196 166.406L202.546 166.269L205.771 166.215C206.839 166.19 207.907 166.215 208.975 166.186L208.76 166.406L208.74 160.919L208.985 161.164L202.497 161.135C200.336 161.135 198.171 161.076 196.01 161.051L196.142 160.919C196.142 161.816 196.103 162.719 196.078 163.636L196 166.406ZM196 166.406L195.931 163.69C195.907 162.778 195.877 161.851 195.868 160.919V160.787H196C198.161 160.762 200.327 160.708 202.488 160.703L208.975 160.674H209.22V160.919L209.23 166.406V166.627H209.014C207.922 166.627 206.824 166.627 205.736 166.598L202.473 166.544L196 166.406Z" fill="#EBEBEB"/>
<path d="M195.221 49.1787L201.768 49.0414L204.992 48.9875C206.06 48.9875 207.128 48.9875 208.196 48.958L207.981 49.1787L207.951 43.6915L208.196 43.9367L201.709 43.9072C199.548 43.9072 197.382 43.8484 195.221 43.8239L195.353 43.6915C195.353 44.5889 195.314 45.4911 195.29 46.4081L195.221 49.1787ZM195.221 49.1787L195.153 46.4621C195.153 45.55 195.099 44.6232 195.089 43.6915V43.5591H195.221C197.382 43.5591 199.548 43.4806 201.709 43.4757L208.196 43.4463H208.441V43.6915L208.417 49.1787V49.3994H208.196C207.104 49.3994 206.006 49.3994 204.918 49.37L201.655 49.316L195.221 49.1787Z" fill="#EBEBEB"/>
<path d="M202.458 56.0977L209.005 55.9604L212.229 55.9064C213.302 55.9064 214.365 55.9064 215.434 55.877L215.218 56.0977L215.189 50.6104L215.434 50.8556L208.946 50.8262C206.785 50.8262 204.624 50.7673 202.458 50.7428L202.596 50.6104C202.596 51.5078 202.552 52.4101 202.527 53.3271L202.458 56.0977ZM202.458 56.0977L202.39 53.381C202.39 52.4689 202.336 51.5421 202.326 50.6104V50.478H202.458C204.624 50.478 206.785 50.3996 208.946 50.3947L215.434 50.3652H215.684V50.6104L215.659 56.0977V56.3183H215.439C214.346 56.3183 213.248 56.3183 212.16 56.2938L208.897 56.2399L202.458 56.0977Z" fill="#EBEBEB"/>
<path d="M187.984 56.0977L194.53 55.9604L197.75 55.9064C198.823 55.9064 199.891 55.9064 200.959 55.877L200.739 56.0977L200.714 50.6104L200.959 50.8556L194.471 50.8262C192.311 50.8262 190.145 50.7673 187.984 50.7428L188.116 50.6104C188.116 51.5078 188.077 52.4101 188.052 53.3271L187.984 56.0977ZM187.984 56.0977L187.915 53.381C187.891 52.4689 187.861 51.5421 187.852 50.6104V50.478H187.989C190.15 50.478 192.315 50.3996 194.476 50.3947L200.964 50.3652H201.209V50.6104L201.184 56.0977V56.3183H200.969C199.876 56.3183 198.779 56.3183 197.691 56.2938L194.422 56.2399L187.984 56.0977Z" fill="#EBEBEB"/>
<path d="M28.7778 166.406L35.3193 166.269L38.5435 166.215C39.6166 166.19 40.6848 166.215 41.753 166.186L41.5325 166.406L41.508 160.919L41.753 161.164L35.2801 161.135C33.1143 161.135 30.9534 161.076 28.7925 161.051L28.9248 160.919C28.9248 161.816 28.8807 162.719 28.8611 163.636L28.7778 166.406ZM28.7778 166.406L28.7043 163.69C28.7043 162.778 28.6504 161.851 28.6406 160.919V160.787H28.7778C30.9387 160.762 33.0996 160.708 35.2654 160.703L41.753 160.674H41.998V160.919L41.9686 166.406V166.627H41.753C40.6603 166.627 39.5627 166.627 38.47 166.598L35.2066 166.544L28.7778 166.406Z" fill="#EBEBEB"/>
<path d="M28.7778 27.0381L35.3193 26.9008L38.5435 26.8468C39.6166 26.8223 40.6848 26.8468 41.753 26.8174L41.5325 27.0381L41.508 21.5508L41.753 21.796L35.2801 21.747C33.1143 21.747 30.9534 21.6882 28.7925 21.6636L28.9101 21.5508C28.9101 22.4482 28.866 23.3505 28.8464 24.2675L28.7778 27.0381ZM28.7778 27.0381L28.7043 24.3214C28.7043 23.4094 28.6504 22.4826 28.6406 21.5508V21.4185H28.7778C30.9387 21.4185 33.0996 21.34 35.2654 21.3351L41.753 21.3057H41.998V21.5508L41.9686 27.0381V27.2588H41.753C40.6603 27.2588 39.5627 27.2588 38.47 27.2588L35.2066 27.2048L28.7778 27.0381Z" fill="#EBEBEB"/>
<path d="M21.5601 33.958L28.1015 33.8207L31.3257 33.7668C32.3988 33.7422 33.4622 33.7668 34.5353 33.7373L34.3 33.958V28.4708L34.545 28.716L28.0281 28.6865C25.8623 28.6816 23.7014 28.613 21.5601 28.613L21.6924 28.4806C21.6924 29.378 21.6483 30.2802 21.6287 31.1972L21.5601 33.958ZM21.5601 33.958L21.4866 31.2414C21.4866 30.3293 21.4327 29.4025 21.4229 28.4708V28.3384H21.5601C23.721 28.3384 25.8819 28.2599 28.0477 28.255L34.5353 28.2256H34.7803V28.4708L34.7312 33.958V34.1787H34.5156C33.418 34.1787 32.3253 34.1787 31.2326 34.1787L27.9693 34.1247L21.5601 33.958Z" fill="#EBEBEB"/>
<path d="M210.484 27.0439L217.031 26.9066L220.255 26.8527C221.328 26.8527 222.391 26.8527 223.46 26.8527L223.244 27.0685L223.219 21.5812L223.46 21.8264L216.972 21.797C214.811 21.797 212.65 21.743 210.484 21.7136L210.622 21.5812C210.622 22.4786 210.577 23.3809 210.558 24.2979L210.484 27.0439ZM210.484 27.0439L210.416 24.3322C210.416 23.4152 210.362 22.4884 210.352 21.5567V21.4243H210.484C212.65 21.3998 214.811 21.3458 216.972 21.3409L223.44 21.3115H223.69V21.5567L223.665 27.0439V27.2646H223.44C222.347 27.2646 221.255 27.2646 220.162 27.2352L216.898 27.1813L210.484 27.0439Z" fill="#EBEBEB"/>
<path d="M157.604 94.6406L151.057 94.7779L147.833 94.8318C146.765 94.8563 145.697 94.8318 144.628 94.8563L144.844 94.6406L144.873 100.128L144.628 99.8826L151.116 99.9121C153.277 99.9121 155.438 99.966 157.604 99.9905L157.466 100.128C157.466 99.2304 157.51 98.3233 157.535 97.4112L157.604 94.6406ZM157.604 94.6406L157.672 97.3523C157.672 98.2693 157.726 99.1961 157.736 100.128V100.26H157.604C155.438 100.26 153.277 100.339 151.116 100.339L144.628 100.373H144.383V100.128V94.6406V94.4199H144.604C145.696 94.4199 146.794 94.4199 147.882 94.4493L151.145 94.5033L157.604 94.6406Z" fill="#EBEBEB"/>
<path d="M150.366 87.7216L143.82 87.859L140.596 87.9129C139.523 87.9129 138.459 87.9129 137.391 87.9129L137.607 87.6971L137.631 93.1844L137.391 92.9392L143.879 92.9686C146.04 92.9686 148.2 93.0226 150.366 93.052L150.229 93.1844C150.229 92.287 150.273 91.3798 150.293 90.4677L150.366 87.7216ZM150.366 87.7216L150.435 90.4334C150.435 91.3504 150.489 92.2772 150.499 93.2089V93.3413H150.366C148.2 93.3658 146.04 93.4198 143.879 93.4198L137.391 93.4541H137.141V93.2089L137.166 87.7216V87.501H137.386C138.479 87.501 139.572 87.501 140.664 87.5304L143.928 87.5843L150.366 87.7216Z" fill="#EBEBEB"/>
<path d="M95.0652 18.6924H24.5591V168.221H95.0652V18.6924Z" fill="#EBEBEB"/>
<path d="M167.521 18.6924H97.0151V168.221H167.521V18.6924Z" fill="#EBEBEB"/>
<g opacity="0.4">
<path opacity="0.4" d="M62.7301 18.6924L24.5591 56.8922V43.9121L49.7647 18.6924H62.7301Z" fill="white"/>
<path opacity="0.4" d="M167.526 97.9805V110.956L110.309 168.216H97.3389L167.526 97.9805Z" fill="white"/>
<path opacity="0.4" d="M28.2881 168.216L95.0653 101.384V114.364L41.2535 168.216H28.2881Z" fill="white"/>
<path opacity="0.4" d="M167.527 28.873V41.8531L97.0205 112.412V99.4324L167.527 28.873Z" fill="white"/>
<path opacity="0.4" d="M88.6903 18.6924L24.5591 82.872V81.1704L86.99 18.6924H88.6903Z" fill="white"/>
<path opacity="0.4" d="M39.6805 18.6924L24.5591 33.8252V32.1236L37.9802 18.6924H39.6805Z" fill="white"/>
<path opacity="0.4" d="M24.5591 165.122L95.0652 94.5625V96.2641L24.5591 166.823V165.122Z" fill="white"/>
<path opacity="0.4" d="M167.527 22.0469V23.7485L97.0205 94.3078V92.6111L167.527 22.0469Z" fill="white"/>
<path opacity="0.4" d="M93.2866 168.216L95.0653 166.436V168.137L94.9869 168.216H93.2866Z" fill="white"/>
<path opacity="0.4" d="M167.527 93.9248V95.6215L97.0205 166.186V164.484L167.527 93.9248Z" fill="white"/>
<path opacity="0.4" d="M167.526 127.589V129.29L128.63 168.216H126.93L167.526 127.589Z" fill="white"/>
<path opacity="0.4" d="M93.3306 18.6924H95.0652V23.1842L24.5591 93.7435V87.5158L93.3306 18.6924Z" fill="white"/>
<path opacity="0.4" d="M99.5587 18.6924L97.0205 21.2325V18.6924H99.5587Z" fill="white"/>
<path opacity="0.4" d="M24.5591 118.964L95.0652 48.4043V54.6369L24.5591 125.201V118.964Z" fill="white"/>
<path opacity="0.4" d="M130.987 18.6924L97.0205 52.6848V46.4522L124.755 18.6924H130.987Z" fill="white"/>
<path opacity="0.4" d="M167.526 146.875V153.103L152.425 168.216H146.202L167.526 146.875Z" fill="white"/>
<path opacity="0.4" d="M80.4385 168.216L95.065 153.578V159.806L86.6664 168.216H80.4385Z" fill="white"/>
<path opacity="0.4" d="M167.527 81.0625V87.2951L97.0205 157.854V151.627L167.527 81.0625Z" fill="white"/>
</g>
<path d="M118.458 100.991H29.3706V103.58H118.458V100.991Z" fill="#C7C7C7"/>
<path d="M29.3656 91.7188H26.0679V112.854H29.3656V91.7188Z" fill="#C7C7C7"/>
<path d="M26.0682 93.4736H23.8828V111.107H26.0682V93.4736Z" fill="#C7C7C7"/>
<path d="M26.068 111.102H25.4065L24.7793 93.4688H26.068V111.102Z" fill="#A6A6A6"/>
<path d="M118.458 112.858H121.755V91.7235H118.458V112.858Z" fill="#C7C7C7"/>
<path d="M121.76 111.103H123.946V93.4688H121.76V111.103Z" fill="#C7C7C7"/>
<path d="M121.755 93.4688H122.422L123.049 111.102H121.755V93.4688Z" fill="#A6A6A6"/>
<path d="M39.0287 97.0635H34.4668V179.053H39.0287V97.0635Z" fill="#DBDBDB"/>
<path d="M113.362 97.0635H108.8V179.053H113.362V97.0635Z" fill="#DBDBDB"/>
<path d="M185.867 86.7119H180.188V99.692H185.867V86.7119Z" fill="#DBDBDB"/>
<path d="M180.188 88.1045H177.458V98.2944H180.188V88.1045Z" fill="#DBDBDB"/>
<path d="M180.188 88.1045V98.2993H178.826L179.325 88.1045H180.188Z" fill="#C7C7C7"/>
<path d="M212.68 99.6914H218.359V86.7113H212.68V99.6914Z" fill="#DBDBDB"/>
<path d="M218.359 98.2988H221.088V88.1089H218.359V98.2988Z" fill="#DBDBDB"/>
<path d="M218.359 98.2944V88.1045H219.726L219.226 98.2944H218.359Z" fill="#C7C7C7"/>
<path d="M212.684 90.7373H185.867V95.6655H212.684V90.7373Z" fill="#C7C7C7"/>
<path d="M185.867 103.311H180.188V116.291H185.867V103.311Z" fill="#DBDBDB"/>
<path d="M180.188 104.708H177.458V114.898H180.188V104.708Z" fill="#DBDBDB"/>
<path d="M180.188 104.708V114.903H178.826L179.325 104.708H180.188Z" fill="#C7C7C7"/>
<path d="M212.68 116.296H218.359V103.316H212.68V116.296Z" fill="#DBDBDB"/>
<path d="M218.359 114.898H221.088V104.709H218.359V114.898Z" fill="#DBDBDB"/>
<path d="M218.359 114.898V104.703H219.726L219.226 114.898H218.359Z" fill="#C7C7C7"/>
<path d="M212.684 107.342H185.867V112.27H212.684V107.342Z" fill="#C7C7C7"/>
<path d="M185.867 119.914H180.188V132.894H185.867V119.914Z" fill="#DBDBDB"/>
<path d="M180.188 121.308H177.458V131.498H180.188V121.308Z" fill="#DBDBDB"/>
<path d="M180.188 121.312V131.502H178.826L179.325 121.312H180.188Z" fill="#C7C7C7"/>
<path d="M212.68 132.895H218.359V119.914H212.68V132.895Z" fill="#DBDBDB"/>
<path d="M218.359 131.502H221.088V121.312H218.359V131.502Z" fill="#DBDBDB"/>
<path d="M218.359 131.498V121.308H219.726L219.226 131.498H218.359Z" fill="#C7C7C7"/>
<path d="M212.684 123.94H185.867V128.869H212.684V123.94Z" fill="#C7C7C7"/>
<path d="M185.867 136.519H180.188V149.499H185.867V136.519Z" fill="#DBDBDB"/>
<path d="M180.188 137.911H177.458V148.101H180.188V137.911Z" fill="#DBDBDB"/>
<path d="M180.188 137.911V148.106H178.826L179.325 137.911H180.188Z" fill="#C7C7C7"/>
<path d="M212.68 149.493H218.359V136.513H212.68V149.493Z" fill="#DBDBDB"/>
<path d="M218.359 148.101H221.088V137.911H218.359V148.101Z" fill="#DBDBDB"/>
<path d="M218.359 148.101V137.906H219.726L219.226 148.101H218.359Z" fill="#C7C7C7"/>
<path d="M212.684 140.544H185.867V145.472H212.684V140.544Z" fill="#C7C7C7"/>
<path d="M185.867 153.117H180.188V166.097H185.867V153.117Z" fill="#DBDBDB"/>
<path d="M180.188 154.51H177.458V164.7H180.188V154.51Z" fill="#DBDBDB"/>
<path d="M180.188 154.515V164.705H178.826L179.325 154.515H180.188Z" fill="#C7C7C7"/>
<path d="M212.68 166.098H218.359V153.118H212.68V166.098Z" fill="#DBDBDB"/>
<path d="M218.359 164.705H221.088V154.515H218.359V164.705Z" fill="#DBDBDB"/>
<path d="M218.359 164.7V154.51H219.726L219.226 164.7H218.359Z" fill="#C7C7C7"/>
<path d="M212.684 157.144H185.867V162.072H212.684V157.144Z" fill="#C7C7C7"/>
<path d="M192.33 86.9473H188.062V179.053H192.33V86.9473Z" fill="#DBDBDB"/>
<path d="M210.49 86.9473H206.222V179.053H210.49V86.9473Z" fill="#DBDBDB"/>
<path d="M115.052 222.709C167.284 222.709 209.627 219.041 209.627 214.515C209.627 209.99 167.284 206.321 115.052 206.321C62.8197 206.321 20.4771 209.99 20.4771 214.515C20.4771 219.041 62.8197 222.709 115.052 222.709Z" fill="#EBEBEB"/>
<path d="M167.242 208.965C200.079 208.965 226.698 205.838 226.698 201.982C226.698 198.125 200.079 194.999 167.242 194.999C134.405 194.999 107.785 198.125 107.785 201.982C107.785 205.838 134.405 208.965 167.242 208.965Z" fill="#EBEBEB"/>
<path d="M22.7559 179.053L47.5695 178.935L72.3831 178.891L122.01 178.808L171.637 178.891L196.451 178.935L221.265 179.053L196.451 179.175L171.637 179.22L122.01 179.298L72.3831 179.22L47.5695 179.175L22.7559 179.053Z" fill="#263238"/>
<path d="M143.702 199.839C144.844 200.207 178.492 199.785 179.712 198.981C180.202 198.687 177.821 167.009 177.821 167.009L156.079 167.225L158.397 188.418C158.397 188.418 146.02 194.151 144.77 195.176C143.521 196.201 142.59 199.476 143.702 199.839Z" fill="#EBB376"/>
<path d="M143.707 199.84C144.843 200.207 178.497 199.786 179.712 198.981C179.932 198.849 179.545 192.053 179.07 184.761H158L158.402 188.419C158.402 188.419 146.019 194.146 144.77 195.176C143.52 196.206 142.56 199.477 143.707 199.84Z" fill="white"/>
<path d="M143.334 200.3C144.535 200.692 178.506 200.373 179.8 199.535C180.29 199.221 179.58 188.011 179.584 187.947H158.568V188.32C158.568 188.32 145.529 194.312 144.192 195.386C142.854 196.46 142.134 199.912 143.334 200.3Z" fill="#3FA654"/>
<path d="M143.427 198.971C149.2 198.775 172.504 198.53 178.217 198.775C178.266 198.775 178.266 198.809 178.217 198.809C172.499 199.128 149.19 199.187 143.427 199.064C143.305 199.059 143.305 198.971 143.427 198.971Z" fill="#263238"/>
<path d="M156.109 188.031C158.377 187.585 161.156 187.908 162.91 189.502C162.978 189.566 162.885 189.659 162.812 189.639C160.635 188.957 158.391 188.511 156.118 188.31C156.089 188.302 156.062 188.284 156.043 188.26C156.024 188.235 156.013 188.205 156.012 188.174C156.011 188.143 156.02 188.113 156.037 188.087C156.055 188.061 156.08 188.042 156.109 188.031Z" fill="#263238"/>
<path d="M154.477 189.037C156.746 188.591 159.529 188.914 161.278 190.508C161.347 190.572 161.278 190.665 161.185 190.645C159.006 189.962 156.761 189.517 154.487 189.316C154.457 189.308 154.431 189.29 154.411 189.265C154.392 189.241 154.382 189.211 154.38 189.18C154.379 189.149 154.388 189.119 154.405 189.093C154.423 189.067 154.448 189.047 154.477 189.037Z" fill="#263238"/>
<path d="M152.845 190.042C155.114 189.595 157.897 189.919 159.646 191.513C159.715 191.577 159.646 191.67 159.553 191.65C157.382 190.973 155.145 190.529 152.88 190.326C152.842 190.331 152.804 190.32 152.774 190.297C152.744 190.273 152.725 190.239 152.72 190.201C152.716 190.163 152.726 190.125 152.75 190.095C152.773 190.066 152.808 190.046 152.845 190.042Z" fill="#263238"/>
<path d="M155.682 174.148H179.09C179.872 172.328 180.178 170.338 179.976 168.367C179.041 157.137 176.184 133.178 176.326 132.447C176.556 131.226 177.448 125.685 179.266 118.452C179.844 116.187 180.462 113.759 181.108 111.244C182.853 104.437 184.778 96.9984 186.454 90.5255C188.968 80.826 190.933 73.2939 190.933 73.2939H171.122C171.122 73.2939 168.809 80.6495 165.894 90.1725C161.146 105.678 154.805 127.024 154.178 132.217C153.418 138.498 152.943 158.697 153.605 168.543C153.762 170.569 154.482 172.51 155.682 174.148Z" fill="#455A64"/>
<path d="M156.77 169.877C160.337 169.804 159.313 169.775 162.885 169.74C164.63 169.74 176.115 169.627 177.742 169.897C177.751 169.897 177.76 169.901 177.766 169.907C177.773 169.914 177.777 169.922 177.777 169.931C177.777 169.941 177.773 169.949 177.766 169.956C177.76 169.962 177.751 169.966 177.742 169.966C176.111 170.24 164.63 170.137 162.885 170.123C159.313 170.088 160.337 170.059 156.77 169.985C156.756 169.985 156.742 169.98 156.732 169.97C156.722 169.959 156.716 169.946 156.716 169.931C156.716 169.917 156.722 169.903 156.732 169.893C156.742 169.883 156.756 169.877 156.77 169.877Z" fill="#263238"/>
<path d="M187.351 76.0059L183.715 88.829L180.162 101.677C178.982 105.963 177.84 110.253 176.703 114.549C175.566 118.845 174.439 123.145 173.391 127.465C173.141 128.549 172.901 129.633 172.67 130.731C172.612 131.001 172.572 131.285 172.523 131.565C172.523 131.717 172.494 131.888 172.523 132.031L172.558 132.447L172.685 134.11L173.2 140.749L174.248 154.038L175.125 166.406V166.548L175.39 166.386L174.625 154.024L173.645 140.73L173.155 134.085L173.033 132.423L172.999 132.006C172.999 131.879 172.999 131.766 173.023 131.643C173.072 131.374 173.106 131.109 173.165 130.839C173.381 129.755 173.655 128.676 173.895 127.598C175.978 118.967 178.305 110.386 180.55 101.794L187.351 76.0059Z" fill="#263238"/>
<path d="M171.598 73.3145C172.975 83.9751 177.968 101.692 179.869 116.197C184.347 98.6224 190.958 73.3145 190.958 73.3145H171.598Z" fill="#263238"/>
<path d="M219.407 199.673C218.26 200.031 190.007 200.163 188.777 199.334C188.287 199.035 188.14 194.264 188.101 188.497V188.316C188.101 187.129 185.362 167.151 185.362 167.151L206.711 167.588L209.161 188.571V188.929C209.161 188.929 217.133 193.926 218.388 194.97C219.642 196.015 220.559 199.32 219.407 199.673Z" fill="#EBB376"/>
<path d="M187.704 184.761C187.944 186.668 188.101 188.032 188.101 188.316V188.497C188.14 194.264 188.301 199.031 188.772 199.335C189.997 200.153 218.26 200.031 219.412 199.673C220.563 199.315 219.627 196.01 218.383 194.97C217.138 193.931 209.161 188.924 209.161 188.924V188.566L208.71 184.761H187.704Z" fill="white"/>
<path d="M220.803 200.3C219.603 200.692 189.213 200.373 187.914 199.535C187.424 199.221 188.14 188.011 188.135 187.947H209.151V188.32C209.151 188.32 218.628 194.312 219.955 195.386C221.283 196.46 222.004 199.912 220.803 200.3Z" fill="#3FA654"/>
<path d="M220.715 198.971C214.943 198.775 195.235 198.53 189.497 198.775C189.448 198.775 189.448 198.809 189.497 198.809C195.215 199.128 214.943 199.187 220.72 199.064C220.833 199.059 220.838 198.971 220.715 198.971Z" fill="#263238"/>
<path d="M210.209 188.575C207.985 187.952 205.182 188.085 203.315 189.522C203.241 189.58 203.315 189.678 203.398 189.664C205.622 189.153 207.894 188.884 210.175 188.86C210.208 188.856 210.239 188.841 210.262 188.818C210.286 188.794 210.301 188.764 210.305 188.731C210.309 188.698 210.301 188.665 210.284 188.636C210.267 188.608 210.24 188.586 210.209 188.575Z" fill="#263238"/>
<path d="M211.748 189.703C209.524 189.081 206.721 189.189 204.854 190.65C204.78 190.709 204.854 190.812 204.937 190.792C207.161 190.282 209.433 190.012 211.714 189.988C211.747 189.984 211.778 189.97 211.801 189.946C211.825 189.923 211.84 189.892 211.844 189.859C211.848 189.826 211.84 189.793 211.823 189.765C211.806 189.736 211.779 189.715 211.748 189.703Z" fill="#263238"/>
<path d="M213.297 190.831C211.072 190.209 208.269 190.316 206.402 191.778C206.329 191.837 206.402 191.94 206.486 191.92C208.709 191.41 210.981 191.14 213.262 191.116C213.295 191.112 213.326 191.097 213.35 191.074C213.373 191.051 213.388 191.02 213.392 190.987C213.396 190.954 213.389 190.921 213.371 190.893C213.354 190.864 213.328 190.843 213.297 190.831Z" fill="#263238"/>
<path d="M171.598 73.3145C171.598 73.3145 174.606 91.6592 174.812 92.2525C174.812 92.2525 175.929 92.7821 177.948 93.7236C177.948 93.7236 183.167 151.185 183.167 168.127C183.167 170.977 185.127 174.066 185.127 174.066L208.647 174.159C208.647 174.159 210.381 170.726 210.293 167.745C209.578 143.923 197.249 73.3243 197.249 73.3243L171.598 73.3145Z" fill="#455A64"/>
<path d="M185.95 169.868C189.542 169.809 188.508 169.775 192.104 169.755C193.863 169.755 205.418 169.696 207.059 169.976C207.093 169.976 207.093 170.04 207.059 170.049C205.413 170.314 193.858 170.162 192.099 170.138C188.508 170.089 189.542 170.064 185.95 169.971C185.942 169.973 185.933 169.974 185.925 169.973C185.917 169.971 185.909 169.968 185.902 169.963C185.895 169.958 185.89 169.951 185.886 169.944C185.882 169.936 185.88 169.928 185.88 169.919C185.88 169.911 185.882 169.903 185.886 169.895C185.89 169.888 185.895 169.881 185.902 169.876C185.909 169.871 185.917 169.868 185.925 169.866C185.933 169.865 185.942 169.865 185.95 169.868Z" fill="#263238"/>
<path d="M173.832 91.6834C176.171 92.6602 178.421 93.84 180.555 95.2092C180.569 95.2204 180.579 95.2361 180.583 95.2537C180.586 95.2712 180.584 95.2896 180.576 95.3057C180.568 95.3217 180.555 95.3346 180.538 95.342C180.522 95.3494 180.504 95.351 180.486 95.3465C178.218 94.2432 175.9 93.1791 173.695 91.9531C173.663 91.9328 173.64 91.9014 173.63 91.8649C173.62 91.8285 173.624 91.7896 173.641 91.7559C173.658 91.7222 173.687 91.6961 173.723 91.6827C173.758 91.6693 173.797 91.6696 173.832 91.6834Z" fill="#263238"/>
<path d="M174.699 81.1692C175.067 83.3661 175.272 85.5826 175.522 87.8088C175.581 88.3384 175.645 88.868 175.699 89.4025C175.715 89.8903 175.846 90.3674 176.081 90.7952C176.571 91.5356 177.414 91.8838 178.188 92.2222C178.198 92.2254 178.207 92.2305 178.215 92.2373C178.223 92.2441 178.23 92.2524 178.234 92.2618C178.239 92.2711 178.242 92.2813 178.243 92.2917C178.244 92.3022 178.243 92.3127 178.239 92.3227C178.236 92.3327 178.231 92.3419 178.224 92.3499C178.217 92.3579 178.209 92.3645 178.2 92.3692C178.19 92.374 178.18 92.3769 178.17 92.3778C178.159 92.3786 178.149 92.3774 178.139 92.3742C177.308 92.1689 176.54 91.7613 175.904 91.1875C175.199 90.4421 175.223 89.3094 175.116 88.3482C174.803 85.9723 174.63 83.5801 174.596 81.1839C174.596 81.1251 174.689 81.1153 174.699 81.1692Z" fill="#263238"/>
<path d="M177.379 81.8462C177.458 83.4252 177.634 85.0091 177.766 86.5881C177.83 87.3629 177.884 88.1475 177.933 88.9272C177.982 89.7068 178.075 90.5307 178.051 91.3251C178.051 91.379 177.962 91.3888 177.953 91.3251C177.82 90.5748 177.806 89.7902 177.742 89.035C177.678 88.2799 177.624 87.4315 177.58 86.6322C177.487 85.0336 177.443 83.4252 177.301 81.8315C177.281 81.7923 177.379 81.7923 177.379 81.8462Z" fill="#263238"/>
<path d="M178.423 96.0625L179.688 106.831L181.001 117.595L183.706 139.107L187.483 167.735L184.205 139.043L181.383 117.546L179.928 106.802L178.423 96.0625Z" fill="#263238"/>
<path d="M175.419 48.3979C173.386 55.5622 168.667 67.2576 165.703 70.391C162.4 73.8776 148.842 68.9199 140.184 66.0758C138.464 65.5118 141.997 51.855 143.8 52.5612C148.523 54.3755 158.5 58.8673 159.48 58.3426C160.308 57.9111 166.707 49.8396 170.436 46.0147C176.399 39.89 176.836 43.3618 175.419 48.3979Z" fill="#EBB376"/>
<path d="M143.991 67.0174C145.686 66.7183 148.219 55.6604 147.097 54.2923C146.681 53.8698 146.212 53.5038 145.701 53.2037C144.268 51.2119 143.134 49.0213 142.334 46.7014C141.477 43.9014 140.521 39.6499 138.998 40.052C136.778 40.6404 137.341 46.162 137.861 49.315C136.229 48.7168 134.774 48.3588 133.843 48.4618C130.77 48.8002 130.535 62.7365 133.191 64.4233C135.754 66.0465 142.29 67.3214 143.991 67.0174Z" fill="#EBB376"/>
<path d="M137.046 42.7475L134.167 43.0107L134.316 44.6418L137.195 44.3786L137.046 42.7475Z" fill="#263238"/>
<path d="M137.401 42.1652L133.708 42.5029L133.805 43.5724L137.499 43.2347L137.401 42.1652Z" fill="#455A64"/>
<path d="M130.744 44.9335L130.032 45.7891L131.384 46.9152L132.096 46.0596L130.744 44.9335Z" fill="#263238"/>
<path d="M130.511 44.3173L129.379 45.6777L130.264 46.4151L131.396 45.0546L130.511 44.3173Z" fill="#455A64"/>
<path d="M139.633 45.3776L140.488 46.0898L141.613 44.7369L140.759 44.0247L139.633 45.3776Z" fill="#263238"/>
<path d="M140.146 44.2462L141.505 45.3789L142.242 44.4933L140.883 43.3606L140.146 44.2462Z" fill="#455A64"/>
<path d="M143.373 50.6789C143.497 52.0634 143.208 53.4535 142.543 54.6738C141.878 55.894 140.867 56.8896 139.636 57.5348C138.406 58.18 137.012 58.4458 135.631 58.2987C134.25 58.1516 132.943 57.5982 131.876 56.7084C130.809 55.8185 130.03 54.6322 129.636 53.2992C129.243 51.9662 129.253 50.5463 129.665 49.219C130.077 47.8917 130.873 46.7164 131.953 45.8416C133.032 44.9668 134.346 44.4318 135.729 44.3041C136.65 44.2192 137.578 44.3168 138.46 44.5914C139.343 44.8659 140.163 45.3121 140.873 45.9043C141.583 46.4964 142.169 47.223 142.599 48.0423C143.028 48.8616 143.291 49.7576 143.373 50.6789Z" fill="#455A64"/>
<path d="M142.465 53.7788C143.891 50.3572 142.276 46.4259 138.857 44.9981C135.438 43.5704 131.51 45.1867 130.083 48.6083C128.657 52.0299 130.272 55.9612 133.691 57.389C137.11 58.8167 141.038 57.2004 142.465 53.7788Z" fill="#263238"/>
<path d="M142.221 52.1867C142.726 48.9517 140.515 45.9195 137.282 45.414C134.05 44.9086 131.02 47.1213 130.515 50.3564C130.01 53.5914 132.221 56.6236 135.453 57.129C138.686 57.6345 141.716 55.4217 142.221 52.1867Z" fill="white"/>
<path d="M135.928 45.8022L135.815 45.8125L135.897 46.7061L136.009 46.6959L135.928 45.8022Z" fill="#C7C7C7"/>
<path d="M133.837 46.4785L133.745 46.5439L134.265 47.2798L134.357 47.2144L133.837 46.4785Z" fill="#C7C7C7"/>
<path d="M131.415 48.924L131.368 49.0264L132.182 49.4025L132.229 49.3001L131.415 48.924Z" fill="#C7C7C7"/>
<path d="M131.783 51.6449L130.89 51.7266L130.9 51.8389L131.793 51.7572L131.783 51.6449Z" fill="#C7C7C7"/>
<path d="M132.583 53.8761L131.851 54.3936L131.916 54.4857L132.648 53.9683L132.583 53.8761Z" fill="#C7C7C7"/>
<path d="M134.399 55.435L134.023 56.25L134.126 56.2972L134.501 55.4823L134.399 55.435Z" fill="#C7C7C7"/>
<path d="M136.846 55.8423L136.734 55.8525L136.815 56.7462L136.928 56.736L136.846 55.8423Z" fill="#C7C7C7"/>
<path d="M139.067 54.9984L138.975 55.0635L139.492 55.7966L139.584 55.7315L139.067 54.9984Z" fill="#C7C7C7"/>
<path d="M140.568 53.1505L140.521 53.2529L141.335 53.629L141.382 53.5267L140.568 53.1505Z" fill="#C7C7C7"/>
<path d="M141.84 50.7143L140.947 50.7959L140.957 50.9082L141.85 50.8266L141.84 50.7143Z" fill="#C7C7C7"/>
<path d="M140.826 48.0676L140.094 48.585L140.159 48.6771L140.891 48.1597L140.826 48.0676Z" fill="#C7C7C7"/>
<path d="M138.623 46.2634L138.248 47.0781L138.35 47.1254L138.726 46.3106L138.623 46.2634Z" fill="#C7C7C7"/>
<path d="M136.024 47.001L136.71 51.6006L136.112 51.6448L135.862 47.0157L136.024 47.001Z" fill="#263238"/>
<path d="M136.572 51.2572C136.575 51.2837 136.572 51.3104 136.565 51.3358C136.557 51.3612 136.544 51.3849 136.527 51.4054C136.511 51.4259 136.49 51.4429 136.466 51.4553C136.443 51.4678 136.417 51.4754 136.391 51.4779C136.35 51.4827 136.309 51.4751 136.272 51.4562C136.236 51.4374 136.206 51.408 136.186 51.372C136.167 51.3359 136.158 51.2948 136.162 51.2539C136.166 51.2131 136.182 51.1743 136.208 51.1425C136.234 51.1108 136.269 51.0876 136.308 51.0759C136.348 51.0642 136.39 51.0646 136.429 51.0769C136.468 51.0892 136.502 51.113 136.528 51.1451C136.554 51.1772 136.569 51.2163 136.572 51.2572Z" fill="#3FA654"/>
<path d="M134.71 48.8446C135.906 49.9283 133.951 50.7129 133.951 50.7129C133.951 50.7129 137.038 50.2617 137.836 51.8505C138.635 53.4393 136.205 54.2534 136.033 54.3024C136.195 54.3024 139.047 53.9346 139.684 55.6166C140.321 57.2986 137.792 57.8183 137.626 57.8478C137.787 57.8772 139.909 58.2695 140.105 59.6572C140.438 62.0404 134.98 61.1823 133.456 62.3935C133.456 62.3935 135.215 65.2131 135.244 65.3063C135.244 65.3063 130.036 64.5904 128.517 62.4425C128.291 62.1331 128.178 61.7559 128.196 61.3734C128.214 60.9909 128.361 60.626 128.615 60.3388C128.615 60.3388 126.909 60.2947 126.366 58.9903C126.086 58.3185 126.914 57.2789 126.914 57.2789C126.529 57.248 126.16 57.1118 125.848 56.8852C125.535 56.6587 125.29 56.3504 125.141 55.9942C124.807 55.0428 125.689 54.1455 125.689 54.1455C125.689 54.1455 124.42 53.4491 124.396 52.3654C124.347 50.1882 132.157 46.5349 134.71 48.8446Z" fill="#EBB376"/>
<path d="M125.807 53.9936C125.783 53.9936 125.758 53.9936 125.783 53.9593C128.142 52.0522 131.025 50.9081 134.049 50.6787C134.147 50.6787 134.196 50.8307 134.093 50.8552C131.194 51.4958 128.403 52.5529 125.807 53.9936Z" fill="#263238"/>
<path d="M126.87 57.2933C126.841 57.2933 126.811 57.2639 126.841 57.2394C129.461 55.1563 132.738 54.0797 136.082 54.204C136.2 54.204 136.298 54.3364 136.166 54.3364C133.892 54.356 129.281 55.8958 126.87 57.2933Z" fill="#263238"/>
<path d="M137.856 57.9603C134.588 57.872 131.613 58.8381 128.708 60.27C128.669 60.27 128.649 60.2356 128.673 60.2111C129.908 59.1225 131.854 58.4016 133.422 57.9701C134.865 57.5403 136.396 57.498 137.861 57.8475C137.92 57.8622 137.925 57.9603 137.856 57.9603Z" fill="#263238"/>
<path d="M133.98 50.6785C134.093 50.6785 133.98 50.8501 134.093 50.8452C134.583 50.8452 137.523 51.0364 137.753 52.0564C137.944 52.8753 136.979 53.6991 136.484 53.8757L135.24 54.3072L136.563 54.3317C137.148 54.3415 137.729 54.4441 138.283 54.6357C138.543 54.7128 138.785 54.8433 138.992 55.0189C139.2 55.1945 139.369 55.4114 139.488 55.6557C139.595 55.8852 139.619 56.1444 139.558 56.39C139.496 56.6355 139.352 56.8524 139.15 57.0042C138.693 57.337 138.158 57.5464 137.597 57.6123L136.053 57.8526L137.582 58.1321C138.008 58.2073 138.423 58.3376 138.817 58.5195C139.194 58.6796 139.517 58.9452 139.748 59.2845C139.847 59.4414 139.9 59.6234 139.9 59.8091C139.9 59.9949 139.847 60.1769 139.748 60.3338C139.476 60.6516 139.119 60.8848 138.719 61.0057C137.857 61.2772 136.976 61.4822 136.082 61.6186C135.632 61.7069 135.181 61.7902 134.735 61.8981C134.279 61.9779 133.846 62.1552 133.466 62.4179C133.867 62.203 134.307 62.0681 134.759 62.0207C135.21 61.9521 135.661 61.8981 136.117 61.8491C137.04 61.7743 137.954 61.6101 138.846 61.3587C139.332 61.2334 139.77 60.9673 140.105 60.5937C140.266 60.3711 140.358 60.1062 140.371 59.8317C140.383 59.5572 140.314 59.2851 140.174 59.0491C139.903 58.618 139.511 58.2768 139.047 58.0683C138.613 57.8597 138.153 57.708 137.68 57.6172V58.1321C138.345 58.0636 138.98 57.8218 139.522 57.4309C139.818 57.206 140.025 56.8852 140.11 56.5237C140.184 56.1663 140.147 55.7948 140.002 55.4596C139.854 55.1487 139.641 54.8727 139.378 54.6497C139.116 54.4266 138.809 54.2615 138.479 54.165C137.865 53.9616 137.223 53.8589 136.577 53.861L136.651 54.3219C137.273 54.0816 138.454 53.2774 138.317 51.9681C137.856 50.2813 134.573 50.5706 133.98 50.6785Z" fill="#263238"/>
<path d="M133.951 50.7131C134.228 50.5333 134.476 50.3117 134.686 50.056C134.773 49.9551 134.831 49.8329 134.855 49.7019C134.88 49.571 134.868 49.4359 134.823 49.3106C134.683 49.0527 134.472 48.8401 134.216 48.6977C133.941 48.5261 133.642 48.3593 133.329 48.2073C133.687 48.1961 134.044 48.2596 134.377 48.3937C134.754 48.5228 135.064 48.7961 135.24 49.1537C135.322 49.3514 135.337 49.5706 135.283 49.7778C135.229 49.985 135.109 50.1688 134.941 50.3012C134.665 50.5436 134.317 50.6883 133.951 50.7131Z" fill="#263238"/>
<path d="M175.522 48.9374C174.003 53.3801 171.886 59.8726 171.886 59.8726L167.035 59.0733L159.195 57.7837C159.195 57.7837 165.698 48.7952 171.769 44.0141C174.865 41.5622 176.179 41.6162 176.571 42.793C176.997 44.0827 176.296 46.6964 175.522 48.9374Z" fill="#3FA654"/>
<path opacity="0.1" d="M175.522 48.9373C174.003 53.38 171.887 59.8725 171.887 59.8725L167.036 59.0732L176.591 42.7979C176.997 44.0826 176.297 46.6963 175.522 48.9373Z" fill="#333333"/>
<path d="M172.156 56.9796C168.728 56.2838 165.258 55.8137 161.768 55.5723C161.724 55.5723 161.719 55.6409 161.768 55.6458C162.748 55.7292 167.618 56.6266 172.156 57.0581C172.205 57.0532 172.205 56.9894 172.156 56.9796Z" fill="#263238"/>
<path d="M199.268 81.3026C199.199 81.3957 167.775 83.8868 167.418 83.5681C166.952 83.1268 170.27 53.1112 172.279 46.2558C174.288 39.4005 180.922 38.5668 183.769 42.0239C192.672 52.8219 199.513 80.9642 199.268 81.3026Z" fill="#3FA654"/>
<path d="M182.118 45.7751C184.568 48.4427 197.626 57.7793 198.156 58.8532C198.685 59.9272 194.824 65.0466 194.917 65.5027C195.304 67.3514 200.9 80.5913 202.37 79.1202C204.33 77.198 212.767 62.0406 210.886 56.9898C209.004 51.939 186.386 41.8963 182.897 41.1999C179.408 40.5036 179.692 43.1173 182.118 45.7751Z" fill="#EBB376"/>
<path d="M195.96 81.9837C194.515 81.0961 196.382 79.8996 196.382 79.8996C196.382 79.8996 193.275 80.9735 192.138 79.4877C191.002 78.0019 193.354 76.6828 193.52 76.5798C193.354 76.6338 190.477 77.5605 189.488 75.9374C188.498 74.3143 191.011 73.2845 191.178 73.2208C191.007 73.2208 188.728 73.2208 188.238 71.8379C187.425 69.4351 193.937 68.8516 195.274 67.302C195.274 67.302 194.495 64.1195 194.441 64.0312C194.901 64.7254 195.581 65.2438 196.372 65.5024C197.798 65.8358 199.082 65.9927 199.684 66.6596C199.965 66.9439 200.147 67.3112 200.202 67.7069C200.258 68.1026 200.185 68.5058 199.993 68.8565C199.993 68.8565 201.767 68.5672 202.59 69.8127C203.007 70.4502 202.355 71.6908 202.355 71.6908C202.355 71.6908 203.786 71.5192 204.442 72.6716C204.972 73.5935 204.237 74.6919 204.237 74.6919C204.237 74.6919 205.707 75.1823 205.922 76.2807C206.422 78.5462 199.057 83.8716 195.96 81.9837Z" fill="#EBB376"/>
<path d="M204.167 74.9072C204.192 74.9072 204.221 74.9072 204.202 74.9366C202.136 77.3806 199.376 79.1372 196.288 79.9727C196.19 79.9727 196.107 79.8502 196.21 79.8011C199.085 78.5638 201.765 76.9153 204.167 74.9072Z" fill="#263238"/>
<path d="M202.423 71.701C202.448 71.6765 202.487 71.701 202.463 71.7501C200.395 74.1529 197.073 76.2762 193.491 76.7077C193.368 76.7077 193.241 76.6145 193.383 76.5851C195.73 76.1193 200.194 73.6184 202.423 71.701Z" fill="#263238"/>
<path d="M190.918 73.1672C194.324 72.618 197.205 71.0341 199.934 68.9795C199.973 68.9795 200.008 69.004 199.983 69.0383C198.92 70.4065 197.043 71.5343 195.51 72.2846C194.098 73.0061 192.521 73.3443 190.938 73.2653C190.874 73.28 190.845 73.1771 190.918 73.1672Z" fill="#263238"/>
<path d="M201.708 49.207L193.148 57.813C193.148 57.813 185.93 50.6045 182.804 47.1033C179.776 43.7099 176.507 38.816 184.196 41.1159C191.59 43.3225 201.708 49.207 201.708 49.207Z" fill="#3FA654"/>
<path d="M199.219 48.2266C196.65 50.6024 194.241 53.1448 192.006 55.8371C191.977 55.8715 192.035 55.9205 192.065 55.8813C192.712 55.1359 196.284 51.7082 199.283 48.2756C199.317 48.2266 199.258 48.1972 199.219 48.2266Z" fill="#263238"/>
<path d="M194.917 56.0333C194.647 56.357 194.368 56.6659 194.093 56.9846C193.819 57.3034 193.535 57.6074 193.251 57.9163L193.157 58.0144L193.045 57.9163C192.31 57.2625 191.589 56.5891 190.884 55.896C190.178 55.2046 189.482 54.5132 188.796 53.8021C188.11 53.0911 187.439 52.3702 186.787 51.6298C186.136 50.8893 185.494 50.1587 184.891 49.3594C185.611 50.0312 186.327 50.7128 187.028 51.3993C187.728 52.0858 188.439 52.7724 189.135 53.4687L191.212 55.5675C191.898 56.2687 192.574 56.9846 193.251 57.7055H193.059C193.363 57.4211 193.672 57.1366 193.99 56.862C194.309 56.5874 194.593 56.303 194.917 56.0333Z" fill="#263238"/>
<path d="M185.44 50.7178C185.847 50.9482 186.204 51.1787 186.577 51.4239C186.953 51.6701 187.306 51.9508 187.63 52.2624C187.178 52.1739 186.749 51.9918 186.371 51.7279C185.977 51.4792 185.656 51.1308 185.44 50.7178Z" fill="#263238"/>
<path d="M176.272 46.6718C177.997 47.0935 180.408 44.2543 181.054 41.9741C181.098 41.8171 179.633 36.3593 179.379 35.2462C179.33 35.0157 172.793 38.5366 172.793 38.5366C173.51 39.8351 174.064 41.2168 174.444 42.6508C174.479 42.8121 174.498 42.9763 174.503 43.1411C174.501 43.1673 174.501 43.1935 174.503 43.2196C174.567 44.0974 175.39 46.4511 176.272 46.6718Z" fill="#EBB376"/>
<path d="M174.508 43.2006C174.753 43.1771 174.995 43.1345 175.233 43.0731C178.874 42.1561 179.153 37.375 179.114 35.3105C177.879 35.8009 172.793 38.5323 172.793 38.5323C173.51 39.8341 174.065 41.2191 174.444 42.6563C174.479 42.8176 174.499 42.9817 174.503 43.1467C174.504 43.1647 174.505 43.1827 174.508 43.2006Z" fill="#263238"/>
<path d="M178.031 26.4448C179.501 28.6465 180.364 36.0511 179.114 38.1401C177.301 41.1706 173.269 42.6368 170.432 40.2094C167.678 37.8606 166.737 28.1905 168.231 26.1849C170.436 23.2181 175.851 23.1887 178.031 26.4448Z" fill="#EBB376"/>
<path d="M172.685 32.5791C172.685 32.5791 172.724 32.5791 172.729 32.6183C172.773 33.1087 172.906 33.6873 173.376 33.7952V33.8246C172.817 33.8148 172.646 33.0597 172.685 32.5791Z" fill="#263238"/>
<path d="M173.067 32.0048C173.861 31.8479 174.116 33.4759 173.381 33.5936C172.646 33.7113 172.401 32.1372 173.067 32.0048Z" fill="#263238"/>
<path d="M169.824 32.9023C169.824 32.9023 169.79 32.9318 169.79 32.9514C169.888 33.4418 169.912 34.0253 169.491 34.2607C169.491 34.2607 169.491 34.295 169.491 34.2901C170.03 34.1234 169.991 33.3535 169.824 32.9023Z" fill="#263238"/>
<path d="M169.299 32.4567C168.491 32.5253 168.682 34.1337 169.432 34.07C170.181 34.0062 169.976 32.3978 169.299 32.4567Z" fill="#263238"/>
<path d="M173.459 30.5738C173.244 30.6522 173.033 30.6915 172.817 30.7503C172.599 30.8435 172.356 30.8625 172.126 30.8042C172.058 30.7713 172.003 30.7171 171.969 30.6499C171.934 30.5827 171.922 30.506 171.935 30.4316C171.984 30.2888 172.071 30.1617 172.185 30.0634C172.3 29.9651 172.438 29.8993 172.587 29.8725C172.881 29.7715 173.202 29.782 173.489 29.902C173.552 29.9336 173.605 29.9832 173.642 30.0445C173.678 30.1058 173.695 30.1763 173.692 30.2474C173.689 30.3186 173.665 30.3873 173.624 30.4452C173.583 30.5031 173.525 30.5478 173.459 30.5738Z" fill="#263238"/>
<path d="M168.481 32.2604C168.706 32.2604 168.917 32.2261 169.142 32.2065C169.379 32.2182 169.613 32.1528 169.809 32.0201C169.861 31.9654 169.894 31.8952 169.903 31.8199C169.912 31.7447 169.896 31.6687 169.858 31.6033C169.764 31.4852 169.639 31.395 169.497 31.3423C169.356 31.2896 169.203 31.2765 169.054 31.3042C168.744 31.3068 168.446 31.4278 168.221 31.6425C168.173 31.6944 168.141 31.759 168.129 31.8287C168.116 31.8984 168.124 31.9701 168.152 32.0354C168.179 32.1006 168.225 32.1565 168.283 32.1964C168.342 32.2363 168.41 32.2585 168.481 32.2604Z" fill="#263238"/>
<path d="M173.126 35.595C173.031 35.8117 172.893 36.0063 172.719 36.1667C172.545 36.327 172.34 36.4496 172.117 36.5267C171.923 36.5986 171.72 36.6415 171.514 36.6542H171.289C171.261 36.6536 171.234 36.6436 171.213 36.6258C171.191 36.608 171.176 36.5834 171.171 36.5561C171.168 36.5382 171.168 36.5201 171.171 36.5022V36.458C171.097 36.0804 171.044 35.4773 171.044 35.4773C170.911 35.5705 170.255 36.0069 170.235 35.8058C170.005 34.0766 169.95 32.3285 170.073 30.5883C170.073 30.5344 170.161 30.5344 170.166 30.5883C170.387 32.182 170.328 33.81 170.524 35.4135C170.758 35.2538 171.014 35.1298 171.284 35.0458C171.337 35.0458 171.367 36.1785 171.416 36.3501C171.734 36.3321 172.044 36.2503 172.33 36.1096C172.615 35.9689 172.869 35.7722 173.077 35.5312C173.102 35.5263 173.146 35.5508 173.126 35.595Z" fill="#263238"/>
<path d="M171.729 36.4824C171.993 36.7085 172.31 36.8637 172.651 36.9335C172.837 36.966 173.029 36.9385 173.199 36.855C173.572 36.6736 173.508 36.3107 173.371 36.0165C173.299 35.8609 173.208 35.7144 173.101 35.5801C172.752 36.0196 172.271 36.3357 171.729 36.4824Z" fill="#263238"/>
<path d="M172.651 36.9482C172.838 36.9807 173.03 36.9533 173.2 36.8698C173.572 36.6883 173.508 36.3255 173.371 36.0312C173.165 36.08 172.982 36.1973 172.851 36.3638C172.72 36.5304 172.65 36.7364 172.651 36.9482Z" fill="#FF99BA"/>
<path d="M178.55 31.608C177.335 31.8875 176.59 28.9306 176.59 28.9306C176.59 28.9306 174.675 29.1365 173.053 26.8955C173.053 26.8955 171.142 29.0531 169.074 29.2689C165.83 29.6073 164.747 25.5813 165.644 24.429C166.942 22.796 170.343 23.6297 170.343 23.6297C170.343 23.6297 174.385 21.119 176.566 23.713C177.15 23.5832 177.762 23.6808 178.277 23.9859C178.792 24.291 179.172 24.7807 179.339 25.3558C180.118 27.4889 179.457 31.402 178.55 31.608Z" fill="#263238"/>
<path d="M177.129 29.1514C176.193 29.2614 175.246 29.0561 174.439 28.5678C174.014 28.2988 173.658 27.932 173.402 27.4979C173.147 27.0638 172.998 26.5749 172.969 26.0718C172.969 26.0179 172.881 26.0228 172.886 26.0718C172.892 26.605 173.015 27.1303 173.246 27.6108C173.477 28.0912 173.811 28.515 174.224 28.8522C174.636 29.1701 175.126 29.3726 175.643 29.439C176.159 29.5053 176.684 29.4331 177.164 29.2298C177.171 29.2238 177.177 29.2154 177.179 29.2058C177.182 29.1963 177.181 29.1862 177.177 29.1772C177.173 29.1682 177.166 29.1607 177.158 29.1561C177.149 29.1514 177.139 29.1497 177.129 29.1514Z" fill="#263238"/>
<path d="M179.134 24.0415C178.305 23.4482 177.34 23.6002 176.439 23.8993C176.385 23.8993 176.414 23.9974 176.463 23.9778C176.914 23.828 177.397 23.8018 177.861 23.9018C178.326 24.0018 178.755 24.2245 179.104 24.5466C179.775 25.1351 179.932 26.0766 179.981 26.9298C180.08 28.5757 179.567 30.2 178.541 31.4902C178.541 31.4902 178.541 31.5393 178.57 31.4902C179.169 30.8148 179.625 30.0243 179.909 29.1668C180.193 28.3094 180.299 27.4031 180.221 26.5032C180.133 25.6205 179.898 24.5858 179.134 24.0415Z" fill="#263238"/>
<path d="M178.271 32.6184C178.271 32.6184 179.222 29.8871 180.417 30.1666C181.613 30.4461 181.348 34.0895 180.26 34.8839C180.128 34.9962 179.975 35.0804 179.809 35.1315C179.644 35.1826 179.469 35.1995 179.297 35.1811C179.125 35.1628 178.958 35.1096 178.807 35.0248C178.656 34.94 178.523 34.8253 178.418 34.6878L178.271 32.6184Z" fill="#EBB376"/>
<path d="M180.32 31.2061V31.2355C179.57 31.8239 179.34 32.7409 179.261 33.6481C179.284 33.5455 179.329 33.4493 179.394 33.3665C179.458 33.2837 179.541 33.2163 179.635 33.1694C179.728 33.1224 179.832 33.097 179.937 33.0949C180.042 33.0929 180.146 33.1144 180.241 33.1577C180.271 33.1577 180.241 33.2068 180.241 33.2117C180.079 33.2042 179.919 33.2475 179.783 33.3354C179.647 33.4233 179.542 33.5514 179.482 33.702C179.382 33.9566 179.312 34.2214 179.271 34.4915C179.271 34.5798 179.104 34.5749 179.109 34.4915C178.766 33.4029 179.183 31.6425 180.32 31.2061Z" fill="#263238"/>
<path d="M24.2212 215.315C23.8586 214.128 24.7896 179.689 25.6226 178.424C25.6789 178.363 25.7497 178.318 25.8284 178.292C26.8574 177.914 31.2184 178.64 36.6084 178.601L40.7881 178.792L58.0557 179.626L57.6 202.08L40.2148 200.609L36.1625 200.241C36.1625 200.241 30.1159 212.99 29.0526 214.251C27.9893 215.511 24.5887 216.492 24.2212 215.315Z" fill="#D3766A"/>
<path d="M24.2212 215.315C23.8586 214.128 24.7896 179.689 25.6226 178.424C25.6789 178.363 25.7497 178.318 25.8284 178.292C26.8574 177.914 31.2184 178.64 36.6084 178.601L40.7881 178.792L40.2148 200.594L36.1625 200.241C36.1625 200.241 30.1159 212.99 29.0526 214.251C27.9893 215.511 24.5887 216.492 24.2212 215.315Z" fill="white"/>
<path d="M24.226 215.31C23.8585 214.128 24.7895 179.685 25.6274 178.424C25.941 177.934 30.5274 177.753 36.5936 178.601L36.1624 200.241C36.1624 200.241 30.1207 212.991 29.0525 214.256C27.9843 215.521 24.5886 216.492 24.226 215.31Z" fill="#3FA654"/>
<path d="M25.5783 214.859C25.8478 209.235 26.3917 186.526 26.23 180.945C26.23 180.901 26.2006 180.901 26.1957 180.945C25.8086 186.511 25.446 209.23 25.4803 214.859C25.4803 214.977 25.5734 214.982 25.5783 214.859Z" fill="#263238"/>
<path d="M30.3068 212.123C30.3392 211.497 30.2409 210.872 30.0182 210.287C29.7954 209.702 29.4531 209.17 29.0132 208.724C28.2285 207.917 27.1635 207.443 26.0389 207.4C26.0046 207.4 26.0046 207.459 26.0389 207.464C27.148 207.682 28.1566 208.254 28.9137 209.094C29.6707 209.933 30.1355 210.996 30.2382 212.123C30.2382 212.132 30.2418 212.14 30.2483 212.147C30.2547 212.153 30.2634 212.157 30.2725 212.157C30.2816 212.157 30.2903 212.153 30.2968 212.147C30.3032 212.14 30.3068 212.132 30.3068 212.123Z" fill="#263238"/>
<path d="M35.55 202.418C35.6333 200.168 34.8983 197.539 33.1 196.098C33.0314 196.039 32.953 196.142 32.9873 196.205C33.9708 198.201 34.7396 200.295 35.2805 202.453C35.293 202.481 35.3141 202.503 35.3407 202.518C35.3672 202.533 35.3978 202.539 35.4279 202.535C35.4581 202.531 35.4862 202.518 35.5082 202.497C35.5302 202.476 35.5448 202.448 35.55 202.418Z" fill="#263238"/>
<path d="M34.8347 204.164C34.918 201.908 34.183 199.26 32.3847 197.838C32.3112 197.784 32.2328 197.882 32.2671 197.951C33.2497 199.934 34.0168 202.017 34.5554 204.164C34.5615 204.196 34.5788 204.226 34.6043 204.247C34.6298 204.268 34.6619 204.28 34.695 204.28C34.7282 204.28 34.7603 204.268 34.7858 204.247C34.8113 204.226 34.8286 204.196 34.8347 204.164Z" fill="#263238"/>
<path d="M34.1145 205.866C34.1978 203.615 33.4628 200.962 31.6645 199.54C31.5959 199.486 31.5175 199.584 31.5518 199.653C32.5376 201.647 33.308 203.742 33.8499 205.9C33.8609 205.929 33.8812 205.953 33.9077 205.969C33.9341 205.985 33.9651 205.991 33.9957 205.987C34.0263 205.983 34.0546 205.969 34.0761 205.947C34.0977 205.925 34.1112 205.896 34.1145 205.866Z" fill="#263238"/>
<path d="M33.3987 207.597C33.482 205.346 32.747 202.693 30.9487 201.276C30.8801 201.217 30.8017 201.32 30.8311 201.389C31.819 203.381 32.5895 205.474 33.1292 207.631C33.1417 207.659 33.1628 207.682 33.1893 207.697C33.2158 207.712 33.2464 207.718 33.2766 207.714C33.3067 207.71 33.3349 207.697 33.3568 207.676C33.3788 207.655 33.3935 207.627 33.3987 207.597Z" fill="#263238"/>
<path d="M31.542 182.499C31.591 179.974 27.6661 179.89 27.622 182.421C27.5779 184.951 31.4881 185.039 31.542 182.499Z" fill="#263238"/>
<path d="M41.4987 204.993C42.4787 203.875 41.582 202.414 40.6167 201.688C38.9364 200.476 36.9683 199.725 34.9082 199.511C34.8592 199.511 34.8396 199.54 34.8445 199.579C34.8018 199.587 34.7615 199.605 34.7271 199.632C34.6926 199.658 34.6649 199.692 34.6462 199.732C34.6276 199.771 34.6185 199.814 34.6197 199.857C34.621 199.901 34.6325 199.943 34.6534 199.981C35.7216 201.61 36.6673 203.483 38.2059 204.738C39.1026 205.469 40.5824 206.047 41.4987 204.993ZM36.78 202.12C36.2361 201.33 35.7314 200.521 35.1532 199.751C36.2778 200.142 37.3817 200.591 38.4607 201.095C38.9785 201.348 39.4794 201.635 39.9601 201.953C40.6902 202.443 42.5228 204.714 40.0679 204.895C38.7106 204.973 37.4317 203.056 36.78 202.12Z" fill="#263238"/>
<path d="M34.2024 193.895C33.8545 195.857 34.369 197.882 34.6238 199.819C34.6333 199.861 34.6526 199.901 34.6802 199.934C34.7077 199.967 34.7427 199.993 34.7824 200.011C34.822 200.028 34.8651 200.035 34.9083 200.033C34.9514 200.03 34.9933 200.017 35.0305 199.996C35.036 200.003 35.0431 200.008 35.0511 200.012C35.0592 200.016 35.0681 200.018 35.0771 200.018C35.0861 200.018 35.0949 200.016 35.103 200.012C35.1111 200.008 35.1181 200.003 35.1236 199.996C36.5443 198.483 37.5415 196.623 38.0146 194.601C38.2743 193.42 38.0146 191.733 36.5446 191.522C35.1432 191.345 34.4033 192.753 34.2024 193.895ZM35.5156 192.562C37.4756 191.09 37.5687 193.988 37.3482 194.852C37.1917 195.406 37.0002 195.95 36.7749 196.48C36.3192 197.588 35.7116 198.613 35.153 199.662C35.0844 198.706 34.9374 197.759 34.8345 196.808C34.712 195.67 34.4327 193.376 35.5156 192.562Z" fill="#263238"/>
<path d="M72.6969 132.359C70.9721 141.838 77.9448 177.63 75.1469 179.366C72.6969 180.891 54.6992 179.366 54.6992 179.366V201.923C54.6992 201.923 77.0236 205.557 88.8424 201.364C90.7779 200.678 93.1005 198.343 95.5456 195.112C104.248 183.608 94.7518 131.923 94.7518 131.923L72.6969 132.359Z" fill="#263238"/>
<path d="M61.9216 191.954H57.4087L62.147 179.856C63.5876 179.925 65.087 179.989 66.5913 180.018L61.9216 191.954Z" fill="#3FA654"/>
<path d="M69.801 191.954H65.2979L69.9627 180.038C71.5365 180.068 73.1085 179.915 74.647 179.582L69.801 191.954Z" fill="#3FA654"/>
<path d="M98.7257 162.9L74.4462 159.81C73.2359 149.189 71.8051 137.253 72.6969 132.349L94.7469 131.918C94.7469 131.918 97.5595 147.144 98.7257 162.9Z" fill="#37474F"/>
<path d="M156.888 216.281C155.707 216.654 121.285 216.036 120.016 215.217C119.956 215.162 119.91 215.093 119.884 215.016C119.497 213.987 120.178 209.622 120.094 204.228C120.094 204.13 120.158 202.443 120.246 200.045L120.462 184.354L142.727 184.604L142.036 200.433L141.728 204.483C141.728 204.483 154.497 210.417 155.781 211.466C157.065 212.515 158.064 215.904 156.888 216.281Z" fill="#D3766A"/>
<path d="M156.888 216.281C155.707 216.654 121.285 216.036 120.016 215.217C119.956 215.162 119.91 215.093 119.884 215.016C119.497 213.986 120.178 209.622 120.094 204.228C120.094 204.13 120.158 202.443 120.246 200.045L142.036 200.418L141.728 204.468C141.728 204.468 154.497 210.402 155.781 211.451C157.065 212.5 158.064 215.903 156.888 216.281Z" fill="white"/>
<path d="M156.889 216.276C155.708 216.653 121.285 216.041 120.016 215.212C119.526 214.903 119.301 210.308 120.094 204.237L141.728 204.473C141.728 204.473 154.492 210.401 155.786 211.456C157.08 212.51 158.065 215.903 156.889 216.276Z" fill="#3FA654"/>
<path d="M156.423 214.952C150.803 214.736 128.106 214.393 122.53 214.609C122.486 214.609 122.486 214.643 122.53 214.643C128.096 214.981 150.798 215.133 156.423 215.045C156.541 215.016 156.545 214.952 156.423 214.952Z" fill="#263238"/>
<path d="M153.645 210.22C153.02 210.195 152.397 210.3 151.815 210.529C151.233 210.758 150.704 211.105 150.264 211.549C149.462 212.34 148.996 213.41 148.965 214.536C148.965 214.57 149.029 214.57 149.034 214.536C149.239 213.424 149.8 212.409 150.632 211.643C151.463 210.877 152.52 210.402 153.645 210.289C153.649 210.289 153.654 210.288 153.658 210.287C153.662 210.285 153.666 210.282 153.669 210.279C153.672 210.276 153.675 210.272 153.677 210.268C153.678 210.264 153.679 210.259 153.679 210.255C153.679 210.25 153.678 210.246 153.677 210.242C153.675 210.238 153.672 210.234 153.669 210.231C153.666 210.227 153.662 210.225 153.658 210.223C153.654 210.221 153.649 210.22 153.645 210.22Z" fill="#263238"/>
<path d="M143.899 205.061C141.65 204.998 139.028 205.758 137.607 207.582C137.549 207.65 137.651 207.729 137.72 207.695C139.703 206.69 141.787 205.901 143.938 205.341C143.972 205.332 144.001 205.311 144.02 205.282C144.039 205.253 144.047 205.218 144.042 205.184C144.037 205.149 144.02 205.118 143.994 205.095C143.967 205.073 143.934 205.061 143.899 205.061Z" fill="#263238"/>
<path d="M145.629 205.763C143.379 205.704 140.758 206.459 139.332 208.283C139.278 208.357 139.381 208.431 139.445 208.401C141.427 207.394 143.512 206.604 145.663 206.042C145.696 206.034 145.725 206.013 145.744 205.985C145.763 205.956 145.771 205.922 145.767 205.888C145.763 205.854 145.746 205.822 145.721 205.799C145.696 205.777 145.663 205.764 145.629 205.763Z" fill="#263238"/>
<path d="M147.358 206.469C145.109 206.405 142.487 207.165 141.061 208.984C141.008 209.058 141.106 209.136 141.174 209.102C143.156 208.094 145.241 207.303 147.392 206.743C147.429 206.739 147.462 206.72 147.484 206.691C147.507 206.662 147.517 206.625 147.512 206.589C147.508 206.552 147.489 206.519 147.46 206.497C147.431 206.474 147.394 206.464 147.358 206.469Z" fill="#263238"/>
<path d="M149.088 207.17C146.834 207.106 144.217 207.866 142.791 209.69C142.738 209.759 142.836 209.837 142.904 209.803C144.888 208.799 146.972 208.008 149.122 207.444C149.14 207.442 149.158 207.436 149.173 207.427C149.189 207.418 149.203 207.406 149.214 207.392C149.225 207.378 149.234 207.361 149.238 207.344C149.243 207.326 149.245 207.308 149.242 207.29C149.24 207.272 149.234 207.254 149.225 207.239C149.216 207.223 149.204 207.209 149.19 207.198C149.176 207.187 149.159 207.178 149.142 207.174C149.124 207.169 149.106 207.167 149.088 207.17Z" fill="#263238"/>
<path d="M124.034 209.259C121.511 209.23 121.462 213.157 123.995 213.182C126.528 213.206 126.568 209.288 124.034 209.259Z" fill="#263238"/>
<path d="M146.417 199.084C145.29 198.103 143.845 199.025 143.125 200.001C141.928 201.693 141.196 203.67 141.003 205.733C141.003 205.782 141.032 205.802 141.072 205.797C141.08 205.839 141.098 205.879 141.125 205.913C141.152 205.947 141.186 205.974 141.225 205.992C141.264 206.01 141.307 206.019 141.35 206.018C141.393 206.016 141.436 206.004 141.473 205.983C143.09 204.9 144.957 203.934 146.192 202.384C146.912 201.477 147.491 199.996 146.417 199.084ZM143.571 203.836C142.787 204.39 141.983 204.9 141.219 205.483C141.6 204.355 142.038 203.247 142.532 202.163C142.78 201.641 143.063 201.137 143.379 200.653C143.869 199.918 146.114 198.064 146.319 200.521C146.427 201.874 144.521 203.183 143.571 203.836Z" fill="#263238"/>
<path d="M135.397 206.489C137.357 206.817 139.381 206.288 141.311 205.998C141.354 205.988 141.393 205.968 141.426 205.94C141.46 205.912 141.486 205.877 141.503 205.837C141.52 205.797 141.528 205.753 141.525 205.71C141.522 205.666 141.51 205.624 141.488 205.586C141.495 205.581 141.501 205.574 141.505 205.566C141.509 205.558 141.511 205.549 141.511 205.54C141.511 205.531 141.509 205.522 141.505 205.514C141.501 205.506 141.495 205.499 141.488 205.493C139.971 204.088 138.113 203.105 136.098 202.644C134.912 202.404 133.231 202.698 133.035 204.164C132.839 205.572 134.26 206.297 135.397 206.489ZM134.055 205.189C132.56 203.228 135.456 203.12 136.323 203.336C136.88 203.483 137.425 203.67 137.955 203.895C139.047 204.371 140.113 204.903 141.15 205.488C140.194 205.562 139.253 205.719 138.303 205.832C137.166 205.964 134.878 206.268 134.055 205.189Z" fill="#263238"/>
<path d="M142.331 193.665H120.281C120.281 193.665 121.123 157.775 118.752 157.868C112.416 158.05 85.7258 164.037 75.4064 157.118C65.1948 150.253 71.3982 132.379 71.3982 132.379L95.222 131.889C95.4477 132.603 95.5423 133.352 95.5013 134.1C95.5013 134.1 127.547 132.193 136.044 138.352C138.827 140.367 142.414 145.668 142.904 150.827C144.266 165.474 142.331 193.665 142.331 193.665Z" fill="#263238"/>
<path d="M129.885 175.232L120.408 179.415C120.408 177.91 120.408 176.365 120.379 174.835L129.689 170.721L129.885 175.232Z" fill="#3FA654"/>
<path d="M130.213 183.078L120.364 187.422C120.364 186.03 120.394 184.48 120.403 182.818L130.027 178.571L130.213 183.078Z" fill="#3FA654"/>
<path d="M86.2944 108.684C96.4717 115.309 104.733 117.197 106.987 117.354C112.647 117.746 120.026 118.423 124.064 117.422C125.558 117.055 120.585 103.584 118.977 103.927C113.94 105.011 105.899 106.1 105.703 106.11C104.302 106.178 93.8992 103.962 86.7158 103.256C83.5945 102.947 84.2805 107.385 86.2944 108.684Z" fill="#D3766A"/>
<path d="M127.807 116.584C125.068 117.805 118.497 118.099 116.87 117.564C115.243 117.03 114.386 105.845 115.68 104.668C116.973 103.491 126.523 100.112 129.483 100.892C132.442 101.672 130.649 115.324 127.807 116.584Z" fill="#D3766A"/>
<path d="M132.899 97.9708L132.911 93.1357L118.73 93.1011L118.718 97.9361L132.899 97.9708Z" fill="#455A64"/>
<path d="M131.726 93.132L131.731 90.8076L119.918 90.7787L119.912 93.1031L131.726 93.132Z" fill="#455A64"/>
<path d="M119.908 91.9326L119.905 93.0947L131.719 93.1236L131.722 91.9614L119.908 91.9326Z" fill="#263238"/>
<path d="M118.663 117.294L118.651 122.129L132.832 122.164L132.844 117.329L118.663 117.294Z" fill="#455A64"/>
<path d="M119.836 122.131L119.83 124.455L131.644 124.484L131.65 122.16L119.836 122.131Z" fill="#455A64"/>
<path d="M119.834 122.13L119.832 123.292L131.645 123.321L131.648 122.159L119.834 122.13Z" fill="#263238"/>
<path d="M127.857 117.324L127.897 97.959L123.708 97.9502L123.667 117.315L127.857 117.324Z" fill="#37474F"/>
<path d="M124.686 100.603C123.779 101.907 125.832 102.231 125.832 102.231C125.832 102.231 122.76 102.476 122.344 104.193C121.927 105.909 124.441 106.154 124.622 106.154C124.46 106.154 121.643 106.468 121.398 108.223C121.153 109.979 123.706 109.93 123.872 109.92C123.721 109.984 121.765 110.832 121.883 112.21C122.089 114.579 127.155 112.544 128.89 113.377C128.89 113.377 127.822 116.481 127.807 116.574C127.807 116.574 132.668 114.74 133.658 112.333C133.807 111.985 133.833 111.596 133.731 111.232C133.629 110.867 133.407 110.548 133.099 110.327C133.099 110.327 134.736 109.91 134.971 108.532C135.089 107.821 134.059 107.002 134.059 107.002C134.423 106.888 134.749 106.675 135 106.388C135.252 106.101 135.42 105.75 135.485 105.374C135.598 104.394 134.549 103.712 134.549 103.712C134.549 103.712 135.618 102.761 135.402 101.716C134.971 99.6125 126.636 97.8129 124.686 100.603Z" fill="#D3766A"/>
<path d="M134.109 107.002C134.138 107.002 134.153 106.963 134.109 106.943C131.126 105.528 127.735 105.225 124.549 106.09C124.436 106.124 124.373 106.261 124.5 106.237C126.695 105.727 131.473 106.193 134.109 107.002Z" fill="#263238"/>
<path d="M123.671 110.077C126.803 109.268 129.875 109.542 132.981 110.278C132.988 110.276 132.993 110.271 132.997 110.265C133.001 110.26 133.003 110.253 133.003 110.246C133.003 110.239 133.001 110.233 132.997 110.227C132.993 110.221 132.988 110.217 132.981 110.214C131.556 109.435 129.517 109.175 127.915 109.101C126.43 109.009 124.946 109.309 123.613 109.969C123.588 110.013 123.603 110.092 123.671 110.077Z" fill="#263238"/>
<path d="M125.832 102.23C125.247 102.342 124.673 102.506 124.117 102.721C123.57 102.898 123.079 103.218 122.696 103.648C122.531 103.854 122.449 104.115 122.466 104.378C122.483 104.646 122.57 104.904 122.716 105.129C122.882 105.338 123.09 105.51 123.326 105.634C123.562 105.758 123.822 105.831 124.088 105.849L125.382 105.992L124.117 106.31C123.554 106.446 123.016 106.673 122.525 106.982C122.289 107.112 122.084 107.291 121.923 107.507C121.762 107.722 121.648 107.97 121.589 108.233C121.536 108.477 121.569 108.732 121.683 108.954C121.796 109.177 121.983 109.353 122.211 109.454C122.725 109.675 123.287 109.759 123.843 109.699L125.382 109.586L123.97 110.17C123.576 110.336 123.206 110.554 122.868 110.817C122.54 111.054 122.286 111.381 122.138 111.758C122.079 111.932 122.071 112.119 122.113 112.298C122.156 112.476 122.247 112.639 122.378 112.769C122.711 113.014 123.107 113.158 123.52 113.185C124.41 113.256 125.305 113.256 126.195 113.185C126.646 113.185 127.102 113.151 127.552 113.156C128.009 113.132 128.465 113.208 128.89 113.377C128.456 113.258 128.004 113.225 127.557 113.278C127.111 113.313 126.661 113.362 126.215 113.416C125.308 113.544 124.391 113.588 123.476 113.548C122.98 113.533 122.5 113.372 122.094 113.087C121.889 112.909 121.742 112.675 121.668 112.413C121.595 112.152 121.6 111.875 121.682 111.616C121.849 111.139 122.155 110.722 122.559 110.42C122.93 110.122 123.339 109.874 123.774 109.684L123.902 110.174C123.236 110.257 122.56 110.164 121.942 109.905C121.61 109.751 121.34 109.488 121.177 109.159C121.032 108.83 120.988 108.465 121.05 108.11C121.124 107.778 121.268 107.465 121.471 107.192C121.675 106.919 121.934 106.692 122.231 106.526C122.776 106.194 123.372 105.953 123.995 105.815L124.024 106.276C123.695 106.242 123.377 106.137 123.093 105.967C122.809 105.798 122.565 105.569 122.378 105.295C122.209 105.01 122.118 104.685 122.113 104.354C122.109 104.018 122.228 103.692 122.447 103.437C122.885 102.993 123.438 102.681 124.044 102.534C124.627 102.366 125.227 102.264 125.832 102.23Z" fill="#263238"/>
<path d="M117.204 103.8C117.204 103.8 125.867 94.4833 127.851 99.6469C128.439 101.187 129.027 108.204 127.621 108.351C125.808 108.537 125.014 105.654 124.804 103.766C124.804 103.766 122.305 107.356 119.291 106.355C118.742 106.163 118.256 105.823 117.887 105.372C117.519 104.921 117.282 104.377 117.204 103.8Z" fill="#D3766A"/>
<path d="M127.66 99.2246C127.962 99.8014 128.179 100.419 128.302 101.059C128.444 101.693 128.543 102.337 128.596 102.986C128.726 104.289 128.743 105.602 128.645 106.909C128.616 107.254 128.54 107.594 128.42 107.919C128.348 108.105 128.236 108.272 128.092 108.409C128.014 108.487 127.923 108.551 127.822 108.596C127.723 108.639 127.617 108.666 127.508 108.674C127.12 108.707 126.733 108.601 126.416 108.375C126.129 108.162 125.882 107.899 125.686 107.6C125.323 107.031 125.061 106.404 124.911 105.747C124.754 105.101 124.643 104.446 124.578 103.785L124.99 103.883C124.693 104.284 124.356 104.653 123.985 104.986C123.623 105.323 123.225 105.621 122.8 105.874C122.372 106.126 121.909 106.314 121.428 106.433C120.947 106.551 120.447 106.574 119.958 106.502C120.437 106.508 120.914 106.434 121.369 106.281C121.818 106.124 122.243 105.906 122.633 105.634C123.024 105.368 123.387 105.062 123.716 104.722C124.046 104.389 124.343 104.024 124.603 103.633L124.921 103.143L125.014 103.721C125.097 104.349 125.223 104.97 125.392 105.58C125.54 106.179 125.785 106.751 126.117 107.272C126.445 107.762 126.94 108.169 127.435 108.11C127.93 108.051 128.047 107.414 128.121 106.811C128.194 106.181 128.235 105.547 128.243 104.913C128.243 104.271 128.268 103.633 128.243 102.991C128.242 101.713 128.045 100.443 127.66 99.2246Z" fill="#263238"/>
<path d="M101.979 116.241C96.4312 114.455 91.1551 111.914 86.2993 108.689C84.452 107.483 83.7121 103.584 86.1033 103.266L101.979 116.241Z" fill="#263238"/>
<path d="M94.649 122.89L95.2027 131.864L71.3789 132.354C71.3789 132.354 71.8003 111.857 78.577 104.648C81.9678 101.044 85.8976 101.363 88.377 103.932C89.0042 104.584 95.4379 112.322 96.217 116.157C96.854 119.541 94.649 122.89 94.649 122.89Z" fill="#D3766A"/>
<path d="M96.1974 116.162C96.854 119.541 94.649 122.89 94.649 122.89L95.0851 125.916L71.3789 126.175C71.7856 120.624 73.6476 109.9 78.5819 104.653C79.1335 104.055 79.7592 103.529 80.4439 103.089C82.2471 104.889 88.0389 110.498 89.6216 109.665C91.0671 108.905 88.9307 105.148 87.8723 103.462C88.0453 103.615 88.209 103.779 88.3623 103.952C89.0042 104.589 95.4428 112.332 96.1974 116.162Z" fill="#3FA654"/>
<path d="M93.3702 122.115C92.2829 121.901 91.1661 121.882 90.0725 122.061C88.9537 122.235 87.8473 122.481 86.7601 122.797L84.8687 123.287C84.8687 123.287 84.8687 123.326 84.8687 123.321C85.9862 123.188 87.0953 122.991 88.1909 122.733C89.2934 122.512 90.391 122.336 91.4984 122.218C92.1163 122.166 92.7375 122.166 93.3555 122.218C93.3996 122.208 93.4143 122.125 93.3702 122.115Z" fill="#263238"/>
<path d="M94.1981 122.654C93.0706 122.385 91.8955 122.385 90.7681 122.654V122.689C91.3365 122.664 91.9 122.64 92.4684 122.645C93.0368 122.649 93.6101 122.674 94.1785 122.694C94.2177 122.698 94.2177 122.659 94.1981 122.654Z" fill="#263238"/>
<path d="M91.8801 127.828C91.7243 127.932 91.5951 128.072 91.5028 128.235C91.4052 128.386 91.3325 128.552 91.2872 128.726C91.1937 129.074 91.1754 129.438 91.2333 129.795C91.2676 129.966 91.346 130.103 91.4685 130.118C91.591 130.133 91.6988 130.03 91.7527 129.863C91.8005 129.688 91.8138 129.504 91.7919 129.324C91.7824 129.136 91.7251 128.954 91.6253 128.794C91.7589 128.943 91.8558 129.122 91.9086 129.315C91.9613 129.508 91.9683 129.711 91.9291 129.907C91.9105 130.019 91.8632 130.124 91.7919 130.211C91.7487 130.26 91.6945 130.297 91.634 130.32C91.5735 130.343 91.5084 130.351 91.444 130.344C91.38 130.338 91.3182 130.317 91.2631 130.284C91.208 130.251 91.161 130.206 91.1255 130.152C91.0618 130.061 91.0183 129.958 90.9981 129.848C90.923 129.45 90.9551 129.039 91.0912 128.657C91.1551 128.47 91.2587 128.299 91.3949 128.156C91.5311 128.013 91.6966 127.901 91.8801 127.828Z" fill="#263238"/>
<path d="M81.2963 102.991C81.4678 103.481 85.6769 106.86 86.7402 106.223C88.024 105.453 87.3429 102.059 87.3429 102.059L87.8623 97.646L82.4429 94.9146L81.6638 94.5566C81.6638 94.5566 81.6001 95.7777 81.5413 97.2978C81.5413 97.3714 81.5413 97.44 81.5413 97.5136V97.7637C81.507 97.9745 81.2228 102.78 81.2963 102.991Z" fill="#D3766A"/>
<path d="M81.5415 97.2636C82.105 98.4328 82.9157 99.4655 83.9175 100.29C84.9192 101.115 86.088 101.712 87.3431 102.04L87.8625 97.6264L82.4431 94.8951L81.664 94.5371C81.664 94.5371 81.6003 95.763 81.5415 97.2636Z" fill="#263238"/>
<path d="M92.7527 89.9715C93.6151 97.7487 89.0581 99.1463 87.3627 99.3277C85.8437 99.4994 80.6399 99.872 78.9788 92.2272C77.3177 84.5823 80.6546 81.7235 84.114 81.1546C87.5734 80.5858 91.8854 82.1942 92.7527 89.9715Z" fill="#D3766A"/>
<path d="M91.5079 88.7502C91.3272 88.7389 91.1473 88.7176 90.9689 88.6864C90.7763 88.6931 90.5875 88.6324 90.4348 88.5148C90.3935 88.4695 90.3682 88.4118 90.3629 88.3506C90.3576 88.2894 90.3725 88.2282 90.4054 88.1764C90.4871 88.0855 90.5911 88.0173 90.707 87.9786C90.823 87.9399 90.947 87.9321 91.0669 87.9558C91.3194 87.9696 91.5573 88.0781 91.7333 88.2598C91.7715 88.3025 91.7964 88.3555 91.805 88.4122C91.8135 88.4689 91.8053 88.5269 91.7813 88.579C91.7574 88.6311 91.7187 88.675 91.6702 88.7054C91.6216 88.7359 91.5652 88.7514 91.5079 88.7502Z" fill="#263238"/>
<path d="M86.3434 89.8194C86.5229 89.8293 86.7029 89.8293 86.8824 89.8194C87.0716 89.8525 87.2665 89.8214 87.4361 89.7311C87.4846 89.6934 87.5188 89.6404 87.5331 89.5806C87.5473 89.5209 87.5408 89.4581 87.5145 89.4025C87.45 89.2985 87.3586 89.2139 87.2498 89.1578C87.1411 89.1016 87.0192 89.0761 86.8971 89.0838C86.6463 89.0571 86.3946 89.1253 86.1915 89.275C86.1405 89.3105 86.1018 89.3609 86.0807 89.4194C86.0596 89.4778 86.0573 89.5414 86.074 89.6013C86.0907 89.6611 86.1256 89.7143 86.1739 89.7534C86.2222 89.7924 86.2814 89.8155 86.3434 89.8194Z" fill="#263238"/>
<path d="M87.5684 91.0107C87.5684 91.0107 87.5292 91.0402 87.5341 91.0647C87.6076 91.5894 87.6076 92.2072 87.147 92.4377C87.147 92.4377 87.147 92.472 87.147 92.4671C87.7105 92.32 87.7105 91.5011 87.5684 91.0107Z" fill="#263238"/>
<path d="M87.0341 90.511C86.1766 90.5453 86.2991 92.2616 87.0929 92.2322C87.8867 92.2028 87.7544 90.4865 87.0341 90.511Z" fill="#263238"/>
<path d="M86.7013 90.6283C86.5592 90.7362 86.4269 90.9176 86.2456 90.947C86.0643 90.9765 85.8683 90.8196 85.7213 90.6528H85.6919C85.6919 90.9814 85.8634 91.3099 86.2162 91.3344C86.569 91.359 86.7503 91.0451 86.8091 90.7068C86.8189 90.6724 86.7601 90.5842 86.7013 90.6283Z" fill="#263238"/>
<path d="M90.5132 90.6875C90.5132 90.6629 90.5524 90.6874 90.5573 90.7316C90.5573 91.2612 90.6847 91.8692 91.1747 92.0164V92.0458C90.5818 92.0016 90.4446 91.1925 90.5132 90.6875Z" fill="#263238"/>
<path d="M90.9493 90.0991C91.797 89.9765 91.9783 91.6879 91.1894 91.8006C90.4005 91.9134 90.2388 90.202 90.9493 90.0991Z" fill="#263238"/>
<path d="M91.3168 90.1726C91.4638 90.2511 91.6108 90.4031 91.7774 90.3933C91.944 90.3835 92.0812 90.1873 92.1841 89.9961C92.1841 89.9961 92.2086 89.9961 92.2135 89.9961C92.2527 90.3197 92.1841 90.6728 91.8754 90.766C91.5667 90.8592 91.356 90.5944 91.2433 90.2756C91.2237 90.2413 91.258 90.1432 91.3168 90.1726Z" fill="#263238"/>
<path d="M87.8235 95.38C87.9558 95.4977 88.0881 95.6693 88.2841 95.6792C88.4821 95.6692 88.6758 95.6173 88.8525 95.5271C88.8525 95.5271 88.8868 95.5271 88.8525 95.5566C88.7789 95.6628 88.6784 95.7474 88.5612 95.8017C88.4441 95.856 88.3146 95.878 88.1861 95.8655C88.077 95.8393 87.9781 95.7817 87.9014 95.6997C87.8248 95.6178 87.7738 95.5152 87.7549 95.4045C87.7647 95.3751 87.8088 95.3604 87.8235 95.38Z" fill="#263238"/>
<path d="M89.881 93.2722C89.881 93.2722 90.0574 94.0568 90.0868 94.4295C90.0868 94.4638 90.0035 94.4883 89.8761 94.508C89.5625 94.5978 89.2302 94.5995 88.9156 94.513C88.601 94.4266 88.3163 94.2552 88.0925 94.0176C88.0847 94.0104 88.0801 94.0005 88.0796 93.9899C88.0792 93.9793 88.0829 93.969 88.0901 93.9612C88.0972 93.9534 88.1072 93.9487 88.1177 93.9483C88.1283 93.9478 88.1386 93.9516 88.1464 93.9587C88.6506 94.2437 89.2329 94.3589 89.8075 94.2873C89.8075 94.1794 89.4596 92.9535 89.5184 92.9437C89.8116 92.9465 90.1032 92.9877 90.3857 93.0663C90.0623 91.4235 89.4841 89.8445 89.1852 88.2018C89.1856 88.1905 89.1894 88.1795 89.1963 88.1705C89.2032 88.1615 89.2128 88.1549 89.2236 88.1517C89.2345 88.1484 89.2461 88.1487 89.2568 88.1524C89.2675 88.1561 89.2767 88.1631 89.2832 88.1724C89.9525 89.841 90.4531 91.5725 90.7777 93.3409C90.8267 93.537 90.0329 93.3409 89.881 93.2722Z" fill="#263238"/>
<path d="M89.8074 94.321C89.6298 94.6499 89.3698 94.9271 89.0528 95.1252C88.8779 95.2263 88.6759 95.2708 88.4746 95.2527C88.0336 95.2085 87.9601 94.8211 87.9846 94.4779C87.9994 94.2945 88.0356 94.1135 88.0924 93.9385C88.6085 94.2463 89.2096 94.3804 89.8074 94.321Z" fill="#263238"/>
<path d="M89.0528 95.1353C88.8779 95.2365 88.6759 95.281 88.4746 95.2628C88.0336 95.2187 87.9601 94.8313 87.9846 94.488C88.2101 94.4548 88.4401 94.5012 88.6351 94.6194C88.8301 94.7375 88.9778 94.9199 89.0528 95.1353Z" fill="#FF99BA"/>
<path d="M80.091 93.1639C79.699 92.7128 77.151 90.3786 76.9452 89.1086C76.8227 88.3681 77.9252 86.2742 77.9252 86.2742L76.8472 85.6416L77.8272 85.8378L76.2788 83.587L78.1065 85.0238C78.1065 85.0238 78.3025 83.1064 78.4397 82.6357C78.5769 82.1649 81.4924 79.5022 81.4924 79.5022L80.6692 81.1695C80.6692 81.1695 86.1327 78.5313 86.8383 78.5509C88.6121 78.5901 92.5958 81.1744 92.5958 81.1744L88.4308 80.7772C88.4308 80.7772 92.4929 82.1747 93.3308 82.8563C94.1687 83.538 94.8694 87.0833 94.8694 87.0833L91.1111 84.8767L92.5321 86.8381C92.5321 86.8381 89.3961 87.51 88.4749 87.5345C86.5149 87.5835 81.9334 86.2399 81.9334 86.2399C82.0343 86.9845 82.0916 87.7345 82.1049 88.4858C81.9195 89.4931 81.6322 90.4789 81.2474 91.428L80.6839 89.8932L80.091 93.1639Z" fill="#263238"/>
<path d="M79.3023 95.096C79.4188 95.1402 79.5408 95.1682 79.6649 95.1793C79.7866 95.1988 79.9107 95.1988 80.0324 95.1793C80.1917 95.1579 80.345 95.1045 80.4832 95.0224C80.5896 94.9571 80.6868 94.878 80.7723 94.787C80.8923 94.656 80.9885 94.505 81.0565 94.3408L80.5665 92.2616C80.5665 92.2616 78.7976 89.8588 77.7098 90.4963C76.622 91.1338 77.9891 94.6448 79.3023 95.096Z" fill="#D3766A"/>
<path d="M78.1309 91.4971C78.1309 91.4971 78.1309 91.4971 78.1309 91.5314C79.0521 91.8796 79.5519 92.7132 79.9096 93.5811C79.8543 93.4911 79.7801 93.4141 79.6922 93.3556C79.6043 93.297 79.5047 93.2582 79.4003 93.2419C79.296 93.2256 79.1893 93.2321 79.0878 93.2611C78.9862 93.29 78.8921 93.3406 78.812 93.4095C78.7875 93.4095 78.812 93.4634 78.812 93.4536C78.9712 93.399 79.1434 93.3951 79.3048 93.4426C79.4663 93.49 79.6091 93.5864 79.7136 93.7184C79.8899 93.9387 80.0396 94.179 80.1595 94.4344C80.2036 94.5128 80.3506 94.4638 80.3163 94.3706C80.3261 93.1888 79.3804 91.5804 78.1309 91.4971Z" fill="#263238"/>
<path d="M79.3807 94.7678C79.4039 94.8607 79.4625 94.9409 79.544 94.9913C79.6254 95.0417 79.7233 95.0583 79.8168 95.0375C79.8633 95.0277 79.9075 95.0086 79.9466 94.9815C79.9857 94.9543 80.019 94.9196 80.0446 94.8794C80.0701 94.8393 80.0874 94.7944 80.0954 94.7474C80.1034 94.7004 80.102 94.6524 80.0912 94.606C80.0697 94.5117 80.0117 94.4298 79.9299 94.3783C79.8482 94.3268 79.7493 94.3099 79.6551 94.3314C79.5608 94.3528 79.479 94.4108 79.4275 94.4927C79.3761 94.5745 79.3592 94.6735 79.3807 94.7678Z" fill="white"/>
<path d="M78.6454 94.2378C78.6606 94.3033 78.701 94.3602 78.7579 94.396C78.8149 94.4318 78.8836 94.4437 78.9492 94.429C78.9821 94.4221 79.0132 94.4086 79.0409 94.3895C79.0686 94.3705 79.0922 94.3461 79.1104 94.3178C79.1286 94.2896 79.1411 94.258 79.1471 94.2249C79.153 94.1918 79.1524 94.1579 79.1452 94.125C79.13 94.0582 79.089 94.0001 79.0312 93.9633C78.9734 93.9266 78.9034 93.9142 78.8365 93.9289C78.8036 93.9363 78.7724 93.9503 78.7449 93.97C78.7174 93.9896 78.6941 94.0145 78.6763 94.0433C78.6586 94.072 78.6467 94.104 78.6413 94.1374C78.636 94.1708 78.6374 94.2049 78.6454 94.2378Z" fill="white"/>
<path d="M84.0014 89.7951C83.4526 89.7951 83.7466 88.7604 83.8593 88.4024C83.942 88.0202 83.9896 87.6312 84.0014 87.2402C84.0106 87.6313 84.0582 88.0206 84.1435 88.4024C84.2807 88.7604 84.5502 89.7951 84.0014 89.7951Z" fill="white"/>
<path d="M83.2126 90.8595C82.8157 90.8595 83.0313 90.1092 83.1146 89.8493C83.1721 89.5716 83.2049 89.2894 83.2126 89.0059C83.2201 89.2896 83.2546 89.572 83.3155 89.8493C83.3988 90.1092 83.6144 90.8595 83.2126 90.8595Z" fill="white"/>
<path d="M79.4391 109.449C69.2569 116.069 60.9955 117.961 58.7415 118.118C53.082 118.506 45.7075 117.858 41.665 116.858C40.195 116.485 45.144 103.015 46.7512 103.363C51.7884 104.442 59.8293 106.864 60.0302 106.874C61.4267 106.938 71.8294 104.721 79.0128 104.015C82.1341 103.711 81.4334 108.149 79.4391 109.449Z" fill="#D3766A"/>
<path d="M37.2995 115.8C39.9406 117.217 46.4821 118.002 48.1334 117.585C49.7847 117.168 51.4899 106.086 50.2845 104.835C49.0791 103.585 39.8132 99.4803 36.8046 100.039C33.796 100.598 34.5604 114.329 37.2995 115.8Z" fill="#D3766A"/>
<path d="M47.0167 97.3585L47.0049 92.5234L32.8243 92.5581L32.8361 97.3932L47.0167 97.3585Z" fill="#455A64"/>
<path d="M45.8231 92.5324L45.8174 90.208L34.0035 90.2369L34.0092 92.5612L45.8231 92.5324Z" fill="#455A64"/>
<path d="M45.8158 91.3695L34.002 91.3984L34.0048 92.5606L45.8187 92.5317L45.8158 91.3695Z" fill="#263238"/>
<path d="M32.8837 116.773L32.8955 121.608L47.0761 121.574L47.0643 116.739L32.8837 116.773Z" fill="#455A64"/>
<path d="M34.0817 121.606L34.0874 123.931L45.9013 123.902L45.8956 121.577L34.0817 121.606Z" fill="#455A64"/>
<path d="M45.8847 121.571L34.0708 121.6L34.0736 122.762L45.8875 122.733L45.8847 121.571Z" fill="#263238"/>
<path d="M42.0684 116.741L42.0278 97.376L37.8384 97.3848L37.8789 116.749L42.0684 116.741Z" fill="#37474F"/>
<path d="M41.6062 100.093C42.4147 101.461 40.342 101.632 40.342 101.632C40.342 101.632 43.3849 102.123 43.674 103.839C43.9631 105.555 41.4347 105.629 41.2583 105.644C41.4151 105.644 44.1983 106.178 44.3159 107.948C44.4286 109.792 41.8659 109.478 41.7238 109.454C41.8659 109.527 43.7573 110.523 43.5368 111.906C43.1546 114.255 38.2497 111.847 36.4612 112.543C36.4612 112.543 37.2942 115.721 37.2991 115.819C37.2991 115.819 32.5902 113.622 31.7817 111.15C31.6582 110.792 31.6608 110.402 31.7891 110.045C31.9175 109.689 32.1638 109.386 32.4873 109.189C32.4873 109.189 30.8899 108.645 30.7625 107.252C30.6939 106.541 31.7768 105.781 31.7768 105.781C31.4224 105.64 31.1138 105.403 30.8847 105.098C30.6557 104.793 30.5151 104.43 30.4783 104.05C30.444 103.069 31.5367 102.466 31.5367 102.466C31.5367 102.466 30.5567 101.441 30.836 100.411C31.424 98.3371 39.8667 97.1651 41.6062 100.093Z" fill="#D3766A"/>
<path d="M31.6936 102.349C31.6691 102.349 31.6544 102.314 31.6936 102.305C34.4791 101.187 37.5387 100.946 40.4646 101.613C40.5577 101.613 40.5577 101.795 40.4646 101.79C37.5294 101.546 34.5743 101.734 31.6936 102.349Z" fill="#263238"/>
<path d="M31.7329 105.771C31.7035 105.771 31.6888 105.727 31.7329 105.713C34.815 104.51 38.2259 104.452 41.3467 105.551C41.4545 105.59 41.5084 105.737 41.381 105.698C39.2005 105.056 34.423 105.159 31.7329 105.771Z" fill="#263238"/>
<path d="M41.915 109.615C38.8525 108.571 35.7655 108.635 32.605 109.125C32.5658 109.125 32.5609 109.071 32.605 109.056C34.075 108.389 36.1379 108.282 37.7402 108.331C39.2229 108.355 40.6736 108.766 41.9493 109.522C41.9983 109.522 41.9787 109.635 41.915 109.615Z" fill="#263238"/>
<path d="M40.3422 101.633C40.9178 101.777 41.4789 101.974 42.018 102.221C42.551 102.44 43.0162 102.797 43.3655 103.256C43.5143 103.474 43.5771 103.74 43.5419 104.001C43.5042 104.266 43.3977 104.516 43.2332 104.727C43.0539 104.924 42.8351 105.081 42.5911 105.187C42.3471 105.294 42.0833 105.347 41.8171 105.345L40.5137 105.389L41.7534 105.801C42.3029 105.977 42.8206 106.241 43.2871 106.581C43.5124 106.728 43.7036 106.922 43.8481 107.15C43.9926 107.377 44.087 107.633 44.125 107.9C44.16 108.146 44.1089 108.398 43.9804 108.611C43.8519 108.825 43.6538 108.987 43.4194 109.072C42.8881 109.251 42.3201 109.293 41.7681 109.194L40.2442 108.969L41.6064 109.675C41.9857 109.875 42.3394 110.12 42.6599 110.406C42.9681 110.662 43.1947 111.003 43.3116 111.386C43.3553 111.563 43.3492 111.748 43.2938 111.921C43.2384 112.094 43.136 112.249 42.998 112.367C42.6491 112.587 42.2444 112.703 41.8318 112.7C40.938 112.707 40.0451 112.643 39.1613 112.509C38.7154 112.46 38.2646 112.406 37.8089 112.377C37.3565 112.32 36.8971 112.36 36.4614 112.494C36.9016 112.409 37.3541 112.409 37.7942 112.494C38.2401 112.558 38.686 112.647 39.127 112.73C40.021 112.927 40.9314 113.041 41.8465 113.068C42.3412 113.091 42.8317 112.968 43.2577 112.715C43.4748 112.552 43.6396 112.33 43.7319 112.074C43.8242 111.819 43.8399 111.542 43.7771 111.278C43.6475 110.79 43.3764 110.352 42.998 110.018C42.6477 109.694 42.2575 109.415 41.8367 109.189L41.675 109.68C42.3277 109.813 43.004 109.771 43.635 109.557C43.9794 109.431 44.2689 109.188 44.4533 108.871C44.6274 108.555 44.7009 108.194 44.664 107.836C44.6149 107.499 44.4947 107.175 44.3113 106.888C44.128 106.601 43.8858 106.355 43.6007 106.169C43.0818 105.797 42.5059 105.512 41.8955 105.325L41.8318 105.781C42.1631 105.773 42.4884 105.692 42.7848 105.543C43.0812 105.395 43.3414 105.183 43.5468 104.923C43.7361 104.652 43.8509 104.336 43.88 104.006C43.9112 103.67 43.817 103.335 43.6154 103.065C43.2123 102.59 42.6843 102.239 42.0915 102.05C41.5266 101.843 40.9396 101.703 40.3422 101.633Z" fill="#263238"/>
<path d="M48.8289 103.845C48.8289 103.845 40.886 93.8901 38.5389 98.9016C37.8333 100.373 36.721 107.351 38.1126 107.601C39.9109 107.924 40.9154 105.105 41.2682 103.236C41.2682 103.236 43.4928 107.003 46.5749 106.233C47.1336 106.08 47.6396 105.777 48.0372 105.356C48.4348 104.934 48.7088 104.411 48.8289 103.845Z" fill="#D3766A"/>
<path d="M38.7447 98.499C38.4001 99.0496 38.1376 99.6476 37.9656 100.274C37.7787 100.898 37.6331 101.534 37.5295 102.177C37.3021 103.469 37.189 104.778 37.1914 106.09C37.1911 106.437 37.2406 106.782 37.3384 107.115C37.3984 107.306 37.4968 107.483 37.6275 107.635C37.7754 107.798 37.9739 107.907 38.191 107.944C38.5763 108.006 38.971 107.928 39.3033 107.723C39.6044 107.532 39.8698 107.29 40.0873 107.007C40.4919 106.466 40.8002 105.858 40.9987 105.212C41.2081 104.589 41.3718 103.952 41.4887 103.305L41.0722 103.373C41.3423 103.792 41.6507 104.184 41.9934 104.545C42.3303 104.911 42.7048 105.239 43.1107 105.526C43.5166 105.81 43.9625 106.031 44.4337 106.183C44.9076 106.337 45.4069 106.397 45.9037 106.36C45.4232 106.332 44.9509 106.222 44.5072 106.036C44.0729 105.844 43.6659 105.595 43.2969 105.296C42.9288 105.003 42.5906 104.674 42.2875 104.315C41.9705 103.954 41.6898 103.563 41.4495 103.148L41.1702 102.657L41.033 103.231C40.9105 103.849 40.7468 104.459 40.543 105.055C40.3437 105.628 40.056 106.165 39.6904 106.649C39.5436 106.88 39.3398 107.07 39.0987 107.199C38.8576 107.329 38.5872 107.394 38.3135 107.389C37.8774 107.345 37.7549 106.644 37.7255 106.041C37.6951 105.404 37.6967 104.765 37.7304 104.128C37.7598 103.486 37.799 102.849 37.8725 102.211C37.9665 100.936 38.2608 99.6828 38.7447 98.499Z" fill="#263238"/>
<path d="M79.7188 104.016C83.1488 104.28 81.3456 114.196 77.5187 113.901C73.6918 113.607 76.7543 103.79 79.7188 104.016Z" fill="#D3766A"/>
<path d="M78.0871 110.636L77.7098 110.749C78.2586 110.435 78.7927 110.096 79.3121 109.738C79.3121 109.738 79.3121 109.714 79.3121 109.738C78.6653 110.057 78.0332 110.381 77.406 110.719C77.112 110.886 76.8082 111.043 76.5191 111.21C76.23 111.376 75.8772 111.621 75.5391 111.798C75.4999 111.798 75.5391 111.881 75.5636 111.862C75.887 111.69 76.2202 111.548 76.5436 111.371C76.867 111.195 77.1071 111.077 77.3815 110.925C77.4746 110.901 77.5726 110.881 77.6657 110.852C77.7588 110.822 77.9646 110.753 78.1116 110.695C78.4056 110.577 78.6996 110.449 78.9887 110.327C78.6849 110.449 78.4007 110.548 78.0871 110.636Z" fill="#263238"/>
<path d="M89.8656 182.539H86.269V186.678H89.8656V182.539Z" fill="#DBDBDB"/>
<path d="M91.0025 185.339H85.1372V190.066H91.0025V185.339Z" fill="#455A64"/>
<path d="M95.0597 195.921V217.561H81.0996V195.921C81.0996 191.64 83.7897 188.33 88.0674 188.33C92.3451 188.33 95.0597 191.64 95.0597 195.921Z" fill="#3FA654"/>
<path d="M87.3178 189.944C87.3178 190.051 87.2859 190.157 87.2261 190.246C87.1663 190.336 87.0814 190.405 86.982 190.447C86.8826 190.488 86.7733 190.499 86.6678 190.478C86.5623 190.457 86.4653 190.405 86.3893 190.329C86.3132 190.252 86.2614 190.155 86.2404 190.05C86.2194 189.944 86.2302 189.835 86.2714 189.735C86.3126 189.636 86.3823 189.551 86.4717 189.491C86.5611 189.431 86.6663 189.399 86.7739 189.399C86.8453 189.399 86.916 189.413 86.982 189.441C87.048 189.468 87.108 189.508 87.1585 189.559C87.209 189.609 87.249 189.669 87.2764 189.735C87.3037 189.801 87.3178 189.872 87.3178 189.944Z" fill="white"/>
<path d="M94.2411 194.847C94.2411 194.955 94.2092 195.06 94.1495 195.149C94.0897 195.239 94.0047 195.309 93.9054 195.35C93.806 195.391 93.6966 195.402 93.5911 195.381C93.4856 195.36 93.3887 195.308 93.3126 195.232C93.2366 195.156 93.1848 195.059 93.1638 194.953C93.1428 194.848 93.1536 194.738 93.1947 194.639C93.2359 194.539 93.3056 194.454 93.395 194.394C93.4845 194.335 93.5896 194.303 93.6972 194.303C93.8415 194.303 93.9798 194.36 94.0818 194.462C94.1838 194.564 94.2411 194.703 94.2411 194.847Z" fill="white"/>
<path d="M88.0722 195.382C88.0731 195.49 88.0421 195.596 87.9829 195.686C87.9237 195.776 87.8391 195.847 87.7398 195.889C87.6405 195.931 87.531 195.942 87.4252 195.922C87.3194 195.901 87.222 195.85 87.1454 195.774C87.0689 195.698 87.0166 195.601 86.9952 195.495C86.9738 195.389 86.9843 195.28 87.0253 195.18C87.0663 195.08 87.136 194.995 87.2256 194.935C87.3151 194.875 87.4205 194.843 87.5283 194.843C87.6717 194.843 87.8093 194.899 87.9111 195C88.013 195.101 88.0709 195.239 88.0722 195.382Z" fill="white"/>
<path d="M88.0722 201.124C88.3726 201.124 88.6161 200.88 88.6161 200.579C88.6161 200.279 88.3726 200.035 88.0722 200.035C87.7718 200.035 87.5283 200.279 87.5283 200.579C87.5283 200.88 87.7718 201.124 88.0722 201.124Z" fill="white"/>
<path d="M83.0009 206.013C83.0009 206.121 82.969 206.226 82.9092 206.315C82.8494 206.405 82.7645 206.475 82.6651 206.516C82.5657 206.557 82.4564 206.568 82.3509 206.547C82.2454 206.526 82.1485 206.474 82.0724 206.398C81.9963 206.322 81.9445 206.225 81.9235 206.119C81.9025 206.014 81.9133 205.904 81.9545 205.805C81.9957 205.705 82.0654 205.62 82.1548 205.56C82.2443 205.501 82.3494 205.469 82.457 205.469C82.6012 205.469 82.7396 205.526 82.8416 205.628C82.9436 205.73 83.0009 205.869 83.0009 206.013Z" fill="white"/>
<path d="M81.913 201.722C82.2134 201.722 82.4569 201.479 82.4569 201.178C82.4569 200.877 82.2134 200.634 81.913 200.634C81.6127 200.634 81.3691 200.877 81.3691 201.178C81.3691 201.479 81.6127 201.722 81.913 201.722Z" fill="white"/>
<path d="M82.5893 196.059C82.5893 196.167 82.5572 196.272 82.4973 196.362C82.4373 196.452 82.352 196.521 82.2524 196.562C82.1527 196.603 82.0431 196.614 81.9374 196.592C81.8318 196.571 81.7349 196.519 81.659 196.442C81.5832 196.365 81.5318 196.268 81.5113 196.162C81.4909 196.056 81.5024 195.947 81.5443 195.847C81.5862 195.748 81.6567 195.663 81.7468 195.604C81.8369 195.545 81.9425 195.514 82.0503 195.515C82.1937 195.516 82.3308 195.574 82.4317 195.676C82.5327 195.778 82.5893 195.915 82.5893 196.059Z" fill="white"/>
<path d="M84.4023 193.469C84.7027 193.469 84.9462 193.226 84.9462 192.925C84.9462 192.625 84.7027 192.381 84.4023 192.381C84.1019 192.381 83.8584 192.625 83.8584 192.925C83.8584 193.226 84.1019 193.469 84.4023 193.469Z" fill="white"/>
<path d="M85.4901 198.315C85.4911 198.423 85.46 198.528 85.4009 198.619C85.3417 198.709 85.2571 198.779 85.1578 198.821C85.0585 198.863 84.949 198.875 84.8432 198.854C84.7373 198.834 84.64 198.782 84.5634 198.706C84.4868 198.63 84.4345 198.533 84.4132 198.428C84.3918 198.322 84.4023 198.212 84.4433 198.113C84.4843 198.013 84.554 197.927 84.6436 197.867C84.7331 197.807 84.8384 197.775 84.9462 197.775C85.0896 197.775 85.2272 197.832 85.3291 197.933C85.431 198.034 85.4888 198.171 85.4901 198.315Z" fill="white"/>
<path d="M90.2627 192.994C90.563 192.994 90.8066 192.75 90.8066 192.45C90.8066 192.149 90.563 191.905 90.2627 191.905C89.9623 191.905 89.7188 192.149 89.7188 192.45C89.7188 192.75 89.9623 192.994 90.2627 192.994Z" fill="white"/>
<path d="M91.4628 197.731C91.4628 197.839 91.4309 197.944 91.3711 198.033C91.3114 198.123 91.2264 198.193 91.127 198.234C91.0277 198.275 90.9183 198.286 90.8128 198.265C90.7073 198.244 90.6104 198.192 90.5343 198.116C90.4582 198.04 90.4064 197.943 90.3855 197.837C90.3645 197.731 90.3752 197.622 90.4164 197.523C90.4576 197.423 90.5273 197.338 90.6167 197.278C90.7062 197.218 90.8113 197.187 90.9189 197.187C90.9905 197.186 91.0615 197.2 91.1278 197.227C91.1941 197.254 91.2543 197.294 91.305 197.345C91.3556 197.395 91.3956 197.455 91.4227 197.522C91.4498 197.588 91.4635 197.659 91.4628 197.731Z" fill="white"/>
<path d="M85.7841 203.375C85.7841 203.483 85.7522 203.588 85.6924 203.678C85.6327 203.767 85.5477 203.837 85.4483 203.878C85.349 203.919 85.2396 203.93 85.1341 203.909C85.0286 203.888 84.9317 203.836 84.8556 203.76C84.7795 203.684 84.7277 203.587 84.7067 203.482C84.6858 203.376 84.6965 203.267 84.7377 203.167C84.7789 203.068 84.8486 202.983 84.938 202.923C85.0275 202.863 85.1326 202.831 85.2402 202.831C85.3845 202.831 85.5228 202.888 85.6248 202.99C85.7268 203.093 85.7841 203.231 85.7841 203.375Z" fill="white"/>
<path d="M91.6299 207.67C91.6261 207.777 91.5908 207.881 91.5285 207.968C91.4662 208.055 91.3797 208.121 91.2798 208.159C91.1798 208.198 91.0709 208.205 90.9666 208.182C90.8623 208.158 90.7672 208.104 90.6933 208.027C90.6194 207.95 90.5699 207.852 90.551 207.747C90.5321 207.642 90.5447 207.533 90.5871 207.435C90.6295 207.337 90.7 207.253 90.7896 207.195C90.8792 207.136 90.984 207.106 91.0909 207.106C91.1636 207.107 91.2354 207.122 91.3022 207.151C91.3689 207.18 91.4292 207.222 91.4794 207.275C91.5297 207.327 91.5689 207.389 91.5947 207.457C91.6206 207.525 91.6325 207.598 91.6299 207.67Z" fill="white"/>
<path d="M91.5512 211.76C91.5512 211.868 91.5193 211.973 91.4595 212.063C91.3997 212.152 91.3148 212.222 91.2154 212.263C91.116 212.304 91.0067 212.315 90.9012 212.294C90.7957 212.273 90.6987 212.221 90.6227 212.145C90.5466 212.069 90.4948 211.972 90.4738 211.866C90.4528 211.761 90.4636 211.651 90.5048 211.552C90.5459 211.452 90.6157 211.367 90.7051 211.308C90.7945 211.248 90.8997 211.216 91.0073 211.216C91.0789 211.215 91.1499 211.229 91.2162 211.256C91.2825 211.283 91.3427 211.323 91.3933 211.374C91.444 211.424 91.484 211.485 91.5111 211.551C91.5382 211.617 91.5518 211.688 91.5512 211.76Z" fill="white"/>
<path d="M86.1073 207.764C86.1073 207.872 86.0754 207.977 86.0157 208.066C85.9559 208.156 85.871 208.226 85.7716 208.267C85.6722 208.308 85.5628 208.319 85.4573 208.298C85.3518 208.277 85.2549 208.225 85.1788 208.149C85.1028 208.073 85.051 207.976 85.03 207.87C85.009 207.765 85.0198 207.655 85.0609 207.556C85.1021 207.456 85.1718 207.371 85.2613 207.311C85.3507 207.252 85.4559 207.22 85.5634 207.22C85.7077 207.22 85.846 207.277 85.948 207.379C86.05 207.481 86.1073 207.62 86.1073 207.764Z" fill="white"/>
<path d="M83.4613 214.138C83.4613 214.246 83.4294 214.351 83.3697 214.44C83.3099 214.53 83.225 214.6 83.1256 214.641C83.0262 214.682 82.9168 214.693 82.8113 214.672C82.7058 214.651 82.6089 214.599 82.5328 214.523C82.4568 214.447 82.405 214.35 82.384 214.244C82.363 214.139 82.3738 214.029 82.4149 213.93C82.4561 213.83 82.5258 213.745 82.6153 213.685C82.7047 213.626 82.8099 213.594 82.9174 213.594C83.0617 213.594 83.2 213.651 83.302 213.753C83.404 213.855 83.4613 213.994 83.4613 214.138Z" fill="white"/>
<path d="M88.9198 205.317C88.9198 205.424 88.8879 205.53 88.8282 205.619C88.7684 205.709 88.6835 205.778 88.5841 205.82C88.4847 205.861 88.3753 205.872 88.2698 205.851C88.1643 205.83 88.0674 205.778 87.9913 205.702C87.9153 205.626 87.8635 205.529 87.8425 205.423C87.8215 205.317 87.8323 205.208 87.8734 205.108C87.9146 205.009 87.9843 204.924 88.0738 204.864C88.1632 204.804 88.2684 204.772 88.3759 204.772C88.5202 204.772 88.6585 204.83 88.7605 204.932C88.8625 205.034 88.9198 205.172 88.9198 205.317Z" fill="white"/>
<path d="M88.9887 209.735C88.9887 209.842 88.9568 209.948 88.897 210.037C88.8372 210.127 88.7523 210.196 88.6529 210.238C88.5535 210.279 88.4442 210.29 88.3387 210.269C88.2332 210.248 88.1363 210.196 88.0602 210.12C87.9841 210.044 87.9323 209.947 87.9113 209.841C87.8903 209.735 87.9011 209.626 87.9423 209.526C87.9834 209.427 88.0532 209.342 88.1426 209.282C88.232 209.222 88.3372 209.19 88.4448 209.19C88.589 209.19 88.7274 209.248 88.8294 209.35C88.9314 209.452 88.9887 209.59 88.9887 209.735Z" fill="white"/>
<path d="M88.9887 214.138C88.9887 214.246 88.9568 214.351 88.897 214.44C88.8372 214.53 88.7523 214.6 88.6529 214.641C88.5535 214.682 88.4442 214.693 88.3387 214.672C88.2332 214.651 88.1363 214.599 88.0602 214.523C87.9841 214.447 87.9323 214.35 87.9113 214.244C87.8903 214.139 87.9011 214.029 87.9423 213.93C87.9834 213.83 88.0532 213.745 88.1426 213.685C88.232 213.626 88.3372 213.594 88.4448 213.594C88.589 213.594 88.7274 213.651 88.8294 213.753C88.9314 213.855 88.9887 213.994 88.9887 214.138Z" fill="white"/>
<path d="M91.7523 216.173C91.7533 216.281 91.7222 216.387 91.663 216.477C91.6039 216.567 91.5193 216.638 91.42 216.68C91.3207 216.722 91.2112 216.733 91.1053 216.713C90.9995 216.692 90.9022 216.641 90.8256 216.565C90.749 216.489 90.6968 216.392 90.6754 216.286C90.654 216.18 90.6645 216.071 90.7055 215.971C90.7465 215.871 90.8162 215.786 90.9057 215.726C90.9953 215.666 91.1006 215.634 91.2084 215.634C91.3518 215.634 91.4894 215.69 91.5913 215.791C91.6931 215.892 91.751 216.03 91.7523 216.173Z" fill="white"/>
<path d="M82.8491 210.539C83.1495 210.539 83.393 210.295 83.393 209.995C83.393 209.694 83.1495 209.45 82.8491 209.45C82.5487 209.45 82.3052 209.694 82.3052 209.995C82.3052 210.295 82.5487 210.539 82.8491 210.539Z" fill="white"/>
<path d="M86.1073 211.952C86.1073 212.059 86.0754 212.164 86.0157 212.254C85.9559 212.343 85.871 212.413 85.7716 212.454C85.6722 212.496 85.5628 212.506 85.4573 212.485C85.3518 212.464 85.2549 212.413 85.1788 212.336C85.1028 212.26 85.051 212.163 85.03 212.058C85.009 211.952 85.0198 211.843 85.0609 211.743C85.1021 211.644 85.1718 211.559 85.2613 211.499C85.3507 211.439 85.4559 211.407 85.5634 211.407C85.7077 211.407 85.846 211.465 85.948 211.567C86.05 211.669 86.1073 211.807 86.1073 211.952Z" fill="white"/>
<path d="M94.3344 214.138C94.3344 214.246 94.3023 214.351 94.2424 214.441C94.1824 214.531 94.0971 214.6 93.9975 214.641C93.8978 214.682 93.7882 214.693 93.6826 214.672C93.5769 214.65 93.48 214.598 93.4041 214.521C93.3283 214.445 93.2769 214.347 93.2564 214.241C93.236 214.135 93.2475 214.026 93.2894 213.926C93.3313 213.827 93.4018 213.742 93.4919 213.683C93.582 213.624 93.6876 213.593 93.7954 213.594C93.9388 213.595 94.0759 213.653 94.1768 213.755C94.2778 213.857 94.3344 213.995 94.3344 214.138Z" fill="white"/>
<path d="M86.2397 216.218C86.2397 216.326 86.2078 216.431 86.148 216.521C86.0882 216.61 86.0033 216.68 85.9039 216.721C85.8045 216.762 85.6952 216.773 85.5896 216.752C85.4841 216.731 85.3872 216.679 85.3112 216.603C85.2351 216.527 85.1833 216.43 85.1623 216.324C85.1413 216.219 85.1521 216.109 85.1933 216.01C85.2344 215.91 85.3041 215.825 85.3936 215.766C85.483 215.706 85.5882 215.674 85.6958 215.674C85.84 215.674 85.9784 215.731 86.0804 215.833C86.1824 215.935 86.2397 216.074 86.2397 216.218Z" fill="white"/>
<path d="M94.4179 205.469C94.4179 205.577 94.386 205.682 94.3262 205.772C94.2664 205.861 94.1815 205.931 94.0821 205.972C93.9827 206.013 93.8734 206.024 93.7679 206.003C93.6624 205.982 93.5654 205.93 93.4894 205.854C93.4133 205.778 93.3615 205.681 93.3405 205.575C93.3195 205.47 93.3303 205.36 93.3715 205.261C93.4126 205.161 93.4824 205.076 93.5718 205.017C93.6612 204.957 93.7664 204.925 93.874 204.925C93.9454 204.925 94.0161 204.939 94.0821 204.966C94.1481 204.994 94.2081 205.034 94.2586 205.084C94.3091 205.135 94.3491 205.195 94.3765 205.261C94.4038 205.327 94.4179 205.398 94.4179 205.469Z" fill="white"/>
<path d="M94.4179 209.735C94.4179 209.842 94.386 209.948 94.3262 210.037C94.2664 210.127 94.1815 210.196 94.0821 210.238C93.9827 210.279 93.8734 210.29 93.7679 210.269C93.6624 210.248 93.5654 210.196 93.4894 210.12C93.4133 210.044 93.3615 209.947 93.3405 209.841C93.3195 209.735 93.3303 209.626 93.3715 209.526C93.4126 209.427 93.4824 209.342 93.5718 209.282C93.6612 209.222 93.7664 209.19 93.874 209.19C93.9454 209.19 94.0161 209.205 94.0821 209.232C94.1481 209.259 94.2081 209.299 94.2586 209.35C94.3091 209.4 94.3491 209.46 94.3765 209.526C94.4038 209.592 94.4179 209.663 94.4179 209.735Z" fill="white"/>
<path d="M91.2084 203.758C91.5088 203.758 91.7523 203.514 91.7523 203.213C91.7523 202.913 91.5088 202.669 91.2084 202.669C90.9081 202.669 90.6646 202.913 90.6646 203.213C90.6646 203.514 90.9081 203.758 91.2084 203.758Z" fill="white"/>
<path d="M94.6923 200.501C94.6923 200.609 94.6604 200.714 94.6006 200.804C94.5409 200.893 94.4559 200.963 94.3565 201.004C94.2572 201.045 94.1478 201.056 94.0423 201.035C93.9368 201.014 93.8399 200.962 93.7638 200.886C93.6877 200.81 93.6359 200.713 93.6149 200.608C93.594 200.502 93.6047 200.392 93.6459 200.293C93.6871 200.194 93.7568 200.109 93.8462 200.049C93.9357 199.989 94.0408 199.957 94.1484 199.957C94.2926 199.957 94.431 200.014 94.533 200.116C94.635 200.219 94.6923 200.357 94.6923 200.501Z" fill="white"/>
<path d="M167.717 206.131H162.151V218.851H167.717V206.131Z" fill="#455A64"/>
<path d="M162.151 207.499H159.476V217.488H162.151V207.499Z" fill="#455A64"/>
<path d="M162.151 207.499H160.813V217.488H162.151V207.499Z" fill="#37474F"/>
<path d="M184.196 218.855H189.763V206.135H184.196V218.855Z" fill="#455A64"/>
<path d="M189.763 217.487H192.438V207.498H189.763V217.487Z" fill="#455A64"/>
<path d="M191.1 207.499H189.763V217.488H191.1V207.499Z" fill="#37474F"/>
<path d="M184.196 210.078H167.717V214.908H184.196V210.078Z" fill="#37474F"/>
<path d="M189.606 211.044H184.04V223.764H189.606V211.044Z" fill="#455A64"/>
<path d="M184.039 212.407H181.364V222.396H184.039V212.407Z" fill="#455A64"/>
<path d="M184.039 212.407H182.702V222.396H184.039V212.407Z" fill="#37474F"/>
<path d="M206.084 223.76H211.651V211.04H206.084V223.76Z" fill="#455A64"/>
<path d="M211.651 222.396H214.326V212.408H211.651V222.396Z" fill="#455A64"/>
<path d="M212.989 212.407H211.651V222.396H212.989V212.407Z" fill="#37474F"/>
<path d="M206.084 214.987H189.605V219.817H206.084V214.987Z" fill="#37474F"/>
<path d="M140.425 26.3418C140.63 28.3159 141.379 30.1941 142.589 31.7665C143.8 33.3389 145.423 34.5437 147.278 35.2462C149.133 35.9487 151.146 36.1213 153.093 35.7448C155.041 35.3682 156.845 34.4573 158.305 33.1138L163.66 33.9033L160.98 29.2693C161.645 27.6365 161.893 25.8634 161.7 24.1106C161.554 22.7116 161.134 21.3551 160.463 20.1187C159.793 18.8822 158.886 17.79 157.794 16.9043C156.702 16.0187 155.446 15.3569 154.099 14.9569C152.751 14.5569 151.338 14.4264 149.94 14.5729C147.117 14.8688 144.527 16.2749 142.739 18.482C140.952 20.6891 140.114 23.5163 140.41 26.3418H140.425Z" fill="white"/>
<path d="M143.625 17.4953C144.791 16.3434 146.207 15.4753 147.762 14.9583C149.316 14.4414 150.969 14.2893 152.592 14.5138C154.227 14.7284 155.791 15.3156 157.164 16.2301C159.242 17.6178 160.777 19.6821 161.507 22.073C162.238 24.4638 162.119 27.034 161.172 29.3475V29.166L163.833 33.8049L164.029 34.1482L163.642 34.0894L158.271 33.2655L158.394 33.2263C156.906 34.5728 155.074 35.4794 153.102 35.8449C152.617 35.934 152.125 35.9849 151.632 35.9969C150.142 36.0812 148.651 35.8368 147.266 35.281C146.342 34.9253 145.473 34.4417 144.684 33.8442C144.287 33.5404 143.909 33.2128 143.552 32.8634C143.203 32.5107 142.876 32.1374 142.572 31.7454C140.972 29.6496 140.195 27.0401 140.388 24.4099C140.58 21.7798 141.728 19.3112 143.616 17.4707L143.625 17.4953ZM142.616 31.7454C142.92 32.1325 143.247 32.501 143.596 32.8487C143.952 33.1868 144.329 33.5028 144.723 33.7951C145.51 34.3843 146.381 34.8536 147.305 35.1878C148.685 35.7037 150.158 35.9193 151.627 35.8204C152.121 35.7992 152.612 35.7402 153.097 35.6438C155.008 35.2593 156.775 34.353 158.203 33.0253L158.257 32.9762H158.33L163.686 33.7265L163.495 34.0109L160.8 29.3867L160.751 29.2984L160.79 29.2053C161.384 27.7242 161.641 26.1298 161.545 24.537C161.439 22.9429 160.974 21.3936 160.182 20.0059C159.382 18.6221 158.29 17.4291 156.983 16.5096C155.665 15.598 154.157 15.0008 152.573 14.7639C150.979 14.52 149.351 14.6407 147.81 15.117C146.174 15.627 144.687 16.5269 143.475 17.7393C142.263 18.9516 141.364 20.4403 140.854 22.0772C140.344 23.7142 140.239 25.4505 140.548 27.1371C140.856 28.8237 141.569 30.4102 142.626 31.7601L142.616 31.7454Z" fill="#263238"/>
<path d="M149.514 31.333L144.942 26.7039L146.481 25.1838L149.147 27.8906L154.698 19.1816L156.516 20.3438L149.514 31.333Z" fill="#3FA654"/>
</svg>
