<svg width="244" height="184" viewBox="0 0 244 184" fill="none" xmlns="http://www.w3.org/2000/svg">
<g clip-path="url(#clip0_229_3321)">
<path opacity="0.18" d="M202.711 66.0427C203.882 70.6856 204.024 75.5288 203.127 80.2324C202.229 84.936 200.313 89.3861 197.514 93.2703C193.335 98.9621 187.376 103.218 183.666 109.212C175.646 122.152 179.951 139.822 172.595 153.152C166.447 164.304 153.709 169.782 141.881 174.484C132.593 178.173 123.212 181.885 113.367 183.372C103.522 184.859 92.9343 183.916 84.4035 178.791C77.3681 174.577 72.1995 167.895 67.4256 161.223C55.6906 144.808 45.084 126.933 41.4804 107.075C37.8767 87.2161 42.372 64.9415 57.1487 51.2023C64.3421 44.5115 73.7645 39.8977 78.8402 31.4832C84.1667 22.6551 84.241 10.3377 92.521 4.1859C95.5767 1.91384 99.3753 0.859119 103.146 0.357313C112.224 -0.811854 121.438 0.961541 129.435 5.41718C137.548 9.96596 144.207 17.1957 153.044 20.1043C164.482 23.8725 179.161 20.9778 186.763 32.129C192.87 41.0965 199.998 55.5977 202.711 66.0427Z" fill="#3FA654"/>
<path d="M154.043 59.6959C153.91 59.9762 153.729 60.231 153.509 60.4487C151.739 62.3192 149.448 63.6143 146.933 64.1657C146.045 64.3704 145.137 64.4733 144.226 64.4724C143.691 61.0248 143.148 57.5726 142.73 54.111C142.4 51.4069 142.154 48.7073 142.038 45.9939C141.959 44.2933 138.277 38.3646 139.029 36.7755C139.86 35.0285 145.846 41.0083 146.52 42.1467C150.258 48.4193 151.6 53.27 154.163 58.6645C154.26 59.0108 154.217 59.3814 154.043 59.6959Z" fill="#3FA654"/>
<path d="M147.536 63.5341C147.357 63.7675 147.155 63.9823 146.933 64.1753C146.045 64.3799 145.136 64.4828 144.225 64.482C143.691 61.0344 143.148 57.5821 142.73 54.1206C142.888 51.4009 143.174 48.6921 143.589 45.9941C143.413 47.1232 144.801 49.5858 145.177 50.6916L146.807 55.5099C147.657 58.0235 149.473 61.0808 147.536 63.5341Z" fill="url(#paint0_linear_229_3321)"/>
<path d="M145.535 69.4305C145.907 71.6979 146.38 73.9932 147.5 76.0005C148.075 77.0319 148.935 78.0448 150.1 78.226C150.748 78.2874 151.402 78.1901 152.004 77.9426C153.252 77.513 154.429 76.8991 155.496 76.1213C156.516 75.3392 157.476 74.4835 158.371 73.5611C159.701 72.3047 160.933 70.947 162.053 69.5002C162.569 68.8033 163.038 68.0691 163.6 67.4047C165.922 64.6401 169.637 63.3996 172.27 60.9323C172.98 60.2726 174.42 57.2524 174.313 56.286C173.347 55.7284 171.364 57.9726 170.296 58.2979C169.228 58.6231 168.23 59.1528 167.157 59.4548C165.873 59.8132 164.517 59.8308 163.224 59.5059C162.787 59.3944 162.267 52.5039 161.831 52.6619C161.611 52.754 161.414 52.8936 161.255 53.0707C160.354 54 159.862 61.9313 159.114 62.9628C158.088 64.3567 156.667 65.4161 155.26 66.429C155.134 66.5173 154.976 66.6102 154.837 66.5405C154.791 66.5063 154.753 66.4631 154.724 66.4136C154.695 66.3641 154.677 66.3093 154.67 66.2524C154.303 64.891 153.89 63.539 153.439 62.2055C153.123 61.2762 152.678 60.254 151.744 59.9752C150.913 59.7289 150.049 60.1982 149.306 60.6489C148.349 61.2344 147.384 61.8105 146.432 62.4006C145.902 62.7258 145.261 63.0418 145.011 63.6412C144.704 64.3614 144.964 65.3557 145.052 66.0944C145.192 67.2142 145.354 68.3247 145.535 69.4305Z" fill="#EBB376"/>
<path d="M154.011 132.625C154.011 134.047 153.941 135.445 153.816 136.835C152.732 148.724 147.126 159.742 138.155 167.613C129.184 175.485 117.534 179.608 105.612 179.131C93.6894 178.653 82.4057 173.613 74.0919 165.049C65.778 156.486 61.0692 145.055 60.9384 133.118C60.9384 132.96 60.9384 132.806 60.9384 132.653C60.8769 126.499 62.0353 120.394 64.3465 114.691C66.6577 108.987 70.076 103.799 74.4036 99.4257C78.7311 95.0523 83.8823 91.5806 89.5591 89.2113C95.2359 86.842 101.326 85.6221 107.477 85.6221C113.628 85.6221 119.718 86.842 125.394 89.2113C131.071 91.5806 136.222 95.0523 140.55 99.4257C144.878 103.799 148.296 108.987 150.607 114.691C152.918 120.394 154.077 126.499 154.015 132.653L154.011 132.625Z" fill="#3FA654"/>
<path d="M154.011 132.625C154.011 134.047 153.941 135.445 153.816 136.834C143.107 144.125 127.346 148.724 109.769 148.724C89.3355 148.724 71.3824 142.512 60.9384 133.094C60.9384 132.936 60.9384 132.783 60.9384 132.629C60.8769 126.476 62.0353 120.37 64.3465 114.667C66.6577 108.964 70.076 103.776 74.4036 99.4023C78.7311 95.0289 83.8823 91.5572 89.5591 89.1879C95.2359 86.8186 101.326 85.5986 107.477 85.5986C113.628 85.5986 119.718 86.8186 125.394 89.1879C131.071 91.5572 136.222 95.0289 140.55 99.4023C144.878 103.776 148.296 108.964 150.607 114.667C152.918 120.37 154.077 126.476 154.015 132.629L154.011 132.625Z" fill="url(#paint1_linear_229_3321)"/>
<path d="M128.813 114.421C130.67 115.09 132.691 115.568 134.214 116.837C135.565 117.957 136.387 119.578 137.051 121.2C139.265 126.642 140.064 132.557 139.373 138.391C139.187 139.943 138.909 141.542 139.313 143.038C139.717 144.534 141.096 145.937 142.647 145.751C144.797 141.476 144.844 136.486 144.848 131.701C144.848 128.207 144.848 124.638 143.678 121.344C142.721 118.63 141.031 116.233 139.285 113.952C132.918 105.588 125.214 97.7869 115.406 94.028C114.999 93.8199 114.532 93.7623 114.087 93.8654C112.067 94.6042 112.397 98.2004 113.182 99.6455C114.296 101.642 115.537 103.565 116.897 105.402C119.88 109.531 124.03 112.673 128.813 114.421Z" fill="url(#paint2_linear_229_3321)"/>
<path d="M110.446 103.921C110.474 103.295 110.555 102.674 110.688 102.062C110.759 101.759 110.913 101.481 111.131 101.259C111.35 101.037 111.625 100.879 111.928 100.803C112.183 100.796 112.437 100.773 112.689 100.733C113.205 100.575 113.423 99.976 113.571 99.4602L115.22 93.6988C115.536 92.5837 115.856 91.4128 115.615 90.2837C115.234 88.5181 113.613 87.324 112.034 86.4598C110.887 85.8279 109.596 85.2657 108.319 85.5026C106.341 85.8697 105.194 87.9141 104.456 89.7866C103.596 91.7929 103.068 93.9253 102.891 96.1009C102.761 98.6146 102.547 104.771 104.103 106.969C106.257 110.054 110.103 106.709 110.446 103.921Z" fill="url(#paint3_linear_229_3321)"/>
<path d="M135.495 96.6491C139.707 98.0755 144.197 98.6749 148.256 100.492C148.387 100.531 148.508 100.597 148.612 100.686C148.716 100.775 148.8 100.884 148.86 101.007C148.895 101.209 148.869 101.416 148.785 101.602C145.358 111.801 143.424 122.444 143.046 133.197C145.474 133.635 147.956 133.689 150.401 133.36C150.676 133.343 150.943 133.258 151.177 133.114C151.402 132.916 151.572 132.663 151.669 132.379C155.598 123.555 159.124 114.564 162.248 105.407C162.801 103.786 163.349 102.09 163.126 100.389C162.805 97.9129 160.943 95.9614 159.174 94.2005L145.386 80.438C145.035 80.0424 144.605 79.7257 144.123 79.5087C143.568 79.3436 142.982 79.3149 142.414 79.4251C136.976 80.0988 129.551 80.3079 119.557 79.8897C118.261 79.834 124.665 87.217 125.199 88.6341C125.626 89.7586 126.978 91.2082 127.804 92.0817C129.876 94.2562 132.671 95.6919 135.495 96.6491Z" fill="#525263"/>
<path d="M135.495 96.6491C139.707 98.0755 144.197 98.6749 148.256 100.492C148.387 100.531 148.508 100.597 148.612 100.686C148.716 100.775 148.8 100.884 148.86 101.007C148.895 101.209 148.869 101.416 148.785 101.602C145.358 111.801 143.424 122.444 143.046 133.197C145.474 133.635 147.956 133.689 150.401 133.36C150.676 133.343 150.943 133.258 151.177 133.114C151.402 132.916 151.572 132.663 151.669 132.379C155.598 123.555 159.124 114.564 162.248 105.407C162.801 103.786 163.349 102.09 163.126 100.389C162.805 97.9129 160.943 95.9614 159.174 94.2005L145.386 80.438C145.035 80.0424 144.605 79.7257 144.123 79.5087C143.568 79.3436 142.982 79.3149 142.414 79.4251C136.976 80.0988 129.551 80.3079 119.557 79.8897C118.261 79.834 124.665 87.217 125.199 88.6341C125.626 89.7586 126.978 91.2082 127.804 92.0817C129.876 94.2562 132.671 95.6919 135.495 96.6491Z" fill="url(#paint4_linear_229_3321)"/>
<path d="M142.34 139.298C142.002 139.824 141.773 140.414 141.667 141.031C141.419 142.111 141.236 143.205 141.119 144.306C141.026 145.161 140.993 146.091 141.481 146.792C141.969 147.494 142.772 147.749 143.524 148.042C145.418 148.822 147.258 149.727 149.032 150.751C150.23 151.411 151.479 152.094 152.844 152.145C154.21 152.196 155.719 151.448 156.03 150.119C156.138 149.479 156.084 148.823 155.872 148.209C155.127 145.543 153.665 143.133 151.646 141.24C151.292 140.894 150.898 140.593 150.471 140.343C150.062 140.132 149.635 139.957 149.194 139.823C147.954 139.369 146.683 139.004 145.391 138.731C144.263 138.55 143.12 138.215 142.34 139.298Z" fill="#2E2E3F"/>
<path d="M142.34 139.298C142.002 139.824 141.773 140.414 141.667 141.031C141.419 142.111 141.236 143.205 141.119 144.306C141.026 145.161 140.993 146.091 141.481 146.792C141.969 147.494 142.772 147.749 143.524 148.042C145.418 148.822 147.258 149.727 149.032 150.751C150.23 151.411 151.479 152.094 152.844 152.145C154.21 152.196 155.719 151.448 156.03 150.119C156.138 149.479 156.084 148.823 155.872 148.209C155.127 145.543 153.665 143.133 151.646 141.24C151.292 140.894 150.898 140.593 150.471 140.343C150.062 140.132 149.635 139.957 149.194 139.823C147.954 139.369 146.683 139.004 145.391 138.731C144.263 138.55 143.12 138.215 142.34 139.298Z" fill="url(#paint5_linear_229_3321)"/>
<path d="M143.719 133.545C143.367 135.383 143.184 137.249 143.171 139.121C143.171 139.943 143.227 140.854 143.817 141.444C144.375 141.888 145.087 142.092 145.795 142.011C146.649 141.979 147.492 141.805 148.289 141.495C148.466 141.44 148.625 141.341 148.753 141.207C148.847 141.075 148.912 140.924 148.944 140.765C149.652 138.106 150.028 135.368 150.063 132.616C150.108 132.184 150.019 131.749 149.807 131.37C149.366 130.752 148.451 130.78 147.708 130.929C146.757 131.133 145.825 131.417 144.922 131.779C144.068 132.077 143.891 132.662 143.719 133.545Z" fill="#EBB376"/>
<path d="M152.877 142.28C153.213 143.106 153.486 143.955 153.694 144.822C153.838 145.496 153.922 146.216 154.354 146.755C154.902 147.428 155.854 147.6 156.722 147.614C157.438 147.655 158.154 147.534 158.817 147.261C159.161 147.126 159.45 146.877 159.634 146.555C159.763 146.237 159.808 145.891 159.764 145.551C159.696 143.191 159.108 140.874 158.041 138.768C157.429 137.679 156.74 136.635 155.979 135.645C155.739 135.2 155.334 134.866 154.851 134.716C154.602 134.707 154.355 134.748 154.123 134.837C153.891 134.925 153.679 135.06 153.499 135.232C152.733 135.808 151.047 136.77 151.224 137.862C151.447 139.316 152.357 140.9 152.877 142.28Z" fill="#EBB376"/>
<path d="M158.506 143.995C157.98 144.289 157.47 144.611 156.978 144.957C156.212 145.38 155.311 145.464 154.47 145.705C154.248 145.748 154.044 145.856 153.885 146.017C153.769 146.173 153.697 146.357 153.676 146.551C153.518 147.819 153.57 149.105 153.829 150.356C154.257 153.063 154.755 155.76 155.325 158.446C155.562 159.551 155.845 160.718 156.648 161.512C157.452 162.307 158.673 162.581 159.815 162.613C160.884 162.675 161.952 162.475 162.927 162.032C163.702 161.617 164.374 161.032 164.892 160.321C165.409 159.61 165.76 158.791 165.917 157.925C166.22 156.184 166.007 154.393 165.304 152.772C164.827 151.664 164.272 150.591 163.642 149.562C162.806 148.124 161.973 146.687 161.143 145.25C160.512 144.153 159.936 143.387 158.506 143.995Z" fill="#2E2E3F"/>
<path d="M158.506 143.995C157.98 144.289 157.47 144.611 156.978 144.957C156.212 145.38 155.311 145.464 154.47 145.705C154.248 145.748 154.044 145.856 153.885 146.017C153.769 146.173 153.697 146.357 153.676 146.551C153.518 147.819 153.57 149.105 153.829 150.356C154.257 153.063 154.755 155.76 155.325 158.446C155.562 159.551 155.845 160.718 156.648 161.512C157.452 162.307 158.673 162.581 159.815 162.613C160.884 162.675 161.952 162.475 162.927 162.032C163.702 161.617 164.374 161.032 164.892 160.321C165.409 159.61 165.76 158.791 165.917 157.925C166.22 156.184 166.007 154.393 165.304 152.772C164.827 151.664 164.272 150.591 163.642 149.562C162.806 148.124 161.973 146.687 161.143 145.25C160.512 144.153 159.936 143.387 158.506 143.995Z" fill="url(#paint6_linear_229_3321)"/>
<path d="M102.241 58.9479C101.834 59.9708 101.563 61.0423 101.433 62.1353C100.991 64.9654 100.709 67.8181 100.588 70.68C100.355 76.1441 100.708 81.6174 100.555 87.0816C100.397 92.764 99.7284 98.6556 101.772 103.957C102.09 104.919 102.627 105.794 103.341 106.513C103.703 106.866 104.148 107.122 104.636 107.255C105.123 107.388 105.637 107.395 106.128 107.275C106.572 107.103 106.971 106.832 107.293 106.481C107.615 106.131 107.852 105.711 107.985 105.253C108.241 104.338 108.354 103.388 108.32 102.438L108.394 97.2431C108.394 97.1363 108.394 97.0108 108.501 96.9643C108.545 96.9488 108.593 96.9454 108.64 96.9544C108.686 96.9633 108.73 96.9844 108.765 97.0154C109.165 97.3609 109.545 97.7285 109.903 98.1166C110.316 98.4512 110.976 98.6138 111.343 98.2281C111.444 98.0929 111.516 97.9378 111.554 97.7729C111.591 97.6079 111.594 97.4369 111.561 97.271C111.338 95.0222 109.378 93.4006 108.213 91.4631C106.532 88.6753 106.532 85.1626 106.954 81.9195C107.479 77.8586 108.575 73.8952 109.666 69.9458L110.595 66.6051C111.296 64.0682 111.988 61.299 110.967 58.8689C110.556 57.9356 109.932 57.1124 109.143 56.4665C108.355 55.8205 107.425 55.3701 106.43 55.1519C104.488 54.7941 102.942 57.3682 102.241 58.9479Z" fill="#EBB376"/>
<path d="M145.354 80.0754C144.755 81.6877 141.374 79.8059 139.442 80.7724C135.755 82.6309 131.548 80.7213 127.438 80.7724C123.064 80.8514 120.045 85.1632 115.703 85.7115C115.388 85.7766 115.062 85.7766 114.746 85.7115C114.147 85.5349 113.794 84.9355 113.539 84.3733C113.164 83.506 112.896 82.5964 112.74 81.6645C112.202 78.5793 112.74 75.2711 113.316 72.1348C113.799 69.4771 114.28 66.8179 114.76 64.157C115.318 61.0595 115.88 57.9433 116.446 54.8086C116.776 52.7406 117.242 50.6965 117.839 48.6894C117.951 48.3409 118.067 48.0017 118.192 47.6672C119.272 44.9423 120.576 42.3113 122.088 39.8009C123.017 38.1886 123.946 36.5484 125.381 35.3265C126.983 33.9744 129.05 33.3006 131.125 32.9754C132.992 32.6234 134.917 32.735 136.73 33.3007C137.766 33.6631 138.156 34.7596 138.978 35.4333C140.02 36.2057 140.95 37.1189 141.741 38.1468C142.545 39.3878 143.119 40.7634 143.436 42.2077C146.348 53.5355 142.136 65.7554 144.904 77.1157C145.219 78.4492 145.832 78.8023 145.354 80.0754Z" fill="#3FA654"/>
<path d="M141.397 40.2835L141.76 42.6577L140.367 41.8818V48.173L138.778 41.1849L140.315 38.9453L141.397 40.2835Z" fill="url(#paint7_linear_229_3321)"/>
<path d="M129.602 40.1302L130.48 40.5948L131.873 41.8075L128.158 51.7786C128.158 51.7786 133.554 43.4709 133.73 39.2334C133.84 36.6269 133.515 34.0204 132.769 31.5205L129.602 40.1302Z" fill="url(#paint8_linear_229_3321)"/>
<path d="M117.705 68.7106C117.41 70.9933 117.41 73.3045 117.705 75.5872C117.895 77.023 118.201 78.454 118.104 79.8944C118.108 80.1758 118.018 80.4507 117.849 80.675C117.63 80.8524 117.363 80.9579 117.082 80.977C115.63 81.2062 114.177 81.4401 112.722 81.6786C112.183 78.5934 112.722 75.2852 113.298 72.1489C113.781 69.4912 114.262 66.832 114.742 64.1712C115.299 61.0736 115.861 57.9574 116.428 54.8227C116.758 52.7547 117.223 50.7106 117.821 48.7035C117.932 48.355 118.048 48.0158 118.174 47.6813C119.613 46.8821 121.615 46.2874 122.506 47.579C123.435 48.973 122.214 52.2254 121.852 53.6193C120.533 58.6699 118.369 63.4974 117.705 68.7106Z" fill="url(#paint9_linear_229_3321)"/>
<path d="M151.108 28.4262C151.156 29.004 151.139 29.5854 151.057 30.1593C151.01 30.4455 150.867 30.7071 150.652 30.9013C150.437 31.0955 150.162 31.2107 149.873 31.228C148.424 31.1211 147.379 32.5104 146.227 33.4025C145.324 34.0799 144.251 34.4951 143.127 34.6025C142.003 34.7099 140.871 34.5053 139.856 34.0111C139.654 33.9386 139.432 33.9463 139.236 34.0328C139.04 34.1193 138.884 34.2779 138.802 34.4758C138.657 34.8857 138.625 35.327 138.709 35.7535L139.243 40.8366C139.345 41.817 139.354 43.0158 138.523 43.5454C137.692 44.0751 136.707 43.6151 136.02 43.0158C134.94 41.9762 134.158 40.6651 133.758 39.2197C132.85 36.2913 132.72 33.1768 133.38 30.1828C134.041 27.1888 135.469 24.4184 137.525 22.1444C138.296 21.2813 139.201 20.5473 140.204 19.9699C141.254 19.4245 142.382 19.0437 143.548 18.8408C144.591 18.5945 145.669 18.5347 146.733 18.6643C148.162 18.9242 149.462 19.6593 150.421 20.7505C151.126 21.5218 151.814 23.8217 152.557 24.1981C152.004 25.6013 151.131 26.8418 151.108 28.4262Z" fill="#EBB376"/>
<path d="M140.055 8.47502C139.374 8.31567 138.664 8.33649 137.993 8.53542C136.684 9.00006 135.95 10.3707 135.476 11.6764C135.003 12.982 134.613 14.4084 133.582 15.333C132.695 16.1322 131.436 16.4528 130.638 17.3356C129.709 18.3624 129.621 19.8818 129.709 21.2618C129.709 22.2971 130 23.3115 130.549 24.189C131.042 24.858 131.799 25.3227 132.184 26.0475C132.62 26.8792 132.769 28.1662 133.707 28.222C134.098 28.2022 134.468 28.0364 134.743 27.7574C135.691 26.9374 136.405 25.881 136.814 24.6954C137.041 24.0356 137.19 23.3015 137.692 22.8369C138.193 22.3722 139.215 22.3444 139.442 23.0041C139.506 23.4239 139.441 23.8532 139.257 24.2354C139.136 24.6443 139.187 25.1972 139.586 25.3366C140.339 24.175 140.761 22.809 141.653 21.7543C142.159 21.1611 142.794 20.6916 143.509 20.3818C144.224 20.072 145.001 19.93 145.779 19.9668C146.558 20.0036 147.318 20.2181 148.001 20.594C148.683 20.9698 149.271 21.4971 149.719 22.1353C150.184 22.7997 150.499 23.5896 151.149 24.0635C151.762 24.4369 152.462 24.642 153.179 24.6582C154.776 24.8162 156.467 24.8766 157.906 24.1657C159.346 23.4548 160.409 21.7311 159.857 20.221C159.42 19.0362 158.176 18.3624 156.968 17.9814C155.761 17.6004 154.47 17.4099 153.406 16.7316C151.962 15.8023 151.191 14.1482 150.351 12.6474C149.51 11.1467 148.372 9.60408 146.691 9.25096C146.005 9.14409 145.306 9.14409 144.62 9.25096C143.951 9.39309 143.265 9.44621 142.582 9.40894C141.746 9.23702 140.938 8.67017 140.055 8.47502Z" fill="#2E2E3F"/>
<path d="M140.056 46.6542C141.116 52.0293 141.429 57.5253 140.984 62.9861C140.618 67.5302 139.745 72.0418 139.777 76.5999C139.845 77.8817 139.806 79.1671 139.661 80.4424C139.457 81.7062 130.986 81.223 129.751 81.2091C127.67 81.1812 130.308 83.9969 128.743 82.6401C126.287 80.4982 125.191 77.1575 124.889 73.9143C124.457 69.2912 125.404 64.6634 126.435 60.1332C127.15 56.997 127.912 53.8514 129.194 50.901C130.782 47.2536 133.294 42.6119 134.102 38.7136C134.218 38.1421 132.245 36.0652 133.094 36.0931C133.647 36.0931 133.387 36.9526 133.485 37.3801C133.659 38.031 133.992 38.6282 134.455 39.1178C135.103 39.8746 135.98 40.3984 136.954 40.6093C137.58 40.7255 138.296 40.6976 138.751 41.1436C139.303 41.6826 139.215 42.7327 139.373 43.4668C139.601 44.5169 139.842 45.5809 140.056 46.6542Z" fill="#F2F2F2"/>
<path d="M121.253 32.831C119.005 33.8625 117.073 35.4608 115.248 37.1335C113.737 38.4955 112.311 39.9478 110.976 41.4825C109.796 42.8764 108.719 44.3214 107.474 45.6363C105.756 47.4437 103.611 49.1908 103.272 51.6766C103.168 52.9728 103.395 54.2742 103.931 55.4587C104.373 56.6681 105.025 57.7897 105.858 58.7715C106.915 59.9411 108.309 60.753 109.847 61.0947C110.329 61.2204 110.833 61.2426 111.324 61.1598C112.016 60.9627 112.652 60.6063 113.182 60.119C114.392 59.2024 115.539 58.2042 116.613 57.1314C117.709 55.993 118.638 54.6967 119.706 53.5305C120.635 52.5268 121.624 51.6208 122.553 50.6358C123.663 49.4556 124.652 48.1686 125.641 46.8815C127.041 45.1358 128.324 43.2996 129.482 41.3849C130.449 39.6951 131.217 37.899 131.771 36.0323C132.129 34.815 132.7 33.2724 131.464 32.3942C128.841 30.545 123.867 31.609 121.253 32.831Z" fill="#3FA654"/>
<path d="M121.253 32.831C119.005 33.8625 117.073 35.4608 115.248 37.1335C113.737 38.4955 112.311 39.9478 110.976 41.4825C109.796 42.8764 108.719 44.3214 107.474 45.6363C105.756 47.4437 103.611 49.1908 103.272 51.6766C103.168 52.9728 103.395 54.2742 103.931 55.4587C104.373 56.6681 105.025 57.7897 105.858 58.7715C106.915 59.9411 108.309 60.753 109.847 61.0947C110.329 61.2204 110.833 61.2426 111.324 61.1598C112.016 60.9627 112.652 60.6063 113.182 60.119C114.392 59.2024 115.539 58.2042 116.613 57.1314C117.709 55.993 118.638 54.6967 119.706 53.5305C120.635 52.5268 121.624 51.6208 122.553 50.6358C123.663 49.4556 124.652 48.1686 125.641 46.8815C127.041 45.1358 128.324 43.2996 129.482 41.3849C130.449 39.6951 131.217 37.899 131.771 36.0323C132.129 34.815 132.7 33.2724 131.464 32.3942C128.841 30.545 123.867 31.609 121.253 32.831Z" fill="#3FA654"/>
<path d="M160.182 54.0468C159.68 54.3642 159.321 54.8648 159.181 55.4424C159.042 56.0201 159.132 56.6295 159.434 57.1413C160.214 58.4983 161.26 59.6836 162.508 60.6261C163.251 61.4252 164.923 61.5553 166.409 60.6818C167.895 59.8083 174.987 55.9472 178.53 53.4242C178.79 53.2454 179.011 53.0156 179.179 52.7486C179.347 52.4816 179.459 52.1831 179.508 51.8714C179.557 51.5597 179.542 51.2412 179.464 50.9354C179.386 50.6296 179.247 50.3429 179.055 50.0928L176.087 46.3757C175.735 45.9358 175.234 45.6413 174.678 45.5487C174.123 45.4561 173.553 45.5719 173.078 45.8739L160.182 54.0468Z" fill="#3D3D54"/>
<path d="M113.052 94.0934C113.576 96.018 114.505 97.8082 115.778 99.3437C117.171 100.97 119.066 102.132 120.886 103.237L128.553 107.907C129.677 108.554 130.753 109.282 131.771 110.086C134.283 112.158 135.951 115.048 137.571 117.873L148.754 137.374C149.32 138.373 150.114 139.502 151.261 139.465C151.879 139.385 152.46 139.126 152.933 138.722C154.368 137.713 155.91 136.566 156.337 134.86C156.634 133.671 156.337 132.421 155.98 131.241C154.261 125.428 151.568 119.955 148.865 114.514C144.571 105.903 140.214 97.3086 135.793 88.7315C134.618 86.4548 133.192 82.9096 131.251 81.2369C131.251 81.2369 113.214 80.1404 112.759 81.9292C111.746 85.9347 111.847 90.1413 113.052 94.0934Z" fill="#525263"/>
<path d="M113.052 94.0934C113.576 96.018 114.505 97.8082 115.778 99.3437C117.171 100.97 119.066 102.132 120.886 103.237L128.553 107.907C129.677 108.554 130.753 109.282 131.771 110.086C134.283 112.158 135.951 115.048 137.571 117.873L148.754 137.374C149.32 138.373 150.114 139.502 151.261 139.465C151.879 139.385 152.46 139.126 152.933 138.722C154.368 137.713 155.91 136.566 156.337 134.86C156.634 133.671 156.337 132.421 155.98 131.241C154.261 125.428 151.568 119.955 148.865 114.514C144.571 105.903 140.214 97.3086 135.793 88.7315C134.618 86.4548 133.192 82.9096 131.251 81.2369C131.251 81.2369 113.214 80.1404 112.759 81.9292C111.746 85.9347 111.847 90.1413 113.052 94.0934Z" fill="url(#paint10_linear_229_3321)"/>
<path d="M133.336 30.2852L130.786 31.2934L129.24 39.9496L134.381 39.7172L133.336 30.2852Z" fill="#3FA654"/>
<path d="M138.732 39.5075C138.732 39.8978 138.732 40.2881 138.732 40.6783C138.732 40.8476 138.741 41.0166 138.76 41.1848C138.787 41.3555 138.825 41.5246 138.871 41.6913L139.512 44.2189L139.777 40.1115C140.534 40.4786 141.309 40.8131 142.099 41.1058C142.039 40.4903 141.882 39.888 141.634 39.3216C141.17 38.1321 140.743 36.938 140.241 35.7718C140.124 35.4603 139.954 35.1711 139.739 34.9169C139.631 34.7908 139.495 34.6916 139.342 34.6271C139.189 34.5626 139.023 34.5345 138.857 34.5452C138.393 34.7403 138.685 36.4827 138.69 36.8683L138.732 39.5075Z" fill="#3FA654"/>
<path d="M176.301 52.0111L166.864 57.9817C166.699 58.071 166.508 58.1012 166.323 58.0674C166.138 58.0337 165.97 57.9378 165.847 57.7958L162.847 54.4133C162.786 54.3557 162.738 54.2848 162.708 54.206C162.677 54.1272 162.665 54.0426 162.672 53.9585C162.68 53.8743 162.706 53.7929 162.749 53.7204C162.792 53.6479 162.851 53.5861 162.922 53.5398L172.377 47.5739C172.542 47.4845 172.733 47.4543 172.918 47.4881C173.103 47.5219 173.27 47.6177 173.394 47.7597L176.394 51.1376C176.454 51.1965 176.501 51.2685 176.53 51.3481C176.559 51.4277 176.569 51.5128 176.56 51.597C176.551 51.6812 176.523 51.7622 176.478 51.834C176.433 51.9057 176.372 51.9663 176.301 52.0111Z" fill="#3FA654"/>
</g>
<defs>
<linearGradient id="paint0_linear_229_3321" x1="134.315" y1="55.3844" x2="153.374" y2="55.092" gradientUnits="userSpaceOnUse">
<stop offset="0.01"/>
<stop offset="0.13" stop-opacity="0.69"/>
<stop offset="1" stop-opacity="0"/>
</linearGradient>
<linearGradient id="paint1_linear_229_3321" x1="35742.8" y1="5427.3" x2="17720.3" y2="33185.2" gradientUnits="userSpaceOnUse">
<stop offset="0.01"/>
<stop offset="0.13" stop-opacity="0.69"/>
<stop offset="1" stop-opacity="0"/>
</linearGradient>
<linearGradient id="paint2_linear_229_3321" x1="9791.77" y1="10836" x2="5534.87" y2="13598.7" gradientUnits="userSpaceOnUse">
<stop offset="0.01"/>
<stop offset="0.13" stop-opacity="0.69"/>
<stop offset="1" stop-opacity="0"/>
</linearGradient>
<linearGradient id="paint3_linear_229_3321" x1="2285.89" y1="4478.81" x2="4217.73" y2="5164.73" gradientUnits="userSpaceOnUse">
<stop offset="0.01"/>
<stop offset="0.13" stop-opacity="0.69"/>
<stop offset="1" stop-opacity="0"/>
</linearGradient>
<linearGradient id="paint4_linear_229_3321" x1="10049.7" y1="12788.9" x2="14179.3" y2="12788.9" gradientUnits="userSpaceOnUse">
<stop offset="0.01"/>
<stop offset="0.13" stop-opacity="0.69"/>
<stop offset="1" stop-opacity="0"/>
</linearGradient>
<linearGradient id="paint5_linear_229_3321" x1="4821.78" y1="4546.09" x2="4437.17" y2="4437.15" gradientUnits="userSpaceOnUse">
<stop offset="0.01"/>
<stop offset="0.13" stop-opacity="0.69"/>
<stop offset="1" stop-opacity="0"/>
</linearGradient>
<linearGradient id="paint6_linear_229_3321" x1="3897.82" y1="6457.61" x2="4233.11" y2="6457.61" gradientUnits="userSpaceOnUse">
<stop offset="0.01"/>
<stop offset="0.13" stop-opacity="0.69"/>
<stop offset="1" stop-opacity="0"/>
</linearGradient>
<linearGradient id="paint7_linear_229_3321" x1="735.616" y1="786.846" x2="866.084" y2="821.915" gradientUnits="userSpaceOnUse">
<stop offset="0.01"/>
<stop offset="0.13" stop-opacity="0.69"/>
<stop offset="1" stop-opacity="0"/>
</linearGradient>
<linearGradient id="paint8_linear_229_3321" x1="1665.69" y1="1761.15" x2="1337.98" y2="1796.99" gradientUnits="userSpaceOnUse">
<stop offset="0.01"/>
<stop offset="0.13" stop-opacity="0.69"/>
<stop offset="1" stop-opacity="0"/>
</linearGradient>
<linearGradient id="paint9_linear_229_3321" x1="2062.52" y1="5092.2" x2="2720.35" y2="5085.44" gradientUnits="userSpaceOnUse">
<stop offset="0.01"/>
<stop offset="0.13" stop-opacity="0.69"/>
<stop offset="1" stop-opacity="0"/>
</linearGradient>
<linearGradient id="paint10_linear_229_3321" x1="10832.7" y1="14648.1" x2="14210.2" y2="13571.4" gradientUnits="userSpaceOnUse">
<stop offset="0.01"/>
<stop offset="0.13" stop-opacity="0.69"/>
<stop offset="1" stop-opacity="0"/>
</linearGradient>
<clipPath id="clip0_229_3321">
<rect width="244" height="184" fill="white"/>
</clipPath>
</defs>
</svg>
