<svg width="44" height="44" viewBox="0 0 44 44" fill="none" xmlns="http://www.w3.org/2000/svg">
<path d="M14.6668 11C14.6668 11.9725 14.2805 12.9051 13.5929 13.5928C12.9053 14.2804 11.9726 14.6667 11.0002 14.6667C10.0277 14.6667 9.09507 14.2804 8.40744 13.5928C7.7198 12.9051 7.3335 11.9725 7.3335 11C7.3335 10.0276 7.7198 9.09495 8.40744 8.40732C9.09507 7.71968 10.0277 7.33337 11.0002 7.33337C11.9726 7.33337 12.9053 7.71968 13.5929 8.40732C14.2805 9.09495 14.6668 10.0276 14.6668 11Z" fill="white"/>
<path d="M14.6668 22C14.6668 22.9725 14.2805 23.9051 13.5929 24.5928C12.9053 25.2804 11.9726 25.6667 11.0002 25.6667C10.0277 25.6667 9.09507 25.2804 8.40744 24.5928C7.7198 23.9051 7.3335 22.9725 7.3335 22C7.3335 21.0276 7.7198 20.095 8.40744 19.4073C9.09507 18.7197 10.0277 18.3334 11.0002 18.3334C11.9726 18.3334 12.9053 18.7197 13.5929 19.4073C14.2805 20.095 14.6668 21.0276 14.6668 22Z" fill="white"/>
<path d="M11.0002 36.6667C11.9726 36.6667 12.9053 36.2804 13.5929 35.5928C14.2805 34.9051 14.6668 33.9725 14.6668 33C14.6668 32.0276 14.2805 31.0949 13.5929 30.4073C12.9053 29.7197 11.9726 29.3334 11.0002 29.3334C10.0277 29.3334 9.09507 29.7197 8.40744 30.4073C7.7198 31.0949 7.3335 32.0276 7.3335 33C7.3335 33.9725 7.7198 34.9051 8.40744 35.5928C9.09507 36.2804 10.0277 36.6667 11.0002 36.6667Z" fill="white"/>
<path d="M25.6668 11C25.6668 11.9725 25.2805 12.9051 24.5929 13.5928C23.9053 14.2804 22.9726 14.6667 22.0002 14.6667C21.0277 14.6667 20.0951 14.2804 19.4074 13.5928C18.7198 12.9051 18.3335 11.9725 18.3335 11C18.3335 10.0276 18.7198 9.09495 19.4074 8.40732C20.0951 7.71968 21.0277 7.33337 22.0002 7.33337C22.9726 7.33337 23.9053 7.71968 24.5929 8.40732C25.2805 9.09495 25.6668 10.0276 25.6668 11Z" fill="white"/>
<path d="M22.0002 25.6667C22.9726 25.6667 23.9053 25.2804 24.5929 24.5928C25.2805 23.9051 25.6668 22.9725 25.6668 22C25.6668 21.0276 25.2805 20.095 24.5929 19.4073C23.9053 18.7197 22.9726 18.3334 22.0002 18.3334C21.0277 18.3334 20.0951 18.7197 19.4074 19.4073C18.7198 20.095 18.3335 21.0276 18.3335 22C18.3335 22.9725 18.7198 23.9051 19.4074 24.5928C20.0951 25.2804 21.0277 25.6667 22.0002 25.6667Z" fill="white"/>
<path d="M25.6668 33C25.6668 33.9725 25.2805 34.9051 24.5929 35.5928C23.9053 36.2804 22.9726 36.6667 22.0002 36.6667C21.0277 36.6667 20.0951 36.2804 19.4074 35.5928C18.7198 34.9051 18.3335 33.9725 18.3335 33C18.3335 32.0276 18.7198 31.0949 19.4074 30.4073C20.0951 29.7197 21.0277 29.3334 22.0002 29.3334C22.9726 29.3334 23.9053 29.7197 24.5929 30.4073C25.2805 31.0949 25.6668 32.0276 25.6668 33Z" fill="white"/>
<path d="M33.0002 14.6667C33.9726 14.6667 34.9053 14.2804 35.5929 13.5928C36.2805 12.9051 36.6668 11.9725 36.6668 11C36.6668 10.0276 36.2805 9.09495 35.5929 8.40732C34.9053 7.71968 33.9726 7.33337 33.0002 7.33337C32.0277 7.33337 31.0951 7.71968 30.4074 8.40732C29.7198 9.09495 29.3335 10.0276 29.3335 11C29.3335 11.9725 29.7198 12.9051 30.4074 13.5928C31.0951 14.2804 32.0277 14.6667 33.0002 14.6667Z" fill="white"/>
<path d="M36.6668 22C36.6668 22.9725 36.2805 23.9051 35.5929 24.5928C34.9053 25.2804 33.9726 25.6667 33.0002 25.6667C32.0277 25.6667 31.0951 25.2804 30.4074 24.5928C29.7198 23.9051 29.3335 22.9725 29.3335 22C29.3335 21.0276 29.7198 20.095 30.4074 19.4073C31.0951 18.7197 32.0277 18.3334 33.0002 18.3334C33.9726 18.3334 34.9053 18.7197 35.5929 19.4073C36.2805 20.095 36.6668 21.0276 36.6668 22Z" fill="white"/>
<path d="M33.0002 36.6667C33.9726 36.6667 34.9053 36.2804 35.5929 35.5928C36.2805 34.9051 36.6668 33.9725 36.6668 33C36.6668 32.0276 36.2805 31.0949 35.5929 30.4073C34.9053 29.7197 33.9726 29.3334 33.0002 29.3334C32.0277 29.3334 31.0951 29.7197 30.4074 30.4073C29.7198 31.0949 29.3335 32.0276 29.3335 33C29.3335 33.9725 29.7198 34.9051 30.4074 35.5928C31.0951 36.2804 32.0277 36.6667 33.0002 36.6667Z" fill="white"/>
</svg>
