<svg width="19" height="19" viewBox="0 0 19 19" fill="none" xmlns="http://www.w3.org/2000/svg">
<path d="M13.4582 16.8193L13.4598 12.0693C12.3371 12.9709 10.9397 13.4612 9.49984 13.4587C8.0606 13.4611 6.66384 12.9711 5.5415 12.0701L5.54388 16.8201C5.54414 16.9287 5.57416 17.0351 5.63068 17.1278C5.6872 17.2205 5.76805 17.2959 5.86444 17.3459C5.96084 17.3958 6.06908 17.4184 6.17741 17.4111C6.28573 17.4039 6.38999 17.367 6.47884 17.3046L9.50063 15.1774L12.5232 17.3046C12.6121 17.3673 12.7165 17.4043 12.825 17.4117C12.9336 17.419 13.042 17.3964 13.1386 17.3464C13.2351 17.2963 13.3161 17.2206 13.3726 17.1277C13.4291 17.0348 13.4589 16.9281 13.459 16.8193H13.4582Z" fill="#3FA654"/>
<path d="M15.0416 7.12516C15.0416 6.39742 14.8982 5.67681 14.6198 5.00446C14.3413 4.33211 13.9331 3.7212 13.4185 3.20661C12.9039 2.69202 12.293 2.28383 11.6206 2.00533C10.9483 1.72684 10.2277 1.5835 9.49992 1.5835C8.77218 1.5835 8.05156 1.72684 7.37921 2.00533C6.70687 2.28383 6.09596 2.69202 5.58137 3.20661C5.06678 3.7212 4.65858 4.33211 4.38009 5.00446C4.10159 5.67681 3.95825 6.39742 3.95825 7.12516C3.95825 8.5949 4.5421 10.0044 5.58137 11.0437C6.62063 12.083 8.03018 12.6668 9.49992 12.6668C10.9697 12.6668 12.3792 12.083 13.4185 11.0437C14.4577 10.0044 15.0416 8.5949 15.0416 7.12516ZM9.68121 4.46675L10.4032 5.9337L12.0214 6.16725C12.1876 6.191 12.2533 6.39525 12.1338 6.51162L10.9629 7.65162L11.24 9.26345C11.2464 9.30059 11.2423 9.33878 11.2281 9.3737C11.2139 9.40862 11.1903 9.43887 11.1598 9.46103C11.1293 9.48319 11.0932 9.49638 11.0556 9.49909C11.018 9.50181 10.9804 9.49396 10.9471 9.47641L9.49992 8.71483L8.05354 9.47641C8.02019 9.49396 7.98259 9.50181 7.945 9.49909C7.90742 9.49638 7.87134 9.48319 7.84086 9.46103C7.81038 9.43887 7.78671 9.40862 7.77253 9.3737C7.75835 9.33878 7.75423 9.30059 7.76063 9.26345L8.03771 7.65241L6.86604 6.51241C6.83881 6.48612 6.81953 6.4527 6.81038 6.41597C6.80124 6.37923 6.8026 6.34067 6.81433 6.30468C6.82605 6.26869 6.84765 6.23672 6.87668 6.21241C6.9057 6.18811 6.94097 6.17246 6.97846 6.16725L8.59663 5.9337L9.31863 4.46675C9.33524 4.43283 9.36104 4.40425 9.39309 4.38426C9.42514 4.36428 9.46215 4.35368 9.49992 4.35368C9.53769 4.35368 9.5747 4.36428 9.60675 4.38426C9.6388 4.40425 9.6646 4.43283 9.68121 4.46675Z" fill="#3FA654"/>
</svg>
