<svg width="117" height="117" viewBox="0 0 117 117" fill="none" xmlns="http://www.w3.org/2000/svg">
<path d="M86.1334 99.3512C85.8104 99.0751 85.0921 98.1999 85.6466 97.182C85.8502 96.8076 86.2808 96.6228 86.6716 96.459C87.0738 96.3221 87.4532 96.1257 87.7971 95.8763C88.4055 95.3568 88.574 94.4957 88.9788 93.8031C89.4468 93.0098 90.3103 92.4131 91.2275 92.4552C92.2758 92.502 93.151 93.3608 93.5488 94.3272C93.9466 95.2936 93.9583 96.3888 93.9677 97.4441C93.9677 98.0291 93.9466 98.6866 93.5184 99.0821C93.0902 99.4776 92.5286 99.4495 91.9927 99.4331L86.2574 99.2576" fill="#F5F5F5"/>
<path d="M97.1107 83.582H82.02L84.7368 99.7818C84.7933 100.119 84.9442 100.433 85.172 100.689C85.3997 100.944 85.695 101.129 86.0238 101.223L86.0776 101.237C86.122 101.249 86.1665 101.265 86.211 101.272C86.312 101.292 86.4145 101.304 86.5175 101.308V101.322L86.5924 101.31H93.3128C93.437 101.309 93.5608 101.297 93.6826 101.272C94.0751 101.212 94.437 101.024 94.7125 100.738C94.9881 100.451 95.1622 100.083 95.2082 99.6882L96.5186 88.5288L96.5771 88.0842L97.0966 83.6639L97.1107 83.582ZM94.2559 93.9155H92.7091L92.8636 89.2144H94.6583L94.2559 93.9155ZM94.8081 89.2144H96.2893L95.7371 93.9155H94.4056L94.8081 89.2144ZM90.3855 99.1266L90.2919 95.0433H92.5219L92.3862 99.1266H90.3855ZM87.9847 95.0433H90.1492L90.2428 99.1266H88.3006L87.9847 95.0433ZM88.1508 99.1266H86.335C86.1642 98.0245 85.9395 96.5901 85.6962 95.0433H87.8349L88.1508 99.1266ZM87.8957 93.9155L87.5167 89.2144H90.0017L90.1094 93.9155H87.8957ZM90.2732 93.9155L90.1655 89.2144H92.7208L92.5664 93.9155H90.2732ZM90.1398 88.0865L90.0392 83.7341H92.8987L92.7536 88.0865H90.1398ZM89.99 88.0865H87.4371L87.0978 83.7341H89.8824L89.99 88.0865ZM87.2944 88.0865H84.5917C84.4981 87.4851 84.4068 86.9165 84.3249 86.4041C84.0441 84.6444 83.9388 83.9822 83.8803 83.7341H86.9481L87.2944 88.0865ZM87.381 89.2144L87.7507 93.9155H85.523C85.4481 93.4475 85.3732 92.9561 85.289 92.474C85.1158 91.3625 84.9403 90.2534 84.7765 89.2144H87.381ZM85.3662 93.9155H83.9131L83.1245 89.2144H84.6268C84.8491 90.6675 85.1041 92.2845 85.3592 93.9155H85.3662ZM85.5441 95.0433C85.7664 96.4473 85.984 97.8513 86.1852 99.1266H84.7812L84.0956 95.0433H85.5441ZM92.543 99.1266L92.6787 95.0433H94.1669L93.8183 99.1266H92.543ZM92.8987 88.0865L93.0437 83.7341H95.124L94.7519 88.0865H92.8987ZM83.7352 83.7341C83.7937 84.0477 84.0699 85.7606 84.4372 88.0865H82.9233L82.1932 83.7341H83.7352ZM95.124 99.1266H93.954L94.3027 95.0433H95.599L95.124 99.1266ZM96.4204 88.0865H94.9017L95.2738 83.7341H96.9305L96.4204 88.0865Z" fill="#E0E0E0"/>
<path d="M31.1998 43.0762H23.3257V50.9503H31.1998V43.0762Z" fill="#EBEBEB"/>
<path d="M31.1998 52.1074H23.3257V59.9815H31.1998V52.1074Z" fill="#EBEBEB"/>
<path d="M40.3092 43.0762H32.4351V50.9503H40.3092V43.0762Z" fill="#EBEBEB"/>
<path d="M40.3092 52.1074H32.4351V59.9815H40.3092V52.1074Z" fill="#EBEBEB"/>
<path d="M49.1754 43.0762H41.3013V50.9503H49.1754V43.0762Z" fill="#EBEBEB"/>
<path d="M49.1754 52.1074H41.3013V59.9815H49.1754V52.1074Z" fill="#EBEBEB"/>
<path d="M58.2852 43.0762H50.4111V50.9503H58.2852V43.0762Z" fill="#EBEBEB"/>
<path d="M58.2852 52.1074H50.4111V59.9815H58.2852V52.1074Z" fill="#EBEBEB"/>
<path d="M67.1514 43.0762H59.2773V50.9503H67.1514V43.0762Z" fill="#EBEBEB"/>
<path d="M67.1514 52.1074H59.2773V59.9815H67.1514V52.1074Z" fill="#EBEBEB"/>
<path d="M76.2589 43.0762H68.3848V50.9503H76.2589V43.0762Z" fill="#EBEBEB"/>
<path d="M76.2589 52.1074H68.3848V59.9815H76.2589V52.1074Z" fill="#EBEBEB"/>
<path d="M85.1251 43.0762H77.251V50.9503H85.1251V43.0762Z" fill="#EBEBEB"/>
<path d="M85.1251 52.1074H77.251V59.9815H85.1251V52.1074Z" fill="#EBEBEB"/>
<path d="M94.2345 43.0762H86.3604V50.9503H94.2345V43.0762Z" fill="#EBEBEB"/>
<path d="M94.2345 52.1074H86.3604V59.9815H94.2345V52.1074Z" fill="#EBEBEB"/>
<path d="M103.101 43.0762H95.2266V50.9503H103.101V43.0762Z" fill="#EBEBEB"/>
<path d="M103.101 52.1074H95.2266V59.9815H103.101V52.1074Z" fill="#EBEBEB"/>
<path d="M112.211 43.0762H104.336V50.9503H112.211V43.0762Z" fill="#EBEBEB"/>
<path d="M112.211 52.1074H104.336V59.9815H112.211V52.1074Z" fill="#EBEBEB"/>
<path d="M31.1998 60.7305H23.3257V68.6046H31.1998V60.7305Z" fill="#EBEBEB"/>
<path d="M31.1998 69.7598H23.3257V77.6339H31.1998V69.7598Z" fill="#EBEBEB"/>
<path d="M40.3092 60.7305H32.4351V68.6046H40.3092V60.7305Z" fill="#EBEBEB"/>
<path d="M40.3092 69.7598H32.4351V77.6339H40.3092V69.7598Z" fill="#EBEBEB"/>
<path d="M49.1754 60.7305H41.3013V68.6046H49.1754V60.7305Z" fill="#EBEBEB"/>
<path d="M49.1754 69.7598H41.3013V77.6339H49.1754V69.7598Z" fill="#EBEBEB"/>
<path d="M58.2852 60.7305H50.4111V68.6046H58.2852V60.7305Z" fill="#EBEBEB"/>
<path d="M58.2852 69.7598H50.4111V77.6339H58.2852V69.7598Z" fill="#EBEBEB"/>
<path d="M67.1514 60.7305H59.2773V68.6046H67.1514V60.7305Z" fill="#EBEBEB"/>
<path d="M67.1514 69.7598H59.2773V77.6339H67.1514V69.7598Z" fill="#EBEBEB"/>
<path d="M76.2589 60.7305H68.3848V68.6046H76.2589V60.7305Z" fill="#EBEBEB"/>
<path d="M76.2589 69.7598H68.3848V77.6339H76.2589V69.7598Z" fill="#EBEBEB"/>
<path d="M85.1251 60.7305H77.251V68.6046H85.1251V60.7305Z" fill="#EBEBEB"/>
<path d="M85.1251 69.7598H77.251V77.6339H85.1251V69.7598Z" fill="#EBEBEB"/>
<path d="M94.2345 60.7305H86.3604V68.6046H94.2345V60.7305Z" fill="#EBEBEB"/>
<path d="M94.2345 69.7598H86.3604V77.6339H94.2345V69.7598Z" fill="#EBEBEB"/>
<path d="M103.101 60.7305H95.2266V68.6046H103.101V60.7305Z" fill="#EBEBEB"/>
<path d="M103.101 69.7598H95.2266V77.6339H103.101V69.7598Z" fill="#EBEBEB"/>
<path d="M112.211 60.7305H104.336V68.6046H112.211V60.7305Z" fill="#EBEBEB"/>
<path d="M112.211 69.7598H104.336V77.6339H112.211V69.7598Z" fill="#EBEBEB"/>
<path d="M13.1324 43.0762H5.2583V50.9503H13.1324V43.0762Z" fill="#EBEBEB"/>
<path d="M13.1324 52.1074H5.2583V59.9815H13.1324V52.1074Z" fill="#EBEBEB"/>
<path d="M22.2423 43.0762H14.3682V50.9503H22.2423V43.0762Z" fill="#EBEBEB"/>
<path d="M22.2423 52.1074H14.3682V59.9815H22.2423V52.1074Z" fill="#EBEBEB"/>
<path d="M13.1324 60.7305H5.2583V68.6046H13.1324V60.7305Z" fill="#EBEBEB"/>
<path d="M13.1324 69.7598H5.2583V77.6339H13.1324V69.7598Z" fill="#EBEBEB"/>
<path d="M22.2423 60.7305H14.3682V68.6046H22.2423V60.7305Z" fill="#EBEBEB"/>
<path d="M22.2423 69.7598H14.3682V77.6339H22.2423V69.7598Z" fill="#EBEBEB"/>
<path d="M12.1284 38.2871H35.1704L35.1704 4.88829H12.1284L12.1284 38.2871Z" fill="#E0E0E0"/>
<path d="M13.2822 38.2871H36.3242L36.3242 4.88829H13.2822L13.2822 38.2871Z" fill="#F5F5F5"/>
<path d="M33.46 8.50586H16.144V34.6694H33.46V8.50586Z" fill="white"/>
<path d="M16.146 34.6697C16.146 34.6697 16.146 34.6252 16.146 34.5433C16.146 34.4614 16.146 34.3327 16.146 34.1712C16.146 33.8436 16.146 33.3616 16.146 32.7368C16.146 31.4826 16.146 29.655 16.1624 27.3548C16.1624 22.7403 16.1788 16.2071 16.1905 8.51313L16.146 8.56461H33.462L33.4012 8.50144C33.4012 18.3716 33.4012 27.4718 33.4129 34.665L33.462 34.6322L20.8588 34.658L17.3768 34.672H16.4619H16.146H16.4525H17.3558H20.8283L33.4643 34.7001H33.5158V34.6486C33.5158 27.4554 33.5158 18.3552 33.5158 8.48505V8.42188H33.462H16.146H16.0898V8.48037C16.0898 16.1883 16.1109 22.7357 16.1179 27.3595C16.1179 29.6621 16.1179 31.4849 16.132 32.7415C16.132 33.3616 16.132 33.839 16.132 34.1666C16.132 34.3233 16.132 34.445 16.132 34.5316C16.132 34.6182 16.146 34.6697 16.146 34.6697Z" fill="#E0E0E0"/>
<path d="M13.2168 4.88867C13.3348 5.10021 13.4727 5.30002 13.6286 5.48537C13.8954 5.85041 14.2745 6.33011 14.7097 6.85661C15.145 7.38311 15.5474 7.84877 15.847 8.18105C15.9997 8.36893 16.1697 8.54206 16.3547 8.69819C16.2242 8.49388 16.0763 8.30127 15.9125 8.12255L14.8057 6.78641L13.6965 5.44091C13.5518 5.24418 13.3914 5.05949 13.2168 4.88867Z" fill="#E0E0E0"/>
<path d="M16.0552 34.5859C15.1955 35.9595 14.1828 37.2312 13.0366 38.3767L16.0552 34.5859Z" fill="white"/>
<path d="M13.0366 38.3764C13.2263 38.237 13.4025 38.0804 13.5631 37.9084C13.9644 37.4996 14.3447 37.0709 14.7027 36.6237C15.0605 36.1732 15.3947 35.7046 15.7042 35.2197C15.8426 35.0259 15.9602 34.818 16.0552 34.5996C15.9004 34.7794 15.7588 34.9702 15.6317 35.1706C15.3766 35.5263 15.0209 36.013 14.6044 36.5348C14.1879 37.0566 13.7901 37.5129 13.4976 37.8382C13.3292 38.0044 13.175 38.1844 13.0366 38.3764Z" fill="#E0E0E0"/>
<path d="M36.3262 38.262L33.3076 34.5391L36.3262 38.262Z" fill="white"/>
<path d="M33.3076 34.5391C33.762 35.1973 34.2501 35.8315 34.7701 36.4391C35.2572 37.0731 35.7766 37.6815 36.3262 38.262C35.8729 37.6029 35.3855 36.9679 34.8661 36.3596C34.3798 35.725 33.8596 35.1173 33.3076 34.5391Z" fill="#E0E0E0"/>
<path d="M36.3239 4.88867C35.806 5.44552 35.3193 6.03064 34.8661 6.64133C34.3772 7.22488 33.921 7.83499 33.4995 8.46887C34.0187 7.91204 34.5077 7.32776 34.9644 6.71855C35.4496 6.13309 35.9034 5.52227 36.3239 4.88867Z" fill="#E0E0E0"/>
<path d="M33.3992 12.4472C32.1988 11.1508 29.9313 10.5752 28.305 11.2538C27.496 11.6135 26.8128 12.2065 26.343 12.9569C25.8732 13.7073 25.6381 14.5809 25.6678 15.4658C24.0298 15.7395 22.7499 17.2278 22.3661 18.8541C21.9823 20.4804 22.3661 22.205 23.0119 23.7447C23.2787 24.3718 23.5946 24.9872 23.7139 25.6565C23.8333 26.3257 23.7397 27.0839 23.267 27.5753C22.7054 28.1603 21.8045 28.2141 21.0534 28.5113C19.9512 28.9629 19.165 29.9808 18.7274 31.0853C18.2898 32.1897 18.1564 33.3878 18.0254 34.5695H33.2986L33.3992 12.4472Z" fill="#EBEBEB"/>
<path d="M32.5266 31.3158C32.5406 31.3018 29.1851 27.5437 25.0386 22.9222C20.8921 18.3007 17.4827 14.5661 17.4664 14.5801C17.45 14.5942 20.8055 18.3545 24.9544 22.976C29.1032 27.5975 32.5055 31.3298 32.5266 31.3158Z" fill="#FAFAFA"/>
<path d="M19.0641 13.6876C19.0477 13.7039 21.1701 16.058 23.7862 18.9479C26.4023 21.8378 28.5528 24.1708 28.5691 24.1567C28.5855 24.1427 26.4631 21.7863 23.847 18.8964C21.2309 16.0065 19.0804 13.6735 19.0641 13.6876Z" fill="#FAFAFA"/>
<path d="M20.0332 20.8027C20.0567 20.8349 20.0834 20.8647 20.1128 20.8917L20.3468 21.1257L21.2383 22.0195C21.9871 22.7777 23.0144 23.833 24.1212 25.0241C25.228 26.2152 26.2085 27.3313 26.9105 28.1363C27.2544 28.5364 27.5352 28.8594 27.7365 29.091L27.9705 29.3508C27.9956 29.3816 28.023 29.4105 28.0524 29.4373C28.0328 29.4027 28.0092 29.3706 27.9822 29.3414L27.7692 29.0723C27.582 28.8383 27.3012 28.5084 26.9619 28.1012C26.274 27.2845 25.3052 26.1754 24.1984 24.982C23.0916 23.7886 22.0456 22.7379 21.2945 21.9961C20.913 21.6241 20.5925 21.3246 20.3842 21.1186L20.1338 20.8846C20.1027 20.8545 20.069 20.8271 20.0332 20.8027Z" fill="#FAFAFA"/>
<path d="M109.206 101.323C109.206 101.355 86.6059 101.383 58.7365 101.383C30.8671 101.383 8.2627 101.355 8.2627 101.323C8.2627 101.29 30.8577 101.262 58.7365 101.262C86.6153 101.262 109.206 101.29 109.206 101.323Z" fill="#263238"/>
<path d="M20.0537 92.5265C20.0537 92.5265 15.4602 87.2405 13.7357 81.9567C12.0111 76.673 12.8254 77.2767 12.8254 77.2767C12.8254 77.2767 15.1654 82.4107 16.9415 84.8911C18.7175 87.3715 21.8789 91.0102 21.8789 91.0102L20.0537 92.5265Z" fill="#455A64"/>
<path d="M20.9687 78.1006C20.9389 78.0446 20.8901 78.001 20.8311 77.9776C20.772 77.9543 20.7066 77.9528 20.6466 77.9734C20.5865 77.994 20.5358 78.0353 20.5035 78.0899C20.4712 78.1446 20.4594 78.2089 20.4703 78.2715C20.7511 80.1271 21.3548 84.4842 21.3314 87.3109C21.301 90.98 21.3314 92.4004 21.3314 92.4004H23.2432C23.2432 92.4004 22.9039 84.8118 22.471 82.4975C22.1714 80.8759 21.5279 79.0741 20.9687 78.1006Z" fill="#455A64"/>
<path d="M22.0098 91.7831C22.811 89.9679 23.3416 88.045 23.5846 86.0758C23.7414 84.7256 23.4606 82.8981 23.0417 80.4598C22.8832 79.5677 22.8049 78.6632 22.8077 77.7571C22.817 77.6608 22.8559 77.5697 22.9191 77.4964C22.9823 77.4231 23.0667 77.3712 23.1606 77.3478C23.2546 77.3245 23.3534 77.3308 23.4436 77.366C23.5338 77.4011 23.6108 77.4634 23.6641 77.5442C23.8981 77.956 24.5627 79.3624 24.7312 80.2445C25.1992 82.6501 25.7187 83.8528 25.3185 86.1367C24.9184 88.4205 23.4465 91.9352 23.4465 91.9352L22.0098 91.7831Z" fill="#455A64"/>
<path d="M23.732 91.9368C23.732 91.9368 28.7747 81.1002 29.114 79.4926C29.4533 77.885 30.6514 74.1808 30.7918 74.3914C30.9322 74.602 31.1405 76.5583 30.2325 78.7953C29.3246 81.0324 25.4449 92.2667 25.4449 92.2667H23.7227" fill="#455A64"/>
<path d="M21.4576 91.4517C21.4084 91.4225 21.3615 91.3897 21.3172 91.3534C21.2283 91.2856 21.0832 91.192 20.9264 91.0563C20.455 90.679 20.0029 90.2784 19.5716 89.8558C18.1519 88.4629 16.9214 86.8895 15.9118 85.1758C14.9061 83.4582 14.0692 81.6471 13.4127 79.7681C13.16 79.0474 12.9751 78.4577 12.8558 78.0482C12.7926 77.8446 12.7505 77.6855 12.7201 77.5802C12.702 77.5262 12.6895 77.4706 12.6826 77.4141C12.7057 77.4665 12.7253 77.5204 12.7411 77.5755C12.7809 77.6902 12.83 77.847 12.8956 78.0435C13.0266 78.4483 13.2232 79.0333 13.4852 79.7494C14.1604 81.6157 15.0031 83.417 16.0031 85.1314C17.0094 86.8408 18.2255 88.4177 19.6231 89.8254C20.1613 90.3636 20.6246 90.7614 20.9498 91.0446C21.1113 91.185 21.2423 91.2786 21.3289 91.3581C21.3739 91.3864 21.4168 91.4177 21.4576 91.4517Z" fill="#263238"/>
<path d="M22.0098 86.2535C21.9857 86.149 21.9708 86.0425 21.9654 85.9353C21.9396 85.7013 21.9092 85.4205 21.8718 85.0671C21.7922 84.3347 21.6682 83.3238 21.488 82.2123C21.3078 81.1008 21.1113 80.1063 20.9568 79.3809C20.882 79.0346 20.8211 78.7491 20.7743 78.5268C20.7457 78.4234 20.7261 78.3177 20.7158 78.2109C20.7584 78.3097 20.7913 78.4124 20.8141 78.5175C20.8703 78.7164 20.9451 79.0065 21.0317 79.3646C21.2049 80.0829 21.4155 81.0821 21.5957 82.196C21.7758 83.3098 21.8858 84.323 21.9467 85.0601C21.9771 85.4275 21.9981 85.727 22.0075 85.9329C22.018 86.0395 22.0187 86.1468 22.0098 86.2535Z" fill="#263238"/>
<path d="M23.1915 77.4551C23.2155 77.4991 23.2351 77.5453 23.25 77.5931C23.2898 77.6938 23.339 77.8271 23.4021 77.9956C23.4653 78.1641 23.5449 78.3841 23.6174 78.6391C23.69 78.8942 23.7906 79.182 23.8514 79.5073C23.8912 79.6711 23.9333 79.8395 23.9754 80.0174C24.0176 80.1952 24.048 80.3824 24.0878 80.5743C24.1697 80.9604 24.2211 81.3769 24.282 81.8145C24.3901 82.7675 24.43 83.727 24.4013 84.6857C24.3616 85.6446 24.2529 86.5995 24.0761 87.5428C23.9848 87.9757 23.9029 88.3875 23.7929 88.7643C23.7414 88.9538 23.697 89.1387 23.6432 89.3142L23.4817 89.8126C23.3858 90.1332 23.2688 90.4116 23.1752 90.6597C23.0816 90.9077 22.9926 91.1277 22.9131 91.2891L22.7329 91.6799C22.7131 91.7258 22.6905 91.7703 22.665 91.8133C22.676 91.764 22.6925 91.7162 22.7142 91.6706C22.754 91.5699 22.8078 91.4366 22.8756 91.2728C22.9435 91.109 23.0348 90.889 23.1096 90.6386C23.1845 90.3882 23.3085 90.1098 23.3998 89.7892L23.5542 89.2908C23.6057 89.1176 23.6478 88.9328 23.697 88.7432C23.8023 88.3665 23.8795 87.9546 23.9684 87.5241C24.1396 86.5857 24.2451 85.6364 24.2843 84.6833C24.3124 83.7296 24.2757 82.775 24.1743 81.8262C24.1158 81.391 24.069 80.9744 23.9895 80.5907C23.9544 80.3988 23.9263 80.2116 23.8865 80.0338C23.8467 79.8559 23.8046 79.6874 23.7672 79.526C23.6993 79.1984 23.6081 78.9129 23.5332 78.6578C23.4583 78.4028 23.3951 78.1898 23.3343 78.0073C23.2734 77.8248 23.236 77.7031 23.2009 77.6002C23.1926 77.5523 23.1895 77.5036 23.1915 77.4551Z" fill="#263238"/>
<path d="M30.7426 74.6094C30.7426 74.6094 30.7426 74.6258 30.7426 74.6585C30.7426 74.6913 30.7286 74.7428 30.7192 74.7989C30.6982 74.9206 30.6701 75.1055 30.621 75.3371C30.5227 75.8051 30.3612 76.4744 30.1085 77.2887C29.8558 78.103 29.5118 79.0577 29.1046 80.0967C28.6975 81.1356 28.2248 82.2869 27.7778 83.5037C27.3309 84.7205 26.9729 85.9046 26.6429 86.981C26.313 88.0574 26.0088 89.0238 25.7069 89.8217C25.4744 90.453 25.2088 91.0716 24.9113 91.675C24.806 91.8903 24.7148 92.0494 24.6539 92.1594L24.5837 92.2834C24.5674 92.3115 24.558 92.3255 24.5557 92.3232C24.5607 92.3079 24.5669 92.293 24.5744 92.2787C24.5908 92.2436 24.6095 92.2015 24.6352 92.15C24.689 92.0354 24.7756 91.8739 24.8692 91.6563C25.0728 91.2281 25.3372 90.5963 25.6321 89.7843C25.9269 88.9723 26.2217 88.0176 26.5423 86.9412C26.8629 85.8648 27.2162 84.6737 27.6702 83.4569C28.1242 82.2401 28.5945 81.0935 29.0063 80.0475C29.4182 79.0016 29.7715 78.0539 30.0313 77.2395C30.291 76.4252 30.4642 75.7653 30.5742 75.302C30.6303 75.068 30.6654 74.8902 30.6935 74.7685C30.7075 74.7123 30.7169 74.6679 30.7263 74.6304C30.7313 74.6231 30.7368 74.6161 30.7426 74.6094Z" fill="#263238"/>
<path d="M15.1958 72.2152C15.1261 72.1491 15.0365 72.1079 14.9409 72.098C14.8453 72.0881 14.7492 72.1102 14.6675 72.1606C14.5857 72.2111 14.523 72.2872 14.489 72.3771C14.4551 72.467 14.4518 72.5656 14.4797 72.6575C14.6521 73.2178 14.8641 73.7652 15.1139 74.2955C15.8159 75.7697 17.8447 81.0558 18.797 83.9574C19.7494 86.859 21.0926 92.2761 21.0926 92.2761L23.1284 91.9461C23.1284 91.9461 21.2564 83.0541 19.4476 79.8413C17.9851 77.2556 16.5226 73.5327 15.1958 72.2152Z" fill="#455A64"/>
<path d="M19.354 85.7637C19.3972 85.8378 19.4325 85.9162 19.4593 85.9977C19.5178 86.1591 19.5997 86.3908 19.6933 86.6809C19.8805 87.2613 20.1098 88.0732 20.3415 88.9741C20.5731 89.875 20.7627 90.6964 20.8984 91.2907C20.9592 91.5715 21.0107 91.8079 21.0505 91.9927C21.0744 92.0782 21.0886 92.1661 21.0926 92.2548C21.0571 92.1735 21.0297 92.0888 21.0107 92.0021L20.8235 91.3001C20.6691 90.6894 20.4632 89.8844 20.2362 88.9929C20.0092 88.1013 19.7892 87.2823 19.6208 86.6973L19.4195 85.9953C19.3902 85.9204 19.3683 85.8428 19.354 85.7637Z" fill="#263238"/>
<path d="M22.1151 92.1005C22.1151 92.1005 22.1151 92.0841 22.1034 92.0467C22.0917 92.0092 22.0893 91.9531 22.08 91.8876C22.0589 91.7472 22.0402 91.5366 21.9981 91.2698C21.9232 90.7363 21.7898 89.9664 21.5698 89.0257C21.3099 87.9255 20.992 86.8398 20.6175 85.7731C20.2009 84.568 19.6815 83.2647 19.0824 81.9168C17.8867 79.2235 16.6886 76.8343 15.9117 75.0676C15.5139 74.1854 15.2097 73.4671 15.0038 72.9616C14.9008 72.7136 14.826 72.517 14.7698 72.3836C14.7464 72.3228 14.7277 72.2713 14.7136 72.2315C14.7058 72.2144 14.7003 72.1963 14.6973 72.1777C14.7074 72.1932 14.716 72.2097 14.723 72.2269C14.7417 72.2667 14.7628 72.3158 14.7885 72.3743L15.0366 72.9453C15.2518 73.4413 15.5701 74.1574 15.9726 75.0325C16.7752 76.7899 17.9826 79.172 19.1807 81.87C19.7751 83.2202 20.2992 84.5283 20.7111 85.738C21.0833 86.8119 21.3958 87.9056 21.6471 89.014C21.8161 89.7556 21.9465 90.5054 22.0378 91.2604C22.0753 91.5295 22.087 91.7284 22.1034 91.8805C22.1034 91.9461 22.1034 91.9999 22.1151 92.042C22.1187 92.0613 22.1187 92.0812 22.1151 92.1005Z" fill="#263238"/>
<path d="M23.1281 91.9375C23.0972 91.8254 23.0745 91.7112 23.0602 91.5958C23.0181 91.3618 22.9666 91.0412 22.9011 90.6598C22.7607 89.8712 22.5454 88.7878 22.2389 87.6038C21.9323 86.4197 21.5907 85.3667 21.3263 84.6109C21.1952 84.2459 21.0923 83.944 21.008 83.717C20.9623 83.6097 20.9263 83.4985 20.9004 83.3848C20.9576 83.4861 21.0069 83.5917 21.0478 83.7007C21.1344 83.9089 21.2561 84.2084 21.3988 84.5852C21.7629 85.565 22.0753 86.5632 22.3348 87.5757C22.5974 88.5886 22.8091 89.614 22.969 90.6481C23.0275 91.0436 23.0719 91.3665 23.093 91.5841C23.1145 91.7007 23.1262 91.8189 23.1281 91.9375Z" fill="#263238"/>
<path d="M27.3051 91.6445H19.3608V101.325H27.3051V91.6445Z" fill="#3FA654"/>
<g opacity="0.3">
<path opacity="0.3" d="M27.3051 91.6445H19.3608V101.325H27.3051V91.6445Z" fill="#333333"/>
</g>
<path d="M24.7712 91.6445H17.7231V101.325H24.7712V91.6445Z" fill="#3FA654"/>
<path d="M84.6147 35.6484V64.1964H102.258V35.6484H84.6147Z" fill="#3FA654"/>
<g opacity="0.3">
<path opacity="0.3" d="M84.6147 35.6484V64.1964H102.258V35.6484H84.6147Z" fill="#333333"/>
</g>
<path d="M80.0001 8.69336H79.5157C79.3425 8.69336 79.2021 8.83374 79.2021 9.00692V57.4332C79.2021 57.6064 79.3425 57.7468 79.5157 57.7468H80.0001C80.1733 57.7468 80.3136 57.6064 80.3136 57.4332V9.00692C80.3136 8.83374 80.1733 8.69336 80.0001 8.69336Z" fill="#455A64"/>
<path d="M105.525 8.69336H105.041C104.867 8.69336 104.727 8.83374 104.727 9.00692V57.4332C104.727 57.6064 104.867 57.7468 105.041 57.7468H105.525C105.698 57.7468 105.839 57.6064 105.839 57.4332V9.00692C105.839 8.83374 105.698 8.69336 105.525 8.69336Z" fill="#455A64"/>
<path d="M105.284 13.3379H79.7593V14.2154H105.284V13.3379Z" fill="#455A64"/>
<path d="M105.284 21.002H79.7593V21.8795H105.284V21.002Z" fill="#455A64"/>
<path d="M105.284 28.666H79.7593V29.5435H105.284V28.666Z" fill="#455A64"/>
<path d="M105.284 36.3281H79.7593V37.2056H105.284V36.3281Z" fill="#455A64"/>
<path d="M105.284 43.9922H79.7593V44.8697H105.284V43.9922Z" fill="#455A64"/>
<path d="M105.284 51.6562H79.7593V52.5337H105.284V51.6562Z" fill="#455A64"/>
<path d="M83.0703 35.6484V59.2403H100.714V35.6484H83.0703Z" fill="#3FA654"/>
<path d="M85.6068 58.8931C85.5693 58.8744 85.6302 58.6778 85.7401 58.4532C85.8501 58.2286 85.9741 58.0648 86.0116 58.0835C86.049 58.1022 85.9882 58.2988 85.8782 58.5211C85.7682 58.7433 85.6442 58.9118 85.6068 58.8931Z" fill="#263238"/>
<path d="M86.7718 58.7058C86.7297 58.7058 86.7227 58.542 86.7554 58.3548C86.7882 58.1676 86.8467 58.0225 86.8888 58.0295C86.9309 58.0366 86.938 58.1957 86.9052 58.3805C86.8724 58.5654 86.8139 58.7128 86.7718 58.7058Z" fill="#263238"/>
<path d="M87.6869 58.7664C87.6471 58.7805 87.5465 58.5839 87.4131 58.3523C87.2797 58.1206 87.1627 57.9357 87.1955 57.9077C87.2283 57.8796 87.4061 58.0293 87.5465 58.2774C87.6869 58.5254 87.7267 58.7547 87.6869 58.7664Z" fill="#263238"/>
<path d="M93.0738 46.3087C93.034 46.3087 92.9334 46.0747 92.903 45.7354C92.8725 45.3961 92.9264 45.1363 92.9685 45.1387C93.0308 45.3264 93.0601 45.5236 93.0551 45.7213C93.0832 46.0396 93.1159 46.2993 93.0738 46.3087Z" fill="#263238"/>
<path d="M93.7664 45.9376C93.7243 45.9376 93.6611 45.7293 93.626 45.4579C93.5909 45.1864 93.5933 44.9618 93.626 44.9571C93.6588 44.9524 93.7313 45.1677 93.7688 45.4251C93.8062 45.6825 93.8085 45.9329 93.7664 45.9376Z" fill="#263238"/>
<path d="M94.7442 45.693C94.7068 45.7071 94.6202 45.583 94.5523 45.4146C94.4845 45.2461 94.4611 45.094 94.5009 45.0776C94.5406 45.0612 94.6249 45.1876 94.6927 45.3561C94.7606 45.5245 94.784 45.6766 94.7442 45.693Z" fill="#263238"/>
<path d="M95.3695 53.1187C95.3273 53.107 95.3344 52.9339 95.3835 52.7303C95.4326 52.5267 95.5028 52.3699 95.545 52.3793C95.5871 52.3887 95.5801 52.5618 95.5309 52.7654C95.4818 52.969 95.4092 53.1328 95.3695 53.1187Z" fill="#263238"/>
<path d="M96.5908 53.057C96.5557 53.0781 96.4364 52.9354 96.3802 52.7201C96.324 52.5048 96.3591 52.3199 96.4013 52.3223C96.4434 52.3246 96.4761 52.4861 96.5276 52.6803C96.5791 52.8745 96.6282 53.036 96.5908 53.057Z" fill="#263238"/>
<path d="M97.5082 53.1177C97.4707 53.1364 97.3725 53.0194 97.2438 52.8837C97.1151 52.748 97.0098 52.6497 97.0098 52.6169C97.0098 52.5842 97.197 52.6169 97.342 52.7761C97.4871 52.9352 97.5456 53.1013 97.5082 53.1177Z" fill="#263238"/>
<path d="M86.3323 39.6734C86.2949 39.6524 86.3745 39.4394 86.4447 39.1797C86.5149 38.92 86.5476 38.6953 86.5921 38.6953C86.6365 38.6953 86.6669 38.9293 86.5921 39.2195C86.5172 39.5096 86.3674 39.6945 86.3323 39.6734Z" fill="#263238"/>
<path d="M87.0739 39.5464C87.0318 39.5464 87.0295 39.3358 87.1207 39.1065C87.212 38.8772 87.3547 38.7251 87.3805 38.7485C87.4062 38.7719 87.343 38.9474 87.2611 39.1603C87.1792 39.3732 87.1161 39.5604 87.0739 39.5464Z" fill="#263238"/>
<path d="M87.8108 39.6783C87.7711 39.69 87.6915 39.5449 87.6751 39.3484C87.6587 39.1518 87.7079 38.9974 87.7477 39.0021C87.7874 39.0067 87.8085 39.1565 87.8249 39.3343C87.8413 39.5122 87.8506 39.6643 87.8108 39.6783Z" fill="#263238"/>
<path d="M95.7906 59.5044C95.7485 59.5044 95.7134 59.3523 95.7134 59.1674C95.7134 58.9826 95.7485 58.8281 95.7906 58.8281C95.8327 58.8281 95.8678 58.9802 95.8678 59.1674C95.8678 59.3546 95.8327 59.5044 95.7906 59.5044Z" fill="#263238"/>
<path d="M96.4293 59.8733C96.3872 59.8733 96.3404 59.6861 96.3241 59.4474C96.3077 59.2087 96.324 59.0145 96.3708 59.0098C96.4176 59.0052 96.4598 59.1994 96.4762 59.4381C96.4925 59.6767 96.4715 59.871 96.4293 59.8733Z" fill="#263238"/>
<path d="M97.6508 60.1106C97.6111 60.1246 97.5058 59.9328 97.4168 59.68C97.3279 59.4273 97.2858 59.212 97.3256 59.198C97.3654 59.1839 97.4707 59.3758 97.5596 59.6286C97.6485 59.8813 97.6906 60.0966 97.6508 60.1106Z" fill="#263238"/>
<path d="M94.1502 35.3133C94.19 35.2992 94.2882 35.4817 94.3678 35.7204C94.4474 35.9591 94.4848 36.1627 94.445 36.1767C94.4052 36.1908 94.307 36.0059 94.2251 35.7696C94.1432 35.5332 94.1104 35.3343 94.1502 35.3133Z" fill="#263238"/>
<path d="M94.9106 35.6214C94.9527 35.6214 94.9457 35.8554 94.9363 36.1455C94.927 36.4357 94.9176 36.6627 94.8755 36.6673C94.8333 36.672 94.7748 36.4333 94.7842 36.1408C94.7936 35.8483 94.8685 35.612 94.9106 35.6214Z" fill="#263238"/>
<path d="M95.9963 35.2642C96.036 35.2759 95.9799 35.559 95.8699 35.896C95.7599 36.233 95.6359 36.495 95.6008 36.481C95.5657 36.467 95.6172 36.1862 95.7248 35.8492C95.8325 35.5123 95.9565 35.2502 95.9963 35.2642Z" fill="#263238"/>
<path d="M58.8227 104.145L67.4152 111.583L67.2888 112.994L44.9793 113.94L40.2361 105.577L40.1963 104.191L58.8227 104.145Z" fill="#3FA654"/>
<g opacity="0.3">
<path opacity="0.3" d="M45.3092 112.653L67.4152 111.583L67.2888 112.994L44.9793 113.94L40.2361 105.577L40.1963 104.191L45.3092 112.653Z" fill="#333333"/>
</g>
<path d="M58.825 110.411L57.2245 108.979L51.7348 109.18L51.1709 110.851C54.1708 111.349 56.4897 111.225 58.825 110.411Z" fill="white"/>
<path d="M58.825 110.411C58.825 110.411 58.7805 110.43 58.6869 110.467C58.5933 110.505 58.4529 110.563 58.2611 110.617C57.7372 110.785 57.2024 110.916 56.6605 111.01C55.8489 111.147 55.0265 111.21 54.2035 111.197C53.1837 111.178 52.1668 111.082 51.1615 110.909L51.0913 110.898L51.1147 110.83C51.1989 110.582 51.2879 110.317 51.3768 110.048C51.4657 109.779 51.578 109.452 51.6763 109.161L51.6903 109.122H51.7325L57.2221 108.941H57.2385L58.4085 110.025L58.7127 110.308L58.811 110.404C58.7677 110.375 58.727 110.342 58.6893 110.306L58.364 110.027L57.194 109.002H57.2221L51.7348 109.225L51.791 109.182C51.6927 109.475 51.5921 109.77 51.4914 110.072C51.3908 110.373 51.3113 110.603 51.227 110.853L51.1802 110.774C52.1787 110.946 53.1883 111.046 54.2012 111.073C55.0194 111.089 55.8375 111.035 56.6465 110.912C57.186 110.827 57.7197 110.709 58.2447 110.558C58.4342 110.507 58.5629 110.465 58.6659 110.439L58.825 110.411Z" fill="#263238"/>
<path d="M55.0365 110.892C54.8895 110.375 54.8209 109.838 54.8329 109.301C54.9829 109.817 55.0516 110.354 55.0365 110.892Z" fill="#263238"/>
<path d="M55.942 110.136C55.9139 110.152 55.7852 109.982 55.6565 109.752C55.5278 109.523 55.4483 109.324 55.4763 109.308C55.5044 109.291 55.6355 109.464 55.7618 109.694C55.8882 109.923 55.9724 110.12 55.942 110.136Z" fill="#263238"/>
<path d="M56.74 109.764C56.7166 109.789 56.6137 109.736 56.506 109.647C56.3984 109.558 56.3329 109.462 56.3563 109.436C56.3797 109.41 56.4803 109.464 56.5903 109.553C56.7003 109.642 56.7611 109.745 56.74 109.764Z" fill="#263238"/>
<path d="M53.8199 110.298C53.7872 110.298 53.7661 110.095 53.8059 109.849C53.8457 109.603 53.9276 109.421 53.9603 109.43C53.9931 109.439 53.9603 109.634 53.9276 109.87C53.8948 110.106 53.8644 110.298 53.8199 110.298Z" fill="#263238"/>
<path d="M52.8277 110.025C52.7972 110.009 52.844 109.868 52.9306 109.712C53.0172 109.555 53.1108 109.44 53.1412 109.457C53.1716 109.473 53.1248 109.613 53.0383 109.77C52.9517 109.927 52.8557 110.042 52.8277 110.025Z" fill="#263238"/>
<path d="M51.4799 101.322L50.8692 104.544L50.5065 105.888C50.4667 106.494 50.813 107.058 51.4214 107.074L58.6755 107.086C58.7762 107.086 58.8745 107.055 58.9573 106.998C59.0401 106.94 59.1035 106.859 59.1391 106.765C59.1746 106.671 59.1807 106.568 59.1564 106.47C59.1321 106.372 59.0786 106.284 59.003 106.218C58.7754 106.033 58.5115 105.9 58.2285 105.824C56.883 105.424 54.639 104.83 54.639 104.83L55.2427 101.556L51.4799 101.322Z" fill="#EBB376"/>
<path d="M60.5567 49.1406C60.5567 49.1406 62.8499 51.7778 63.0745 60.3141C63.2079 65.4621 59.9319 80.4873 59.3539 83.8616C58.9608 86.1594 54.9337 104.627 54.9337 104.627H50.7778C50.7778 104.627 53.4408 81.339 53.3518 78.9125C53.2629 76.4859 52.3807 63.5808 52.3807 63.5808L51.1054 53.7738L60.5567 49.1406Z" fill="#263238"/>
<path d="M47.0338 102.934L46.9192 104.762L46.6665 105.731C46.498 106.374 46.5963 106.746 46.9543 107.369C46.9543 107.369 48.6835 110.453 49.1539 110.794C49.774 111.246 52.1467 111.744 52.0953 110.979C52.0438 110.214 50.0431 104.914 50.0431 104.914L50.5626 102.918L47.0338 102.934Z" fill="#EBB376"/>
<path d="M41.5955 51.4453C41.8857 51.5413 52.0062 53.2869 52.0062 53.2869C52.0062 53.2869 55.4554 79.8599 55.7502 83.3512C56.045 86.8425 50.5156 104.619 50.5156 104.619H46.7272C46.7272 104.619 46.2592 92.8774 47.029 89.2855C47.7989 85.6936 47.8059 84.8231 47.3215 82.5907C46.8371 80.3584 41.8506 69.6786 40.5893 63.7607C39.3281 57.8429 41.5955 51.4453 41.5955 51.4453Z" fill="#263238"/>
<path d="M52.884 60.3066C52.884 60.3066 52.884 60.3464 52.884 60.4213C52.884 60.4962 52.905 60.6179 52.9214 60.7629C52.9589 61.0671 53.0103 61.5071 53.0759 62.0687C53.2186 63.2106 53.4198 64.8486 53.6702 66.8727C54.1803 70.9302 54.887 76.5275 55.6639 82.7098C55.6866 83.4756 55.6373 84.2418 55.5165 84.9983C55.4112 85.7471 55.2825 86.4842 55.1397 87.205C54.8566 88.6441 54.536 90.027 54.2037 91.3374C53.5579 93.9605 52.9097 96.3052 52.3528 98.2708C51.7959 100.236 51.3255 101.821 51.0003 102.916C50.8388 103.459 50.7125 103.882 50.6235 104.177C50.5838 104.317 50.551 104.425 50.5276 104.505C50.5042 104.584 50.4995 104.619 50.4995 104.619C50.4995 104.619 50.5159 104.582 50.5416 104.509C50.5674 104.437 50.6025 104.322 50.6493 104.184L51.0471 102.932C51.3887 101.839 51.8731 100.26 52.4511 98.2966C53.0291 96.3333 53.6772 93.9886 54.3231 91.3655C54.6483 90.0551 54.9712 88.6721 55.2591 87.2283C55.4041 86.5076 55.5352 85.7682 55.6382 85.0147C55.7626 84.2499 55.8127 83.4749 55.7879 82.7005C55.0227 76.5065 54.281 70.9162 53.7568 66.861C53.49 64.8392 53.2724 63.2012 53.1227 62.064L52.9425 60.7583L52.8933 60.4213C52.884 60.3441 52.884 60.3066 52.884 60.3066Z" fill="#455A64"/>
<path d="M52.046 58.9202C52.032 58.9366 51.8401 58.7728 51.5008 58.5529C50.613 57.9802 49.583 57.6666 48.5267 57.6473C48.1219 57.6473 47.8715 57.6683 47.8691 57.6473C47.9238 57.6223 47.9824 57.6072 48.0423 57.6028C48.2025 57.5766 48.3644 57.5617 48.5267 57.5584C49.6077 57.53 50.6687 57.8536 51.55 58.4803C51.6831 58.5728 51.8091 58.6753 51.9267 58.7869C52.0086 58.8688 52.0531 58.9132 52.046 58.9202Z" fill="#455A64"/>
<path d="M57.2831 55.5686C57.2724 55.6352 57.2519 55.6999 57.2223 55.7605C57.1755 55.8798 57.0983 56.0506 56.9883 56.2566C56.4332 57.3331 55.6469 58.2736 54.6857 59.0107C54.5009 59.1511 54.3464 59.2448 54.2364 59.3243C54.1828 59.3652 54.1227 59.3968 54.0586 59.4179C54.0586 59.4015 54.2786 59.2377 54.6319 58.9499C55.5494 58.1851 56.3222 57.2617 56.9134 56.2238C57.1451 55.819 57.2644 55.5592 57.2831 55.5686Z" fill="#455A64"/>
<path d="M41.1836 34.8893L42.9339 48.3396L43.2896 52.0251C43.2896 52.0251 52.8953 54.2574 58.4551 51.4284C58.9362 51.2019 59.3685 50.884 59.7281 50.4924C60.3997 49.7038 60.8373 49.3739 60.2101 48.5502L58.4996 45.8124C58.4996 45.8124 60.4769 41.46 59.6462 37.9594C58.8155 34.4587 57.4302 28.7585 57.4302 28.7585L52.8391 28.0354L46.8885 27.9512L42.0447 28.5479L41.1836 34.8893Z" fill="#EBB376"/>
<path d="M59.7938 38.6231L59.7494 38.1551L57.3088 34.0975L56.12 28.5657L55.418 28.4487L56.588 34.0296L51.8636 39.1402L45.8872 34.1841L45.2414 28.1562L44.5113 28.2101L45.2624 34.3081L42.5387 37.6145L41.5044 38.6231V39.2361L42.3538 44.3397L59.0755 44.7188L59.4545 43.1814C59.8219 41.6916 59.9366 40.1508 59.7938 38.6231Z" fill="#3FA654"/>
<path d="M55.9565 45.998C55.7448 46.1015 55.5218 46.1801 55.2919 46.232C54.7469 46.3786 54.1903 46.478 53.6282 46.5292C53.0652 46.5757 52.4994 46.5757 51.9364 46.5292C51.699 46.5238 51.4633 46.4893 51.2344 46.4263C51.4685 46.4171 51.7029 46.4226 51.9364 46.4426C52.4953 46.4606 53.0548 46.4449 53.6118 46.3958C54.1687 46.3429 54.7219 46.2569 55.2685 46.1384C55.4946 46.077 55.7244 46.0301 55.9565 45.998Z" fill="#FF9A6C"/>
<g opacity="0.3">
<path opacity="0.3" d="M59.2394 44.7202L58.6825 40.6135L55.7598 34.9062L54.9432 35.7884L57.3019 42.7827C56.8339 42.7406 55.2801 42.5487 54.1499 41.9309C54.1499 41.9309 55.114 43.5245 57.5944 43.6462L57.9477 44.6945L59.2394 44.7202Z" fill="#333333"/>
</g>
<path d="M58.0319 42.4436C58.005 42.3988 57.9837 42.3509 57.9687 42.3008C57.9266 42.1932 57.8751 42.0668 57.8096 41.8843L57.2457 40.3493C56.7777 39.0342 56.1365 37.2417 55.4298 35.2621C54.7676 33.3667 54.1639 31.6445 53.7146 30.3598C53.4067 29.8461 53.1646 29.2958 52.9939 28.7218C52.956 28.5606 52.9512 28.3935 52.9798 28.2304C52.9875 28.1867 53.0088 28.1466 53.0407 28.1157C53.0688 28.097 53.0875 28.1157 53.0851 28.1157C53.0828 28.1157 53.0688 28.1157 53.05 28.1321C53.026 28.1644 53.0107 28.2022 53.0056 28.2421C52.9894 28.3989 53.0013 28.5574 53.0407 28.7101C53.2294 29.2734 53.4814 29.8135 53.7918 30.32C54.2598 31.6023 54.8635 33.3222 55.5375 35.2106C56.2395 37.1973 56.8596 38.9921 57.3205 40.3095C57.5382 40.953 57.716 41.4795 57.847 41.8609L57.9828 42.2844C58.0035 42.336 58.0199 42.3893 58.0319 42.4436Z" fill="#FF9A6C"/>
<path d="M50.897 40.6133C50.8499 40.7087 50.7918 40.7982 50.7238 40.88C50.5483 41.11 50.3517 41.3231 50.1365 41.5165C49.4243 42.1657 48.5404 42.5963 47.5903 42.7568C46.6401 42.9174 45.6638 42.8012 44.7779 42.4221C44.5114 42.3097 44.256 42.1726 44.015 42.0126C43.9235 41.9589 43.8394 41.8937 43.7646 41.8184C44.1011 42.0198 44.4506 42.1988 44.8106 42.3542C45.6865 42.7018 46.6412 42.8014 47.57 42.6421C48.4988 42.4828 49.3657 42.0707 50.0756 41.451C50.3661 41.1886 50.6404 40.9089 50.897 40.6133Z" fill="#263238"/>
<path d="M58.0319 42.7635C57.9624 42.7863 57.8898 42.7982 57.8166 42.7986C57.6184 42.8184 57.4191 42.8254 57.2199 42.8197C56.5614 42.8039 55.9086 42.6919 55.2824 42.4874C54.656 42.2814 54.0637 41.9833 53.5251 41.6029C53.3612 41.4899 53.2049 41.3664 53.0571 41.2331C52.9518 41.1372 52.8979 41.0834 52.9026 41.0764C52.9073 41.0693 53.1553 41.2612 53.5719 41.5444C54.117 41.8959 54.7043 42.1774 55.3198 42.3821C55.9361 42.5831 56.5753 42.705 57.2223 42.7448C57.7277 42.7635 58.0319 42.7424 58.0319 42.7635Z" fill="#263238"/>
<g opacity="0.3">
<path opacity="0.3" d="M44.207 35.7168C44.1766 35.7613 42.1735 40.2798 42.1735 40.2798C42.1735 40.2798 43.8513 43.1791 47.2232 42.7462L47.3309 42.7298C47.3309 42.7298 44.9909 43.8506 42.6953 42.5473L42.2414 43.6541L41.5581 39.5638L44.207 35.7168Z" fill="#333333"/>
</g>
<path d="M51.7865 39.204C51.7655 39.204 51.8497 38.956 51.9035 38.5512C51.9332 38.3145 51.9419 38.0757 51.9293 37.8375C51.8991 37.2535 51.7435 36.6828 51.473 36.1644C51.3629 35.9531 51.2345 35.7519 51.0892 35.563C50.8388 35.2424 50.6423 35.0763 50.6587 35.0599C50.675 35.0435 50.7148 35.0903 50.8061 35.1629C50.9329 35.2672 51.0496 35.3831 51.1547 35.5092C51.3138 35.6957 51.4534 35.898 51.5713 36.1129C51.7138 36.3774 51.8268 36.6568 51.9082 36.9459C51.9845 37.2359 52.0292 37.5332 52.0416 37.8328C52.0486 38.0774 52.0306 38.322 51.9878 38.5629C51.9609 38.7226 51.9186 38.8793 51.8614 39.0309C51.8216 39.1479 51.7959 39.2064 51.7865 39.204Z" fill="#FF9A6C"/>
<path d="M55.2448 49.8086C54.7931 50.0194 54.2773 50.047 53.8057 49.8858L55.2448 49.8086Z" fill="#EBB376"/>
<path d="M53.8057 49.8873C53.8174 49.8522 54.1333 49.9505 54.5287 49.9271C54.9242 49.9037 55.2307 49.7773 55.2448 49.8101C55.0343 49.9518 54.7893 50.0338 54.5359 50.0474C54.2825 50.061 54.0301 50.0057 53.8057 49.8873Z" fill="#FF9A6C"/>
<path d="M54.0537 52.7889C54.0537 52.7889 51.6623 51.998 50.3097 51.6353C48.6577 51.1931 48.6881 50.5004 48.8566 49.8686C49.0251 49.2368 50.0594 49.4006 50.9298 48.9677C51.4751 48.701 51.5804 48.3476 51.5874 48.1277C51.5878 48.1049 51.5827 48.0824 51.5726 48.062C51.5625 48.0416 51.5477 48.0239 51.5294 48.0104C51.5111 47.9968 51.4898 47.9879 51.4673 47.9843C51.4448 47.9807 51.4218 47.9825 51.4002 47.9896C50.5414 48.2938 49.3644 47.7135 48.536 47.8562C47.6515 48.0107 45.5221 48.9209 45.5221 48.9209L42.5152 47.1074L40.9731 50.0769L43.0791 51.7453C43.8607 52.4239 46.5002 54.5931 46.7763 54.7077C47.0946 54.8388 48.3301 54.696 48.8355 54.6282C48.9408 54.668 49.0438 54.7031 49.1374 54.7335C51.4563 55.5057 51.3113 54.3614 51.3113 54.3614C53.2722 54.4808 52.8931 53.5611 52.8931 53.5611C54.8727 53.5424 54.0537 52.7889 54.0537 52.7889Z" fill="#EBB376"/>
<path d="M59.1782 50.4775C59.1236 50.5389 59.0615 50.5931 58.9933 50.6389C58.817 50.7765 58.6334 50.9046 58.4434 51.0227C57.8153 51.4163 57.141 51.7307 56.4357 51.9587C55.732 52.1858 55.0038 52.3288 54.2665 52.3846C53.9834 52.4056 53.754 52.4103 53.5973 52.4056C53.5149 52.4088 53.4325 52.4025 53.3516 52.3869C53.3516 52.3659 53.7002 52.3612 54.2595 52.3003C54.9857 52.2193 55.7022 52.0665 56.3982 51.844C57.0945 51.6186 57.7651 51.3206 58.3989 50.9548C58.8833 50.667 59.1665 50.4611 59.1782 50.4775Z" fill="#FF9A6C"/>
<path d="M40.6807 29.2644C40.6807 29.2644 39.024 30.9772 37.0069 34.396C34.5616 38.5354 30.7802 43.9713 31.9759 46.6412C33.1717 49.3111 43.016 51.8407 43.2922 52.0232C43.5683 52.2057 44.4902 48.3377 44.4902 48.3377L38.3337 44.245L44.6517 35.0582C44.6517 35.0582 45.3537 29.8119 43.7438 28.897C42.0754 27.9516 40.6807 29.2644 40.6807 29.2644Z" fill="#EBB376"/>
<path d="M42.5108 47.1074C42.5108 47.1074 42.5318 47.1074 42.5646 47.1332L42.719 47.2197L43.311 47.5661L45.5364 48.8905H45.5036C46.368 48.5103 47.2532 48.179 48.1548 47.8983C48.4196 47.8157 48.6968 47.7801 48.9738 47.793C49.2592 47.8146 49.543 47.8544 49.8233 47.9124C50.1123 47.9686 50.4046 48.0069 50.6984 48.027C50.8471 48.0336 50.9961 48.025 51.143 48.0013C51.2166 47.9881 51.2893 47.9701 51.3606 47.9475C51.4094 47.9271 51.4642 47.9267 51.5133 47.9464C51.5623 47.9661 51.6016 48.0043 51.6227 48.0528C51.634 48.2246 51.596 48.3961 51.513 48.547C51.4301 48.6979 51.3058 48.8219 51.1547 48.9045C50.8654 49.0778 50.549 49.2012 50.2187 49.2696C49.8895 49.3286 49.5656 49.4139 49.25 49.5246C49.1765 49.5532 49.1096 49.5966 49.0537 49.6522C48.9977 49.7077 48.9538 49.7743 48.9247 49.8476C48.8723 50.0079 48.8432 50.175 48.8381 50.3436C48.8375 50.5127 48.8826 50.6787 48.9687 50.8241C49.0548 50.9696 49.1787 51.089 49.3272 51.1697C49.6313 51.3558 49.963 51.4924 50.31 51.5745C51.012 51.7664 51.7327 51.9863 52.4581 52.2133L54.061 52.7304H54.075C54.1392 52.7904 54.1916 52.8618 54.2295 52.941C54.2516 52.9834 54.2641 53.0301 54.2661 53.0778C54.2681 53.1255 54.2596 53.1731 54.2412 53.2172C54.223 53.2612 54.1959 53.3011 54.1616 53.3342C54.1265 53.3622 54.0891 53.388 54.054 53.4114C53.9795 53.4495 53.901 53.4793 53.82 53.5003C53.5128 53.5689 53.1987 53.6011 52.884 53.5962L52.9401 53.5143C52.975 53.6083 52.9832 53.71 52.9637 53.8083C52.9443 53.9066 52.8981 53.9976 52.8302 54.0713C52.6964 54.203 52.5273 54.2932 52.3434 54.331C51.9996 54.4018 51.6474 54.4231 51.2975 54.3942L51.3583 54.331C51.3668 54.4686 51.329 54.6051 51.251 54.7187C51.173 54.8323 51.0592 54.9166 50.9277 54.9581C50.6861 55.0314 50.4316 55.0522 50.1813 55.019C49.7114 54.9491 49.2508 54.8275 48.8077 54.6563H48.8334C48.5105 54.6984 48.1923 54.7335 47.8811 54.7569C47.574 54.788 47.2648 54.7935 46.9568 54.7733C46.8759 54.7679 46.7966 54.7481 46.7228 54.7148C46.6559 54.6785 46.5911 54.6386 46.5285 54.5954C46.4069 54.5112 46.2945 54.4269 46.1752 54.3427L45.506 53.8373C44.6472 53.175 43.889 52.5737 43.2619 52.0355H43.2736L41.0155 51.3007L40.4165 51.1018L40.2644 51.048L40.2129 51.0269L40.2667 51.0386L40.4235 51.0831L41.0272 51.2656L43.2947 51.9676C43.9265 52.4964 44.6987 53.0931 45.5504 53.7507L46.2384 54.2889C46.353 54.3708 46.4724 54.455 46.5917 54.5369C46.6496 54.5777 46.7098 54.6152 46.7719 54.6492C46.835 54.6763 46.9023 54.6921 46.9708 54.696C47.5911 54.7124 48.2115 54.6708 48.8241 54.572H48.8358C49.2715 54.7385 49.7243 54.8562 50.186 54.923C50.4212 54.9562 50.6609 54.937 50.888 54.8669C50.9963 54.8353 51.0907 54.7678 51.1558 54.6756C51.2208 54.5833 51.2526 54.4718 51.246 54.3591V54.2912H51.3115C51.649 54.3172 51.9884 54.2959 52.32 54.228C52.4827 54.194 52.6317 54.1126 52.7483 53.994C52.8013 53.9374 52.8377 53.8673 52.8534 53.7913C52.869 53.7153 52.8635 53.6365 52.8372 53.5635L52.8091 53.4816H52.884C53.1885 53.4859 53.4924 53.4545 53.7896 53.388C53.93 53.3505 54.0891 53.2897 54.1335 53.175C54.178 53.0604 54.0938 52.92 53.9955 52.824L54.0189 52.8357L52.416 52.3209C51.6929 52.0869 50.9792 51.874 50.2725 51.6821C49.9129 51.596 49.5692 51.453 49.2546 51.2586C49.0942 51.1601 48.9582 51.0265 48.8568 50.8678C48.7564 50.7067 48.7059 50.5194 48.7118 50.3296C48.7176 50.1488 48.7499 49.9698 48.8077 49.7984C48.8411 49.7099 48.8928 49.6294 48.9593 49.5621C49.0258 49.4947 49.1057 49.4421 49.1938 49.4076C49.5167 49.2936 49.8486 49.2067 50.186 49.1479C50.5024 49.0824 50.806 48.9654 51.0845 48.8016C51.2143 48.7197 51.3251 48.6113 51.4098 48.4833C51.4494 48.4203 51.4794 48.3517 51.4987 48.2798C51.5093 48.2447 51.5164 48.2086 51.5198 48.1721C51.5198 48.1534 51.5198 48.1347 51.5198 48.1183C51.5222 48.1059 51.5222 48.0932 51.5198 48.0809C51.5148 48.069 51.5074 48.0583 51.498 48.0495C51.4886 48.0407 51.4775 48.034 51.4654 48.0298C51.4532 48.0256 51.4403 48.024 51.4275 48.0252C51.4147 48.0263 51.4023 48.0301 51.3911 48.0364C51.315 48.0629 51.2367 48.0825 51.1571 48.0949C51.0023 48.1186 50.8455 48.1272 50.6891 48.1206C50.3912 48.0988 50.095 48.0581 49.8022 47.999C49.5255 47.9424 49.2458 47.9018 48.9645 47.8773C48.6977 47.8633 48.4306 47.8974 48.1759 47.9779C47.2754 48.2499 46.3911 48.5725 45.527 48.9443H45.5106H45.4943L43.29 47.5988L42.7073 47.2385L42.5576 47.1425L42.5108 47.1074Z" fill="#FF9A6C"/>
<path d="M48.8241 50.4824C48.7816 50.3514 48.767 50.2129 48.7811 50.076C48.7952 49.939 48.8377 49.8064 48.906 49.6868C49.0433 49.4474 49.2299 49.24 49.4535 49.0784C50.6048 48.1705 52.1422 47.9505 53.6047 47.8429C54.4444 47.7633 55.2898 47.7633 56.1296 47.8429" fill="#EBB376"/>
<path d="M56.1296 47.8426C56.0174 47.8509 55.9048 47.8509 55.7926 47.8426C55.5773 47.8426 55.2638 47.8263 54.8777 47.8426C54.4916 47.859 54.0306 47.8777 53.5205 47.9222C52.9708 47.9628 52.4239 48.0347 51.8825 48.1375C51.3391 48.2353 50.8106 48.4029 50.31 48.6359C49.9012 48.8231 49.5264 49.077 49.2008 49.387C48.9802 49.5919 48.8407 49.8693 48.8077 50.1686C48.8057 50.2791 48.8143 50.3896 48.8335 50.4985C48.8335 50.4985 48.8147 50.4751 48.796 50.419C48.771 50.3379 48.7592 50.2534 48.7609 50.1686C48.7756 49.8503 48.9102 49.5493 49.1377 49.3262C49.463 48.999 49.8432 48.7313 50.2609 48.5353C50.7683 48.2928 51.3058 48.1189 51.8591 48.0181C52.408 47.9141 52.9629 47.8445 53.5205 47.8099C54.0329 47.7724 54.4963 47.7537 54.8847 47.7561C55.2731 47.7584 55.5867 47.7795 55.8067 47.8029C55.9153 47.8054 56.0235 47.8187 56.1296 47.8426Z" fill="#FF9A6C"/>
<path d="M57.194 24.3549C57.2104 23.6318 57.5263 22.9509 57.8001 22.284C58.0739 21.6171 58.3126 20.88 58.1675 20.178C57.9826 19.2864 57.2315 18.6242 56.8688 17.7912C56.5061 16.9581 56.5318 16.0057 56.5201 15.0908C56.5084 14.1759 56.4172 13.2024 55.8602 12.477C55.1582 11.5597 53.1716 11.2672 52.1841 11.871C51.688 17.033 50.1085 22.1833 50.8737 27.315C53.4058 27.5882 55.9642 27.1558 58.2658 26.0654C57.5638 25.8735 57.18 25.0779 57.194 24.3549Z" fill="#263238"/>
<path d="M46.6218 26.7091L46.0977 14.2744C46.1023 13.9966 46.2113 13.7308 46.4029 13.5296C46.5945 13.3285 46.8547 13.2068 47.1319 13.1886L53.0615 11.9344C54.9522 11.8103 56.1035 14.1784 56.1573 16.0738C56.2088 18.1798 56.1854 20.7538 55.8765 22.3076C55.2517 25.4385 52.8205 25.7404 52.8205 25.7404L52.9866 28.0804C53.0369 28.8113 52.8199 29.5357 52.3759 30.1185C51.9623 30.6629 51.376 31.0506 50.7132 31.2181C50.0504 31.3856 49.3504 31.323 48.7278 31.0405L48.5593 30.9632C48.0778 30.7464 47.6617 30.4068 47.3529 29.9784C47.044 29.5501 46.8532 29.048 46.7997 28.5226L46.6218 26.7091Z" fill="#EBB376"/>
<path d="M54.9664 18.62C54.9627 18.7255 54.9182 18.8255 54.8423 18.8988C54.7663 18.9722 54.6648 19.0131 54.5592 19.0131C54.5076 19.015 54.4562 19.0065 54.4079 18.9883C54.3596 18.97 54.3154 18.9424 54.2779 18.9068C54.2405 18.8713 54.2104 18.8287 54.1896 18.7815C54.1688 18.7342 54.1576 18.6833 54.1567 18.6317C54.1604 18.5265 54.2045 18.4269 54.28 18.3536C54.3555 18.2803 54.4564 18.2391 54.5616 18.2385C54.6133 18.2367 54.6648 18.2451 54.7133 18.2633C54.7617 18.2815 54.806 18.3092 54.8437 18.3446C54.8814 18.3801 54.9116 18.4227 54.9327 18.47C54.9537 18.5173 54.9652 18.5682 54.9664 18.62Z" fill="#263238"/>
<path d="M55.5046 17.2246C55.4532 17.2761 55.156 17.0374 54.7207 17.021C54.2855 17.0047 53.9579 17.2106 53.9134 17.1568C53.869 17.1029 53.9462 17.0374 54.0889 16.9415C54.2826 16.82 54.5087 16.7604 54.7371 16.7707C54.9643 16.7799 55.1825 16.8619 55.3596 17.0047C55.4883 17.1053 55.5304 17.2036 55.5046 17.2246Z" fill="#263238"/>
<path d="M51.2458 18.62C51.2427 18.7253 51.1987 18.8253 51.1231 18.8987C51.0476 18.9721 50.9463 19.0131 50.841 19.0131C50.7893 19.0153 50.7377 19.0071 50.6893 18.9889C50.6408 18.9708 50.5965 18.9431 50.559 18.9076C50.5214 18.872 50.4914 18.8292 50.4707 18.7818C50.45 18.7344 50.4391 18.6834 50.4385 18.6317C50.4415 18.5263 50.4855 18.4263 50.5611 18.3529C50.6367 18.2795 50.7379 18.2385 50.8433 18.2385C50.8949 18.2367 50.9463 18.2451 50.9946 18.2633C51.0429 18.2816 51.0871 18.3093 51.1246 18.3448C51.1621 18.3803 51.1921 18.4229 51.2129 18.4702C51.2337 18.5174 51.2449 18.5683 51.2458 18.62Z" fill="#263238"/>
<path d="M51.4795 17.356C51.4256 17.4052 51.1285 17.1688 50.6932 17.1524C50.258 17.1361 49.9327 17.3396 49.8882 17.2858C49.8438 17.232 49.9187 17.1688 50.0637 17.0729C50.2566 16.9492 50.4831 16.8887 50.7119 16.8997C50.9384 16.9093 51.1557 16.9913 51.332 17.1337C51.4584 17.2367 51.5005 17.3326 51.4795 17.356Z" fill="#263238"/>
<path d="M52.7268 20.5909C52.9557 20.5284 53.1916 20.4946 53.4288 20.4902C53.5411 20.4902 53.6464 20.4668 53.6628 20.3896C53.6752 20.2758 53.6532 20.1609 53.5996 20.0597L53.3048 19.2009C52.8976 17.9794 52.6028 16.9756 52.6543 16.9592C52.7058 16.9428 53.0755 17.9209 53.485 19.1424L53.7658 20.0059C53.8302 20.1425 53.8442 20.2975 53.8056 20.4434C53.7879 20.482 53.7617 20.516 53.7288 20.5428C53.6959 20.5696 53.6573 20.5884 53.616 20.5979C53.5542 20.6139 53.4902 20.6202 53.4265 20.6166C53.1931 20.6358 52.9582 20.6272 52.7268 20.5909Z" fill="#263238"/>
<path d="M52.8278 25.7546C51.3427 25.7193 49.8966 25.2721 48.6509 24.4629C48.6509 24.4629 49.7203 26.8356 52.8863 26.6648L52.8278 25.7546Z" fill="#FF9A6C"/>
<path d="M51.5382 15.5284C51.4914 15.6431 51.0585 15.5705 50.546 15.6126C50.0336 15.6548 49.61 15.7764 49.5515 15.6688C49.5235 15.615 49.6007 15.5073 49.7715 15.3997C49.9989 15.2675 50.2536 15.189 50.516 15.1704C50.7784 15.1517 51.0416 15.1933 51.2855 15.292C51.4797 15.3763 51.5593 15.4722 51.5382 15.5284Z" fill="#E0E0E0"/>
<path d="M54.0937 15.2481C54.206 15.1803 54.4915 15.3792 54.873 15.5055C55.2544 15.6319 55.5984 15.667 55.6428 15.7887C55.6592 15.8472 55.5773 15.9244 55.4088 15.9688C55.1804 16.0175 54.9429 16.0013 54.7232 15.922C54.503 15.8484 54.3082 15.7136 54.1616 15.5336C54.054 15.3932 54.0539 15.2832 54.0937 15.2481Z" fill="#263238"/>
<path d="M53.7661 11.9105C53.3191 10.5065 52.1585 10.3006 50.9159 10.0736C49.6734 9.8466 47.778 10.2701 46.7039 10.9207C45.8592 11.4261 44.9021 12.0766 44.2703 12.8301C43.6385 13.5836 43.3554 14.4073 42.9506 15.2614C42.3235 16.5928 42.2486 18.1068 42.0801 19.567C41.8602 21.4041 41.4581 23.2148 40.8797 24.9724C40.6738 25.6018 40.4538 26.3576 41.2822 26.7835C41.4375 26.8582 41.6019 26.9125 41.7712 26.945C43.0863 27.2047 44.3452 27.7476 45.8007 27.9465L46.711 28.0073C47.8622 28.0846 48.5057 27.3381 48.5338 26.3342C48.6204 23.3086 47.5697 18.2566 47.4808 17.2948C47.4715 17.2948 47.4457 10.5837 53.7661 11.9105Z" fill="#263238"/>
<path d="M53.3518 11.9101C53.1488 12.0577 52.9777 12.245 52.849 12.4605C52.7203 12.6761 52.6366 12.9155 52.603 13.1643C52.5024 13.6557 52.4954 14.1635 52.369 14.6479C52.2376 15.1336 51.9916 15.5807 51.6516 15.9516C51.3116 16.3226 50.8876 16.6065 50.4151 16.7796C50.1156 16.8849 49.7131 16.9083 49.547 16.6345C49.5341 16.9846 49.4154 17.3225 49.2065 17.6036C48.9977 17.8848 48.7084 18.096 48.377 18.2094C47.909 18.3638 47.3778 18.2983 46.8817 18.3755C46.3857 18.4527 45.8451 18.7546 45.7866 19.253L45.817 15.743L47.0081 12.7221L50.1484 11.1309L53.3518 11.9101Z" fill="#263238"/>
<path d="M47.6094 17.3155C47.8126 17.2033 47.9916 17.0518 48.1358 16.8698C48.28 16.6879 48.3866 16.479 48.4494 16.2555C48.6031 15.776 48.7074 15.282 48.7607 14.7813C48.8262 14.1652 48.9389 13.555 49.0976 12.9561C49.2625 12.3512 49.5856 11.8012 50.0336 11.3626C50.2362 11.1737 50.475 11.028 50.7356 10.9344C50.9605 10.8523 51.1982 10.8111 51.4376 10.8127C51.7841 10.8075 52.1233 10.9124 52.4064 11.1122C52.4504 11.1431 52.4919 11.1775 52.5304 11.2152C52.5602 11.2415 52.5876 11.2705 52.6123 11.3017C52.6333 11.3255 52.6529 11.3505 52.6708 11.3766C52.5848 11.2908 52.4916 11.2125 52.3923 11.1426C52.1108 10.9531 51.7769 10.8565 51.4376 10.8665C50.9333 10.863 50.4465 11.0512 50.0757 11.393C49.6381 11.8265 49.3232 12.3683 49.1631 12.9631C49.0043 13.5591 48.8901 14.166 48.8215 14.779C48.7658 15.2821 48.6567 15.7778 48.4962 16.2579C48.3827 16.5828 48.1906 16.8746 47.937 17.1073C47.8407 17.1953 47.7299 17.2657 47.6094 17.3155Z" fill="#455A64"/>
<path d="M45.0166 16.7074C45.1755 16.699 45.3328 16.6707 45.4846 16.6231C45.8894 16.4603 46.2422 16.1901 46.5048 15.8416C46.6947 15.6082 46.8608 15.3566 47.0009 15.0904C47.1526 14.7815 47.2583 14.4519 47.3145 14.1123C47.3823 13.7543 47.4245 13.3729 47.4923 12.9798C47.5272 12.7792 47.5733 12.5808 47.6304 12.3854C47.6906 12.1838 47.7689 11.988 47.8644 11.8004C48.255 11.0906 48.8981 10.5535 49.6662 10.2958C50.2915 10.0889 50.9667 10.0889 51.592 10.2958C52.0126 10.4292 52.4002 10.6501 52.7292 10.944C52.8503 11.0493 52.9601 11.1669 53.0569 11.295L53.0334 11.2739L52.9703 11.206C52.9371 11.1684 52.9019 11.1324 52.865 11.0984C52.8205 11.0586 52.7737 11.0095 52.7129 10.9603C52.3819 10.677 51.9965 10.4643 51.5803 10.3356C50.9634 10.1375 50.2993 10.1416 49.6849 10.3473C48.9327 10.6066 48.3044 11.1373 47.9229 11.8355C47.8274 12.0182 47.7491 12.2093 47.6889 12.4065C47.6326 12.5995 47.5873 12.7956 47.5532 12.9938C47.4853 13.3846 47.4408 13.7683 47.3706 14.1287C47.3131 14.4729 47.2043 14.8066 47.0477 15.1185C46.9043 15.3862 46.7342 15.6386 46.5399 15.872C46.2713 16.2242 45.9088 16.4935 45.494 16.6489C45.3801 16.6852 45.2622 16.7072 45.143 16.7144H45.0189L45.0166 16.7074Z" fill="#455A64"/>
<path d="M49.5445 16.6353C49.5445 16.6353 49.5445 16.6353 49.5445 16.6657L49.5304 16.7499C49.5304 16.7897 49.5164 16.8365 49.5024 16.8903C49.4883 16.9442 49.4696 17.0097 49.4509 17.0799C49.3939 17.2507 49.3153 17.4135 49.2169 17.5643C49.0832 17.7661 48.9086 17.9375 48.7044 18.0674C48.1457 18.383 47.4958 18.4978 46.8628 18.3926C46.4843 18.35 46.1116 18.266 45.7513 18.1422C45.3577 18.0162 44.9836 17.8358 44.6398 17.6064L44.5696 17.5572H44.6539C45.1146 17.5213 45.5669 17.4139 45.9947 17.239H46.0181L46.0321 17.2952C45.0845 17.3807 44.1361 17.1405 43.3435 16.6142L43.292 16.5791L43.3528 16.5651C43.9459 16.4309 44.5107 16.1933 45.0213 15.8631C45.4189 15.6 45.7363 15.2324 45.9385 14.8007C46.058 14.5146 46.1261 14.2096 46.1398 13.8998C46.1398 13.7945 46.1398 13.7126 46.1398 13.6518V13.5722C46.1398 13.5558 46.1398 13.5488 46.1398 13.5488C46.1393 13.5566 46.1393 13.5644 46.1398 13.5722C46.1398 13.5886 46.1398 13.6097 46.1398 13.6354C46.1398 13.6611 46.1398 13.7781 46.1398 13.8834C46.1343 14.1974 46.0708 14.5075 45.9526 14.7984C45.7523 15.2397 45.433 15.6164 45.0306 15.8865C44.523 16.2247 43.9598 16.4711 43.3669 16.6142V16.5627C44.1508 17.0756 45.0852 17.3081 46.0181 17.2226L46.2217 17.2016L46.0321 17.2788H46.0087C45.5758 17.4585 45.1167 17.5675 44.6492 17.6017L44.6632 17.5479C45.0033 17.7745 45.3725 17.9539 45.7607 18.0814C46.1165 18.204 46.4844 18.288 46.8582 18.3318C47.4789 18.4406 48.1181 18.3359 48.6717 18.0346C48.8762 17.9114 49.0525 17.7463 49.1888 17.5502C49.287 17.4052 49.3656 17.2478 49.4228 17.0822L49.479 16.8974C49.4953 16.8435 49.5024 16.7967 49.5117 16.7593L49.5304 16.6727C49.5334 16.6597 49.5381 16.6471 49.5445 16.6353Z" fill="#455A64"/>
<path d="M42.443 25.7393C42.4266 25.7393 42.7378 23.9632 43.145 21.7777C43.5522 19.5921 43.8821 17.8254 43.8985 17.8301C43.9149 17.8348 43.6036 19.6038 43.1965 21.7894C42.7893 23.9749 42.4594 25.7393 42.443 25.7393Z" fill="#455A64"/>
<path d="M44.1957 26.3014C44.1926 26.2757 44.1926 26.2498 44.1957 26.2242C44.1957 26.1703 44.1957 26.0978 44.1957 26.0089C44.1957 25.8193 44.1957 25.5409 44.1957 25.2086C44.1957 24.5347 44.2378 23.601 44.3103 22.5738C44.3829 21.5465 44.4811 20.6175 44.5677 19.9483C44.6098 19.6136 44.6473 19.3422 44.6777 19.1573C44.6917 19.0684 44.7034 18.9982 44.7128 18.9421C44.7161 18.9169 44.7208 18.8919 44.7268 18.8672C44.7304 18.8928 44.7304 18.9188 44.7268 18.9444C44.7268 18.9982 44.7128 19.0708 44.7034 19.1597C44.68 19.3539 44.6496 19.6277 44.6122 19.9529C44.5373 20.6245 44.4437 21.5512 44.3782 22.5784C44.3127 23.6057 44.2682 24.5347 44.2471 25.2086C44.2471 25.5409 44.2331 25.8123 44.2261 26.0089C44.2261 26.0978 44.2261 26.1703 44.2261 26.2265C44.198 26.2756 44.1957 26.3014 44.1957 26.3014Z" fill="#455A64"/>
<path d="M53.043 21.4703C52.9862 21.4026 52.9171 21.3463 52.8394 21.3042H52.8535C52.7596 21.2237 52.6435 21.1739 52.5205 21.1613C52.3975 21.1488 52.2737 21.1741 52.1655 21.234C52.0404 21.3162 51.9442 21.4357 51.8905 21.5754C51.8367 21.7152 51.8282 21.8683 51.866 22.0132C51.9203 22.1512 52.026 22.2627 52.1608 22.3244C52.2942 22.3868 52.4395 22.4195 52.5867 22.4204C52.7254 22.4344 52.865 22.4032 52.9845 22.3314C53.074 22.2628 53.1369 22.1652 53.1624 22.0553C53.1879 21.9551 53.1904 21.8505 53.1697 21.7492C53.149 21.6478 53.1057 21.5525 53.043 21.4703Z" fill="#FF9A6C"/>
<path d="M53.0288 28.2999C53.1298 27.9248 53.2876 27.5673 53.4968 27.2399C53.7846 26.8514 54.4328 25.6697 54.4328 25.6697L54.4726 25.1526C54.4726 25.1526 53.4757 23.1589 53.918 22.4288L54.152 22.354C54.152 22.354 53.7589 21.8204 54.152 21.4039L54.5194 21.4226L56.01 23.6105L55.1278 21.3454C55.1278 21.3454 55.1489 20.7838 55.535 20.6855L57.1332 23.2081C57.1332 23.2081 56.5692 22.0825 56.6207 21.8041C56.6722 21.5256 56.6465 21.2635 56.9647 21.0646L57.8188 22.616L57.9311 25.2228L56.2721 28.3139" fill="#EBB376"/>
<path d="M56.2721 28.3131C56.2786 28.2931 56.2864 28.2735 56.2955 28.2546C56.3165 28.2124 56.3446 28.1586 56.375 28.0931C56.4546 27.9433 56.5599 27.7374 56.6956 27.4753L57.903 25.1985V25.2243C57.8656 24.4567 57.8258 23.5863 57.779 22.6175V22.6432L56.9202 21.0965L57.0138 21.1199C56.9405 21.1637 56.8782 21.2239 56.8319 21.2957C56.7857 21.3676 56.7566 21.4492 56.7471 21.5341C56.7307 21.6277 56.7167 21.7236 56.7026 21.8172C56.7018 21.9042 56.7168 21.9907 56.7471 22.0723C56.876 22.4483 57.0324 22.8143 57.2151 23.1674L57.0911 23.2353L55.4928 20.7127L55.5724 20.7455C55.4743 20.7708 55.3902 20.8339 55.3384 20.921C55.2633 21.0475 55.2207 21.1906 55.2144 21.3375V21.3071L56.0942 23.5769L56.3282 24.1572L55.9796 23.6401L54.4913 21.4475L54.5428 21.4779L54.1778 21.4569L54.2292 21.4381C54.173 21.4937 54.1293 21.5607 54.101 21.6345C54.0728 21.7084 54.0606 21.7874 54.0654 21.8664C54.0788 22.0241 54.1328 22.1757 54.2222 22.3063L54.269 22.3765L54.1895 22.4022L53.9555 22.4771L53.9906 22.449C53.8876 22.6769 53.8558 22.9305 53.8993 23.1768C53.9314 23.4146 53.983 23.6494 54.0537 23.8788C54.1782 24.3072 54.3346 24.7257 54.5217 25.1307V25.1447V25.1564C54.5054 25.3436 54.4913 25.5121 54.4773 25.6735C54.2448 26.0869 54.0319 26.452 53.8385 26.7687C53.6536 27.0892 53.4407 27.3279 53.333 27.5572C53.2455 27.7316 53.1674 27.9104 53.099 28.0931C53.0792 28.1575 53.0557 28.2208 53.0288 28.2826C53.0288 28.2826 53.0288 28.2639 53.0288 28.2312C53.0288 28.1984 53.0475 28.1493 53.0662 28.0861C53.1209 27.8971 53.1897 27.7125 53.2722 27.5338C53.3775 27.2998 53.5857 27.0518 53.7636 26.7312C53.9414 26.4106 54.1567 26.0456 54.3813 25.6314V25.6501C54.393 25.4887 54.4047 25.3202 54.4164 25.133V25.1587C54.2194 24.756 54.0528 24.3391 53.918 23.9115C53.8416 23.6744 53.7867 23.4308 53.7542 23.1838C53.7034 22.9115 53.7385 22.6302 53.8548 22.3788V22.3601H53.8782L54.1122 22.2829L54.0818 22.3788C53.9756 22.2301 53.9118 22.0555 53.897 21.8734C53.8917 21.7768 53.9064 21.6802 53.9402 21.5896C53.9741 21.499 54.0262 21.4164 54.0935 21.3469L54.1146 21.3258H54.145L54.51 21.3422H54.5428L54.5615 21.3703L56.0568 23.5558L55.9328 23.6214L55.0482 21.3562V21.3399C55.0568 21.1683 55.1066 21.0014 55.1933 20.8531C55.2655 20.7373 55.3794 20.6536 55.5116 20.6191H55.5607L55.5888 20.6613L57.2081 23.1651L57.0864 23.2353C56.9026 22.8746 56.7462 22.5008 56.6184 22.1167C56.5812 22.015 56.5653 21.9067 56.5716 21.7985C56.5856 21.7026 56.602 21.609 56.616 21.513C56.631 21.4108 56.6683 21.3131 56.7253 21.2269C56.7823 21.1408 56.8577 21.0683 56.946 21.0146L57.0068 20.9795L57.0396 21.038C57.3344 21.5809 57.6199 22.1004 57.889 22.5918V22.6035V22.6175C57.9264 23.5792 57.9592 24.4567 57.9873 25.2243V25.2383V25.25L56.7401 27.5058L56.3937 28.1165L56.3001 28.2709C56.2923 28.286 56.2829 28.3001 56.2721 28.3131Z" fill="#FF9A6C"/>
<path d="M55.4882 25.5926C55.4882 25.5926 55.5069 25.5411 55.5233 25.4568C55.5378 25.3328 55.5322 25.2071 55.5069 25.0848C55.4898 25.0005 55.4734 24.914 55.4578 24.825C55.4578 24.7759 55.4391 24.7268 55.4274 24.6776C55.4167 24.6308 55.401 24.5853 55.3806 24.5419C55.294 24.3524 55.1747 24.1441 55.053 23.9288C54.5475 23.0677 54.117 22.3751 54.1591 22.354C54.2012 22.3329 54.6692 22.9881 55.177 23.8563C55.299 24.0608 55.4084 24.2726 55.5046 24.4904C55.5256 24.5443 55.542 24.5999 55.5537 24.6566L55.5748 24.804C55.5912 24.8999 55.6029 24.9889 55.6099 25.0731C55.6269 25.2073 55.6158 25.3436 55.5771 25.4732C55.5397 25.5645 55.4929 25.5973 55.4882 25.5926Z" fill="#FF9A6C"/>
<path d="M56.4946 25.361C56.4735 25.361 56.5156 25.251 56.5273 25.0825C56.5409 24.8644 56.5049 24.646 56.422 24.4437C56.3357 24.2375 56.23 24.0401 56.1061 23.854C56.0125 23.7043 55.9587 23.62 55.9751 23.5943C55.9915 23.5685 56.0734 23.6575 56.188 23.7932C56.3428 23.9707 56.4677 24.1722 56.5577 24.3899C56.6489 24.6121 56.6733 24.856 56.6279 25.0919C56.5858 25.2721 56.5086 25.3703 56.4946 25.361Z" fill="#FF9A6C"/>
<path d="M57.4118 24.8958C57.3358 24.6222 57.2825 24.3428 57.2527 24.0604C57.1684 23.5924 57.0585 23.239 57.0982 23.2227C57.262 23.4642 57.364 23.7422 57.3954 24.0323C57.4843 24.505 57.4516 24.8958 57.4118 24.8958Z" fill="#FF9A6C"/>
<path d="M57.4188 28.7584C58.3959 29.2259 59.2346 29.9396 59.8524 30.8293C60.7884 32.2333 63.5964 37.751 64.3733 39.9553C65.1502 42.1596 65.0355 44.3171 63.821 45.2694C62.6066 46.2218 59.6348 46.0019 58.5069 43.7204C57.9827 42.6627 52.9868 28.0962 52.9868 28.0962L56.1786 27.4199L56.4477 28.6344L57.4188 28.7584Z" fill="#EBB376"/>
<path d="M63.4651 41.8143C63.4879 41.6192 63.4879 41.4221 63.4651 41.2269C63.36 40.6994 63.1491 40.1987 62.845 39.7551C62.1243 38.5851 61.1649 36.9588 60.1423 35.1359L57.5215 30.4746C57.1845 29.8896 56.9108 29.4146 56.7142 29.0706L56.4966 28.6869C56.468 28.644 56.4452 28.5976 56.4287 28.5488C56.4615 28.5887 56.4912 28.6309 56.5176 28.6752C56.5785 28.7711 56.658 28.8928 56.7516 29.0472C56.9552 29.3702 57.243 29.8452 57.5917 30.4325C58.2937 31.6025 59.2297 33.2592 60.2476 35.0798C61.2655 36.9003 62.2132 38.5383 62.9175 39.713C63.2188 40.1688 63.4206 40.6831 63.5095 41.2223C63.5285 41.3699 63.5285 41.5193 63.5095 41.6669C63.5016 41.7178 63.4866 41.7674 63.4651 41.8143Z" fill="#FF9A6C"/>
<path d="M53.3517 21.9336C53.3142 21.9921 52.9422 21.7838 52.4484 21.8353C51.9547 21.8868 51.6247 22.1395 51.5756 22.088C51.5265 22.0365 51.6107 21.964 51.7558 21.854C51.952 21.7086 52.1845 21.6204 52.4278 21.5989C52.671 21.5774 52.9154 21.6236 53.134 21.7323C53.2861 21.8142 53.3517 21.9078 53.3517 21.9336Z" fill="#263238"/>
<path d="M68.8663 12.1569L66.2034 9.40039L65.5411 13.7598L61.975 13.6405L64.205 16.5725L61.9609 19.5186L65.6792 18.7861L66.2174 22.5278L69.2243 20.251L73.0174 22.2376L72.1867 18.4047L76.49 17.7285L73.1438 15.7535L75.093 12.3886L71.7492 13.6966L71.342 9.54547L68.8663 12.1569Z" fill="white"/>
<path d="M68.8663 12.1681C68.8663 12.1681 68.9201 12.1049 69.0277 11.9879L69.4981 11.4661L71.3163 9.52627L71.3584 9.48181V9.54265C71.473 10.6682 71.6134 12.0722 71.7772 13.6915L71.7234 13.6587L75.0649 12.3436L75.189 12.2968L75.1234 12.4115C74.5197 13.4504 73.8669 14.5854 73.1766 15.7787L73.1578 15.7085L76.5181 17.6788L76.6515 17.7584L76.4994 17.7818L72.1961 18.4627L72.2429 18.3925C72.5097 19.614 72.7905 20.9057 73.0759 22.2231L73.1017 22.3471L72.9894 22.2886L69.7134 20.5687L69.2056 20.3043H69.2711L66.2619 22.5835L66.1823 22.6443L66.1683 22.5437C65.9857 21.2676 65.8071 20.0196 65.6324 18.7997L65.7003 18.8488L61.9797 19.5813L61.8369 19.6093L61.9258 19.4923L64.1746 16.5463V16.6141L61.9469 13.6798L61.8861 13.6002H61.9843L65.5528 13.7266L65.5107 13.7617C65.7751 12.0465 66.0021 10.5863 66.1846 9.40225V9.34375L66.2244 9.38587L68.1853 11.4427L68.6931 11.9762L68.8663 12.1634L68.6931 11.9926L68.1807 11.4661L66.1823 9.42097L66.2314 9.40459C66.0536 10.591 65.836 12.0511 65.5809 13.7687V13.8038H65.5435L61.9773 13.6891L62.0171 13.6143L64.2518 16.5416L64.2752 16.5744L64.2518 16.6048L62.0101 19.5532L61.9562 19.4642L65.6675 18.7201L65.7283 18.7084V18.7669C65.9046 19.9868 66.084 21.2348 66.2665 22.5109L66.1729 22.4711L69.1798 20.192L69.2103 20.1709L69.243 20.1873L69.7508 20.4541L73.0268 22.174L72.9402 22.2395L72.1306 18.4159L72.1165 18.3574H72.1774L76.4806 17.6812L76.4619 17.7841L73.1181 15.8068L73.0736 15.7811L73.0993 15.7366L75.0532 12.3741L75.1117 12.4396L71.7632 13.7406L71.7164 13.7593V13.7079C71.5643 12.0886 71.4286 10.6846 71.3233 9.55669L71.3701 9.57307L69.5168 11.5036C69.3085 11.7212 69.1471 11.885 69.0371 12.002L68.8663 12.1681Z" fill="#263238"/>
<path d="M61.7245 16.7585C61.7245 16.9158 61.6778 17.0697 61.5904 17.2005C61.503 17.3313 61.3787 17.4333 61.2334 17.4935C61.088 17.5537 60.928 17.5695 60.7737 17.5388C60.6194 17.5081 60.4776 17.4323 60.3663 17.3211C60.2551 17.2098 60.1793 17.068 60.1486 16.9137C60.1179 16.7594 60.1336 16.5994 60.1939 16.454C60.2541 16.3087 60.3561 16.1844 60.4869 16.097C60.6177 16.0096 60.7715 15.9629 60.9289 15.9629C61.1399 15.9629 61.3423 16.0467 61.4915 16.1959C61.6407 16.3451 61.7245 16.5475 61.7245 16.7585Z" fill="white"/>
<path d="M61.7246 16.759C61.7053 16.6968 61.6897 16.6335 61.6778 16.5694C61.6265 16.4052 61.524 16.2617 61.3853 16.1599C61.2848 16.0882 61.1684 16.0419 61.0461 16.0252C60.9238 16.0085 60.7993 16.0218 60.6832 16.064C60.5416 16.1169 60.4194 16.2117 60.3332 16.336C60.247 16.4602 60.2008 16.6078 60.2008 16.759C60.2008 16.9102 60.247 17.0578 60.3332 17.182C60.4194 17.3062 60.5416 17.4011 60.6832 17.454C60.7994 17.4958 60.9241 17.5087 61.0464 17.4916C61.1687 17.4745 61.285 17.4278 61.3853 17.3557C61.5244 17.2543 61.627 17.1107 61.6778 16.9462C61.6898 16.8829 61.7055 16.8205 61.7246 16.759C61.7419 16.8241 61.7419 16.8927 61.7246 16.9579C61.6884 17.143 61.5871 17.309 61.4391 17.4259C61.3285 17.5143 61.1971 17.5729 61.0574 17.5963C60.9178 17.6196 60.7745 17.6069 60.6411 17.5593C60.5258 17.5185 60.4207 17.4533 60.3331 17.368C60.2455 17.2827 60.1775 17.1794 60.1337 17.0653C60.0899 16.9511 60.0714 16.8288 60.0795 16.7068C60.0876 16.5848 60.1221 16.466 60.1806 16.3586C60.239 16.2512 60.3202 16.1578 60.4183 16.0849C60.5164 16.0119 60.6292 15.9611 60.7488 15.936C60.8685 15.9109 60.9922 15.912 61.1114 15.9394C61.2305 15.9667 61.3423 16.0196 61.4391 16.0944C61.5862 16.2121 61.6873 16.3777 61.7246 16.5624C61.741 16.6269 61.741 16.6945 61.7246 16.759Z" fill="#263238"/>
<path d="M69.2639 13.867L69.1025 16.4106C69.0969 16.5112 69.0544 16.6062 68.9832 16.6774C68.9119 16.7486 68.817 16.7911 68.7164 16.7967C68.6105 16.8033 68.5061 16.7688 68.425 16.7004C68.3439 16.632 68.2924 16.5349 68.2811 16.4293L67.998 13.8741C67.993 13.8283 67.9978 13.782 68.0121 13.7382C68.0263 13.6944 68.0497 13.6542 68.0807 13.6201C68.1116 13.5861 68.1495 13.559 68.1917 13.5406C68.2339 13.5223 68.2796 13.5131 68.3256 13.5137H68.9457C68.9904 13.5141 69.0345 13.5239 69.0752 13.5423C69.116 13.5606 69.1525 13.5873 69.1824 13.6205C69.2123 13.6537 69.235 13.6928 69.249 13.7352C69.2631 13.7776 69.2681 13.8225 69.2639 13.867Z" fill="#263238"/>
<path d="M68.0379 18.2256C68.0766 18.342 68.1489 18.4444 68.2457 18.5197C68.3425 18.595 68.4594 18.6399 68.5817 18.6487C68.7041 18.6576 68.8263 18.63 68.9329 18.5693C69.0395 18.5087 69.1258 18.4179 69.1807 18.3082C69.2357 18.1986 69.257 18.0751 69.2418 17.9534C69.2266 17.8317 69.1756 17.7173 69.0954 17.6245C69.0151 17.5318 68.9092 17.4649 68.7909 17.4324C68.6727 17.3998 68.5474 17.4031 68.4311 17.4417C68.275 17.4936 68.1459 17.6053 68.0721 17.7523C67.9984 17.8993 67.9861 18.0696 68.0379 18.2256Z" fill="#263238"/>
</svg>
