<svg width="114" height="114" viewBox="0 0 114 114" fill="none" xmlns="http://www.w3.org/2000/svg">
<path d="M57.8917 112.022C86.4153 112.022 109.538 98.6725 109.538 82.2046C109.538 65.7366 86.4153 52.3867 57.8917 52.3867C29.3681 52.3867 6.24512 65.7366 6.24512 82.2046C6.24512 98.6725 29.3681 112.022 57.8917 112.022Z" fill="#FAFAFA"/>
<path d="M57.8914 104.696C67.348 104.696 75.0142 100.27 75.0142 94.8099C75.0142 89.35 67.348 84.9238 57.8914 84.9238C48.4347 84.9238 40.7686 89.35 40.7686 94.8099C40.7686 100.27 48.4347 104.696 57.8914 104.696Z" fill="#E0E0E0"/>
<path d="M63.3225 92.4894L64.2117 91.9422L63.2632 91.7734L63.3225 92.4894Z" fill="#263238"/>
<path d="M72.7612 93.3158C72.7612 93.3158 61.2449 89.4125 61.1788 90.1672C61.1653 90.3172 61.1823 90.4685 61.229 90.6118L61.1948 90.5753L61.5345 91.9433C62.0648 92.2955 62.6855 92.4871 63.322 92.495C63.322 92.4289 63.2833 92.0162 63.2628 91.7791C63.6167 91.8867 63.9595 92.0279 64.2865 92.2009C65.0389 92.5999 65.5747 93.3728 66.4183 94.2529C67.0316 94.8913 68.0393 95.1193 69.5031 95.1854C71.0786 95.2561 72.4192 94.8275 72.7658 94.3738C73.0417 94.0021 72.8273 93.407 72.7612 93.3158Z" fill="#263238"/>
<path d="M72.4308 93.0878C72.3145 92.9875 71.879 92.5931 71.2908 92.1758C70.7846 91.8088 70.1918 91.3413 69.5671 90.9766C69.2667 90.809 68.9807 90.6168 68.7121 90.402C68.5 90.215 68.2948 90.019 68.101 89.8115C67.5074 89.1626 66.9874 88.4499 66.5506 87.6865C66.3386 87.3286 66.0536 86.8019 66.0627 85.2492C66.0787 83.0011 66.4161 80.5843 66.6168 78.3887L60.479 79.6108C60.707 80.4338 61.3363 83.407 61.5096 84.3509C61.774 85.785 61.9656 86.6696 61.8128 87.3445C61.7102 87.8005 61.0581 89.05 61.0809 89.506C61.1197 90.2515 61.7649 90.8329 62.4489 91.1339C63.0189 91.3824 63.6528 91.4508 64.2091 91.7198C64.7787 92.0317 65.2882 92.4424 65.7139 92.9328C66.1311 93.3706 66.4845 93.9018 67.0363 94.1845C67.6496 94.4992 68.2128 94.5607 68.8945 94.6405C69.7046 94.7056 70.5197 94.6681 71.3204 94.5288C72.4718 94.319 73.2835 93.822 72.4308 93.0878Z" fill="#EBB376"/>
<path d="M71.7194 92.3387C71.2064 91.9853 70.4768 91.4792 69.599 90.9137C69.3101 90.8432 69.0094 90.8354 68.7172 90.8908C68.425 90.9463 68.148 91.0637 67.905 91.2352C66.35 92.2521 66.1882 93.4947 66.1882 93.4947C66.5186 94.017 67.0396 94.3899 67.6405 94.5344C69.615 95.1773 72.978 94.5891 72.9256 93.7158C72.8936 93.1618 72.3442 92.7696 71.7194 92.3387ZM61.7878 87.1152C61.7878 87.1152 61.3842 88.1435 61.1494 88.7318C60.9145 89.32 60.9214 89.8718 61.3295 90.4076C61.5435 90.6805 61.8111 90.9068 62.1157 91.0726C62.4204 91.2385 62.7557 91.3403 63.1011 91.372C63.4727 89.6711 62.49 87.4094 61.7878 87.1152Z" fill="#37474F"/>
<path d="M50.0869 89.6037C50.3765 90.119 49.8817 91.9817 49.8886 93.3247C49.8886 94.5468 50.1166 96.6854 49.6879 97.8687C49.1727 99.2755 47.9985 100.58 46.2907 99.2641C45.4449 98.6143 44.8566 97.415 44.8589 95.6571C44.8589 94.435 45.4699 92.8527 45.9624 91.3775C46.537 89.6539 46.7673 88.7305 46.7673 88.7305L50.0869 89.6037Z" fill="#263238"/>
<path d="M47.0429 80.457C46.7876 83.2911 47.027 85.302 46.9586 87.1215C46.9122 87.9473 46.7854 88.7667 46.5801 89.5679C46.286 90.7079 45.8003 92.3039 45.5929 93.0563C45.3033 94.096 45.089 94.7504 45.4013 95.9451C45.4263 96.0394 45.4623 96.1305 45.5085 96.2164C45.9645 97.2128 47.239 98.0062 47.6608 97.9082C47.7405 98.0204 47.8508 98.1074 47.9786 98.1587C48.1063 98.21 48.2461 98.2236 48.3813 98.1977L48.5227 98.1704C48.5707 98.1563 48.6179 98.1396 48.664 98.1202C48.8389 98.0351 48.9944 97.9149 49.1208 97.767C49.2471 97.6191 49.3415 97.4467 49.3982 97.2606C49.4295 97.1771 49.4561 97.0918 49.478 97.0053C49.8496 95.5575 49.6741 94.5999 49.6741 94.0276C49.6741 93.3641 49.7516 92.5251 49.861 91.4626C49.9705 90.4001 50.3854 87.0645 50.8346 85.4822C51.1652 84.3786 51.5756 82.9947 52.0111 81.5172L47.0429 80.457Z" fill="#EBB376"/>
<path d="M45.274 94.412C46.3228 94.0107 49.3005 94.086 49.7063 95.552C49.6539 96.9041 49.5262 98.2629 48.7008 98.9561C47.2166 100.203 46.0697 98.7395 45.5476 97.661C45.0255 96.5826 45.1007 95.1325 45.274 94.412Z" fill="#37474F"/>
<path d="M51.9362 44.3913C50.3652 46.8993 49.6014 48.509 48.9015 55.2966C48.1103 62.9551 48.2745 65.5292 48.1924 66.4549C48.1103 67.3806 47.4286 69.0518 46.7013 73.5913C45.974 78.1308 45.9854 89.2184 45.9854 89.2184C45.9854 89.2184 46.3137 89.9799 48.0647 90.2307C49.6812 90.4587 50.6616 89.9435 50.6616 89.9435C50.6616 89.9435 53.9312 75.5384 54.6995 72.8207C55.2034 71.0331 56.3662 66.5529 57.1004 63.7007C57.5564 61.8128 57.8915 60.7367 57.8915 60.7367L59.2367 68.9606C59.2367 68.9606 58.9221 70.9853 59.622 75.2785C60.2741 79.2662 61.6923 86.1062 61.6923 86.1062C61.6923 86.1062 62.1916 86.7081 63.5824 86.6899C65.4702 86.6648 66.3184 86.0675 66.3184 86.0675C66.3184 86.0675 67.0024 71.3934 66.9408 66.8493C66.8793 62.3053 66.5874 50.9988 65.0507 44.291L51.9362 44.3913Z" fill="#37474F"/>
<path d="M59.5329 52.8775L57.8913 60.739L59.2365 68.9629L58.7418 60.5908L60.0094 54.3413C61.1107 54.0631 63.6073 52.7156 64.273 50.8301C62.5949 52.6176 59.5329 52.8775 59.5329 52.8775ZM51.2063 75.6091C50.647 77.9499 50.1195 80.2975 49.624 82.652C50.305 80.3431 50.9555 78.0267 51.5757 75.7026C52.2027 73.3793 52.8023 71.0582 53.3997 68.7189C53.9971 66.3797 54.3892 63.9971 54.754 61.619C55.1188 59.241 55.438 56.8561 55.7071 54.4667C55.2511 56.8288 54.8133 59.1931 54.3801 61.5575C53.9469 63.9218 53.4955 66.2793 52.9232 68.6049C52.3509 70.9305 51.7558 73.2698 51.2063 75.6091ZM64.9798 64.371C65.0596 65.4107 65.1531 66.4572 65.1668 67.4877C65.1805 68.5183 65.1463 69.5717 65.1235 70.6182L65.0596 73.7555C65.0156 75.8485 64.9958 77.9431 65.0003 80.0391C65.1843 77.9507 65.3309 75.8607 65.4404 73.7691C65.5498 71.6761 65.6479 69.5899 65.657 67.4809C65.584 65.3628 65.3401 63.288 65.087 61.2041C64.8339 59.1202 64.5124 57.0522 64.1248 54.9911L64.7108 61.2451C64.7974 62.2871 64.8977 63.329 64.9798 64.371Z" fill="#263238"/>
<path d="M53.3521 18.5675C51.9658 19.4385 51.9841 20.6765 51.9681 23.677C51.9522 26.6775 52.0867 34.8718 52.0867 34.8718H62.8346V22.3934C62.8346 22.3934 63.8264 21.0026 63.7056 19.5707C63.5847 18.1389 62.7343 16.2761 60.1556 15.7312C58.0078 15.2752 53.897 15.7312 53.3521 18.5675Z" fill="#263238"/>
<path d="M61.9429 29.6387C64.3095 29.7641 69.8978 32.4454 71.227 33.1841C72.6725 33.9866 75.5134 37.7669 75.5134 37.7669C75.5134 37.7669 75.2558 38.9935 72.4035 38.5352C70.0095 38.1499 65.4358 36.9392 65.4358 36.9392L61.9429 29.6387Z" fill="#EBB376"/>
<path d="M71.4691 37.9158C70.4499 37.6581 69.0386 36.5934 66.5625 31.7598L71.4691 37.9158Z" fill="#F28F8F"/>
<path d="M50.7254 46.8913C50.315 46.1754 52.0934 43.6651 51.7947 42.2674C51.4938 40.8994 50.7915 37.81 50.7915 37.81C50.7915 37.81 52.8595 35.7284 52.2097 30.3772L55.2147 29.6932L57.7227 29.5473L60.0711 29.3535L61.9453 29.6317C62.6179 30.2359 64.1295 31.6267 65.1076 33.0722C66.5212 35.1584 66.7036 37.7553 65.1874 39.4152C65.1646 39.7435 64.9115 42.769 65.2672 44.0162C65.4086 44.511 65.9945 46.8024 65.6594 47.4567C64.1751 49.7869 55.4678 52.117 50.7254 46.8913Z" fill="#E0E0E0"/>
<path d="M54.6172 25.9284C54.349 25.9653 54.0758 25.9334 53.8234 25.8357C53.5709 25.738 53.3474 25.5776 53.174 25.3698C52.417 24.5284 52.3486 23.6757 52.7066 23.108C53.0007 22.652 53.7212 22.3488 54.2251 22.6657C54.7289 22.9826 54.7768 23.2836 54.9797 23.6666C55.1827 24.0496 55.7048 23.7532 55.5383 22.2188C56.5871 21.7309 56.4275 19.9753 56.9975 19.2548C57.889 18.1399 59.3459 18.4363 59.8179 18.703C60.1063 18.5022 60.4447 18.3851 60.7956 18.3646C61.1464 18.3441 61.4962 18.4209 61.8061 18.5868C62.5083 18.9675 62.9711 19.761 63.206 22.4878C63.434 25.2672 62.9552 27.1139 62.3099 27.6999C61.8676 28.1035 61.0468 28.3839 60.0687 28.311V29.4692C60.0687 29.4692 62.4741 32.7113 58.8785 32.4332C56.1836 32.2189 55.2146 29.6972 55.2146 29.6972V25.4952C55.2146 25.4952 55.153 25.8303 54.6172 25.9284Z" fill="#EBB376"/>
<path d="M60.6205 25.6165C60.5489 25.817 60.4005 25.9808 60.2081 26.0718C60.0157 26.1629 59.795 26.1738 59.5945 26.1022C59.394 26.0305 59.2303 25.8822 59.1392 25.6897C59.0481 25.4973 59.0372 25.2766 59.1089 25.0762C59.6414 25.1631 60.1536 25.3462 60.6205 25.6165Z" fill="#B16668"/>
<path d="M59.0655 25.3359C59.0628 25.5028 59.1123 25.6664 59.2072 25.8038C59.302 25.9412 59.4374 26.0454 59.5945 26.102C59.6846 26.1336 59.7795 26.149 59.8749 26.1476C59.8749 25.9327 59.7897 25.7266 59.638 25.5745C59.4863 25.4223 59.2804 25.3365 59.0655 25.3359Z" fill="#F28F8F"/>
<path d="M58.9309 22.7154C58.9147 22.7748 58.8867 22.8304 58.8485 22.8787C58.8103 22.927 58.7627 22.9671 58.7086 22.9965C58.6544 23.0259 58.5949 23.044 58.5336 23.0498C58.4723 23.0555 58.4104 23.0488 58.3518 23.03C58.26 23.005 58.1778 22.9531 58.1157 22.881C58.0537 22.8089 58.0147 22.7199 58.0037 22.6254C57.9927 22.5309 58.0102 22.4353 58.054 22.3508C58.0978 22.2664 58.1659 22.197 58.2495 22.1516C58.3331 22.1061 58.4284 22.0868 58.5231 22.096C58.6177 22.1052 58.7075 22.1425 58.7808 22.2031C58.8541 22.2638 58.9076 22.345 58.9343 22.4363C58.9611 22.5276 58.9599 22.6248 58.9309 22.7154Z" fill="#263238"/>
<path d="M62.6339 21.0769L61.6694 20.5525C61.7007 20.4884 61.7447 20.4313 61.7988 20.3847C61.8529 20.3382 61.9159 20.3032 61.984 20.2818C62.0521 20.2605 62.1238 20.2533 62.1948 20.2606C62.2657 20.2679 62.3345 20.2897 62.3967 20.3245C62.5244 20.3963 62.62 20.5141 62.664 20.6538C62.7081 20.7936 62.6973 20.9448 62.6339 21.0769Z" fill="#263238"/>
<path d="M61.5121 22.6081C61.5305 22.6668 61.5607 22.7212 61.6007 22.7679C61.6408 22.8146 61.6899 22.8528 61.745 22.8801C61.8002 22.9073 61.8603 22.9232 61.9218 22.9266C61.9832 22.93 62.0447 22.9209 62.1026 22.8999C62.1934 22.8714 62.2736 22.8164 62.3328 22.742C62.3921 22.6675 62.4277 22.577 62.435 22.4821C62.4424 22.3873 62.4212 22.2924 62.3741 22.2097C62.3271 22.127 62.2564 22.0602 62.1711 22.0181C62.0857 21.9759 61.9898 21.9603 61.8955 21.9731C61.8012 21.986 61.7129 22.0268 61.6421 22.0903C61.5712 22.1537 61.5209 22.237 61.4977 22.3293C61.4746 22.4215 61.4796 22.5187 61.5121 22.6081Z" fill="#263238"/>
<path d="M58.2627 20.6748L57.2846 21.32C57.2389 21.2584 57.2064 21.1881 57.189 21.1135C57.1716 21.0388 57.1696 20.9614 57.1833 20.886C57.197 20.8106 57.226 20.7388 57.2685 20.675C57.311 20.6112 57.3661 20.5568 57.4305 20.5152C57.5633 20.4301 57.7236 20.3993 57.8784 20.429C58.0332 20.4587 58.1708 20.5467 58.2627 20.6748Z" fill="#263238"/>
<path d="M63.8261 21.2204L63.6118 21.2044C62.9483 21.1611 62.0842 21.1748 61.5735 21.3481C60.9328 21.5761 60.7162 21.7904 60.3559 21.8041C59.9957 21.8177 59.713 21.6125 59.0062 21.4461C58.4407 21.3161 57.5219 21.3709 56.8197 21.4689L56.5917 21.5008C56.517 21.5239 56.453 21.5729 56.4112 21.6389C56.3695 21.7049 56.3526 21.7837 56.3637 21.8611C56.3995 22.014 56.4787 22.1533 56.5917 22.2623C56.6277 22.3114 56.6555 22.3661 56.6738 22.4242C56.765 22.7047 56.8447 23.2473 57.0089 23.5437C57.0867 23.6915 57.1893 23.8249 57.3121 23.9381C57.3588 23.9806 57.4091 24.0188 57.4626 24.0521C57.4904 24.0707 57.5194 24.0874 57.5493 24.1023C57.6291 24.1457 57.7131 24.1808 57.8001 24.2072H57.8411L57.9072 24.2231L57.9779 24.2368C58.0534 24.2495 58.1295 24.2579 58.2059 24.2619H58.4134C59.3117 24.23 59.6605 23.8059 59.8566 23.3636C60.0527 22.9213 59.9592 22.3239 60.3719 22.3102H60.4129H60.4494C60.7595 22.3672 60.755 22.9235 60.9716 23.3157C61.0553 23.4728 61.163 23.6159 61.2908 23.7398C61.3158 23.7626 61.3386 23.7854 61.366 23.8059C61.3779 23.817 61.3909 23.827 61.4048 23.8355L61.4458 23.8652L61.4823 23.8903L61.5233 23.9131L61.5552 23.9313H61.5758C61.6916 23.9901 61.8152 24.0323 61.9428 24.0567H61.9748C62.1201 24.0808 62.2676 24.0892 62.4148 24.0818C63.2538 24.0453 63.5137 23.5574 63.6323 23.2496C63.7262 22.8754 63.7887 22.4941 63.8193 22.1096C63.8294 22.0539 63.8529 22.0015 63.8877 21.9568C63.9855 21.8362 64.0429 21.6878 64.0518 21.5327C64.0482 21.4645 64.025 21.3987 63.9849 21.3433C63.9449 21.2879 63.8898 21.2453 63.8261 21.2204ZM59.6218 22.9851C59.5887 23.2094 59.494 23.4202 59.3482 23.5939C59.2244 23.721 59.075 23.8205 58.91 23.8857C58.7449 23.951 58.5679 23.9805 58.3906 23.9723C58.2097 23.9874 58.0278 23.9591 57.86 23.8897C57.6923 23.8203 57.5435 23.7118 57.4261 23.5733C57.4125 23.5597 57.4034 23.546 57.392 23.5323L57.3623 23.4913C57.3527 23.4792 57.3443 23.4662 57.3372 23.4525L57.3167 23.4183L57.3008 23.3887C57.2941 23.3817 57.2893 23.373 57.2871 23.3636C57.2786 23.3504 57.271 23.3367 57.2643 23.3225C57.2438 23.2792 57.2255 23.2382 57.2096 23.1971L57.1822 23.1242C57.1685 23.0809 57.1548 23.0398 57.1457 23.0033V22.9805V22.9577C57.0568 22.6613 56.9405 22.0777 57.0864 21.9386C57.2324 21.7995 57.6314 21.6467 58.3017 21.6855H58.3678C58.4704 21.6855 58.573 21.706 58.6756 21.7243L58.7941 21.7493C58.8968 21.7707 58.998 21.7981 59.0974 21.8314L59.1909 21.8633L59.2912 21.9067H59.3117L59.3505 21.9249C59.4293 21.9591 59.5 22.0096 59.558 22.0731C59.6947 22.2601 59.6788 22.6499 59.6218 22.9851ZM63.4978 22.7069C63.4613 22.9349 63.3815 23.4502 62.9255 23.6896C62.7739 23.7664 62.6074 23.8092 62.4376 23.815C62.2458 23.8392 62.051 23.8142 61.8715 23.7424C61.6921 23.6707 61.5338 23.5544 61.4116 23.4046L61.3911 23.3795L61.3683 23.3476L61.3569 23.3317L61.3295 23.2838C61.3183 23.2671 61.3084 23.2496 61.2999 23.2313C61.2944 23.2227 61.2898 23.2135 61.2862 23.204V23.1903C61.2819 23.1829 61.2781 23.1753 61.2748 23.1675V23.1493C61.2418 23.0759 61.2159 22.9995 61.1973 22.9213C61.1083 22.5907 61.0468 22.2031 61.1631 22.0093C61.2794 21.8155 61.7559 21.5989 62.2278 21.5236C62.335 21.5054 62.4376 21.4963 62.5333 21.4894H62.7613H62.8138H62.8959C62.9486 21.4936 63.0011 21.5004 63.0532 21.5099H63.0897H63.1147H63.1512H63.1968L63.2721 21.535C63.2765 21.5363 63.2813 21.5363 63.2857 21.535C63.3464 21.5585 63.4032 21.5907 63.4545 21.6308C63.6118 21.8132 63.5548 22.406 63.5069 22.7069H63.4978Z" fill="#37474F"/>
<path d="M61.6693 23.9036L60.1918 24.4645L60.0186 22.8958C60.0778 22.604 60.128 22.3509 60.3788 22.3281L61.6693 23.9036Z" fill="#F28F8F"/>
<path d="M56.5803 21.5547L54.2251 22.6651C54.3532 22.7528 54.4737 22.8512 54.5853 22.9592L56.6373 22.0472L56.5803 21.5547Z" fill="#37474F"/>
<path d="M60.069 28.3199C58.6622 28.2606 56.7789 27.7499 56.2773 26.8379C56.5532 27.8183 57.5427 28.3313 58.3293 28.557C58.8912 28.7211 59.4691 28.8243 60.053 28.8648L60.069 28.3199Z" fill="#F28F8F"/>
<path d="M65.7414 25.96C65.7414 25.96 65.6092 25.9121 65.5453 25.6477C65.4815 25.3832 65.4838 25.1917 65.4177 24.9044C65.3515 24.6171 65.1714 24.1269 64.891 24.1041C64.6105 24.0813 64.5399 24.7243 64.5855 25.2441C64.6701 25.7276 64.5973 26.2255 64.378 26.6645C64.0998 27.2756 63.8946 28.0325 64.3096 28.6504L65.7414 25.96Z" fill="#F28F8F"/>
<path d="M67.4626 24.7577C67.2597 24.2767 67.2095 23.6497 67.1161 23.2598C67.0145 22.8774 66.8611 22.5107 66.6601 22.1699C66.4549 21.7937 66.2747 21.2921 66.1288 21.2579C65.9829 21.2237 65.7595 21.4061 65.8051 21.7139C65.8051 21.7139 65.5953 21.5042 65.4106 21.283C65.2259 21.0619 65.0869 20.7769 64.8589 20.7495C64.6309 20.7221 64.5625 21.0869 64.6696 21.3241C64.7768 21.5612 64.852 21.698 64.852 21.698C64.852 21.698 64.6445 21.8211 64.8862 22.2429C64.9865 22.4096 65.1075 22.5628 65.2465 22.6989C65.3097 22.9719 65.4259 23.2299 65.5885 23.4581C65.6872 23.7473 65.8172 24.0248 65.9761 24.2858C65.8591 24.5878 65.8048 24.9105 65.8165 25.2343C65.8643 25.6401 65.9396 25.7267 65.5269 26.2671C65.2487 26.6296 64.754 27.0651 64.5077 27.5507C64.2615 28.0364 64.1156 28.5357 64.5647 29.0783C65.0139 29.621 65.3582 30.0109 65.7868 30.5877C66.1106 31.0232 66.4503 31.6091 67.8388 33.6885C68.9104 35.3027 69.0062 35.5125 69.5032 36.0825C70.1872 36.8828 71.008 37.9316 72.5972 38.3625C74.1863 38.7934 75.9032 38.383 75.527 37.1427C75.071 35.6561 74.4896 34.5184 73.703 33.7843C73.0645 33.1845 72.3782 32.6378 71.651 32.1495C70.8279 31.5476 70.169 30.9001 69.143 30.0268C68.117 29.1536 67.3897 28.2872 67.3532 27.9566C67.2916 27.3957 67.4512 26.5544 67.5265 26.1326C67.6427 25.4782 67.7453 25.4896 67.4626 24.7577Z" fill="#EBB376"/>
<path d="M64.3096 28.6406C64.4489 28.919 64.6313 29.1737 64.8499 29.3953C65.046 29.6393 65.2421 29.8832 65.429 30.1317C65.616 30.3803 65.8098 30.6288 65.9922 30.8841C66.1746 31.1395 66.3844 31.5111 66.5622 31.7688C66.3616 31.5294 66.1381 31.1646 65.9443 30.9183C65.7505 30.6721 65.5613 30.4259 65.3675 30.1796L64.7952 29.4386L64.5079 29.067C64.4124 28.9405 64.3448 28.7952 64.3096 28.6406Z" fill="#F28F8F"/>
<path d="M65.8008 21.7168C65.8435 21.8519 65.8976 21.9831 65.9627 22.109C66.0265 22.2344 66.0972 22.3575 66.1679 22.4738L66.1793 22.492V22.5194C66.1724 22.5952 66.1724 22.6715 66.1793 22.7474C66.187 22.8243 66.2007 22.9005 66.2203 22.9754C66.2588 23.1224 66.3204 23.2625 66.4027 23.3903L66.4232 23.4222L66.4118 23.4519C66.3931 23.5069 66.3786 23.5633 66.3685 23.6206C66.3565 23.6793 66.3481 23.7387 66.3434 23.7984C66.3434 23.8577 66.3434 23.9193 66.3434 23.9786C66.3461 24.0404 66.3522 24.1021 66.3617 24.1632C66.3053 24.0491 66.2712 23.9253 66.2613 23.7984C66.2556 23.734 66.2556 23.6691 66.2613 23.6046C66.2652 23.5394 66.2743 23.4746 66.2887 23.4108L66.3001 23.4701C66.194 23.3352 66.1164 23.18 66.0721 23.0141C66.0498 22.9328 66.0353 22.8496 66.0288 22.7656C66.0185 22.68 66.0185 22.5935 66.0288 22.508L66.0402 22.5536C65.9701 22.425 65.9128 22.2898 65.8692 22.15C65.8247 22.0099 65.8016 21.8638 65.8008 21.7168Z" fill="#F28F8F"/>
<path d="M64.8477 21.6992C64.8994 21.7612 64.9566 21.8185 65.0187 21.8702C65.0809 21.9187 65.1465 21.9629 65.2147 22.0025H65.2261V22.0253C65.2889 22.1822 65.3709 22.3308 65.4701 22.4676C65.568 22.6008 65.6893 22.7151 65.8281 22.805L65.8714 22.8324V22.8848C65.8623 22.9766 65.8623 23.069 65.8714 23.1607C65.8801 23.2565 65.8945 23.3517 65.9147 23.4457C65.9375 23.5392 65.9626 23.6349 65.9945 23.7261C66.0264 23.8173 66.0675 23.9108 66.1039 24.0043C66.0398 23.9261 65.9818 23.843 65.9307 23.7558C65.8799 23.6679 65.8371 23.5755 65.803 23.4799C65.7678 23.3824 65.7426 23.2815 65.7277 23.1789C65.7074 23.0746 65.702 22.9679 65.7118 22.862L65.7505 22.9395C65.6678 22.8921 65.5912 22.8347 65.5225 22.7685C65.4573 22.7029 65.3985 22.6311 65.347 22.5542C65.2414 22.4021 65.1641 22.2322 65.119 22.0526L65.1418 22.0823C65.0739 22.0307 65.0127 21.971 64.9594 21.9044C64.9137 21.841 64.8761 21.772 64.8477 21.6992Z" fill="#F28F8F"/>
<path d="M66.1519 24.8262C66.1674 25.0091 66.1409 25.1931 66.0744 25.3643C66.0095 25.5347 65.917 25.6934 65.8008 25.8339C65.8304 25.7473 65.8669 25.6652 65.9011 25.5831L65.9991 25.3369C66.06 25.1698 66.111 24.9992 66.1519 24.8262Z" fill="#F28F8F"/>
<path d="M64.8341 27.0391C64.7647 27.356 64.7647 27.6843 64.8341 28.0012C64.8711 28.1556 64.9286 28.3044 65.0051 28.4435C65.0848 28.5881 65.1748 28.7268 65.2742 28.8585C65.1281 28.7677 65.0005 28.6501 64.898 28.5119C64.7903 28.3712 64.7127 28.2097 64.67 28.0377C64.6301 27.8687 64.624 27.6934 64.6522 27.522C64.6804 27.3506 64.7422 27.1864 64.8341 27.0391Z" fill="#F28F8F"/>
<path d="M48.2472 52.9387C47.9622 52.5625 47.5837 52.2205 47.4971 51.7371C47.4693 51.6138 47.4712 51.4857 47.5025 51.3632C47.5338 51.2407 47.5937 51.1274 47.6772 51.0326C47.7183 51.0005 47.7511 50.9591 47.7729 50.9117C47.7832 50.869 47.7832 50.8245 47.7729 50.7818C47.7438 50.601 47.7734 50.4156 47.8573 50.2528C47.8973 50.1867 47.9505 50.1297 48.0137 50.0854C48.0769 50.041 48.1487 50.0103 48.2244 49.9952C48.1644 49.725 48.1932 49.4428 48.3065 49.1903C48.441 48.8939 48.7784 48.6796 48.954 49.0421C49.0353 49.2208 49.0987 49.4072 49.1432 49.5985C49.256 50.0759 49.3134 50.5648 49.3142 51.0554C49.3142 51.5661 49.3142 53.0093 48.5162 53.0048C48.4615 53.0025 48.2882 52.9911 48.2472 52.9387Z" fill="#F28F8F"/>
<path d="M52.5152 30.3105C50.0072 30.8463 49.2731 31.3137 47.7911 33.5025C46.0879 36.0105 43.7623 39.0019 43.0874 40.1533C42.2552 41.5806 42.0546 42.1392 43.5024 43.8765C44.2479 44.7703 45.3036 45.8533 46.3683 47.0685C47.2074 48.0239 48.2311 49.0476 49.0382 50.0325C49.1485 50.1409 49.226 50.2782 49.2619 50.4286C49.2978 50.579 49.2906 50.7365 49.2411 50.883C49.1578 51.0756 49.0855 51.2727 49.0245 51.4735C49.0029 51.7421 49.0029 52.012 49.0245 52.2806C49.0308 52.4154 48.9983 52.5491 48.9308 52.6659C48.8633 52.7827 48.7637 52.8777 48.6438 52.9395C48.5177 52.9764 48.3842 52.9803 48.2562 52.9509C48.4642 53.1423 48.7002 53.3007 48.9561 53.4206C49.2146 53.5395 49.5082 53.5574 49.7792 53.4708C50.0369 53.375 50.2352 53.1584 50.5111 53.1037C50.657 53.0763 50.8075 53.1037 50.9534 53.0718C51.1039 53.0473 51.2424 52.9745 51.3479 52.8643C51.5143 52.691 51.6032 52.4265 51.8244 52.3308C51.9344 52.2987 52.0464 52.2736 52.1595 52.2555C52.2704 52.2149 52.3697 52.1481 52.4491 52.0607C52.5285 51.9734 52.5856 51.8681 52.6155 51.7539C52.6733 51.5254 52.6903 51.2884 52.6657 51.054C52.6297 50.423 52.5605 49.7944 52.4582 49.1707C52.4128 48.9555 52.3294 48.7502 52.212 48.5642C52.0889 48.3362 51.984 48.1242 51.8403 47.9167C50.9283 46.4985 48.051 41.7858 48.051 41.7858L52.383 36.9111C52.383 36.9111 54.5307 32.7205 52.5152 30.3105Z" fill="#EBB376"/>
<path d="M48.0395 41.7832C47.0386 42.5972 45.609 42.5356 45.0869 42.4535C46.2816 43.3792 48.2994 42.2073 48.2994 42.2073L48.0395 41.7832Z" fill="#F28F8F"/>
<path d="M77.3898 65.0854C78.6187 64.3877 80.3105 64.4949 82.1778 65.5733C85.9329 67.7416 88.979 73.0175 88.979 77.3541C88.979 79.5224 88.2198 81.0431 86.9886 81.7545C86.4779 82.0509 85.1783 82.7964 84.6653 83.0906C83.4341 83.7996 81.7377 83.697 79.8613 82.614C76.1039 80.4458 73.0601 75.1698 73.0601 70.8333C73.0601 68.6696 73.817 67.1488 75.0414 66.4375C75.5544 66.1388 76.8699 65.3818 77.3898 65.0854Z" fill="#37474F"/>
<path d="M88.7281 75.0996C88.8896 75.8405 88.9736 76.5962 88.9789 77.3545C88.9789 79.5228 88.2196 81.0436 86.9884 81.7549C86.4777 82.0513 85.1781 82.7969 84.6651 83.091C83.4339 83.8001 81.7376 83.6975 79.8611 82.6145C79.2084 82.2319 78.5971 81.7826 78.0371 81.2738L88.7281 75.0996Z" fill="#263238"/>
<path d="M75.0482 77.531C73.8193 75.3992 73.0601 72.9984 73.0601 70.8324C73.0601 66.5004 76.1039 64.7357 79.8613 66.904C83.6187 69.0723 86.6625 74.3482 86.6625 78.6847C86.6625 83.0213 83.6187 84.7814 79.8613 82.6132C78.8759 82.0279 77.9811 81.302 77.2051 80.4586L74.4303 80.9647C74.3499 80.98 74.2669 80.9734 74.1899 80.9456C74.113 80.9177 74.0449 80.8697 73.9929 80.8065C73.9409 80.7433 73.9069 80.6673 73.8944 80.5864C73.8819 80.5055 73.8914 80.4228 73.9219 80.3468L75.0482 77.531Z" fill="#455A64"/>
<path d="M79.7631 77.9967C79.1954 77.6684 78.8511 78.0947 78.8511 78.6807C78.8542 79.0222 78.9385 79.3581 79.0971 79.6606C79.2556 79.9631 79.4839 80.2235 79.7631 80.4203C80.3308 80.7487 80.6751 80.3223 80.6751 79.7363C80.672 79.3948 80.5877 79.0589 80.4291 78.7564C80.2705 78.4539 80.0422 78.1935 79.7631 77.9967ZM79.8794 69.4832C78.883 68.9063 77.9984 69.1343 77.5264 70.1831C77.4871 70.271 77.4711 70.3675 77.4799 70.4633C77.4887 70.5591 77.522 70.6511 77.5766 70.7303L78.4703 72.0368C78.639 72.283 78.826 72.2648 78.8944 72.1371C79.095 71.7449 79.3892 71.5534 79.8224 71.8042C80.05 71.9332 80.2379 72.1221 80.3658 72.3505C80.4936 72.5788 80.5564 72.8377 80.5474 73.0992C80.5474 74.4285 78.9788 74.2005 78.9788 75.9675V76.3323C78.9809 76.4249 79.0068 76.5155 79.0539 76.5953C79.101 76.6751 79.1677 76.7416 79.2478 76.7883L80.2487 77.3651C80.2788 77.3828 80.3131 77.3922 80.348 77.3924C80.3829 77.3925 80.4173 77.3835 80.4476 77.3662C80.4779 77.3488 80.5031 77.3238 80.5206 77.2936C80.5381 77.2633 80.5474 77.2291 80.5474 77.1941V76.8612C80.5474 75.8216 82.116 76.0313 82.116 73.7832C82.116 71.8316 80.9988 70.1284 79.8794 69.4832Z" fill="#FAFAFA"/>
<path d="M42.7269 62.2445L41.5367 63.3549L40.8938 62.0165C41.6239 60.8886 41.9672 59.5537 41.8719 58.2135C41.7819 56.8356 41.2401 55.5258 40.3303 54.487C39.4205 53.4483 38.1936 52.7385 36.8396 52.4676C35.4856 52.1968 34.0801 52.38 32.8407 52.9888C31.6014 53.5977 30.5974 54.5982 29.9842 55.8355C29.3711 57.0727 29.1831 58.4776 29.4493 59.8326C29.7155 61.1875 30.421 62.4168 31.4566 63.3302C32.4923 64.2435 33.8002 64.7899 35.1777 64.8846C36.5553 64.9793 37.9257 64.6172 39.0766 63.8542L41.3566 65.3362L42.5468 63.8793L44.3708 65.5984L42.7269 62.2445Z" fill="white"/>
<path d="M37.7793 55.6515L35.6065 59.8308C35.5754 59.8904 35.5285 59.9403 35.4711 59.9753C35.4136 60.0103 35.3477 60.0289 35.2805 60.0291H34.7105C34.6546 60.0295 34.5993 60.017 34.549 59.9927C34.4987 59.9683 34.4547 59.9327 34.4203 59.8887C34.386 59.8446 34.3622 59.7932 34.3508 59.7385C34.3394 59.6838 34.3408 59.6272 34.3548 59.5731L35.4264 55.2867C35.4549 55.1742 35.5202 55.0745 35.6119 55.0034C35.7036 54.9324 35.8165 54.894 35.9325 54.8945H37.3165C37.4058 54.8939 37.4938 54.9163 37.5719 54.9597C37.6499 55.0031 37.7154 55.0659 37.762 55.1421C37.8086 55.2183 37.8347 55.3053 37.8377 55.3945C37.8408 55.4838 37.8207 55.5723 37.7793 55.6515ZM35.4993 61.4929C35.5007 61.6845 35.4451 61.8721 35.3396 62.032C35.2341 62.192 35.0835 62.3169 34.9068 62.3911C34.7301 62.4652 34.5354 62.4852 34.3474 62.4485C34.1594 62.4118 33.9865 62.3201 33.8507 62.1849C33.7149 62.0498 33.6223 61.8773 33.5847 61.6894C33.5471 61.5016 33.5662 61.3068 33.6395 61.1298C33.7128 60.9528 33.8371 60.8015 33.9965 60.6953C34.1559 60.589 34.3433 60.5325 34.5349 60.533C34.6619 60.5318 34.788 60.5557 34.9057 60.6033C35.0235 60.651 35.1307 60.7214 35.2211 60.8106C35.3116 60.8998 35.3836 61.006 35.4329 61.1231C35.4822 61.2402 35.5079 61.3658 35.5085 61.4929H35.4993Z" fill="#455A64"/>
<path d="M44.9387 66.3693L42.5561 64.1326L41.3842 65.5645L39.0768 64.0688C38.1659 64.6472 37.1253 64.9896 36.049 65.0652C35.2043 65.1269 34.3557 65.0212 33.552 64.7539C32.7483 64.4867 32.0054 64.0632 31.3659 63.5079C30.725 62.9584 30.2001 62.2866 29.8219 61.5318C29.4437 60.777 29.2198 59.9544 29.1634 59.1121C29.0827 57.8411 29.3791 56.5745 30.0155 55.4714C30.6519 54.3682 31.5999 53.4775 32.7406 52.9111C33.8813 52.3446 35.1638 52.1277 36.4273 52.2874C37.6908 52.4471 38.879 52.9764 39.8429 53.8088C40.9973 54.8057 41.7574 56.1823 41.9861 57.6903C42.2148 59.1983 41.897 60.7384 41.0901 62.0328L41.5894 63.0793L42.7795 61.9712L44.9387 66.3693ZM39.0768 63.6538L41.3158 65.1108L42.5242 63.6333L43.8055 64.8349L42.6655 62.5344L41.4731 63.6447L40.7002 62.0168L40.7503 61.937C41.5415 60.7098 41.8619 59.2378 41.6524 57.7928C41.4429 56.3478 40.7175 55.0274 39.6103 54.0756C38.6982 53.2867 37.5734 52.7849 36.3771 52.633C35.1808 52.481 33.9663 52.6858 32.886 53.2216C31.8056 53.7574 30.9076 54.6003 30.3045 55.6446C29.7015 56.6889 29.4203 57.888 29.4963 59.0916C29.5498 59.8888 29.7617 60.6673 30.1195 61.3818C30.4773 62.0962 30.9739 62.7322 31.5802 63.2526C32.1878 63.7775 32.8932 64.1773 33.6558 64.4289C34.4184 64.6805 35.2232 64.7789 36.0239 64.7186C37.0816 64.6442 38.1024 64.2987 38.9879 63.7154L39.0768 63.6538Z" fill="#455A64"/>
<path d="M40.6908 28.5629L39.7218 27.4913L40.326 25.7448V24.6777L38.4746 25.7448V26.8141L39.1107 27.6509L40.6908 28.5629Z" fill="#263238"/>
<path d="M44.4234 11.6289C44.413 11.4363 44.3574 11.2488 44.2612 11.0817C44.1649 10.9145 44.0307 10.7724 43.8693 10.6667L43.4133 10.4068C43.2414 10.3191 43.0511 10.2734 42.8581 10.2734C42.6651 10.2734 42.4749 10.3191 42.303 10.4068L35.3718 14.4151C35.2097 14.5202 35.0748 14.6622 34.9781 14.8294C34.8814 14.9966 34.8257 15.1843 34.8154 15.3772V27.8169C34.8268 28.0095 34.883 28.1969 34.9796 28.3639C35.0761 28.531 35.2105 28.6731 35.3718 28.7791L35.8278 29.039C36 29.1256 36.1901 29.1707 36.3829 29.1707C36.5757 29.1707 36.7659 29.1256 36.9381 29.039L39.6376 27.4817C40.0403 28.1722 40.6936 28.6809 41.4616 28.9022C41.5141 28.9175 41.57 28.9165 41.622 28.8995C41.6739 28.8825 41.7195 28.8502 41.7528 28.8068C41.7861 28.7634 41.8054 28.711 41.8084 28.6564C41.8114 28.6018 41.7978 28.5476 41.7694 28.5009C41.5865 28.19 41.4674 27.8459 41.4188 27.4885C41.3703 27.1311 41.3934 26.7676 41.4867 26.4193L43.8693 25.0376C44.0306 24.9318 44.1647 24.7896 44.2609 24.6225C44.3572 24.4554 44.4128 24.268 44.4234 24.0754V11.6289Z" fill="#37474F"/>
<path d="M34.8198 27.8163C34.8304 28.0091 34.8863 28.1967 34.983 28.3639C35.0797 28.531 35.2143 28.6731 35.3761 28.7785L35.8321 29.0384C35.9886 29.1169 36.1598 29.1615 36.3346 29.1694C36.5094 29.1772 36.6839 29.1481 36.8467 29.084C36.5868 29.182 36.3907 29.0338 36.3907 28.7169V16.2795C36.3981 16.0861 36.4546 15.8978 36.5549 15.7323L34.9908 14.8203C34.8913 14.986 34.8356 15.1743 34.8289 15.3675L34.8198 27.8163Z" fill="#263238"/>
<path d="M44.4049 11.4735C44.341 11.2455 44.1267 11.1612 43.8691 11.3094L36.9356 15.3199C36.7711 15.4201 36.6365 15.5626 36.5457 15.7326L34.9839 14.8206C35.0764 14.6511 35.2116 14.5089 35.376 14.4079L42.305 10.3974C42.4772 10.3107 42.6673 10.2656 42.8602 10.2656C43.053 10.2656 43.2431 10.3107 43.4153 10.3974L43.8713 10.6596C44.0115 10.7511 44.1313 10.8707 44.2231 11.0108C44.3149 11.1509 44.3768 11.3084 44.4049 11.4735Z" fill="#455A64"/>
<path d="M39.3619 20.2932C39.3637 20.3418 39.3544 20.3902 39.3346 20.4346C39.3203 20.4768 39.2932 20.5134 39.2571 20.5395L38.7007 20.9043C38.6887 20.9137 38.6739 20.9188 38.6586 20.9188C38.6433 20.9188 38.6284 20.9137 38.6164 20.9043C38.6025 20.8921 38.5916 20.877 38.5845 20.86C38.5774 20.843 38.5743 20.8246 38.5753 20.8062L38.491 19.4633L37.351 17.425C37.338 17.4035 37.3302 17.3793 37.3282 17.3543C37.3254 17.3142 37.3333 17.2741 37.351 17.238C37.3619 17.2034 37.3844 17.1736 37.4148 17.1537L37.9962 16.7706C38.054 16.7342 38.0973 16.7273 38.1262 16.7501C38.1506 16.7648 38.1704 16.7862 38.1832 16.8117L38.8079 18.0132L39.2525 16.1049C39.2627 16.061 39.2772 16.0182 39.2958 15.9772C39.3225 15.9168 39.3661 15.8653 39.4212 15.829L40.0026 15.4482C40.0121 15.44 40.0243 15.4355 40.0368 15.4355C40.0494 15.4355 40.0615 15.44 40.071 15.4482C40.0821 15.4583 40.0909 15.4707 40.0968 15.4844C40.1027 15.4982 40.1056 15.5131 40.1052 15.528C40.1042 15.5596 40.0996 15.591 40.0915 15.6215L39.2776 18.948L39.3619 20.2932Z" fill="#FAFAFA"/>
<path d="M42.3098 17.3701C42.316 17.3663 42.3228 17.3638 42.3299 17.3627C42.337 17.3616 42.3442 17.3619 42.3512 17.3636C42.3582 17.3653 42.3648 17.3684 42.3706 17.3726C42.3764 17.3769 42.3813 17.3822 42.3851 17.3883C42.4069 17.4229 42.415 17.4644 42.4079 17.5046L42.3395 18.2342C42.3341 18.2854 42.3186 18.335 42.2939 18.3801C42.275 18.4187 42.2448 18.4505 42.2072 18.4713L40.2031 19.3651C40.1906 19.3721 40.1759 19.3741 40.1619 19.3707C40.148 19.3673 40.1358 19.3588 40.1279 19.3469C40.1061 19.3123 40.0979 19.2708 40.1051 19.2306L40.52 14.7846C40.5247 14.7333 40.5403 14.6835 40.5656 14.6387C40.5838 14.5997 40.6143 14.5676 40.6523 14.5475L42.6222 13.6674C42.6347 13.6604 42.6494 13.6584 42.6634 13.6618C42.6773 13.6651 42.6895 13.6737 42.6974 13.6856C42.7192 13.7202 42.7274 13.7616 42.7202 13.8019L42.6518 14.5315C42.6468 14.5827 42.6313 14.6324 42.6062 14.6774C42.588 14.7164 42.5576 14.7484 42.5196 14.7686L41.2177 15.35L41.147 16.0933L42.3577 15.5529C42.364 15.5493 42.3709 15.5469 42.3781 15.546C42.3853 15.545 42.3926 15.5455 42.3996 15.5474C42.4066 15.5493 42.4132 15.5526 42.4189 15.5571C42.4246 15.5616 42.4294 15.5671 42.433 15.5735C42.4542 15.6083 42.4623 15.6495 42.4558 15.6897L42.3874 16.4193C42.3823 16.4699 42.3668 16.5188 42.3418 16.563C42.3235 16.602 42.2931 16.634 42.2551 16.6542L41.0399 17.1945L40.9692 17.9652L42.3098 17.3701Z" fill="#FAFAFA"/>
<path d="M40.1281 20.9467C40.1406 20.9397 40.1553 20.9377 40.1693 20.9411C40.1832 20.9444 40.1954 20.953 40.2033 20.9649C40.2252 20.9995 40.2333 21.0409 40.2261 21.0812L39.8477 25.5112C39.8434 25.5626 39.8278 25.6125 39.8021 25.6572C39.7846 25.6959 39.755 25.7279 39.7177 25.7484L39.1728 25.9923C39.16 26 39.1448 26.0024 39.1303 25.999C39.1158 25.9956 39.1032 25.9866 39.0953 25.9741C39.0754 25.9396 39.0674 25.8995 39.0725 25.8601L39.2161 24.1797L38.2767 24.6243L38.1331 26.3047C38.1288 26.3561 38.1132 26.4059 38.0875 26.4506C38.07 26.4893 38.0404 26.5213 38.0031 26.5418L37.4491 26.7949C37.4366 26.802 37.422 26.8045 37.4079 26.802C37.3937 26.7995 37.3809 26.7922 37.3716 26.7812C37.35 26.7457 37.3426 26.7033 37.3511 26.6626L37.7295 22.2326C37.7327 22.1813 37.7475 22.1314 37.7729 22.0867C37.7911 22.0477 37.8215 22.0157 37.8595 21.9955L38.4135 21.7401C38.4261 21.7331 38.4408 21.7311 38.4547 21.7345C38.4687 21.7379 38.4808 21.7464 38.4888 21.7584C38.5108 21.7928 38.5189 21.8344 38.5116 21.8746L38.3702 23.5254L39.3119 23.0967L39.4441 21.4323C39.4495 21.3811 39.465 21.3315 39.4897 21.2864C39.5072 21.2469 39.5378 21.2147 39.5763 21.1952L40.1281 20.9467Z" fill="#FAFAFA"/>
<path d="M41.8219 19.351C41.8789 19.3077 41.9245 19.2985 41.961 19.3191C41.9947 19.3405 42.0222 19.3703 42.0408 19.4057L43.5091 22.4723C43.5221 22.4969 43.532 22.5229 43.5388 22.5498C43.5429 22.5884 43.5382 22.6274 43.5251 22.6638C43.5137 22.6976 43.4931 22.7276 43.4658 22.7505L42.9346 23.1517C42.8798 23.1951 42.8365 23.2087 42.8069 23.1928C42.7804 23.1785 42.7602 23.1549 42.7499 23.1267L42.5584 22.7208L41.4389 23.569L41.3956 24.1527C41.3919 24.1981 41.3811 24.2428 41.3636 24.2849C41.3415 24.3422 41.3025 24.3914 41.2519 24.4263L40.723 24.8275C40.7125 24.8345 40.7002 24.8382 40.6876 24.8382C40.675 24.8382 40.6628 24.8345 40.6523 24.8275C40.6401 24.8195 40.63 24.8087 40.6229 24.7961C40.6158 24.7834 40.6118 24.7691 40.6112 24.7546C40.6068 24.7205 40.6068 24.686 40.6112 24.652L40.9783 20.1969C40.9848 20.1361 40.9985 20.0764 41.0194 20.019C41.0421 19.954 41.0833 19.8969 41.1379 19.8549L41.8219 19.351ZM41.5232 22.4769L42.2072 21.9616L41.6555 20.7851L41.5232 22.4769Z" fill="#FAFAFA"/>
<path d="M105.028 45.5324C104.723 48.0244 103.53 49.4449 102.012 50.1699L100.56 49.3309C100.927 48.8531 101.172 48.2926 101.273 47.6984C101.383 47.14 101.395 46.5669 101.31 46.0044L103.576 44.6934C103.483 45.4822 105.028 45.5324 105.028 45.5324Z" fill="#263238"/>
<path d="M108.478 31.4102V42.7372C108.465 42.9741 108.397 43.2046 108.278 43.4099C108.159 43.6152 107.993 43.7894 107.794 43.9182L105.024 45.5325C104.718 48.0245 103.526 49.445 102.007 50.17C102.842 49.1303 102.883 47.6027 102.757 46.8435L101.269 47.6985L99.2895 48.8385C99.0776 48.9464 98.8432 49.0026 98.6055 49.0026C98.3677 49.0026 98.1333 48.9464 97.9215 48.8385L97.3652 48.517C97.1664 48.3877 97.0009 48.2134 96.882 48.0082C96.7632 47.803 96.6944 47.5727 96.6812 47.336V36.0089C96.6944 35.7725 96.7632 35.5425 96.8821 35.3377C97.0009 35.1329 97.1664 34.959 97.3652 34.8302L105.867 29.9122C106.079 29.8043 106.314 29.748 106.551 29.748C106.789 29.748 107.023 29.8043 107.235 29.9122L107.792 30.2314C107.991 30.3601 108.156 30.5339 108.276 30.7387C108.395 30.9435 108.464 31.1736 108.478 31.4102Z" fill="#37474F"/>
<path d="M96.6973 47.3369C96.71 47.5738 96.7785 47.8043 96.8974 48.0095C97.0163 48.2148 97.1821 48.389 97.3813 48.5179L97.9353 48.8371C98.1275 48.9338 98.3381 48.9887 98.553 48.9981C98.768 49.0076 98.9825 48.9713 99.1825 48.8918C98.861 49.015 98.617 48.8326 98.617 48.4358V37.1179C98.6256 36.8803 98.6947 36.6488 98.8177 36.4453L96.9002 35.3418C96.7782 35.5447 96.7099 35.7754 96.7018 36.0121L96.6973 47.3369Z" fill="#263238"/>
<path d="M108.457 31.2186C108.377 30.9291 108.113 30.8356 107.798 31.018L99.2939 35.9382C99.0916 36.0624 98.9256 36.2378 98.8128 36.4467L96.8999 35.3409C97.0128 35.1328 97.1778 34.9576 97.3787 34.8325L105.883 29.9122C106.095 29.8043 106.329 29.748 106.567 29.748C106.805 29.748 107.039 29.8043 107.251 29.9122L107.807 30.2337C107.977 30.3455 108.121 30.4904 108.233 30.6597C108.345 30.829 108.421 31.0191 108.457 31.2186Z" fill="#455A64"/>
<path d="M103.056 44.1219C102.979 44.1775 102.885 44.2035 102.791 44.1951C102.697 44.1867 102.608 44.1445 102.543 44.0763L100.947 42.3777C100.68 42.095 100.607 41.6458 100.89 41.0735C101.173 40.5012 101.588 40.3257 101.854 40.6175L102.887 41.721L105.454 35.2344C105.694 34.628 106.138 34.2928 106.442 34.4866C106.745 34.6804 106.797 35.3302 106.558 35.939L103.594 43.4037C103.496 43.6883 103.314 43.9364 103.072 44.115C103.067 44.1177 103.061 44.12 103.056 44.1219Z" fill="#FAFAFA"/>
<path d="M90.3655 48.863C90.3643 48.5693 90.287 48.2809 90.1411 48.026C89.9952 47.7711 89.7857 47.5584 89.533 47.4086C89.2804 47.2589 88.9932 47.1772 88.6995 47.1715C88.4058 47.1659 88.1157 47.2365 87.8575 47.3765C87.683 46.8418 87.3942 46.3514 87.0111 45.9396C86.6281 45.5277 86.16 45.2041 85.6393 44.9913C85.1187 44.7784 84.558 44.6815 83.9961 44.7071C83.4342 44.7328 82.8846 44.8804 82.3855 45.1398C82.3865 44.7276 82.2374 44.3292 81.966 44.019C81.6947 43.7088 81.3197 43.5079 80.9111 43.454C80.5024 43.4001 80.0882 43.4968 79.7457 43.7261C79.4032 43.9553 79.1558 44.3014 79.0499 44.6998C78.5348 44.3653 77.9335 44.1879 77.3194 44.189C76.5484 44.1877 75.8031 44.4653 75.2209 44.9708C74.6388 45.4762 74.2593 46.1752 74.1524 46.9387C74.0466 46.9177 73.9389 46.907 73.831 46.9068C73.3805 46.9068 72.9484 47.0858 72.6299 47.4043C72.3113 47.7228 72.1324 48.1549 72.1324 48.6054C72.1692 48.9283 72.2577 49.2431 72.3946 49.5379C72.0444 49.8186 71.79 50.201 71.6664 50.6324C71.5428 51.0638 71.5561 51.5229 71.7044 51.9465C71.8528 52.37 72.1289 52.737 72.4946 52.997C72.8604 53.257 73.2979 53.3971 73.7466 53.398C73.8744 53.3974 74.0018 53.3852 74.1274 53.3615C74.2211 53.5852 74.2795 53.8221 74.3006 54.0637C74.3009 54.4241 74.4158 54.775 74.6286 55.0658C74.8415 55.3566 75.1413 55.5722 75.4848 55.6813C75.8282 55.7905 76.1975 55.7875 76.5391 55.673C76.8808 55.5585 77.1772 55.3382 77.3855 55.0441C77.7524 55.6547 78.2806 56.1523 78.9119 56.4823C79.5432 56.8124 80.2532 56.962 80.964 56.9149C81.6748 56.8678 82.3588 56.6257 82.9411 56.2152C83.5233 55.8048 83.9811 55.2418 84.2642 54.5881C84.4445 54.9208 84.7308 55.1838 85.0776 55.3353C85.4244 55.4869 85.8118 55.5182 86.1785 55.4245C86.5451 55.3307 86.8699 55.1172 87.1014 54.8178C87.3329 54.5184 87.4578 54.1503 87.4562 53.7719C87.4562 53.7354 87.4562 53.7012 87.4562 53.6647C88.0754 53.6182 88.6542 53.3397 89.0769 52.8848C89.4996 52.43 89.7351 51.8324 89.7362 51.2114C89.7352 50.9081 89.6788 50.6076 89.5698 50.3245C89.8167 50.1696 90.0195 49.9538 90.1589 49.6979C90.2982 49.4419 90.3694 49.1544 90.3655 48.863Z" fill="white"/>
<path d="M88.6671 46.8016C88.4583 46.8017 88.2508 46.8332 88.0515 46.8951C87.6198 45.8972 86.8206 45.1036 85.8197 44.6791C84.8187 44.2546 83.6927 44.2317 82.6752 44.6151C82.5723 44.2118 82.3492 43.8493 82.0354 43.5757C81.7217 43.3021 81.3322 43.1304 80.9186 43.0834C80.505 43.0364 80.0869 43.1163 79.7197 43.3125C79.3526 43.5087 79.0538 43.8119 78.8631 44.1819C78.3967 43.9561 77.8867 43.8349 77.3686 43.8269C76.8505 43.8189 76.337 43.9243 75.8639 44.1356C75.3909 44.347 74.9697 44.6592 74.63 45.0504C74.2902 45.4416 74.0401 45.9023 73.8972 46.4004C73.8835 46.4391 73.8698 46.487 73.8539 46.5463H73.8265C73.2814 46.5469 72.7587 46.7629 72.3722 47.1473C71.9856 47.5316 71.7667 48.0532 71.7631 48.5983C71.7832 48.8832 71.8503 49.1628 71.9615 49.4259C71.6041 49.7787 71.3597 50.2298 71.2594 50.7219C71.1592 51.214 71.2076 51.7248 71.3985 52.1893C71.5895 52.6538 71.9143 53.051 72.3316 53.3303C72.749 53.6096 73.24 53.7585 73.7422 53.7579C73.7878 53.7579 73.8311 53.7579 73.8744 53.7579C73.9069 53.8584 73.9268 53.9626 73.9337 54.068C73.9297 54.464 74.0404 54.8528 74.2525 55.1873C74.4646 55.5218 74.7689 55.7878 75.1288 55.9532C75.4887 56.1185 75.8888 56.1762 76.2808 56.1192C76.6727 56.0622 77.0398 55.8931 77.3377 55.6321C77.7293 56.1489 78.236 56.5673 78.8174 56.8542C79.7684 57.3237 80.8607 57.4203 81.8793 57.1249C82.8979 56.8295 83.7691 56.1636 84.3214 55.2582C84.5935 55.5214 84.9332 55.7042 85.3029 55.7863C85.6725 55.8685 86.0576 55.8467 86.4157 55.7235C86.7737 55.6003 87.0907 55.3805 87.3315 55.0883C87.5723 54.7961 87.7276 54.443 87.7801 54.068C87.7958 53.9662 87.8035 53.8632 87.8029 53.7602C87.8029 53.7055 87.8029 53.653 87.8029 53.5983C87.6839 53.6276 87.5627 53.6467 87.4404 53.6553C87.4439 53.6902 87.4439 53.7253 87.4404 53.7602C87.4399 53.8789 87.4277 53.9973 87.4039 54.1136C87.3378 54.4252 87.1852 54.712 86.9636 54.9409C86.7421 55.1699 86.4605 55.3318 86.1512 55.4082C85.8419 55.4846 85.5174 55.4723 85.2147 55.3728C84.9121 55.2732 84.6436 55.0905 84.4399 54.8455C84.5718 54.3749 84.609 53.8828 84.5494 53.3977C84.5184 53.8049 84.4173 54.2036 84.2507 54.5764C83.9675 55.2301 83.5097 55.7931 82.9275 56.2036C82.3453 56.614 81.6612 56.8561 80.9504 56.9032C80.2396 56.9504 79.5296 56.8007 78.8983 56.4706C78.267 56.1406 77.7389 55.643 77.3719 55.0324C77.3719 55.0324 77.299 54.8728 77.2169 54.6448C77.1171 54.3854 77.0408 54.1176 76.9889 53.8446C76.921 54.3243 76.9808 54.8134 77.1622 55.2627C76.9241 55.4978 76.6217 55.6571 76.2932 55.7205C75.9647 55.7839 75.6248 55.7487 75.3163 55.6192C75.0078 55.4897 74.7446 55.2718 74.5598 54.9929C74.375 54.714 74.2769 54.3866 74.278 54.052C74.2566 53.8104 74.1982 53.5736 74.1047 53.3498C73.9791 53.3736 73.8517 53.3858 73.7239 53.3863C73.2752 53.3854 72.8377 53.2453 72.472 52.9853C72.1062 52.7254 71.8301 52.3583 71.6817 51.9348C71.5334 51.5113 71.5201 51.0521 71.6437 50.6207C71.7673 50.1893 72.0218 49.8069 72.3719 49.5262C72.2332 49.232 72.1438 48.917 72.1074 48.5937C72.1074 48.1446 72.2855 47.7138 72.6026 47.3958C72.9198 47.0779 73.3501 46.8986 73.7992 46.8974C73.8281 47.3127 73.9572 47.7148 74.1754 48.0693C74.0865 47.6959 74.071 47.3087 74.1298 46.9293C74.2019 46.3946 74.4084 45.8868 74.7301 45.4535C75.0517 45.0202 75.4779 44.6756 75.9689 44.4517C76.4599 44.2278 76.9996 44.1321 77.5376 44.1734C78.0757 44.2148 78.5944 44.3918 79.0454 44.6881C79.3595 44.9056 79.6432 45.164 79.8891 45.4564C79.8891 45.4017 79.7842 44.9548 79.1526 44.4008C79.3076 44.0803 79.5595 43.8166 79.8726 43.6472C80.1857 43.4777 80.5442 43.4111 80.8973 43.4568C81.2504 43.5024 81.5802 43.658 81.84 43.9015C82.0997 44.145 82.2763 44.4641 82.3446 44.8135C82.0327 45.0564 81.7905 45.3772 81.6424 45.7437C81.849 45.4969 82.0975 45.2885 82.3765 45.1281C82.8756 44.8687 83.4252 44.7211 83.9871 44.6955C84.549 44.6698 85.1097 44.7668 85.6304 44.9796C86.151 45.1924 86.6191 45.516 87.0022 45.9279C87.3852 46.3398 87.674 46.8301 87.8485 47.3648C88.2011 47.1713 88.6109 47.1092 89.005 47.1895C89.399 47.2698 89.7518 47.4874 90.0005 47.8034C90.2493 48.1194 90.3778 48.5135 90.3632 48.9154C90.3487 49.3173 90.192 49.701 89.9211 49.9982C89.8139 50.1172 89.6893 50.2195 89.5517 50.3014C89.5974 50.417 89.634 50.5359 89.6611 50.6571C89.8044 50.5836 89.9383 50.4933 90.0601 50.3881C90.3722 50.1101 90.592 49.7434 90.6901 49.3371C90.7881 48.9308 90.7597 48.5042 90.6087 48.1145C90.4577 47.7248 90.1913 47.3904 89.8452 47.1562C89.499 46.922 89.0896 46.7991 88.6716 46.8039L88.6671 46.8016Z" fill="#455A64"/>
<path d="M79.9756 56.9659C80.2743 57.4378 79.8798 58.7352 78.5825 58.6713C80.3222 59.1433 81.6263 57.9121 81.6993 56.8633C81.6993 56.8633 81.282 57.0708 79.9756 56.9659Z" fill="#455A64"/>
<path d="M90.06 50.3879C90.024 50.2592 89.9783 50.1335 89.9232 50.0117C89.816 50.1308 89.6915 50.233 89.5539 50.315C89.5996 50.4305 89.6362 50.5494 89.6633 50.6706C89.7009 50.8452 89.72 51.0233 89.7203 51.2019C89.72 51.7588 89.5309 52.2992 89.1839 52.7349C88.8369 53.1705 88.3524 53.4756 87.8096 53.6004C87.6907 53.6298 87.5694 53.6488 87.4471 53.6574C87.4506 53.6923 87.4506 53.7274 87.4471 53.7623C87.4466 53.881 87.4344 53.9994 87.4106 54.1157C87.537 54.1098 87.6627 54.0945 87.7868 54.0701C88.1879 53.9964 88.5691 53.8394 88.9057 53.6092C89.2424 53.3791 89.527 53.0809 89.7412 52.7339C89.9554 52.3869 90.0945 51.9988 90.1494 51.5947C90.2043 51.1906 90.1739 50.7795 90.06 50.3879Z" fill="#455A64"/>
<path d="M79.2667 48.6899L78.6237 52.4952L77.0642 52.5294L76.729 50.5572L76.3939 52.3812L74.8321 52.4359L74.1846 48.6853L75.5526 48.5645L75.8262 50.8445L76.1932 48.5645H77.2648L77.6935 50.8718L77.9215 48.5645L79.2667 48.6899Z" fill="#455A64"/>
<path d="M82.7096 50.5621C82.7093 50.7249 82.6902 50.8871 82.6526 51.0455C82.6143 51.1966 82.5584 51.3428 82.4862 51.481C82.413 51.6149 82.3242 51.7396 82.2217 51.8526C82.0138 52.0797 81.747 52.2446 81.451 52.3291C81.1489 52.4146 80.8293 52.4174 80.5257 52.3372C80.2221 52.257 79.9456 52.0967 79.7251 51.8731C79.6203 51.766 79.5298 51.6456 79.456 51.5152C79.3816 51.3828 79.3235 51.2419 79.2828 51.0956C79.2414 50.9425 79.2207 50.7846 79.2212 50.626C79.2214 50.4675 79.2413 50.3098 79.2805 50.1563C79.3536 49.8568 79.5002 49.5802 79.7068 49.3514C79.8087 49.2384 79.9253 49.1395 80.0534 49.0573C80.1813 48.9744 80.3202 48.9099 80.4661 48.8658C80.618 48.8178 80.7765 48.7939 80.9358 48.7951C81.1831 48.7917 81.429 48.8342 81.6608 48.9205C81.8701 48.9968 82.0602 49.118 82.2178 49.2755C82.3753 49.4331 82.4965 49.6232 82.5728 49.8325C82.6639 50.0649 82.7103 50.3125 82.7096 50.5621ZM81.4898 50.6351C81.4897 50.5578 81.4782 50.481 81.4556 50.4071C81.4332 50.3359 81.3993 50.2689 81.3553 50.2087C81.311 50.1513 81.2551 50.1039 81.1911 50.0696C81.1212 50.0318 81.0426 50.013 80.9631 50.0149C80.8845 50.0139 80.8067 50.0302 80.7351 50.0628C80.6689 50.0926 80.6099 50.1361 80.5618 50.1905C80.5117 50.245 80.4736 50.3095 80.4501 50.3797C80.4246 50.453 80.4115 50.5301 80.4114 50.6077C80.4123 50.6848 80.4231 50.7614 80.4433 50.8357C80.4647 50.9101 80.4987 50.9802 80.5436 51.0432C80.5861 51.1059 80.6422 51.1581 80.7078 51.196C80.7775 51.2346 80.8561 51.2542 80.9358 51.253C81.0145 51.2527 81.0922 51.2356 81.1638 51.2028C81.231 51.1697 81.2901 51.1222 81.337 51.0637C81.3858 51.0052 81.4229 50.9378 81.4465 50.8654C81.4741 50.7917 81.4887 50.7138 81.4898 50.6351Z" fill="#455A64"/>
<path d="M87.7595 48.6899L87.1165 52.4952L85.557 52.5294L85.2219 50.5572L84.8867 52.3812L83.3272 52.4359L82.6797 48.6853L84.0477 48.5645L84.3236 50.8445L84.6906 48.5645H85.7622L86.184 50.8764L86.412 48.5645L87.7595 48.6899Z" fill="#455A64"/>
<path d="M15.8843 72.8821L15.116 71.4412L15.7316 69.6582V68.5684L13.8438 69.6582V70.748L14.6554 72.1548C14.6669 72.1776 14.6864 72.1955 14.7101 72.205L15.8843 72.8821Z" fill="#3FA654"/>
<path opacity="0.2" d="M15.8843 72.8821L15.116 71.4412L15.7316 69.6582V68.5684L13.8438 69.6582V70.748L14.6554 72.1548C14.6669 72.1776 14.6864 72.1955 14.7101 72.205L15.8843 72.8821Z" fill="#333333"/>
<path d="M20.3977 59.8979C20.3882 59.7015 20.3324 59.5102 20.2349 59.3394C20.1375 59.1687 20.0011 59.0233 19.8369 58.9152L19.3809 58.6485C19.2043 58.5586 19.009 58.5117 18.8109 58.5117C18.6127 58.5117 18.4174 58.5586 18.2409 58.6485L11.1729 62.7411C11.008 62.8483 10.8708 62.9931 10.7725 63.1634C10.6743 63.3338 10.6177 63.525 10.6074 63.7215V71.5031C10.6177 71.6995 10.6743 71.8908 10.7725 72.0611C10.8708 72.2315 11.008 72.3763 11.1729 72.4835L11.6289 72.7503C11.8054 72.8402 12.0007 72.887 12.1989 72.887C12.397 72.887 12.5923 72.8402 12.7689 72.7503L15.0489 71.437L15.8583 72.8415C15.8687 72.8646 15.8861 72.8838 15.908 72.8965C15.9299 72.9091 15.9553 72.9146 15.9805 72.9121C16.0057 72.9096 16.0294 72.8992 16.0484 72.8824C16.0674 72.8657 16.0806 72.8434 16.0863 72.8187L16.9435 70.3472L19.8369 68.66C20.0022 68.553 20.1398 68.4083 20.2385 68.2379C20.3371 68.0675 20.3941 67.8762 20.4046 67.6796L20.3977 59.8979Z" fill="#3FA654"/>
<path opacity="0.2" d="M10.5972 71.503C10.6074 71.6994 10.664 71.8906 10.7623 72.061C10.8605 72.2314 10.9977 72.3761 11.1626 72.4834L11.6186 72.7501C11.7784 72.8308 11.9536 72.8766 12.1324 72.8845C12.3113 72.8923 12.4897 72.8621 12.656 72.7957C12.3893 72.8961 12.1863 72.7456 12.1863 72.4241V64.6425C12.1934 64.4455 12.2498 64.2534 12.3505 64.0839L10.7545 63.1719C10.6531 63.3411 10.5966 63.5333 10.5903 63.7305L10.5972 71.503Z" fill="#333333"/>
<path opacity="0.3" d="M20.3783 59.7357C20.3121 59.494 20.091 59.4188 19.8311 59.5693L12.7631 63.6733C12.5951 63.7761 12.4575 63.9217 12.3641 64.0951L10.7681 63.1831C10.8615 63.0028 11.0007 62.8503 11.1716 62.7407L18.2396 58.6504C18.4162 58.5605 18.6115 58.5137 18.8096 58.5137C19.0078 58.5137 19.2031 58.5605 19.3796 58.6504L19.8356 58.9172C19.9765 59.0101 20.0972 59.1305 20.1904 59.2711C20.2836 59.4118 20.3475 59.5698 20.3783 59.7357Z" fill="white"/>
<path d="M16.1874 69.0837C13.757 68.4977 13.5654 66.4822 14.2768 65.0367C14.9129 63.7416 16.0734 63.6915 16.1988 64.95C16.3311 63.5433 17.4939 62.2642 18.1254 62.8342C18.8414 63.4772 18.6384 65.7161 16.1874 69.0837Z" fill="white"/>
<path d="M20.1482 14.4113C18.8509 13.6794 17.0634 13.7865 15.0912 14.9243C11.1217 17.2157 7.90234 22.7994 7.90234 27.3731C7.90234 29.6531 8.70718 31.2719 10.0068 32.022L12.4623 33.4356C13.7619 34.1834 15.5563 34.074 17.5376 32.9294C21.5071 30.638 24.7242 25.0657 24.7242 20.4829C24.7242 18.2029 23.9239 16.5909 22.6311 15.8385C22.0885 15.5216 20.6977 14.7213 20.1482 14.4113Z" fill="#3FA654"/>
<path opacity="0.15" d="M8.16682 24.9902C7.99641 25.7731 7.90777 26.5716 7.90234 27.3728C7.90234 29.6528 8.70718 31.2716 10.0068 32.0218L12.4623 33.4354C13.7619 34.1832 15.5563 34.0738 17.5376 32.9292C18.2274 32.5256 18.8731 32.0511 19.4642 31.5133L8.16682 24.9902Z" fill="#333333"/>
<path d="M22.622 27.5607C23.9216 25.3103 24.7242 22.7727 24.7242 20.4927C24.7242 15.9076 21.5071 14.0517 17.5376 16.3431C13.5682 18.6345 10.3511 24.1977 10.3511 28.7805C10.3511 33.3633 13.5682 35.2215 17.5376 32.9301C18.5794 32.3111 19.525 31.5429 20.3443 30.6501L23.2764 31.1859C23.3613 31.2014 23.4488 31.1938 23.5298 31.1641C23.6109 31.1343 23.6824 31.0834 23.7371 31.0166C23.7918 30.9498 23.8276 30.8696 23.8408 30.7843C23.854 30.699 23.8441 30.6117 23.8122 30.5315L22.622 27.5607Z" fill="#3FA654"/>
<path opacity="0.35" d="M22.622 27.5607C23.9216 25.3103 24.7242 22.7727 24.7242 20.4927C24.7242 15.9076 21.5071 14.0517 17.5376 16.3431C13.5682 18.6345 10.3511 24.1977 10.3511 28.7805C10.3511 33.3633 13.5682 35.2215 17.5376 32.9301C18.5794 32.3111 19.525 31.5429 20.3443 30.6501L23.2764 31.1859C23.3613 31.2014 23.4488 31.1938 23.5298 31.1641C23.6109 31.1343 23.6824 31.0834 23.7371 31.0166C23.7918 30.9498 23.8276 30.8696 23.8408 30.7843C23.854 30.699 23.8441 30.6117 23.8122 30.5315L22.622 27.5607Z" fill="white"/>
<path d="M18.1125 26.821L17.1708 27.3591C17.1397 27.3846 17.1018 27.4003 17.0617 27.4042C17.0217 27.4081 16.9814 27.4 16.9459 27.381C16.9105 27.3619 16.8815 27.3328 16.8627 27.2972C16.8439 27.2616 16.8361 27.2213 16.8402 27.1813L16.4595 20.1338C16.4604 20.0289 16.4873 19.9259 16.5379 19.8339C16.5884 19.742 16.661 19.6641 16.749 19.6071L18.5343 18.5765C18.7053 18.4762 18.8352 18.556 18.8238 18.7544L18.4408 26.2943C18.4283 26.4009 18.3924 26.5034 18.3356 26.5945C18.2789 26.6855 18.2027 26.7629 18.1125 26.821Z" fill="#FAFAFA"/>
<path d="M17.6405 30.6166C17.0409 30.9631 16.6807 30.514 16.6807 29.8893C16.6826 29.5274 16.7707 29.1711 16.9376 28.8499C17.1045 28.5288 17.3455 28.252 17.6405 28.0425C18.2425 27.6959 18.6027 28.1451 18.6027 28.7698C18.6005 29.1319 18.5121 29.4883 18.3448 29.8095C18.1775 30.1306 17.9361 30.4073 17.6405 30.6166Z" fill="#FAFAFA"/>
<path d="M99.5469 74.0712L100.411 72.4433L99.727 70.4324V69.2012L101.859 70.4324V71.6636L100.947 73.2596C100.932 73.2848 100.91 73.3047 100.883 73.3166L99.5469 74.0712Z" fill="#3FA654"/>
<path opacity="0.2" d="M99.5469 74.0712L100.411 72.4433L99.727 70.4324V69.2012L101.859 70.4324V71.6636L100.947 73.2596C100.932 73.2848 100.91 73.3047 100.883 73.3166L99.5469 74.0712Z" fill="#333333"/>
<path d="M94.4556 59.418C94.4674 59.1961 94.5314 58.9801 94.6423 58.7876C94.7532 58.5951 94.908 58.4314 95.094 58.3099L95.6138 58.0112C95.8118 57.9101 96.031 57.8574 96.2534 57.8574C96.4757 57.8574 96.6949 57.9101 96.8929 58.0112L104.873 62.6259C105.059 62.7473 105.214 62.9109 105.326 63.1034C105.437 63.2959 105.501 63.512 105.514 63.734V72.5143C105.501 72.7363 105.437 72.9523 105.326 73.1449C105.214 73.3374 105.059 73.501 104.873 73.6224L104.353 73.9233C104.155 74.0233 103.936 74.0754 103.714 74.0754C103.491 74.0754 103.272 74.0233 103.074 73.9233L100.509 72.439L99.597 74.0237C99.5838 74.0459 99.5645 74.064 99.5415 74.0758C99.5184 74.0876 99.4924 74.0926 99.4666 74.0902C99.4408 74.0878 99.4163 74.0781 99.3957 74.0623C99.3752 74.0465 99.3596 74.0252 99.3507 74.0009L98.384 71.2101L95.094 69.3109C94.9078 69.1895 94.753 69.0259 94.6421 68.8333C94.5311 68.6407 94.4672 68.4247 94.4556 68.2028V59.418Z" fill="#3FA654"/>
<path opacity="0.2" d="M105.514 72.515C105.501 72.7371 105.437 72.9531 105.326 73.1456C105.214 73.3381 105.059 73.5017 104.873 73.6231L104.353 73.9241C104.173 74.014 103.975 74.0649 103.774 74.0735C103.572 74.0821 103.371 74.0483 103.184 73.9742C103.485 74.0882 103.715 73.9195 103.715 73.5547V64.7721C103.706 64.55 103.642 64.3337 103.528 64.1429L105.327 63.1055C105.441 63.296 105.506 63.5125 105.514 63.7348V72.515Z" fill="#333333"/>
<path opacity="0.3" d="M94.478 59.2359C94.5533 58.9645 94.7995 58.8779 95.0959 59.0489L103.076 63.6659C103.267 63.7815 103.425 63.9459 103.532 64.1424L105.331 63.105C105.223 62.9092 105.066 62.7449 104.875 62.6285L96.8948 58.0115C96.6965 57.9115 96.4774 57.8594 96.2553 57.8594C96.0331 57.8594 95.8141 57.9115 95.6157 58.0115L95.0959 58.3125C94.9354 58.4162 94.7979 58.5516 94.6916 58.7103C94.5854 58.8691 94.5127 59.048 94.478 59.2359Z" fill="white"/>
<path d="M101.932 69.3514C101.932 69.4068 101.919 69.4614 101.892 69.5101C101.866 69.5588 101.827 69.5998 101.78 69.6294C101.733 69.6589 101.68 69.6759 101.624 69.6787C101.569 69.6815 101.514 69.6701 101.464 69.6455C101.508 69.803 101.531 69.9654 101.533 70.1288C101.533 70.4321 101.282 70.5848 100.917 70.3774L98.1445 68.7814V65.1562C98.4424 64.8313 98.7203 64.4887 98.9767 64.1302C99.0474 63.9637 98.9767 62.9902 98.9767 62.8306C98.9767 62.696 99.4327 62.8921 99.72 63.3664C99.7905 63.4811 99.8457 63.6045 99.8842 63.7335C99.9608 63.9853 100.017 64.2431 100.051 64.5041C100.094 64.8262 100.074 65.1537 99.9936 65.4685L101.669 66.4375C101.805 66.517 101.917 66.6311 101.993 66.7681C102.099 66.9378 102.159 67.1317 102.169 67.3313C102.169 67.6573 101.991 67.7326 101.9 67.7417C102.001 67.8354 102.083 67.9484 102.14 68.0741C102.197 68.1997 102.229 68.3356 102.233 68.4736C102.233 68.7289 102.078 68.9113 101.824 68.8247C101.898 68.9904 101.935 69.1701 101.932 69.3514Z" fill="#FAFAFA"/>
<path d="M96.5347 64.2938V68.2017C96.5379 68.2475 96.5517 68.292 96.5751 68.3316C96.5984 68.3711 96.6306 68.4047 96.6692 68.4297L97.604 68.9701C97.6792 69.0134 97.7408 68.9701 97.7408 68.8925V64.9778C97.737 64.9318 97.7226 64.8874 97.6989 64.8478C97.6752 64.8083 97.6427 64.7748 97.604 64.7498L96.6646 64.2026C96.5939 64.1615 96.5347 64.1957 96.5347 64.2938Z" fill="#FAFAFA"/>
<path d="M89.3369 23.6919L75.6956 15.794C75.4565 15.6726 75.1921 15.6094 74.9239 15.6094C74.6557 15.6094 74.3913 15.6726 74.1521 15.794L73.9834 15.8966C73.7586 16.0428 73.5714 16.24 73.4371 16.4722C73.3028 16.7043 73.2252 16.9649 73.2104 17.2327V24.5127C73.2104 25.0052 73.2105 25.4019 73.9104 25.7986L87.6246 33.7444C87.8638 33.8658 88.1282 33.9291 88.3964 33.9291C88.6646 33.9291 88.929 33.8658 89.1682 33.7444L89.3369 33.6418C89.5614 33.4955 89.7482 33.2982 89.8821 33.066C90.016 32.8339 90.0933 32.5734 90.1075 32.3058V25.028C90.0933 24.7604 90.016 24.4999 89.8821 24.2677C89.7482 24.0356 89.5614 23.8383 89.3369 23.6919Z" fill="#FAFAFA"/>
<path d="M74.0289 28.2408C74.7266 27.9079 75.5018 27.0461 75.5018 26.1523L77.6427 27.4086C77.2057 27.9043 76.6459 28.2763 76.0195 28.4872C75.3932 28.6981 74.7224 28.7406 74.0745 28.6102C74.0341 28.6021 73.9973 28.5815 73.9693 28.5513C73.9413 28.5211 73.9235 28.4828 73.9185 28.442C73.9134 28.4011 73.9214 28.3597 73.9412 28.3235C73.961 28.2874 73.9917 28.2585 74.0289 28.2408Z" fill="#FAFAFA"/>
<path d="M73.2329 17.0141C73.3241 16.6858 73.6228 16.5809 73.9785 16.7861L87.6266 24.6863C87.855 24.8275 88.0422 25.0265 88.1692 25.2631L89.8815 24.2713C89.7532 24.0356 89.5663 23.837 89.3388 23.6945L75.6976 15.7943C75.4581 15.674 75.1938 15.6113 74.9258 15.6113C74.6578 15.6113 74.3935 15.674 74.154 15.7943L73.983 15.8969C73.7892 16.023 73.6229 16.187 73.494 16.379C73.3651 16.5709 73.2763 16.787 73.2329 17.0141Z" fill="#3FA654"/>
<path opacity="0.45" d="M73.2329 17.0141C73.3241 16.6858 73.6228 16.5809 73.9785 16.7861L87.6266 24.6863C87.855 24.8275 88.0422 25.0265 88.1692 25.2631L89.8815 24.2713C89.7532 24.0356 89.5663 23.837 89.3388 23.6945L75.6976 15.7943C75.4581 15.674 75.1938 15.6113 74.9258 15.6113C74.6578 15.6113 74.3935 15.674 74.154 15.7943L73.983 15.8969C73.7892 16.023 73.6229 16.187 73.494 16.379C73.3651 16.5709 73.2763 16.787 73.2329 17.0141Z" fill="white"/>
<path d="M90.1075 32.3111C90.0933 32.5787 90.016 32.8392 89.8821 33.0714C89.7482 33.3035 89.5614 33.5008 89.3369 33.6472L89.1682 33.7498C88.9507 33.8592 88.7125 33.9215 88.4693 33.9325C88.2261 33.9435 87.9833 33.903 87.7568 33.8136C88.1194 33.9504 88.3952 33.7429 88.3952 33.3029V26.0228C88.3847 25.7538 88.3063 25.4919 88.1672 25.2613L89.8795 24.2695C90.0189 24.4991 90.0974 24.7604 90.1075 25.0288V32.3111Z" fill="#3FA654"/>
<path opacity="0.25" d="M90.1075 32.3111C90.0933 32.5787 90.016 32.8392 89.8821 33.0714C89.7482 33.3035 89.5614 33.5008 89.3369 33.6472L89.1682 33.7498C88.9507 33.8592 88.7125 33.9215 88.4693 33.9325C88.2261 33.9435 87.9833 33.903 87.7568 33.8136C88.1194 33.9504 88.3952 33.7429 88.3952 33.3029V26.0228C88.3847 25.7538 88.3063 25.4919 88.1672 25.2613L89.8795 24.2695C90.0189 24.4991 90.0974 24.7604 90.1075 25.0288V32.3111Z" fill="white"/>
<path d="M73.644 16.924C73.7251 16.9276 73.8038 16.9527 73.872 16.9969L87.52 24.8948C87.7116 25.0144 87.8687 25.1818 87.976 25.3805C88.0947 25.5731 88.1622 25.7929 88.1721 26.0189V33.3035C88.1721 33.4175 88.1493 33.609 87.9897 33.609C87.9588 33.6086 87.9282 33.604 87.8985 33.5953H87.8826C87.8475 33.5804 87.8132 33.5637 87.78 33.5452L81.7653 30.0613L79.1958 28.5702L77.4516 27.5579L77.2988 27.469L77.1666 27.5852C76.7735 27.9175 76.3143 28.1623 75.8194 28.3034C75.3245 28.4446 74.8052 28.4788 74.296 28.4038C74.9436 28.041 75.4372 27.4551 75.6846 26.7553L75.7438 26.5684L75.5751 26.4703L74.0635 25.5925C73.4844 25.2642 73.4844 24.986 73.4844 24.5209V17.2318C73.4847 17.1798 73.4893 17.128 73.498 17.0767C73.5391 16.9217 73.628 16.9217 73.6622 16.9217L73.644 16.924ZM73.6622 16.6777C73.567 16.6777 73.4748 16.711 73.4015 16.7717C73.3282 16.8325 73.2785 16.917 73.2609 17.0106C73.2609 16.9559 73.286 16.9012 73.2997 16.8465C73.2587 16.9701 73.2372 17.0993 73.2358 17.2295V24.5095C73.2358 25.002 73.2358 25.401 73.9358 25.7932L75.4474 26.671C75.2031 27.3521 74.7058 27.913 74.0589 28.2373C74.0217 28.255 73.991 28.2839 73.9712 28.32C73.9514 28.3562 73.9434 28.3976 73.9485 28.4385C73.9535 28.4793 73.9713 28.5176 73.9993 28.5478C74.0273 28.578 74.0641 28.5986 74.1045 28.6067C74.6653 28.7123 75.2425 28.6912 75.7941 28.5448C76.3456 28.3984 76.8574 28.1306 77.292 27.7608L79.0362 28.7708L81.608 30.2642L87.6249 33.7435C87.666 33.7663 87.7093 33.7868 87.7549 33.8074C87.773 33.8159 87.7922 33.8221 87.8119 33.8256C87.863 33.8407 87.9159 33.8483 87.9692 33.8484C88.2223 33.8484 88.3956 33.6478 88.3956 33.2989V26.0189C88.3846 25.7507 88.3062 25.4895 88.1676 25.2596C88.0397 25.0235 87.8517 24.8253 87.6226 24.6851L73.9768 16.7872C73.8737 16.7213 73.7548 16.6843 73.6326 16.68L73.6622 16.6777Z" fill="#3FA654"/>
<path d="M77.1116 21.5018C77.1399 21.5193 77.1615 21.5458 77.1732 21.577C77.1888 21.6106 77.1973 21.6471 77.1982 21.6842V24.8534C77.1994 24.8673 77.1978 24.8813 77.1935 24.8947C77.1892 24.908 77.1823 24.9203 77.1732 24.9309C77.1645 24.9381 77.1536 24.9421 77.1424 24.9421C77.1311 24.9421 77.1202 24.9381 77.1116 24.9309L76.6944 24.6892C76.6674 24.6717 76.6467 24.6462 76.6351 24.6162C76.6175 24.5824 76.6082 24.5449 76.6077 24.5068V23.3052L75.9009 22.8971V24.0987C75.9032 24.1275 75.8942 24.1561 75.8758 24.1785C75.8672 24.1857 75.8563 24.1897 75.8451 24.1897C75.8338 24.1897 75.8229 24.1857 75.8143 24.1785L75.397 23.9414C75.3706 23.9233 75.35 23.898 75.3378 23.8684C75.3196 23.8348 75.3102 23.7972 75.3104 23.759V20.5943C75.3092 20.5802 75.3111 20.566 75.3158 20.5526C75.3205 20.5393 75.328 20.5271 75.3378 20.5168C75.346 20.5097 75.3565 20.5059 75.3674 20.5059C75.3783 20.5059 75.3888 20.5097 75.397 20.5168L75.8143 20.7494C75.8415 20.7672 75.8629 20.7925 75.8758 20.8223C75.8917 20.8567 75.9002 20.8939 75.9009 20.9318V22.1174L76.6077 22.5278V21.3444C76.6064 21.3303 76.6082 21.3161 76.6129 21.3027C76.6176 21.2893 76.6252 21.2771 76.6351 21.2669C76.6431 21.2594 76.6537 21.2552 76.6647 21.2552C76.6757 21.2552 76.6863 21.2594 76.6944 21.2669L77.1116 21.5018Z" fill="#3FA654"/>
<path d="M79.2413 25.3808C79.2685 25.3986 79.2899 25.424 79.3028 25.4538C79.3187 25.4881 79.3272 25.5254 79.3279 25.5632V26.0831C79.3291 26.097 79.3275 26.111 79.3232 26.1243C79.3189 26.1377 79.312 26.15 79.3028 26.1606C79.2944 26.1683 79.2835 26.1725 79.2721 26.1725C79.2607 26.1725 79.2497 26.1683 79.2413 26.1606L77.7319 25.2896C77.7042 25.2714 77.6827 25.2452 77.6704 25.2144C77.6545 25.1808 77.646 25.1443 77.6453 25.1072V21.9403C77.6433 21.9122 77.6523 21.8844 77.6704 21.8628C77.679 21.8555 77.6899 21.8516 77.7011 21.8516C77.7124 21.8516 77.7233 21.8555 77.7319 21.8628L79.2162 22.72C79.2434 22.7388 79.2647 22.7649 79.2778 22.7953C79.2938 22.8288 79.3024 22.8653 79.3028 22.9024V23.4223C79.3047 23.4511 79.2957 23.4795 79.2778 23.5021C79.269 23.5089 79.2581 23.5126 79.247 23.5126C79.2358 23.5126 79.225 23.5089 79.2162 23.5021L78.2335 22.9344V23.4633L79.1455 23.99C79.1733 24.0082 79.1948 24.0345 79.2071 24.0653C79.2229 24.0988 79.2315 24.1353 79.2322 24.1724V24.6923C79.2345 24.7211 79.2255 24.7497 79.2071 24.7721C79.1985 24.7793 79.1876 24.7833 79.1763 24.7833C79.165 24.7833 79.1541 24.7793 79.1455 24.7721L78.2335 24.2454V24.7949L79.2413 25.3808Z" fill="#3FA654"/>
<path d="M81.2567 26.5439C81.2837 26.5623 81.3044 26.5886 81.316 26.6191C81.3337 26.6521 81.3431 26.6889 81.3433 26.7263V27.2461C81.3445 27.2606 81.3427 27.2752 81.338 27.2889C81.3333 27.3026 81.3258 27.3152 81.316 27.3259C81.3077 27.333 81.2972 27.3369 81.2863 27.3369C81.2755 27.3369 81.2649 27.333 81.2567 27.3259L79.7815 26.4755C79.7533 26.4579 79.7316 26.4314 79.72 26.4002C79.703 26.3671 79.6944 26.3303 79.6949 26.2931V23.1239C79.6934 23.1099 79.6949 23.0958 79.6992 23.0825C79.7035 23.0691 79.7106 23.0568 79.72 23.0464C79.7286 23.0391 79.7395 23.0352 79.7508 23.0352C79.762 23.0352 79.7729 23.0391 79.7815 23.0464L80.1988 23.288C80.2257 23.3055 80.2465 23.3311 80.2581 23.361C80.275 23.395 80.2836 23.4325 80.2831 23.4704V25.9784L81.2567 26.5439Z" fill="#3FA654"/>
<path d="M83.1789 27.6554C83.2053 27.6734 83.2259 27.6988 83.2381 27.7284C83.2557 27.7622 83.2651 27.7997 83.2655 27.8378V28.3576C83.2668 28.3718 83.2651 28.386 83.2603 28.3994C83.2556 28.4128 83.248 28.425 83.2381 28.4352C83.2299 28.4422 83.2194 28.4461 83.2085 28.4461C83.1976 28.4461 83.1871 28.4422 83.1789 28.4352L81.7037 27.5893C81.675 27.5733 81.6531 27.5474 81.6422 27.5163C81.6263 27.482 81.6178 27.4447 81.6171 27.4069V24.2377C81.6159 24.2237 81.6175 24.2097 81.6218 24.1964C81.6261 24.1831 81.633 24.1708 81.6422 24.1602C81.6581 24.1419 81.6786 24.1419 81.7037 24.1602L82.121 24.3882C82.148 24.4066 82.1687 24.4328 82.1802 24.4634C82.1972 24.4965 82.2058 24.5333 82.2053 24.5706V27.0786L83.1789 27.6554Z" fill="#3FA654"/>
<path d="M83.4342 26.4325C83.4375 26.2716 83.4636 26.1119 83.5117 25.9583C83.5467 25.8398 83.6137 25.7332 83.7055 25.6505C83.7914 25.5794 83.8995 25.5406 84.011 25.541C84.1594 25.5487 84.3033 25.5951 84.4282 25.6755C84.585 25.7671 84.7252 25.8842 84.8432 26.0221C84.964 26.161 85.0674 26.3141 85.151 26.4781C85.2348 26.6491 85.2998 26.8288 85.3448 27.0139C85.3894 27.1978 85.4154 27.3857 85.4223 27.5748C85.4223 27.7184 85.4223 27.8666 85.4223 28.0308C85.4223 28.1949 85.4223 28.3272 85.4223 28.4594C85.4189 28.6196 85.3928 28.7785 85.3448 28.9314C85.3084 29.0505 85.2416 29.1582 85.151 29.2437C85.0651 29.3162 84.9555 29.3543 84.8432 29.3509C84.6957 29.3403 84.5531 29.2933 84.4282 29.2141C84.271 29.1233 84.13 29.007 84.011 28.8698C83.8902 28.7315 83.7875 28.5782 83.7055 28.4138C83.621 28.243 83.556 28.0633 83.5117 27.878C83.467 27.6934 83.4411 27.5047 83.4342 27.3149C83.4342 27.1781 83.4342 27.0321 83.4342 26.8794C83.4342 26.7266 83.4296 26.5693 83.4342 26.4325ZM84.8318 28.0878C84.8318 28.0315 84.8318 27.9677 84.8318 27.8963C84.8318 27.8256 84.8318 27.7526 84.8318 27.6683C84.8318 27.5839 84.8318 27.5201 84.8318 27.4403C84.8318 27.3605 84.8318 27.3057 84.8318 27.2487C84.8293 27.1658 84.8186 27.0833 84.7999 27.0025C84.7826 26.9238 84.7566 26.8474 84.7224 26.7745C84.6906 26.7059 84.6491 26.6421 84.5992 26.5853C84.5522 26.5267 84.4941 26.4779 84.4282 26.4416C84.3769 26.4072 84.3168 26.3882 84.255 26.3869C84.2326 26.3862 84.2104 26.3901 84.1896 26.3984C84.1688 26.4066 84.1499 26.419 84.1341 26.4348C84.0972 26.4723 84.0705 26.5186 84.0566 26.5693C84.0369 26.6368 84.0254 26.7065 84.0224 26.7768C84.0224 26.8292 84.0224 26.8908 84.0224 26.9615C84.0224 27.0321 84.0224 27.1028 84.0224 27.1895C84.0224 27.2761 84.0224 27.3399 84.0224 27.4175C84.0224 27.495 84.0224 27.5588 84.0224 27.6204C84.03 27.7825 84.0679 27.9418 84.1341 28.0901C84.1934 28.23 84.2967 28.3469 84.4282 28.4229C84.5605 28.4974 84.6585 28.4974 84.7224 28.4229C84.7933 28.3256 84.8317 28.2083 84.8318 28.0878Z" fill="#3FA654"/>
<path d="M86.341 29.0769C86.3422 29.0909 86.3406 29.1049 86.3363 29.1182C86.332 29.1315 86.3251 29.1439 86.316 29.1545C86.3076 29.1621 86.2966 29.1664 86.2852 29.1664C86.2738 29.1664 86.2628 29.1621 86.2544 29.1545L85.8531 28.9265C85.8259 28.9077 85.8046 28.8816 85.7916 28.8512C85.776 28.8176 85.7675 28.7811 85.7665 28.7441V26.6305C85.7653 26.6166 85.7669 26.6025 85.7712 26.5892C85.7755 26.5759 85.7824 26.5636 85.7916 26.553C85.8 26.5453 85.811 26.541 85.8224 26.541C85.8338 26.541 85.8447 26.5453 85.8531 26.553L86.2544 26.781C86.2816 26.7998 86.3029 26.8258 86.316 26.8562C86.3318 26.8898 86.3404 26.9263 86.341 26.9634V29.0769ZM86.341 30.1326C86.3422 30.1465 86.3406 30.1606 86.3363 30.1739C86.332 30.1872 86.3251 30.1995 86.316 30.2101C86.3073 30.2173 86.2964 30.2213 86.2852 30.2213C86.2739 30.2213 86.263 30.2173 86.2544 30.2101L85.8531 29.9821C85.826 29.9642 85.8046 29.9389 85.7916 29.9091C85.7757 29.8748 85.7672 29.8375 85.7665 29.7997V29.3049C85.7653 29.291 85.7669 29.277 85.7712 29.2636C85.7755 29.2503 85.7824 29.238 85.7916 29.2274C85.8 29.2197 85.811 29.2155 85.8224 29.2155C85.8338 29.2155 85.8447 29.2197 85.8531 29.2274L86.2544 29.4554C86.2816 29.4742 86.3029 29.5003 86.316 29.5307C86.3316 29.5643 86.3401 29.6008 86.341 29.6378V30.1326Z" fill="#3FA654"/>
<path d="M33.2151 46.2519L31.9679 45.5337C31.9429 45.5234 31.922 45.5049 31.9087 45.4812L31.6807 45.0777L32.3099 44.7129H32.4011L33.2151 46.2519Z" fill="#3FA654"/>
<path opacity="0.25" d="M33.2151 46.2519L31.9679 45.5337C31.9429 45.5234 31.922 45.5049 31.9087 45.4812L31.6807 45.0777L32.3099 44.7129H32.4011L33.2151 46.2519Z" fill="white"/>
<path d="M26.2702 39.5812L36.9361 33.4092C37.1231 33.3148 37.3296 33.2656 37.5391 33.2656C37.7486 33.2656 37.9552 33.3148 38.1422 33.4092L38.2744 33.489C38.4499 33.6033 38.5959 33.7575 38.7005 33.939C38.8051 34.1204 38.8654 34.3241 38.8763 34.5332V40.2218C38.8763 40.6071 38.8763 40.9172 38.3291 41.225L34.3163 43.5483L33.4043 46.184C33.3956 46.2096 33.379 46.2318 33.3569 46.2474C33.3348 46.263 33.3083 46.2711 33.2812 46.2707C33.2586 46.2709 33.2364 46.2651 33.2167 46.2538C33.1971 46.2426 33.1808 46.2264 33.1695 46.2068L32.3077 44.7111L27.6063 47.4357C27.4193 47.5301 27.2127 47.5793 27.0032 47.5793C26.7937 47.5793 26.5872 47.5301 26.4002 47.4357L26.2702 47.3559C26.0944 47.2417 25.9481 47.0876 25.8431 46.9062C25.7381 46.7247 25.6774 46.521 25.666 46.3117V40.6254C25.6774 40.4161 25.7381 40.2124 25.8431 40.0309C25.9481 39.8495 26.0944 39.6954 26.2702 39.5812Z" fill="#FAFAFA"/>
<path d="M38.8534 34.3623C38.7828 34.1046 38.5479 34.0248 38.2698 34.1844L27.6062 40.3564C27.427 40.4682 27.2807 40.6256 27.1821 40.8124L25.8438 40.0372C25.9445 39.8512 26.0913 39.6942 26.2701 39.5812L36.936 33.4092C37.1234 33.3148 37.3303 33.2656 37.5402 33.2656C37.75 33.2656 37.9569 33.3148 38.1444 33.4092L38.2766 33.489C38.4267 33.5881 38.5553 33.7165 38.6544 33.8666C38.7536 34.0167 38.8213 34.1853 38.8534 34.3623Z" fill="#3FA654"/>
<path opacity="0.45" d="M38.8534 34.3623C38.7828 34.1046 38.5479 34.0248 38.2698 34.1844L27.6062 40.3564C27.427 40.4682 27.2807 40.6256 27.1821 40.8124L25.8438 40.0372C25.9445 39.8512 26.0913 39.6942 26.2701 39.5812L36.936 33.4092C37.1234 33.3148 37.3303 33.2656 37.5402 33.2656C37.75 33.2656 37.9569 33.3148 38.1444 33.4092L38.2766 33.489C38.4267 33.5881 38.5553 33.7165 38.6544 33.8666C38.7536 34.0167 38.8213 34.1853 38.8534 34.3623Z" fill="white"/>
<path d="M25.666 46.3149C25.6774 46.5243 25.7381 46.7279 25.8431 46.9094C25.9481 47.0909 26.0944 47.245 26.2702 47.3592L26.4002 47.439C26.5701 47.5248 26.7563 47.5737 26.9466 47.5823C27.1368 47.591 27.3266 47.5592 27.5037 47.4891C27.221 47.5963 27.0044 47.4344 27.0044 47.0901V41.4015C27.0112 41.1915 27.0717 40.9866 27.1799 40.8064L25.8439 40.0312C25.7346 40.2111 25.6734 40.416 25.666 40.6263V46.3149Z" fill="#3FA654"/>
<path opacity="0.25" d="M25.666 46.3149C25.6774 46.5243 25.7381 46.7279 25.8431 46.9094C25.9481 47.0909 26.0944 47.245 26.2702 47.3592L26.4002 47.439C26.5701 47.5248 26.7563 47.5737 26.9466 47.5823C27.1368 47.591 27.3266 47.5592 27.5037 47.4891C27.221 47.5963 27.0044 47.4344 27.0044 47.0901V41.4015C27.0112 41.1915 27.0717 40.9866 27.1799 40.8064L25.8439 40.0312C25.7346 40.2111 25.6734 40.416 25.666 40.6263V46.3149Z" fill="white"/>
<path d="M38.5321 34.3309C38.5572 34.3309 38.6005 34.3309 38.6256 34.4244C38.6276 34.4616 38.6276 34.4989 38.6256 34.5361V40.2247C38.6256 40.5849 38.6255 40.7833 38.1923 41.0295L34.2001 43.3528L34.1271 43.3962L34.0998 43.476L33.2562 45.9087L32.5015 44.6023L32.3875 44.4062L32.1914 44.5202L27.4923 47.2425L27.4194 47.279H27.4034C27.3837 47.2818 27.3638 47.2818 27.3441 47.279C27.2506 47.279 27.237 47.1536 27.237 47.0784V41.3784C27.2444 41.2083 27.2946 41.0428 27.3829 40.8973C27.4634 40.7476 27.5812 40.6211 27.7249 40.5302L38.3884 34.3605C38.435 34.3305 38.4883 34.3125 38.5435 34.3081L38.5321 34.3309ZM38.5435 34.0801C38.4475 34.084 38.3542 34.1122 38.2722 34.1622L27.6063 40.3569C27.4274 40.4691 27.2812 40.6264 27.1822 40.8129C27.0734 40.9929 27.0121 41.1977 27.0044 41.408V47.108C27.0044 47.3793 27.1389 47.5366 27.3396 47.5366C27.3805 47.536 27.4211 47.5299 27.4604 47.5184C27.4752 47.5152 27.4897 47.5106 27.5037 47.5047C27.5388 47.4898 27.573 47.4731 27.6063 47.4546L32.3077 44.7322L33.1695 46.2256C33.1808 46.2452 33.1971 46.2614 33.2167 46.2727C33.2364 46.2839 33.2586 46.2897 33.2812 46.2895C33.308 46.2898 33.3341 46.2816 33.3559 46.266C33.3776 46.2504 33.3938 46.2283 33.4021 46.2028L34.3141 43.5672L38.3223 41.2416C38.865 40.9338 38.8718 40.6237 38.8718 40.2384V34.5338C38.8705 34.4315 38.8536 34.33 38.8216 34.2328C38.833 34.2762 38.8444 34.3195 38.8513 34.3628C38.8375 34.2899 38.7988 34.2241 38.7418 34.1767C38.6848 34.1293 38.6131 34.1032 38.5389 34.1029L38.5435 34.0801Z" fill="#3FA654"/>
<path d="M28.9856 42.9964C28.9866 42.8516 29.0065 42.7075 29.0449 42.5678C29.0835 42.424 29.1378 42.2848 29.2067 42.1528C29.2729 42.0251 29.354 41.9057 29.4484 41.7971C29.5331 41.6988 29.6332 41.6148 29.7448 41.5486C29.8341 41.4928 29.9361 41.4606 30.0412 41.4552C30.1282 41.4535 30.2132 41.4808 30.2829 41.5327C30.357 41.5921 30.4131 41.6711 30.4448 41.7607C30.4858 41.8762 30.5051 41.9983 30.5018 42.1209C30.5018 42.2657 30.4826 42.4098 30.4448 42.5495C30.4066 42.6935 30.3523 42.8327 30.2829 42.9645C30.216 43.0918 30.1349 43.2111 30.0412 43.3202C29.9573 43.4193 29.8571 43.5033 29.7448 43.5687C29.656 43.6255 29.5537 43.6577 29.4484 43.6622C29.3617 43.665 29.2765 43.6385 29.2067 43.5869C29.1331 43.527 29.0772 43.4482 29.0449 43.3589C29.003 43.2428 28.9829 43.1199 28.9856 42.9964Z" fill="#3FA654"/>
<path d="M31.9495 41.2858C31.9503 41.1409 31.9702 40.9968 32.0087 40.8571C32.0473 40.7126 32.1016 40.5727 32.1706 40.4399C32.2365 40.3127 32.3177 40.194 32.4123 40.0865C32.4964 39.9869 32.5966 39.9021 32.7087 39.8357C32.798 39.7802 32.9001 39.7488 33.0051 39.7445C33.0913 39.7407 33.176 39.7673 33.2445 39.8197C33.3194 39.879 33.3762 39.9579 33.4087 40.0477C33.4497 40.1641 33.469 40.2869 33.4657 40.4103C33.4655 40.555 33.4463 40.6991 33.4087 40.8389C33.3692 40.9828 33.3141 41.1219 33.2445 41.2539C33.1792 41.3815 33.0988 41.5009 33.0051 41.6095C32.92 41.7074 32.8199 41.7913 32.7087 41.858C32.6193 41.9135 32.5174 41.9456 32.4123 41.9515C32.3253 41.9539 32.24 41.9266 32.1706 41.874C32.0965 41.8145 32.0404 41.7356 32.0087 41.646C31.9669 41.5306 31.9468 41.4085 31.9495 41.2858Z" fill="#3FA654"/>
<path d="M34.9135 39.5746C34.9135 39.4297 34.9335 39.2855 34.9728 39.146C35.0108 39.002 35.0651 38.8627 35.1347 38.731C35.2 38.6033 35.2804 38.4839 35.3741 38.3753C35.4592 38.2775 35.5593 38.1936 35.6705 38.1268C35.7599 38.0714 35.8618 38.0392 35.9669 38.0333C36.0539 38.031 36.1392 38.0583 36.2086 38.1109C36.2827 38.1703 36.3388 38.2493 36.3705 38.3389C36.4121 38.4543 36.4322 38.5764 36.4297 38.6991C36.4288 38.8447 36.4089 38.9896 36.3705 39.13C36.3314 39.2737 36.2772 39.4128 36.2086 39.545C36.1427 39.6722 36.0615 39.7909 35.9669 39.8984C35.8834 39.9986 35.7831 40.0834 35.6705 40.1492C35.5809 40.2043 35.4791 40.2364 35.3741 40.2427C35.2878 40.2447 35.2034 40.2174 35.1347 40.1651C35.0598 40.1064 35.0036 40.0272 34.9728 39.9371C34.9299 39.8212 34.9098 39.6982 34.9135 39.5746Z" fill="#3FA654"/>
<path d="M21.9925 78.9212C21.0987 78.4128 19.8721 78.4903 18.5155 79.2746C15.7795 80.8501 13.5747 84.6805 13.5747 87.8315C13.5747 89.407 14.1265 90.5128 15.0179 91.0235L16.7074 91.9948C17.6012 92.51 18.8347 92.4348 20.1981 91.6482C22.9341 90.0727 25.1389 86.2423 25.1389 83.0891C25.1389 81.5182 24.5871 80.4146 23.6979 79.8971C23.3263 79.685 22.3709 79.1356 21.9925 78.9212Z" fill="#3FA654"/>
<path opacity="0.45" d="M21.9925 78.9212C21.0987 78.4128 19.8721 78.4903 18.5155 79.2746C15.7795 80.8501 13.5747 84.6805 13.5747 87.8315C13.5747 89.407 14.1265 90.5128 15.0179 91.0235L16.7074 91.9948C17.6012 92.51 18.8347 92.4348 20.1981 91.6482C22.9341 90.0727 25.1389 86.2423 25.1389 83.0891C25.1389 81.5182 24.5871 80.4146 23.6979 79.8971C23.3263 79.685 22.3709 79.1356 21.9925 78.9212Z" fill="white"/>
<path d="M17.4508 92.0669C17.1426 92.5679 16.7189 92.9877 16.2151 93.2913C15.6548 93.6197 15.0127 93.7818 14.3637 93.7587C14.3336 93.7592 14.3038 93.7521 14.2771 93.7381L12.5967 92.7691C12.5712 92.7543 12.5499 92.733 12.5352 92.7074C12.5205 92.6818 12.5127 92.6528 12.5127 92.6232C12.5127 92.5937 12.5205 92.5646 12.5352 92.539C12.5499 92.5134 12.5712 92.4921 12.5967 92.4773C13.0224 92.2444 13.3849 91.9113 13.653 91.507C13.9212 91.1026 14.0868 90.639 14.1357 90.1562L17.4508 92.0669Z" fill="#3FA654"/>
<path opacity="0.25" d="M17.4508 92.0669C17.1426 92.5679 16.7189 92.9877 16.2151 93.2913C15.6548 93.6197 15.0127 93.7818 14.3637 93.7587C14.3336 93.7592 14.3038 93.7521 14.2771 93.7381L12.5967 92.7691C12.5712 92.7543 12.5499 92.733 12.5352 92.7074C12.5205 92.6818 12.5127 92.6528 12.5127 92.6232C12.5127 92.5937 12.5205 92.5646 12.5352 92.539C12.5499 92.5134 12.5712 92.4921 12.5967 92.4773C13.0224 92.2444 13.3849 91.9113 13.653 91.507C13.9212 91.1026 14.0868 90.639 14.1357 90.1562L17.4508 92.0669Z" fill="white"/>
<path d="M20.1982 80.2408C17.4622 81.8163 15.2551 85.649 15.2551 88.7999C15.2257 89.6117 15.4214 90.4158 15.8206 91.1232C15.772 91.6067 15.6062 92.0709 15.3376 92.4758C15.0691 92.8806 14.7058 93.2139 14.2793 93.4466C14.2467 93.4644 14.2211 93.4926 14.2064 93.5268C14.1917 93.5609 14.1889 93.5989 14.1983 93.6348C14.2078 93.6707 14.2289 93.7024 14.2585 93.7249C14.288 93.7474 14.3242 93.7594 14.3614 93.7589C15.0117 93.7813 15.6551 93.6192 16.2173 93.2915C16.6565 93.0235 17.0366 92.669 17.3345 92.2496C18.1416 92.4456 19.1288 92.2678 20.1982 91.6522C22.9342 90.0767 25.1389 86.2463 25.1389 83.0931C25.1389 79.9398 22.925 78.6585 20.1982 80.2408Z" fill="#FAFAFA"/>
<path d="M22.4029 79.7986C23.951 79.7986 24.9109 81.064 24.9109 83.0978C24.9109 86.1712 22.7449 89.9218 20.0842 91.4586C19.4559 91.8531 18.7347 92.0749 17.9934 92.1015C17.7899 92.1027 17.587 92.079 17.3892 92.0308L17.2364 91.9944L17.1452 92.1243C16.8648 92.5188 16.5072 92.8523 16.0942 93.1047C15.6334 93.3761 15.1103 93.5238 14.5757 93.5334C14.9872 93.2755 15.334 92.9266 15.5894 92.5135C15.8448 92.1004 16.0019 91.6342 16.0486 91.1508V91.0732L16.0075 91.0071C15.633 90.3351 15.4493 89.5735 15.4763 88.8046C15.4763 85.7312 17.6423 81.9806 20.3053 80.4439C20.9354 80.0476 21.659 79.825 22.4029 79.7986ZM22.4029 79.5706C21.6208 79.6015 20.8604 79.8374 20.1982 80.2546C17.4622 81.8301 15.2551 85.6628 15.2551 88.8138C15.2257 89.6255 15.4214 90.4296 15.8206 91.1371C15.772 91.6205 15.6062 92.0848 15.3376 92.4896C15.0691 92.8945 14.7058 93.2277 14.2793 93.4604C14.2467 93.4783 14.2211 93.5065 14.2064 93.5406C14.1917 93.5747 14.1889 93.6127 14.1983 93.6486C14.2078 93.6845 14.2289 93.7163 14.2585 93.7388C14.288 93.7612 14.3242 93.7732 14.3614 93.7728H14.3978C15.0377 93.7893 15.6695 93.6266 16.2218 93.3031C16.661 93.0351 17.0411 92.6806 17.339 92.2611C17.5549 92.3122 17.7761 92.3374 17.998 92.3364C18.7783 92.3053 19.5369 92.0702 20.1982 91.6546C22.9342 90.0792 25.1389 86.2488 25.1389 83.0955C25.1389 80.8611 24.024 79.5684 22.4029 79.5684V79.5706Z" fill="#3FA654"/>
<path d="M17.4326 87.8084C17.4335 87.6929 17.4488 87.5781 17.4782 87.4664C17.51 87.352 17.5535 87.2412 17.6082 87.1358C17.6608 87.0344 17.7251 86.9395 17.7997 86.8531C17.8641 86.7747 17.9412 86.7077 18.0277 86.6547C18.0963 86.6116 18.1748 86.5865 18.2557 86.5818C18.331 86.5738 18.4066 86.5941 18.4677 86.6388C18.5258 86.6871 18.5699 86.7501 18.5954 86.8212C18.6294 86.913 18.6457 87.0105 18.6433 87.1084C18.6429 87.2241 18.6268 87.3391 18.5954 87.4504C18.5647 87.5641 18.5219 87.6742 18.4677 87.7788C18.4135 87.8797 18.3485 87.9745 18.2739 88.0615C18.2095 88.1398 18.1324 88.2069 18.0459 88.2598C17.9768 88.3024 17.8988 88.3281 17.8179 88.3351C17.749 88.3364 17.6816 88.3148 17.6264 88.2735C17.5671 88.2259 17.5221 88.1627 17.4965 88.0911C17.4587 88.0014 17.4371 87.9057 17.4326 87.8084Z" fill="#3FA654"/>
<path d="M19.7922 86.4454C19.7929 86.3307 19.8082 86.2166 19.8378 86.1057C19.8692 85.9912 19.9127 85.8803 19.9677 85.7751C20.0198 85.6734 20.0841 85.5784 20.1593 85.4924C20.2237 85.414 20.3008 85.347 20.3873 85.294C20.4552 85.249 20.5339 85.223 20.6153 85.2188C20.6848 85.2178 20.7528 85.2394 20.8091 85.2803C20.8676 85.3282 20.9118 85.3913 20.9367 85.4627C20.9708 85.5546 20.987 85.6521 20.9846 85.75C20.9841 85.8657 20.968 85.9807 20.9367 86.092C20.9057 86.2064 20.863 86.3171 20.8091 86.4226C20.7543 86.5233 20.6894 86.618 20.6153 86.7054C20.5498 86.7827 20.4729 86.8496 20.3873 86.9037C20.3185 86.9466 20.2401 86.9717 20.1593 86.9767C20.0904 86.978 20.023 86.9563 19.9677 86.9151C19.9085 86.8683 19.8635 86.806 19.8378 86.735C19.8055 86.6419 19.7901 86.5439 19.7922 86.4454Z" fill="#3FA654"/>
<path d="M22.152 85.0844C22.1529 84.9689 22.1682 84.854 22.1976 84.7424C22.229 84.6279 22.2726 84.517 22.3276 84.4118C22.3802 84.3104 22.4445 84.2155 22.5191 84.1291C22.5835 84.0507 22.6606 83.9837 22.7471 83.9307C22.8157 83.8876 22.8942 83.8625 22.9751 83.8578C23.0439 83.8545 23.1117 83.8755 23.1666 83.917C23.2254 83.9652 23.2703 84.0281 23.2966 84.0994C23.3298 84.1915 23.3452 84.2889 23.3422 84.3867C23.3424 84.5022 23.3271 84.6173 23.2966 84.7287C23.2652 84.8432 23.2216 84.9541 23.1666 85.0593C23.114 85.1607 23.0497 85.2556 22.9751 85.342C22.9107 85.4204 22.8336 85.4874 22.7471 85.5404C22.678 85.5829 22.5999 85.6087 22.5191 85.6156C22.4502 85.617 22.3828 85.5953 22.3276 85.5541C22.2683 85.5064 22.2233 85.4433 22.1976 85.3717C22.1655 85.2794 22.1501 85.1821 22.152 85.0844Z" fill="#3FA654"/>
<path d="M32.5464 74.6372C32.9041 74.0573 33.395 73.5712 33.9782 73.219C34.628 72.8375 35.373 72.6493 36.126 72.6764C36.161 72.6763 36.1955 72.685 36.2263 72.7015C36.3403 72.7699 38.1438 73.8073 38.1734 73.8232C38.2033 73.8401 38.2282 73.8646 38.2455 73.8943C38.2628 73.9239 38.2719 73.9576 38.2719 73.9919C38.2719 74.0263 38.2628 74.06 38.2455 74.0896C38.2282 74.1193 38.2033 74.1438 38.1734 74.1607C37.6797 74.4306 37.259 74.8165 36.9476 75.2852C36.6362 75.7539 36.4434 76.2913 36.3859 76.8511L32.5464 74.6372Z" fill="#3FA654"/>
<path opacity="0.25" d="M32.5464 74.6372C32.9041 74.0573 33.395 73.5712 33.9782 73.219C34.628 72.8375 35.373 72.6493 36.126 72.6764C36.161 72.6763 36.1955 72.685 36.2263 72.7015C36.3403 72.7699 38.1438 73.8073 38.1734 73.8232C38.2033 73.8401 38.2282 73.8646 38.2455 73.8943C38.2628 73.9239 38.2719 73.9576 38.2719 73.9919C38.2719 74.0263 38.2628 74.06 38.2455 74.0896C38.2282 74.1193 38.2033 74.1438 38.1734 74.1607C37.6797 74.4306 37.259 74.8165 36.9476 75.2852C36.6362 75.7539 36.4434 76.2913 36.3859 76.8511L32.5464 74.6372Z" fill="white"/>
<path d="M36.4018 77.7132C36.2987 77.0122 36.413 76.2965 36.7294 75.6625C37.0458 75.0285 37.549 74.5068 38.1711 74.1678C38.2078 74.1461 38.2364 74.113 38.2527 74.0736C38.2689 74.0342 38.2718 73.9905 38.2609 73.9493C38.2501 73.908 38.2261 73.8715 38.1927 73.8451C38.1592 73.8187 38.118 73.8039 38.0754 73.803C37.3222 73.7778 36.5771 73.9651 35.9253 74.3434C34.4046 75.3101 34.2153 76.4501 34.2153 76.4501L36.4018 77.7132Z" fill="#3FA654"/>
<path d="M32.8683 74.1C31.8331 73.5118 30.4104 73.603 28.8395 74.5104C25.6794 76.3344 23.1167 80.7713 23.1167 84.4216C23.1167 86.2456 23.7574 87.5247 24.7925 88.1243L26.7465 89.2484C27.7816 89.8434 29.2111 89.7591 30.7889 88.8471C33.949 87.0231 36.5117 82.5839 36.5117 78.9336C36.5117 77.1096 35.8733 75.8351 34.8427 75.2355C34.4118 74.9938 33.306 74.3577 32.8683 74.1Z" fill="#3FA654"/>
<path opacity="0.15" d="M32.8683 74.1C31.8331 73.5118 30.4104 73.603 28.8395 74.5104C25.6794 76.3344 23.1167 80.7713 23.1167 84.4216C23.1167 86.2456 23.7574 87.5247 24.7925 88.1243L26.7465 89.2484C27.7816 89.8434 29.2111 89.7591 30.7889 88.8471C33.949 87.0231 36.5117 82.5839 36.5117 78.9336C36.5117 77.1096 35.8733 75.8351 34.8427 75.2355C34.4118 74.9938 33.306 74.3577 32.8683 74.1Z" fill="#333333"/>
<path d="M34.8345 84.582C37.0696 80.7107 37.0701 76.5266 34.8356 75.2366C32.6012 73.9465 28.9779 76.039 26.7428 79.9103C24.5077 83.7816 24.5072 87.9657 26.7416 89.2558C28.9761 90.5458 32.5994 88.4533 34.8345 84.582Z" fill="#3FA654"/>
<path d="M30.5627 79.6495C30.577 79.6375 30.5952 79.6309 30.614 79.6309C30.6327 79.6309 30.6509 79.6375 30.6653 79.6495C30.6803 79.6674 30.6917 79.6881 30.6987 79.7104C30.7058 79.7327 30.7083 79.7562 30.7063 79.7795V85.044C30.706 85.1063 30.692 85.1678 30.6653 85.2241C30.6435 85.2741 30.6079 85.3169 30.5627 85.3472L29.8787 85.7462C29.8649 85.7586 29.847 85.7654 29.8285 85.7654C29.81 85.7654 29.7921 85.7586 29.7783 85.7462C29.7631 85.7285 29.7516 85.7078 29.7445 85.6855C29.7375 85.6631 29.735 85.6396 29.7373 85.6163V83.6213L28.5608 84.3053V86.3026C28.5603 86.3641 28.5463 86.4248 28.5198 86.4804C28.5001 86.531 28.465 86.5741 28.4195 86.6035L27.7355 87.0048C27.7209 87.0165 27.7028 87.0228 27.6842 87.0228C27.6655 87.0228 27.6474 87.0165 27.6329 87.0048C27.6173 86.9863 27.6057 86.9648 27.5987 86.9417C27.5916 86.9186 27.5893 86.8943 27.5918 86.8703V81.5967C27.5923 81.5344 27.6063 81.4729 27.6329 81.4165C27.6539 81.3661 27.6896 81.3232 27.7355 81.2934L28.4195 80.8921C28.4337 80.8807 28.4514 80.8744 28.4696 80.8744C28.4879 80.8744 28.5056 80.8807 28.5198 80.8921C28.5348 80.91 28.5462 80.9307 28.5532 80.953C28.5603 80.9753 28.5629 80.9988 28.5608 81.0221V82.992L29.7373 82.308V80.3427C29.7378 80.2811 29.7518 80.2204 29.7783 80.1648C29.798 80.1142 29.8331 80.0711 29.8787 80.0417L30.5627 79.6495Z" fill="white"/>
<path d="M31.5912 84.761C31.5774 84.7733 31.5595 84.7801 31.541 84.7801C31.5225 84.7801 31.5047 84.7733 31.4909 84.761C31.475 84.7435 31.4629 84.723 31.4554 84.7006C31.448 84.6782 31.4453 84.6545 31.4476 84.631V79.3597C31.4478 79.2971 31.4626 79.2354 31.4909 79.1795C31.511 79.1293 31.546 79.0863 31.5912 79.0564L32.2752 78.6551C32.2892 78.6432 32.307 78.6367 32.3254 78.6367C32.3437 78.6367 32.3615 78.6432 32.3755 78.6551C32.391 78.6729 32.4028 78.6935 32.4102 78.7158C32.4176 78.7381 32.4206 78.7616 32.4188 78.7851V84.0496C32.4175 84.1113 32.4027 84.172 32.3755 84.2275C32.3566 84.2784 32.3213 84.3217 32.2752 84.3506L31.5912 84.761Z" fill="white"/>
<path d="M34.072 81.3547C34.0718 81.417 34.0578 81.4785 34.031 81.5348C34.0108 81.585 33.9759 81.628 33.9307 81.6579L33.2626 82.0432C33.2488 82.0556 33.231 82.0624 33.2125 82.0624C33.194 82.0624 33.1761 82.0556 33.1623 82.0432C33.1473 82.0253 33.1359 82.0046 33.1289 81.9823C33.1218 81.96 33.1192 81.9366 33.1213 81.9133V78.3929C33.1218 78.3314 33.1358 78.2707 33.1623 78.2151C33.1826 78.1643 33.2175 78.1206 33.2626 78.0897L33.9307 77.7067C33.9445 77.6943 33.9623 77.6875 33.9808 77.6875C33.9994 77.6875 34.0172 77.6943 34.031 77.7067C34.0461 77.7246 34.0574 77.7453 34.0645 77.7676C34.0715 77.7899 34.0741 77.8133 34.072 77.8366V81.3547ZM34.072 83.108C34.0715 83.1695 34.0575 83.2302 34.031 83.2858C34.0115 83.3371 33.9764 83.3809 33.9307 83.4112L33.2626 83.7943C33.2488 83.8066 33.231 83.8134 33.2125 83.8134C33.194 83.8134 33.1761 83.8066 33.1623 83.7943C33.1473 83.7764 33.1359 83.7557 33.1289 83.7334C33.1218 83.7111 33.1192 83.6876 33.1213 83.6643V82.8412C33.1221 82.7789 33.1361 82.7176 33.1623 82.6611C33.1833 82.6113 33.2181 82.5686 33.2626 82.538L33.9307 82.1549C33.9445 82.1426 33.9623 82.1358 33.9808 82.1358C33.9994 82.1358 34.0172 82.1426 34.031 82.1549C34.0461 82.1728 34.0574 82.1935 34.0645 82.2158C34.0715 82.2381 34.0741 82.2616 34.072 82.2849V83.108Z" fill="white"/>
<path d="M102.541 22.0901L102.481 19.8808C102.481 19.8808 106.168 19.9925 105.541 15.4075C105.236 13.1753 103.517 10.8839 96.8772 11.7595C88.8608 12.8037 89.8093 16.8416 90.6437 18.2529C91.5079 19.7281 95.0282 20.5055 100.808 20.1841L102.541 22.0901Z" fill="#E0E0E0"/>
<path d="M18.7645 42.6348L16.7831 44.4975C15.3122 44.2599 13.8187 44.1941 12.3326 44.3014C8.36081 44.5294 6.12185 46.2668 6.71237 48.6334C7.41005 51.4128 9.94997 52.2814 14.6924 52.0899C20.6204 51.8619 22.7453 48.0999 18.614 45.0812L18.7645 42.6348Z" fill="#E0E0E0"/>
<path d="M92.0985 82.5781L92.233 84.9926C92.233 84.9926 89.9667 85.2206 88.6398 86.2216C86.5262 87.8176 86.8158 91.9375 89.2485 93.5427C92.0871 95.4237 99.3558 95.2527 101.572 93.4013C103.711 91.6115 103.576 87.6488 101.93 86.1851C99.83 84.3155 94.9189 84.7852 94.9189 84.7852L92.0985 82.5781Z" fill="#E0E0E0"/>
</svg>
