<svg width="300" height="402" viewBox="0 0 300 402" fill="none" xmlns="http://www.w3.org/2000/svg">
<path d="M137.124 336.336C136.872 336.984 136.494 337.794 136.188 338.334L136.674 338.442H133.128L133.812 338.244C133.668 337.704 133.344 336.948 132.948 336.336H137.124ZM131.868 333.042H138.006V334.644H131.868V333.042ZM138.6 336.336H140.22V331.35H129.798V336.336H131.76L130.824 336.57C131.166 337.128 131.472 337.848 131.652 338.442H127.296V340.206H142.776V338.442H138.258C138.564 337.92 138.924 337.218 139.302 336.48L138.6 336.336ZM141.534 326.004C141.03 326.58 140.256 327.282 139.518 327.858C139.23 327.57 138.942 327.264 138.672 326.94C139.464 326.4 140.364 325.716 141.138 325.068L139.518 323.916C139.05 324.456 138.384 325.086 137.718 325.626C137.34 325.05 137.034 324.438 136.764 323.808L134.928 324.384C135.576 325.914 136.404 327.318 137.394 328.542H132.768C133.614 327.516 134.316 326.346 134.802 325.032L133.416 324.312L133.056 324.402H128.34V326.13H132.03C131.652 326.742 131.202 327.354 130.68 327.912C130.176 327.408 129.33 326.85 128.646 326.454L127.476 327.624C128.124 328.038 128.898 328.632 129.402 329.136C128.448 329.91 127.404 330.558 126.36 330.99C126.792 331.35 127.35 332.088 127.638 332.556C129.078 331.854 130.482 330.9 131.706 329.712V330.324H138.33V329.586C139.446 330.72 140.742 331.656 142.182 332.304C142.506 331.746 143.118 330.918 143.604 330.522C142.596 330.126 141.642 329.586 140.778 328.956C141.552 328.416 142.38 327.75 143.1 327.12L141.534 326.004ZM146.772 328.218C147.492 327.372 148.068 326.526 148.518 325.752C149.274 326.472 150.066 327.48 150.57 328.218H146.772ZM151.452 337.092L149.292 337.47V333.114H151.524V331.314H149.292V330H151.146V328.218H150.984L152.118 326.868C151.488 325.932 150.174 324.654 149.112 323.772H147.348C146.79 325.158 145.746 326.85 144.234 328.128C144.648 328.398 145.242 329.1 145.512 329.514C145.62 329.406 145.746 329.298 145.854 329.19V330H147.438V331.314H144.99V333.114H147.438V337.812C146.448 337.974 145.548 338.118 144.792 338.226L145.188 340.17C147.006 339.828 149.382 339.324 151.614 338.856L151.56 338.334L152.154 339.36C153.18 338.658 154.332 337.83 155.394 337.02L154.746 335.4C153.576 336.174 152.388 336.93 151.488 337.452L151.452 337.092ZM159.246 335.094C159.876 334.5 160.686 333.654 161.406 332.826L159.732 331.8C159.336 332.466 158.67 333.348 158.112 333.96C157.788 333.312 157.554 332.646 157.374 332.034V331.44H161.262V329.622H159.93V324.348H152.55V326.112H157.95V327.084H152.946V328.704H157.95V329.622H151.686V331.44H155.394V338.496C155.394 338.676 155.34 338.73 155.142 338.73C154.962 338.73 154.422 338.748 153.918 338.712C154.152 339.27 154.368 340.026 154.422 340.566C155.43 340.566 156.132 340.53 156.69 340.224C157.248 339.936 157.374 339.432 157.374 338.532V336.174C158.076 337.524 159.048 338.82 160.326 339.648C160.632 339.09 161.262 338.262 161.694 337.884C160.236 337.128 159.156 335.868 158.4 334.536L159.246 335.094ZM145.17 334.14C145.44 335.13 145.692 336.426 145.728 337.29L147.168 336.894C147.078 336.066 146.826 334.788 146.538 333.798L145.17 334.14ZM150.786 336.93C151.056 336.192 151.344 335.04 151.668 334.032L150.12 333.654C150.012 334.5 149.724 335.778 149.49 336.57L150.786 336.93ZM151.776 332.97C152.46 333.672 153.234 334.662 153.54 335.328L155.034 334.338C154.692 333.654 153.9 332.7 153.18 332.07L151.776 332.97ZM168.138 332.538L166.104 331.584C165.366 333.096 163.926 335.076 162.72 336.228L164.664 337.56C165.654 336.498 167.31 334.14 168.138 332.538ZM175.878 331.53L173.916 332.592C174.78 333.69 176.058 335.868 176.832 337.416L178.956 336.264C178.236 334.95 176.796 332.682 175.878 331.53ZM175.77 324.438L174.348 325.032C174.834 325.716 175.338 326.688 175.698 327.408L177.156 326.796C176.814 326.13 176.22 325.104 175.77 324.438ZM178.11 323.934L176.688 324.51C177.192 325.194 177.714 326.13 178.092 326.886L179.514 326.256C179.19 325.626 178.596 324.6 178.11 323.934ZM172.368 324.798H169.704C169.776 325.104 169.866 325.896 169.866 326.364V327.804H165.294C164.718 327.804 164.088 327.732 163.548 327.66V330.054C164.052 330 164.754 329.982 165.294 329.982H169.866V330C169.866 330.846 169.866 336.552 169.848 337.218C169.83 337.686 169.65 337.866 169.182 337.866C168.75 337.866 167.958 337.794 167.184 337.65L167.4 339.882C168.318 339.99 169.362 340.044 170.334 340.044C171.612 340.044 172.206 339.396 172.206 338.352V329.982H176.418C176.904 329.982 177.606 330 178.182 330.036V327.678C177.696 327.75 176.904 327.804 176.4 327.804H172.206V326.364C172.206 325.914 172.332 325.05 172.368 324.798ZM190.242 324.744L187.632 323.934C187.47 324.546 187.092 325.374 186.804 325.806C185.904 327.372 184.23 329.838 181.08 331.8L183.024 333.294C184.842 332.034 186.516 330.306 187.776 328.632H192.924C192.654 329.748 191.88 331.314 190.944 332.61C189.81 331.854 188.676 331.116 187.722 330.576L186.12 332.214C187.038 332.79 188.226 333.6 189.396 334.464C187.902 335.958 185.904 337.416 182.79 338.37L184.878 340.188C187.686 339.126 189.738 337.596 191.322 335.922C192.06 336.516 192.726 337.074 193.212 337.524L194.922 335.49C194.4 335.058 193.698 334.536 192.924 333.978C194.202 332.178 195.102 330.252 195.588 328.794C195.75 328.344 195.984 327.858 196.182 327.516L194.346 326.382C193.95 326.508 193.338 326.58 192.78 326.58H189.126C189.342 326.184 189.792 325.374 190.242 324.744ZM202.338 325.32L200.646 327.12C201.96 328.038 204.21 330 205.146 331.008L206.982 329.136C205.938 328.038 203.598 326.166 202.338 325.32ZM200.088 337.308L201.6 339.684C204.138 339.252 206.46 338.244 208.278 337.146C211.176 335.4 213.57 332.916 214.938 330.486L213.534 327.948C212.4 330.378 210.06 333.132 206.982 334.95C205.236 335.994 202.896 336.912 200.088 337.308ZM224.748 324.564L222.372 324.366C222.336 325.014 222.21 325.716 222.012 326.436C221.724 326.436 221.418 326.436 221.148 326.436C220.23 326.436 218.898 326.364 217.98 326.22V328.326C218.97 328.398 220.284 328.434 221.022 328.434C221.094 328.434 221.166 328.434 221.256 328.434C220.446 330.054 219.168 331.656 217.278 333.402L219.204 334.842C219.816 334.05 220.338 333.402 220.878 332.862C221.562 332.196 222.678 331.62 223.686 331.62C224.19 331.62 224.676 331.782 224.946 332.232C222.894 333.294 220.734 334.734 220.734 337.038C220.734 339.36 222.822 340.044 225.648 340.044C227.34 340.044 229.554 339.9 230.742 339.738L230.814 337.416C229.23 337.722 227.232 337.92 225.702 337.92C223.938 337.92 223.092 337.65 223.092 336.66C223.092 335.76 223.812 335.058 225.162 334.284C225.144 335.076 225.126 335.94 225.072 336.48H227.232C227.214 335.652 227.178 334.32 227.16 333.312C228.258 332.808 229.284 332.412 230.094 332.088C230.706 331.854 231.66 331.494 232.236 331.332L231.336 329.244C230.67 329.586 230.04 329.874 229.338 330.18C228.6 330.504 227.844 330.81 226.908 331.242C226.512 330.324 225.612 329.856 224.514 329.856C223.92 329.856 222.948 330 222.48 330.216C222.84 329.694 223.2 329.046 223.506 328.38C225.45 328.326 227.664 328.182 229.374 327.93L229.392 325.842C227.808 326.112 226.008 326.274 224.298 326.364C224.532 325.608 224.658 325.014 224.748 324.564ZM154.314 350.96L151.686 350.096C151.524 350.708 151.146 351.536 150.876 351.986C149.976 353.534 148.41 355.856 145.26 357.782L147.276 359.276C149.04 358.07 150.606 356.486 151.812 354.92H156.87C156.582 356.27 155.538 358.43 154.314 359.834C152.748 361.616 150.75 363.182 147.06 364.28L149.184 366.188C152.568 364.856 154.746 363.2 156.456 361.112C158.076 359.096 159.102 356.702 159.588 355.1C159.732 354.65 159.984 354.146 160.182 353.804L158.346 352.67C157.932 352.796 157.338 352.886 156.78 352.886H153.162C153.18 352.85 153.198 352.832 153.216 352.796C153.432 352.4 153.9 351.59 154.314 350.96ZM176.454 351.032H173.736C173.808 351.536 173.844 352.112 173.844 352.832V356.252C173.844 359.06 173.61 360.41 172.368 361.76C171.288 362.93 169.83 363.614 168.048 364.028L169.92 366.008C171.234 365.594 173.106 364.712 174.294 363.416C175.626 361.94 176.382 360.266 176.382 356.396V352.832C176.382 352.112 176.418 351.536 176.454 351.032ZM168.102 351.176H165.51C165.564 351.59 165.582 352.22 165.582 352.562V358.628C165.582 359.168 165.51 359.87 165.492 360.212H168.102C168.066 359.798 168.048 359.096 168.048 358.646V352.562C168.048 351.986 168.066 351.59 168.102 351.176ZM189.09 354.308L186.948 355.01C187.398 355.946 188.19 358.124 188.406 359.006L190.566 358.25C190.314 357.422 189.432 355.082 189.09 354.308ZM195.732 355.622L193.212 354.812C192.996 357.062 192.132 359.456 190.908 360.986C189.414 362.858 186.912 364.226 184.932 364.748L186.822 366.674C188.928 365.882 191.178 364.37 192.852 362.21C194.076 360.626 194.832 358.754 195.3 356.936C195.408 356.576 195.516 356.198 195.732 355.622ZM184.914 355.262L182.754 356.036C183.186 356.828 184.086 359.222 184.392 360.194L186.588 359.366C186.228 358.358 185.364 356.18 184.914 355.262ZM208.314 350.96L205.686 350.096C205.524 350.708 205.146 351.536 204.876 351.986C203.976 353.534 202.41 355.856 199.26 357.782L201.276 359.276C203.04 358.07 204.606 356.486 205.812 354.92H210.87C210.582 356.27 209.538 358.43 208.314 359.834C206.748 361.616 204.75 363.182 201.06 364.28L203.184 366.188C206.568 364.856 208.746 363.2 210.456 361.112C212.076 359.096 213.102 356.702 213.588 355.1C213.732 354.65 213.984 354.146 214.182 353.804L212.346 352.67C211.932 352.796 211.338 352.886 210.78 352.886H207.162C207.18 352.85 207.198 352.832 207.216 352.796C207.432 352.4 207.9 351.59 208.314 350.96Z" fill="#333333"/>
<path d="M103.4 378H89.2891V323.605L72.4434 328.83V317.355L101.887 306.809H103.4V378Z" fill="#3FA654"/>
<circle cx="150" cy="150" r="146.5" fill="white" stroke="#3FA654" stroke-width="7"/>
<path d="M63.1748 186.855L176.675 252.395C177.359 252.74 178.114 252.92 178.88 252.92C179.646 252.92 180.401 252.74 181.085 252.395L242.875 216.715C244.095 216.015 244.095 214.875 242.875 214.17L129.375 148.63C128.691 148.285 127.936 148.105 127.17 148.105C126.404 148.105 125.649 148.285 124.965 148.63L63.1748 184.31C61.9548 185 61.9548 186.15 63.1748 186.855Z" fill="#E0E0E0"/>
<path d="M232.255 107.13L228.5 104.97C228.518 104.818 228.528 104.664 228.53 104.51V103.425C228.473 102.375 228.169 101.352 227.642 100.441C227.116 99.5294 226.382 98.755 225.5 98.1805C225.238 98.0047 224.943 97.8835 224.633 97.8242C224.323 97.7649 224.004 97.7688 223.695 97.8355C223.42 95.0905 221.515 91.9855 219.195 90.6505C216.695 89.2055 214.67 90.3755 214.67 93.2655V94.8905C214.68 95.6785 214.808 96.4605 215.05 97.2105L211.94 95.4155C211.015 94.8805 210.26 95.3155 210.26 96.3855C210.292 96.9683 210.461 97.5354 210.753 98.041C211.045 98.5465 211.452 98.9762 211.94 99.2955L232.255 111C233.18 111.535 233.93 111.1 233.93 110.03C233.898 109.45 233.729 108.885 233.438 108.381C233.147 107.877 232.742 107.449 232.255 107.13Z" fill="#F0F0F0"/>
<path d="M182.575 61.9154L184.64 62.7104V58.1604C184.64 54.5504 187.52 53.6854 190.64 55.4904C193.765 57.2954 196.3 61.6804 196.3 65.2854V65.9504C197.01 65.6654 197.925 65.7754 198.925 66.3554C201.17 67.6504 202.995 70.8054 202.995 73.4054V73.7054L205.875 75.3654C206.655 75.8747 207.304 76.5606 207.77 77.3677C208.236 78.1747 208.505 79.0801 208.555 80.0104C208.555 81.7204 207.355 82.4104 205.875 81.5554L182.575 68.1054C181.795 67.5962 181.146 66.9102 180.68 66.1032C180.214 65.2962 179.945 64.3908 179.895 63.4604C179.895 61.7554 181.095 61.0604 182.575 61.9154Z" fill="#F0F0F0"/>
<path d="M228 204.675L224.065 202C224.065 202 222.325 191.655 223.94 182.57C226.21 169.8 235.02 165.57 238.165 166.885C241.31 168.2 241.98 172.025 236.115 179.32C232.655 183.63 228.135 192.78 228 204.675Z" fill="#3FA654"/>
<g opacity="0.15">
<path opacity="0.15" d="M228 204.675L224.065 202C224.065 202 222.325 191.655 223.94 182.57C226.21 169.8 235.02 165.57 238.165 166.885C241.31 168.2 241.98 172.025 236.115 179.32C232.655 183.63 228.135 192.78 228 204.675Z" fill="#333333"/>
</g>
<path d="M226.655 199.556H226.695C226.733 199.551 226.769 199.54 226.802 199.521C226.835 199.503 226.864 199.478 226.887 199.448C226.91 199.418 226.927 199.384 226.937 199.348C226.947 199.311 226.95 199.273 226.945 199.236C225.52 187.211 230.6 174.166 236.12 168.971C236.171 168.918 236.201 168.848 236.201 168.774C236.202 168.701 236.174 168.63 236.124 168.576C236.074 168.523 236.005 168.491 235.931 168.487C235.858 168.483 235.786 168.508 235.73 168.556C230.105 173.841 224.93 187.101 226.38 199.306C226.386 199.374 226.418 199.438 226.469 199.484C226.52 199.53 226.586 199.556 226.655 199.556Z" fill="white"/>
<path d="M238.35 211.65C238.98 212.025 240.81 210.65 241.315 210.34C242.185 209.772 242.894 208.991 243.375 208.07C243.912 207.025 244.111 205.839 243.945 204.675C243.852 204.061 243.718 203.453 243.545 202.855C243.39 202.27 243.235 201.68 243.075 201.09C242.881 200.52 242.806 199.916 242.855 199.315C243.03 198.115 244.11 197.315 245.095 196.585C246.185 195.805 247.32 194.765 247.34 193.32C247.285 192.196 246.858 191.121 246.125 190.265C245.05 188.85 243.955 187.735 244.26 185.805C244.527 184.643 244.924 183.514 245.445 182.44C245.655 181.976 245.798 181.485 245.87 180.98C245.916 180.528 245.863 180.071 245.715 179.641C245.566 179.211 245.326 178.818 245.01 178.491C244.695 178.163 244.312 177.908 243.888 177.743C243.464 177.578 243.009 177.507 242.555 177.535C241.732 177.621 240.937 177.884 240.225 178.305C237.985 179.495 236.625 182.595 234.025 182.92C233.18 183.025 232.32 182.985 231.475 183.095C230.62 183.156 229.811 183.509 229.185 184.095C227.21 186.215 229.505 188.99 228.685 191.325C228.095 192.99 226.45 193.6 225.505 195.095C225.121 195.757 224.957 196.524 225.035 197.285C225.091 198.57 225.381 199.834 225.89 201.015C226.472 202.232 227.126 203.413 227.85 204.55L238.35 211.65Z" fill="#3FA654"/>
<path opacity="0.2" d="M238.35 211.65C238.98 212.025 240.81 210.65 241.315 210.34C242.185 209.772 242.894 208.991 243.375 208.07C243.912 207.025 244.111 205.839 243.945 204.675C243.852 204.061 243.718 203.453 243.545 202.855C243.39 202.27 243.235 201.68 243.075 201.09C242.881 200.52 242.806 199.916 242.855 199.315C243.03 198.115 244.11 197.315 245.095 196.585C246.185 195.805 247.32 194.765 247.34 193.32C247.285 192.196 246.858 191.121 246.125 190.265C245.05 188.85 243.955 187.735 244.26 185.805C244.527 184.643 244.924 183.514 245.445 182.44C245.655 181.976 245.798 181.485 245.87 180.98C245.916 180.528 245.863 180.071 245.715 179.641C245.566 179.211 245.326 178.818 245.01 178.491C244.695 178.163 244.312 177.908 243.888 177.743C243.464 177.578 243.009 177.507 242.555 177.535C241.732 177.621 240.937 177.884 240.225 178.305C237.985 179.495 236.625 182.595 234.025 182.92C233.18 183.025 232.32 182.985 231.475 183.095C230.62 183.156 229.811 183.509 229.185 184.095C227.21 186.215 229.505 188.99 228.685 191.325C228.095 192.99 226.45 193.6 225.505 195.095C225.121 195.757 224.957 196.524 225.035 197.285C225.091 198.57 225.381 199.834 225.89 201.015C226.472 202.232 227.126 203.413 227.85 204.55L238.35 211.65Z" fill="white"/>
<path d="M232.285 207.925C232.323 207.925 232.36 207.917 232.395 207.903C232.429 207.888 232.461 207.866 232.487 207.839C232.513 207.812 232.533 207.78 232.547 207.745C232.56 207.71 232.567 207.672 232.565 207.635C232.315 196.275 237.905 183.845 241.865 180.275C241.922 180.224 241.956 180.154 241.96 180.078C241.964 180.003 241.938 179.929 241.888 179.872C241.837 179.816 241.767 179.782 241.691 179.778C241.616 179.774 241.542 179.8 241.485 179.85C237.445 183.49 231.74 196.125 231.985 207.645C231.986 207.683 231.994 207.721 232.01 207.756C232.025 207.791 232.048 207.823 232.076 207.849C232.104 207.875 232.137 207.895 232.173 207.908C232.209 207.921 232.247 207.927 232.285 207.925Z" fill="white"/>
<path d="M234.38 194.086H234.465C237.169 193.395 239.941 193.003 242.73 192.916C242.806 192.914 242.877 192.882 242.929 192.828C242.981 192.774 243.01 192.701 243.01 192.626C243.01 192.588 243.003 192.55 242.988 192.515C242.973 192.48 242.951 192.449 242.923 192.423C242.896 192.396 242.863 192.376 242.827 192.363C242.791 192.35 242.753 192.344 242.715 192.346C239.877 192.434 237.057 192.833 234.305 193.536C234.239 193.554 234.181 193.596 234.143 193.653C234.105 193.711 234.089 193.78 234.098 193.849C234.107 193.917 234.141 193.98 234.193 194.026C234.245 194.071 234.311 194.096 234.38 194.096V194.086Z" fill="white"/>
<path d="M71.6999 179.771L76.2699 177.711C76.2699 177.711 78.2699 168.571 78.2699 161.341C78.2999 151.176 73.0199 138.411 64.9799 140.471C56.9399 142.531 67.2149 153.921 68.8649 162.711C70.5149 171.501 71.6999 179.771 71.6999 179.771Z" fill="#3FA654"/>
<path opacity="0.15" d="M71.6999 179.771L76.2699 177.711C76.2699 177.711 78.2699 168.571 78.2699 161.341C78.2999 151.176 73.0199 138.411 64.9799 140.471C56.9399 142.531 67.2149 153.921 68.8649 162.711C70.5149 171.501 71.6999 179.771 71.6999 179.771Z" fill="#333333"/>
<path d="M74.0802 178.951C74.0457 178.946 74.0125 178.934 73.9825 178.917C73.9525 178.899 73.9264 178.875 73.9055 178.847C73.8846 178.82 73.8694 178.788 73.8607 178.754C73.8521 178.72 73.8502 178.685 73.8551 178.651C76.8551 156.366 66.8551 143.996 66.7751 143.871C66.7476 143.845 66.7258 143.814 66.7113 143.779C66.6968 143.744 66.6899 143.707 66.691 143.669C66.6922 143.632 66.7013 143.595 66.7178 143.561C66.7344 143.527 66.758 143.497 66.787 143.473C66.816 143.449 66.8499 143.431 66.8862 143.421C66.9226 143.412 66.9606 143.409 66.9978 143.415C67.035 143.421 67.0705 143.435 67.102 143.456C67.1334 143.477 67.1601 143.504 67.1801 143.536C67.2851 143.661 77.4251 156.211 74.3751 178.726C74.3709 178.76 74.3598 178.793 74.3425 178.823C74.3253 178.853 74.3023 178.879 74.2748 178.9C74.2474 178.921 74.216 178.936 74.1826 178.945C74.1492 178.954 74.1143 178.956 74.0802 178.951Z" fill="white"/>
<path d="M68.83 181.05L72.08 179.585C72.08 179.585 73.245 173.295 70.915 165.27C68.885 158.27 62.725 152.035 59.225 152.865C55.725 153.695 55.57 156.1 56.965 158.78C58.36 161.46 67.78 168.465 68.83 181.05Z" fill="#3FA654"/>
<path opacity="0.2" d="M68.83 181.05L72.08 179.585C72.08 179.585 73.245 173.295 70.915 165.27C68.885 158.27 62.725 152.035 59.225 152.865C55.725 153.695 55.57 156.1 56.965 158.78C58.36 161.46 67.78 168.465 68.83 181.05Z" fill="white"/>
<path d="M70.5002 180.54C70.4307 180.533 70.367 180.498 70.323 180.444C70.279 180.389 70.2582 180.32 70.2652 180.25C71.7652 166.115 59.4452 155.22 59.3202 155.11C59.2678 155.064 59.2358 155 59.2311 154.93C59.2264 154.861 59.2494 154.793 59.2952 154.74C59.3409 154.688 59.4056 154.656 59.475 154.651C59.5444 154.646 59.6128 154.669 59.6652 154.715C59.7902 154.825 72.3052 165.905 70.7852 180.305C70.7821 180.339 70.7722 180.373 70.7561 180.403C70.7401 180.433 70.7182 180.46 70.6917 180.482C70.6652 180.504 70.6346 180.52 70.6017 180.53C70.5689 180.54 70.5344 180.544 70.5002 180.54Z" fill="white"/>
<path d="M236.105 216.11L183.335 246.575C182.501 247.054 181.559 247.315 180.598 247.333C179.636 247.35 178.685 247.124 177.835 246.675L71.5798 185.33C69.9098 184.365 68.5498 182.205 68.5498 180.505C68.5498 178.805 69.9048 176.645 71.5798 175.675L124.16 145.32C125.1 144.846 126.137 144.6 127.19 144.6C128.242 144.6 129.28 144.846 130.22 145.32L236.105 206.455C237.78 207.42 239.135 209.585 239.135 211.285C239.135 212.985 237.78 215.145 236.105 216.11Z" fill="#3FA654"/>
<path opacity="0.5" d="M124.16 145.321L71.5798 175.676C69.9048 176.646 68.5498 178.806 68.5498 180.506C68.5498 182.206 69.9098 184.366 71.5798 185.331L177.825 246.676C178.641 247.094 179.543 247.318 180.46 247.331V174.331L130.22 145.331C129.281 144.856 128.243 144.607 127.191 144.605C126.139 144.604 125.1 144.849 124.16 145.321Z" fill="#333333"/>
<path opacity="0.4" d="M183.335 246.575L236.105 216.11C237.78 215.145 239.135 212.985 239.135 211.285C239.135 209.585 237.78 207.42 236.105 206.455L180.46 174.33V247.33C181.469 247.342 182.462 247.081 183.335 246.575Z" fill="#333333"/>
<path d="M182.08 241.145C181.251 241.564 180.336 241.782 179.407 241.782C178.479 241.782 177.563 241.564 176.735 241.145L71.5698 180.43C69.3048 179.125 69.3048 176.985 71.5698 175.68L124.155 145.32C125.095 144.846 126.132 144.6 127.185 144.6C128.237 144.6 129.275 144.846 130.215 145.32L236.1 206.455C237.77 207.42 237.77 208.99 236.1 209.955L182.08 241.145Z" fill="#3FA654"/>
<path opacity="0.3" d="M182.08 241.145C181.251 241.564 180.336 241.782 179.407 241.782C178.479 241.782 177.563 241.564 176.735 241.145L71.5698 180.43C69.3048 179.125 69.3048 176.985 71.5698 175.68L124.155 145.32C125.095 144.846 126.132 144.6 127.185 144.6C128.237 144.6 129.275 144.846 130.215 145.32L236.1 206.455C237.77 207.42 237.77 208.99 236.1 209.955L182.08 241.145Z" fill="#333333"/>
<path d="M176.97 235.03C176.077 235.484 175.091 235.72 174.09 235.72C173.089 235.72 172.102 235.484 171.21 235.03L80.7096 182.785C79.1196 181.865 79.1196 180.38 80.7096 179.46L130.18 150.905C131.073 150.454 132.059 150.219 133.06 150.219C134.06 150.219 135.047 150.454 135.94 150.905L226.44 203.15C228.025 204.065 228.025 205.56 226.44 206.475L176.97 235.03Z" fill="#37474F"/>
<path d="M132.89 150.225C131.948 150.227 131.021 150.461 130.19 150.905L80.7198 179.46C79.1298 180.38 79.1298 181.865 80.7198 182.785L90.5248 188.445L132.89 161.39V150.225Z" fill="#263238"/>
<path d="M136 153.065C135.107 152.614 134.121 152.379 133.12 152.379C132.119 152.379 131.133 152.614 130.24 153.065L80.775 181.62C80.4931 181.781 80.2382 181.985 80.02 182.225C80.2306 182.447 80.4733 182.636 80.74 182.785L171.24 235.03C172.132 235.484 173.119 235.72 174.12 235.72C175.121 235.72 176.108 235.484 177 235.03L226.44 206.5C226.72 206.345 226.971 206.144 227.185 205.905C226.98 205.679 226.74 205.487 226.475 205.335L136 153.065Z" fill="#455A64"/>
<path d="M98.7996 166.105L107.57 161.04C108.07 160.74 108.12 160.265 107.625 159.98C107.337 159.842 107.022 159.774 106.703 159.78C106.384 159.786 106.072 159.866 105.79 160.015L97.0246 165.075C96.4996 165.38 96.4746 165.855 96.9646 166.135C97.2513 166.274 97.5669 166.344 97.8857 166.339C98.2045 166.334 98.5176 166.253 98.7996 166.105Z" fill="#37474F"/>
<path d="M113.855 157.424C113.963 157.388 114.056 157.32 114.123 157.228C114.189 157.136 114.225 157.025 114.225 156.912C114.225 156.798 114.189 156.688 114.123 156.596C114.056 156.504 113.963 156.435 113.855 156.399C113.58 156.259 113.276 156.186 112.967 156.186C112.659 156.186 112.355 156.259 112.08 156.399C111.972 156.435 111.878 156.504 111.812 156.596C111.746 156.688 111.71 156.798 111.71 156.912C111.71 157.025 111.746 157.136 111.812 157.228C111.878 157.32 111.972 157.388 112.08 157.424C112.356 157.561 112.659 157.632 112.967 157.632C113.275 157.632 113.579 157.561 113.855 157.424Z" fill="#37474F"/>
<path d="M117.41 155.37C117.517 155.334 117.611 155.265 117.678 155.173C117.744 155.081 117.78 154.97 117.78 154.857C117.78 154.744 117.744 154.633 117.678 154.541C117.611 154.449 117.517 154.38 117.41 154.345C117.135 154.204 116.831 154.131 116.522 154.131C116.214 154.131 115.91 154.204 115.635 154.345C115.135 154.625 115.135 155.085 115.635 155.37C115.91 155.51 116.214 155.583 116.522 155.583C116.831 155.583 117.135 155.51 117.41 155.37Z" fill="#37474F"/>
<path d="M89 171.786C89.1076 171.75 89.2013 171.681 89.2677 171.589C89.3341 171.497 89.3698 171.387 89.3698 171.273C89.3698 171.16 89.3341 171.049 89.2677 170.957C89.2013 170.865 89.1076 170.796 89 170.761C88.7243 170.62 88.4193 170.547 88.11 170.547C87.8006 170.547 87.4956 170.62 87.22 170.761C87.1123 170.796 87.0186 170.865 86.9522 170.957C86.8858 171.049 86.8501 171.16 86.8501 171.273C86.8501 171.387 86.8858 171.497 86.9522 171.589C87.0186 171.681 87.1123 171.75 87.22 171.786C87.4956 171.926 87.8006 171.999 88.11 171.999C88.4193 171.999 88.7243 171.926 89 171.786Z" fill="#37474F"/>
<path d="M92.53 169.729C92.6293 169.689 92.7144 169.62 92.7742 169.531C92.8341 169.441 92.866 169.337 92.866 169.229C92.866 169.122 92.8341 169.017 92.7742 168.928C92.7144 168.839 92.6293 168.77 92.53 168.729C92.2552 168.589 91.9511 168.516 91.6425 168.516C91.3339 168.516 91.0297 168.589 90.755 168.729C90.6556 168.77 90.5706 168.839 90.5108 168.928C90.4509 169.017 90.4189 169.122 90.4189 169.229C90.4189 169.337 90.4509 169.441 90.5108 169.531C90.5706 169.62 90.6556 169.689 90.755 169.729C91.0297 169.87 91.3339 169.943 91.6425 169.943C91.9511 169.943 92.2552 169.87 92.53 169.729Z" fill="#37474F"/>
<path d="M104.91 201.094C105.179 201.265 105.405 201.496 105.569 201.77C105.733 202.043 105.831 202.351 105.855 202.669C105.867 202.776 105.849 202.884 105.803 202.981C105.757 203.078 105.685 203.16 105.595 203.219C105.48 203.284 105.05 203.544 104.93 203.609C104.819 203.655 104.698 203.672 104.579 203.658C104.46 203.644 104.347 203.6 104.25 203.529L91.9298 196.414C91.6577 196.247 91.4294 196.017 91.2642 195.744C91.0989 195.471 91.0014 195.162 90.9799 194.844C90.9699 194.741 90.9867 194.637 91.0288 194.542C91.0708 194.448 91.1366 194.365 91.2199 194.304C91.3349 194.229 91.7848 193.969 91.9048 193.904C92.0163 193.857 92.1379 193.84 92.2578 193.854C92.3777 193.868 92.4921 193.913 92.5898 193.984L104.91 201.094Z" fill="#3FA654"/>
<path opacity="0.4" d="M104.91 201.094C105.179 201.265 105.405 201.496 105.569 201.77C105.733 202.043 105.831 202.351 105.855 202.669C105.867 202.776 105.849 202.884 105.803 202.981C105.757 203.078 105.685 203.16 105.595 203.219C105.48 203.284 105.05 203.544 104.93 203.609C104.819 203.655 104.698 203.672 104.579 203.658C104.46 203.644 104.347 203.6 104.25 203.529L91.9298 196.414C91.6577 196.247 91.4294 196.017 91.2642 195.744C91.0989 195.471 91.0014 195.162 90.9799 194.844C90.9699 194.741 90.9867 194.637 91.0288 194.542C91.0708 194.448 91.1366 194.365 91.2199 194.304C91.3349 194.229 91.7848 193.969 91.9048 193.904C92.0163 193.857 92.1379 193.84 92.2578 193.854C92.3777 193.868 92.4921 193.913 92.5898 193.984L104.91 201.094Z" fill="#333333"/>
<path d="M104.25 201.5L91.93 194.385C91.405 194.085 90.98 194.3 90.98 194.885C91.0015 195.203 91.099 195.512 91.2643 195.785C91.4296 196.058 91.6578 196.288 91.93 196.455L104.25 203.57C104.75 203.875 105.195 203.66 105.195 203.07C105.172 202.752 105.074 202.445 104.91 202.172C104.746 201.899 104.52 201.669 104.25 201.5Z" fill="#3FA654"/>
<path opacity="0.3" d="M104.25 201.5L91.93 194.385C91.405 194.085 90.98 194.3 90.98 194.885C91.0015 195.203 91.099 195.512 91.2643 195.785C91.4296 196.058 91.6578 196.288 91.93 196.455L104.25 203.57C104.75 203.875 105.195 203.66 105.195 203.07C105.172 202.752 105.074 202.445 104.91 202.172C104.746 201.899 104.52 201.669 104.25 201.5Z" fill="#333333"/>
<path d="M88.4147 191.575C88.6875 191.742 88.9162 191.972 89.0815 192.246C89.2468 192.521 89.3439 192.83 89.3647 193.15C89.3754 193.256 89.3569 193.364 89.3111 193.461C89.2653 193.558 89.1939 193.64 89.1047 193.7L88.4397 194.085C88.3288 194.132 88.2074 194.15 88.0873 194.137C87.9673 194.124 87.8527 194.08 87.7547 194.01L81.9497 190.655C81.6769 190.487 81.4482 190.257 81.2829 189.983C81.1176 189.709 81.0205 189.399 80.9997 189.08C80.9891 188.977 81.0057 188.874 81.0478 188.78C81.09 188.686 81.1562 188.605 81.2397 188.545C81.3547 188.47 81.8047 188.21 81.9247 188.145C82.0356 188.097 82.157 188.079 82.2771 188.092C82.3971 188.105 82.5117 188.149 82.6097 188.22L88.4147 191.575Z" fill="#3FA654"/>
<path opacity="0.4" d="M88.4147 191.575C88.6875 191.742 88.9162 191.972 89.0815 192.246C89.2468 192.521 89.3439 192.83 89.3647 193.15C89.3754 193.256 89.3569 193.364 89.3111 193.461C89.2653 193.558 89.1939 193.64 89.1047 193.7L88.4397 194.085C88.3288 194.132 88.2074 194.15 88.0873 194.137C87.9673 194.124 87.8527 194.08 87.7547 194.01L81.9497 190.655C81.6769 190.487 81.4482 190.257 81.2829 189.983C81.1176 189.709 81.0205 189.399 80.9997 189.08C80.9891 188.977 81.0057 188.874 81.0478 188.78C81.09 188.686 81.1562 188.605 81.2397 188.545C81.3547 188.47 81.8047 188.21 81.9247 188.145C82.0356 188.097 82.157 188.079 82.2771 188.092C82.3971 188.105 82.5117 188.149 82.6097 188.22L88.4147 191.575Z" fill="#333333"/>
<path d="M87.755 191.955L81.95 188.605C81.425 188.3 81 188.515 81 189.105C81.0208 189.424 81.1179 189.734 81.2832 190.008C81.4485 190.282 81.6772 190.513 81.95 190.68L87.755 194C88.255 194.3 88.705 194.085 88.705 193.5C88.6765 193.187 88.5759 192.884 88.4111 192.616C88.2463 192.348 88.0218 192.122 87.755 191.955Z" fill="#3FA654"/>
<path opacity="0.3" d="M87.755 191.955L81.95 188.605C81.425 188.3 81 188.515 81 189.105C81.0208 189.424 81.1179 189.734 81.2832 190.008C81.4485 190.282 81.6772 190.513 81.95 190.68L87.755 194C88.255 194.3 88.705 194.085 88.705 193.5C88.6765 193.187 88.5759 192.884 88.4111 192.616C88.2463 192.348 88.0218 192.122 87.755 191.955Z" fill="#333333"/>
<path d="M128.565 198.745C137.565 203.925 152.09 203.925 161.065 198.745C165.565 196.15 167.805 192.745 167.795 189.35V187C167.795 187 165.48 182.5 161.065 179.965C152.095 174.785 137.565 174.785 128.565 179.965C124.13 182.525 121.835 187 121.835 187V189.345C121.835 192.76 124.08 196.155 128.565 198.745Z" fill="#E0E0E0"/>
<path d="M144.815 200.286C157.506 200.286 167.795 194.347 167.795 187.021C167.795 179.695 157.506 173.756 144.815 173.756C132.123 173.756 121.835 179.695 121.835 187.021C121.835 194.347 132.123 200.286 144.815 200.286Z" fill="#F0F0F0"/>
<path d="M131.41 194.554C138.81 198.824 150.815 198.824 158.22 194.554C161.925 192.414 163.775 189.609 163.77 186.804V178.804C162.445 176.428 160.534 174.43 158.22 172.999C150.815 168.729 138.81 168.729 131.41 172.999C129.091 174.426 127.179 176.425 125.855 178.804V186.804C125.855 189.614 127.705 192.414 131.41 194.554Z" fill="#3FA654"/>
<path opacity="0.15" d="M131.41 194.554C138.81 198.824 150.815 198.824 158.22 194.554C161.925 192.414 163.775 189.609 163.77 186.804V178.804C162.445 176.428 160.534 174.43 158.22 172.999C150.815 168.729 138.81 168.729 131.41 172.999C129.091 174.426 127.179 176.425 125.855 178.804V186.804C125.855 189.614 127.705 192.414 131.41 194.554Z" fill="#333333"/>
<path opacity="0.04" d="M134.415 195.965C137.706 197.163 141.183 197.769 144.685 197.755V169.805C141.183 169.791 137.706 170.397 134.415 171.595V195.965Z" fill="#333333"/>
<path opacity="0.07" d="M158.22 173.001C154.485 170.846 149.58 169.781 144.685 169.801V197.751C149.58 197.751 154.485 196.706 158.22 194.551C161.955 192.396 163.775 189.606 163.77 186.801V178.801C162.444 176.427 160.534 174.43 158.22 173.001Z" fill="#333333"/>
<path d="M144.815 189.755C155.283 189.755 163.77 184.855 163.77 178.81C163.77 172.765 155.283 167.865 144.815 167.865C134.346 167.865 125.86 172.765 125.86 178.81C125.86 184.855 134.346 189.755 144.815 189.755Z" fill="#3FA654"/>
<g opacity="0.2">
<path opacity="0.2" d="M161.775 215.119C161.557 215.125 161.341 215.071 161.15 214.964L155.845 211.899C155.725 211.84 155.624 211.749 155.553 211.636C155.482 211.523 155.442 211.393 155.44 211.259C155.439 211.122 155.476 210.987 155.548 210.869C155.619 210.752 155.722 210.657 155.845 210.594L158.495 209.064C159.041 208.782 159.647 208.635 160.262 208.635C160.877 208.635 161.484 208.782 162.03 209.064L162.785 209.504C163.046 209.61 163.269 209.79 163.426 210.023C163.583 210.256 163.667 210.531 163.667 210.812C163.667 211.093 163.583 211.368 163.426 211.601C163.269 211.834 163.046 212.014 162.785 212.119L161.285 212.999L162.425 213.659C162.549 213.721 162.652 213.816 162.725 213.933C162.797 214.051 162.835 214.186 162.835 214.324C162.829 214.458 162.788 214.587 162.716 214.699C162.644 214.812 162.543 214.903 162.425 214.964C162.234 215.07 162.018 215.124 161.8 215.119H161.775ZM159.5 211.999L161.53 210.824L160.765 210.384C160.609 210.311 160.438 210.273 160.265 210.273C160.092 210.273 159.921 210.311 159.765 210.384L158.24 211.264L159.5 211.999Z" fill="#3FA654"/>
<path opacity="0.2" d="M167.84 211.62C167.62 211.625 167.403 211.571 167.21 211.465L161.905 208.4C161.786 208.339 161.686 208.248 161.615 208.135C161.544 208.023 161.504 207.893 161.5 207.76C161.501 207.623 161.539 207.488 161.61 207.371C161.682 207.254 161.783 207.159 161.905 207.095L164.56 205.565C165.105 205.282 165.711 205.135 166.325 205.135C166.939 205.135 167.545 205.282 168.09 205.565L168.85 206.005C169.116 206.15 169.343 206.357 169.51 206.61C169.569 206.699 169.618 206.795 169.655 206.895C169.843 206.909 170.03 206.936 170.215 206.975C170.532 207.041 170.838 207.156 171.12 207.315L172.26 207.97C172.381 208.032 172.484 208.125 172.556 208.241C172.628 208.356 172.668 208.489 172.67 208.625C172.668 208.761 172.628 208.893 172.556 209.007C172.484 209.122 172.381 209.215 172.26 209.275C172.069 209.381 171.854 209.436 171.635 209.435C171.413 209.44 171.193 209.385 171 209.275L169.865 208.62C169.711 208.541 169.539 208.501 169.365 208.505C169.191 208.499 169.019 208.539 168.865 208.62L167.325 209.5L168.47 210.16C168.593 210.221 168.696 210.315 168.767 210.432C168.839 210.549 168.876 210.683 168.875 210.82C168.871 210.955 168.831 211.086 168.759 211.199C168.687 211.313 168.585 211.405 168.465 211.465C168.274 211.572 168.058 211.625 167.84 211.62ZM165.565 208.5L167.6 207.325L166.835 206.885C166.678 206.813 166.508 206.775 166.335 206.775C166.162 206.775 165.992 206.813 165.835 206.885L164.335 207.765L165.565 208.5Z" fill="#3FA654"/>
<path opacity="0.2" d="M173.9 208.119C173.682 208.124 173.466 208.07 173.275 207.964L167.97 204.899C167.85 204.84 167.749 204.749 167.678 204.636C167.607 204.523 167.567 204.393 167.565 204.259C167.564 204.122 167.601 203.987 167.673 203.869C167.744 203.752 167.847 203.657 167.97 203.594L171.76 201.409C171.95 201.302 172.166 201.249 172.385 201.254C172.607 201.249 172.826 201.303 173.02 201.409C173.143 201.468 173.247 201.56 173.319 201.675C173.392 201.79 173.43 201.923 173.43 202.059C173.43 202.195 173.392 202.329 173.319 202.444C173.247 202.559 173.143 202.651 173.02 202.709L170.36 204.249L171.255 204.749L173.655 203.364C173.848 203.259 174.065 203.204 174.285 203.204C174.505 203.204 174.722 203.259 174.915 203.364C175.036 203.424 175.138 203.517 175.21 203.632C175.281 203.747 175.319 203.879 175.319 204.014C175.319 204.15 175.281 204.282 175.21 204.397C175.138 204.512 175.036 204.604 174.915 204.664L173.015 205.764L173.91 206.264L177.07 204.439C177.261 204.334 177.477 204.28 177.695 204.284C177.916 204.28 178.133 204.335 178.325 204.444C178.448 204.503 178.551 204.595 178.624 204.71C178.697 204.825 178.735 204.958 178.735 205.094C178.735 205.23 178.697 205.364 178.624 205.479C178.551 205.594 178.448 205.686 178.325 205.744L174.535 207.934C174.344 208.041 174.128 208.095 173.91 208.089L173.9 208.119Z" fill="#3FA654"/>
<path opacity="0.2" d="M179.965 204.235C179.349 204.249 178.74 204.101 178.2 203.805C178.082 203.744 177.982 203.654 177.91 203.542C177.838 203.431 177.797 203.302 177.79 203.17C177.793 202.981 177.871 202.802 178.005 202.67C177.78 202.706 177.553 202.724 177.325 202.725C176.707 202.737 176.097 202.587 175.555 202.29L175.175 202.075C174.915 201.968 174.692 201.787 174.535 201.554C174.379 201.32 174.295 201.046 174.295 200.765C174.295 200.484 174.379 200.209 174.535 199.975C174.692 199.742 174.915 199.561 175.175 199.455L176.675 198.585C177.22 198.302 177.826 198.154 178.44 198.154C179.054 198.154 179.66 198.302 180.205 198.585C180.326 198.645 180.429 198.738 180.501 198.852C180.573 198.967 180.613 199.099 180.615 199.235C180.614 199.328 180.595 199.42 180.558 199.506C180.521 199.592 180.467 199.67 180.4 199.735C180.628 199.7 180.859 199.683 181.09 199.685C181.706 199.667 182.315 199.814 182.855 200.11L183.235 200.33C183.496 200.435 183.719 200.615 183.876 200.848C184.033 201.081 184.117 201.356 184.117 201.637C184.117 201.918 184.033 202.193 183.876 202.426C183.719 202.659 183.496 202.839 183.235 202.945L181.735 203.82C181.192 204.111 180.581 204.255 179.965 204.235ZM178.94 202.35C179.116 202.364 179.287 202.417 179.44 202.505C179.594 202.584 179.767 202.622 179.94 202.615C180.113 202.62 180.285 202.582 180.44 202.505L181.94 201.625L181.555 201.4C181.401 201.319 181.229 201.28 181.055 201.285C180.881 201.279 180.709 201.318 180.555 201.4L179.055 202.275L178.94 202.35ZM176.81 200.97C176.964 201.05 177.136 201.089 177.31 201.085C177.484 201.09 177.656 201.051 177.81 200.97L179.31 200.095L179.5 200C179.324 199.986 179.154 199.935 179 199.85C178.843 199.777 178.673 199.739 178.5 199.739C178.327 199.739 178.157 199.777 178 199.85L176.5 200.725L176.81 200.97Z" fill="#3FA654"/>
<path opacity="0.2" d="M186.025 200.735C185.409 200.749 184.8 200.601 184.26 200.305C184.142 200.244 184.042 200.154 183.971 200.042C183.9 199.93 183.86 199.802 183.855 199.67C183.855 199.576 183.874 199.483 183.911 199.397C183.947 199.311 184.002 199.234 184.07 199.17C183.843 199.206 183.614 199.224 183.385 199.225C182.767 199.237 182.157 199.087 181.615 198.79L181.235 198.575C180.976 198.467 180.756 198.285 180.601 198.051C180.446 197.818 180.363 197.545 180.363 197.265C180.363 196.985 180.446 196.711 180.601 196.478C180.756 196.245 180.976 196.063 181.235 195.955L182.735 195.085C183.28 194.802 183.885 194.654 184.5 194.654C185.114 194.654 185.719 194.802 186.265 195.085C186.386 195.145 186.488 195.238 186.561 195.352C186.633 195.467 186.673 195.599 186.675 195.735C186.675 195.828 186.656 195.921 186.619 196.007C186.582 196.093 186.528 196.17 186.46 196.235C186.69 196.2 186.922 196.183 187.155 196.185C187.77 196.169 188.379 196.315 188.92 196.61L189.3 196.83C189.558 196.937 189.78 197.118 189.935 197.351C190.091 197.583 190.174 197.857 190.174 198.137C190.174 198.417 190.091 198.691 189.935 198.923C189.78 199.156 189.558 199.338 189.3 199.445L187.8 200.32C187.256 200.614 186.643 200.757 186.025 200.735ZM185 198.85C185.176 198.863 185.347 198.916 185.5 199.005C185.657 199.075 185.827 199.111 186 199.111C186.172 199.111 186.342 199.075 186.5 199.005L188.025 198.125L187.635 197.9C187.481 197.818 187.309 197.779 187.135 197.785C186.961 197.78 186.789 197.819 186.635 197.9L185.135 198.775L185 198.85ZM182.875 197.47C183.029 197.551 183.201 197.59 183.375 197.585C183.548 197.589 183.72 197.549 183.875 197.47L185.375 196.595L185.51 196.52C185.334 196.506 185.164 196.455 185.01 196.37C184.856 196.289 184.684 196.25 184.51 196.255C184.336 196.249 184.164 196.288 184.01 196.37L182.51 197.245L182.875 197.47Z" fill="#3FA654"/>
<path opacity="0.2" d="M173.9 218.619C173.682 218.625 173.466 218.571 173.275 218.464L167.97 215.399C167.85 215.34 167.749 215.249 167.678 215.136C167.607 215.023 167.567 214.893 167.565 214.759C167.564 214.622 167.601 214.487 167.673 214.369C167.744 214.252 167.847 214.157 167.97 214.094L170.62 212.564C171.166 212.282 171.772 212.135 172.387 212.135C173.002 212.135 173.609 212.282 174.155 212.564L174.91 213.004C175.171 213.11 175.394 213.29 175.551 213.523C175.708 213.756 175.792 214.031 175.792 214.312C175.792 214.593 175.708 214.868 175.551 215.101C175.394 215.334 175.171 215.514 174.91 215.619L173.385 216.499L174.53 217.159C174.654 217.217 174.759 217.31 174.833 217.425C174.906 217.541 174.946 217.675 174.946 217.812C174.946 217.949 174.906 218.083 174.833 218.199C174.759 218.314 174.654 218.406 174.53 218.464C174.341 218.571 174.127 218.625 173.91 218.619H173.9ZM171.63 215.499L173.66 214.324L172.895 213.884C172.739 213.811 172.568 213.773 172.395 213.773C172.222 213.773 172.051 213.811 171.895 213.884L170.37 214.764L171.63 215.499Z" fill="#3FA654"/>
<path opacity="0.2" d="M179.96 215.12C179.742 215.125 179.526 215.071 179.335 214.965L174.03 211.9C173.91 211.837 173.809 211.743 173.738 211.628C173.666 211.513 173.628 211.38 173.625 211.245C173.627 211.109 173.667 210.977 173.739 210.862C173.811 210.748 173.914 210.655 174.035 210.595C174.224 210.489 174.438 210.435 174.655 210.44C174.877 210.435 175.096 210.488 175.29 210.595L179.965 213.295L183.125 211.47C183.316 211.363 183.532 211.31 183.75 211.315C183.972 211.31 184.192 211.365 184.385 211.475C184.506 211.535 184.608 211.628 184.68 211.742C184.751 211.857 184.789 211.99 184.79 212.125C184.788 212.26 184.748 212.393 184.676 212.507C184.604 212.622 184.501 212.714 184.38 212.775L180.595 214.965C180.403 215.069 180.188 215.123 179.97 215.12H179.96Z" fill="#3FA654"/>
<path opacity="0.2" d="M186.025 211.62C185.807 211.625 185.591 211.572 185.4 211.465L181.23 209.055C180.971 208.948 180.75 208.767 180.595 208.534C180.439 208.301 180.356 208.028 180.356 207.748C180.356 207.468 180.439 207.194 180.595 206.961C180.75 206.728 180.971 206.547 181.23 206.44L182.73 205.565C183.275 205.282 183.881 205.135 184.495 205.135C185.109 205.135 185.715 205.282 186.26 205.565L190.43 207.97C190.553 208.032 190.655 208.128 190.727 208.245C190.799 208.362 190.836 208.498 190.835 208.635C190.832 208.769 190.792 208.9 190.72 209.013C190.648 209.126 190.546 209.216 190.425 209.275C190.236 209.383 190.022 209.438 189.805 209.435C189.583 209.439 189.364 209.383 189.17 209.275L187.525 208.325L185.5 209.5L186.645 210.16C186.768 210.219 186.872 210.311 186.944 210.426C187.017 210.541 187.055 210.674 187.055 210.81C187.055 210.946 187.017 211.079 186.944 211.194C186.872 211.309 186.768 211.402 186.645 211.46C186.457 211.568 186.242 211.624 186.025 211.62ZM183.755 208.5L185.785 207.325L185.02 206.885C184.866 206.805 184.694 206.765 184.52 206.77C184.346 206.764 184.174 206.804 184.02 206.885L182.5 207.75L183.755 208.5Z" fill="#3FA654"/>
<path opacity="0.2" d="M192.84 207.684C192.623 207.686 192.409 207.631 192.22 207.524C192.097 207.465 191.994 207.372 191.922 207.257C191.849 207.141 191.811 207.008 191.811 206.872C191.811 206.736 191.849 206.602 191.922 206.487C191.994 206.371 192.097 206.279 192.22 206.219L194.12 205.124L193.535 204.784C193.405 204.917 193.257 205.029 193.095 205.119L191.595 205.994C191.05 206.277 190.444 206.425 189.83 206.425C189.216 206.425 188.61 206.277 188.065 205.994L186.17 204.899C186.049 204.839 185.947 204.747 185.875 204.632C185.804 204.517 185.766 204.385 185.766 204.249C185.766 204.114 185.804 203.982 185.875 203.867C185.947 203.752 186.049 203.659 186.17 203.599C186.364 203.491 186.583 203.436 186.805 203.439C187.026 203.435 187.243 203.49 187.435 203.599L189.33 204.689C189.484 204.771 189.656 204.81 189.83 204.804C190.004 204.808 190.176 204.769 190.33 204.689L191.83 203.809L189.93 202.714C189.811 202.654 189.711 202.562 189.64 202.45C189.569 202.337 189.529 202.207 189.525 202.074C189.525 201.938 189.563 201.804 189.633 201.687C189.703 201.569 189.804 201.474 189.925 201.409C190.119 201.302 190.338 201.249 190.56 201.254C190.78 201.248 190.998 201.302 191.19 201.409L195.355 203.814C195.616 203.92 195.839 204.1 195.996 204.333C196.153 204.566 196.237 204.841 196.237 205.122C196.237 205.403 196.153 205.678 195.996 205.911C195.839 206.143 195.616 206.324 195.355 206.429L193.5 207.524C193.31 207.633 193.094 207.688 192.875 207.684H192.84Z" fill="#3FA654"/>
</g>
<path d="M162.535 211.685L160.265 213L162.155 214.09C162.2 214.109 162.239 214.14 162.267 214.18C162.296 214.219 162.312 214.266 162.315 214.315C162.31 214.362 162.292 214.406 162.264 214.444C162.236 214.482 162.198 214.512 162.155 214.53C162.038 214.589 161.909 214.62 161.777 214.62C161.646 214.62 161.517 214.589 161.4 214.53L156.095 211.465C156.051 211.448 156.013 211.418 155.986 211.38C155.958 211.342 155.942 211.297 155.94 211.25C155.942 211.202 155.958 211.156 155.985 211.117C156.013 211.078 156.051 211.048 156.095 211.03L158.745 209.5C159.215 209.26 159.735 209.135 160.262 209.135C160.79 209.135 161.31 209.26 161.78 209.5L162.535 209.935C162.717 209.998 162.876 210.115 162.988 210.272C163.1 210.429 163.16 210.617 163.16 210.81C163.16 211.003 163.1 211.191 162.988 211.348C162.876 211.505 162.717 211.622 162.535 211.685ZM161.035 209.935C160.802 209.819 160.545 209.759 160.285 209.759C160.025 209.759 159.768 209.819 159.535 209.935L157.26 211.25L159.535 212.56L161.81 211.25C161.898 211.214 161.974 211.153 162.029 211.075C162.084 210.997 162.116 210.905 162.12 210.81C162.115 210.716 162.083 210.625 162.028 210.548C161.973 210.471 161.897 210.411 161.81 210.375L161.035 209.935Z" fill="#3FA654"/>
<path d="M169.22 207.39C169.519 207.38 169.817 207.405 170.11 207.465C170.377 207.518 170.634 207.614 170.87 207.75L172.01 208.405C172.054 208.424 172.092 208.454 172.12 208.493C172.149 208.532 172.166 208.577 172.17 208.625C172.17 208.71 172.115 208.78 172.01 208.84C171.893 208.902 171.763 208.935 171.63 208.935C171.497 208.939 171.365 208.906 171.25 208.84L170.115 208.185C169.882 208.059 169.62 207.997 169.355 208.005C169.092 207.998 168.832 208.06 168.6 208.185L166.325 209.5L168.22 210.59C168.325 210.655 168.38 210.725 168.375 210.815C168.37 210.905 168.32 210.97 168.215 211.03C168.1 211.092 167.971 211.123 167.84 211.12C167.708 211.123 167.577 211.092 167.46 211.03L162.155 207.965C162.112 207.947 162.075 207.917 162.047 207.879C162.02 207.841 162.004 207.797 162 207.75C162.003 207.702 162.019 207.657 162.046 207.618C162.074 207.579 162.111 207.549 162.155 207.53L164.81 206C165.279 205.76 165.798 205.635 166.325 205.635C166.852 205.635 167.371 205.76 167.84 206L168.6 206.435C168.799 206.54 168.971 206.691 169.1 206.875C169.198 207.028 169.24 207.21 169.22 207.39ZM167.085 206.435C166.852 206.32 166.595 206.26 166.335 206.26C166.075 206.26 165.818 206.32 165.585 206.435L163.315 207.75L165.585 209.06L167.86 207.75C167.949 207.715 168.026 207.654 168.082 207.576C168.138 207.498 168.17 207.406 168.175 207.31C168.169 207.215 168.137 207.124 168.081 207.047C168.025 206.97 167.948 206.91 167.86 206.875L167.085 206.435Z" fill="#3FA654"/>
<path d="M172.765 202.279L169.545 204.139C169.524 204.149 169.505 204.164 169.492 204.184C169.479 204.203 169.471 204.226 169.47 204.249C169.472 204.273 169.48 204.295 169.493 204.314C169.506 204.334 169.524 204.349 169.545 204.359L171.045 205.234C171.105 205.261 171.17 205.274 171.235 205.274C171.301 205.274 171.365 205.261 171.425 205.234L173.885 203.809C174.002 203.746 174.133 203.715 174.265 203.719C174.4 203.717 174.532 203.75 174.65 203.814C174.755 203.874 174.805 203.944 174.8 204.029C174.797 204.077 174.781 204.123 174.754 204.161C174.727 204.2 174.689 204.231 174.645 204.249L172.185 205.669C172.162 205.677 172.141 205.691 172.126 205.711C172.112 205.731 172.104 205.755 172.104 205.779C172.104 205.804 172.112 205.828 172.126 205.848C172.141 205.868 172.162 205.882 172.185 205.889L173.685 206.764C173.743 206.796 173.809 206.812 173.875 206.809C173.94 206.812 174.004 206.796 174.06 206.764L177.285 204.904C177.4 204.841 177.529 204.81 177.66 204.814C177.794 204.81 177.927 204.841 178.045 204.904C178.089 204.923 178.127 204.953 178.154 204.992C178.181 205.031 178.197 205.077 178.2 205.124C178.196 205.171 178.178 205.216 178.15 205.254C178.122 205.292 178.084 205.321 178.04 205.339L174.25 207.529C174.133 207.589 174.004 207.62 173.873 207.62C173.741 207.62 173.612 207.589 173.495 207.529L168.19 204.464C168.146 204.447 168.109 204.418 168.081 204.38C168.054 204.341 168.038 204.296 168.035 204.249C168.037 204.202 168.053 204.156 168.081 204.117C168.108 204.078 168.146 204.047 168.19 204.029L171.98 201.839C172.099 201.782 172.229 201.752 172.36 201.752C172.492 201.752 172.622 201.782 172.74 201.839C172.784 201.857 172.822 201.888 172.85 201.927C172.877 201.966 172.893 202.012 172.895 202.059C172.894 202.104 172.881 202.148 172.858 202.186C172.836 202.224 172.804 202.257 172.765 202.279Z" fill="#3FA654"/>
<path d="M180.125 199.214C180.121 199.262 180.103 199.307 180.075 199.346C180.047 199.385 180.009 199.415 179.965 199.434C179.847 199.493 179.717 199.524 179.585 199.524C179.453 199.524 179.323 199.493 179.205 199.434C178.973 199.309 178.713 199.247 178.45 199.254C178.185 199.246 177.923 199.308 177.69 199.434L176.19 200.304C176.1 200.336 176.022 200.396 175.967 200.474C175.912 200.552 175.882 200.646 175.882 200.741C175.882 200.837 175.912 200.93 175.967 201.009C176.022 201.087 176.1 201.146 176.19 201.179L176.57 201.399C176.802 201.518 177.059 201.58 177.32 201.58C177.581 201.58 177.838 201.518 178.07 201.399L179.57 200.529C180.04 200.292 180.559 200.169 181.085 200.169C181.611 200.169 182.13 200.292 182.6 200.529L182.98 200.749C183.155 200.822 183.307 200.943 183.418 201.097C183.53 201.252 183.596 201.434 183.61 201.624C183.597 201.811 183.533 201.991 183.426 202.146C183.318 202.3 183.171 202.422 183 202.499L181.5 203.374C181.03 203.61 180.511 203.734 179.985 203.734C179.459 203.734 178.94 203.61 178.47 203.374C178.426 203.354 178.389 203.324 178.361 203.285C178.333 203.246 178.315 203.201 178.31 203.154C178.313 203.107 178.329 203.062 178.357 203.024C178.384 202.986 178.421 202.957 178.465 202.939C178.582 202.878 178.713 202.846 178.845 202.846C178.977 202.846 179.107 202.878 179.225 202.939C179.458 203.054 179.715 203.114 179.975 203.114C180.235 203.114 180.492 203.054 180.725 202.939L182.225 202.064C182.315 202.031 182.393 201.972 182.448 201.894C182.503 201.815 182.532 201.722 182.532 201.626C182.532 201.531 182.503 201.437 182.448 201.359C182.393 201.281 182.315 201.221 182.225 201.189L181.845 200.969C181.612 200.853 181.355 200.793 181.095 200.793C180.835 200.793 180.578 200.853 180.345 200.969L178.845 201.844C178.386 202.096 177.868 202.222 177.345 202.209C176.822 202.219 176.305 202.093 175.845 201.844L175.465 201.624C175.282 201.561 175.124 201.443 175.012 201.287C174.9 201.13 174.84 200.942 174.84 200.749C174.84 200.556 174.9 200.368 175.012 200.211C175.124 200.054 175.282 199.936 175.465 199.874L176.965 199.004C177.434 198.764 177.953 198.639 178.48 198.639C179.007 198.639 179.526 198.764 179.995 199.004C180.032 199.026 180.063 199.056 180.086 199.093C180.108 199.129 180.122 199.171 180.125 199.214Z" fill="#3FA654"/>
<path d="M186.185 195.715C186.182 195.762 186.166 195.808 186.139 195.847C186.112 195.886 186.074 195.916 186.03 195.935C185.914 195.998 185.783 196.029 185.65 196.025C185.518 196.031 185.386 196 185.27 195.935C185.037 195.809 184.775 195.747 184.51 195.755C184.247 195.748 183.987 195.81 183.755 195.935L182.255 196.805C182.168 196.843 182.092 196.904 182.037 196.981C181.981 197.059 181.948 197.15 181.94 197.245C181.946 197.34 181.978 197.431 182.034 197.508C182.09 197.585 182.167 197.645 182.255 197.68L182.635 197.9C182.866 198.027 183.127 198.091 183.39 198.085C183.655 198.092 183.918 198.028 184.15 197.9L185.65 197.03C186.12 196.793 186.639 196.67 187.165 196.67C187.691 196.67 188.21 196.793 188.68 197.03L189.06 197.25C189.235 197.324 189.386 197.445 189.496 197.599C189.606 197.754 189.672 197.936 189.685 198.125C189.67 198.314 189.604 198.495 189.494 198.649C189.384 198.803 189.234 198.924 189.06 199L187.56 199.875C187.09 200.112 186.571 200.235 186.045 200.235C185.519 200.235 185 200.112 184.53 199.875C184.487 199.855 184.45 199.825 184.423 199.786C184.395 199.747 184.379 199.702 184.375 199.655C184.378 199.608 184.394 199.563 184.422 199.525C184.449 199.487 184.487 199.458 184.53 199.44C184.645 199.373 184.777 199.34 184.91 199.345C185.043 199.341 185.174 199.372 185.29 199.435C185.523 199.551 185.78 199.611 186.04 199.611C186.3 199.611 186.557 199.551 186.79 199.435L188.29 198.56C188.379 198.525 188.455 198.465 188.511 198.388C188.567 198.311 188.599 198.22 188.605 198.125C188.6 198.029 188.568 197.937 188.512 197.859C188.456 197.781 188.379 197.72 188.29 197.685L187.91 197.465C187.679 197.34 187.418 197.278 187.155 197.285C186.89 197.277 186.628 197.339 186.395 197.465L184.895 198.34C184.437 198.593 183.919 198.719 183.395 198.705C182.872 198.714 182.356 198.588 181.895 198.34L181.515 198.12C181.333 198.057 181.174 197.939 181.062 197.783C180.95 197.626 180.89 197.438 180.89 197.245C180.89 197.052 180.95 196.864 181.062 196.707C181.174 196.55 181.333 196.432 181.515 196.37L183.015 195.5C183.484 195.26 184.003 195.135 184.53 195.135C185.057 195.135 185.576 195.26 186.045 195.5C186.085 195.52 186.12 195.551 186.144 195.589C186.169 195.626 186.183 195.67 186.185 195.715Z" fill="#3FA654"/>
<path d="M61.4702 66.5006C61.4702 56.3456 68.6002 44.0006 77.3952 38.9206C81.7952 36.3806 85.7752 36.1406 88.6552 37.8006L111.995 51.3006C111.995 61.4556 98.2752 85.2356 89.4952 90.3006L66.1502 76.8006C63.2552 75.1506 61.4702 71.5806 61.4702 66.5006Z" fill="#3FA654"/>
<path d="M84.8301 80.0014C84.8301 69.8464 91.9551 57.5015 100.75 52.4165C105.14 49.8865 109.115 49.6415 111.995 51.2915C114.875 52.9415 116.675 56.5014 116.675 61.6014C116.675 71.7564 109.545 84.1014 100.75 89.1864C96.3501 91.7264 92.3651 91.9614 89.4801 90.2914C86.5951 88.6214 84.8301 85.0614 84.8301 80.0014Z" fill="#3FA654"/>
<path opacity="0.15" d="M84.8301 80.0014C84.8301 69.8464 91.9551 57.5015 100.75 52.4165C105.14 49.8865 109.115 49.6415 111.995 51.2915C114.875 52.9415 116.675 56.5014 116.675 61.6014C116.675 71.7564 109.545 84.1014 100.75 89.1864C96.3501 91.7264 92.3651 91.9614 89.4801 90.2914C86.5951 88.6214 84.8301 85.0614 84.8301 80.0014Z" fill="#333333"/>
<path opacity="0.15" d="M85.5001 74.2715C85.0623 76.1503 84.8375 78.0724 84.8301 80.0015C84.8301 85.0715 86.6051 88.6365 89.4801 90.3015C92.3551 91.9665 96.3501 91.7365 100.75 89.1965C102.412 88.2195 103.96 87.0607 105.365 85.7415L85.5001 74.2715Z" fill="#333333"/>
<path d="M153 103.116C152.325 106.996 151.925 109.161 150.03 110.616C149.67 115.256 147.905 118.556 146.73 119.581C146.53 126.771 142.94 129.081 142.94 129.081C142.94 129.081 143.545 149.581 144.335 154.676C145.685 163.446 146.905 165.676 146.3 168.441C145.71 171.136 141.22 172.266 137.58 170.291C133.68 168.181 132.235 161.176 130.77 154.676C129.13 147.406 127.77 140.126 127.77 140.126C124.33 139.191 118.86 139.376 115.865 138.576C112.87 137.776 112 136.881 109.555 133.506C107.11 130.131 100.345 123.076 98.3552 119.841C96.3652 116.606 95.8552 112.716 95.7652 105.341C95.7002 100.231 95.1352 96.4059 94.9852 91.3059C94.9852 90.9309 94.9602 90.5509 94.9552 90.1559C94.9552 89.0709 94.9552 87.9309 94.9552 86.7059L84.8252 80.8509C84.8252 80.5809 84.8252 80.3009 84.8252 80.0209C84.8252 74.6909 86.7952 68.7559 89.9352 63.5809C92.7752 58.9059 96.5802 54.8559 100.75 52.4409C101.563 51.9685 102.411 51.5573 103.285 51.2109C106.885 53.3859 111.535 56.0959 115.03 57.8509C115.38 58.0259 115.895 58.2709 116.425 58.5259C117.255 58.9259 118.14 59.3509 118.545 59.5659C122.675 61.7559 123.62 64.9559 126.495 67.6759C128.785 69.8409 148.72 87.4659 151.925 89.9959C155.13 92.5259 154.05 97.0909 153 103.116Z" fill="#EBB376"/>
<path opacity="0.3" d="M146.73 119.556C147.905 118.531 149.67 115.231 150.03 110.591C151.93 109.161 152.325 106.996 153 103.091C153.345 101.116 153.69 99.3012 153.89 97.6562C153.805 98.1562 153.035 102.656 152.325 103.091C151.615 103.526 151.075 102.136 151.075 102.136C151.075 102.136 150.165 108.386 149.075 109.136C147.985 109.886 147.575 108.591 147.575 108.591C147.035 112.976 146.535 115.146 145.235 115.646C143.935 116.146 142.81 114.301 142.27 111.966C142.075 114.911 142.92 129.036 142.92 129.036C142.92 129.036 146.53 126.746 146.73 119.556Z" fill="#F28F8F"/>
<path opacity="0.05" d="M99.5853 72.2002C98.4564 73.7171 97.5427 75.3829 96.8703 77.1502C94.4353 83.5852 94.9703 86.6502 94.9703 86.6502L84.8403 80.7952C84.8403 80.5252 84.8403 80.2452 84.8403 79.9652C84.8403 75.7502 86.0703 71.1602 88.1403 66.8652L99.5853 72.2002Z" fill="#333333"/>
<path d="M144.685 159.21C142.25 158.24 138.295 159.745 137.685 160.71C137.075 161.675 138.88 167.43 140.185 168.905C141.855 170.745 146.32 170.565 146.45 167.48C146.58 164.395 144.685 159.21 144.685 159.21Z" fill="#EBB376"/>
<path opacity="0.4" d="M144.685 159.21C142.25 158.24 138.295 159.745 137.685 160.71C137.075 161.675 138.88 167.43 140.185 168.905C141.855 170.745 146.32 170.565 146.45 167.48C146.58 164.395 144.685 159.21 144.685 159.21Z" fill="white"/>
<path d="M142.12 160.69C144.46 160.14 144.685 159.19 144.685 159.19C142.25 158.22 138.295 159.725 137.685 160.69C139.146 161.008 140.659 161.008 142.12 160.69Z" fill="#F28F8F"/>
<path d="M94.9701 86.6699C94.9701 81.9499 96.8701 77.1699 96.8701 77.1699C96.8701 77.1699 94.2601 78.9899 93.3701 85.7499L94.9701 86.6699Z" fill="#F28F8F"/>
<path d="M142.94 129.042C142.355 124.042 141.83 119.347 141.61 115.362C141.39 111.377 141.465 110.902 141.55 110.237C141.635 109.572 143.23 107.787 143.115 110.237C143 112.687 142.615 115.037 142.815 118.847C143.015 122.657 142.94 129.042 142.94 129.042Z" fill="#EBB376"/>
<path opacity="0.8" d="M142.94 129.042C142.355 124.042 141.83 119.347 141.61 115.362C141.39 111.377 141.465 110.902 141.55 110.237C141.635 109.572 143.23 107.787 143.115 110.237C143 112.687 142.615 115.037 142.815 118.847C143.015 122.657 142.94 129.042 142.94 129.042Z" fill="#F28F8F"/>
<g opacity="0.4">
<path opacity="0.4" d="M142.045 131.421C142.044 131.364 142.032 131.308 142.01 131.256C141.959 131.164 141.891 131.082 141.81 131.016C141.025 130.324 140.03 129.915 138.985 129.856C138.183 129.781 137.374 129.825 136.585 129.986C135.325 130.241 133.92 130.686 133.34 131.941C133.315 131.981 133.299 132.027 133.294 132.075C133.289 132.122 133.294 132.17 133.31 132.216C133.385 132.356 133.595 132.316 133.745 132.256C134.996 131.77 136.319 131.497 137.66 131.446C138.318 131.431 138.976 131.456 139.63 131.521C140.318 131.645 141.016 131.7 141.715 131.686C141.821 131.681 141.921 131.636 141.995 131.561C142.024 131.519 142.041 131.471 142.045 131.421Z" fill="#F28F8F"/>
<path opacity="0.4" d="M140.5 134.846C140 135.016 139.5 135.251 138.945 135.396C138.522 135.504 138.09 135.576 137.655 135.611C137.231 135.636 136.805 135.636 136.38 135.611C136.13 135.611 135.88 135.611 135.635 135.611C135.489 135.587 135.343 135.57 135.195 135.561C135.115 135.561 135.035 135.561 134.95 135.561C134.865 135.561 134.78 135.801 134.86 135.876C135.436 136.439 136.185 136.792 136.985 136.876C137.469 136.924 137.956 136.924 138.44 136.876C139.38 136.786 140.605 136.526 141.275 135.806C141.65 135.351 140.915 134.711 140.5 134.846Z" fill="#F28F8F"/>
<path opacity="0.4" d="M143.545 153.846C143.191 153.45 142.703 153.199 142.175 153.141C142.05 153.141 141.92 153.111 141.795 153.101C141.487 153.084 141.178 153.084 140.87 153.101C140.244 153.134 139.624 153.243 139.025 153.426C138.095 153.701 137.025 154.226 136.65 155.191C136.65 155.241 136.61 155.301 136.59 155.356C136.56 155.439 136.545 155.527 136.545 155.616C136.546 155.66 136.558 155.702 136.578 155.74C136.599 155.779 136.629 155.811 136.665 155.836C136.729 155.86 136.798 155.868 136.866 155.859C136.934 155.85 136.999 155.825 137.055 155.786L138.625 155.006C138.931 154.869 139.249 154.758 139.575 154.676C139.902 154.566 140.236 154.479 140.575 154.416C140.906 154.367 141.241 154.348 141.575 154.361C142.208 154.429 142.844 154.463 143.48 154.461C143.745 154.436 143.64 154.001 143.545 153.846Z" fill="#F28F8F"/>
</g>
<g opacity="0.4">
<path opacity="0.4" d="M115.57 132.366C115.5 132.314 115.412 132.291 115.325 132.301C114.903 132.325 114.486 132.406 114.085 132.541C113.404 132.801 112.793 133.217 112.302 133.756C111.811 134.296 111.454 134.943 111.26 135.646C111.258 135.658 111.258 135.67 111.26 135.681C111.621 136.12 112.019 136.526 112.45 136.896C112.47 136.843 112.485 136.787 112.495 136.731C112.664 135.764 113.129 134.873 113.825 134.181C114.333 133.695 114.867 133.238 115.425 132.811C115.496 132.762 115.556 132.699 115.6 132.626C115.625 132.59 115.638 132.547 115.638 132.504C115.638 132.46 115.625 132.417 115.6 132.381L115.57 132.366Z" fill="#F28F8F"/>
<path opacity="0.4" d="M115.315 138.382L115.855 138.537C116.125 138.607 116.415 138.667 116.72 138.727C116.86 138.485 116.959 138.221 117.015 137.947C117.15 137.269 117.206 136.578 117.18 135.887C117.186 135.503 117.063 135.128 116.83 134.822C116.79 134.777 116.74 134.732 116.68 134.747C116.62 134.762 116.595 134.852 116.59 134.922C116.514 136.051 116.136 137.139 115.495 138.072C115.426 138.17 115.366 138.273 115.315 138.382Z" fill="#F28F8F"/>
</g>
<path opacity="0.4" d="M138.695 97.2503C140.415 96.6203 142.285 98.5153 142.615 99.6103C142.873 100.398 142.944 101.236 142.821 102.056C142.699 102.876 142.387 103.657 141.91 104.335C141.53 104.795 141.06 104.05 140.97 102.605C140.973 101.195 140.459 99.8322 139.525 98.7753C138.44 97.6553 138.215 97.4253 138.695 97.2503Z" fill="#F28F8F"/>
<path opacity="0.35" d="M126.615 100.441C124.815 100.781 124.185 103.366 124.46 104.476C124.643 105.286 125.011 106.041 125.537 106.683C126.064 107.324 126.732 107.834 127.49 108.171C128.05 108.371 128.075 107.491 127.41 106.206C126.691 105.005 126.434 103.583 126.685 102.206C127.045 100.661 127.12 100.346 126.615 100.441Z" fill="#F28F8F"/>
<path opacity="0.4" d="M146.185 94.1403C147.63 93.5402 149.29 95.0903 149.61 96.0103C149.862 96.6716 149.954 97.383 149.88 98.0867C149.805 98.7904 149.565 99.4665 149.18 100.06C148.87 100.465 148.445 99.8503 148.315 98.6253C148.271 97.4222 147.785 96.2776 146.95 95.4103C146 94.5003 145.785 94.3103 146.185 94.1403Z" fill="#F28F8F"/>
<path d="M146.73 119.556C146.415 116.776 146.585 111.781 146.73 108.981C146.875 106.181 148.615 105.366 148.705 106.076C148.795 106.786 147.98 108.041 147.595 110.791C147.235 113.351 146.9 116.181 146.73 119.556Z" fill="#EBB376"/>
<path opacity="0.8" d="M146.73 119.556C146.415 116.776 146.585 111.781 146.73 108.981C146.875 106.181 148.615 105.366 148.705 106.076C148.795 106.786 147.98 108.041 147.595 110.791C147.235 113.351 146.9 116.181 146.73 119.556Z" fill="#F28F8F"/>
<path d="M120.255 135.85C119.847 136.884 119.617 137.98 119.575 139.09C122.33 139.47 125.35 139.845 127.77 140.09C127.77 139.485 127.425 136.735 127.425 136.735C125.54 135.215 120.255 135.85 120.255 135.85Z" fill="#EBB376"/>
<path opacity="0.3" d="M120.255 135.85C119.847 136.884 119.617 137.98 119.575 139.09C122.33 139.47 125.35 139.845 127.77 140.09C127.77 139.485 127.425 136.735 127.425 136.735C125.54 135.215 120.255 135.85 120.255 135.85Z" fill="white"/>
<path opacity="0.8" d="M119.575 139.092L120.805 139.257C120.799 138.1 120.613 136.951 120.255 135.852C119.847 136.885 119.617 137.981 119.575 139.092Z" fill="#F28F8F"/>
<path opacity="0.4" d="M115.03 115.101C114.8 114.826 114.585 114.541 114.375 114.251C113.875 113.586 113.615 112.851 113.14 112.201C112.59 111.444 112.075 110.664 111.595 109.861C111.435 109.591 110.19 106.966 110.22 108.311C110.29 111.151 111.885 113.696 113.425 116.081C113.88 116.791 114.535 117.581 114.29 118.511C114.07 119.316 113.2 119.736 112.395 119.961C111.59 120.186 110.71 120.366 110.175 121.001C110.076 121.093 110.01 121.215 109.985 121.349C109.961 121.482 109.98 121.619 110.04 121.741C110.195 121.951 110.51 121.936 110.765 121.901C112.021 121.699 113.299 121.678 114.56 121.836C115.828 121.999 117.011 122.559 117.94 123.436C118.835 124.336 119.51 125.721 119.25 126.966C119.084 127.586 118.77 128.157 118.335 128.631C118.12 128.896 117.525 129.481 117.745 129.741C117.965 130.001 118.95 129.971 119.245 129.991C120.8 130.121 121.31 130.201 122.34 130.741C123.205 131.114 123.941 131.733 124.455 132.521C125.2 133.571 125.62 134.826 126.16 136.731C126.453 137.803 126.68 138.892 126.84 139.991L127.765 140.086C127.71 139.006 127.545 137.781 127.42 136.731C127.255 135.286 126.76 134.231 126.62 132.851C126.48 131.471 126.225 130.351 126.055 129.041C125.845 127.421 125.69 126.326 125.43 125.041C124.78 121.841 124.43 118.611 123.785 115.411C123.67 114.821 123.285 113.071 122.385 113.221C122.244 113.255 122.111 113.32 121.997 113.41C121.883 113.501 121.791 113.616 121.725 113.746C121.604 114.011 121.521 114.292 121.48 114.581L120.98 117.081C120.944 117.461 120.804 117.825 120.575 118.131C120.409 118.294 120.204 118.413 119.979 118.477C119.755 118.541 119.518 118.547 119.29 118.496C118.837 118.387 118.411 118.184 118.04 117.901C116.908 117.117 115.894 116.174 115.03 115.101Z" fill="#F28F8F"/>
<path d="M127.77 140.086C127.735 139.286 127.59 137.991 127.425 136.731C126.86 132.361 125.925 126.646 125.19 122.066C124.155 115.716 124.19 110.566 123.045 110.566C121.815 110.566 121.76 113.346 122.33 116.591C122.68 118.591 123.075 121.216 123.74 124.426C123.84 125.02 123.901 125.62 123.92 126.221C123.963 126.49 123.918 126.766 123.793 127.008C123.668 127.25 123.469 127.445 123.225 127.566C122.88 127.7 122.515 127.774 122.145 127.786C120.55 127.931 118.895 128.171 117.555 129.051C117.42 129.13 117.303 129.236 117.21 129.361C117.165 129.424 117.137 129.498 117.127 129.574C117.118 129.651 117.127 129.729 117.155 129.801C117.335 130.176 118.36 130.066 118.695 130.046C119.46 129.996 120.195 129.881 120.97 129.806C122.695 129.631 124.69 130.211 125.855 133.031C126.825 136.681 127.77 140.086 127.77 140.086Z" fill="#EBB376"/>
<path opacity="0.9" d="M127.77 140.086C127.735 139.286 127.59 137.991 127.425 136.731C126.86 132.361 125.925 126.646 125.19 122.066C124.155 115.716 124.19 110.566 123.045 110.566C121.815 110.566 121.76 113.346 122.33 116.591C122.68 118.591 123.075 121.216 123.74 124.426C123.84 125.02 123.901 125.62 123.92 126.221C123.963 126.49 123.918 126.766 123.793 127.008C123.668 127.25 123.469 127.445 123.225 127.566C122.88 127.7 122.515 127.774 122.145 127.786C120.55 127.931 118.895 128.171 117.555 129.051C117.42 129.13 117.303 129.236 117.21 129.361C117.165 129.424 117.137 129.498 117.127 129.574C117.118 129.651 117.127 129.729 117.155 129.801C117.335 130.176 118.36 130.066 118.695 130.046C119.46 129.996 120.195 129.881 120.97 129.806C122.695 129.631 124.69 130.211 125.855 133.031C126.825 136.681 127.77 140.086 127.77 140.086Z" fill="#F28F8F"/>
</svg>
