<svg width="300" height="402" viewBox="0 0 300 402" fill="none" xmlns="http://www.w3.org/2000/svg">
<path d="M156.798 342.82H155.43V340.516H156.798V342.82ZM156.798 347.014H155.43V344.728H156.798V347.014ZM149.238 344.728H150.534V347.014H149.238V344.728ZM153.648 344.728V347.014H152.316V344.728H153.648ZM152.316 342.82V340.516H153.648V342.82H152.316ZM149.238 340.516H150.534V342.82H149.238V340.516ZM147.348 342.82H144.936V344.728H147.348V347.014H145.206V348.922H160.848V347.014H158.76V344.728H161.1V342.82H158.76V340.516H160.452V338.626H149.652C149.922 338.212 150.156 337.798 150.354 337.366L148.266 336.754C147.474 338.428 146.052 340.066 144.54 341.056C145.026 341.398 145.89 342.082 146.286 342.46C146.646 342.19 146.988 341.866 147.348 341.524V342.82ZM146.79 353.584C147.672 352.648 148.446 351.172 148.842 349.804L146.772 349.3C146.358 350.614 145.548 352 144.756 352.756L146.79 353.584ZM149.994 349.93C150.192 351.028 150.336 352.504 150.336 353.368L152.424 353.062C152.406 352.216 152.19 350.794 151.974 349.696L149.994 349.93ZM153.558 349.966C153.954 351.064 154.368 352.522 154.476 353.386L156.618 352.972C156.456 352.09 156.006 350.686 155.574 349.624L153.558 349.966ZM157.122 349.876C157.914 351.028 158.868 352.612 159.246 353.566L161.442 352.828C160.992 351.838 159.984 350.326 159.174 349.228L157.122 349.876ZM174.942 339.904C174.366 339.238 173.088 338.32 172.08 337.726L171.054 339.166C172.044 339.832 173.286 340.804 173.844 341.506L174.942 339.904ZM170.226 343.684C171.27 344.314 172.584 345.268 173.178 345.934L174.258 344.224C173.61 343.576 172.278 342.712 171.234 342.154L170.226 343.684ZM168.606 337.744C168.408 339.004 167.976 340.822 167.616 341.956L168.966 342.334C169.416 341.29 169.938 339.58 170.406 338.14L168.606 337.744ZM165.114 341.956C165.024 340.84 164.664 339.13 164.196 337.834L162.702 338.23C163.116 339.526 163.476 341.272 163.512 342.388L165.114 341.956ZM170.028 347.878C169.65 347.374 167.94 345.358 167.418 344.836V344.71H170.082V342.712H167.418V336.826H165.438V342.712H162.72V344.71H164.772C164.214 346.348 163.296 348.274 162.396 349.372C162.72 349.966 163.188 350.938 163.368 351.586C164.142 350.506 164.862 348.832 165.438 347.158V353.512H167.418V347.194C167.94 348.022 168.444 348.958 168.714 349.534L170.028 347.878ZM179.55 348.292L179.226 346.294L177.39 346.636V336.736H175.374V346.996L170.028 347.95L170.352 349.948L175.374 349.048V353.548H177.39V348.688L179.55 348.292ZM191.124 349.336C190.872 349.984 190.494 350.794 190.188 351.334L190.674 351.442H187.128L187.812 351.244C187.668 350.704 187.344 349.948 186.948 349.336H191.124ZM185.868 346.042H192.006V347.644H185.868V346.042ZM192.6 349.336H194.22V344.35H183.798V349.336H185.76L184.824 349.57C185.166 350.128 185.472 350.848 185.652 351.442H181.296V353.206H196.776V351.442H192.258C192.564 350.92 192.924 350.218 193.302 349.48L192.6 349.336ZM195.534 339.004C195.03 339.58 194.256 340.282 193.518 340.858C193.23 340.57 192.942 340.264 192.672 339.94C193.464 339.4 194.364 338.716 195.138 338.068L193.518 336.916C193.05 337.456 192.384 338.086 191.718 338.626C191.34 338.05 191.034 337.438 190.764 336.808L188.928 337.384C189.576 338.914 190.404 340.318 191.394 341.542H186.768C187.614 340.516 188.316 339.346 188.802 338.032L187.416 337.312L187.056 337.402H182.34V339.13H186.03C185.652 339.742 185.202 340.354 184.68 340.912C184.176 340.408 183.33 339.85 182.646 339.454L181.476 340.624C182.124 341.038 182.898 341.632 183.402 342.136C182.448 342.91 181.404 343.558 180.36 343.99C180.792 344.35 181.35 345.088 181.638 345.556C183.078 344.854 184.482 343.9 185.706 342.712V343.324H192.33V342.586C193.446 343.72 194.742 344.656 196.182 345.304C196.506 344.746 197.118 343.918 197.604 343.522C196.596 343.126 195.642 342.586 194.778 341.956C195.552 341.416 196.38 340.75 197.1 340.12L195.534 339.004ZM200.772 341.218C201.492 340.372 202.068 339.526 202.518 338.752C203.274 339.472 204.066 340.48 204.57 341.218H200.772ZM205.452 350.092L203.292 350.47V346.114H205.524V344.314H203.292V343H205.146V341.218H204.984L206.118 339.868C205.488 338.932 204.174 337.654 203.112 336.772H201.348C200.79 338.158 199.746 339.85 198.234 341.128C198.648 341.398 199.242 342.1 199.512 342.514C199.62 342.406 199.746 342.298 199.854 342.19V343H201.438V344.314H198.99V346.114H201.438V350.812C200.448 350.974 199.548 351.118 198.792 351.226L199.188 353.17C201.006 352.828 203.382 352.324 205.614 351.856L205.56 351.334L206.154 352.36C207.18 351.658 208.332 350.83 209.394 350.02L208.746 348.4C207.576 349.174 206.388 349.93 205.488 350.452L205.452 350.092ZM213.246 348.094C213.876 347.5 214.686 346.654 215.406 345.826L213.732 344.8C213.336 345.466 212.67 346.348 212.112 346.96C211.788 346.312 211.554 345.646 211.374 345.034V344.44H215.262V342.622H213.93V337.348H206.55V339.112H211.95V340.084H206.946V341.704H211.95V342.622H205.686V344.44H209.394V351.496C209.394 351.676 209.34 351.73 209.142 351.73C208.962 351.73 208.422 351.748 207.918 351.712C208.152 352.27 208.368 353.026 208.422 353.566C209.43 353.566 210.132 353.53 210.69 353.224C211.248 352.936 211.374 352.432 211.374 351.532V349.174C212.076 350.524 213.048 351.82 214.326 352.648C214.632 352.09 215.262 351.262 215.694 350.884C214.236 350.128 213.156 348.868 212.4 347.536L213.246 348.094ZM199.17 347.14C199.44 348.13 199.692 349.426 199.728 350.29L201.168 349.894C201.078 349.066 200.826 347.788 200.538 346.798L199.17 347.14ZM204.786 349.93C205.056 349.192 205.344 348.04 205.668 347.032L204.12 346.654C204.012 347.5 203.724 348.778 203.49 349.57L204.786 349.93ZM205.776 345.97C206.46 346.672 207.234 347.662 207.54 348.328L209.034 347.338C208.692 346.654 207.9 345.7 207.18 345.07L205.776 345.97Z" fill="#333333"/>
<path d="M136.854 378H88.123V368.332L111.121 343.82C114.279 340.37 116.606 337.359 118.104 334.787C119.633 332.215 120.398 329.774 120.398 327.463C120.398 324.305 119.601 321.831 118.006 320.041C116.411 318.218 114.132 317.307 111.17 317.307C107.98 317.307 105.457 318.413 103.602 320.627C101.779 322.808 100.867 325.689 100.867 329.27H86.707C86.707 324.94 87.7324 320.985 89.7832 317.404C91.8665 313.824 94.7962 311.024 98.5723 309.006C102.348 306.955 106.629 305.93 111.414 305.93C118.738 305.93 124.419 307.688 128.455 311.203C132.524 314.719 134.559 319.683 134.559 326.096C134.559 329.611 133.647 333.192 131.824 336.838C130.001 340.484 126.876 344.732 122.449 349.582L106.287 366.623H136.854V378Z" fill="#3FA654"/>
<circle cx="150" cy="150" r="146.5" fill="white" stroke="#3FA654" stroke-width="7"/>
<path d="M275 216.199H25V216.324H275V216.199Z" fill="#E0E0E0"/>
<path d="M241.6 224.039H219.17V224.164H241.6V224.039Z" fill="#E0E0E0"/>
<path d="M215.88 224.039H211.535V224.164H215.88V224.039Z" fill="#E0E0E0"/>
<path d="M174.66 222.314H164.98V222.439H174.66V222.314Z" fill="#E0E0E0"/>
<path d="M87.0598 222.25H65.4648V222.375H87.0598V222.25Z" fill="#E0E0E0"/>
<path d="M61.0151 222.25H57.8501V222.375H61.0151V222.25Z" fill="#E0E0E0"/>
<path d="M166.49 219.289H119.65V219.414H166.49V219.289Z" fill="#E0E0E0"/>
<path d="M143.5 193.9H46.955C46.1987 193.899 45.4738 193.597 44.9394 193.062C44.4051 192.527 44.105 191.801 44.105 191.045V55.33C44.1116 54.578 44.4146 53.859 44.9482 53.3291C45.4818 52.7992 46.203 52.5013 46.955 52.5H143.5C144.257 52.5 144.983 52.8008 145.519 53.3362C146.054 53.8716 146.355 54.5978 146.355 55.355V191.045C146.355 191.802 146.054 192.528 145.519 193.064C144.983 193.599 144.257 193.9 143.5 193.9ZM46.955 52.6C46.2318 52.6013 45.5387 52.8895 45.0278 53.4014C44.5169 53.9132 44.23 54.6068 44.23 55.33V191.045C44.23 191.768 44.5169 192.462 45.0278 192.974C45.5387 193.485 46.2318 193.774 46.955 193.775H143.5C144.224 193.774 144.917 193.486 145.429 192.974C145.941 192.462 146.229 191.769 146.23 191.045V55.33C146.229 54.6064 145.941 53.9127 145.429 53.4011C144.917 52.8894 144.224 52.6013 143.5 52.6H46.955Z" fill="#E0E0E0"/>
<path d="M251.655 193.9H155.105C154.348 193.899 153.623 193.597 153.088 193.062C152.553 192.527 152.251 191.802 152.25 191.045V55.33C152.258 54.5776 152.562 53.8585 153.096 53.3288C153.631 52.7991 154.353 52.5013 155.105 52.5H251.655C252.406 52.5026 253.126 52.8011 253.659 53.3309C254.191 53.8606 254.493 54.5789 254.5 55.33V191.045C254.5 191.8 254.201 192.525 253.667 193.06C253.134 193.595 252.41 193.897 251.655 193.9ZM155.105 52.6C154.381 52.6013 153.688 52.8894 153.176 53.4011C152.664 53.9127 152.376 54.6064 152.375 55.33V191.045C152.376 191.769 152.664 192.462 153.176 192.974C153.688 193.486 154.381 193.774 155.105 193.775H251.655C252.379 193.774 253.072 193.486 253.584 192.974C254.096 192.462 254.384 191.769 254.385 191.045V55.33C254.384 54.6064 254.096 53.9127 253.584 53.4011C253.072 52.8894 252.379 52.6013 251.655 52.6H155.105Z" fill="#E0E0E0"/>
<path d="M142.525 84.0547H82.7451V216.26H142.525V84.0547Z" fill="#E6E6E6"/>
<path d="M142.525 84.0547H85.5801V216.26H142.525V84.0547Z" fill="#F0F0F0"/>
<path d="M139.525 213.26V87.0547H88.5799V213.26H139.525Z" fill="#EBEBEB"/>
<path d="M139.525 213.266V87.0605H138.745V213.266H139.525Z" fill="#E6E6E6"/>
<path d="M132.72 147.251C134.131 147.251 135.275 146.107 135.275 144.696C135.275 143.285 134.131 142.141 132.72 142.141C131.309 142.141 130.165 143.285 130.165 144.696C130.165 146.107 131.309 147.251 132.72 147.251Z" fill="#E6E6E6"/>
<path d="M133.72 146.719C135.131 146.719 136.275 145.575 136.275 144.164C136.275 142.753 135.131 141.609 133.72 141.609C132.309 141.609 131.165 142.753 131.165 144.164C131.165 145.575 132.309 146.719 133.72 146.719Z" fill="#FAFAFA"/>
<path d="M236.63 67.7793H168.78V169.329H236.63V67.7793Z" fill="#E0E0E0"/>
<path d="M238.135 67.7793H170.285V169.329H238.135V67.7793Z" fill="#F0F0F0"/>
<path d="M235.43 166.29V70.8203H172.995V166.29H235.43Z" fill="#FAFAFA"/>
<path d="M235.43 166.29V70.8203H234.29V166.29H235.43Z" fill="#E0E0E0"/>
<path d="M237.015 100.586H171.405V104.666H237.015V100.586Z" fill="#F0F0F0"/>
<path d="M241.085 62.75H165.83C165.72 62.75 165.614 62.7937 165.537 62.8716C165.459 62.9494 165.415 63.0549 165.415 63.165C165.415 63.2755 165.459 63.3816 165.536 63.4602C165.614 63.5389 165.72 63.5837 165.83 63.585H241.085C241.196 63.5837 241.302 63.539 241.381 63.4606C241.459 63.3821 241.504 63.276 241.505 63.165C241.504 63.0545 241.459 62.9489 241.38 62.8712C241.302 62.7936 241.196 62.75 241.085 62.75Z" fill="#E0E0E0"/>
<path d="M243.585 63.1659C243.586 63.5785 243.465 63.9821 243.236 64.3257C243.008 64.6692 242.682 64.9372 242.301 65.0958C241.921 65.2544 241.501 65.2964 241.096 65.2165C240.692 65.1366 240.32 64.9384 240.028 64.647C239.735 64.3556 239.536 63.9841 239.455 63.5795C239.375 63.175 239.416 62.7555 239.573 62.3742C239.731 61.9929 239.998 61.667 240.341 61.4377C240.684 61.2084 241.087 61.0859 241.5 61.0859C242.052 61.0859 242.582 61.3049 242.973 61.6949C243.363 62.0848 243.584 62.6138 243.585 63.1659Z" fill="#E0E0E0"/>
<path d="M169.34 65.4991C169.191 65.4977 169.048 65.4376 168.943 65.3318C168.839 65.226 168.78 65.083 168.78 64.9341V63.7291C168.78 63.5801 168.839 63.4371 168.943 63.3313C169.048 63.2255 169.191 63.1654 169.34 63.1641C169.489 63.1654 169.632 63.2253 169.738 63.331C169.844 63.4367 169.903 63.5796 169.905 63.7291V64.9341C169.903 65.0835 169.844 65.2265 169.738 65.3321C169.632 65.4378 169.489 65.4978 169.34 65.4991Z" fill="#E0E0E0"/>
<path d="M234.805 65.4991C234.656 65.4978 234.513 65.4378 234.407 65.3321C234.301 65.2265 234.242 65.0835 234.24 64.9341V63.7291C234.242 63.5796 234.301 63.4367 234.407 63.331C234.513 63.2253 234.656 63.1654 234.805 63.1641C234.954 63.1654 235.097 63.2255 235.202 63.3313C235.306 63.4371 235.365 63.5801 235.365 63.7291V64.9341C235.365 65.083 235.306 65.226 235.202 65.3318C235.097 65.4376 234.954 65.4977 234.805 65.4991Z" fill="#E0E0E0"/>
<path opacity="0.4" d="M240.955 63.1641H171.405V92.3291H240.955V63.1641Z" fill="#E0E0E0"/>
<path d="M178.125 63.1659C178.126 63.5785 178.005 63.9821 177.776 64.3257C177.548 64.6692 177.222 64.9372 176.841 65.0958C176.461 65.2544 176.041 65.2964 175.636 65.2165C175.232 65.1366 174.86 64.9384 174.568 64.647C174.275 64.3556 174.076 63.9841 173.996 63.5795C173.915 63.175 173.956 62.7555 174.113 62.3742C174.271 61.9929 174.538 61.667 174.881 61.4377C175.224 61.2084 175.627 61.0859 176.04 61.0859C176.592 61.0859 177.122 61.3049 177.513 61.6949C177.903 62.0848 178.124 62.6138 178.125 63.1659Z" fill="#E0E0E0"/>
<path d="M179.38 184.625H165.99V214.32H179.38V184.625Z" fill="#E6E6E6"/>
<path d="M234.61 214.32H168.565V216.2H234.61V214.32Z" fill="#E6E6E6"/>
<path d="M179.38 214.32H237.175V184.625H179.38V214.32Z" fill="#F0F0F0"/>
<path d="M184.645 198.02H231.91V188.28H184.645V198.02Z" fill="#E6E6E6"/>
<path d="M184.645 210.66H231.91V200.92H184.645V210.66Z" fill="#E6E6E6"/>
<path d="M214.305 192.48H202.26C201.934 192.48 201.67 192.745 201.67 193.07V193.225C201.67 193.551 201.934 193.815 202.26 193.815H214.305C214.631 193.815 214.895 193.551 214.895 193.225V193.07C214.895 192.745 214.631 192.48 214.305 192.48Z" fill="#F0F0F0"/>
<path d="M214.305 205.125H202.26C201.934 205.125 201.67 205.389 201.67 205.715V205.87C201.67 206.196 201.934 206.46 202.26 206.46H214.305C214.631 206.46 214.895 206.196 214.895 205.87V205.715C214.895 205.389 214.631 205.125 214.305 205.125Z" fill="#F0F0F0"/>
<path d="M196.06 180.246C197.689 180.246 199.01 178.925 199.01 177.296C199.01 175.666 197.689 174.346 196.06 174.346C194.431 174.346 193.11 175.666 193.11 177.296C193.11 178.925 194.431 180.246 196.06 180.246Z" fill="#F0F0F0"/>
<path d="M200.7 179.689C202.329 179.689 203.65 178.368 203.65 176.739C203.65 175.11 202.329 173.789 200.7 173.789C199.071 173.789 197.75 175.11 197.75 176.739C197.75 178.368 199.071 179.689 200.7 179.689Z" fill="#F0F0F0"/>
<path d="M217.925 178.104C217.925 178.688 217.752 179.258 217.428 179.743C217.104 180.228 216.643 180.606 216.104 180.83C215.565 181.053 214.972 181.111 214.399 180.998C213.827 180.884 213.302 180.603 212.889 180.19C212.476 179.778 212.195 179.252 212.082 178.68C211.968 178.108 212.026 177.514 212.249 176.975C212.473 176.436 212.851 175.976 213.336 175.651C213.821 175.327 214.391 175.154 214.975 175.154C215.757 175.154 216.508 175.465 217.061 176.018C217.614 176.572 217.925 177.322 217.925 178.104Z" fill="#F0F0F0"/>
<path d="M210.31 179.466C210.311 180.05 210.138 180.622 209.814 181.109C209.49 181.596 209.028 181.975 208.488 182.2C207.948 182.424 207.353 182.483 206.78 182.369C206.206 182.255 205.679 181.974 205.265 181.56C204.852 181.147 204.57 180.62 204.456 180.046C204.343 179.472 204.402 178.878 204.626 178.337C204.85 177.797 205.23 177.336 205.716 177.012C206.203 176.687 206.775 176.515 207.36 176.516C208.142 176.516 208.893 176.826 209.446 177.38C209.999 177.933 210.31 178.683 210.31 179.466Z" fill="#F0F0F0"/>
<path d="M187.5 177.836C187.5 177.836 188 184.626 206.3 184.626C224.6 184.626 225.1 177.836 225.1 177.836H187.5Z" fill="#E6E6E6"/>
<path d="M55.9002 174.164H46.7852V213.694H55.9002V174.164Z" fill="#E6E6E6"/>
<path d="M93.4852 213.695H48.5352V216.2H93.4852V213.695Z" fill="#E6E6E6"/>
<path d="M55.895 213.695H95.23V174.165H55.895L55.895 213.695Z" fill="#F0F0F0"/>
<path d="M59.4849 192H91.6499V179.035H59.4849V192Z" fill="#E6E6E6"/>
<path d="M59.4849 208.83H91.6499V195.865H59.4849V208.83Z" fill="#E6E6E6"/>
<path d="M79.1751 186.404H71.9551C71.8369 186.404 71.72 186.381 71.611 186.335C71.502 186.29 71.4032 186.223 71.3204 186.138C71.2375 186.054 71.1723 185.954 71.1285 185.845C71.0846 185.735 71.0631 185.618 71.0651 185.499C71.0651 185.263 71.1588 185.037 71.3257 184.87C71.4927 184.703 71.719 184.609 71.9551 184.609H79.1751C79.4111 184.609 79.6375 184.703 79.8044 184.87C79.9713 185.037 80.0651 185.263 80.0651 185.499C80.0671 185.618 80.0455 185.735 80.0017 185.845C79.9578 185.954 79.8926 186.054 79.8098 186.138C79.7269 186.223 79.6281 186.29 79.5192 186.335C79.4102 186.381 79.2932 186.404 79.1751 186.404Z" fill="#F0F0F0"/>
<path d="M79.1749 203.236H71.9549C71.7189 203.236 71.4925 203.142 71.3256 202.975C71.1587 202.808 71.0649 202.582 71.0649 202.346C71.0663 202.111 71.1606 201.886 71.3274 201.72C71.4941 201.554 71.7198 201.461 71.9549 201.461H79.1749C79.4101 201.461 79.6357 201.554 79.8025 201.72C79.9693 201.886 80.0636 202.111 80.0649 202.346C80.0649 202.582 79.9712 202.808 79.8043 202.975C79.6374 203.142 79.411 203.236 79.1749 203.236Z" fill="#F0F0F0"/>
<path d="M73.6799 166.565C73.6799 166.565 66.1799 153.61 76.5949 143.295C76.5949 143.295 79.3149 145.065 79.2749 147.45C79.2349 149.835 76.3599 150.45 76.9749 152.45C77.5899 154.45 80.3049 156.395 78.5249 158.04C76.7449 159.685 78.8099 161.15 78.6899 163.165C78.5699 165.18 73.6799 166.565 73.6799 166.565Z" fill="#F0F0F0"/>
<path d="M62.7349 164.5C62.7349 164.5 62.9849 174.165 72.5699 174.165C82.1549 174.165 82.3999 164.5 82.3999 164.5H62.7349Z" fill="#E6E6E6"/>
<path d="M74.2501 167.751C74.2501 167.751 77.3001 153.086 64.1501 146.586C64.1501 146.586 62.1501 149.126 62.9201 151.376C63.6901 153.626 66.6251 153.291 66.6701 155.376C66.7151 157.461 64.7501 160.166 66.9601 161.166C69.1701 162.166 67.6701 164.211 68.4201 166.086C69.1701 167.961 74.2501 167.751 74.2501 167.751Z" fill="#E6E6E6"/>
<path d="M69.715 95.4453H54.71V133.19H69.715V95.4453Z" fill="#E0E0E0"/>
<path d="M72.7502 95.4453H56.8252V133.19H72.7502V95.4453Z" fill="#F0F0F0"/>
<path d="M70.3252 130.764V97.8691H59.2502V130.764H70.3252Z" fill="#FAFAFA"/>
<path d="M150 238.781C203.541 238.781 246.945 236.247 246.945 233.121C246.945 229.995 203.541 227.461 150 227.461C96.4589 227.461 53.0552 229.995 53.0552 233.121C53.0552 236.247 96.4589 238.781 150 238.781Z" fill="#F5F5F5"/>
<path d="M208.33 122.695C208.25 124.1 208.08 125.39 207.89 126.73C207.7 128.07 207.425 129.37 207.135 130.68C206.54 133.353 205.656 135.953 204.5 138.435C204.092 139.215 203.531 139.906 202.85 140.465C202.291 140.94 201.696 141.372 201.07 141.755C199.902 142.47 198.684 143.1 197.425 143.64C194.981 144.687 192.461 145.545 189.885 146.205L189.265 144.35C190.415 143.85 191.595 143.295 192.735 142.73C193.875 142.165 195.015 141.595 196.105 140.975C197.183 140.384 198.223 139.728 199.22 139.01C199.679 138.68 200.114 138.318 200.52 137.925C200.831 137.64 201.087 137.302 201.275 136.925C201.732 135.807 202.124 134.663 202.45 133.5C202.77 132.305 203.065 131.1 203.315 129.875C203.565 128.65 203.765 127.41 203.945 126.165C204.125 124.92 204.27 123.665 204.38 122.465L208.33 122.695Z" fill="#EBB376"/>
<path d="M205.635 118.001C204.04 118.406 202.925 124.971 202.925 124.971L207.32 127.971C207.32 127.971 211.535 121.351 210.32 119.601C209.03 117.736 207.965 117.386 205.635 118.001Z" fill="#3FA654"/>
<path opacity="0.5" d="M205.635 118.001C204.04 118.406 202.925 124.971 202.925 124.971L207.32 127.971C207.32 127.971 211.535 121.351 210.32 119.601C209.03 117.736 207.965 117.386 205.635 118.001Z" fill="#333333"/>
<path d="M205.78 119.445L204.555 126.06L207.025 127.735L205.78 119.445Z" fill="#3FA654"/>
<path opacity="0.7" d="M205.78 119.445L204.555 126.06L207.025 127.735L205.78 119.445Z" fill="#333333"/>
<path d="M190.17 144.251L187.425 141.471L187.065 145.391C187.065 145.391 189.12 146.781 190.565 146.036L190.17 144.251Z" fill="#EBB376"/>
<path d="M184.195 141.055L184.07 144.35L187.065 145.39L187.425 141.47L184.195 141.055Z" fill="#EBB376"/>
<path d="M214.265 228.44H210.395L210.135 219.48H214.005L214.265 228.44Z" fill="#EBB376"/>
<path d="M248.41 210.47L245.46 212.975L238.71 206.95L241.66 204.445L248.41 210.47Z" fill="#EBB376"/>
<path d="M244.655 212.675L247.5 209.4C247.547 209.342 247.614 209.303 247.688 209.292C247.762 209.281 247.838 209.298 247.9 209.34L250.815 211.23C250.887 211.28 250.947 211.345 250.992 211.42C251.037 211.495 251.066 211.578 251.077 211.665C251.087 211.752 251.079 211.84 251.053 211.924C251.027 212.007 250.983 212.084 250.925 212.15C249.925 213.275 249.36 213.765 248.105 215.205C247.33 216.09 246.29 217.465 245.225 218.705C244.16 219.945 242.89 218.935 243.225 218.33C244.725 215.62 244.365 214.665 244.39 213.33C244.396 213.087 244.49 212.854 244.655 212.675Z" fill="#263238"/>
<path d="M210.26 228H214.61C214.685 227.999 214.758 228.026 214.815 228.074C214.872 228.123 214.909 228.191 214.92 228.265L215.42 231.705C215.429 231.792 215.42 231.879 215.393 231.962C215.366 232.045 215.322 232.121 215.263 232.186C215.205 232.251 215.133 232.302 215.053 232.337C214.974 232.373 214.887 232.391 214.8 232.39C213.3 232.39 212.55 232.275 210.64 232.275C209.465 232.275 207.03 232.4 205.41 232.4C203.79 232.4 203.695 230.79 204.375 230.645C207.405 229.995 208.6 229.095 209.62 228.235C209.801 228.087 210.026 228.004 210.26 228Z" fill="#263238"/>
<path d="M210.135 219.484L210.27 224.104H214.14L214.01 219.484H210.135Z" fill="#CF6F64"/>
<path d="M241.665 204.445L238.715 206.95L242.195 210.055L245.145 207.55L241.665 204.445Z" fill="#CF6F64"/>
<path d="M205.635 118.001C205.635 118.001 203.795 118.651 207.485 141.356H223.2C222.935 134.961 222.93 131.016 225.985 117.886C223.786 117.429 221.557 117.133 219.315 117.001C216.938 116.828 214.552 116.828 212.175 117.001C209.11 117.271 205.635 118.001 205.635 118.001Z" fill="#3FA654"/>
<path opacity="0.5" d="M205.635 118.001C205.635 118.001 203.795 118.651 207.485 141.356H223.2C222.935 134.961 222.93 131.016 225.985 117.886C223.786 117.429 221.557 117.133 219.315 117.001C216.938 116.828 214.552 116.828 212.175 117.001C209.11 117.271 205.635 118.001 205.635 118.001Z" fill="#333333"/>
<path d="M214.5 118.629L215.92 121.529C215.92 121.529 221.875 119.709 221.095 117.089L219.095 116.859L214.5 118.629Z" fill="#3FA654"/>
<path opacity="0.6" d="M214.5 118.629L215.92 121.529C215.92 121.529 221.875 119.709 221.095 117.089L219.095 116.859L214.5 118.629Z" fill="#FAFAFA"/>
<path d="M214.39 118.359L212.39 121.319C212.39 121.319 208.15 119.479 211.075 117.004L212.32 116.859L214.39 118.359Z" fill="#3FA654"/>
<path opacity="0.6" d="M214.39 118.359L212.39 121.319C212.39 121.319 208.15 119.479 211.075 117.004L212.32 116.859L214.39 118.359Z" fill="#FAFAFA"/>
<path d="M220.775 97.0002C222.61 95.2352 220.85 86.9402 225.68 89.6852C231.82 93.1852 235.785 88.6052 233.735 86.8652C238.045 87.1702 237.625 92.0752 235.83 94.7102C231.275 101.415 222.085 95.0402 222.03 98.4452C221.975 101.85 220.775 97.0002 220.775 97.0002Z" fill="#263238"/>
<path d="M218.125 95.8055C220.23 94.1405 227.42 95.5255 222.49 102.23L218.125 95.8055Z" fill="#3FA654"/>
<path opacity="0.3" d="M218.125 95.8055C220.23 94.1405 227.42 95.5255 222.49 102.23L218.125 95.8055Z" fill="#333333"/>
<path d="M219.235 98.9199C225.365 99.8349 225.795 109.795 216.28 111.34L219.235 98.9199Z" fill="#263238"/>
<path d="M218.605 108.955C218.155 111.25 217.705 115.455 219.315 116.99C219.315 116.99 218.685 119.315 214.42 119.315C209.73 119.315 212.175 116.99 212.175 116.99C214.735 116.375 214.675 114.49 214.225 112.695L218.605 108.955Z" fill="#EBB376"/>
<path d="M216.82 110.5L214.225 112.71C214.339 113.125 214.413 113.551 214.445 113.98C215.445 113.835 216.77 112.76 216.875 111.74C216.933 111.327 216.914 110.907 216.82 110.5Z" fill="#CF6F64"/>
<path d="M208.93 106.295C206.815 103.57 204.06 96.5402 212.305 95.8652L208.93 106.295Z" fill="#263238"/>
<path d="M218.45 103.095C218.95 106.905 219.25 108.505 217.73 110.805C215.445 114.27 210.655 114.065 209.025 110.485C207.55 107.265 206.97 101.58 210.355 99.3596C211.1 98.8664 211.958 98.5717 212.849 98.5035C213.739 98.4354 214.633 98.5961 215.444 98.9703C216.255 99.3445 216.957 99.9199 217.483 100.642C218.009 101.364 218.342 102.208 218.45 103.095Z" fill="#EBB376"/>
<path d="M207.5 141.336C207.5 141.336 204.45 171.141 204.7 182.941C204.965 195.216 209.465 223.211 209.465 223.211H214.695C214.695 223.211 213.865 195.931 214.33 183.881C214.83 170.736 219.01 141.336 219.01 141.336H207.5Z" fill="#3FA654"/>
<path opacity="0.6" d="M207.5 141.336C207.5 141.336 204.45 171.141 204.7 182.941C204.965 195.216 209.465 223.211 209.465 223.211H214.695C214.695 223.211 213.865 195.931 214.33 183.881C214.83 170.736 219.01 141.336 219.01 141.336H207.5Z" fill="#FAFAFA"/>
<path d="M215.135 223.396H208.995L208.545 221.441L215.42 221.201L215.135 223.396Z" fill="#3FA654"/>
<path opacity="0.4" d="M215.135 223.396H208.995L208.545 221.441L215.42 221.201L215.135 223.396Z" fill="#FAFAFA"/>
<path d="M214.265 148.75C210.405 156.515 213.49 170.68 214.855 175.95C215.555 168.035 216.735 158.36 217.655 151.255C217.07 147.235 216.045 145.17 214.265 148.75Z" fill="#3FA654"/>
<path opacity="0.4" d="M214.265 148.75C210.405 156.515 213.49 170.68 214.855 175.95C215.555 168.035 216.735 158.36 217.655 151.255C217.07 147.235 216.045 145.17 214.265 148.75Z" fill="#FAFAFA"/>
<path d="M211.635 141.336C211.635 141.336 215.195 172.336 217.885 182.271C221.075 194.086 240.885 209.981 240.885 209.981L244.91 206.561C244.91 206.561 230.54 189.296 228.1 183.061C222.89 169.781 227.35 149.991 223.185 141.326L211.635 141.336Z" fill="#3FA654"/>
<path opacity="0.6" d="M211.635 141.336C211.635 141.336 215.195 172.336 217.885 182.271C221.075 194.086 240.885 209.981 240.885 209.981L244.91 206.561C244.91 206.561 230.54 189.296 228.1 183.061C222.89 169.781 227.35 149.991 223.185 141.326L211.635 141.336Z" fill="#FAFAFA"/>
<path d="M245.565 206.38L240.575 210.615L238.715 209.5L244.355 204.25L245.565 206.38Z" fill="#3FA654"/>
<path opacity="0.4" d="M245.565 206.38L240.575 210.615L238.715 209.5L244.355 204.25L245.565 206.38Z" fill="#FAFAFA"/>
<path d="M212.95 105.27C213.01 105.575 212.895 105.855 212.695 105.895C212.495 105.935 212.285 105.715 212.225 105.395C212.165 105.075 212.28 104.81 212.48 104.77C212.68 104.73 212.89 104.96 212.95 105.27Z" fill="#263238"/>
<path d="M209.5 105.95C209.56 106.255 209.445 106.535 209.245 106.575C209.045 106.615 208.835 106.395 208.775 106.075C208.715 105.755 208.825 105.49 209.025 105.45C209.225 105.41 209.43 105.64 209.5 105.95Z" fill="#263238"/>
<path d="M209.11 105.465L208.33 105.395C208.33 105.395 208.82 105.895 209.11 105.465Z" fill="#263238"/>
<path d="M210.5 106.295C210.365 107.047 210.128 107.777 209.795 108.465C209.973 108.547 210.165 108.589 210.36 108.589C210.555 108.589 210.748 108.547 210.925 108.465L210.5 106.295Z" fill="#DF5753"/>
<path d="M212.23 109.45C212.206 109.45 212.183 109.44 212.167 109.424C212.15 109.407 212.14 109.384 212.14 109.36C212.14 109.336 212.15 109.313 212.167 109.296C212.183 109.279 212.206 109.27 212.23 109.27C212.613 109.203 212.974 109.047 213.285 108.814C213.596 108.581 213.848 108.278 214.02 107.93C214.025 107.919 214.031 107.909 214.04 107.9C214.049 107.892 214.059 107.885 214.07 107.88C214.081 107.875 214.093 107.873 214.105 107.873C214.117 107.873 214.129 107.875 214.14 107.88C214.151 107.885 214.161 107.891 214.17 107.9C214.179 107.908 214.185 107.918 214.19 107.93C214.195 107.941 214.197 107.953 214.197 107.965C214.197 107.977 214.195 107.989 214.19 108C214.009 108.378 213.74 108.708 213.405 108.96C213.07 109.212 212.679 109.38 212.265 109.45H212.23Z" fill="#263238"/>
<path d="M209 100.71C209 100.71 212.255 105.645 218.255 106.295C218.255 106.295 224.45 100.67 220.64 96.7704C214.47 90.4604 207.11 98.5004 209 100.71Z" fill="#263238"/>
<path d="M219.755 106.04C219.747 106.407 219.666 106.769 219.516 107.105C219.367 107.44 219.152 107.743 218.885 107.995C218.165 108.67 217.355 108.135 217.175 107.22C217.015 106.395 217.175 105.055 218.1 104.72C218.3 104.653 218.513 104.637 218.72 104.673C218.927 104.71 219.122 104.798 219.287 104.929C219.452 105.061 219.581 105.231 219.662 105.425C219.744 105.619 219.776 105.83 219.755 106.04Z" fill="#EBB376"/>
<path d="M213.74 103.951C213.695 103.951 213.65 103.935 213.615 103.906C213.448 103.748 213.246 103.632 213.025 103.567C212.804 103.501 212.571 103.489 212.345 103.531C212.322 103.537 212.297 103.539 212.273 103.537C212.249 103.534 212.226 103.526 212.205 103.514C212.184 103.502 212.166 103.485 212.151 103.466C212.136 103.446 212.126 103.424 212.12 103.401C212.108 103.354 212.115 103.304 212.139 103.262C212.163 103.219 212.203 103.189 212.25 103.176C212.535 103.117 212.83 103.128 213.111 103.207C213.391 103.286 213.648 103.432 213.86 103.631C213.894 103.665 213.914 103.712 213.914 103.761C213.914 103.809 213.894 103.856 213.86 103.891C213.829 103.925 213.786 103.947 213.74 103.951Z" fill="#263238"/>
<path d="M207.57 104.665C207.547 104.671 207.523 104.671 207.5 104.665C207.478 104.657 207.457 104.643 207.44 104.626C207.422 104.609 207.408 104.589 207.399 104.567C207.39 104.544 207.385 104.52 207.385 104.496C207.385 104.472 207.391 104.448 207.4 104.425C207.506 104.154 207.675 103.912 207.893 103.72C208.111 103.527 208.373 103.39 208.655 103.32C208.679 103.315 208.703 103.315 208.726 103.32C208.75 103.324 208.772 103.334 208.792 103.347C208.811 103.361 208.828 103.378 208.841 103.399C208.853 103.419 208.862 103.442 208.865 103.465C208.87 103.489 208.871 103.513 208.866 103.537C208.861 103.561 208.852 103.584 208.839 103.604C208.825 103.624 208.808 103.641 208.787 103.654C208.767 103.667 208.744 103.676 208.72 103.68C208.495 103.738 208.287 103.848 208.114 104.002C207.94 104.156 207.805 104.349 207.72 104.565C207.706 104.594 207.685 104.618 207.659 104.635C207.632 104.653 207.602 104.663 207.57 104.665Z" fill="#263238"/>
<path d="M231.5 137.165V136.72C231.5 136.12 231.415 135.545 231.355 134.965C231.052 132.719 230.574 130.501 229.925 128.33C229.297 126.18 228.55 124.066 227.685 122L224 123.5C224.745 125.43 225.45 127.465 226.095 129.465C226.405 130.465 226.7 131.465 226.955 132.465C227.21 133.465 227.455 134.465 227.63 135.465L227.735 136.13C227.39 136.015 227.035 135.89 226.675 135.74C224.785 134.97 222.855 133.97 220.95 133.01L219.845 134.625C221.54 136.097 223.368 137.41 225.305 138.545C225.826 138.846 226.365 139.114 226.92 139.345C227.232 139.48 227.552 139.592 227.88 139.68C228.075 139.735 228.274 139.777 228.475 139.805C228.742 139.839 229.013 139.839 229.28 139.805C229.721 139.766 230.143 139.607 230.5 139.345C230.944 139.015 231.258 138.539 231.385 138C231.461 137.728 231.5 137.447 231.5 137.165ZM228.81 136.42H228.9C228.955 136.415 228.885 136.425 228.785 136.42H228.81Z" fill="#EBB376"/>
<path d="M226 117.865C227.575 118.365 229.465 123.765 229.465 123.765L223.36 128.135C223.36 128.135 221.13 123.61 221.795 121.575C222.465 119.455 224.19 117.32 226 117.865Z" fill="#3FA654"/>
<path opacity="0.5" d="M226 117.865C227.575 118.365 229.465 123.765 229.465 123.765L223.36 128.135C223.36 128.135 221.13 123.61 221.795 121.575C222.465 119.455 224.19 117.32 226 117.865Z" fill="#333333"/>
<path d="M243.595 214.54C243.516 214.538 243.438 214.518 243.367 214.481C243.296 214.445 243.234 214.393 243.185 214.33C243.147 214.29 243.121 214.241 243.108 214.187C243.096 214.134 243.098 214.077 243.115 214.025C243.255 213.55 244.615 213.165 244.75 213.125C244.768 213.12 244.787 213.12 244.805 213.125C244.823 213.13 244.838 213.141 244.85 213.155C244.859 213.17 244.864 213.188 244.864 213.205C244.864 213.223 244.859 213.24 244.85 213.255C244.61 213.71 244.13 214.48 243.645 214.54H243.595ZM244.595 213.365C244.06 213.535 243.37 213.83 243.295 214.08C243.288 214.103 243.287 214.127 243.293 214.15C243.299 214.174 243.312 214.194 243.33 214.21C243.365 214.26 243.411 214.299 243.466 214.324C243.52 214.35 243.581 214.36 243.64 214.355C243.895 214.325 244.245 213.96 244.59 213.365H244.595Z" fill="#3FA654"/>
<path d="M244.165 213.38C243.765 213.422 243.365 213.309 243.045 213.065C242.999 213.009 242.974 212.938 242.974 212.865C242.974 212.792 242.999 212.722 243.045 212.665C243.085 212.608 243.136 212.56 243.196 212.524C243.255 212.488 243.321 212.464 243.39 212.455C243.94 212.39 244.79 213.11 244.825 213.145C244.838 213.155 244.848 213.168 244.853 213.183C244.859 213.198 244.859 213.215 244.855 213.23C244.853 213.247 244.846 213.262 244.836 213.274C244.825 213.287 244.811 213.296 244.795 213.3C244.59 213.358 244.378 213.385 244.165 213.38ZM243.485 212.63H243.425C243.381 212.635 243.338 212.65 243.3 212.673C243.262 212.697 243.23 212.728 243.205 212.765C243.14 212.86 243.165 212.915 243.205 212.95C243.37 213.165 244.13 213.245 244.595 213.165C244.284 212.894 243.906 212.709 243.5 212.63H243.485Z" fill="#3FA654"/>
<path d="M208.81 228.67C208.478 228.7 208.147 228.616 207.87 228.43C207.808 228.375 207.76 228.306 207.731 228.228C207.703 228.151 207.694 228.067 207.705 227.985C207.708 227.935 207.724 227.886 207.751 227.843C207.778 227.8 207.816 227.765 207.86 227.74C208.335 227.485 209.86 228.27 210.05 228.36C210.067 228.369 210.081 228.383 210.09 228.4C210.099 228.417 210.102 228.436 210.1 228.455C210.098 228.474 210.09 228.491 210.078 228.504C210.065 228.518 210.048 228.527 210.03 228.53C209.629 228.617 209.22 228.664 208.81 228.67ZM208.12 227.87C208.061 227.866 208.003 227.879 207.95 227.905C207.932 227.914 207.917 227.927 207.906 227.944C207.896 227.961 207.89 227.98 207.89 228C207.88 228.054 207.885 228.11 207.903 228.162C207.922 228.213 207.953 228.259 207.995 228.295C208.23 228.505 208.865 228.545 209.725 228.4C209.224 228.134 208.681 227.954 208.12 227.87Z" fill="#3FA654"/>
<path d="M210 228.535H209.96C209.5 228.325 208.59 227.495 208.66 227.035C208.66 226.93 208.75 226.8 209.005 226.775C209.095 226.765 209.186 226.775 209.272 226.802C209.358 226.83 209.438 226.875 209.505 226.935C210.005 227.34 210.085 228.38 210.085 228.435C210.088 228.451 210.086 228.466 210.079 228.481C210.073 228.495 210.063 228.507 210.05 228.515C210.036 228.527 210.018 228.534 210 228.535ZM209.08 226.965H209.025C208.855 226.965 208.845 227.045 208.84 227.07C208.8 227.33 209.415 227.99 209.885 228.275C209.85 227.834 209.675 227.415 209.385 227.08C209.302 227.011 209.198 226.971 209.09 226.965H209.08Z" fill="#3FA654"/>
<path d="M221.5 133.455L220.2 129.48L218.13 132.825C218.13 132.825 219.35 134.99 220.96 134.955L221.5 133.455Z" fill="#EBB376"/>
<path d="M217.485 127.67L215.905 130.565L218.115 132.825L220.185 129.48L217.485 127.67Z" fill="#EBB376"/>
<path d="M212.57 104.785L211.795 104.715C211.795 104.715 212.285 105.215 212.57 104.785Z" fill="#263238"/>
<path d="M223.435 140.41L223.84 141.82C223.895 141.925 223.765 142.04 223.58 142.04H207.41C207.265 142.04 207.15 141.97 207.14 141.88L207 140.5C207 140.4 207.11 140.32 207.265 140.32H223.18C223.227 140.313 223.274 140.317 223.319 140.333C223.363 140.348 223.403 140.375 223.435 140.41Z" fill="#263238"/>
<path d="M221.3 142.19H221.725C221.81 142.19 221.875 142.145 221.87 142.095L221.67 140.265C221.67 140.21 221.59 140.17 221.505 140.17H221.08C220.995 140.17 220.93 140.21 220.935 140.265L221.135 142.095C221.14 142.145 221.215 142.19 221.3 142.19Z" fill="#3FA654"/>
<path opacity="0.6" d="M221.3 142.19H221.725C221.81 142.19 221.875 142.145 221.87 142.095L221.67 140.265C221.67 140.21 221.59 140.17 221.505 140.17H221.08C220.995 140.17 220.93 140.21 220.935 140.265L221.135 142.095C221.14 142.145 221.215 142.19 221.3 142.19Z" fill="#FAFAFA"/>
<path d="M208.605 142.19H209.03C209.115 142.19 209.18 142.145 209.175 142.095L208.975 140.265C208.975 140.21 208.895 140.17 208.81 140.17H208.385C208.3 140.17 208.235 140.21 208.24 140.265L208.44 142.095C208.445 142.145 208.5 142.19 208.605 142.19Z" fill="#3FA654"/>
<path opacity="0.6" d="M208.605 142.19H209.03C209.115 142.19 209.18 142.145 209.175 142.095L208.975 140.265C208.975 140.21 208.895 140.17 208.81 140.17H208.385C208.3 140.17 208.235 140.21 208.24 140.265L208.44 142.095C208.445 142.145 208.5 142.19 208.605 142.19Z" fill="#FAFAFA"/>
<path d="M214.95 142.19H215.38C215.465 142.19 215.53 142.145 215.52 142.095L215.32 140.265C215.32 140.21 215.24 140.17 215.155 140.17H214.73C214.645 140.17 214.58 140.21 214.585 140.265L214.785 142.095C214.799 142.126 214.822 142.153 214.852 142.17C214.882 142.187 214.916 142.194 214.95 142.19Z" fill="#3FA654"/>
<path opacity="0.6" d="M214.95 142.19H215.38C215.465 142.19 215.53 142.145 215.52 142.095L215.32 140.265C215.32 140.21 215.24 140.17 215.155 140.17H214.73C214.645 140.17 214.58 140.21 214.585 140.265L214.785 142.095C214.799 142.126 214.822 142.153 214.852 142.17C214.882 142.187 214.916 142.194 214.95 142.19Z" fill="#FAFAFA"/>
<path d="M164.8 233.12H197.875C198.647 233.129 199.412 232.977 200.121 232.673C200.83 232.369 201.468 231.92 201.993 231.355C202.518 230.79 202.92 230.122 203.172 229.392C203.424 228.663 203.52 227.889 203.455 227.12L195.545 114C195.408 112.383 194.676 110.874 193.49 109.765C192.303 108.657 190.748 108.028 189.125 108H156.05C155.279 107.991 154.514 108.144 153.805 108.448C153.096 108.752 152.458 109.201 151.933 109.766C151.407 110.331 151.006 110.999 150.754 111.728C150.502 112.458 150.405 113.232 150.47 114L158.38 227.125C158.519 228.742 159.252 230.25 160.438 231.357C161.623 232.465 163.178 233.093 164.8 233.12Z" fill="#3FA654"/>
<path opacity="0.2" d="M164.8 233.12H197.875C198.647 233.129 199.412 232.977 200.121 232.673C200.83 232.369 201.468 231.92 201.993 231.355C202.518 230.79 202.92 230.122 203.172 229.392C203.424 228.663 203.52 227.889 203.455 227.12L195.545 114C195.408 112.383 194.676 110.874 193.49 109.765C192.303 108.657 190.748 108.028 189.125 108H156.05C155.279 107.991 154.514 108.144 153.805 108.448C153.096 108.752 152.458 109.201 151.933 109.766C151.407 110.331 151.006 110.999 150.754 111.728C150.502 112.458 150.405 113.232 150.47 114L158.38 227.125C158.519 228.742 159.252 230.25 160.438 231.357C161.623 232.465 163.178 233.093 164.8 233.12Z" fill="#333333"/>
<path d="M147.329 148.881L146.83 148.916L147.381 156.797L147.88 156.762L147.329 148.881Z" fill="#3FA654"/>
<path opacity="0.5" d="M147.329 148.881L146.83 148.916L147.381 156.797L147.88 156.762L147.329 148.881Z" fill="#333333"/>
<path d="M160.47 233.12H193.54C194.312 233.129 195.077 232.977 195.786 232.673C196.495 232.369 197.133 231.92 197.658 231.355C198.183 230.79 198.585 230.122 198.837 229.392C199.088 228.663 199.185 227.889 199.12 227.12L191.21 114C191.073 112.383 190.34 110.874 189.154 109.765C187.968 108.657 186.413 108.028 184.79 108H151.72C150.949 107.991 150.184 108.144 149.475 108.448C148.766 108.752 148.128 109.201 147.602 109.766C147.077 110.331 146.676 110.999 146.424 111.728C146.172 112.458 146.075 113.232 146.14 114L154.05 227.12C154.187 228.738 154.92 230.247 156.106 231.355C157.292 232.464 158.847 233.093 160.47 233.12Z" fill="#3FA654"/>
<path opacity="0.5" d="M160.47 233.12H193.54C194.312 233.129 195.077 232.977 195.786 232.673C196.495 232.369 197.133 231.92 197.658 231.355C198.183 230.79 198.585 230.122 198.837 229.392C199.088 228.663 199.185 227.889 199.12 227.12L191.21 114C191.073 112.383 190.34 110.874 189.154 109.765C187.968 108.657 186.413 108.028 184.79 108H151.72C150.949 107.991 150.184 108.144 149.475 108.448C148.766 108.752 148.128 109.201 147.602 109.766C147.077 110.331 146.676 110.999 146.424 111.728C146.172 112.458 146.075 113.232 146.14 114L154.05 227.12C154.187 228.738 154.92 230.247 156.106 231.355C157.292 232.464 158.847 233.093 160.47 233.12Z" fill="#333333"/>
<path d="M166.61 144.03H172.73C172.874 144.036 173.018 144.011 173.151 143.956C173.284 143.901 173.404 143.818 173.503 143.713C173.601 143.607 173.675 143.482 173.721 143.345C173.766 143.208 173.781 143.063 173.765 142.92L172.3 121.97C172.275 121.67 172.14 121.39 171.919 121.185C171.699 120.98 171.411 120.864 171.11 120.86H165C164.856 120.855 164.713 120.881 164.581 120.936C164.448 120.991 164.329 121.074 164.231 121.179C164.133 121.285 164.059 121.41 164.014 121.546C163.969 121.683 163.954 121.827 163.97 121.97L165.435 142.92C165.46 143.217 165.593 143.495 165.81 143.7C166.027 143.905 166.312 144.022 166.61 144.03Z" fill="#3FA654"/>
<path opacity="0.2" d="M166.61 144.03H172.73C172.874 144.036 173.018 144.011 173.151 143.956C173.284 143.901 173.404 143.818 173.503 143.713C173.601 143.607 173.675 143.482 173.721 143.345C173.766 143.208 173.781 143.063 173.765 142.92L172.3 121.97C172.275 121.67 172.14 121.39 171.919 121.185C171.699 120.98 171.411 120.864 171.11 120.86H165C164.856 120.855 164.713 120.881 164.581 120.936C164.448 120.991 164.329 121.074 164.231 121.179C164.133 121.285 164.059 121.41 164.014 121.546C163.969 121.683 163.954 121.827 163.97 121.97L165.435 142.92C165.46 143.217 165.593 143.495 165.81 143.7C166.027 143.905 166.312 144.022 166.61 144.03Z" fill="#333333"/>
<path d="M129.125 233.12H96.0503C95.2788 233.129 94.514 232.977 93.8048 232.673C93.0957 232.369 92.458 231.92 91.9326 231.355C91.4071 230.79 91.0056 230.122 90.7538 229.392C90.502 228.663 90.4054 227.889 90.4703 227.12L98.3803 114C98.5186 112.383 99.2514 110.875 100.437 109.767C101.623 108.658 103.178 108.029 104.8 108H137.875C138.647 107.991 139.412 108.144 140.121 108.448C140.83 108.752 141.468 109.201 141.993 109.766C142.518 110.331 142.92 110.999 143.172 111.728C143.424 112.458 143.52 113.232 143.455 114L135.545 227.12C135.408 228.738 134.676 230.247 133.49 231.355C132.304 232.464 130.748 233.093 129.125 233.12Z" fill="#3FA654"/>
<path opacity="0.5" d="M129.125 233.12H96.0503C95.2788 233.129 94.514 232.977 93.8048 232.673C93.0957 232.369 92.458 231.92 91.9326 231.355C91.4071 230.79 91.0056 230.122 90.7538 229.392C90.502 228.663 90.4054 227.889 90.4703 227.12L98.3803 114C98.5186 112.383 99.2514 110.875 100.437 109.767C101.623 108.658 103.178 108.029 104.8 108H137.875C138.647 107.991 139.412 108.144 140.121 108.448C140.83 108.752 141.468 109.201 141.993 109.766C142.518 110.331 142.92 110.999 143.172 111.728C143.424 112.458 143.52 113.232 143.455 114L135.545 227.12C135.408 228.738 134.676 230.247 133.49 231.355C132.304 232.464 130.748 233.093 129.125 233.12Z" fill="#333333"/>
<path d="M115.215 106.246H113.35V106.746H115.215V106.246Z" fill="#3FA654"/>
<path opacity="0.3" d="M115.215 106.246H113.35V106.746H115.215V106.246Z" fill="#333333"/>
<path d="M110.005 106.246H104.14V106.746H110.005V106.246Z" fill="#3FA654"/>
<path opacity="0.3" d="M110.005 106.246H104.14V106.746H110.005V106.246Z" fill="#333333"/>
<path d="M124.79 233.12H91.7202C90.9487 233.129 90.1839 232.977 89.4748 232.673C88.7656 232.369 88.1279 231.92 87.6025 231.355C87.0771 230.79 86.6756 230.122 86.4237 229.392C86.1719 228.663 86.0753 227.889 86.1402 227.12L94.0502 114C94.1874 112.383 94.9199 110.874 96.106 109.765C97.292 108.657 98.8471 108.028 100.47 108H133.54C134.312 107.991 135.077 108.144 135.786 108.448C136.495 108.752 137.133 109.201 137.658 109.766C138.183 110.331 138.585 110.999 138.837 111.728C139.089 112.458 139.185 113.232 139.12 114L131.21 227.12C131.073 228.738 130.34 230.247 129.154 231.355C127.968 232.464 126.413 233.093 124.79 233.12Z" fill="#3FA654"/>
<path opacity="0.3" d="M124.79 233.12H91.7202C90.9487 233.129 90.1839 232.977 89.4748 232.673C88.7656 232.369 88.1279 231.92 87.6025 231.355C87.0771 230.79 86.6756 230.122 86.4237 229.392C86.1719 228.663 86.0753 227.889 86.1402 227.12L94.0502 114C94.1874 112.383 94.9199 110.874 96.106 109.765C97.292 108.657 98.8471 108.028 100.47 108H133.54C134.312 107.991 135.077 108.144 135.786 108.448C136.495 108.752 137.133 109.201 137.658 109.766C138.183 110.331 138.585 110.999 138.837 111.728C139.089 112.458 139.185 113.232 139.12 114L131.21 227.12C131.073 228.738 130.34 230.247 129.154 231.355C127.968 232.464 126.413 233.093 124.79 233.12Z" fill="#333333"/>
<path d="M129.75 226.611H86.205C86.1006 226.61 85.9974 226.588 85.9018 226.547C85.8061 226.505 85.7201 226.444 85.6489 226.367C85.5777 226.291 85.5229 226.201 85.4878 226.103C85.4527 226.004 85.4382 225.9 85.445 225.796L93.15 115.601C93.1639 115.407 93.2506 115.227 93.3926 115.095C93.5346 114.963 93.7213 114.89 93.915 114.891H137.455C137.56 114.89 137.664 114.912 137.76 114.953C137.856 114.995 137.943 115.056 138.014 115.132C138.086 115.208 138.141 115.299 138.177 115.398C138.212 115.496 138.227 115.601 138.22 115.706L130.5 225.901C130.487 226.092 130.403 226.271 130.264 226.403C130.125 226.534 129.941 226.609 129.75 226.611Z" fill="#3FA654"/>
<path opacity="0.9" d="M129.75 226.611H86.205C86.1006 226.61 85.9974 226.588 85.9018 226.547C85.8061 226.505 85.7201 226.444 85.6489 226.367C85.5777 226.291 85.5229 226.201 85.4878 226.103C85.4527 226.004 85.4382 225.9 85.445 225.796L93.15 115.601C93.1639 115.407 93.2506 115.227 93.3926 115.095C93.5346 114.963 93.7213 114.89 93.915 114.891H137.455C137.56 114.89 137.664 114.912 137.76 114.953C137.856 114.995 137.943 115.056 138.014 115.132C138.086 115.208 138.141 115.299 138.177 115.398C138.212 115.496 138.227 115.601 138.22 115.706L130.5 225.901C130.487 226.092 130.403 226.271 130.264 226.403C130.125 226.534 129.941 226.609 129.75 226.611Z" fill="#FAFAFA"/>
<path d="M128.69 126.17H100.425C99.6566 126.183 98.9205 126.481 98.359 127.006C97.7975 127.53 97.4504 128.244 97.3849 129.01L94.4399 171.11C94.4092 171.474 94.455 171.841 94.5745 172.186C94.6939 172.532 94.8843 172.848 95.1334 173.116C95.3825 173.383 95.6848 173.596 96.0209 173.739C96.357 173.883 96.7195 173.955 97.0849 173.95H99.0449L98.0449 177.035C100.357 176.827 102.496 175.719 104 173.95H125.35C126.118 173.937 126.854 173.639 127.416 173.114C127.977 172.59 128.324 171.876 128.39 171.11L131.335 129.01C131.365 128.646 131.319 128.28 131.199 127.935C131.079 127.59 130.889 127.273 130.64 127.006C130.391 126.739 130.089 126.526 129.753 126.382C129.417 126.238 129.055 126.166 128.69 126.17Z" fill="#3FA654"/>
<path opacity="0.6" d="M128.69 126.17H100.425C99.6566 126.183 98.9205 126.481 98.359 127.006C97.7975 127.53 97.4504 128.244 97.3849 129.01L94.4399 171.11C94.4092 171.474 94.455 171.841 94.5745 172.186C94.6939 172.532 94.8843 172.848 95.1334 173.116C95.3825 173.383 95.6848 173.596 96.0209 173.739C96.357 173.883 96.7195 173.955 97.0849 173.95H99.0449L98.0449 177.035C100.357 176.827 102.496 175.719 104 173.95H125.35C126.118 173.937 126.854 173.639 127.416 173.114C127.977 172.59 128.324 171.876 128.39 171.11L131.335 129.01C131.365 128.646 131.319 128.28 131.199 127.935C131.079 127.59 130.889 127.273 130.64 127.006C130.391 126.739 130.089 126.526 129.753 126.382C129.417 126.238 129.055 126.166 128.69 126.17Z" fill="#FAFAFA"/>
<path d="M96.5001 182.426H124.765C125.131 182.421 125.493 182.493 125.829 182.637C126.165 182.78 126.467 182.993 126.717 183.26C126.966 183.528 127.156 183.844 127.276 184.19C127.395 184.535 127.441 184.902 127.41 185.266L126.145 203.351C126.08 204.117 125.733 204.831 125.171 205.355C124.609 205.88 123.873 206.178 123.105 206.191H121.14L121.69 209.276C120.606 209.185 119.554 208.863 118.605 208.331C117.656 207.799 116.833 207.069 116.19 206.191H94.8301C94.4646 206.196 94.1021 206.124 93.766 205.98C93.4299 205.837 93.1276 205.624 92.8785 205.357C92.6294 205.089 92.439 204.773 92.3196 204.427C92.2002 204.082 92.1543 203.715 92.1851 203.351L93.4501 185.266C93.5157 184.499 93.8642 183.783 94.4278 183.258C94.9914 182.733 95.73 182.437 96.5001 182.426Z" fill="#3FA654"/>
<path opacity="0.6" d="M96.5001 182.426H124.765C125.131 182.421 125.493 182.493 125.829 182.637C126.165 182.78 126.467 182.993 126.717 183.26C126.966 183.528 127.156 183.844 127.276 184.19C127.395 184.535 127.441 184.902 127.41 185.266L126.145 203.351C126.08 204.117 125.733 204.831 125.171 205.355C124.609 205.88 123.873 206.178 123.105 206.191H121.14L121.69 209.276C120.606 209.185 119.554 208.863 118.605 208.331C117.656 207.799 116.833 207.069 116.19 206.191H94.8301C94.4646 206.196 94.1021 206.124 93.766 205.98C93.4299 205.837 93.1276 205.624 92.8785 205.357C92.6294 205.089 92.439 204.773 92.3196 204.427C92.2002 204.082 92.1543 203.715 92.1851 203.351L93.4501 185.266C93.5157 184.499 93.8642 183.783 94.4278 183.258C94.9914 182.733 95.73 182.437 96.5001 182.426Z" fill="#FAFAFA"/>
<path d="M122.025 111.166C122.006 111.419 121.892 111.656 121.707 111.831C121.523 112.006 121.28 112.105 121.025 112.111C120.904 112.113 120.783 112.089 120.671 112.041C120.559 111.994 120.458 111.923 120.375 111.834C120.292 111.745 120.229 111.639 120.19 111.524C120.15 111.409 120.135 111.287 120.145 111.166C120.167 110.913 120.281 110.677 120.466 110.503C120.65 110.329 120.892 110.228 121.145 110.221C121.267 110.219 121.388 110.243 121.5 110.29C121.612 110.338 121.712 110.409 121.795 110.498C121.878 110.587 121.942 110.692 121.981 110.807C122.021 110.922 122.036 111.045 122.025 111.166Z" fill="#3FA654"/>
<path opacity="0.5" d="M122.025 111.166C122.006 111.419 121.892 111.656 121.707 111.831C121.523 112.006 121.28 112.105 121.025 112.111C120.904 112.113 120.783 112.089 120.671 112.041C120.559 111.994 120.458 111.923 120.375 111.834C120.292 111.745 120.229 111.639 120.19 111.524C120.15 111.409 120.135 111.287 120.145 111.166C120.167 110.913 120.281 110.677 120.466 110.503C120.65 110.329 120.892 110.228 121.145 110.221C121.267 110.219 121.388 110.243 121.5 110.29C121.612 110.338 121.712 110.409 121.795 110.498C121.878 110.587 121.942 110.692 121.981 110.807C122.021 110.922 122.036 111.045 122.025 111.166Z" fill="#333333"/>
<path d="M117.155 112.111H110.56C110.439 112.112 110.318 112.088 110.207 112.04C110.095 111.992 109.995 111.921 109.912 111.832C109.829 111.743 109.766 111.638 109.726 111.523C109.686 111.409 109.67 111.287 109.68 111.166C109.701 110.913 109.815 110.676 109.999 110.502C110.184 110.327 110.426 110.227 110.68 110.221H117.275C117.397 110.22 117.517 110.244 117.628 110.292C117.74 110.34 117.84 110.411 117.923 110.499C118.006 110.588 118.069 110.693 118.109 110.808C118.149 110.923 118.165 111.045 118.155 111.166C118.134 111.419 118.021 111.655 117.836 111.83C117.651 112.004 117.409 112.104 117.155 112.111Z" fill="#3FA654"/>
<path opacity="0.5" d="M117.155 112.111H110.56C110.439 112.112 110.318 112.088 110.207 112.04C110.095 111.992 109.995 111.921 109.912 111.832C109.829 111.743 109.766 111.638 109.726 111.523C109.686 111.409 109.67 111.287 109.68 111.166C109.701 110.913 109.815 110.676 109.999 110.502C110.184 110.327 110.426 110.227 110.68 110.221H117.275C117.397 110.22 117.517 110.244 117.628 110.292C117.74 110.34 117.84 110.411 117.923 110.499C118.006 110.588 118.069 110.693 118.109 110.808C118.149 110.923 118.165 111.045 118.155 111.166C118.134 111.419 118.021 111.655 117.836 111.83C117.651 112.004 117.409 112.104 117.155 112.111Z" fill="#333333"/>
<path d="M81.9451 133.836L82.7301 135.371C83.0051 135.871 83.2851 136.416 83.5751 136.931C84.1551 137.966 84.7451 138.991 85.3651 139.986C86.5485 141.946 87.9039 143.796 89.4151 145.516C89.7901 145.891 90.1951 146.341 90.4551 146.546C90.8185 146.839 91.2066 147.1 91.6151 147.326C92.5888 147.84 93.602 148.274 94.6451 148.626C96.8928 149.372 99.1816 149.988 101.5 150.471L101.34 153.226C98.7363 153.379 96.1235 153.226 93.5551 152.771C92.1868 152.534 90.8464 152.157 89.5551 151.646C88.8366 151.359 88.1497 150.999 87.5051 150.571C87.1715 150.349 86.8541 150.103 86.5551 149.836L85.7651 149.141C83.8572 147.29 82.1633 145.23 80.7151 143.001C79.9901 141.916 79.3051 140.816 78.6801 139.686C78.3651 139.121 78.0551 138.551 77.7601 137.976C77.4651 137.401 77.1851 136.841 76.8901 136.191L81.9451 133.836Z" fill="#EBB376"/>
<path d="M100.5 150.47L102.725 148.9L103.9 153.44C103.9 153.44 101.94 154.13 100.465 153.135L100.5 150.47Z" fill="#EBB376"/>
<path d="M105.795 147.871L106.585 151.671L103.895 153.441L102.72 148.901L105.795 147.871Z" fill="#EBB376"/>
<path d="M96.2102 118.331C96.1502 118.621 96.2552 118.886 96.4452 118.926C96.6352 118.966 96.8402 118.766 96.9002 118.476C96.9602 118.186 96.8552 117.916 96.6652 117.876C96.4752 117.836 96.2702 118.041 96.2102 118.331Z" fill="#263238"/>
<path d="M96.2302 118.881C96.3911 119.839 96.6821 120.771 97.0951 121.651C96.8685 121.752 96.6224 121.801 96.3743 121.796C96.1262 121.791 95.8824 121.731 95.6602 121.621L96.2302 118.881Z" fill="#DF5753"/>
<path d="M97 116.556C96.9661 116.555 96.9331 116.545 96.905 116.526C96.7131 116.422 96.4993 116.365 96.2811 116.36C96.063 116.355 95.8467 116.401 95.65 116.496C95.6082 116.515 95.5606 116.516 95.5176 116.5C95.4746 116.484 95.4396 116.452 95.42 116.411C95.4102 116.39 95.4047 116.367 95.4039 116.344C95.4031 116.321 95.4071 116.298 95.4155 116.276C95.4239 116.255 95.4366 116.235 95.4529 116.219C95.4692 116.202 95.4886 116.189 95.51 116.181C95.7592 116.062 96.0334 116.005 96.3092 116.015C96.5851 116.024 96.8546 116.1 97.095 116.236C97.1144 116.248 97.1311 116.264 97.1442 116.283C97.1573 116.301 97.1665 116.323 97.1711 116.345C97.1758 116.368 97.1759 116.391 97.1714 116.413C97.1669 116.436 97.1579 116.457 97.145 116.476C97.1297 116.5 97.1083 116.521 97.0829 116.535C97.0575 116.549 97.029 116.556 97 116.556Z" fill="#263238"/>
<path d="M85.9203 119.262C86.4203 121.947 86.9703 126.872 85.0903 128.662C85.0903 128.662 85.8253 131.392 90.8203 131.392C96.3203 131.392 93.4403 128.662 93.4403 128.662C90.4403 127.947 90.5253 125.727 91.0453 123.662L85.9203 119.262Z" fill="#EBB376"/>
<path d="M84.3301 129.43C83.9701 128.55 84.0301 126.93 84.2951 126.905C85.3351 126.835 90.8851 126.82 92.7201 127.525C92.9628 127.601 93.1878 127.725 93.3821 127.89C93.5765 128.054 93.7362 128.255 93.852 128.482C93.9679 128.708 94.0375 128.956 94.057 129.209C94.0764 129.463 94.0451 129.718 93.9651 129.96L84.3301 129.43Z" fill="#3FA654"/>
<path d="M72.0649 230.001C71.7422 229.999 71.4205 229.964 71.1049 229.896C71.0887 229.893 71.0738 229.885 71.0622 229.874C71.0505 229.862 71.0428 229.847 71.0399 229.831C71.0377 229.814 71.0397 229.797 71.0459 229.781C71.052 229.766 71.062 229.752 71.0749 229.741C71.1199 229.711 72.1349 229.021 72.6699 229.141C72.7277 229.154 72.7822 229.178 72.8296 229.214C72.877 229.249 72.9164 229.294 72.9449 229.346C72.9885 229.406 73.0119 229.479 73.0119 229.553C73.0119 229.628 72.9885 229.701 72.9449 229.761C72.8217 229.858 72.6803 229.929 72.5292 229.97C72.3781 230.011 72.2202 230.022 72.0649 230.001ZM71.3499 229.771C71.8999 229.861 72.6499 229.861 72.8099 229.651C72.8099 229.651 72.8699 229.571 72.8099 229.431C72.7937 229.4 72.771 229.374 72.7434 229.353C72.7157 229.332 72.6838 229.318 72.6499 229.311C72.1794 229.334 71.7267 229.498 71.3499 229.781V229.771Z" fill="#3FA654"/>
<path d="M71.1252 229.91H71.0802C71.0663 229.902 71.0551 229.89 71.048 229.876C71.0409 229.862 71.0382 229.846 71.0402 229.83C71.0402 229.785 71.1302 228.725 71.5402 228.375C71.5921 228.333 71.6521 228.301 71.7165 228.282C71.781 228.263 71.8485 228.257 71.9152 228.265C71.9805 228.266 72.0434 228.29 72.0934 228.331C72.1435 228.373 72.1776 228.431 72.1902 228.495C72.2652 228.905 71.5302 229.705 71.1552 229.915L71.1252 229.91ZM71.8652 228.41C71.7933 228.411 71.7241 228.438 71.6702 228.485C71.4104 228.815 71.2585 229.216 71.2352 229.635C71.6102 229.35 72.0802 228.745 72.0352 228.5C72.0352 228.5 72.0352 228.425 71.9052 228.41H71.8652Z" fill="#3FA654"/>
<path d="M66.8853 229.821H70.5603L73.9453 221.316H70.2753L66.8853 229.821Z" fill="#EBB376"/>
<path d="M70.8502 229.396H66.7252C66.6515 229.397 66.5803 229.423 66.5231 229.469C66.4658 229.515 66.426 229.58 66.4102 229.651L65.6852 232.916C65.6686 232.996 65.6702 233.078 65.6898 233.157C65.7094 233.236 65.7466 233.309 65.7985 233.372C65.8504 233.434 65.9157 233.484 65.9896 233.518C66.0634 233.552 66.144 233.568 66.2252 233.566C67.6652 233.541 68.3652 233.456 70.1802 233.456C71.2952 233.456 73.5952 233.576 75.1402 233.576C76.6852 233.576 76.8802 232.076 76.2502 231.911C73.4202 231.291 72.3552 230.436 71.4502 229.626C71.2858 229.478 71.0718 229.396 70.8502 229.396Z" fill="#263238"/>
<path d="M100.755 132.236C101.85 134.236 102.93 136.286 103.995 138.316L107.185 144.411L107.985 145.911C108.154 146.275 108.355 146.623 108.585 146.951C109.144 147.625 109.822 148.189 110.585 148.616C112.433 149.671 114.396 150.51 116.435 151.116L116.125 153.856C115.498 153.87 114.87 153.85 114.245 153.796C113.624 153.757 113.004 153.685 112.39 153.581C111.119 153.385 109.873 153.05 108.675 152.581C107.311 152.069 106.063 151.289 105.005 150.286C104.479 149.741 104.017 149.137 103.63 148.486L102.69 146.986C101.46 144.986 100.275 142.976 99.1352 140.956C98.0002 138.921 96.9002 136.881 95.8452 134.796L100.755 132.236Z" fill="#EBB376"/>
<path d="M75.7701 131.706C74.2701 134.911 79.0651 145.031 79.0651 145.031L87.2551 141.231C86.3613 138.36 85.248 135.562 83.9251 132.861C81.7851 128.616 77.2901 128.431 75.7701 131.706Z" fill="#3FA654"/>
<path opacity="0.8" d="M75.7701 131.706C74.2701 134.911 79.0651 145.031 79.0651 145.031L87.2551 141.231C86.3613 138.36 85.248 135.562 83.9251 132.861C81.7851 128.616 77.2901 128.431 75.7701 131.706Z" fill="#FAFAFA"/>
<path d="M80.1649 132.361L78.3149 143.336C78.7549 144.371 79.0649 145.031 79.0649 145.031L87.2549 141.231C87.2549 141.231 83.5549 134.836 80.1649 132.361Z" fill="#3FA654"/>
<path opacity="0.7" d="M80.1649 132.361L78.3149 143.336C78.7549 144.371 79.0649 145.031 79.0649 145.031L87.2549 141.231C87.2549 141.231 83.5549 134.836 80.1649 132.361Z" fill="#FAFAFA"/>
<path d="M99.0901 129.681C99.0901 129.681 103 134.101 99.3101 161.431H79.6651C79.5251 158.431 81.4201 143.706 78.5151 129.491C80.6866 129.073 82.8829 128.796 85.0901 128.661C87.8712 128.501 90.6591 128.501 93.4401 128.661C95.3468 128.856 97.2357 129.197 99.0901 129.681Z" fill="#3FA654"/>
<path opacity="0.8" d="M99.0901 129.681C99.0901 129.681 103 134.101 99.3101 161.431H79.6651C79.5251 158.431 81.4201 143.706 78.5151 129.491C80.6866 129.073 82.8829 128.796 85.0901 128.661C87.8712 128.501 90.6591 128.501 93.4401 128.661C95.3468 128.856 97.2357 129.197 99.0901 129.681Z" fill="#FAFAFA"/>
<path d="M100.675 136.186L97.6401 143.686L100.675 148.101C100.975 144.135 100.975 140.152 100.675 136.186Z" fill="#3FA654"/>
<path opacity="0.7" d="M100.675 136.186L97.6401 143.686L100.675 148.101C100.975 144.135 100.975 140.152 100.675 136.186Z" fill="#FAFAFA"/>
<path d="M94.3102 132.105C93.1002 135.405 97.9602 145.415 97.9602 145.415L106.76 140.98C105.633 137.98 104.188 135.108 102.45 132.415C99.8152 128.565 95.6402 128.5 94.3102 132.105Z" fill="#3FA654"/>
<path opacity="0.8" d="M94.3102 132.105C93.1002 135.405 97.9602 145.415 97.9602 145.415L106.76 140.98C105.633 137.98 104.188 135.108 102.45 132.415C99.8152 128.565 95.6402 128.5 94.3102 132.105Z" fill="#FAFAFA"/>
<path d="M115.705 151.247L119.305 149.807L120.305 154.147C120.305 154.147 117.445 155.182 115.365 153.677L115.705 151.247Z" fill="#EBB376"/>
<path d="M123.275 149.852L122.72 153.732L120.3 154.147L119.305 149.807L123.275 149.852Z" fill="#EBB376"/>
<path d="M70.2703 221.32H73.9453L71.5103 227.43L68.1104 226.74L70.2703 221.32Z" fill="#CF6F64"/>
<path d="M86.6651 115.701C86.1651 119.306 85.6651 121.391 87.0701 123.596C89.2051 126.911 93.9401 126.196 95.5301 122.816C96.9651 119.776 97.5801 114.386 94.3901 112.241C93.6867 111.771 92.8757 111.488 92.0331 111.418C91.1905 111.347 90.3438 111.492 89.5721 111.837C88.8004 112.183 88.129 112.719 87.6206 113.394C87.1122 114.07 86.7835 114.863 86.6651 115.701Z" fill="#EBB376"/>
<path d="M100.525 109.641C97.4154 106.766 99.8754 106.036 99.8754 106.036C99.8754 106.036 96.4654 104.626 97.8154 107.646C99.7004 111.856 94.4204 110.561 91.8904 107.646C90.3304 105.846 86.2254 107.691 86.4254 109.446C86.6254 111.201 80.1754 109.841 83.0954 113.671C83.1504 117.671 84.7054 121.561 86.7704 122.616C90.3104 124.421 92.9654 119.371 93.9554 115.326C99.2954 117.891 103.745 112.616 100.525 109.641Z" fill="#263238"/>
<path d="M91.2554 117.735C91.2755 118.645 91.5934 119.524 92.1604 120.235C92.9154 121.155 93.7754 120.65 93.9754 119.585C94.1554 118.625 93.9754 116.99 93.0254 116.455C92.0754 115.92 91.2504 116.645 91.2554 117.735Z" fill="#EBB376"/>
<path d="M83.1304 109.926C84.735 109.865 86.309 110.377 87.5704 111.371C87.5704 111.371 86.6654 107.501 83.1304 109.926Z" fill="#263238"/>
<path d="M90.7052 161.432C90.7052 161.432 91.4402 176.312 94.1552 189.432C95.0202 193.587 94.4552 198.037 92.0202 201.512C84.8652 211.717 73.5202 225.307 73.5202 225.307L67.5752 224.642C67.5752 224.642 77.2002 206.797 82.1302 197.932C83.2502 195.932 84.2402 194.102 83.3952 191.932C75.2302 171.207 79.6452 161.432 79.6452 161.432H90.7052Z" fill="#3FA654"/>
<path opacity="0.3" d="M90.7052 161.432C90.7052 161.432 91.4402 176.312 94.1552 189.432C95.0202 193.587 94.4552 198.037 92.0202 201.512C84.8652 211.717 73.5202 225.307 73.5202 225.307L67.5752 224.642C67.5752 224.642 77.2002 206.797 82.1302 197.932C83.2502 195.932 84.2402 194.102 83.3952 191.932C75.2302 171.207 79.6452 161.432 79.6452 161.432H90.7052Z" fill="#333333"/>
<path d="M91.8101 174.29L86.1201 167.5C85.9051 170.545 87.7451 181.935 94.0551 188.935C93.0501 184 92.3251 178.795 91.8101 174.29Z" fill="#3FA654"/>
<path opacity="0.4" d="M91.8101 174.29L86.1201 167.5C85.9051 170.545 87.7451 181.935 94.0551 188.935C93.0501 184 92.3251 178.795 91.8101 174.29Z" fill="#333333"/>
<path d="M75.1952 224.401L74.0302 226.811L66.8652 224.971L67.4352 222.736L75.1952 224.401Z" fill="#3FA654"/>
<path opacity="0.1" d="M75.1952 224.401L74.0302 226.811L66.8652 224.971L67.4352 222.736L75.1952 224.401Z" fill="#333333"/>
<path d="M96.5454 229.821H100.215L101.29 221.316H97.6204L96.5454 229.821Z" fill="#EBB376"/>
<path d="M101.825 230.001C101.446 230.001 101.068 229.966 100.695 229.896C100.678 229.894 100.662 229.885 100.649 229.873C100.636 229.86 100.628 229.844 100.625 229.826C100.622 229.809 100.625 229.79 100.633 229.774C100.641 229.758 100.654 229.745 100.67 229.736C100.725 229.706 102.005 228.976 102.62 229.141C102.678 229.155 102.732 229.18 102.779 229.215C102.826 229.251 102.866 229.295 102.895 229.346C102.934 229.402 102.955 229.468 102.955 229.536C102.955 229.604 102.934 229.671 102.895 229.726C102.75 229.946 102.295 230.001 101.825 230.001ZM100.975 229.771C101.665 229.866 102.595 229.851 102.76 229.621C102.76 229.591 102.805 229.541 102.76 229.431C102.742 229.401 102.717 229.374 102.688 229.353C102.659 229.333 102.625 229.318 102.59 229.311C102.195 229.216 101.425 229.551 101 229.781L100.975 229.771Z" fill="#3FA654"/>
<path d="M100.71 229.911C100.694 229.915 100.676 229.915 100.66 229.911C100.649 229.901 100.639 229.889 100.633 229.875C100.627 229.861 100.624 229.846 100.625 229.831C100.625 229.786 100.73 228.796 101.195 228.416C101.263 228.356 101.342 228.312 101.429 228.286C101.515 228.26 101.606 228.253 101.695 228.266C101.935 228.291 102 228.411 102.015 228.511C102.085 228.926 101.205 229.721 100.765 229.916L100.71 229.911ZM101.61 228.411C101.498 228.41 101.389 228.451 101.305 228.526C101.027 228.842 100.852 229.237 100.805 229.656C101.26 229.386 101.855 228.761 101.805 228.511C101.805 228.511 101.805 228.431 101.635 228.411H101.61Z" fill="#3FA654"/>
<path d="M100.32 229.396H96.3201C96.2468 229.396 96.1758 229.422 96.1192 229.468C96.0626 229.515 96.0241 229.58 96.0101 229.651L95.2801 232.916C95.2627 232.995 95.2634 233.077 95.2821 233.155C95.3008 233.234 95.337 233.307 95.3879 233.37C95.4389 233.432 95.5034 233.482 95.5765 233.516C95.6496 233.55 95.7294 233.568 95.8101 233.566C97.2601 233.541 99.3501 233.456 101.165 233.456C103.295 233.456 105.13 233.576 107.625 233.576C109.125 233.576 109.55 232.076 108.92 231.911C106.045 231.281 103.7 231.216 101.215 229.686C100.951 229.506 100.64 229.405 100.32 229.396Z" fill="#263238"/>
<path d="M97.6203 221.32H101.295L100.505 227.515L96.9053 226.96L97.6203 221.32Z" fill="#CF6F64"/>
<path d="M99.31 161.432C99.31 161.432 102.385 171.712 107.465 184.932C109.12 189.232 109.76 193.372 108.61 197.012C105.045 208.312 101.965 225.307 101.965 225.307L95.84 224.642C95.84 224.642 95.605 207.307 97.775 198.372C98.89 193.787 98.51 192.117 97.365 190.602C81.765 169.847 85.955 161.447 85.955 161.447L99.31 161.432Z" fill="#3FA654"/>
<path opacity="0.3" d="M99.31 161.432C99.31 161.432 102.385 171.712 107.465 184.932C109.12 189.232 109.76 193.372 108.61 197.012C105.045 208.312 101.965 225.307 101.965 225.307L95.84 224.642C95.84 224.642 95.605 207.307 97.775 198.372C98.89 193.787 98.51 192.117 97.365 190.602C81.765 169.847 85.955 161.447 85.955 161.447L99.31 161.432Z" fill="#333333"/>
<path d="M103.025 224.265L102.705 226.705L95.4753 225.48L95.2603 223.25L103.025 224.265Z" fill="#3FA654"/>
<path opacity="0.1" d="M103.025 224.265L102.705 226.705L95.4753 225.48L95.2603 223.25L103.025 224.265Z" fill="#333333"/>
</svg>
