<svg width="300" height="402" viewBox="0 0 300 402" fill="none" xmlns="http://www.w3.org/2000/svg">
<path d="M140.346 341.732H139.608V340.292H140.346V341.732ZM141.948 346.7C141.912 346.682 141.876 346.646 141.858 346.628C141.822 346.682 141.786 346.682 141.624 346.682H141.3C141.174 346.682 141.156 346.664 141.156 346.43V343.514H141.948V346.7ZM137.772 351.668V350.444H141.948V351.668H137.772ZM138.564 343.514V344.918C138.564 345.728 138.474 346.718 137.772 347.492V343.514H138.564ZM141.786 347.726H141.948V348.968H137.772V347.546C138.006 347.69 138.366 348.032 138.528 348.212C139.356 347.276 139.554 345.944 139.554 344.936V343.514H140.166V346.43C140.166 347.492 140.4 347.726 141.174 347.726H141.786ZM135.792 340.292H138.222V341.732H136.134V354.458H137.772V353.324H141.948V354.224H143.658V341.732H141.768V340.292H143.982V338.402H135.81L135.792 340.292ZM147.654 352.316C146.952 352.316 146.844 352.226 146.844 351.47V346.052H149.742V347.168H151.812V338.564H144.648V340.634H149.742V344.018H144.72V351.488C144.72 353.702 145.35 354.314 147.348 354.314H149.85C151.704 354.314 152.28 353.396 152.496 350.354C151.938 350.228 151.038 349.85 150.57 349.508C150.462 351.884 150.354 352.316 149.67 352.316H147.654ZM168.876 338.456H160.632V340.13H168.876V338.456ZM157.608 337.79C156.636 340.346 154.98 342.902 153.27 344.522C153.63 345.026 154.188 346.196 154.386 346.7C154.89 346.196 155.394 345.638 155.88 345.008V354.512H157.914V341.912C158.562 340.778 159.12 339.59 159.588 338.438L157.608 337.79ZM167.292 350.39V352.154H162.108V350.39H167.292ZM160.056 354.548H162.108V353.828H167.292V354.494H169.452V348.734H160.056V354.548ZM160.344 347.852H169.128V346.178H160.344V347.852ZM169.2 343.622H160.344V345.278H169.2V343.622ZM158.922 341.012V342.74H170.442V341.012H158.922ZM179.748 338.564L177.372 338.366C177.336 339.014 177.21 339.716 177.012 340.436C176.724 340.436 176.418 340.436 176.148 340.436C175.23 340.436 173.898 340.364 172.98 340.22V342.326C173.97 342.398 175.284 342.434 176.022 342.434C176.094 342.434 176.166 342.434 176.256 342.434C175.446 344.054 174.168 345.656 172.278 347.402L174.204 348.842C174.816 348.05 175.338 347.402 175.878 346.862C176.562 346.196 177.678 345.62 178.686 345.62C179.19 345.62 179.676 345.782 179.946 346.232C177.894 347.294 175.734 348.734 175.734 351.038C175.734 353.36 177.822 354.044 180.648 354.044C182.34 354.044 184.554 353.9 185.742 353.738L185.814 351.416C184.23 351.722 182.232 351.92 180.702 351.92C178.938 351.92 178.092 351.65 178.092 350.66C178.092 349.76 178.812 349.058 180.162 348.284C180.144 349.076 180.126 349.94 180.072 350.48H182.232C182.214 349.652 182.178 348.32 182.16 347.312C183.258 346.808 184.284 346.412 185.094 346.088C185.706 345.854 186.66 345.494 187.236 345.332L186.336 343.244C185.67 343.586 185.04 343.874 184.338 344.18C183.6 344.504 182.844 344.81 181.908 345.242C181.512 344.324 180.612 343.856 179.514 343.856C178.92 343.856 177.948 344 177.48 344.216C177.84 343.694 178.2 343.046 178.506 342.38C180.45 342.326 182.664 342.182 184.374 341.93L184.392 339.842C182.808 340.112 181.008 340.274 179.298 340.364C179.532 339.608 179.658 339.014 179.748 338.564ZM193.248 337.79C192.51 338.978 190.944 340.454 189.558 341.3C189.882 341.768 190.404 342.632 190.602 343.118C192.276 342.038 194.094 340.274 195.264 338.618L193.248 337.79ZM196.092 349.652C196.866 350.606 197.748 351.938 198.072 352.802L199.944 351.794C199.566 350.912 198.648 349.652 197.838 348.734L196.092 349.652ZM206.46 345.26V343.316H201.726V341.75H205.614V339.806H201.726V337.844H199.602V339.806H195.912V341.75H199.602V343.316H195.066C195.246 343.046 195.408 342.776 195.57 342.524L193.698 341.714C192.69 343.46 190.944 345.224 189.378 346.34C189.684 346.862 190.224 348.068 190.386 348.554C190.926 348.122 191.466 347.636 192.006 347.078V354.548H194.058V344.72C194.364 344.342 194.634 343.946 194.904 343.568V345.26H202.05V346.682H195.084V348.626H202.05V352.262C202.05 352.514 201.96 352.568 201.69 352.568C201.402 352.586 200.412 352.586 199.53 352.55C199.8 353.126 200.106 353.972 200.196 354.566C201.546 354.566 202.554 354.53 203.256 354.224C203.976 353.9 204.192 353.378 204.192 352.298V348.626H206.298V346.682H204.192V345.26H206.46ZM207.972 343.136L208.998 345.656C210.87 344.846 215.136 343.046 217.782 343.046C219.942 343.046 221.112 344.342 221.112 346.034C221.112 349.166 217.296 350.57 212.418 350.696L213.462 353.09C219.798 352.766 223.686 350.156 223.686 346.07C223.686 342.74 221.13 340.868 217.872 340.868C215.244 340.868 211.572 342.164 210.186 342.596C209.538 342.776 208.638 343.028 207.972 343.136Z" fill="#333333"/>
<path d="M93.4785 336.203H100.998C104.579 336.203 107.232 335.308 108.957 333.518C110.682 331.727 111.545 329.351 111.545 326.389C111.545 323.524 110.682 321.294 108.957 319.699C107.264 318.104 104.921 317.307 101.926 317.307C99.224 317.307 96.9616 318.055 95.1387 319.553C93.3158 321.018 92.4043 322.938 92.4043 325.314H78.293C78.293 321.604 79.2858 318.283 81.2715 315.354C83.2897 312.391 86.0892 310.08 89.6699 308.42C93.2832 306.76 97.2546 305.93 101.584 305.93C109.104 305.93 114.995 307.736 119.26 311.35C123.524 314.93 125.656 319.878 125.656 326.193C125.656 329.449 124.663 332.443 122.678 335.178C120.692 337.912 118.088 340.012 114.865 341.477C118.869 342.909 121.848 345.057 123.801 347.922C125.786 350.786 126.779 354.172 126.779 358.078C126.779 364.393 124.468 369.455 119.846 373.264C115.256 377.072 109.169 378.977 101.584 378.977C94.4876 378.977 88.6771 377.105 84.1523 373.361C79.6602 369.618 77.4141 364.67 77.4141 358.518H91.5254C91.5254 361.187 92.5182 363.368 94.5039 365.061C96.5221 366.753 98.9961 367.6 101.926 367.6C105.279 367.6 107.899 366.721 109.787 364.963C111.708 363.173 112.668 360.812 112.668 357.883C112.668 350.786 108.762 347.238 100.949 347.238H93.4785V336.203Z" fill="#3FA654"/>
<circle cx="150" cy="150" r="146.5" fill="white" stroke="#3FA654" stroke-width="7"/>
<path d="M275 216.199H25V216.324H275V216.199Z" fill="#EBEBEB"/>
<path d="M249.95 224.244H233.39V224.369H249.95V224.244Z" fill="#EBEBEB"/>
<path d="M190.61 225.605H186.265V225.73H190.61V225.605Z" fill="#EBEBEB"/>
<path d="M232.89 219.605H223.295V219.73H232.89V219.605Z" fill="#EBEBEB"/>
<path d="M72.825 220.445H51.23V220.57H72.825V220.445Z" fill="#EBEBEB"/>
<path d="M80.4448 220.445H77.2798V220.57H80.4448V220.445Z" fill="#EBEBEB"/>
<path d="M137.575 222.555H90.7349V222.68H137.575V222.555Z" fill="#EBEBEB"/>
<path d="M143.5 193.9H46.955C46.1987 193.899 45.4738 193.597 44.9394 193.062C44.4051 192.527 44.105 191.801 44.105 191.045V55.33C44.1116 54.578 44.4146 53.859 44.9482 53.3291C45.4818 52.7992 46.203 52.5013 46.955 52.5H143.5C144.257 52.5 144.983 52.8008 145.519 53.3362C146.054 53.8716 146.355 54.5978 146.355 55.355V191.045C146.355 191.802 146.054 192.528 145.519 193.064C144.983 193.599 144.257 193.9 143.5 193.9ZM46.955 52.6C46.2318 52.6013 45.5387 52.8895 45.0278 53.4014C44.5169 53.9132 44.23 54.6068 44.23 55.33V191.045C44.23 191.768 44.5169 192.462 45.0278 192.974C45.5387 193.485 46.2318 193.774 46.955 193.775H143.5C144.224 193.774 144.917 193.486 145.429 192.974C145.941 192.462 146.229 191.769 146.23 191.045V55.33C146.229 54.6064 145.941 53.9127 145.429 53.4011C144.917 52.8894 144.224 52.6013 143.5 52.6H46.955Z" fill="#EBEBEB"/>
<path d="M251.655 193.9H155.105C154.348 193.899 153.623 193.597 153.088 193.062C152.553 192.527 152.251 191.802 152.25 191.045V55.33C152.258 54.5776 152.562 53.8585 153.096 53.3288C153.631 52.7991 154.353 52.5013 155.105 52.5H251.655C252.406 52.5026 253.126 52.8011 253.659 53.3309C254.191 53.8606 254.493 54.5789 254.5 55.33V191.045C254.5 191.8 254.201 192.525 253.667 193.06C253.134 193.595 252.41 193.897 251.655 193.9ZM155.105 52.6C154.381 52.6013 153.688 52.8894 153.176 53.4011C152.664 53.9127 152.376 54.6064 152.375 55.33V191.045C152.376 191.769 152.664 192.462 153.176 192.974C153.688 193.486 154.381 193.774 155.105 193.775H251.655C252.379 193.774 253.072 193.486 253.584 192.974C254.096 192.462 254.384 191.769 254.385 191.045V55.33C254.384 54.6064 254.096 53.9127 253.584 53.4011C253.072 52.8894 252.379 52.6013 251.655 52.6H155.105Z" fill="#EBEBEB"/>
<path d="M242.95 180.32H58.9048V184.615H242.95V180.32Z" fill="#E0E0E0"/>
<path d="M119.77 72.2098C119.77 71.5693 120.024 70.9551 120.477 70.5022C120.93 70.0493 121.545 69.7948 122.185 69.7948C122.421 69.7964 122.655 69.8317 122.88 69.8998C122.844 69.6531 122.826 69.4042 122.825 69.1548C122.826 67.7991 123.366 66.4994 124.325 65.5412C125.284 64.583 126.584 64.0448 127.94 64.0448C128.255 64.0452 128.57 64.0736 128.88 64.1298C129.384 63.3005 130.144 62.6577 131.045 62.2983C131.946 61.939 132.94 61.8827 133.876 62.1379C134.812 62.3931 135.64 62.9459 136.234 63.713C136.828 64.48 137.157 65.4196 137.17 66.3898H137.245C138.338 66.3898 139.386 66.8239 140.158 67.5966C140.931 68.3692 141.365 69.4171 141.365 70.5098C141.365 71.6025 140.931 72.6505 140.158 73.4231C139.386 74.1958 138.338 74.6298 137.245 74.6298H122.115C121.486 74.6116 120.889 74.3484 120.451 73.8964C120.013 73.4444 119.768 72.8392 119.77 72.2098Z" fill="#F5F5F5"/>
<path d="M153.82 84.6401C153.82 84.3205 153.947 84.014 154.173 83.788C154.399 83.562 154.705 83.4351 155.025 83.4351C155.142 83.4338 155.258 83.4507 155.37 83.4851C155.354 83.3624 155.346 83.2388 155.345 83.1151C155.344 82.7791 155.41 82.4463 155.538 82.1358C155.666 81.8252 155.854 81.543 156.091 81.3052C156.329 81.0674 156.611 80.8788 156.921 80.75C157.231 80.6213 157.564 80.5551 157.9 80.5551C158.059 80.5547 158.218 80.5698 158.375 80.6001C158.627 80.1854 159.007 79.864 159.457 79.6843C159.908 79.5046 160.405 79.4765 160.873 79.6041C161.341 79.7317 161.755 80.0081 162.052 80.3917C162.349 80.7752 162.513 81.245 162.52 81.7301H162.555C163.101 81.7301 163.625 81.9471 164.012 82.3334C164.398 82.7198 164.615 83.2437 164.615 83.7901C164.615 84.3364 164.398 84.8604 164.012 85.2467C163.625 85.633 163.101 85.8501 162.555 85.8501H155C154.683 85.8448 154.382 85.7147 154.161 85.4881C153.94 85.2614 153.817 84.9566 153.82 84.6401Z" fill="#F5F5F5"/>
<path d="M222 125.249C222 124.929 222.127 124.622 222.353 124.396C222.578 124.169 222.885 124.041 223.205 124.039C223.322 124.04 223.439 124.058 223.55 124.094C223.534 123.97 223.526 123.845 223.525 123.719C223.525 123.042 223.794 122.392 224.273 121.913C224.753 121.434 225.402 121.164 226.08 121.164C226.239 121.164 226.398 121.179 226.555 121.209C226.807 120.795 227.187 120.473 227.637 120.294C228.088 120.114 228.585 120.086 229.053 120.213C229.521 120.341 229.935 120.617 230.232 121.001C230.529 121.385 230.693 121.854 230.7 122.339H230.735C231.281 122.339 231.805 122.556 232.192 122.943C232.578 123.329 232.795 123.853 232.795 124.399C232.795 124.946 232.578 125.47 232.192 125.856C231.805 126.242 231.281 126.459 230.735 126.459H223.175C222.86 126.452 222.56 126.32 222.341 126.094C222.121 125.868 221.999 125.565 222 125.249Z" fill="#F5F5F5"/>
<path d="M58.9048 125.74C58.9048 125.419 59.0323 125.112 59.2592 124.885C59.4861 124.658 59.7939 124.53 60.1148 124.53C60.2315 124.531 60.3475 124.548 60.4598 124.58C60.4522 124.457 60.4522 124.333 60.4598 124.21C60.4598 123.535 60.7269 122.888 61.2028 122.409C61.6787 121.93 62.3248 121.659 62.9998 121.655C63.1675 121.653 63.3351 121.668 63.4998 121.7C63.7504 121.284 64.1298 120.962 64.5806 120.781C65.0313 120.6 65.5287 120.572 65.9971 120.7C66.4655 120.828 66.8794 121.105 67.1759 121.489C67.4724 121.874 67.6352 122.345 67.6398 122.83H67.6798C68.2261 122.83 68.7501 123.047 69.1364 123.434C69.5227 123.82 69.7398 124.344 69.7398 124.89C69.7398 125.437 69.5227 125.961 69.1364 126.347C68.7501 126.733 68.2261 126.95 67.6798 126.95H60.0798C59.765 126.941 59.4661 126.81 59.2467 126.584C59.0273 126.358 58.9047 126.055 58.9048 125.74Z" fill="#F5F5F5"/>
<path d="M186.045 72.3249C186.045 71.9045 186.212 71.5014 186.509 71.2041C186.806 70.9069 187.21 70.7399 187.63 70.7399C187.784 70.7397 187.938 70.7633 188.085 70.8099C188.06 70.6444 188.048 70.4772 188.05 70.3099C188.049 69.8691 188.136 69.4326 188.304 69.0252C188.472 68.6179 188.719 68.2478 189.031 67.9361C189.343 67.6244 189.713 67.3773 190.12 67.2089C190.528 67.0406 190.964 66.9542 191.405 66.9549C191.611 66.9554 191.817 66.9738 192.02 67.0099C192.351 66.4645 192.851 66.042 193.443 65.8066C194.036 65.5711 194.69 65.5355 195.305 65.7052C195.919 65.8749 196.462 66.2406 196.85 66.7468C197.238 67.253 197.451 67.872 197.455 68.5099H197.505C198.202 68.5399 198.86 68.8377 199.342 69.3412C199.824 69.8448 200.094 70.5151 200.094 71.2124C200.094 71.9097 199.824 72.58 199.342 73.0836C198.86 73.5871 198.202 73.8849 197.505 73.9149H187.585C187.171 73.9044 186.778 73.732 186.49 73.4346C186.202 73.1373 186.042 72.7388 186.045 72.3249Z" fill="#F5F5F5"/>
<path d="M237 128.276C237.063 128.028 237.1 127.775 237.11 127.521C237.205 125.956 238.7 126.206 239.975 125.991C240.975 125.826 238.335 123.316 240.34 122.491C240.728 122.38 241.068 122.142 241.305 121.816C241.408 121.57 241.421 121.295 241.341 121.041C241.262 120.787 241.095 120.569 240.87 120.426C240.419 120.152 239.897 120.018 239.37 120.041C239.04 119.646 239.305 119.041 239.625 118.641C239.945 118.241 240.33 117.776 240.21 117.271C240.025 116.516 238.97 116.491 238.21 116.636C237.998 116.143 237.86 115.623 237.8 115.091C237.66 114.591 237.25 114.026 236.715 114.091C236.18 114.156 235.91 114.721 235.415 114.836C234.92 114.951 234.35 114.466 233.915 114.086C233.48 113.706 232.685 113.471 232.375 113.971C232.19 114.271 232.3 114.686 232.11 114.971C231.775 115.471 230.985 115.161 230.495 114.801C230.005 114.441 229.225 114.111 228.88 114.616C228.795 114.773 228.731 114.941 228.69 115.116C228.46 115.786 227.735 116.116 227.19 116.551C226.645 116.986 226.19 117.831 226.66 118.356C226.895 118.616 227.305 118.721 227.425 119.051C227.57 119.461 227.15 119.831 226.815 120.111C226.265 120.586 226.16 121.991 226.895 122.381C227.2 122.541 227.655 122.591 227.73 122.931C227.805 123.271 227.49 123.471 227.285 123.701C227.155 123.867 227.063 124.059 227.015 124.264C226.967 124.469 226.964 124.682 227.006 124.888C227.049 125.095 227.135 125.289 227.26 125.459C227.385 125.629 227.545 125.769 227.73 125.871C227.905 125.951 228.12 126.021 228.185 126.206C228.211 126.343 228.197 126.486 228.145 126.616C228.072 126.87 228.048 127.137 228.075 127.401C228.073 127.446 228.081 127.491 228.097 127.533C228.114 127.575 228.138 127.613 228.17 127.646C228.237 127.692 228.318 127.715 228.4 127.711C229.46 127.761 229.97 127.386 230.615 128.306C230.671 128.399 230.746 128.479 230.835 128.541C230.926 128.584 231.024 128.608 231.125 128.611C231.855 128.671 232.33 128.216 232.99 128.111C233.915 127.996 234.11 128.471 234.92 128.851C236.135 129.501 236.755 129.146 237 128.276Z" fill="#F5F5F5"/>
<path d="M224.815 126.96C224.877 126.713 224.916 126.46 224.93 126.205C225.02 124.64 226.515 124.885 227.79 124.675C228.79 124.51 226.15 121.995 228.155 121.175C228.546 121.069 228.888 120.833 229.125 120.505C229.226 120.258 229.237 119.984 229.156 119.73C229.076 119.477 228.909 119.259 228.685 119.115C228.234 118.84 227.712 118.706 227.185 118.73C226.86 118.335 227.125 117.73 227.44 117.33C227.755 116.93 228.145 116.46 228.025 115.96C227.845 115.205 226.785 115.18 226.025 115.325C225.809 114.834 225.669 114.313 225.61 113.78C225.475 113.28 225.06 112.715 224.53 112.78C224 112.845 223.72 113.41 223.23 113.525C222.655 113.66 222.16 113.155 221.73 112.775C221.3 112.395 220.495 112.16 220.185 112.66C220 112.955 220.115 113.375 219.92 113.66C219.585 114.16 218.8 113.85 218.31 113.49C217.82 113.13 217.035 112.8 216.69 113.3C216.604 113.466 216.54 113.642 216.5 113.825C216.27 114.495 215.545 114.825 215 115.26C214.455 115.695 214 116.54 214.47 117.065C214.705 117.325 215.12 117.43 215.235 117.755C215.38 118.17 214.96 118.54 214.63 118.82C214.075 119.29 213.975 120.7 214.705 121.085C215.015 121.25 215.465 121.3 215.54 121.64C215.615 121.98 215.3 122.175 215.095 122.41C214.966 122.576 214.875 122.768 214.827 122.972C214.78 123.177 214.777 123.389 214.819 123.595C214.862 123.801 214.948 123.995 215.072 124.164C215.197 124.333 215.356 124.473 215.54 124.575C215.715 124.66 215.93 124.73 215.995 124.915C216.026 125.052 216.012 125.196 215.955 125.325C215.884 125.58 215.861 125.846 215.885 126.11C215.884 126.201 215.918 126.289 215.98 126.355C216.049 126.402 216.132 126.425 216.215 126.42C217.27 126.465 217.78 126.095 218.425 127.015C218.481 127.107 218.556 127.185 218.645 127.245C218.735 127.292 218.834 127.318 218.935 127.32C219.665 127.38 220.14 126.925 220.805 126.82C221.725 126.705 221.92 127.18 222.735 127.56C223.955 128.2 224.575 127.83 224.815 126.96Z" fill="#F5F5F5"/>
<path d="M223.64 119.206C223.705 118.959 223.743 118.706 223.755 118.451C223.85 116.886 225.345 117.131 226.615 116.921C227.615 116.756 224.98 114.241 226.98 113.421C227.372 113.315 227.715 113.077 227.95 112.746C228.05 112.5 228.061 112.226 227.982 111.973C227.903 111.719 227.738 111.501 227.515 111.356C227.062 111.087 226.541 110.955 226.015 110.976C225.69 110.581 225.955 109.976 226.27 109.576C226.585 109.176 226.975 108.706 226.855 108.206C226.675 107.451 225.62 107.426 224.855 107.571C224.645 107.078 224.505 106.558 224.44 106.026C224.305 105.526 223.89 104.961 223.36 105.026C222.83 105.091 222.55 105.651 222.06 105.771C221.49 105.906 220.995 105.396 220.56 105.021C220.125 104.646 219.325 104.401 219.02 104.901C218.835 105.201 218.945 105.621 218.75 105.901C218.42 106.401 217.63 106.096 217.14 105.736C216.65 105.376 215.87 105.046 215.525 105.546C215.437 105.711 215.373 105.888 215.335 106.071C215.1 106.741 214.375 107.071 213.835 107.506C213.295 107.941 212.835 108.786 213.3 109.311C213.535 109.571 213.95 109.671 214.065 110.001C214.215 110.416 213.79 110.781 213.46 111.066C212.905 111.536 212.805 112.946 213.535 113.331C213.845 113.496 214.295 113.546 214.37 113.881C214.445 114.216 214.13 114.421 213.925 114.656C213.796 114.822 213.705 115.014 213.657 115.218C213.61 115.423 213.607 115.635 213.649 115.841C213.692 116.047 213.778 116.241 213.902 116.41C214.027 116.579 214.186 116.719 214.37 116.821C214.55 116.906 214.765 116.976 214.83 117.161C214.857 117.299 214.841 117.442 214.785 117.571C214.714 117.824 214.691 118.089 214.715 118.351C214.717 118.443 214.75 118.531 214.81 118.601C214.88 118.646 214.962 118.668 215.045 118.666C216.1 118.711 216.61 118.336 217.255 119.256C217.312 119.348 217.387 119.428 217.475 119.491C217.567 119.536 217.668 119.561 217.77 119.566C218.495 119.626 218.97 119.171 219.635 119.066C220.555 118.951 220.75 119.426 221.565 119.806C222.78 120.446 223.4 120.076 223.64 119.206Z" fill="#F5F5F5"/>
<path d="M215.62 123.07C215.682 122.822 215.719 122.569 215.73 122.315C215.825 120.745 217.32 120.995 218.595 120.78C219.595 120.615 216.955 118.105 218.96 117.28C219.35 117.172 219.69 116.934 219.925 116.605C220.028 116.359 220.041 116.085 219.961 115.83C219.882 115.576 219.715 115.358 219.49 115.215C219.037 114.945 218.516 114.813 217.99 114.835C217.66 114.435 217.93 113.835 218.245 113.43C218.56 113.025 218.95 112.565 218.83 112.065C218.645 111.31 217.59 111.28 216.83 111.43C216.615 110.937 216.475 110.414 216.415 109.88C216.28 109.38 215.865 108.815 215.33 108.88C214.795 108.945 214.525 109.51 214.03 109.625C213.535 109.74 212.965 109.255 212.53 108.875C212.095 108.495 211.3 108.26 210.99 108.76C210.805 109.06 210.915 109.475 210.725 109.76C210.39 110.26 209.6 109.955 209.11 109.59C208.62 109.225 207.84 108.9 207.495 109.405C207.41 109.562 207.346 109.73 207.305 109.905C207.075 110.575 206.35 110.905 205.805 111.335C205.26 111.765 204.805 112.62 205.275 113.14C205.51 113.4 205.92 113.505 206.04 113.835C206.185 114.245 205.765 114.615 205.43 114.9C204.88 115.37 204.78 116.78 205.51 117.165C205.815 117.325 206.27 117.375 206.345 117.715C206.42 118.055 206.105 118.255 205.9 118.49C205.771 118.656 205.68 118.847 205.632 119.052C205.585 119.256 205.582 119.469 205.624 119.675C205.666 119.88 205.753 120.074 205.877 120.244C206.002 120.413 206.161 120.553 206.345 120.655C206.52 120.74 206.735 120.81 206.8 120.99C206.829 121.127 206.815 121.27 206.76 121.4C206.689 121.655 206.666 121.921 206.69 122.185C206.688 122.23 206.696 122.275 206.712 122.317C206.728 122.359 206.753 122.397 206.785 122.43C206.851 122.479 206.933 122.502 207.015 122.495C208.075 122.545 208.585 122.17 209.23 123.09C209.284 123.184 209.359 123.264 209.45 123.325C209.54 123.371 209.639 123.395 209.74 123.395C210.47 123.455 210.945 123.005 211.61 122.92C212.53 122.8 212.725 123.275 213.535 123.66C214.76 124.31 215.38 123.94 215.62 123.07Z" fill="#F5F5F5"/>
<path d="M207.5 121.286C207.564 121.039 207.603 120.786 207.615 120.531C207.71 118.961 209.205 119.211 210.475 118.996C211.475 118.831 208.84 116.321 210.84 115.496C211.232 115.39 211.575 115.151 211.81 114.821C211.91 114.574 211.921 114.301 211.842 114.047C211.763 113.794 211.598 113.576 211.375 113.431C210.922 113.161 210.401 113.029 209.875 113.051C209.55 112.651 209.815 112.051 210.13 111.651C210.445 111.251 210.835 110.781 210.715 110.281C210.535 109.526 209.48 109.496 208.715 109.646C208.505 109.151 208.365 108.629 208.3 108.096C208.165 107.596 207.75 107.036 207.22 107.096C206.69 107.156 206.41 107.721 205.92 107.836C205.345 107.971 204.85 107.466 204.42 107.086C203.99 106.706 203.185 106.471 202.88 106.971C202.695 107.271 202.805 107.686 202.61 107.971C202.28 108.471 201.49 108.166 201 107.806C200.51 107.446 199.725 107.116 199.38 107.616C199.296 107.782 199.232 107.959 199.19 108.141C198.96 108.811 198.235 109.141 197.69 109.571C197.145 110.001 196.69 110.856 197.155 111.381C197.39 111.636 197.805 111.741 197.92 112.071C198.065 112.481 197.645 112.851 197.315 113.136C196.76 113.606 196.66 115.016 197.39 115.401C197.7 115.561 198.15 115.611 198.225 115.951C198.3 116.291 197.985 116.491 197.78 116.726C197.651 116.891 197.56 117.083 197.512 117.288C197.465 117.492 197.462 117.705 197.504 117.91C197.547 118.116 197.633 118.31 197.757 118.479C197.882 118.649 198.041 118.789 198.225 118.891C198.4 118.976 198.62 119.046 198.685 119.226C198.713 119.364 198.697 119.507 198.64 119.636C198.57 119.891 198.546 120.157 198.57 120.421C198.572 120.512 198.605 120.601 198.665 120.671C198.735 120.715 198.817 120.738 198.9 120.736C199.955 120.781 200.465 120.406 201.11 121.326C201.167 121.418 201.242 121.497 201.33 121.561C201.422 121.606 201.523 121.63 201.625 121.631C202.35 121.691 202.825 121.241 203.49 121.156C204.41 121.036 204.605 121.511 205.42 121.896C206.65 122.526 207.27 122.156 207.5 121.286Z" fill="#F5F5F5"/>
<path d="M207.405 129.956C207.456 129.761 207.486 129.561 207.495 129.361C207.57 128.131 208.745 128.326 209.745 128.156C210.53 128.026 208.46 126.051 210.035 125.411C210.343 125.328 210.612 125.141 210.795 124.881C210.876 124.687 210.886 124.472 210.824 124.271C210.761 124.071 210.631 123.899 210.455 123.786C210.093 123.571 209.676 123.466 209.255 123.486C209 123.171 209.205 122.701 209.455 122.381C209.705 122.061 210.01 121.701 209.915 121.306C209.775 120.711 208.94 120.686 208.34 120.806C208.175 120.416 208.066 120.006 208.015 119.586C207.91 119.176 207.585 118.751 207.165 118.801C206.745 118.851 206.525 119.301 206.14 119.386C205.755 119.471 205.3 119.096 204.945 118.796C204.59 118.496 203.975 118.296 203.735 118.701C203.59 118.941 203.675 119.266 203.525 119.501C203.26 119.901 202.64 119.651 202.255 119.366C201.87 119.081 201.255 118.821 200.98 119.221C200.914 119.351 200.864 119.488 200.83 119.631C200.65 120.156 200.08 120.421 199.635 120.761C199.19 121.101 198.84 121.761 199.215 122.181C199.4 122.386 199.715 122.466 199.82 122.726C199.925 122.986 199.6 123.341 199.32 123.566C198.885 123.936 198.82 125.066 199.38 125.351C199.625 125.476 199.98 125.516 200.04 125.781C200.1 126.046 199.85 126.206 199.69 126.391C199.589 126.521 199.517 126.672 199.479 126.833C199.441 126.994 199.439 127.162 199.472 127.324C199.506 127.486 199.574 127.639 199.672 127.772C199.77 127.905 199.895 128.016 200.04 128.096C200.18 128.161 200.35 128.216 200.4 128.361C200.421 128.47 200.409 128.583 200.365 128.686C200.31 128.886 200.291 129.094 200.31 129.301C200.309 129.336 200.315 129.372 200.328 129.406C200.341 129.439 200.36 129.47 200.385 129.496C200.44 129.532 200.505 129.55 200.57 129.546C201.4 129.586 201.805 129.291 202.31 130.016C202.355 130.089 202.415 130.152 202.485 130.201C202.556 130.237 202.635 130.256 202.715 130.256C203.285 130.301 203.66 129.946 204.185 129.881C204.91 129.786 205.065 130.161 205.685 130.461C206.73 130.936 207.215 130.641 207.405 129.956Z" fill="#F5F5F5"/>
<path d="M202.86 126.96C202.927 126.714 202.966 126.46 202.975 126.205C203.07 124.64 204.565 124.885 205.835 124.675C206.835 124.51 204.2 121.995 206.205 121.175C206.594 121.068 206.934 120.831 207.17 120.505C207.272 120.259 207.285 119.985 207.205 119.731C207.126 119.477 206.959 119.259 206.735 119.115C206.277 118.837 205.746 118.703 205.21 118.73C204.885 118.335 205.15 117.73 205.465 117.33C205.78 116.93 206.17 116.46 206.05 115.96C205.87 115.205 204.815 115.18 204.05 115.325C203.838 114.833 203.7 114.312 203.64 113.78C203.5 113.28 203.09 112.715 202.555 112.78C202.02 112.845 201.745 113.41 201.255 113.525C200.685 113.66 200.19 113.155 199.755 112.775C199.32 112.395 198.525 112.16 198.215 112.66C198.03 112.955 198.14 113.375 197.95 113.66C197.615 114.16 196.825 113.85 196.335 113.49C195.845 113.13 195.065 112.8 194.72 113.3C194.634 113.466 194.57 113.642 194.53 113.825C194.295 114.495 193.575 114.825 193.03 115.26C192.485 115.695 192.03 116.54 192.495 117.065C192.73 117.325 193.145 117.43 193.26 117.755C193.41 118.17 192.99 118.54 192.655 118.82C192.1 119.29 192 120.7 192.735 121.085C193.04 121.25 193.49 121.3 193.565 121.64C193.64 121.98 193.325 122.175 193.12 122.41C192.992 122.576 192.901 122.768 192.853 122.973C192.806 123.178 192.804 123.39 192.847 123.596C192.889 123.802 192.976 123.996 193.101 124.165C193.226 124.334 193.386 124.474 193.57 124.575C193.745 124.66 193.96 124.73 194.025 124.915C194.052 125.053 194.038 125.195 193.985 125.325C193.91 125.58 193.885 125.846 193.91 126.11C193.911 126.201 193.947 126.289 194.01 126.355C194.077 126.402 194.158 126.425 194.24 126.42C195.295 126.465 195.805 126.095 196.455 127.015C196.511 127.107 196.586 127.185 196.675 127.245C196.765 127.293 196.864 127.318 196.965 127.32C197.69 127.38 198.165 126.925 198.83 126.82C199.755 126.705 199.95 127.18 200.76 127.56C202 128.2 202.62 127.83 202.86 126.96Z" fill="#F5F5F5"/>
<path d="M215.62 113.529C215.683 113.282 215.719 113.029 215.73 112.774C215.825 111.204 217.32 111.454 218.595 111.239C219.595 111.074 216.955 108.564 218.96 107.739C219.35 107.632 219.691 107.394 219.925 107.064C220.028 106.818 220.041 106.544 219.961 106.29C219.882 106.035 219.715 105.817 219.49 105.674C219.038 105.404 218.516 105.272 217.99 105.294C217.66 104.894 217.93 104.294 218.245 103.889C218.56 103.484 218.95 103.024 218.83 102.524C218.645 101.769 217.59 101.739 216.83 101.889C216.615 101.396 216.475 100.874 216.415 100.339C216.28 99.8392 215.865 99.2792 215.33 99.3392C214.795 99.3992 214.5 99.9992 214 100.099C213.5 100.199 212.935 99.7292 212.5 99.3492C212.065 98.9692 211.27 98.7342 210.96 99.2342C210.775 99.5342 210.885 99.9492 210.695 100.234C210.36 100.734 209.57 100.429 209.08 100.064C208.59 99.6992 207.81 99.3742 207.465 99.8792C207.378 100.045 207.314 100.221 207.275 100.404C207.045 101.074 206.32 101.404 205.775 101.834C205.23 102.264 204.775 103.119 205.245 103.639C205.48 103.899 205.89 104.004 206.01 104.334C206.155 104.744 205.735 105.114 205.4 105.399C204.85 105.869 204.75 107.279 205.48 107.664C205.785 107.824 206.24 107.874 206.315 108.214C206.39 108.554 206.075 108.754 205.87 108.989C205.741 109.155 205.65 109.347 205.602 109.552C205.555 109.756 205.552 109.968 205.594 110.174C205.637 110.38 205.723 110.574 205.847 110.743C205.972 110.912 206.131 111.053 206.315 111.154C206.49 111.239 206.705 111.309 206.77 111.489C206.799 111.627 206.785 111.77 206.73 111.899C206.659 112.155 206.636 112.421 206.66 112.684C206.658 112.729 206.666 112.774 206.682 112.817C206.698 112.859 206.723 112.897 206.755 112.929C206.821 112.978 206.903 113.002 206.985 112.994C208.045 113.044 208.555 112.669 209.2 113.589C209.254 113.683 209.33 113.764 209.42 113.824C209.51 113.87 209.609 113.894 209.71 113.894C210.44 113.954 210.915 113.504 211.58 113.419C212.5 113.299 212.695 113.774 213.505 114.159C214.76 114.769 215.38 114.399 215.62 113.529Z" fill="#F5F5F5"/>
<path d="M226.035 114.06C226.097 113.812 226.136 113.559 226.15 113.305C226.24 111.74 227.735 111.985 229.01 111.775C230.01 111.61 227.37 109.095 229.375 108.275C229.766 108.169 230.108 107.933 230.345 107.605C230.446 107.358 230.457 107.084 230.376 106.83C230.296 106.576 230.129 106.358 229.905 106.215C229.455 105.94 228.932 105.806 228.405 105.83C228.08 105.435 228.345 104.83 228.66 104.43C228.975 104.03 229.365 103.56 229.245 103.06C229.065 102.305 228.005 102.28 227.245 102.425C227.03 101.934 226.89 101.413 226.83 100.88C226.695 100.38 226.28 99.8146 225.75 99.8796C225.22 99.9446 224.94 100.51 224.45 100.625C223.875 100.76 223.38 100.255 222.95 99.8746C222.52 99.4946 221.715 99.2596 221.405 99.7596C221.22 100.055 221.33 100.475 221.14 100.76C220.805 101.26 220.02 100.95 219.525 100.59C219.03 100.23 218.255 99.8996 217.91 100.4C217.826 100.558 217.762 100.726 217.72 100.9C217.49 101.57 216.765 101.9 216.22 102.335C215.675 102.77 215.22 103.615 215.69 104.14C215.925 104.4 216.34 104.505 216.455 104.83C216.6 105.245 216.18 105.615 215.85 105.895C215.295 106.365 215.195 107.775 215.925 108.16C216.235 108.325 216.685 108.375 216.76 108.715C216.835 109.055 216.52 109.25 216.315 109.485C216.186 109.651 216.095 109.842 216.048 110.047C216 110.251 215.997 110.464 216.04 110.67C216.082 110.875 216.168 111.069 216.292 111.239C216.417 111.408 216.576 111.548 216.76 111.65C216.935 111.735 217.15 111.805 217.215 111.99C217.247 112.127 217.233 112.271 217.175 112.4C217.104 112.655 217.081 112.921 217.105 113.185C217.104 113.275 217.138 113.363 217.2 113.43C217.267 113.477 217.348 113.499 217.43 113.495C218.49 113.54 219 113.17 219.645 114.09C219.701 114.181 219.776 114.26 219.865 114.32C219.955 114.367 220.054 114.392 220.155 114.395C220.885 114.455 221.36 114 222.025 113.895C222.945 113.78 223.14 114.255 223.955 114.635C225.175 115.3 225.795 114.93 226.035 114.06Z" fill="#F5F5F5"/>
<path d="M232.36 118.325C232.425 118.078 232.463 117.825 232.475 117.57C232.57 116 234.065 116.25 235.335 116.035C236.335 115.87 233.7 113.36 235.705 112.535C236.095 112.427 236.436 112.189 236.67 111.86C236.77 111.613 236.782 111.34 236.702 111.087C236.623 110.833 236.458 110.615 236.235 110.47C235.775 110.196 235.245 110.063 234.71 110.09C234.385 109.69 234.65 109.09 234.965 108.685C235.28 108.28 235.67 107.82 235.55 107.32C235.37 106.565 234.315 106.535 233.55 106.685C233.34 106.19 233.2 105.668 233.135 105.135C233 104.635 232.59 104.075 232.055 104.135C231.52 104.195 231.245 104.76 230.755 104.875C230.185 105.01 229.69 104.505 229.255 104.125C228.82 103.745 228.02 103.51 227.715 104.01C227.53 104.31 227.64 104.725 227.445 105.01C227.115 105.51 226.325 105.205 225.835 104.84C225.345 104.475 224.565 104.155 224.22 104.655C224.133 104.811 224.069 104.98 224.03 105.155C223.795 105.825 223.07 106.155 222.53 106.585C221.99 107.015 221.53 107.87 221.995 108.395C222.23 108.65 222.645 108.755 222.76 109.085C222.91 109.495 222.485 109.865 222.155 110.15C221.6 110.62 221.5 112.03 222.235 112.415C222.54 112.575 222.99 112.625 223.065 112.965C223.14 113.305 222.825 113.505 222.62 113.74C222.492 113.906 222.402 114.098 222.355 114.302C222.307 114.506 222.305 114.719 222.347 114.924C222.389 115.129 222.475 115.323 222.599 115.493C222.723 115.662 222.882 115.802 223.065 115.905C223.245 115.99 223.46 116.06 223.525 116.24C223.553 116.378 223.537 116.521 223.48 116.65C223.41 116.905 223.386 117.171 223.41 117.435C223.411 117.525 223.445 117.612 223.505 117.68C223.573 117.729 223.657 117.752 223.74 117.745C224.795 117.795 225.305 117.42 225.95 118.34C226.007 118.432 226.082 118.511 226.17 118.575C226.262 118.62 226.363 118.644 226.465 118.645C227.19 118.705 227.665 118.255 228.33 118.145C229.25 118.025 229.445 118.5 230.26 118.885C231.5 119.565 232.12 119.195 232.36 118.325Z" fill="#F5F5F5"/>
<path d="M230.445 123.711C230.445 123.711 227.795 127.451 226.885 128.641C225.975 129.831 221.41 137.216 220.79 142.101C220.725 142.626 220.66 143.101 220.595 143.466C222.555 156.416 222.25 208.731 222.18 212.786H213.4C214.36 172.716 215.375 137.786 215.18 136.501C214.985 135.216 212.38 130.001 208.365 127.891C204.35 125.781 200.865 118.786 200.865 118.786H202.145C202.145 118.786 204.515 123.071 207.89 125.446C208.37 125.779 208.871 126.08 209.39 126.346C209.382 123.766 209.838 121.205 210.735 118.786L211.425 119.426C210.49 123.241 210.615 125.691 210.895 127.096C212.175 127.69 213.355 128.478 214.395 129.431C217.895 124.876 219.895 114.461 219.895 114.461L220.79 114.961C220.536 117.113 220.148 119.247 219.63 121.351C218.975 124.046 217.045 129.121 216.13 131.426C217.206 132.97 218.094 134.637 218.775 136.391C218.869 136.241 218.984 136.105 219.115 135.986C221.395 133.921 225.685 124.176 225.685 124.176C226.72 121.911 225.135 115.966 225.135 115.966H226.335L226.87 121.166L229.87 117.881L230.42 118.341L227.225 122.446L225.58 127.646L229.87 122.901L230.445 123.711Z" fill="#F5F5F5"/>
<path d="M61.2599 209.91H54.6899V168.425L57.9749 166.09L61.2599 168.425V209.91Z" fill="#E6E6E6"/>
<path d="M73.445 209.91H66.875V168.425L70.16 166.09L73.445 168.425V209.91Z" fill="#E6E6E6"/>
<path d="M85.6301 209.91H79.0601V168.425L82.3451 166.09L85.6301 168.425V209.91Z" fill="#E6E6E6"/>
<path d="M97.8151 209.91H91.2451V168.425L94.5301 166.09L97.8151 168.425V209.91Z" fill="#E6E6E6"/>
<path d="M110 209.91H103.43V168.425L106.715 166.09L110 168.425V209.91Z" fill="#E6E6E6"/>
<path d="M122.185 209.91H115.615V168.425L118.9 166.09L122.185 168.425V209.91Z" fill="#E6E6E6"/>
<path d="M134.37 209.91H127.8V168.425L131.085 166.09L134.37 168.425V209.91Z" fill="#E6E6E6"/>
<path d="M146.555 209.91H139.985V168.425L143.27 166.09L146.555 168.425V209.91Z" fill="#E6E6E6"/>
<path d="M158.74 209.91H152.17V168.425L155.455 166.09L158.74 168.425V209.91Z" fill="#E6E6E6"/>
<path d="M170.925 209.91H164.355V168.425L167.64 166.09L170.925 168.425V209.91Z" fill="#E6E6E6"/>
<path d="M183.11 209.91H176.54V168.425L179.825 166.09L183.11 168.425V209.91Z" fill="#E6E6E6"/>
<path d="M195.295 209.91H188.725V168.425L192.01 166.09L195.295 168.425V209.91Z" fill="#E6E6E6"/>
<path d="M207.48 209.91H200.91V168.425L204.195 166.09L207.48 168.425V209.91Z" fill="#E6E6E6"/>
<path d="M219.665 209.91H213.095V168.425L216.38 166.09L219.665 168.425V209.91Z" fill="#E6E6E6"/>
<path d="M231.85 209.91H225.28V168.425L228.565 166.09L231.85 168.425V209.91Z" fill="#E6E6E6"/>
<path d="M244.035 209.91H237.465V168.425L240.75 166.09L244.035 168.425V209.91Z" fill="#E6E6E6"/>
<path d="M235.915 209.625C235.915 209.625 237.315 204.945 234.49 204.01C231.665 203.075 229.99 200.89 230.08 198.415C230.17 195.94 227.2 193.53 224.97 195.85C222.74 198.17 223.035 194.065 220.06 193.07C217.085 192.075 214.56 194.49 215.38 196.705C216.2 198.92 213.26 200.295 209.745 198.415C206.23 196.535 202.36 199.955 203.105 202.63C203.85 205.305 203.24 205.605 201.015 204.715C198.79 203.825 194.815 206.35 196.21 209.625C197.605 212.9 235.915 209.625 235.915 209.625Z" fill="#E0E0E0"/>
<path d="M85.7499 208.95C85.7499 208.95 86.8349 205.32 84.6449 204.595C82.4549 203.87 81.1449 202.17 81.2199 200.25C81.2949 198.33 78.9849 196.46 77.2549 198.25C75.5249 200.04 75.7549 196.865 73.4449 196.09C71.1349 195.315 69.1749 197.195 69.8099 198.91C70.4449 200.625 68.1649 201.7 65.4349 200.24C62.7049 198.78 59.7049 201.435 60.2799 203.515C60.8549 205.595 60.3849 205.825 58.6599 205.13C56.9349 204.435 53.8449 206.4 54.9249 208.94C56.0049 211.48 85.7499 208.95 85.7499 208.95Z" fill="#E0E0E0"/>
<path d="M140.03 209.38C142.53 206.88 140.28 202.63 137.78 202.13C135.28 201.63 132.78 197.235 132.65 194.435C132.52 191.635 128.03 183.02 121.03 188.34C114.03 193.66 116.16 189.12 111.095 187.625C106.03 186.13 102.835 190.43 105.06 193.655C105.06 193.655 99.9699 192.38 97.8749 197.13C95.7799 201.88 97.8749 204.835 97.8749 204.835C97.8749 204.835 88.3099 204.55 89.1699 210.465C90.0299 216.38 140.03 209.38 140.03 209.38Z" fill="#E0E0E0"/>
<path d="M51.1151 209.536V216.381H244.115V209.536C244.131 209.262 244.091 208.987 243.998 208.729C243.905 208.471 243.76 208.234 243.574 208.033C243.387 207.832 243.161 207.67 242.911 207.558C242.66 207.446 242.39 207.386 242.115 207.381H53.1351C52.8589 207.383 52.5861 207.441 52.3331 207.552C52.0801 207.663 51.8523 207.824 51.6635 208.026C51.4746 208.227 51.3286 208.465 51.2343 208.725C51.1401 208.984 51.0995 209.26 51.1151 209.536Z" fill="#EBEBEB"/>
<path d="M233.115 207.381H221.115V216.381H233.115V207.381Z" fill="#F5F5F5"/>
<path d="M210.115 207.381H198.615V216.381H210.115V207.381Z" fill="#F5F5F5"/>
<path d="M187.615 207.381H175.615V216.381H187.615V207.381Z" fill="#F5F5F5"/>
<path d="M164.615 207.381H153.115V216.381H164.615V207.381Z" fill="#F5F5F5"/>
<path d="M142.115 207.381H130.615V216.381H142.115V207.381Z" fill="#F5F5F5"/>
<path d="M119.615 207.381H107.615V216.381H119.615V207.381Z" fill="#F5F5F5"/>
<path d="M96.6152 207.381H85.1152V216.381H96.6152V207.381Z" fill="#F5F5F5"/>
<path d="M74.1152 207.381H62.1152V216.381H74.1152V207.381Z" fill="#F5F5F5"/>
<path d="M62.5449 109.686C62.468 109.384 62.4228 109.076 62.4099 108.766C62.2949 106.856 60.4699 107.156 58.9099 106.896C57.6999 106.696 60.9099 103.631 58.4649 102.641C57.9883 102.513 57.5711 102.223 57.2849 101.821C57.1621 101.52 57.1484 101.186 57.2461 100.876C57.3438 100.567 57.5468 100.301 57.8199 100.126C58.3775 99.7878 59.0239 99.6257 59.6749 99.6606C60.0749 99.1606 59.7499 98.4456 59.3649 97.9506C58.9799 97.4556 58.5049 96.8906 58.6499 96.2806C58.8699 95.3556 60.1499 95.3256 61.0899 95.5056C61.4349 94.9456 61.4299 94.2506 61.5899 93.6156C61.7499 92.9806 62.2599 92.3206 62.9099 92.4006C63.5599 92.4806 63.9099 93.1656 64.4949 93.3056C65.1949 93.4706 65.7999 92.8556 66.3449 92.3906C66.8899 91.9256 67.8449 91.6406 68.2249 92.2506C68.4499 92.6156 68.3149 93.1206 68.5499 93.4806C68.9549 94.1056 69.9199 93.7156 70.5199 93.2756C71.1199 92.8356 72.0699 92.4356 72.4899 93.0456C72.5946 93.2478 72.672 93.463 72.7199 93.6856C73.0049 94.5056 73.8849 94.9106 74.5749 95.4356C75.2649 95.9606 75.8049 97.0006 75.2249 97.6406C74.9399 97.9556 74.4349 98.0806 74.2899 98.4856C74.1099 98.9856 74.6249 99.4356 75.0299 99.7806C75.7049 100.356 75.8299 102.076 74.9349 102.546C74.5599 102.741 74.0099 102.801 73.9349 103.216C73.8599 103.631 74.2249 103.876 74.4749 104.161C74.6319 104.363 74.7433 104.597 74.8014 104.846C74.8596 105.095 74.8631 105.354 74.8118 105.605C74.7605 105.855 74.6556 106.092 74.5042 106.299C74.3529 106.505 74.1587 106.676 73.9349 106.801C73.7199 106.906 73.4349 106.991 73.3749 107.216C73.3421 107.384 73.3594 107.557 73.4249 107.716C73.5155 108.025 73.5444 108.35 73.5099 108.671C73.5123 108.782 73.471 108.889 73.3949 108.971C73.313 109.028 73.2146 109.056 73.1149 109.051C71.8249 109.111 71.1999 108.651 70.4149 109.776C70.3446 109.887 70.2529 109.984 70.1449 110.061C70.0344 110.116 69.9133 110.146 69.7899 110.151C68.8999 110.221 68.3199 109.651 67.5099 109.566C66.3849 109.421 66.1499 110.001 65.1599 110.466C63.5949 111.201 62.8399 110.751 62.5449 109.686Z" fill="#F5F5F5"/>
<path d="M77.4051 108.081C77.3264 107.78 77.2795 107.471 77.2651 107.161C77.1501 105.251 75.3251 105.551 73.7651 105.291C72.5501 105.091 75.7651 102.026 73.3151 101.036C72.8397 100.905 72.4233 100.616 72.1351 100.216C72.0079 99.9115 71.9928 99.5721 72.0926 99.258C72.1925 98.9439 72.4007 98.6754 72.6801 98.5006C73.2382 98.1639 73.8842 98.002 74.5351 98.0356C74.9351 97.5356 74.6101 96.8206 74.2251 96.3256C73.8401 95.8306 73.3651 95.2656 73.5101 94.6556C73.7351 93.7306 75.0101 93.7006 75.9551 93.8806C76.2951 93.3206 76.2901 92.6256 76.4551 91.9906C76.6201 91.3556 77.1301 90.6956 77.7801 90.7756C78.4301 90.8556 78.7801 91.5406 79.3651 91.6806C80.0601 91.8456 80.6651 91.2306 81.2101 90.7656C81.7551 90.3006 82.7101 90.0156 83.0901 90.6256C83.3201 90.9906 83.1851 91.4956 83.4151 91.8556C83.8251 92.4806 84.7851 92.0906 85.3851 91.6506C85.9851 91.2106 86.9351 90.8106 87.3551 91.4206C87.4614 91.6226 87.5404 91.8378 87.5901 92.0606C87.8701 92.8806 88.7551 93.2856 89.4401 93.8106C90.1251 94.3356 90.6751 95.3756 90.0901 96.0106C89.8051 96.3306 89.3001 96.4556 89.1601 96.8556C88.9801 97.3556 89.4951 97.8106 89.9001 98.1556C90.5751 98.7306 90.6951 100.451 89.8051 100.921C89.4301 101.116 88.8801 101.176 88.8051 101.591C88.7301 102.006 89.1001 102.251 89.3501 102.536C89.5077 102.738 89.6195 102.972 89.6777 103.221C89.736 103.471 89.7393 103.73 89.6875 103.981C89.6356 104.233 89.5299 104.469 89.3776 104.676C89.2252 104.882 89.0299 105.052 88.8051 105.176C88.5901 105.281 88.3051 105.366 88.2501 105.591C88.2147 105.758 88.2322 105.933 88.3001 106.091C88.3857 106.401 88.4145 106.725 88.3851 107.046C88.3855 107.156 88.3445 107.263 88.2701 107.346C88.1864 107.403 88.0863 107.431 87.9851 107.426C86.6951 107.486 86.0751 107.026 85.2851 108.151C85.2148 108.262 85.1231 108.359 85.0151 108.436C84.9044 108.489 84.7832 108.518 84.6601 108.521C83.7751 108.596 83.1951 108.021 82.3851 107.941C81.2601 107.796 81.0201 108.376 80.0301 108.841C78.4501 109.596 77.6951 109.141 77.4051 108.081Z" fill="#F5F5F5"/>
<path d="M78.8352 98.6209C78.7561 98.3184 78.7092 98.0083 78.6952 97.6959C78.5852 95.7859 76.7602 96.0909 75.1952 95.8309C73.9852 95.6259 77.1952 92.5659 74.7502 91.5759C74.273 91.4462 73.8558 91.1546 73.5702 90.7509C73.4469 90.4509 73.4324 90.1173 73.5292 89.8078C73.626 89.4982 73.8279 89.2322 74.1002 89.0559C74.6607 88.7208 75.3079 88.559 75.9602 88.5909C76.3552 88.0909 76.0352 87.3759 75.6452 86.8809C75.2552 86.3859 74.7902 85.8209 74.9352 85.2109C75.1552 84.2909 76.4352 84.2559 77.3752 84.4359C77.7202 83.8809 77.7102 83.1809 77.8752 82.5509C78.0402 81.9209 78.5452 81.2509 79.1952 81.3309C79.8452 81.4109 80.1952 82.0959 80.7802 82.2409C81.4802 82.4009 82.0802 81.7859 82.6302 81.3259C83.1802 80.8659 84.1301 80.5709 84.5101 81.1809C84.7351 81.5459 84.6002 82.0559 84.8352 82.4159C85.2402 83.0359 86.2052 82.6509 86.8001 82.2109C87.3952 81.7709 88.3552 81.3659 88.8001 81.9809C88.9048 82.1831 88.9822 82.3983 89.0301 82.6209C89.3151 83.4359 90.1952 83.8459 90.8852 84.3659C91.5752 84.8859 92.1152 85.9309 91.5352 86.5709C91.2452 86.8859 90.7401 87.0159 90.6001 87.4159C90.4201 87.9159 90.9351 88.3659 91.3401 88.7109C92.0151 89.2859 92.1402 91.0059 91.2452 91.4759C90.8702 91.6759 90.3202 91.7359 90.2452 92.1509C90.1702 92.5659 90.5352 92.8059 90.7852 93.0909C90.9428 93.2935 91.0546 93.528 91.1129 93.778C91.1712 94.028 91.1745 94.2877 91.1227 94.5391C91.0709 94.7906 90.9652 95.0278 90.8128 95.2344C90.6604 95.441 90.4651 95.6121 90.2401 95.7359C90.0301 95.8409 89.7401 95.9209 89.6851 96.1459C89.6523 96.3139 89.6697 96.4878 89.7352 96.6459C89.8234 96.9578 89.8522 97.2834 89.8202 97.6059C89.822 97.717 89.7808 97.8246 89.7052 97.9059C89.6214 97.9629 89.5213 97.991 89.4201 97.9859C88.1301 98.0409 87.5102 97.5859 86.7202 98.7059C86.6535 98.819 86.5631 98.9163 86.4552 98.9909C86.3452 99.0476 86.2238 99.0784 86.1001 99.0809C85.2101 99.1559 84.6302 98.5809 83.8202 98.4959C82.6952 98.3559 82.4602 98.9359 81.4702 99.4009C79.8852 100.131 79.1302 99.6809 78.8352 98.6209Z" fill="#F5F5F5"/>
<path d="M88.6252 103.33C88.5465 103.029 88.4996 102.721 88.4852 102.41C88.3702 100.5 86.5452 100.8 84.9852 100.54C83.7702 100.34 86.9852 97.2751 84.5352 96.2851C84.0592 96.156 83.6423 95.8663 83.3552 95.4651C83.2324 95.1646 83.2187 94.8305 83.3164 94.5209C83.4141 94.2113 83.6172 93.9457 83.8902 93.7701C84.4483 93.4334 85.0944 93.2715 85.7452 93.3051C86.1452 92.8051 85.8202 92.0901 85.4352 91.5951C85.0502 91.1001 84.5752 90.5351 84.7202 89.9251C84.9402 89.0051 86.2202 88.9701 87.1602 89.1501C87.5052 88.5901 87.5002 87.8951 87.6602 87.2601C87.8202 86.6251 88.3302 85.9651 88.9802 86.0451C89.6302 86.1251 89.9802 86.8101 90.5702 86.9501C91.2652 87.1151 91.8702 86.5001 92.4152 86.0351C92.9602 85.5701 93.9152 85.2851 94.2952 85.8951C94.5202 86.2601 94.3852 86.7651 94.6202 87.1251C95.0302 87.7501 95.9902 87.3651 96.5902 86.9201C97.1902 86.4751 98.1402 86.0801 98.5602 86.6951C98.667 86.8952 98.7461 87.1088 98.7952 87.3301C99.0752 88.1501 99.9602 88.5551 100.645 89.0801C101.33 89.6051 101.88 90.6451 101.295 91.2851C101.01 91.6001 100.505 91.7251 100.36 92.1301C100.185 92.6301 100.695 93.0801 101.1 93.4251C101.78 94.0001 101.9 95.7201 101.005 96.1901C100.63 96.3851 100.08 96.4501 100.005 96.8601C99.9302 97.2701 100.3 97.5201 100.55 97.8051C100.708 98.0081 100.819 98.2428 100.877 98.493C100.935 98.7432 100.938 99.0031 100.886 99.2546C100.833 99.506 100.727 99.7432 100.574 99.9496C100.421 100.156 100.226 100.327 100 100.45C99.7852 100.55 99.5002 100.635 99.4402 100.86C99.4064 101.028 99.4256 101.203 99.4952 101.36C99.5809 101.671 99.6097 101.994 99.5802 102.315C99.5808 102.427 99.5377 102.535 99.4602 102.615C99.3784 102.672 99.2799 102.7 99.1802 102.695C97.8902 102.755 97.2652 102.295 96.4802 103.42C96.4118 103.533 96.3197 103.631 96.2102 103.705C96.0999 103.761 95.9787 103.791 95.8552 103.795C94.9702 103.865 94.3902 103.295 93.5802 103.21C92.4552 103.065 92.2152 103.645 91.2252 104.11C89.6702 104.845 88.9152 104.395 88.6252 103.33Z" fill="#F5F5F5"/>
<path d="M98.5002 101.156C98.4215 100.855 98.3746 100.547 98.3602 100.236C98.2452 98.3209 96.4202 98.6259 94.8602 98.3659C93.6452 98.1659 96.8602 95.1009 94.4152 94.1109C93.9395 93.981 93.5228 93.6915 93.2352 93.2909C93.1099 92.9912 93.0944 92.6568 93.1913 92.3468C93.2883 92.0367 93.4915 91.7708 93.7652 91.5959C94.3236 91.2597 94.969 91.0962 95.6202 91.1259C96.0202 90.6259 95.6952 89.9109 95.3102 89.4159C94.9252 88.9209 94.4502 88.3609 94.6002 87.7509C94.8202 86.8259 96.1002 86.7959 97.0402 86.9709C97.3802 86.4159 97.3752 85.7209 97.5402 85.0859C97.7052 84.4509 98.2102 83.7909 98.8602 83.8659C99.5102 83.9409 99.8602 84.6359 100.445 84.7759C101.14 84.9409 101.745 84.3209 102.295 83.8609C102.845 83.4009 103.795 83.1109 104.175 83.7159C104.4 84.0809 104.265 84.5909 104.5 84.9509C104.905 85.5709 105.87 85.1859 106.465 84.7459C107.06 84.3059 108.015 83.9059 108.435 84.5159C108.541 84.7179 108.62 84.9331 108.67 85.1559C108.95 85.9709 109.835 86.3809 110.52 86.9009C111.205 87.4209 111.755 88.4659 111.175 89.1059C110.885 89.4209 110.38 89.5509 110.24 89.9509C110.06 90.4509 110.575 90.9059 110.98 91.2509C111.655 91.8259 111.775 93.5459 110.885 94.0159C110.51 94.2109 109.96 94.2709 109.885 94.6859C109.81 95.1009 110.18 95.3459 110.43 95.6309C110.588 95.8331 110.7 96.0671 110.758 96.3167C110.816 96.5664 110.819 96.8257 110.768 97.0768C110.716 97.3278 110.61 97.5647 110.458 97.7708C110.305 97.977 110.11 98.1476 109.885 98.2709C109.67 98.3759 109.41 98.4609 109.33 98.6809C109.294 98.8487 109.312 99.0236 109.38 99.1809C109.466 99.4932 109.495 99.8184 109.465 100.141C109.468 100.252 109.426 100.36 109.35 100.441C109.266 100.498 109.166 100.526 109.065 100.521C107.775 100.576 107.155 100.121 106.365 101.246C106.295 101.358 106.203 101.455 106.095 101.531C105.984 101.585 105.863 101.614 105.74 101.616C104.855 101.691 104.275 101.116 103.465 101.036C102.34 100.891 102.1 101.471 101.11 101.936C99.5652 102.671 98.8052 102.216 98.5002 101.156Z" fill="#F5F5F5"/>
<path d="M98.6452 111.735C98.5821 111.498 98.5452 111.254 98.5352 111.01C98.4452 109.51 97.0352 109.745 95.7852 109.54C94.8302 109.38 97.3602 106.965 95.4352 106.19C95.0592 106.087 94.7304 105.857 94.5052 105.54C94.4073 105.303 94.3958 105.04 94.4726 104.796C94.5494 104.552 94.7096 104.342 94.9252 104.205C95.3646 103.94 95.873 103.813 96.3852 103.84C96.7002 103.46 96.4452 102.885 96.1402 102.495C95.8352 102.105 95.4652 101.66 95.5802 101.18C95.7552 100.455 96.7702 100.425 97.5002 100.57C97.7042 100.091 97.8389 99.586 97.9002 99.0695C98.0302 98.5695 98.4002 98.0695 98.9402 98.1145C99.4802 98.1595 99.7152 98.7145 100.185 98.8295C100.735 98.9545 101.185 98.4695 101.64 98.1045C102.095 97.7395 102.825 97.5145 103.14 97.9945C103.315 98.2845 103.21 98.6845 103.395 98.9645C103.715 99.4645 104.47 99.1495 104.945 98.8045C105.42 98.4595 106.165 98.1395 106.495 98.6245C106.578 98.7826 106.64 98.9507 106.68 99.1245C106.9 99.7645 107.595 100.085 108.135 100.5C108.675 100.915 109.105 101.73 108.635 102.235C108.41 102.48 108.01 102.585 107.9 102.9C107.76 103.295 108.16 103.65 108.48 103.9C109.015 104.355 109.11 105.705 108.405 106.075C108.11 106.235 107.68 106.28 107.605 106.605C107.53 106.93 107.835 107.105 108.035 107.35C108.158 107.509 108.246 107.694 108.291 107.89C108.336 108.087 108.339 108.291 108.298 108.488C108.257 108.686 108.174 108.872 108.054 109.035C107.935 109.197 107.782 109.332 107.605 109.43C107.435 109.51 107.23 109.58 107.165 109.755C107.139 109.886 107.153 110.022 107.205 110.145C107.276 110.39 107.299 110.646 107.275 110.9C107.279 110.941 107.274 110.984 107.26 111.023C107.245 111.062 107.222 111.098 107.191 111.127C107.161 111.156 107.124 111.177 107.084 111.19C107.044 111.203 107.002 111.206 106.96 111.2C105.96 111.245 105.46 110.885 104.835 111.77C104.78 111.858 104.706 111.935 104.62 111.995C104.533 112.039 104.438 112.063 104.34 112.065C103.645 112.12 103.185 111.685 102.55 111.605C101.665 111.49 101.475 111.95 100.695 112.315C99.4702 112.925 98.8752 112.57 98.6452 111.735Z" fill="#F5F5F5"/>
<path d="M104.185 108.08C104.106 107.779 104.059 107.471 104.045 107.16C103.935 105.25 102.11 105.55 100.545 105.29C99.335 105.09 102.545 102.025 100.1 101.035C99.6234 100.907 99.2062 100.617 98.92 100.215C98.7957 99.9153 98.7807 99.5813 98.8776 99.2715C98.9744 98.9617 99.177 98.6958 99.45 98.5201C100.01 98.1828 100.657 98.0208 101.31 98.0551C101.705 97.5551 101.385 96.8401 100.995 96.3451C100.605 95.8501 100.14 95.2851 100.285 94.6751C100.505 93.7501 101.785 93.7201 102.725 93.9001C103.07 93.3401 103.06 92.6451 103.225 92.0101C103.39 91.3751 103.895 90.7151 104.545 90.7951C105.195 90.8751 105.545 91.5601 106.13 91.7001C106.83 91.8651 107.43 91.2501 107.98 90.7851C108.53 90.3201 109.48 90.0351 109.86 90.6451C110.085 91.0101 109.95 91.5151 110.185 91.8751C110.59 92.5001 111.555 92.1101 112.15 91.6701C112.745 91.2301 113.705 90.8301 114.125 91.4401C114.23 91.6423 114.307 91.8575 114.355 92.0801C114.64 92.9001 115.52 93.3051 116.21 93.8301C116.9 94.3551 117.44 95.3951 116.86 96.0301C116.57 96.3501 116.065 96.4751 115.925 96.8751C115.745 97.3751 116.26 97.8301 116.665 98.1751C117.34 98.7501 117.465 100.47 116.57 100.94C116.195 101.135 115.645 101.195 115.57 101.61C115.495 102.025 115.86 102.27 116.11 102.555C116.268 102.757 116.379 102.991 116.438 103.241C116.496 103.491 116.499 103.75 116.447 104.001C116.396 104.252 116.29 104.489 116.137 104.695C115.985 104.901 115.79 105.072 115.565 105.195C115.355 105.3 115.09 105.385 115.01 105.61C114.977 105.778 114.995 105.952 115.06 106.11C115.148 106.42 115.177 106.744 115.145 107.065C115.147 107.176 115.106 107.284 115.03 107.365C114.946 107.422 114.846 107.45 114.745 107.445C113.455 107.505 112.835 107.045 112.045 108.17C111.977 108.282 111.887 108.379 111.78 108.455C111.669 108.508 111.548 108.537 111.425 108.54C110.535 108.615 109.955 108.04 109.145 107.96C108.02 107.815 107.785 108.395 106.795 108.86C105.235 109.595 104.5 109.14 104.185 108.08Z" fill="#F5F5F5"/>
<path d="M88.6252 91.6945C88.5462 91.3919 88.4992 91.0819 88.4852 90.7695C88.3702 88.8595 86.5452 89.1645 84.9852 88.9045C83.7702 88.6995 86.9852 85.6345 84.5352 84.6495C84.0588 84.5183 83.6421 84.2269 83.3552 83.8245C83.2324 83.524 83.2187 83.1899 83.3164 82.8803C83.4141 82.5707 83.6172 82.3051 83.8902 82.1295C84.4483 81.7928 85.0944 81.6309 85.7452 81.6645C86.1452 81.1645 85.8202 80.4495 85.4352 79.9545C85.0502 79.4595 84.5752 78.8945 84.7202 78.2845C84.9402 77.3645 86.2202 77.3295 87.1602 77.5095C87.5052 76.9545 87.5002 76.2545 87.6602 75.6245C87.8202 74.9945 88.3302 74.3245 88.9802 74.4045C89.6302 74.4845 89.9802 75.1695 90.5702 75.3095C91.2652 75.4745 91.8702 74.8595 92.4152 74.3945C92.9602 73.9295 93.9152 73.6445 94.2952 74.2545C94.5202 74.6195 94.3852 75.1295 94.6202 75.4895C95.0302 76.1095 95.9902 75.7245 96.5902 75.2845C97.1902 74.8445 98.1402 74.4395 98.5602 75.0545C98.6674 75.2561 98.7465 75.4714 98.7952 75.6945C99.0752 76.5095 99.9602 76.9145 100.645 77.4395C101.33 77.9645 101.88 79.0045 101.295 79.6445C101.01 79.9595 100.505 80.0895 100.36 80.4895C100.185 80.9895 100.695 81.4395 101.1 81.7845C101.78 82.3595 101.9 84.0795 101.005 84.5495C100.63 84.7495 100.08 84.8095 100.005 85.2245C99.9302 85.6395 100.3 85.8795 100.55 86.1645C100.708 86.3671 100.82 86.6015 100.878 86.8515C100.936 87.1016 100.94 87.3613 100.888 87.6127C100.836 87.8641 100.73 88.1014 100.578 88.308C100.426 88.5146 100.23 88.6857 100.005 88.8095C99.7902 88.9095 99.5052 88.9945 99.4452 89.2195C99.4114 89.3878 99.4306 89.5625 99.5002 89.7195C99.5859 90.0301 99.6146 90.3536 99.5852 90.6745C99.585 90.7876 99.5422 90.8965 99.4652 90.9795C99.384 91.0373 99.2845 91.064 99.1852 91.0545C97.8952 91.1145 97.2702 90.6595 96.4852 91.7795C96.4181 91.8938 96.3258 91.9913 96.2152 92.0645C96.1057 92.1222 95.984 92.1531 95.8602 92.1545C94.9752 92.2295 94.3952 91.6545 93.5852 91.5695C92.4602 91.4295 92.2202 92.0095 91.2302 92.4745C89.6702 93.2045 88.9152 92.7545 88.6252 91.6945Z" fill="#F5F5F5"/>
<path d="M75.915 92.3453C75.8367 92.0426 75.7898 91.7326 75.775 91.4203C75.665 89.5103 73.84 89.8153 72.275 89.5553C71.065 89.3503 74.275 86.2853 71.83 85.3003C71.361 85.1732 70.9486 84.8912 70.66 84.5003C70.5367 84.2003 70.5222 83.8667 70.619 83.5571C70.7158 83.2476 70.9178 82.9816 71.19 82.8053C71.7496 82.4679 72.3975 82.306 73.05 82.3403C73.445 81.8403 73.125 81.1253 72.735 80.6303C72.345 80.1353 71.88 79.5703 72.025 78.9603C72.245 78.0403 73.525 78.0053 74.465 78.1853C74.81 77.6303 74.8 76.9303 74.965 76.3003C75.13 75.6703 75.635 75.0003 76.285 75.0803C76.935 75.1603 77.285 75.8453 77.87 75.9853C78.57 76.1503 79.17 75.5353 79.72 75.0703C80.27 74.6053 81.22 74.3203 81.6 74.9303C81.825 75.2953 81.69 75.8053 81.925 76.1653C82.33 76.7853 83.295 76.4003 83.89 75.9553C84.485 75.5103 85.445 75.1153 85.865 75.7303C85.9705 75.9321 86.0478 76.1475 86.095 76.3703C86.38 77.1853 87.26 77.5903 87.95 78.1153C88.64 78.6403 89.18 79.6803 88.6 80.3203C88.31 80.6353 87.805 80.7603 87.665 81.1653C87.485 81.6653 88 82.1153 88.405 82.4603C89.08 83.0353 89.205 84.7553 88.31 85.2253C87.935 85.4253 87.385 85.4853 87.31 85.9003C87.235 86.3153 87.6 86.5553 87.85 86.8403C88.0076 87.0429 88.1195 87.2773 88.1777 87.5273C88.236 87.7774 88.2394 88.037 88.1876 88.2885C88.1358 88.5399 88.03 88.7771 87.8777 88.9838C87.7253 89.1904 87.5299 89.3615 87.305 89.4853C87.095 89.5853 86.805 89.6703 86.75 89.8953C86.7171 90.0632 86.7345 90.2372 86.8 90.3953C86.8881 90.7054 86.9169 91.0294 86.885 91.3503C86.8874 91.4615 86.8461 91.5692 86.77 91.6503C86.6883 91.7115 86.5866 91.74 86.485 91.7303C85.195 91.7903 84.575 91.3353 83.785 92.4553C83.7184 92.5684 83.628 92.6656 83.52 92.7403C83.4101 92.797 83.2886 92.8278 83.165 92.8303C82.275 92.9053 81.695 92.3303 80.885 92.2453C79.76 92.1053 79.525 92.6803 78.535 93.1503C76.965 93.8553 76.21 93.4053 75.915 92.3453Z" fill="#F5F5F5"/>
<path d="M68.1999 97.5456C68.1208 97.243 68.0739 96.933 68.0599 96.6206C67.9449 94.7106 66.1199 95.0156 64.5599 94.7556C63.3449 94.5506 66.5599 91.4856 64.1099 90.5006C63.6334 90.3694 63.2167 90.078 62.9299 89.6756C62.8156 89.3736 62.8099 89.0413 62.9139 88.7357C63.018 88.43 63.2251 88.1701 63.4999 88.0006C64.0575 87.6628 64.7039 87.5007 65.3549 87.5356C65.7549 87.0356 65.4299 86.3206 65.0449 85.8256C64.6599 85.3306 64.1849 84.7656 64.3299 84.1556C64.5499 83.2356 65.8299 83.2006 66.7699 83.3806C67.1149 82.8256 67.1099 82.1256 67.2699 81.4956C67.4299 80.8656 67.9399 80.1956 68.5899 80.2756C69.2399 80.3556 69.5899 81.0406 70.1799 81.1806C70.8749 81.3456 71.4799 80.7306 72.0249 80.2656C72.5699 79.8006 73.5249 79.5156 73.9049 80.1256C74.1299 80.4906 73.9949 81.0006 74.2299 81.3606C74.6349 81.9806 75.5999 81.5956 76.1999 81.1556C76.7999 80.7156 77.7499 80.3106 78.1699 80.9256C78.2753 81.1275 78.3527 81.3428 78.3999 81.5656C78.6849 82.3806 79.5699 82.7856 80.2549 83.3106C80.9399 83.8356 81.4849 84.8756 80.9049 85.5156C80.6199 85.8306 80.1149 85.9606 79.9699 86.3606C79.7949 86.8606 80.3049 87.3106 80.7099 87.6556C81.3849 88.2306 81.5099 89.9506 80.6149 90.4206C80.2399 90.6206 79.6899 90.6806 79.6149 91.0956C79.5399 91.5106 79.9099 91.7506 80.1549 92.0356C80.3119 92.2382 80.4233 92.4723 80.4815 92.722C80.5397 92.9716 80.5432 93.2309 80.492 93.482C80.4407 93.7332 80.3358 93.9703 80.1844 94.1772C80.033 94.384 79.8387 94.5557 79.6149 94.6806C79.3999 94.7806 79.1149 94.8656 79.0549 95.0906C79.022 95.2585 79.0394 95.4325 79.1049 95.5906C79.1945 95.9004 79.2251 96.2244 79.1949 96.5456C79.1946 96.6587 79.1518 96.7676 79.0749 96.8506C78.9936 96.9084 78.8942 96.9351 78.7949 96.9256C77.5049 96.9856 76.8799 96.5306 76.0949 97.6506C76.0278 97.7649 75.9354 97.8624 75.8249 97.9356C75.7152 97.9928 75.5936 98.0236 75.4699 98.0256C74.5799 98.1006 74.0049 97.5256 73.1899 97.4406C72.0699 97.3006 71.8299 97.8806 70.8399 98.3456C69.2449 99.0556 68.4999 98.6056 68.1999 97.5456Z" fill="#F5F5F5"/>
<path d="M70.54 104.115C70.54 104.115 73.765 108.68 74.88 110.115C75.995 111.55 81.555 120.58 82.315 126.545C82.395 127.18 82.475 127.725 82.555 128.205C80.16 144.005 80.555 207.825 80.62 212.775H91.33C90.155 163.89 88.915 121.275 89.155 119.71C89.405 118.065 92.575 111.785 97.475 109.21C102.375 106.635 106.605 98.1001 106.605 98.1001H105.045C105.045 98.1001 102.15 103.33 98.045 106.225C97.4541 106.633 96.836 107.001 96.195 107.325C96.2041 104.177 95.6486 101.052 94.555 98.1001L93.71 98.8801C94.85 103.54 94.71 106.525 94.355 108.235C92.8009 108.965 91.3663 109.926 90.1 111.085C85.825 105.53 83.425 92.8301 83.425 92.8301L82.33 93.4251C82.6408 96.0481 83.1117 98.6496 83.74 101.215C84.545 104.505 86.9 110.715 87.995 113.505C86.6848 115.392 85.6007 117.426 84.765 119.565C84.6494 119.382 84.5117 119.214 84.355 119.065C81.57 116.565 76.355 104.66 76.355 104.66C75.09 101.9 77.025 94.6601 77.025 94.6601H75.565L74.88 101L71.205 97.0001L70.54 97.5601L74.435 102.56L76.435 108.91L71.205 103.115L70.54 104.115Z" fill="#F5F5F5"/>
<path d="M150 238.781C203.541 238.781 246.945 236.247 246.945 233.121C246.945 229.995 203.541 227.461 150 227.461C96.4589 227.461 53.0552 229.995 53.0552 233.121C53.0552 236.247 96.4589 238.781 150 238.781Z" fill="#F5F5F5"/>
<path d="M64.1852 125.674H62.1802V224.224H64.1852V125.674Z" fill="#263238"/>
<path opacity="0.6" d="M64.1852 125.674H62.1802V224.224H64.1852V125.674Z" fill="white"/>
<path d="M66.9502 117.559L65.8752 127.899H60.4902L59.4102 117.559H66.9502Z" fill="#263238"/>
<path opacity="0.4" d="M66.9502 117.559L65.8752 127.899H60.4902L59.4102 117.559H66.9502Z" fill="white"/>
<path d="M65.3099 127.264H61.0549L60.1099 118.189H66.2499L65.3099 127.264Z" fill="#3FA654"/>
<path opacity="0.4" d="M65.3099 127.264H61.0549L60.1099 118.189H66.2499L65.3099 127.264Z" fill="white"/>
<path d="M62.6251 127.41H62.3301L62.0151 117.875H62.3051L62.6251 127.41Z" fill="#263238"/>
<path opacity="0.3" d="M62.6251 127.41H62.3301L62.0151 117.875H62.3051L62.6251 127.41Z" fill="white"/>
<path opacity="0.4" d="M66.95 117.559L65.875 127.899H62.49L62.085 117.559H66.95Z" fill="white"/>
<path d="M63.18 114.234C63.18 114.234 59.985 117.389 57.54 117.389L58.3 117.889H68.065L68.825 117.389C66.375 117.389 63.18 114.234 63.18 114.234Z" fill="#263238"/>
<path opacity="0.5" d="M68.825 117.39L68.065 117.89H58.3L57.54 117.39C59.99 117.39 63.18 114.24 63.18 114.24C63.18 114.24 66.375 117.39 68.825 117.39Z" fill="white"/>
<path opacity="0.4" d="M68.825 117.39L68.065 117.89H61.72L61.395 117.35C63.095 116.56 63.18 114.24 63.18 114.24C63.18 114.24 66.375 117.39 68.825 117.39Z" fill="white"/>
<path d="M242.365 224.226H244.425L240.215 200.451H238.155L242.365 224.226Z" fill="#3FA654"/>
<path d="M178.335 224.226H180.395L176.185 200.451H174.125L178.335 224.226Z" fill="#3FA654"/>
<path opacity="0.3" d="M242.365 224.226H244.425L240.215 200.451H238.155L242.365 224.226Z" fill="white"/>
<path opacity="0.3" d="M178.335 224.226H180.395L176.185 200.451H174.125L178.335 224.226Z" fill="white"/>
<path d="M160.41 214.42H241.29V212.335H160.41V214.42Z" fill="#3FA654"/>
<path opacity="0.5" d="M160.41 214.42H241.29V212.335H160.41V214.42Z" fill="white"/>
<path d="M223.365 224.226H221.305L225.515 200.451H227.575L223.365 224.226Z" fill="#3FA654"/>
<path d="M159.335 224.226H157.275L161.485 200.451H163.545L159.335 224.226Z" fill="#3FA654"/>
<path opacity="0.3" d="M223.365 224.226H221.305L225.515 200.451H227.575L223.365 224.226Z" fill="white"/>
<path opacity="0.3" d="M159.335 224.226H157.275L161.485 200.451H163.545L159.335 224.226Z" fill="white"/>
<path d="M178.02 199.525H180.07L183.505 180.445H181.45L178.02 199.525Z" fill="#3FA654"/>
<path opacity="0.3" d="M178.02 199.525H180.07L183.505 180.445H181.45L178.02 199.525Z" fill="white"/>
<path d="M237.47 199.525H239.525L242.955 180.445H240.905L237.47 199.525Z" fill="#3FA654"/>
<path d="M207.745 199.525H209.795L213.23 180.445H211.18L207.745 199.525Z" fill="#3FA654"/>
<path opacity="0.3" d="M237.47 199.525H239.525L242.955 180.445H240.905L237.47 199.525Z" fill="white"/>
<path opacity="0.3" d="M207.745 199.525H209.795L213.23 180.445H211.18L207.745 199.525Z" fill="white"/>
<path d="M174.48 181.751H247.065L247.705 178.176H175.12L174.48 181.751Z" fill="#3FA654"/>
<path d="M173.315 188.212H245.9L246.545 184.637H173.96L173.315 188.212Z" fill="#3FA654"/>
<path d="M172.155 194.666H244.74L245.38 191.096H172.795L172.155 194.666Z" fill="#3FA654"/>
<path d="M156.845 201.432H244.205V198.962H156.845V201.432Z" fill="#3FA654"/>
<path opacity="0.5" d="M174.48 181.751H247.065L247.705 178.176H175.12L174.48 181.751Z" fill="white"/>
<path opacity="0.5" d="M173.315 188.212H245.9L246.545 184.637H173.96L173.315 188.212Z" fill="white"/>
<path opacity="0.5" d="M172.155 194.666H244.74L245.38 191.096H172.795L172.155 194.666Z" fill="white"/>
<path opacity="0.5" d="M156.845 201.432H244.205V198.962H156.845V201.432Z" fill="white"/>
<path opacity="0.2" d="M156.84 201.432H227.355V198.962H156.84V201.432Z" fill="white"/>
<path d="M190.115 232.905C190.115 232.905 194.09 225.15 193.09 224.405C192.09 223.66 190.12 230.905 190.115 230.32C190.11 229.735 190.225 219.895 188.39 220.285C186.555 220.675 188.39 229.76 188.39 229.76C188.39 229.76 185.92 225.115 184.95 225.47C183.98 225.825 187.805 231.34 187.805 231.34C187.805 231.34 185.525 229.955 184.95 230.065C184.375 230.175 187.805 232.92 187.805 232.92L190.115 232.905Z" fill="#3FA654"/>
<path d="M71.265 232.905C71.265 232.905 67.265 225.15 68.265 224.405C69.265 223.66 71.265 230.905 71.265 230.32C71.265 229.735 71.155 219.895 72.995 220.285C74.835 220.675 72.995 229.76 72.995 229.76C72.995 229.76 75.465 225.115 76.43 225.47C77.395 225.825 73.575 231.34 73.575 231.34C73.575 231.34 75.86 229.955 76.43 230.065C77 230.175 73.575 232.92 73.575 232.92L71.265 232.905Z" fill="#3FA654"/>
<path d="M95.5849 232.905C95.5849 232.905 91.0849 228.93 92.4199 228.255C93.7549 227.58 95.4199 231.255 95.5849 230.71C95.7499 230.165 94.6999 225.1 97.2099 225.455C99.7199 225.81 97.2099 230.71 97.2099 230.71C97.2099 230.71 99.0699 228.71 99.7099 229.01C100.35 229.31 97.7099 232.905 97.7099 232.905H95.5849Z" fill="#3FA654"/>
<path d="M244.5 232.905C244.5 232.905 249.025 228.93 247.67 228.255C246.315 227.58 244.67 231.255 244.5 230.71C244.33 230.165 245.385 225.1 242.875 225.455C240.365 225.81 242.875 230.71 242.875 230.71C242.875 230.71 241.02 228.71 240.375 229.01C239.73 229.31 242.35 232.905 242.35 232.905H244.5Z" fill="#3FA654"/>
<g opacity="0.4">
<path opacity="0.4" d="M190.115 232.905C190.115 232.905 194.09 225.15 193.09 224.405C192.09 223.66 190.12 230.905 190.115 230.32C190.11 229.735 190.225 219.895 188.39 220.285C186.555 220.675 188.39 229.76 188.39 229.76C188.39 229.76 185.92 225.115 184.95 225.47C183.98 225.825 187.805 231.34 187.805 231.34C187.805 231.34 185.525 229.955 184.95 230.065C184.375 230.175 187.805 232.92 187.805 232.92L190.115 232.905Z" fill="white"/>
<path opacity="0.4" d="M71.265 232.905C71.265 232.905 67.265 225.15 68.265 224.405C69.265 223.66 71.265 230.905 71.265 230.32C71.265 229.735 71.155 219.895 72.995 220.285C74.835 220.675 72.995 229.76 72.995 229.76C72.995 229.76 75.465 225.115 76.43 225.47C77.395 225.825 73.575 231.34 73.575 231.34C73.575 231.34 75.86 229.955 76.43 230.065C77 230.175 73.575 232.92 73.575 232.92L71.265 232.905Z" fill="white"/>
<path opacity="0.4" d="M95.5849 232.905C95.5849 232.905 91.0849 228.93 92.4199 228.255C93.7549 227.58 95.4199 231.255 95.5849 230.71C95.7499 230.165 94.6999 225.1 97.2099 225.455C99.7199 225.81 97.2099 230.71 97.2099 230.71C97.2099 230.71 99.0699 228.71 99.7099 229.01C100.35 229.31 97.7099 232.905 97.7099 232.905H95.5849Z" fill="white"/>
<path opacity="0.4" d="M244.5 232.905C244.5 232.905 249.025 228.93 247.67 228.255C246.315 227.58 244.67 231.255 244.5 230.71C244.33 230.165 245.385 225.1 242.875 225.455C240.365 225.81 242.875 230.71 242.875 230.71C242.875 230.71 241.02 228.71 240.375 229.01C239.73 229.31 242.35 232.905 242.35 232.905H244.5Z" fill="white"/>
</g>
<path d="M62.6348 232.88H71.2648C71.2648 232.88 69.2298 230.34 66.9498 229.96C64.6698 229.58 62.6348 232.88 62.6348 232.88Z" fill="#263238"/>
<path d="M107.95 232.88H111.925C111.925 232.88 110.66 231.175 109.495 231.105C108.33 231.035 107.95 232.88 107.95 232.88Z" fill="#263238"/>
<path d="M225.6 232.879H231.805C231.805 232.879 230.42 229.974 228.7 229.879C226.98 229.784 225.6 232.879 225.6 232.879Z" fill="#263238"/>
<path opacity="0.4" d="M62.6348 232.88H71.2648C71.2648 232.88 69.2298 230.34 66.9498 229.96C64.6698 229.58 62.6348 232.88 62.6348 232.88Z" fill="white"/>
<path opacity="0.4" d="M107.95 232.88H111.925C111.925 232.88 110.66 231.175 109.495 231.105C108.33 231.035 107.95 232.88 107.95 232.88Z" fill="white"/>
<path opacity="0.4" d="M225.6 232.879H231.805C231.805 232.879 230.42 229.974 228.7 229.879C226.98 229.784 225.6 232.879 225.6 232.879Z" fill="white"/>
<path d="M218.665 230.46L208.63 208.655V87C208.63 86.5359 208.446 86.0908 208.117 85.7626C207.789 85.4344 207.344 85.25 206.88 85.25H127.43C126.966 85.25 126.521 85.4344 126.193 85.7626C125.864 86.0908 125.68 86.5359 125.68 87V208.655L115.645 230.46C115.517 230.727 115.459 231.023 115.476 231.319C115.494 231.615 115.587 231.901 115.746 232.152C115.905 232.402 116.125 232.607 116.386 232.749C116.646 232.89 116.939 232.963 117.235 232.96H137.625C137.921 232.963 138.214 232.89 138.474 232.749C138.735 232.607 138.955 232.402 139.114 232.152C139.273 231.901 139.366 231.615 139.384 231.319C139.401 231.023 139.343 230.727 139.215 230.46L129.18 208.655V88.765H205.13V208.655L195.095 230.46C194.967 230.727 194.909 231.023 194.926 231.319C194.944 231.615 195.037 231.901 195.196 232.152C195.355 232.402 195.575 232.607 195.836 232.749C196.096 232.89 196.389 232.963 196.685 232.96H217.075C217.371 232.963 217.664 232.89 217.924 232.749C218.185 232.607 218.405 232.402 218.564 232.152C218.723 231.901 218.816 231.615 218.834 231.319C218.851 231.023 218.793 230.727 218.665 230.46ZM125.665 217.025V229.44H119.965L125.665 217.025ZM134.88 229.44H129.18V217.025L134.88 229.44ZM205.115 217.025V229.44H199.415L205.115 217.025ZM208.615 229.44V217.025L214.33 229.44H208.615Z" fill="#263238"/>
<path opacity="0.4" d="M218.665 230.46L208.63 208.655V87C208.63 86.5359 208.446 86.0908 208.117 85.7626C207.789 85.4344 207.344 85.25 206.88 85.25H127.43C126.966 85.25 126.521 85.4344 126.193 85.7626C125.864 86.0908 125.68 86.5359 125.68 87V208.655L115.645 230.46C115.517 230.727 115.459 231.023 115.476 231.319C115.494 231.615 115.587 231.901 115.746 232.152C115.905 232.402 116.125 232.607 116.386 232.749C116.646 232.89 116.939 232.963 117.235 232.96H137.625C137.921 232.963 138.214 232.89 138.474 232.749C138.735 232.607 138.955 232.402 139.114 232.152C139.273 231.901 139.366 231.615 139.384 231.319C139.401 231.023 139.343 230.727 139.215 230.46L129.18 208.655V88.765H205.13V208.655L195.095 230.46C194.967 230.727 194.909 231.023 194.926 231.319C194.944 231.615 195.037 231.901 195.196 232.152C195.355 232.402 195.575 232.607 195.836 232.749C196.096 232.89 196.389 232.963 196.685 232.96H217.075C217.371 232.963 217.664 232.89 217.924 232.749C218.185 232.607 218.405 232.402 218.564 232.152C218.723 231.901 218.816 231.615 218.834 231.319C218.851 231.023 218.793 230.727 218.665 230.46ZM125.665 217.025V229.44H119.965L125.665 217.025ZM134.88 229.44H129.18V217.025L134.88 229.44ZM205.115 217.025V229.44H199.415L205.115 217.025ZM208.615 229.44V217.025L214.33 229.44H208.615Z" fill="white"/>
<path d="M127.87 135.11C127.87 135.11 119.935 133.835 119.5 133.705C119.065 133.575 110.035 127.855 110.035 127.855C110.035 127.855 110.695 126.62 110.035 126.095C109.375 125.57 107.2 123.5 107.2 123.5L104.825 126.955L107.295 129.365H108.88C108.88 129.365 117.38 135.305 118.67 135.83C119.96 136.355 127.97 138.83 127.97 138.83L127.87 135.11Z" fill="#EBB376"/>
<path d="M132.415 141.565L132.29 141.515L126.945 139.445L121.935 137.505L121.44 133.705L130.155 135.11L132.415 141.565Z" fill="#3FA654"/>
<path opacity="0.2" d="M132.29 141.501L126.945 139.431C128.775 138.481 131.24 138.891 131.24 138.891L132.29 141.501Z" fill="#333333"/>
<path d="M150 140.144C150 140.144 156.675 144.504 158.625 144.949C160.355 145.344 166.28 139.919 166.28 139.919C166.28 139.919 166.51 137.999 166.49 137.234C166.47 136.469 168.27 135.109 168.27 135.109L170.245 135.914C170.245 135.914 170.395 140.699 169.9 141.289C169.405 141.879 167.445 142.084 167.445 142.084C167.445 142.084 160.655 147.999 159.27 147.999C156.205 147.999 148.5 143.154 148.5 143.154L150 140.144Z" fill="#EBB376"/>
<path d="M124.465 166.086L120.87 167.026V168.011L119.52 167.381L115.93 168.326L115.61 169.396L114.255 168.766L110.68 169.701V171.061L138.5 184.906L143.06 183.496V182.681L143.645 182.981L147.74 181.841V181.156L148.37 181.496L152.05 180.346L152.265 179.036L124.465 166.086Z" fill="#3FA654"/>
<path opacity="0.4" d="M152.265 179.036L148.25 180.346L120.87 167.026L124.465 166.086L152.265 179.036Z" fill="white"/>
<path opacity="0.4" d="M147.74 180.531L143.72 181.841L115.93 168.326L119.52 167.381L147.74 180.531Z" fill="white"/>
<path opacity="0.4" d="M143.06 182.186L139.04 183.496L110.68 169.701L114.255 168.766L143.06 182.186Z" fill="white"/>
<path d="M112.61 170.625C112.576 170.625 112.542 170.618 112.511 170.604C112.48 170.59 112.453 170.57 112.43 170.545C112.407 170.522 112.388 170.495 112.376 170.465C112.363 170.435 112.356 170.402 112.356 170.37C112.356 170.337 112.363 170.305 112.376 170.275C112.388 170.245 112.407 170.218 112.43 170.195L126.21 157.08C126.248 157.042 126.298 157.018 126.351 157.01C126.404 157.003 126.458 157.013 126.505 157.039C126.553 157.064 126.59 157.105 126.613 157.154C126.635 157.202 126.641 157.257 126.63 157.31L124.63 167.205C124.617 167.271 124.578 167.329 124.521 167.367C124.465 167.404 124.396 167.418 124.33 167.405C124.264 167.391 124.205 167.352 124.168 167.296C124.13 167.24 124.117 167.171 124.13 167.105L126 158L112.795 170.565C112.77 170.587 112.741 170.604 112.709 170.614C112.677 170.624 112.643 170.628 112.61 170.625Z" fill="#263238"/>
<path d="M126.39 157.5C126.343 157.5 126.296 157.486 126.257 157.46C126.217 157.435 126.185 157.398 126.165 157.355C126.145 157.312 126.138 157.265 126.144 157.218C126.15 157.171 126.17 157.127 126.2 157.09C126.44 156.8 150.565 127.505 154.89 88.7303C154.893 88.6974 154.903 88.6654 154.918 88.6363C154.934 88.6071 154.955 88.5813 154.981 88.5604C155.006 88.5395 155.036 88.5238 155.067 88.5144C155.099 88.5049 155.132 88.5018 155.165 88.5053C155.231 88.514 155.291 88.5482 155.332 88.6005C155.373 88.6528 155.392 88.7191 155.385 88.7853C151.045 127.715 126.825 157.12 126.58 157.41C126.557 157.438 126.528 157.461 126.495 157.477C126.462 157.492 126.426 157.5 126.39 157.5Z" fill="#263238"/>
<path d="M65.195 187C64.9401 186.915 64.7193 186.75 64.565 186.53C64.5211 186.454 64.498 186.368 64.498 186.28C64.498 186.192 64.5211 186.106 64.565 186.03C64.5861 185.983 64.6196 185.943 64.6619 185.914C64.7042 185.885 64.7537 185.868 64.805 185.865C65.305 185.865 66.185 187 66.28 187.135C66.291 187.149 66.297 187.165 66.297 187.183C66.297 187.2 66.291 187.217 66.28 187.23C66.2687 187.245 66.2532 187.257 66.2354 187.263C66.2176 187.269 66.1983 187.27 66.18 187.265C65.8436 187.21 65.5135 187.122 65.195 187ZM64.97 186.08C64.9303 186.064 64.8879 186.056 64.845 186.055C64.8246 186.056 64.8047 186.062 64.7878 186.074C64.771 186.085 64.7578 186.101 64.75 186.12C64.7185 186.17 64.7018 186.228 64.7018 186.288C64.7018 186.347 64.7185 186.405 64.75 186.455C65.0844 186.794 65.5266 187.004 66 187.05C65.7184 186.663 65.3696 186.329 64.97 186.065V186.08Z" fill="#3FA654"/>
<path d="M77.8453 185.284L72.3303 188.184L69.6803 189.579L67.9053 186.954L70.1803 185.344L75.7403 181.404L77.8453 185.284Z" fill="#EBB376"/>
<path d="M68.3151 186.296L70.6601 189.121C70.7162 189.196 70.7413 189.29 70.7301 189.383C70.7189 189.476 70.6724 189.561 70.6001 189.621L69.1651 190.741C69.1651 190.741 67.3401 192.381 66.5501 192.311C64.2451 192.116 58.9051 185.991 59.3351 185.101C59.4901 184.776 60.0901 184.831 60.4301 184.941C61.5201 185.296 64.0951 186.521 65.0051 186.806C66.0751 187.136 67.3251 186.506 67.8551 186.191C67.9313 186.149 68.0202 186.137 68.105 186.156C68.1898 186.175 68.2646 186.225 68.3151 186.296Z" fill="#263238"/>
<path d="M66.1902 187.271V187.236C65.8952 186.886 65.5052 185.846 65.7552 185.506C65.797 185.451 65.857 185.412 65.9247 185.396C65.9924 185.381 66.0634 185.389 66.1252 185.421C66.1944 185.438 66.2592 185.469 66.3153 185.513C66.3713 185.557 66.4173 185.613 66.4502 185.676C66.7302 186.176 66.3702 187.176 66.3402 187.221C66.3328 187.236 66.3214 187.249 66.3073 187.257C66.2932 187.266 66.2769 187.271 66.2602 187.271H66.1902ZM66.0802 185.606H66.0402C65.9202 185.571 65.8902 185.606 65.8752 185.636C65.7252 185.831 65.9402 186.581 66.1902 187.001C66.3422 186.61 66.3632 186.18 66.2502 185.776C66.2117 185.707 66.1521 185.653 66.0802 185.621V185.606Z" fill="#3FA654"/>
<path opacity="0.2" d="M77.8452 185.284L72.3302 188.184L70.1802 185.344L75.7402 181.404L77.8452 185.284Z" fill="#333333"/>
<path d="M149.315 160.386C148.315 176.761 138.995 178.281 133.95 177.191C132.015 176.776 127.51 175.641 122.5 174.466C115.15 172.746 106.7 170.936 103.62 171.146C103.375 171.156 103.131 171.195 102.895 171.261C99.3349 172.346 73.4249 188.421 73.4249 188.421L70.7549 184.216C70.7549 184.216 95.7549 163.741 100.72 162.896C105.685 162.051 126.15 161.896 126.15 161.896L129.39 156.666L149.315 160.386Z" fill="#263238"/>
<path d="M142.735 161.626L148.615 162.896L148.89 160.961L143.13 159.666L142.735 161.626Z" fill="#333333"/>
<path d="M131.555 157.061L129.805 156.666L128.755 158.611L131.14 159.126L131.555 157.061Z" fill="#333333"/>
<path d="M132.305 157.23L131.89 159.285L141.83 161.43L142.23 159.46L132.305 157.23Z" fill="#333333"/>
<path d="M136.79 160.71H136.76L134.975 160.27C134.872 160.242 134.776 160.194 134.692 160.128C134.608 160.062 134.538 159.981 134.486 159.888C134.434 159.794 134.401 159.692 134.389 159.586C134.376 159.48 134.385 159.373 134.415 159.27L134.605 158.475C134.657 158.269 134.786 158.09 134.965 157.975C135.05 157.918 135.146 157.879 135.246 157.861C135.347 157.843 135.451 157.846 135.55 157.87L137.34 158.31C137.442 158.339 137.538 158.388 137.622 158.454C137.705 158.52 137.775 158.602 137.827 158.694C137.879 158.787 137.912 158.889 137.925 158.995C137.937 159.101 137.929 159.208 137.9 159.31L137.705 160.105C137.659 160.304 137.539 160.478 137.369 160.591C137.198 160.704 136.991 160.746 136.79 160.71ZM136.84 160.37C136.9 160.384 136.962 160.385 137.023 160.374C137.083 160.363 137.141 160.34 137.193 160.306C137.244 160.273 137.289 160.229 137.324 160.179C137.358 160.128 137.383 160.071 137.395 160.01L137.585 159.215C137.61 159.096 137.591 158.972 137.531 158.867C137.471 158.761 137.375 158.68 137.26 158.64L135.47 158.2C135.412 158.185 135.352 158.183 135.293 158.193C135.235 158.203 135.179 158.226 135.13 158.26C135.025 158.33 134.95 158.437 134.92 158.56L134.73 159.355C134.713 159.415 134.709 159.476 134.716 159.537C134.723 159.598 134.742 159.657 134.773 159.711C134.803 159.764 134.843 159.811 134.892 159.849C134.94 159.887 134.996 159.914 135.055 159.93L136.84 160.37Z" fill="white"/>
<path d="M137.45 159.764L136.545 159.579C136.49 159.568 136.442 159.536 136.411 159.489C136.38 159.442 136.369 159.385 136.38 159.329C136.392 159.274 136.424 159.226 136.471 159.195C136.518 159.164 136.575 159.153 136.63 159.164L137.535 159.349C137.562 159.354 137.588 159.364 137.611 159.379C137.635 159.394 137.654 159.414 137.67 159.437C137.685 159.46 137.696 159.486 137.701 159.513C137.706 159.54 137.706 159.568 137.7 159.594C137.688 159.649 137.656 159.698 137.609 159.729C137.563 159.761 137.506 159.773 137.45 159.764Z" fill="white"/>
<path d="M139.29 182.951C139.229 182.949 139.171 182.926 139.125 182.886C139.102 182.863 139.083 182.835 139.07 182.804C139.058 182.774 139.051 182.741 139.051 182.708C139.051 182.675 139.058 182.643 139.07 182.612C139.083 182.582 139.102 182.554 139.125 182.531L152.905 167.216C152.941 167.174 152.99 167.145 153.044 167.134C153.098 167.123 153.154 167.13 153.203 167.154C153.253 167.178 153.293 167.217 153.318 167.267C153.343 167.316 153.351 167.372 153.34 167.426L151.34 178.986C151.328 179.052 151.29 179.111 151.235 179.149C151.18 179.188 151.112 179.203 151.045 179.191C150.979 179.179 150.92 179.141 150.882 179.086C150.843 179.03 150.828 178.962 150.84 178.896L152.7 168.196L139.5 182.866C139.474 182.895 139.441 182.918 139.405 182.932C139.369 182.947 139.329 182.953 139.29 182.951Z" fill="#263238"/>
<path d="M153.07 167.631C153.024 167.63 152.98 167.618 152.94 167.596C152.912 167.579 152.888 167.556 152.869 167.529C152.849 167.502 152.836 167.472 152.828 167.44C152.821 167.408 152.82 167.375 152.825 167.342C152.831 167.31 152.842 167.279 152.86 167.251C153.1 166.856 176.965 127.466 181.57 88.7509C181.574 88.7182 181.584 88.6865 181.6 88.6578C181.616 88.6291 181.638 88.604 181.664 88.5839C181.69 88.5638 181.72 88.5492 181.752 88.541C181.784 88.5327 181.817 88.531 181.85 88.5359C181.915 88.5435 181.975 88.5766 182.017 88.6281C182.058 88.6796 182.077 88.7454 182.07 88.8109C177.45 127.636 153.525 167.116 153.285 167.501C153.264 167.54 153.233 167.573 153.195 167.596C153.157 167.619 153.114 167.631 153.07 167.631Z" fill="#263238"/>
<path d="M149.315 160.384L129.39 156.664C129.39 156.664 130.89 148.334 130.73 140.934C130.717 138.979 130.525 137.029 130.155 135.109C130.155 135.109 139.695 136.424 142.365 136.559C144.195 136.732 146.009 137.046 147.79 137.499C148.455 139.251 148.944 141.065 149.25 142.914C149.345 143.449 149.44 144.024 149.525 144.634C149.655 145.569 149.77 146.584 149.85 147.684C150.154 151.924 149.975 156.185 149.315 160.384Z" fill="#3FA654"/>
<path opacity="0.6" d="M149.315 160.384L129.39 156.664C129.39 156.664 130.89 148.334 130.73 140.934C130.73 140.934 132.29 138.644 134.375 137.654C134.375 137.654 134.285 139.084 136.375 139.754C138.465 140.424 140.94 138.539 140.94 138.539C140.94 138.539 144.775 143.754 149.525 144.659C150.221 149.883 150.15 155.181 149.315 160.384Z" fill="white"/>
<path opacity="0.2" d="M149.85 147.691C148.085 146.006 147.155 143.191 147.155 143.191C147.467 143.004 147.814 142.882 148.174 142.834C148.534 142.786 148.9 142.812 149.25 142.911C149.345 143.446 149.44 144.021 149.525 144.631C149.655 145.576 149.77 146.591 149.85 147.691Z" fill="#333333"/>
<path d="M147.79 137.5C150.17 138.22 157.045 143.91 157.045 143.91L154.72 147.52L149.525 144.635C149.525 144.635 147.105 144.135 146.525 141.93C145.945 139.725 147.79 137.5 147.79 137.5Z" fill="#3FA654"/>
<path d="M139.42 128.326C139.42 130.951 139.79 135.686 141.885 137.041C141.885 137.041 139.385 139.326 136.82 138.841C135.17 138.531 134.82 136.461 134.82 136.461C136.545 136.621 136.26 135.241 135.395 133.366L139.42 128.326Z" fill="#EBB376"/>
<path opacity="0.2" d="M137.77 130.381L135.375 133.381C135.579 133.816 135.746 134.268 135.875 134.731C137.455 135.311 139.335 133.086 139.235 131.936C139.22 131.451 137.96 130.811 137.77 130.381Z" fill="#333333"/>
<path d="M134.955 122.855C136.315 123.925 135.545 125.52 132.13 127.855C130.945 126.06 130.965 122.74 132.07 121.985C133.175 121.23 133.775 121.925 134.955 122.855Z" fill="#263238"/>
<path d="M140.9 125.961C140.49 129.461 140.43 131.491 138.57 133.186C135.77 135.731 131.57 133.891 130.915 130.361C130.345 127.191 131.105 122.041 134.595 120.861C135.363 120.594 136.188 120.527 136.989 120.667C137.79 120.808 138.543 121.151 139.174 121.664C139.806 122.177 140.296 122.843 140.598 123.598C140.9 124.354 141.004 125.174 140.9 125.981V125.961Z" fill="#EBB376"/>
<path d="M135.64 126.626C135.64 126.911 135.46 127.126 135.275 127.126C135.09 127.126 134.955 126.881 134.97 126.596C134.985 126.311 135.145 126.096 135.33 126.096C135.515 126.096 135.635 126.346 135.64 126.626Z" fill="#263238"/>
<path d="M132.41 126.451C132.41 126.736 132.23 126.951 132.045 126.951C131.86 126.951 131.72 126.706 131.735 126.416C131.75 126.126 131.92 125.916 132.105 125.916C132.29 125.916 132.43 126.171 132.41 126.451Z" fill="#263238"/>
<path d="M133.455 126.645C133.068 127.494 132.563 128.286 131.955 128.995C132.141 129.145 132.359 129.252 132.591 129.309C132.823 129.366 133.065 129.371 133.3 129.325L133.455 126.645Z" fill="#DE5753"/>
<path d="M136.575 125.66C136.606 125.666 136.639 125.662 136.668 125.649C136.697 125.637 136.722 125.616 136.739 125.589C136.757 125.562 136.765 125.53 136.765 125.498C136.764 125.467 136.753 125.436 136.735 125.41C136.592 125.186 136.398 125 136.168 124.866C135.938 124.733 135.68 124.657 135.415 124.645C135.394 124.644 135.372 124.648 135.352 124.655C135.332 124.663 135.314 124.675 135.299 124.69C135.283 124.705 135.271 124.722 135.263 124.742C135.254 124.762 135.25 124.783 135.25 124.805C135.252 124.848 135.271 124.89 135.303 124.92C135.334 124.951 135.376 124.968 135.42 124.97C135.629 124.983 135.831 125.046 136.011 125.153C136.191 125.26 136.343 125.408 136.455 125.585C136.484 125.624 136.527 125.651 136.575 125.66Z" fill="#263238"/>
<path d="M131 125.28C131.031 125.282 131.062 125.275 131.089 125.26C131.117 125.245 131.139 125.222 131.155 125.195C131.253 125.007 131.395 124.845 131.569 124.723C131.743 124.601 131.944 124.523 132.155 124.495C132.199 124.492 132.24 124.471 132.269 124.437C132.298 124.403 132.313 124.36 132.31 124.315C132.309 124.294 132.303 124.273 132.294 124.253C132.284 124.234 132.271 124.216 132.255 124.202C132.238 124.187 132.22 124.176 132.199 124.169C132.178 124.162 132.157 124.159 132.135 124.16C131.872 124.195 131.62 124.292 131.403 124.445C131.185 124.597 131.008 124.8 130.885 125.035C130.865 125.074 130.859 125.118 130.87 125.16C130.882 125.202 130.908 125.238 130.945 125.26C130.962 125.27 130.981 125.277 131 125.28Z" fill="#263238"/>
<path d="M139.685 122.791C138.02 123.261 138.125 125.031 140.385 128.491C142.17 127.286 143.42 124.206 142.685 123.096C141.95 121.986 141.135 122.386 139.685 122.791Z" fill="#263238"/>
<path d="M133.66 130.205C133.792 130.604 133.895 131.012 133.97 131.425H134.19C135.19 131.4 135.65 131.055 135.855 130.685C135.951 130.5 135.999 130.294 135.995 130.085C135.999 129.969 135.987 129.853 135.96 129.74C135.347 130.03 134.678 130.185 134 130.195C133.79 130.205 133.66 130.205 133.66 130.205Z" fill="#263238"/>
<path d="M134 130.189L134.1 130.549C135.045 130.519 135.71 130.374 135.995 130.079C135.999 129.963 135.987 129.847 135.96 129.734C135.347 130.024 134.678 130.179 134 130.189Z" fill="white"/>
<path d="M134.19 131.42C135.19 131.395 135.65 131.05 135.855 130.68C135.474 130.695 135.098 130.778 134.745 130.925C134.513 131.028 134.319 131.201 134.19 131.42Z" fill="#A24E3F"/>
<path d="M139 123.836C139 123.836 135.5 121.931 132.05 122.706C132.05 122.706 131.125 120.356 133.845 118.876C136.565 117.396 141.93 119.301 141.93 119.301C141.93 119.301 138.975 118.381 137.765 119.231C137.765 119.231 142.265 118.981 144.45 121.976C144.45 121.976 144.245 121.651 143.06 121.476C143.695 121.953 144.209 122.573 144.56 123.286C144.75 123.83 145.098 124.305 145.56 124.651L144.67 124.581C144.866 125.111 145.214 125.572 145.67 125.906C145.67 125.906 144.475 126.601 143.64 126.536C143.64 126.536 144.705 127.471 144.755 128.161C144.755 128.161 144.005 127.561 143.625 127.331C143.508 127.916 143.565 128.523 143.79 129.076C143.416 129.359 142.987 129.561 142.53 129.671L143.115 130.771C143.115 130.771 141.5 132.126 139.925 131.436C139.865 131.426 141.065 127.001 139 123.836Z" fill="#263238"/>
<path d="M142.405 128.846C142.115 129.678 141.507 130.361 140.715 130.746C139.66 131.246 138.94 130.346 139.07 129.246C139.185 128.246 139.875 126.806 141.01 126.746C141.261 126.743 141.508 126.802 141.73 126.919C141.952 127.036 142.141 127.207 142.28 127.416C142.418 127.625 142.503 127.865 142.524 128.115C142.546 128.365 142.505 128.616 142.405 128.846Z" fill="#EBB376"/>
<path opacity="0.2" d="M129.5 165.324L122.5 174.464C115.15 172.744 106.7 170.934 103.62 171.144C114 166.139 129.5 165.324 129.5 165.324Z" fill="#333333"/>
<path d="M93.0948 200.001C92.8273 199.997 92.5682 199.908 92.3548 199.746C92.2914 199.688 92.2452 199.613 92.2214 199.53C92.1976 199.447 92.197 199.359 92.2198 199.276C92.2254 199.224 92.2452 199.175 92.2769 199.134C92.3087 199.092 92.3512 199.06 92.3998 199.041C92.8698 198.876 94.0598 199.701 94.1898 199.801C94.2043 199.81 94.2155 199.822 94.2219 199.838C94.2282 199.853 94.2293 199.87 94.2248 199.886C94.22 199.905 94.2098 199.921 94.1955 199.933C94.1813 199.946 94.1636 199.954 94.1448 199.956C93.7972 200.006 93.4455 200.021 93.0948 200.001ZM92.5948 199.196C92.5535 199.189 92.5111 199.189 92.4698 199.196C92.4491 199.202 92.4307 199.215 92.4173 199.232C92.4038 199.249 92.396 199.27 92.3948 199.291C92.3781 199.348 92.3776 199.409 92.3935 199.467C92.4094 199.524 92.4411 199.576 92.4848 199.616C92.9145 199.843 93.4104 199.91 93.8848 199.806C93.4968 199.529 93.0612 199.326 92.5998 199.206L92.5948 199.196Z" fill="#3FA654"/>
<path d="M104.615 194.521L100.255 198.971L98.16 201.106L95.665 199.156L97.34 196.921L101.425 191.471L104.615 194.521Z" fill="#EBB376"/>
<path d="M95.8552 198.395L98.9502 200.37C99.0286 200.424 99.0833 200.506 99.1029 200.599C99.1224 200.692 99.1053 200.789 99.0552 200.87L98.0302 202.37C98.0302 202.37 96.7952 204.495 96.0302 204.67C93.7752 205.17 86.8152 200.99 86.9552 200.015C87.0052 199.655 87.5902 199.515 87.9552 199.515C89.1002 199.515 91.9252 199.895 92.8802 199.89C93.9952 199.89 94.9952 198.89 95.4052 198.435C95.4644 198.378 95.5413 198.343 95.6232 198.335C95.705 198.328 95.7869 198.349 95.8552 198.395Z" fill="#263238"/>
<path d="M94.125 200L94.095 199.975C93.7051 199.735 93.0151 198.86 93.1501 198.475C93.1752 198.41 93.2215 198.356 93.2813 198.32C93.3412 198.285 93.4112 198.271 93.4801 198.28C93.5507 198.277 93.6211 198.289 93.6872 198.314C93.7533 198.339 93.8138 198.376 93.865 198.425C94.285 198.81 94.2451 199.87 94.2301 199.925C94.2298 199.942 94.2244 199.958 94.2146 199.971C94.2047 199.985 94.1909 199.995 94.1751 200H94.125ZM93.5151 198.45H93.4701C93.3451 198.45 93.3351 198.505 93.3201 198.525C93.2401 198.76 93.675 199.41 94.045 199.73C94.0687 199.311 93.9565 198.895 93.725 198.545C93.6664 198.493 93.5931 198.46 93.5151 198.45Z" fill="#3FA654"/>
<path opacity="0.2" d="M104.615 194.521L100.255 198.971L97.3398 196.921L101.425 191.471L104.615 194.521Z" fill="#333333"/>
<path d="M97.3398 195.22L101.61 199.065C101.61 199.065 116.81 181.345 117.895 180.36C118.98 179.375 138.66 178.615 142.735 175.925C146.81 173.235 148.37 166.175 148.37 166.175L137.04 163.25L129.5 165.325C129.5 165.325 118.425 168.825 114.765 170.69C111.105 172.555 97.3398 195.22 97.3398 195.22Z" fill="#263238"/>
<path d="M139.695 225.55C121.628 225.581 103.938 220.391 88.7502 210.605C77.3002 203.21 71.1902 195.715 71.1302 195.64C71.1064 195.615 71.0882 195.585 71.0765 195.553C71.0649 195.52 71.0602 195.485 71.0626 195.451C71.0651 195.416 71.0747 195.383 71.0909 195.352C71.107 195.322 71.1294 195.295 71.1565 195.273C71.1836 195.252 71.2148 195.236 71.2483 195.227C71.2818 195.218 71.3167 195.216 71.3509 195.222C71.3851 195.227 71.4178 195.24 71.447 195.258C71.4761 195.277 71.501 195.302 71.5202 195.33C71.5802 195.4 77.6452 202.83 89.0202 210.195C104.128 219.925 121.725 225.083 139.695 225.05C153.465 225.05 165.575 224.05 175.695 222.145C175.727 222.139 175.761 222.139 175.793 222.146C175.825 222.152 175.856 222.165 175.883 222.184C175.91 222.203 175.933 222.226 175.95 222.254C175.968 222.282 175.98 222.313 175.985 222.345C175.997 222.41 175.984 222.477 175.947 222.532C175.911 222.587 175.855 222.626 175.79 222.64C165.635 224.57 153.5 225.55 139.695 225.55Z" fill="#263238"/>
<path d="M180.6 221.605C180.544 221.604 180.489 221.584 180.444 221.549C180.4 221.514 180.369 221.465 180.355 221.41C180.34 221.345 180.351 221.278 180.386 221.221C180.421 221.165 180.476 221.125 180.54 221.11C183.951 220.323 187.301 219.293 190.565 218.03C190.596 218.017 190.628 218.011 190.661 218.012C190.694 218.012 190.727 218.019 190.757 218.032C190.787 218.045 190.814 218.064 190.837 218.088C190.86 218.111 190.878 218.139 190.89 218.17C190.902 218.2 190.908 218.233 190.908 218.266C190.908 218.298 190.901 218.331 190.888 218.361C190.875 218.391 190.856 218.419 190.832 218.441C190.809 218.464 190.781 218.482 190.75 218.495C187.463 219.767 184.09 220.803 180.655 221.595L180.6 221.605Z" fill="#263238"/>
<path d="M194.54 216.745C194.482 216.748 194.426 216.73 194.379 216.696C194.333 216.662 194.3 216.612 194.286 216.556C194.272 216.5 194.277 216.441 194.302 216.389C194.326 216.337 194.368 216.295 194.42 216.27C195.147 215.904 195.843 215.48 196.5 215C196.525 214.976 196.555 214.958 196.588 214.946C196.62 214.935 196.655 214.93 196.689 214.932C196.724 214.935 196.757 214.944 196.788 214.961C196.819 214.977 196.846 214.999 196.867 215.026C196.889 215.053 196.904 215.084 196.913 215.118C196.922 215.151 196.924 215.186 196.918 215.221C196.913 215.255 196.901 215.287 196.882 215.317C196.863 215.346 196.839 215.371 196.81 215.39C196.125 215.893 195.399 216.337 194.64 216.72C194.609 216.735 194.575 216.743 194.54 216.745Z" fill="#263238"/>
<path d="M112.145 199.746C112.117 199.751 112.088 199.751 112.06 199.746C109.945 198.971 108.755 198.446 108.745 198.441C108.684 198.414 108.636 198.363 108.612 198.301C108.588 198.239 108.59 198.169 108.618 198.108C108.645 198.047 108.695 198 108.757 197.976C108.82 197.952 108.889 197.954 108.95 197.981C108.95 197.981 110.135 198.511 112.23 199.276C112.292 199.298 112.343 199.345 112.371 199.405C112.399 199.465 112.403 199.533 112.38 199.596C112.359 199.641 112.326 199.678 112.284 199.705C112.243 199.732 112.194 199.746 112.145 199.746Z" fill="#263238"/>
<path d="M131.405 204.835H131.36C126.784 204.032 122.258 202.963 117.805 201.635C117.739 201.616 117.683 201.571 117.649 201.511C117.616 201.45 117.608 201.379 117.627 201.313C117.647 201.247 117.691 201.191 117.752 201.157C117.812 201.124 117.884 201.116 117.95 201.135C122.385 202.458 126.892 203.523 131.45 204.325C131.483 204.331 131.514 204.343 131.542 204.36C131.57 204.378 131.594 204.401 131.613 204.428C131.632 204.455 131.646 204.485 131.653 204.517C131.66 204.549 131.661 204.583 131.655 204.615C131.648 204.676 131.618 204.732 131.572 204.773C131.526 204.814 131.466 204.836 131.405 204.835Z" fill="#263238"/>
<path d="M151.1 206.595C145.616 206.587 140.14 206.178 134.715 205.37C134.65 205.36 134.592 205.325 134.553 205.273C134.514 205.221 134.496 205.155 134.505 205.09C134.515 205.024 134.55 204.965 134.604 204.924C134.657 204.884 134.724 204.867 134.79 204.875C148.605 206.905 161.865 206.4 174.195 203.375C174.227 203.367 174.259 203.365 174.292 203.37C174.324 203.374 174.355 203.385 174.383 203.402C174.411 203.419 174.435 203.441 174.454 203.467C174.474 203.494 174.487 203.523 174.495 203.555C174.503 203.587 174.505 203.621 174.5 203.654C174.495 203.686 174.484 203.718 174.467 203.746C174.449 203.775 174.427 203.799 174.4 203.819C174.373 203.839 174.342 203.852 174.31 203.86C166.711 205.7 158.919 206.618 151.1 206.595Z" fill="#263238"/>
</svg>
